<svg class="marks" width="1781.25" height="1318.125" viewBox="0 0 1781.25 1318.125" version="1.1" xmlns="http://www.w3.org/2000/svg" xmlns:xlink="http://www.w3.org/1999/xlink"><rect width="1781.25" height="1318.125" style="fill: white;"></rect><g transform="translate(36,5)"><g class="mark-group role-frame root"><g transform="translate(0,0)"><path class="background" d="M0.5,0.5h1709.25v1308.125h-1709.25Z" style="fill: none; stroke: #ddd; stroke-opacity: 0;"></path><g><g class="mark-symbol role-mark layer_0_layer_0_marks"><path transform="translate(0,353.5472972972973)" d="M0.5,0A0.5,0.5,0,1,1,-0.5,0A0.5,0.5,0,1,1,0.5,0" style="fill: #000000; stroke-width: 2; opacity: 0;"></path><path transform="translate(244.17856909990311,353.5472972972973)" d="M0.5,0A0.5,0.5,0,1,1,-0.5,0A0.5,0.5,0,1,1,0.5,0" style="fill: #000000; stroke-width: 2; opacity: 0;"></path><path transform="translate(488.35713819980623,353.5472972972973)" d="M0.5,0A0.5,0.5,0,1,1,-0.5,0A0.5,0.5,0,1,1,0.5,0" style="fill: #000000; stroke-width: 2; opacity: 0;"></path><path transform="translate(732.5357236003875,353.5472972972973)" d="M0.5,0A0.5,0.5,0,1,1,-0.5,0A0.5,0.5,0,1,1,0.5,0" style="fill: #000000; stroke-width: 2; opacity: 0;"></path><path transform="translate(976.7142763996125,353.5472972972973)" d="M0.5,0A0.5,0.5,0,1,1,-0.5,0A0.5,0.5,0,1,1,0.5,0" style="fill: #000000; stroke-width: 2; opacity: 0;"></path><path transform="translate(1220.8928944015504,353.5472972972973)" d="M0.5,0A0.5,0.5,0,1,1,-0.5,0A0.5,0.5,0,1,1,0.5,0" style="fill: #000000; stroke-width: 2; opacity: 0;"></path><path transform="translate(1465.071447200775,353.5472972972973)" d="M0.5,0A0.5,0.5,0,1,1,-0.5,0A0.5,0.5,0,1,1,0.5,0" style="fill: #000000; stroke-width: 2; opacity: 0;"></path><path transform="translate(1709.25,353.5472972972973)" d="M0.5,0A0.5,0.5,0,1,1,-0.5,0A0.5,0.5,0,1,1,0.5,0" style="fill: #000000; stroke-width: 2; opacity: 0;"></path><path transform="translate(213.50869626045227,691.3928039170601)" d="M0.5,0A0.5,0.5,0,1,1,-0.5,0A0.5,0.5,0,1,1,0.5,0" style="fill: #000000; stroke-width: 2; opacity: 0;"></path><path transform="translate(375.8864030170441,1061.1686847016617)" d="M0.5,0A0.5,0.5,0,1,1,-0.5,0A0.5,0.5,0,1,1,0.5,0" style="fill: #000000; stroke-width: 2; opacity: 0;"></path><path transform="translate(609.6672095775605,817.2313129901886)" d="M0.5,0A0.5,0.5,0,1,1,-0.5,0A0.5,0.5,0,1,1,0.5,0" style="fill: #000000; stroke-width: 2; opacity: 0;"></path><path transform="translate(854.625,524.428496610474)" d="M0.5,0A0.5,0.5,0,1,1,-0.5,0A0.5,0.5,0,1,1,0.5,0" style="fill: #000000; stroke-width: 2; opacity: 0;"></path><path transform="translate(1099.5827252197266,817.2313129901886)" d="M0.5,0A0.5,0.5,0,1,1,-0.5,0A0.5,0.5,0,1,1,0.5,0" style="fill: #000000; stroke-width: 2; opacity: 0;"></path><path transform="translate(1333.363531780243,1061.1686847016617)" d="M0.5,0A0.5,0.5,0,1,1,-0.5,0A0.5,0.5,0,1,1,0.5,0" style="fill: #000000; stroke-width: 2; opacity: 0;"></path><path transform="translate(1495.7412385368348,691.3928039170601)" d="M0.5,0A0.5,0.5,0,1,1,-0.5,0A0.5,0.5,0,1,1,0.5,0" style="fill: #000000; stroke-width: 2; opacity: 0;"></path></g><g class="mark-line role-mark layer_0_layer_1_marks"><path d="M0,353.5472972972973L244.17856909990311,353.5472972972973" style="fill: none; stroke: #000000; stroke-width: 8; opacity: 1;"></path></g><g class="mark-line role-mark layer_0_layer_2_marks"><path d="M0,353.5472972972973L213.50869626045227,691.3928039170601" style="fill: none; stroke: #000000; stroke-width: 8; opacity: 1;"></path></g><g class="mark-line role-mark layer_0_layer_3_marks"><path d="M244.17856909990311,353.5472972972973L488.35713819980623,353.5472972972973" style="fill: none; stroke: #000000; stroke-width: 8; opacity: 1;"></path></g><g class="mark-line role-mark layer_0_layer_4_marks"><path d="M213.50869626045227,691.3928039170601L244.17856909990311,353.5472972972973" style="fill: none; stroke: #000000; stroke-width: 8; opacity: 1;"></path></g><g class="mark-line role-mark layer_0_layer_5_marks"><path d="M244.17856909990311,353.5472972972973L375.8864030170441,1061.1686847016617" style="fill: none; stroke: #000000; stroke-width: 8; opacity: 1;"></path></g><g class="mark-line role-mark layer_0_layer_6_marks"><path d="M488.35713819980623,353.5472972972973L732.5357236003875,353.5472972972973" style="fill: none; stroke: #000000; stroke-width: 8; opacity: 1;"></path></g><g class="mark-line role-mark layer_0_layer_7_marks"><path d="M375.8864030170441,1061.1686847016617L488.35713819980623,353.5472972972973" style="fill: none; stroke: #000000; stroke-width: 8; opacity: 1;"></path></g><g class="mark-line role-mark layer_0_layer_8_marks"><path d="M488.35713819980623,353.5472972972973L609.6672095775605,817.2313129901886" style="fill: none; stroke: #000000; stroke-width: 8; opacity: 1;"></path></g><g class="mark-line role-mark layer_0_layer_9_marks"><path d="M732.5357236003875,353.5472972972973L976.7142763996125,353.5472972972973" style="fill: none; stroke: #000000; stroke-width: 8; opacity: 1;"></path></g><g class="mark-line role-mark layer_0_layer_10_marks"><path d="M609.6672095775605,817.2313129901886L732.5357236003875,353.5472972972973" style="fill: none; stroke: #000000; stroke-width: 8; opacity: 1;"></path></g><g class="mark-line role-mark layer_0_layer_11_marks"><path d="M732.5357236003875,353.5472972972973L854.625,524.428496610474" style="fill: none; stroke: #000000; stroke-width: 8; opacity: 1;"></path></g><g class="mark-line role-mark layer_0_layer_12_marks"><path d="M976.7142763996125,353.5472972972973L1220.8928944015504,353.5472972972973" style="fill: none; stroke: #000000; stroke-width: 8; opacity: 1;"></path></g><g class="mark-line role-mark layer_0_layer_13_marks"><path d="M854.625,524.428496610474L976.7142763996125,353.5472972972973" style="fill: none; stroke: #000000; stroke-width: 8; opacity: 1;"></path></g><g class="mark-line role-mark layer_0_layer_14_marks"><path d="M976.7142763996125,353.5472972972973L1099.5827252197266,817.2313129901886" style="fill: none; stroke: #000000; stroke-width: 8; opacity: 1;"></path></g><g class="mark-line role-mark layer_0_layer_15_marks"><path d="M1220.8928944015504,353.5472972972973L1465.071447200775,353.5472972972973" style="fill: none; stroke: #000000; stroke-width: 8; opacity: 1;"></path></g><g class="mark-line role-mark layer_0_layer_16_marks"><path d="M1099.5827252197266,817.2313129901886L1220.8928944015504,353.5472972972973" style="fill: none; stroke: #000000; stroke-width: 8; opacity: 1;"></path></g><g class="mark-line role-mark layer_0_layer_17_marks"><path d="M1220.8928944015504,353.5472972972973L1333.363531780243,1061.1686847016617" style="fill: none; stroke: #000000; stroke-width: 8; opacity: 1;"></path></g><g class="mark-line role-mark layer_0_layer_18_marks"><path d="M1465.071447200775,353.5472972972973L1709.25,353.5472972972973" style="fill: none; stroke: #000000; stroke-width: 8; opacity: 1;"></path></g><g class="mark-line role-mark layer_0_layer_19_marks"><path d="M1333.363531780243,1061.1686847016617L1465.071447200775,353.5472972972973" style="fill: none; stroke: #000000; stroke-width: 8; opacity: 1;"></path></g><g class="mark-line role-mark layer_0_layer_20_marks"><path d="M1465.071447200775,353.5472972972973L1495.7412385368348,691.3928039170601" style="fill: none; stroke: #000000; stroke-width: 8; opacity: 1;"></path></g><g class="mark-line role-mark layer_0_layer_21_marks"><path d="M1495.7412385368348,691.3928039170601L1709.25,353.5472972972973" style="fill: none; stroke: #000000; stroke-width: 8; opacity: 1;"></path></g><g class="mark-line role-mark layer_0_layer_22_marks"><path d="M213.50869626045227,691.3928039170601L375.8864030170441,1061.1686847016617" style="fill: none; stroke: #000000; stroke-width: 8; opacity: 1;"></path></g><g class="mark-line role-mark layer_0_layer_23_marks"><path d="M375.8864030170441,1061.1686847016617L609.6672095775605,817.2313129901886" style="fill: none; stroke: #000000; stroke-width: 8; opacity: 1;"></path></g><g class="mark-line role-mark layer_0_layer_24_marks"><path d="M609.6672095775605,817.2313129901886L854.625,524.428496610474" style="fill: none; stroke: #000000; stroke-width: 8; opacity: 1;"></path></g><g class="mark-line role-mark layer_0_layer_25_marks"><path d="M854.625,524.428496610474L1099.5827252197266,817.2313129901886" style="fill: none; stroke: #000000; stroke-width: 8; opacity: 1;"></path></g><g class="mark-line role-mark layer_0_layer_26_marks"><path d="M1099.5827252197266,817.2313129901886L1333.363531780243,1061.1686847016617" style="fill: none; stroke: #000000; stroke-width: 8; opacity: 1;"></path></g><g class="mark-line role-mark layer_0_layer_27_marks"><path d="M1333.363531780243,1061.1686847016617L1495.7412385368348,691.3928039170601" style="fill: none; stroke: #000000; stroke-width: 8; opacity: 1;"></path></g><g class="mark-symbol role-mark layer_1_marks"><path transform="translate(375.8864030170441,1061.1686847016617)" d="M0,0L35.35533905932738,61.235447250755016L-35.35533905932738,61.235447250755016Z" style="fill: #0096C7; stroke: #0096C7; stroke-width: 2; opacity: 1;"></path></g><g class="mark-symbol role-mark layer_2_marks"><path transform="translate(1333.363531780243,1061.1686847016617)" d="M0,0L35.35533905932738,61.235447250755016L-35.35533905932738,61.235447250755016ZM7.0710678118654755,71.84204896855323C7.071067811865473,65.98418459228418,11.819805153394634,61.235447250755016,17.677669529663685,61.235447250755016C23.535533905932734,61.235447250755016,28.284271247461902,65.98418459228418,28.284271247461902,71.84204896855323C28.284271247461902,77.69991334482228,23.53553390593274,82.44865068635144,17.67766952966369,82.44865068635144C11.819805153394636,82.44865068635144,7.0710678118654755,77.69991334482228,7.071067811865474,71.84204896855323M-28.284271247461902,71.84204896855323C-28.284271247461902,65.98418459228418,-23.53553390593274,61.235447250755016,-17.67766952966369,61.235447250755016C-11.81980515339464,61.235447250755016,-7.0710678118654755,65.98418459228418,-7.071067811865474,71.84204896855323C-7.071067811865474,77.69991334482228,-11.819805153394636,82.44865068635144,-17.67766952966369,82.44865068635144C-23.53553390593274,82.44865068635144,-28.284271247461902,77.69991334482228,-28.284271247461902,71.84204896855323" style="fill: #0096C7; stroke: #0096C7; stroke-width: 2; opacity: 1;"></path></g><g class="mark-symbol role-mark layer_3_marks"><path transform="translate(0,353.5472972972973)" d="M0,0L-28.284271247461902,-61.23724356957945L-7.0710678118654755,-61.23724356957945L-7.0710678118654755,-212.13203435596427L7.0710678118654755,-212.13203435596427L7.0710678118654755,-61.23724356957945L28.284271247461902,-61.23724356957945" style="fill: #0096C7; stroke: #0096C7; stroke-width: 2; opacity: 1;"></path><path transform="translate(244.17856909990311,353.5472972972973)" d="M0,0L-28.284271247461902,-61.23724356957945L-7.0710678118654755,-61.23724356957945L-7.0710678118654755,-212.13203435596427L7.0710678118654755,-212.13203435596427L7.0710678118654755,-61.23724356957945L28.284271247461902,-61.23724356957945" style="fill: #0096C7; stroke: #0096C7; stroke-width: 2; opacity: 1;"></path><path transform="translate(488.35713819980623,353.5472972972973)" d="M0,0L-28.284271247461902,-61.23724356957945L-7.0710678118654755,-61.23724356957945L-7.0710678118654755,-212.13203435596427L7.0710678118654755,-212.13203435596427L7.0710678118654755,-61.23724356957945L28.284271247461902,-61.23724356957945" style="fill: #0096C7; stroke: #0096C7; stroke-width: 2; opacity: 1;"></path><path transform="translate(732.5357236003875,353.5472972972973)" d="M0,0L-28.284271247461902,-61.23724356957945L-7.0710678118654755,-61.23724356957945L-7.0710678118654755,-212.13203435596427L7.0710678118654755,-212.13203435596427L7.0710678118654755,-61.23724356957945L28.284271247461902,-61.23724356957945" style="fill: #0096C7; stroke: #0096C7; stroke-width: 2; opacity: 1;"></path><path transform="translate(976.7142763996125,353.5472972972973)" d="M0,0L-28.284271247461902,-61.23724356957945L-7.0710678118654755,-61.23724356957945L-7.0710678118654755,-212.13203435596427L7.0710678118654755,-212.13203435596427L7.0710678118654755,-61.23724356957945L28.284271247461902,-61.23724356957945" style="fill: #0096C7; stroke: #0096C7; stroke-width: 2; opacity: 1;"></path><path transform="translate(1220.8928944015504,353.5472972972973)" d="M0,0L-28.284271247461902,-61.23724356957945L-7.0710678118654755,-61.23724356957945L-7.0710678118654755,-212.13203435596427L7.0710678118654755,-212.13203435596427L7.0710678118654755,-61.23724356957945L28.284271247461902,-61.23724356957945" style="fill: #0096C7; stroke: #0096C7; stroke-width: 2; opacity: 1;"></path><path transform="translate(1465.071447200775,353.5472972972973)" d="M0,0L-28.284271247461902,-61.23724356957945L-7.0710678118654755,-61.23724356957945L-7.0710678118654755,-212.13203435596427L7.0710678118654755,-212.13203435596427L7.0710678118654755,-61.23724356957945L28.284271247461902,-61.23724356957945" style="fill: #0096C7; stroke: #0096C7; stroke-width: 2; opacity: 1;"></path><path transform="translate(1709.25,353.5472972972973)" d="M0,0L-28.284271247461902,-61.23724356957945L-7.0710678118654755,-61.23724356957945L-7.0710678118654755,-212.13203435596427L7.0710678118654755,-212.13203435596427L7.0710678118654755,-61.23724356957945L28.284271247461902,-61.23724356957945" style="fill: #0096C7; stroke: #0096C7; stroke-width: 2; opacity: 1;"></path></g></g><path class="foreground" d="" style="display: none; fill: none;"></path></g></g></g></svg>