<svg class="marks" width="1781.25" height="1318.125" viewBox="0 0 1781.25 1318.125" version="1.1" xmlns="http://www.w3.org/2000/svg" xmlns:xlink="http://www.w3.org/1999/xlink"><g transform="translate(47,5)"><g class="mark-group role-frame root"><g transform="translate(0,0)"><path class="background" d="M0.5,0.5h1687.25v1308.125h-1687.25Z" style="fill: none; stroke: #ddd; stroke-opacity: 0;"></path><g><g class="mark-symbol role-mark layer_0_marks"><path transform="translate(0,353.5472972972973)" d="M0.5,0A0.5,0.5,0,1,1,-0.5,0A0.5,0.5,0,1,1,0.5,0" style="fill: #000000; stroke-width: 2; opacity: 0;"></path><path transform="translate(241.0357119870186,353.5472972972973)" d="M0.5,0A0.5,0.5,0,1,1,-0.5,0A0.5,0.5,0,1,1,0.5,0" style="fill: #000000; stroke-width: 2; opacity: 0;"></path><path transform="translate(482.0714239740372,353.5472972972973)" d="M0.5,0A0.5,0.5,0,1,1,-0.5,0A0.5,0.5,0,1,1,0.5,0" style="fill: #000000; stroke-width: 2; opacity: 0;"></path><path transform="translate(723.1071520519256,353.5472972972973)" d="M0.5,0A0.5,0.5,0,1,1,-0.5,0A0.5,0.5,0,1,1,0.5,0" style="fill: #000000; stroke-width: 2; opacity: 0;"></path><path transform="translate(964.1428479480744,353.5472972972973)" d="M0.5,0A0.5,0.5,0,1,1,-0.5,0A0.5,0.5,0,1,1,0.5,0" style="fill: #000000; stroke-width: 2; opacity: 0;"></path><path transform="translate(1205.1786082077026,353.5472972972973)" d="M0.5,0A0.5,0.5,0,1,1,-0.5,0A0.5,0.5,0,1,1,0.5,0" style="fill: #000000; stroke-width: 2; opacity: 0;"></path><path transform="translate(1446.2143041038512,353.5472972972973)" d="M0.5,0A0.5,0.5,0,1,1,-0.5,0A0.5,0.5,0,1,1,0.5,0" style="fill: #000000; stroke-width: 2; opacity: 0;"></path><path transform="translate(1687.25,353.5472972972973)" d="M0.5,0A0.5,0.5,0,1,1,-0.5,0A0.5,0.5,0,1,1,0.5,0" style="fill: #000000; stroke-width: 2; opacity: 0;"></path><path transform="translate(100.01445924520492,797.9429547528963)" d="M0.5,0A0.5,0.5,0,1,1,-0.5,0A0.5,0.5,0,1,1,0.5,0" style="fill: #000000; stroke-width: 2; opacity: 0;"></path><path transform="translate(320.9191735315323,1007.9682079199198)" d="M0.5,0A0.5,0.5,0,1,1,-0.5,0A0.5,0.5,0,1,1,0.5,0" style="fill: #000000; stroke-width: 2; opacity: 0;"></path><path transform="translate(549.3374712467194,682.210209128019)" d="M0.5,0A0.5,0.5,0,1,1,-0.5,0A0.5,0.5,0,1,1,0.5,0" style="fill: #000000; stroke-width: 2; opacity: 0;"></path><path transform="translate(843.625,972.2550675675675)" d="M0.5,0A0.5,0.5,0,1,1,-0.5,0A0.5,0.5,0,1,1,0.5,0" style="fill: #000000; stroke-width: 2; opacity: 0;"></path><path transform="translate(1137.912464389801,682.2102428449167)" d="M0.5,0A0.5,0.5,0,1,1,-0.5,0A0.5,0.5,0,1,1,0.5,0" style="fill: #000000; stroke-width: 2; opacity: 0;"></path><path transform="translate(1366.3308586502076,1007.9682079199198)" d="M0.5,0A0.5,0.5,0,1,1,-0.5,0A0.5,0.5,0,1,1,0.5,0" style="fill: #000000; stroke-width: 2; opacity: 0;"></path><path transform="translate(1587.2355890274048,797.9429547528963)" d="M0.5,0A0.5,0.5,0,1,1,-0.5,0A0.5,0.5,0,1,1,0.5,0" style="fill: #000000; stroke-width: 2; opacity: 0;"></path></g><g class="mark-line role-mark layer_1_marks"><path d="M0,353.5472972972973L241.0357119870186,353.5472972972973" style="fill: none; stroke: #000000; stroke-width: 11.25; opacity: 1;"></path></g><g class="mark-line role-mark layer_2_marks"><path d="M0,353.5472972972973L100.01445924520492,797.9429547528963" style="fill: none; stroke: #000000; stroke-width: 11.25; opacity: 1;"></path></g><g class="mark-line role-mark layer_3_marks"><path d="M241.0357119870186,353.5472972972973L482.0714239740372,353.5472972972973" style="fill: none; stroke: #000000; stroke-width: 11.25; opacity: 1;"></path></g><g class="mark-line role-mark layer_4_marks"><path d="M100.01445924520492,797.9429547528963L241.0357119870186,353.5472972972973" style="fill: none; stroke: #000000; stroke-width: 11.25; opacity: 1;"></path></g><g class="mark-line role-mark layer_5_marks"><path d="M241.0357119870186,353.5472972972973L320.9191735315323,1007.9682079199198" style="fill: none; stroke: #000000; stroke-width: 11.25; opacity: 1;"></path></g><g class="mark-line role-mark layer_6_marks"><path d="M482.0714239740372,353.5472972972973L723.1071520519256,353.5472972972973" style="fill: none; stroke: #000000; stroke-width: 11.25; opacity: 1;"></path></g><g class="mark-line role-mark layer_7_marks"><path d="M320.9191735315323,1007.9682079199198L482.0714239740372,353.5472972972973" style="fill: none; stroke: #000000; stroke-width: 11.25; opacity: 1;"></path></g><g class="mark-line role-mark layer_8_marks"><path d="M482.0714239740372,353.5472972972973L549.3374712467194,682.210209128019" style="fill: none; stroke: #000000; stroke-width: 11.25; opacity: 1;"></path></g><g class="mark-line role-mark layer_9_marks"><path d="M723.1071520519256,353.5472972972973L964.1428479480744,353.5472972972973" style="fill: none; stroke: #000000; stroke-width: 11.25; opacity: 1;"></path></g><g class="mark-line role-mark layer_10_marks"><path d="M549.3374712467194,682.210209128019L723.1071520519256,353.5472972972973" style="fill: none; stroke: #000000; stroke-width: 11.25; opacity: 1;"></path></g><g class="mark-line role-mark layer_11_marks"><path d="M723.1071520519256,353.5472972972973L843.625,972.2550675675675" style="fill: none; stroke: #000000; stroke-width: 11.25; opacity: 1;"></path></g><g class="mark-line role-mark layer_12_marks"><path d="M964.1428479480744,353.5472972972973L1205.1786082077026,353.5472972972973" style="fill: none; stroke: #000000; stroke-width: 11.25; opacity: 1;"></path></g><g class="mark-line role-mark layer_13_marks"><path d="M843.625,972.2550675675675L964.1428479480744,353.5472972972973" style="fill: none; stroke: #000000; stroke-width: 11.25; opacity: 1;"></path></g><g class="mark-line role-mark layer_14_marks"><path d="M964.1428479480744,353.5472972972973L1137.912464389801,682.2102428449167" style="fill: none; stroke: #000000; stroke-width: 11.25; opacity: 1;"></path></g><g class="mark-line role-mark layer_15_marks"><path d="M1205.1786082077026,353.5472972972973L1446.2143041038512,353.5472972972973" style="fill: none; stroke: #000000; stroke-width: 11.25; opacity: 1;"></path></g><g class="mark-line role-mark layer_16_marks"><path d="M1137.912464389801,682.2102428449167L1205.1786082077026,353.5472972972973" style="fill: none; stroke: #000000; stroke-width: 11.25; opacity: 1;"></path></g><g class="mark-line role-mark layer_17_marks"><path d="M1205.1786082077026,353.5472972972973L1366.3308586502076,1007.9682079199198" style="fill: none; stroke: #000000; stroke-width: 11.25; opacity: 1;"></path></g><g class="mark-line role-mark layer_18_marks"><path d="M1446.2143041038512,353.5472972972973L1687.25,353.5472972972973" style="fill: none; stroke: #000000; stroke-width: 11.25; opacity: 1;"></path></g><g class="mark-line role-mark layer_19_marks"><path d="M1366.3308586502076,1007.9682079199198L1446.2143041038512,353.5472972972973" style="fill: none; stroke: #000000; stroke-width: 11.25; opacity: 1;"></path></g><g class="mark-line role-mark layer_20_marks"><path d="M1446.2143041038512,353.5472972972973L1587.2355890274048,797.9429547528963" style="fill: none; stroke: #000000; stroke-width: 11.25; opacity: 1;"></path></g><g class="mark-line role-mark layer_21_marks"><path d="M1587.2355890274048,797.9429547528963L1687.25,353.5472972972973" style="fill: none; stroke: #000000; stroke-width: 11.25; opacity: 1;"></path></g><g class="mark-line role-mark layer_22_marks"><path d="M100.01445924520492,797.9429547528963L320.9191735315323,1007.9682079199198" style="fill: none; stroke: #000000; stroke-width: 11.25; opacity: 1;"></path></g><g class="mark-line role-mark layer_23_marks"><path d="M320.9191735315323,1007.9682079199198L549.3374712467194,682.210209128019" style="fill: none; stroke: #000000; stroke-width: 11.25; opacity: 1;"></path></g><g class="mark-line role-mark layer_24_marks"><path d="M549.3374712467194,682.210209128019L843.625,972.2550675675675" style="fill: none; stroke: #000000; stroke-width: 11.25; opacity: 1;"></path></g><g class="mark-line role-mark layer_25_marks"><path d="M843.625,972.2550675675675L1137.912464389801,682.2102428449167" style="fill: none; stroke: #000000; stroke-width: 11.25; opacity: 1;"></path></g><g class="mark-line role-mark layer_26_marks"><path d="M1137.912464389801,682.2102428449167L1366.3308586502076,1007.9682079199198" style="fill: none; stroke: #000000; stroke-width: 11.25; opacity: 1;"></path></g><g class="mark-line role-mark layer_27_marks"><path d="M1366.3308586502076,1007.9682079199198L1587.2355890274048,797.9429547528963" style="fill: none; stroke: #000000; stroke-width: 11.25; opacity: 1;"></path></g><g class="mark-symbol role-mark layer_28_marks"><path transform="translate(320.9191735315323,1007.9682079199198)" d="M0,0L61.237243569579455,106.06290586251161L-61.237243569579455,106.06290586251161Z" style="fill: #0096C7; stroke: #0096C7; stroke-width: 2; opacity: 1;"></path></g><g class="mark-symbol role-mark layer_29_marks"><path transform="translate(1366.3308586502076,1007.9682079199198)" d="M0,0L61.237243569579455,106.06290586251161L-61.237243569579455,106.06290586251161ZM12.247448713915892,124.43407893338545C12.247448713915896,114.28796020983968,20.472503061243962,106.0629058625116,30.61862178478973,106.0629058625116C40.7647405083355,106.0629058625116,48.98979485566357,114.28796020983968,48.98979485566357,124.43407893338544C48.98979485566357,134.5801976569312,40.7647405083355,142.80525200425927,30.618621784789735,142.80525200425927C20.472503061243966,142.80525200425927,12.2474487139159,134.5801976569312,12.247448713915897,124.43407893338544M-48.98979485566357,124.43407893338545C-48.98979485566357,114.28796020983968,-40.76474050833551,106.0629058625116,-30.618621784789738,106.0629058625116C-20.472503061243973,106.0629058625116,-12.2474487139159,114.28796020983968,-12.247448713915897,124.43407893338544C-12.247448713915897,134.5801976569312,-20.472503061243966,142.80525200425927,-30.618621784789735,142.80525200425927C-40.7647405083355,142.80525200425927,-48.98979485566357,134.5801976569312,-48.98979485566357,124.43407893338544" style="fill: #0096C7; stroke: #0096C7; stroke-width: 2; opacity: 1;"></path></g><g class="mark-symbol role-mark layer_30_marks"><path transform="translate(0,353.5472972972973)" d="M0,0L-40,-86.60254037844386L-10,-86.60254037844386L-10,-300L10,-300L10,-86.60254037844386L40,-86.60254037844386" style="fill: #0096C7; stroke: #0096C7; stroke-width: 2; opacity: 1;"></path><path transform="translate(1687.25,353.5472972972973)" d="M0,0L-40,-86.60254037844386L-10,-86.60254037844386L-10,-300L10,-300L10,-86.60254037844386L40,-86.60254037844386" style="fill: #0096C7; stroke: #0096C7; stroke-width: 2; opacity: 1;"></path></g></g><path class="foreground" d="" style="display: none; fill: none;"></path></g></g></g></svg>