<svg class="marks" width="1781.25" height="800" viewBox="0 0 1781.25 800" version="1.1" xmlns="http://www.w3.org/2000/svg" xmlns:xlink="http://www.w3.org/1999/xlink"><rect width="1781.25" height="800" style="fill: white;"></rect><g transform="translate(105,126)"><g class="mark-group role-frame root"><g transform="translate(0,0)"><path class="background" d="M0.5,0.5h1668.25v598h-1668.25Z" style="fill: none; stroke: #ddd; stroke-opacity: 0;"></path><g><g class="mark-group role-axis"><g transform="translate(0.5,598.5)"><path class="background" d="M0,0h0v0h0Z" style="pointer-events: none; fill: none;"></path><g><g class="mark-rule role-axis-grid" style="pointer-events: none;"><line transform="translate(0,-598)" x2="0" y2="598" style="fill: none; stroke: #ddd; stroke-width: 1; opacity: 1;"></line><line transform="translate(167,-598)" x2="0" y2="598" style="fill: none; stroke: #ddd; stroke-width: 1; opacity: 1;"></line><line transform="translate(265,-598)" x2="0" y2="598" style="fill: none; stroke: #ddd; stroke-width: 1; opacity: 1;"></line><line transform="translate(335,-598)" x2="0" y2="598" style="fill: none; stroke: #ddd; stroke-width: 1; opacity: 1;"></line><line transform="translate(389,-598)" x2="0" y2="598" style="fill: none; stroke: #ddd; stroke-width: 1; opacity: 1;"></line><line transform="translate(433,-598)" x2="0" y2="598" style="fill: none; stroke: #ddd; stroke-width: 1; opacity: 1;"></line><line transform="translate(470,-598)" x2="0" y2="598" style="fill: none; stroke: #ddd; stroke-width: 1; opacity: 1;"></line><line transform="translate(502,-598)" x2="0" y2="598" style="fill: none; stroke: #ddd; stroke-width: 1; opacity: 1;"></line><line transform="translate(531,-598)" x2="0" y2="598" style="fill: none; stroke: #ddd; stroke-width: 1; opacity: 1;"></line><line transform="translate(556,-598)" x2="0" y2="598" style="fill: none; stroke: #ddd; stroke-width: 1; opacity: 1;"></line><line transform="translate(723,-598)" x2="0" y2="598" style="fill: none; stroke: #ddd; stroke-width: 1; opacity: 1;"></line><line transform="translate(821,-598)" x2="0" y2="598" style="fill: none; stroke: #ddd; stroke-width: 1; opacity: 1;"></line><line transform="translate(891,-598)" x2="0" y2="598" style="fill: none; stroke: #ddd; stroke-width: 1; opacity: 1;"></line><line transform="translate(945,-598)" x2="0" y2="598" style="fill: none; stroke: #ddd; stroke-width: 1; opacity: 1;"></line><line transform="translate(989,-598)" x2="0" y2="598" style="fill: none; stroke: #ddd; stroke-width: 1; opacity: 1;"></line><line transform="translate(1026,-598)" x2="0" y2="598" style="fill: none; stroke: #ddd; stroke-width: 1; opacity: 1;"></line><line transform="translate(1058,-598)" x2="0" y2="598" style="fill: none; stroke: #ddd; stroke-width: 1; opacity: 1;"></line><line transform="translate(1087,-598)" x2="0" y2="598" style="fill: none; stroke: #ddd; stroke-width: 1; opacity: 1;"></line><line transform="translate(1112,-598)" x2="0" y2="598" style="fill: none; stroke: #ddd; stroke-width: 1; opacity: 1;"></line><line transform="translate(1280,-598)" x2="0" y2="598" style="fill: none; stroke: #ddd; stroke-width: 1; opacity: 1;"></line><line transform="translate(1377,-598)" x2="0" y2="598" style="fill: none; stroke: #ddd; stroke-width: 1; opacity: 1;"></line><line transform="translate(1447,-598)" x2="0" y2="598" style="fill: none; stroke: #ddd; stroke-width: 1; opacity: 1;"></line><line transform="translate(1501,-598)" x2="0" y2="598" style="fill: none; stroke: #ddd; stroke-width: 1; opacity: 1;"></line><line transform="translate(1545,-598)" x2="0" y2="598" style="fill: none; stroke: #ddd; stroke-width: 1; opacity: 1;"></line><line transform="translate(1582,-598)" x2="0" y2="598" style="fill: none; stroke: #ddd; stroke-width: 1; opacity: 1;"></line><line transform="translate(1614,-598)" x2="0" y2="598" style="fill: none; stroke: #ddd; stroke-width: 1; opacity: 1;"></line><line transform="translate(1643,-598)" x2="0" y2="598" style="fill: none; stroke: #ddd; stroke-width: 1; opacity: 1;"></line><line transform="translate(1668,-598)" x2="0" y2="598" style="fill: none; stroke: #ddd; stroke-width: 1; opacity: 1;"></line></g></g><path class="foreground" d="" style="pointer-events: none; display: none; fill: none;"></path></g></g><g class="mark-group role-axis"><g transform="translate(0.5,0.5)"><path class="background" d="M0,0h0v0h0Z" style="pointer-events: none; fill: none;"></path><g><g class="mark-rule role-axis-grid" style="pointer-events: none;"><line transform="translate(0,598)" x2="1668.25" y2="0" style="fill: none; stroke: #ddd; stroke-width: 1; opacity: 1;"></line><line transform="translate(0,465)" x2="1668.25" y2="0" style="fill: none; stroke: #ddd; stroke-width: 1; opacity: 1;"></line><line transform="translate(0,332)" x2="1668.25" y2="0" style="fill: none; stroke: #ddd; stroke-width: 1; opacity: 1;"></line><line transform="translate(0,199)" x2="1668.25" y2="0" style="fill: none; stroke: #ddd; stroke-width: 1; opacity: 1;"></line><line transform="translate(0,66)" x2="1668.25" y2="0" style="fill: none; stroke: #ddd; stroke-width: 1; opacity: 1;"></line></g></g><path class="foreground" d="" style="pointer-events: none; display: none; fill: none;"></path></g></g><g class="mark-group role-axis"><g transform="translate(0.5,598.5)"><path class="background" d="M0,0h0v0h0Z" style="pointer-events: none; fill: none;"></path><g><g class="mark-rule role-axis-tick" style="pointer-events: none;"><line transform="translate(0,0)" x2="0" y2="5" style="fill: none; stroke: #888; stroke-width: 1; opacity: 1;"></line><line transform="translate(167,0)" x2="0" y2="5" style="fill: none; stroke: #888; stroke-width: 1; opacity: 1;"></line><line transform="translate(265,0)" x2="0" y2="5" style="fill: none; stroke: #888; stroke-width: 1; opacity: 1;"></line><line transform="translate(335,0)" x2="0" y2="5" style="fill: none; stroke: #888; stroke-width: 1; opacity: 1;"></line><line transform="translate(389,0)" x2="0" y2="5" style="fill: none; stroke: #888; stroke-width: 1; opacity: 1;"></line><line transform="translate(433,0)" x2="0" y2="5" style="fill: none; stroke: #888; stroke-width: 1; opacity: 1;"></line><line transform="translate(470,0)" x2="0" y2="5" style="fill: none; stroke: #888; stroke-width: 1; opacity: 1;"></line><line transform="translate(502,0)" x2="0" y2="5" style="fill: none; stroke: #888; stroke-width: 1; opacity: 1;"></line><line transform="translate(531,0)" x2="0" y2="5" style="fill: none; stroke: #888; stroke-width: 1; opacity: 1;"></line><line transform="translate(556,0)" x2="0" y2="5" style="fill: none; stroke: #888; stroke-width: 1; opacity: 1;"></line><line transform="translate(723,0)" x2="0" y2="5" style="fill: none; stroke: #888; stroke-width: 1; opacity: 1;"></line><line transform="translate(821,0)" x2="0" y2="5" style="fill: none; stroke: #888; stroke-width: 1; opacity: 1;"></line><line transform="translate(891,0)" x2="0" y2="5" style="fill: none; stroke: #888; stroke-width: 1; opacity: 1;"></line><line transform="translate(945,0)" x2="0" y2="5" style="fill: none; stroke: #888; stroke-width: 1; opacity: 1;"></line><line transform="translate(989,0)" x2="0" y2="5" style="fill: none; stroke: #888; stroke-width: 1; opacity: 1;"></line><line transform="translate(1026,0)" x2="0" y2="5" style="fill: none; stroke: #888; stroke-width: 1; opacity: 1;"></line><line transform="translate(1058,0)" x2="0" y2="5" style="fill: none; stroke: #888; stroke-width: 1; opacity: 1;"></line><line transform="translate(1087,0)" x2="0" y2="5" style="fill: none; stroke: #888; stroke-width: 1; opacity: 1;"></line><line transform="translate(1112,0)" x2="0" y2="5" style="fill: none; stroke: #888; stroke-width: 1; opacity: 1;"></line><line transform="translate(1280,0)" x2="0" y2="5" style="fill: none; stroke: #888; stroke-width: 1; opacity: 1;"></line><line transform="translate(1377,0)" x2="0" y2="5" style="fill: none; stroke: #888; stroke-width: 1; opacity: 1;"></line><line transform="translate(1447,0)" x2="0" y2="5" style="fill: none; stroke: #888; stroke-width: 1; opacity: 1;"></line><line transform="translate(1501,0)" x2="0" y2="5" style="fill: none; stroke: #888; stroke-width: 1; opacity: 1;"></line><line transform="translate(1545,0)" x2="0" y2="5" style="fill: none; stroke: #888; stroke-width: 1; opacity: 1;"></line><line transform="translate(1582,0)" x2="0" y2="5" style="fill: none; stroke: #888; stroke-width: 1; opacity: 1;"></line><line transform="translate(1614,0)" x2="0" y2="5" style="fill: none; stroke: #888; stroke-width: 1; opacity: 1;"></line><line transform="translate(1643,0)" x2="0" y2="5" style="fill: none; stroke: #888; stroke-width: 1; opacity: 1;"></line><line transform="translate(1668,0)" x2="0" y2="5" style="fill: none; stroke: #888; stroke-width: 1; opacity: 1;"></line></g><g class="mark-text role-axis-label" style="pointer-events: none;"><text text-anchor="start" transform="translate(0,31)" style="font-family: Arial; font-size: 30px; fill: #000; opacity: 1;">1</text><text text-anchor="middle" transform="translate(167.39776342214554,31)" style="font-family: Arial; font-size: 30px; fill: #000; opacity: 1;">2</text><text text-anchor="middle" transform="translate(265.31917772869224,31)" style="font-family: Arial; font-size: 30px; fill: #000; opacity: 1;">3</text><text text-anchor="middle" transform="translate(334.7955268442911,31)" style="font-family: Arial; font-size: 30px; fill: #000; opacity: 1;"></text><text text-anchor="middle" transform="translate(388.68556991118777,31)" style="font-family: Arial; font-size: 30px; fill: #000; opacity: 1;"></text><text text-anchor="middle" transform="translate(432.71694115083784,31)" style="font-family: Arial; font-size: 30px; fill: #000; opacity: 1;"></text><text text-anchor="middle" transform="translate(469.94493508459465,31)" style="font-family: Arial; font-size: 30px; fill: #000; opacity: 1;"></text><text text-anchor="middle" transform="translate(502.19329026643663,31)" style="font-family: Arial; font-size: 30px; fill: #000; opacity: 1;"></text><text text-anchor="middle" transform="translate(530.6383554573846,31)" style="font-family: Arial; font-size: 30px; fill: #000; opacity: 1;"></text><text text-anchor="middle" transform="translate(556.0833333333334,31)" style="font-family: Arial; font-size: 30px; fill: #000; opacity: 1;">10</text><text text-anchor="middle" transform="translate(723.4810967554789,31)" style="font-family: Arial; font-size: 30px; fill: #000; opacity: 1;">20</text><text text-anchor="middle" transform="translate(821.4025110620256,31)" style="font-family: Arial; font-size: 30px; fill: #000; opacity: 1;">30</text><text text-anchor="middle" transform="translate(890.8788601776245,31)" style="font-family: Arial; font-size: 30px; fill: #000; opacity: 1;"></text><text text-anchor="middle" transform="translate(944.7689032445211,31)" style="font-family: Arial; font-size: 30px; fill: #000; opacity: 1;"></text><text text-anchor="middle" transform="translate(988.8002744841712,31)" style="font-family: Arial; font-size: 30px; fill: #000; opacity: 1;"></text><text text-anchor="middle" transform="translate(1026.028268417928,31)" style="font-family: Arial; font-size: 30px; fill: #000; opacity: 1;"></text><text text-anchor="middle" transform="translate(1058.27662359977,31)" style="font-family: Arial; font-size: 30px; fill: #000; opacity: 1;"></text><text text-anchor="middle" transform="translate(1086.721688790718,31)" style="font-family: Arial; font-size: 30px; fill: #000; opacity: 1;"></text><text text-anchor="middle" transform="translate(1112.1666666666667,31)" style="font-family: Arial; font-size: 30px; fill: #000; opacity: 1;">100</text><text text-anchor="middle" transform="translate(1279.564430088812,31)" style="font-family: Arial; font-size: 30px; fill: #000; opacity: 1;">200</text><text text-anchor="middle" transform="translate(1377.485844395359,31)" style="font-family: Arial; font-size: 30px; fill: #000; opacity: 1;">300</text><text text-anchor="middle" transform="translate(1446.9621935109578,31)" style="font-family: Arial; font-size: 30px; fill: #000; opacity: 1;"></text><text text-anchor="middle" transform="translate(1500.8522365778545,31)" style="font-family: Arial; font-size: 30px; fill: #000; opacity: 1;"></text><text text-anchor="middle" transform="translate(1544.8836078175045,31)" style="font-family: Arial; font-size: 30px; fill: #000; opacity: 1;"></text><text text-anchor="middle" transform="translate(1582.1116017512613,31)" style="font-family: Arial; font-size: 30px; fill: #000; opacity: 1;"></text><text text-anchor="middle" transform="translate(1614.3599569331034,31)" style="font-family: Arial; font-size: 30px; fill: #000; opacity: 1;"></text><text text-anchor="middle" transform="translate(1642.8050221240512,31)" style="font-family: Arial; font-size: 30px; fill: #000; opacity: 1;"></text><text text-anchor="end" transform="translate(1668.25,31)" style="font-family: Arial; font-size: 30px; fill: #000; opacity: 1;">1,000</text></g><g class="mark-rule role-axis-domain" style="pointer-events: none;"><line transform="translate(0,0)" x2="1668.25" y2="0" style="fill: none; stroke: #888; stroke-width: 1; opacity: 1;"></line></g><g class="mark-text role-axis-title" style="pointer-events: none;"><text text-anchor="middle" transform="translate(834.125,65)" style="font-family: Arial; font-size: 30px; font-weight: bold; fill: #000; opacity: 1;">Number of Training Samples</text></g></g><path class="foreground" d="" style="pointer-events: none; display: none; fill: none;"></path></g></g><g class="mark-group role-axis"><g transform="translate(0.5,0.5)"><path class="background" d="M0,0h0v0h0Z" style="pointer-events: none; fill: none;"></path><g><g class="mark-rule role-axis-tick" style="pointer-events: none;"><line transform="translate(0,598)" x2="-5" y2="0" style="fill: none; stroke: #888; stroke-width: 1; opacity: 1;"></line><line transform="translate(0,465)" x2="-5" y2="0" style="fill: none; stroke: #888; stroke-width: 1; opacity: 1;"></line><line transform="translate(0,332)" x2="-5" y2="0" style="fill: none; stroke: #888; stroke-width: 1; opacity: 1;"></line><line transform="translate(0,199)" x2="-5" y2="0" style="fill: none; stroke: #888; stroke-width: 1; opacity: 1;"></line><line transform="translate(0,66)" x2="-5" y2="0" style="fill: none; stroke: #888; stroke-width: 1; opacity: 1;"></line></g><g class="mark-text role-axis-label" style="pointer-events: none;"><text text-anchor="end" transform="translate(-7,607)" style="font-family: Arial; font-size: 30px; fill: #000; opacity: 1;">0.00</text><text text-anchor="end" transform="translate(-7,474.11111111111114)" style="font-family: Arial; font-size: 30px; fill: #000; opacity: 1;">0.02</text><text text-anchor="end" transform="translate(-7,341.22222222222223)" style="font-family: Arial; font-size: 30px; fill: #000; opacity: 1;">0.04</text><text text-anchor="end" transform="translate(-7,208.33333333333334)" style="font-family: Arial; font-size: 30px; fill: #000; opacity: 1;">0.06</text><text text-anchor="end" transform="translate(-7,75.44444444444441)" style="font-family: Arial; font-size: 30px; fill: #000; opacity: 1;">0.08</text></g><g class="mark-rule role-axis-domain" style="pointer-events: none;"><line transform="translate(0,598)" x2="0" y2="-598" style="fill: none; stroke: #888; stroke-width: 1; opacity: 1;"></line></g><g class="mark-text role-axis-title" style="pointer-events: none;"><text text-anchor="middle" transform="translate(-69.388671875,299) rotate(-90) translate(0,-6)" style="font-family: Arial; font-size: 30px; font-weight: bold; fill: #000; opacity: 1;">Mean Absolute Error (cm)</text></g></g><path class="foreground" d="" style="pointer-events: none; display: none; fill: none;"></path></g></g><g class="mark-line role-mark layer_0_marks"><path d="M0,474.0346842535461L1668.25,474.0346842535461" style="fill: none; stroke: #BFC0C0; stroke-width: 3; stroke-dasharray: 8,8; opacity: 1;"></path></g><g class="mark-text role-mark layer_1_marks"><text text-anchor="end" transform="translate(1668.25,469.0346842535461)" style="font-family: Arial; font-size: 24px; fill: #BFC0C0; opacity: 1;">baseline</text></g><g class="mark-symbol role-mark layer_2_marks"><path transform="translate(1254.1194522128635,391.03214131047326)" d="M9.354143466934854,0A9.354143466934854,9.354143466934854,0,1,1,-9.354143466934854,0A9.354143466934854,9.354143466934854,0,1,1,9.354143466934854,0" style="fill: none; stroke: black; stroke-width: 8; opacity: 0.7;"></path><path transform="translate(1254.1194522128635,523.3814700827934)" d="M0,-8.100925873009825L-9.354143466934854,8.100925873009825L9.354143466934854,8.100925873009825Z" style="fill: none; stroke: #0096C7; stroke-width: 8; opacity: 0.7;"></path><path transform="translate(1254.1194522128635,583.2379171426663)" d="M-9.354143466934854,-9.354143466934854h18.708286933869708v18.708286933869708h-18.708286933869708Z" style="fill: none; stroke: #BFC0C0; stroke-width: 8; opacity: 0.7;"></path><path transform="translate(1472.7088627729797,454.18125257113326)" d="M9.354143466934854,0A9.354143466934854,9.354143466934854,0,1,1,-9.354143466934854,0A9.354143466934854,9.354143466934854,0,1,1,9.354143466934854,0" style="fill: none; stroke: black; stroke-width: 8; opacity: 0.7;"></path><path transform="translate(1472.7088627729797,539.764818021562)" d="M0,-8.100925873009825L-9.354143466934854,8.100925873009825L9.354143466934854,8.100925873009825Z" style="fill: none; stroke: #0096C7; stroke-width: 8; opacity: 0.7;"></path><path transform="translate(1472.7088627729797,588.7700815076894)" d="M-9.354143466934854,-9.354143466934854h18.708286933869708v18.708286933869708h-18.708286933869708Z" style="fill: none; stroke: #BFC0C0; stroke-width: 8; opacity: 0.7;"></path><path transform="translate(530.6383554573846,251.1045818037043)" d="M9.354143466934854,0A9.354143466934854,9.354143466934854,0,1,1,-9.354143466934854,0A9.354143466934854,9.354143466934854,0,1,1,9.354143466934854,0" style="fill: none; stroke: black; stroke-width: 8; opacity: 0.7;"></path><path transform="translate(530.6383554573846,310.48380747685826)" d="M0,-8.100925873009825L-9.354143466934854,8.100925873009825L9.354143466934854,8.100925873009825Z" style="fill: none; stroke: #0096C7; stroke-width: 8; opacity: 0.7;"></path><path transform="translate(530.6383554573846,532.25594502685)" d="M-9.354143466934854,-9.354143466934854h18.708286933869708v18.708286933869708h-18.708286933869708Z" style="fill: none; stroke: #BFC0C0; stroke-width: 8; opacity: 0.7;"></path><path transform="translate(1092.0296809897409,365.9693814584365)" d="M9.354143466934854,0A9.354143466934854,9.354143466934854,0,1,1,-9.354143466934854,0A9.354143466934854,9.354143466934854,0,1,1,9.354143466934854,0" style="fill: none; stroke: black; stroke-width: 8; opacity: 0.7;"></path><path transform="translate(1092.0296809897409,512.6783957234584)" d="M0,-8.100925873009825L-9.354143466934854,8.100925873009825L9.354143466934854,8.100925873009825Z" style="fill: none; stroke: #0096C7; stroke-width: 8; opacity: 0.7;"></path><path transform="translate(1092.0296809897409,578.8537000697306)" d="M-9.354143466934854,-9.354143466934854h18.708286933869708v18.708286933869708h-18.708286933869708Z" style="fill: none; stroke: #BFC0C0; stroke-width: 8; opacity: 0.7;"></path><path transform="translate(929.8257505004202,318.3550912129382)" d="M9.354143466934854,0A9.354143466934854,9.354143466934854,0,1,1,-9.354143466934854,0A9.354143466934854,9.354143466934854,0,1,1,9.354143466934854,0" style="fill: none; stroke: black; stroke-width: 8; opacity: 0.7;"></path><path transform="translate(929.8257505004202,514.2892706866065)" d="M0,-8.100925873009825L-9.354143466934854,8.100925873009825L9.354143466934854,8.100925873009825Z" style="fill: none; stroke: #0096C7; stroke-width: 8; opacity: 0.7;"></path><path transform="translate(929.8257505004202,570.7138169189543)" d="M-9.354143466934854,-9.354143466934854h18.708286933869708v18.708286933869708h-18.708286933869708Z" style="fill: none; stroke: #BFC0C0; stroke-width: 8; opacity: 0.7;"></path><path transform="translate(334.7955268442911,24.969185993075303)" d="M9.354143466934854,0A9.354143466934854,9.354143466934854,0,1,1,-9.354143466934854,0A9.354143466934854,9.354143466934854,0,1,1,9.354143466934854,0" style="fill: none; stroke: black; stroke-width: 8; opacity: 0.7;"></path><path transform="translate(334.7955268442911,220.98324346666536)" d="M0,-8.100925873009825L-9.354143466934854,8.100925873009825L9.354143466934854,8.100925873009825Z" style="fill: none; stroke: #0096C7; stroke-width: 8; opacity: 0.7;"></path><path transform="translate(334.7955268442911,502.89853021893174)" d="M-9.354143466934854,-9.354143466934854h18.708286933869708v18.708286933869708h-18.708286933869708Z" style="fill: none; stroke: #BFC0C0; stroke-width: 8; opacity: 0.7;"></path><path transform="translate(1645.2080660616825,495.13160043178743)" d="M9.354143466934854,0A9.354143466934854,9.354143466934854,0,1,1,-9.354143466934854,0A9.354143466934854,9.354143466934854,0,1,1,9.354143466934854,0" style="fill: none; stroke: black; stroke-width: 8; opacity: 0.7;"></path><path transform="translate(1645.2080660616825,547.5899620746883)" d="M0,-8.100925873009825L-9.354143466934854,8.100925873009825L9.354143466934854,8.100925873009825Z" style="fill: none; stroke: #0096C7; stroke-width: 8; opacity: 0.7;"></path><path transform="translate(1645.2080660616825,591.4156989625502)" d="M-9.354143466934854,-9.354143466934854h18.708286933869708v18.708286933869708h-18.708286933869708Z" style="fill: none; stroke: #BFC0C0; stroke-width: 8; opacity: 0.7;"></path><path transform="translate(698.0361188795301,200.89562401175505)" d="M9.354143466934854,0A9.354143466934854,9.354143466934854,0,1,1,-9.354143466934854,0A9.354143466934854,9.354143466934854,0,1,1,9.354143466934854,0" style="fill: none; stroke: black; stroke-width: 8; opacity: 0.7;"></path><path transform="translate(698.0361188795301,494.9974016196405)" d="M0,-8.100925873009825L-9.354143466934854,8.100925873009825L9.354143466934854,8.100925873009825Z" style="fill: none; stroke: #0096C7; stroke-width: 8; opacity: 0.7;"></path><path transform="translate(698.0361188795301,554.2487664389056)" d="M-9.354143466934854,-9.354143466934854h18.708286933869708v18.708286933869708h-18.708286933869708Z" style="fill: none; stroke: #BFC0C0; stroke-width: 8; opacity: 0.7;"></path></g><g class="mark-rule role-mark layer_3_marks"><line transform="translate(1254.1194522128635,391.03214131047326)" x2="0" y2="132.34932877232012" style="fill: none; stroke: black; stroke-width: 2;"></line><line transform="translate(1472.7088627729797,454.18125257113326)" x2="0" y2="85.5835654504287" style="fill: none; stroke: black; stroke-width: 2;"></line><line transform="translate(530.6383554573846,251.1045818037043)" x2="0" y2="59.37922567315397" style="fill: none; stroke: black; stroke-width: 2;"></line><line transform="translate(1092.0296809897409,365.9693814584365)" x2="0" y2="146.7090142650219" style="fill: none; stroke: black; stroke-width: 2;"></line><line transform="translate(929.8257505004202,318.3550912129382)" x2="0" y2="195.93417947366834" style="fill: none; stroke: black; stroke-width: 2;"></line><line transform="translate(334.7955268442911,24.969185993075303)" x2="0" y2="196.01405747359004" style="fill: none; stroke: black; stroke-width: 2;"></line><line transform="translate(1645.2080660616825,495.13160043178743)" x2="0" y2="52.458361642900854" style="fill: none; stroke: black; stroke-width: 2;"></line><line transform="translate(698.0361188795301,200.89562401175505)" x2="0" y2="294.1017776078855" style="fill: none; stroke: black; stroke-width: 2;"></line></g><g class="mark-group role-legend"><g transform="translate(0,-51)"><path class="background" d="M0,0h796v33h-796Z" style="pointer-events: none; fill: none;"></path><g><g class="mark-group role-legend-entry"><g transform="translate(0,0)"><path class="background" d="M0,0h0v0h0Z" style="pointer-events: none; fill: none;"></path><g><g class="mark-group role-scope"><g transform="translate(0,0.32292826653257123)"><path class="background" d="M0,0h100.6650390625v32.35414346693486h-100.6650390625Z" style="pointer-events: none; fill: none; opacity: 1;"></path><g><g class="mark-symbol role-legend-symbol" style="pointer-events: none;"><path transform="translate(15,15)" d="M9.354143466934854,0A9.354143466934854,9.354143466934854,0,1,1,-9.354143466934854,0A9.354143466934854,9.354143466934854,0,1,1,9.354143466934854,0" style="fill: none; stroke: black; stroke-width: 8; opacity: 0.7;"></path></g><g class="mark-text role-legend-label" style="pointer-events: none;"><text text-anchor="start" transform="translate(34,24)" style="font-family: Arial; font-size: 30px; fill: #000; opacity: 1;">GCN</text></g></g><path class="foreground" d="" style="pointer-events: none; display: none; fill: none;"></path></g><g transform="translate(164,0.32292826653257123)"><path class="background" d="M0,0h240.748046875v32.35414346693486h-240.748046875Z" style="pointer-events: none; fill: none; opacity: 1;"></path><g><g class="mark-symbol role-legend-symbol" style="pointer-events: none;"><path transform="translate(15,15)" d="M-9.354143466934854,-9.354143466934854h18.708286933869708v18.708286933869708h-18.708286933869708Z" style="fill: none; stroke: #BFC0C0; stroke-width: 8; opacity: 0.7;"></path></g><g class="mark-text role-legend-label" style="pointer-events: none;"><text text-anchor="start" transform="translate(34,24)" style="font-family: Arial; font-size: 30px; fill: #000; opacity: 1;">Random Forest</text></g></g><path class="foreground" d="" style="pointer-events: none; display: none; fill: none;"></path></g><g transform="translate(468,0.9495370634950877)"><path class="background" d="M0,0h327.994140625v31.100925873009828h-327.994140625Z" style="pointer-events: none; fill: none; opacity: 1;"></path><g><g class="mark-symbol role-legend-symbol" style="pointer-events: none;"><path transform="translate(15,15)" d="M0,-8.100925873009825L-9.354143466934854,8.100925873009825L9.354143466934854,8.100925873009825Z" style="fill: none; stroke: #0096C7; stroke-width: 8; opacity: 0.7;"></path></g><g class="mark-text role-legend-label" style="pointer-events: none;"><text text-anchor="start" transform="translate(34,24)" style="font-family: Arial; font-size: 30px; fill: #000; opacity: 1;">Transfer learned GCN</text></g></g><path class="foreground" d="" style="pointer-events: none; display: none; fill: none;"></path></g></g></g><path class="foreground" d="" style="pointer-events: none; display: none; fill: none;"></path></g></g></g><path class="foreground" d="" style="pointer-events: none; display: none; fill: none;"></path></g></g><g class="mark-group role-title"><g transform="translate(834.125,-121)"><path class="background" d="M0,0h0v0h0Z" style="pointer-events: none; fill: none;"></path><g><g class="mark-text role-title-text" style="pointer-events: none;"><text text-anchor="middle" transform="translate(0,32)" style="font-family: Arial; font-size: 40px; font-weight: bold; fill: #000; opacity: 1;">F. Transfer learning across domains - Tower</text></g></g><path class="foreground" d="" style="pointer-events: none; display: none; fill: none;"></path></g></g></g><path class="foreground" d="" style="display: none; fill: none;"></path></g></g></g></svg>