<svg class="marks" width="1781.25" height="445.3125" viewBox="0 0 1781.25 445.3125" version="1.1" xmlns="http://www.w3.org/2000/svg" xmlns:xlink="http://www.w3.org/1999/xlink"><g transform="translate(20,20)"><g class="mark-group role-frame root"><g transform="translate(0,0)"><path class="background" d="M0.5,0.5h1741.25v405.3125h-1741.25Z" style="fill: none; stroke: #ddd; stroke-opacity: 0;"></path><g><g class="mark-symbol role-mark layer_0_marks"><path transform="translate(0,0)" d="M0.5,0A0.5,0.5,0,1,1,-0.5,0A0.5,0.5,0,1,1,0.5,0" style="fill: #000000; stroke-width: 2; opacity: 0;"></path><path transform="translate(193.47221484184266,0)" d="M0.5,0A0.5,0.5,0,1,1,-0.5,0A0.5,0.5,0,1,1,0.5,0" style="fill: #000000; stroke-width: 2; opacity: 0;"></path><path transform="translate(386.9444296836853,0)" d="M0.5,0A0.5,0.5,0,1,1,-0.5,0A0.5,0.5,0,1,1,0.5,0" style="fill: #000000; stroke-width: 2; opacity: 0;"></path><path transform="translate(580.416644525528,0)" d="M0.5,0A0.5,0.5,0,1,1,-0.5,0A0.5,0.5,0,1,1,0.5,0" style="fill: #000000; stroke-width: 2; opacity: 0;"></path><path transform="translate(773.8888593673706,0)" d="M0.5,0A0.5,0.5,0,1,1,-0.5,0A0.5,0.5,0,1,1,0.5,0" style="fill: #000000; stroke-width: 2; opacity: 0;"></path><path transform="translate(967.3611406326294,0)" d="M0.5,0A0.5,0.5,0,1,1,-0.5,0A0.5,0.5,0,1,1,0.5,0" style="fill: #000000; stroke-width: 2; opacity: 0;"></path><path transform="translate(1160.833289051056,0)" d="M0.5,0A0.5,0.5,0,1,1,-0.5,0A0.5,0.5,0,1,1,0.5,0" style="fill: #000000; stroke-width: 2; opacity: 0;"></path><path transform="translate(1354.3055703163147,0)" d="M0.5,0A0.5,0.5,0,1,1,-0.5,0A0.5,0.5,0,1,1,0.5,0" style="fill: #000000; stroke-width: 2; opacity: 0;"></path><path transform="translate(1547.7777187347413,0)" d="M0.5,0A0.5,0.5,0,1,1,-0.5,0A0.5,0.5,0,1,1,0.5,0" style="fill: #000000; stroke-width: 2; opacity: 0;"></path><path transform="translate(1741.25,0)" d="M0.5,0A0.5,0.5,0,1,1,-0.5,0A0.5,0.5,0,1,1,0.5,0" style="fill: #000000; stroke-width: 2; opacity: 0;"></path><path transform="translate(90.38954097628593,190.0415045261383)" d="M0.5,0A0.5,0.5,0,1,1,-0.5,0A0.5,0.5,0,1,1,0.5,0" style="fill: #000000; stroke-width: 2; opacity: 0;"></path><path transform="translate(213.40212910175322,362.4481179714203)" d="M0.5,0A0.5,0.5,0,1,1,-0.5,0A0.5,0.5,0,1,1,0.5,0" style="fill: #000000; stroke-width: 2; opacity: 0;"></path><path transform="translate(424.0387192726135,405.3125)" d="M0.5,0A0.5,0.5,0,1,1,-0.5,0A0.5,0.5,0,1,1,0.5,0" style="fill: #000000; stroke-width: 2; opacity: 0;"></path><path transform="translate(647.3318596363067,405.3125)" d="M0.5,0A0.5,0.5,0,1,1,-0.5,0A0.5,0.5,0,1,1,0.5,0" style="fill: #000000; stroke-width: 2; opacity: 0;"></path><path transform="translate(870.625,405.3125)" d="M0.5,0A0.5,0.5,0,1,1,-0.5,0A0.5,0.5,0,1,1,0.5,0" style="fill: #000000; stroke-width: 2; opacity: 0;"></path><path transform="translate(1093.9181403636933,405.3125)" d="M0.5,0A0.5,0.5,0,1,1,-0.5,0A0.5,0.5,0,1,1,0.5,0" style="fill: #000000; stroke-width: 2; opacity: 0;"></path><path transform="translate(1317.2112807273866,405.3125)" d="M0.5,0A0.5,0.5,0,1,1,-0.5,0A0.5,0.5,0,1,1,0.5,0" style="fill: #000000; stroke-width: 2; opacity: 0;"></path><path transform="translate(1527.8479041099547,362.4481179714203)" d="M0.5,0A0.5,0.5,0,1,1,-0.5,0A0.5,0.5,0,1,1,0.5,0" style="fill: #000000; stroke-width: 2; opacity: 0;"></path><path transform="translate(1650.8604839324953,190.0415045261383)" d="M0.5,0A0.5,0.5,0,1,1,-0.5,0A0.5,0.5,0,1,1,0.5,0" style="fill: #000000; stroke-width: 2; opacity: 0;"></path></g><g class="mark-line role-mark layer_1_marks"><path d="M0,0L193.47221484184266,0" style="fill: none; stroke: #000000; stroke-width: 15; opacity: 1;"></path></g><g class="mark-line role-mark layer_2_marks"><path d="M0,0L90.38954097628593,190.0415045261383" style="fill: none; stroke: #000000; stroke-width: 15; opacity: 1;"></path></g><g class="mark-line role-mark layer_3_marks"><path d="M193.47221484184266,0L386.9444296836853,0" style="fill: none; stroke: #000000; stroke-width: 15; opacity: 1;"></path></g><g class="mark-line role-mark layer_4_marks"><path d="M90.38954097628593,190.0415045261383L193.47221484184266,0" style="fill: none; stroke: #000000; stroke-width: 15; opacity: 1;"></path></g><g class="mark-line role-mark layer_5_marks"><path d="M193.47221484184266,0L213.40212910175322,362.4481179714203" style="fill: none; stroke: #000000; stroke-width: 15; opacity: 1;"></path></g><g class="mark-line role-mark layer_6_marks"><path d="M386.9444296836853,0L580.416644525528,0" style="fill: none; stroke: #000000; stroke-width: 15; opacity: 1;"></path></g><g class="mark-line role-mark layer_7_marks"><path d="M213.40212910175322,362.4481179714203L386.9444296836853,0" style="fill: none; stroke: #000000; stroke-width: 15; opacity: 1;"></path></g><g class="mark-line role-mark layer_8_marks"><path d="M386.9444296836853,0L424.0387192726135,405.3125" style="fill: none; stroke: #000000; stroke-width: 15; opacity: 1;"></path></g><g class="mark-line role-mark layer_9_marks"><path d="M580.416644525528,0L773.8888593673706,0" style="fill: none; stroke: #000000; stroke-width: 15; opacity: 1;"></path></g><g class="mark-line role-mark layer_10_marks"><path d="M424.0387192726135,405.3125L580.416644525528,0" style="fill: none; stroke: #000000; stroke-width: 15; opacity: 1;"></path></g><g class="mark-line role-mark layer_11_marks"><path d="M580.416644525528,0L647.3318596363067,405.3125" style="fill: none; stroke: #000000; stroke-width: 15; opacity: 1;"></path></g><g class="mark-line role-mark layer_12_marks"><path d="M773.8888593673706,0L967.3611406326294,0" style="fill: none; stroke: #000000; stroke-width: 15; opacity: 1;"></path></g><g class="mark-line role-mark layer_13_marks"><path d="M647.3318596363067,405.3125L773.8888593673706,0" style="fill: none; stroke: #000000; stroke-width: 15; opacity: 1;"></path></g><g class="mark-line role-mark layer_14_marks"><path d="M773.8888593673706,0L870.625,405.3125" style="fill: none; stroke: #000000; stroke-width: 15; opacity: 1;"></path></g><g class="mark-line role-mark layer_15_marks"><path d="M967.3611406326294,0L1160.833289051056,0" style="fill: none; stroke: #000000; stroke-width: 15; opacity: 1;"></path></g><g class="mark-line role-mark layer_16_marks"><path d="M870.625,405.3125L967.3611406326294,0" style="fill: none; stroke: #000000; stroke-width: 15; opacity: 1;"></path></g><g class="mark-line role-mark layer_17_marks"><path d="M967.3611406326294,0L1093.9181403636933,405.3125" style="fill: none; stroke: #000000; stroke-width: 15; opacity: 1;"></path></g><g class="mark-line role-mark layer_18_marks"><path d="M1160.833289051056,0L1354.3055703163147,0" style="fill: none; stroke: #000000; stroke-width: 15; opacity: 1;"></path></g><g class="mark-line role-mark layer_19_marks"><path d="M1093.9181403636933,405.3125L1160.833289051056,0" style="fill: none; stroke: #000000; stroke-width: 15; opacity: 1;"></path></g><g class="mark-line role-mark layer_20_marks"><path d="M1160.833289051056,0L1317.2112807273866,405.3125" style="fill: none; stroke: #000000; stroke-width: 15; opacity: 1;"></path></g><g class="mark-line role-mark layer_21_marks"><path d="M1354.3055703163147,0L1547.7777187347413,0" style="fill: none; stroke: #000000; stroke-width: 15; opacity: 1;"></path></g><g class="mark-line role-mark layer_22_marks"><path d="M1317.2112807273866,405.3125L1354.3055703163147,0" style="fill: none; stroke: #000000; stroke-width: 15; opacity: 1;"></path></g><g class="mark-line role-mark layer_23_marks"><path d="M1354.3055703163147,0L1527.8479041099547,362.4481179714203" style="fill: none; stroke: #000000; stroke-width: 15; opacity: 1;"></path></g><g class="mark-line role-mark layer_24_marks"><path d="M1547.7777187347413,0L1741.25,0" style="fill: none; stroke: #000000; stroke-width: 15; opacity: 1;"></path></g><g class="mark-line role-mark layer_25_marks"><path d="M1527.8479041099547,362.4481179714203L1547.7777187347413,0" style="fill: none; stroke: #000000; stroke-width: 15; opacity: 1;"></path></g><g class="mark-line role-mark layer_26_marks"><path d="M1547.7777187347413,0L1650.8604839324953,190.0415045261383" style="fill: none; stroke: #000000; stroke-width: 15; opacity: 1;"></path></g><g class="mark-line role-mark layer_27_marks"><path d="M1650.8604839324953,190.0415045261383L1741.25,0" style="fill: none; stroke: #000000; stroke-width: 15; opacity: 1;"></path></g><g class="mark-line role-mark layer_28_marks"><path d="M90.38954097628593,190.0415045261383L213.40212910175322,362.4481179714203" style="fill: none; stroke: #000000; stroke-width: 15; opacity: 1;"></path></g><g class="mark-line role-mark layer_29_marks"><path d="M213.40212910175322,362.4481179714203L424.0387192726135,405.3125" style="fill: none; stroke: #000000; stroke-width: 15; opacity: 1;"></path></g><g class="mark-line role-mark layer_30_marks"><path d="M424.0387192726135,405.3125L647.3318596363067,405.3125" style="fill: none; stroke: #000000; stroke-width: 15; opacity: 1;"></path></g><g class="mark-line role-mark layer_31_marks"><path d="M647.3318596363067,405.3125L870.625,405.3125" style="fill: none; stroke: #000000; stroke-width: 15; opacity: 1;"></path></g><g class="mark-line role-mark layer_32_marks"><path d="M870.625,405.3125L1093.9181403636933,405.3125" style="fill: none; stroke: #000000; stroke-width: 15; opacity: 1;"></path></g><g class="mark-line role-mark layer_33_marks"><path d="M1093.9181403636933,405.3125L1317.2112807273866,405.3125" style="fill: none; stroke: #000000; stroke-width: 15; opacity: 1;"></path></g><g class="mark-line role-mark layer_34_marks"><path d="M1317.2112807273866,405.3125L1527.8479041099547,362.4481179714203" style="fill: none; stroke: #000000; stroke-width: 15; opacity: 1;"></path></g><g class="mark-line role-mark layer_35_marks"><path d="M1527.8479041099547,362.4481179714203L1650.8604839324953,190.0415045261383" style="fill: none; stroke: #000000; stroke-width: 15; opacity: 1;"></path></g></g><path class="foreground" d="" style="display: none; fill: none;"></path></g></g></g></svg>