<svg class="marks" width="1781.25" height="445.3125" viewBox="0 0 1781.25 445.3125" version="1.1" xmlns="http://www.w3.org/2000/svg" xmlns:xlink="http://www.w3.org/1999/xlink"><g transform="translate(20,20)"><g class="mark-group role-frame root"><g transform="translate(0,0)"><path class="background" d="M0.5,0.5h1741.25v405.3125h-1741.25Z" style="fill: none; stroke: #ddd; stroke-opacity: 0;"></path><g><g class="mark-symbol role-mark layer_0_marks"><path transform="translate(0,0)" d="M0.5,0A0.5,0.5,0,1,1,-0.5,0A0.5,0.5,0,1,1,0.5,0" style="fill: #000000; stroke-width: 2; opacity: 0;"></path><path transform="translate(348.25,0)" d="M0.5,0A0.5,0.5,0,1,1,-0.5,0A0.5,0.5,0,1,1,0.5,0" style="fill: #000000; stroke-width: 2; opacity: 0;"></path><path transform="translate(696.5,0)" d="M0.5,0A0.5,0.5,0,1,1,-0.5,0A0.5,0.5,0,1,1,0.5,0" style="fill: #000000; stroke-width: 2; opacity: 0;"></path><path transform="translate(1044.75,0)" d="M0.5,0A0.5,0.5,0,1,1,-0.5,0A0.5,0.5,0,1,1,0.5,0" style="fill: #000000; stroke-width: 2; opacity: 0;"></path><path transform="translate(1393,0)" d="M0.5,0A0.5,0.5,0,1,1,-0.5,0A0.5,0.5,0,1,1,0.5,0" style="fill: #000000; stroke-width: 2; opacity: 0;"></path><path transform="translate(1741.25,0)" d="M0.5,0A0.5,0.5,0,1,1,-0.5,0A0.5,0.5,0,1,1,0.5,0" style="fill: #000000; stroke-width: 2; opacity: 0;"></path><path transform="translate(165.43726552724837,309.5936325788498)" d="M0.5,0A0.5,0.5,0,1,1,-0.5,0A0.5,0.5,0,1,1,0.5,0" style="fill: #000000; stroke-width: 2; opacity: 0;"></path><path transform="translate(498.46977713108066,405.3125)" d="M0.5,0A0.5,0.5,0,1,1,-0.5,0A0.5,0.5,0,1,1,0.5,0" style="fill: #000000; stroke-width: 2; opacity: 0;"></path><path transform="translate(870.625,405.3125)" d="M0.5,0A0.5,0.5,0,1,1,-0.5,0A0.5,0.5,0,1,1,0.5,0" style="fill: #000000; stroke-width: 2; opacity: 0;"></path><path transform="translate(1242.7802560806274,405.3125)" d="M0.5,0A0.5,0.5,0,1,1,-0.5,0A0.5,0.5,0,1,1,0.5,0" style="fill: #000000; stroke-width: 2; opacity: 0;"></path><path transform="translate(1575.8127842903139,309.5936325788498)" d="M0.5,0A0.5,0.5,0,1,1,-0.5,0A0.5,0.5,0,1,1,0.5,0" style="fill: #000000; stroke-width: 2; opacity: 0;"></path></g><g class="mark-line role-mark layer_1_marks"><path d="M0,0L348.25,0" style="fill: none; stroke: #000000; stroke-width: 15; opacity: 1;"></path></g><g class="mark-line role-mark layer_2_marks"><path d="M0,0L165.43726552724837,309.5936325788498" style="fill: none; stroke: #000000; stroke-width: 15; opacity: 1;"></path></g><g class="mark-line role-mark layer_3_marks"><path d="M348.25,0L696.5,0" style="fill: none; stroke: #000000; stroke-width: 15; opacity: 1;"></path></g><g class="mark-line role-mark layer_4_marks"><path d="M165.43726552724837,309.5936325788498L348.25,0" style="fill: none; stroke: #000000; stroke-width: 15; opacity: 1;"></path></g><g class="mark-line role-mark layer_5_marks"><path d="M348.25,0L498.46977713108066,405.3125" style="fill: none; stroke: #000000; stroke-width: 15; opacity: 1;"></path></g><g class="mark-line role-mark layer_6_marks"><path d="M696.5,0L1044.75,0" style="fill: none; stroke: #000000; stroke-width: 15; opacity: 1;"></path></g><g class="mark-line role-mark layer_7_marks"><path d="M498.46977713108066,405.3125L696.5,0" style="fill: none; stroke: #000000; stroke-width: 15; opacity: 1;"></path></g><g class="mark-line role-mark layer_8_marks"><path d="M696.5,0L870.625,405.3125" style="fill: none; stroke: #000000; stroke-width: 15; opacity: 1;"></path></g><g class="mark-line role-mark layer_9_marks"><path d="M1044.75,0L1393,0" style="fill: none; stroke: #000000; stroke-width: 15; opacity: 1;"></path></g><g class="mark-line role-mark layer_10_marks"><path d="M870.625,405.3125L1044.75,0" style="fill: none; stroke: #000000; stroke-width: 15; opacity: 1;"></path></g><g class="mark-line role-mark layer_11_marks"><path d="M1044.75,0L1242.7802560806274,405.3125" style="fill: none; stroke: #000000; stroke-width: 15; opacity: 1;"></path></g><g class="mark-line role-mark layer_12_marks"><path d="M1393,0L1741.25,0" style="fill: none; stroke: #000000; stroke-width: 15; opacity: 1;"></path></g><g class="mark-line role-mark layer_13_marks"><path d="M1242.7802560806274,405.3125L1393,0" style="fill: none; stroke: #000000; stroke-width: 15; opacity: 1;"></path></g><g class="mark-line role-mark layer_14_marks"><path d="M1393,0L1575.8127842903139,309.5936325788498" style="fill: none; stroke: #000000; stroke-width: 15; opacity: 1;"></path></g><g class="mark-line role-mark layer_15_marks"><path d="M1575.8127842903139,309.5936325788498L1741.25,0" style="fill: none; stroke: #000000; stroke-width: 15; opacity: 1;"></path></g><g class="mark-line role-mark layer_16_marks"><path d="M165.43726552724837,309.5936325788498L498.46977713108066,405.3125" style="fill: none; stroke: #000000; stroke-width: 15; opacity: 1;"></path></g><g class="mark-line role-mark layer_17_marks"><path d="M498.46977713108066,405.3125L870.625,405.3125" style="fill: none; stroke: #000000; stroke-width: 15; opacity: 1;"></path></g><g class="mark-line role-mark layer_18_marks"><path d="M870.625,405.3125L1242.7802560806274,405.3125" style="fill: none; stroke: #000000; stroke-width: 15; opacity: 1;"></path></g><g class="mark-line role-mark layer_19_marks"><path d="M1242.7802560806274,405.3125L1575.8127842903139,309.5936325788498" style="fill: none; stroke: #000000; stroke-width: 15; opacity: 1;"></path></g></g><path class="foreground" d="" style="display: none; fill: none;"></path></g></g></g></svg>