<svg class="marks" width="600" height="270" viewBox="0 0 600 270" version="1.1" xmlns="http://www.w3.org/2000/svg" xmlns:xlink="http://www.w3.org/1999/xlink"><rect width="600" height="270" style="fill: white;"></rect><g transform="translate(5,24)"><g class="mark-group role-frame root"><g transform="translate(0,0)"><path class="background" d="M0.5,0.5h590v241h-590Z" style="fill: none; stroke: #ddd;"></path><g><g class="mark-symbol role-mark layer_0_layer_0_marks"><path transform="translate(49.166666666666664,0)" d="M0.5,0A0.5,0.5,0,1,1,-0.5,0A0.5,0.5,0,1,1,0.5,0" style="fill: #000000; stroke-width: 2; opacity: 0;"></path><path transform="translate(119.40476123491922,0)" d="M0.5,0A0.5,0.5,0,1,1,-0.5,0A0.5,0.5,0,1,1,0.5,0" style="fill: #000000; stroke-width: 2; opacity: 0;"></path><path transform="translate(189.64285580317178,0)" d="M0.5,0A0.5,0.5,0,1,1,-0.5,0A0.5,0.5,0,1,1,0.5,0" style="fill: #000000; stroke-width: 2; opacity: 0;"></path><path transform="translate(259.88095506032306,0)" d="M0.5,0A0.5,0.5,0,1,1,-0.5,0A0.5,0.5,0,1,1,0.5,0" style="fill: #000000; stroke-width: 2; opacity: 0;"></path><path transform="translate(330.1190449396769,0)" d="M0.5,0A0.5,0.5,0,1,1,-0.5,0A0.5,0.5,0,1,1,0.5,0" style="fill: #000000; stroke-width: 2; opacity: 0;"></path><path transform="translate(400.3571535746256,0)" d="M0.5,0A0.5,0.5,0,1,1,-0.5,0A0.5,0.5,0,1,1,0.5,0" style="fill: #000000; stroke-width: 2; opacity: 0;"></path><path transform="translate(470.5952434539795,0)" d="M0.5,0A0.5,0.5,0,1,1,-0.5,0A0.5,0.5,0,1,1,0.5,0" style="fill: #000000; stroke-width: 2; opacity: 0;"></path><path transform="translate(540.8333333333333,0)" d="M0.5,0A0.5,0.5,0,1,1,-0.5,0A0.5,0.5,0,1,1,0.5,0" style="fill: #000000; stroke-width: 2; opacity: 0;"></path><path transform="translate(72.83941821257274,84.34776804182265)" d="M0.5,0A0.5,0.5,0,1,1,-0.5,0A0.5,0.5,0,1,1,0.5,0" style="fill: #000000; stroke-width: 2; opacity: 0;"></path><path transform="translate(120.45653279622397,153.81814730608903)" d="M0.5,0A0.5,0.5,0,1,1,-0.5,0A0.5,0.5,0,1,1,0.5,0" style="fill: #000000; stroke-width: 2; opacity: 0;"></path><path transform="translate(199.0873950322469,111.57407407407406)" d="M0.5,0A0.5,0.5,0,1,1,-0.5,0A0.5,0.5,0,1,1,0.5,0" style="fill: #000000; stroke-width: 2; opacity: 0;"></path><path transform="translate(295,111.57407407407406)" d="M0.5,0A0.5,0.5,0,1,1,-0.5,0A0.5,0.5,0,1,1,0.5,0" style="fill: #000000; stroke-width: 2; opacity: 0;"></path><path transform="translate(390.9125862121582,111.57407407407406)" d="M0.5,0A0.5,0.5,0,1,1,-0.5,0A0.5,0.5,0,1,1,0.5,0" style="fill: #000000; stroke-width: 2; opacity: 0;"></path><path transform="translate(469.54346720377606,153.81814730608903)" d="M0.5,0A0.5,0.5,0,1,1,-0.5,0A0.5,0.5,0,1,1,0.5,0" style="fill: #000000; stroke-width: 2; opacity: 0;"></path><path transform="translate(517.1605841318767,84.34776804182265)" d="M0.5,0A0.5,0.5,0,1,1,-0.5,0A0.5,0.5,0,1,1,0.5,0" style="fill: #000000; stroke-width: 2; opacity: 0;"></path></g><g class="mark-line role-mark layer_0_layer_1_marks"><path d="M49.166666666666664,0L119.40476123491922,0" style="fill: none; stroke: #000000; stroke-width: 2; opacity: 0.1;"></path></g><g class="mark-line role-mark layer_0_layer_2_marks"><path d="M49.166666666666664,0L72.83941821257274,84.34776804182265" style="fill: none; stroke: #000000; stroke-width: 2; opacity: 0.1;"></path></g><g class="mark-line role-mark layer_0_layer_3_marks"><path d="M119.40476123491922,0L189.64285580317178,0" style="fill: none; stroke: #000000; stroke-width: 2; opacity: 0.1;"></path></g><g class="mark-line role-mark layer_0_layer_4_marks"><path d="M72.83941821257274,84.34776804182265L119.40476123491922,0" style="fill: none; stroke: #000000; stroke-width: 2; opacity: 0.1;"></path></g><g class="mark-line role-mark layer_0_layer_5_marks"><path d="M119.40476123491922,0L120.45653279622397,153.81814730608903" style="fill: none; stroke: #000000; stroke-width: 2; opacity: 0.1;"></path></g><g class="mark-line role-mark layer_0_layer_6_marks"><path d="M189.64285580317178,0L259.88095506032306,0" style="fill: none; stroke: #000000; stroke-width: 2; opacity: 0.1;"></path></g><g class="mark-line role-mark layer_0_layer_7_marks"><path d="M120.45653279622397,153.81814730608903L189.64285580317178,0" style="fill: none; stroke: #000000; stroke-width: 2; opacity: 0.1;"></path></g><g class="mark-line role-mark layer_0_layer_8_marks"><path d="M189.64285580317178,0L199.0873950322469,111.57407407407406" style="fill: none; stroke: #000000; stroke-width: 2; opacity: 0.1;"></path></g><g class="mark-line role-mark layer_0_layer_9_marks"><path d="M259.88095506032306,0L330.1190449396769,0" style="fill: none; stroke: #000000; stroke-width: 2; opacity: 0.1;"></path></g><g class="mark-line role-mark layer_0_layer_10_marks"><path d="M199.0873950322469,111.57407407407406L259.88095506032306,0" style="fill: none; stroke: #000000; stroke-width: 2; opacity: 0.1;"></path></g><g class="mark-line role-mark layer_0_layer_11_marks"><path d="M259.88095506032306,0L295,111.57407407407406" style="fill: none; stroke: #000000; stroke-width: 2; opacity: 0.1;"></path></g><g class="mark-line role-mark layer_0_layer_12_marks"><path d="M330.1190449396769,0L400.3571535746256,0" style="fill: none; stroke: #000000; stroke-width: 2; opacity: 0.1;"></path></g><g class="mark-line role-mark layer_0_layer_13_marks"><path d="M295,111.57407407407406L330.1190449396769,0" style="fill: none; stroke: #000000; stroke-width: 2; opacity: 0.1;"></path></g><g class="mark-line role-mark layer_0_layer_14_marks"><path d="M330.1190449396769,0L390.9125862121582,111.57407407407406" style="fill: none; stroke: #000000; stroke-width: 2; opacity: 0.1;"></path></g><g class="mark-line role-mark layer_0_layer_15_marks"><path d="M400.3571535746256,0L470.5952434539795,0" style="fill: none; stroke: #000000; stroke-width: 2; opacity: 0.1;"></path></g><g class="mark-line role-mark layer_0_layer_16_marks"><path d="M390.9125862121582,111.57407407407406L400.3571535746256,0" style="fill: none; stroke: #000000; stroke-width: 2; opacity: 0.1;"></path></g><g class="mark-line role-mark layer_0_layer_17_marks"><path d="M400.3571535746256,0L469.54346720377606,153.81814730608903" style="fill: none; stroke: #000000; stroke-width: 2; opacity: 0.1;"></path></g><g class="mark-line role-mark layer_0_layer_18_marks"><path d="M470.5952434539795,0L540.8333333333333,0" style="fill: none; stroke: #000000; stroke-width: 2; opacity: 0.1;"></path></g><g class="mark-line role-mark layer_0_layer_19_marks"><path d="M469.54346720377606,153.81814730608903L470.5952434539795,0" style="fill: none; stroke: #000000; stroke-width: 2; opacity: 0.1;"></path></g><g class="mark-line role-mark layer_0_layer_20_marks"><path d="M470.5952434539795,0L517.1605841318767,84.34776804182265" style="fill: none; stroke: #000000; stroke-width: 2; opacity: 0.1;"></path></g><g class="mark-line role-mark layer_0_layer_21_marks"><path d="M517.1605841318767,84.34776804182265L540.8333333333333,0" style="fill: none; stroke: #000000; stroke-width: 2; opacity: 0.1;"></path></g><g class="mark-line role-mark layer_0_layer_22_marks"><path d="M72.83941821257274,84.34776804182265L120.45653279622397,153.81814730608903" style="fill: none; stroke: #000000; stroke-width: 2; opacity: 0.1;"></path></g><g class="mark-line role-mark layer_0_layer_23_marks"><path d="M120.45653279622397,153.81814730608903L199.0873950322469,111.57407407407406" style="fill: none; stroke: #000000; stroke-width: 2; opacity: 0.1;"></path></g><g class="mark-line role-mark layer_0_layer_24_marks"><path d="M199.0873950322469,111.57407407407406L295,111.57407407407406" style="fill: none; stroke: #000000; stroke-width: 2; opacity: 0.1;"></path></g><g class="mark-line role-mark layer_0_layer_25_marks"><path d="M295,111.57407407407406L390.9125862121582,111.57407407407406" style="fill: none; stroke: #000000; stroke-width: 2; opacity: 0.1;"></path></g><g class="mark-line role-mark layer_0_layer_26_marks"><path d="M390.9125862121582,111.57407407407406L469.54346720377606,153.81814730608903" style="fill: none; stroke: #000000; stroke-width: 2; opacity: 0.1;"></path></g><g class="mark-line role-mark layer_0_layer_27_marks"><path d="M469.54346720377606,153.81814730608903L517.1605841318767,84.34776804182265" style="fill: none; stroke: #000000; stroke-width: 2; opacity: 0.1;"></path></g><g class="mark-symbol role-mark layer_1_layer_0_marks"><path transform="translate(49.166666666666664,0)" d="M0.5,0A0.5,0.5,0,1,1,-0.5,0A0.5,0.5,0,1,1,0.5,0" style="fill: #000000; stroke-width: 2; opacity: 0;"></path><path transform="translate(119.40476123491922,0)" d="M0.5,0A0.5,0.5,0,1,1,-0.5,0A0.5,0.5,0,1,1,0.5,0" style="fill: #000000; stroke-width: 2; opacity: 0;"></path><path transform="translate(189.64285580317178,0)" d="M0.5,0A0.5,0.5,0,1,1,-0.5,0A0.5,0.5,0,1,1,0.5,0" style="fill: #000000; stroke-width: 2; opacity: 0;"></path><path transform="translate(259.88095506032306,0)" d="M0.5,0A0.5,0.5,0,1,1,-0.5,0A0.5,0.5,0,1,1,0.5,0" style="fill: #000000; stroke-width: 2; opacity: 0;"></path><path transform="translate(330.1190449396769,0)" d="M0.5,0A0.5,0.5,0,1,1,-0.5,0A0.5,0.5,0,1,1,0.5,0" style="fill: #000000; stroke-width: 2; opacity: 0;"></path><path transform="translate(400.3571535746256,0)" d="M0.5,0A0.5,0.5,0,1,1,-0.5,0A0.5,0.5,0,1,1,0.5,0" style="fill: #000000; stroke-width: 2; opacity: 0;"></path><path transform="translate(470.5952434539795,0)" d="M0.5,0A0.5,0.5,0,1,1,-0.5,0A0.5,0.5,0,1,1,0.5,0" style="fill: #000000; stroke-width: 2; opacity: 0;"></path><path transform="translate(540.8333333333333,0)" d="M0.5,0A0.5,0.5,0,1,1,-0.5,0A0.5,0.5,0,1,1,0.5,0" style="fill: #000000; stroke-width: 2; opacity: 0;"></path><path transform="translate(76.01082988580067,74.11681055139613)" d="M0.5,0A0.5,0.5,0,1,1,-0.5,0A0.5,0.5,0,1,1,0.5,0" style="fill: #000000; stroke-width: 2; opacity: 0;"></path><path transform="translate(127.3081579208374,130.15155919392902)" d="M0.5,0A0.5,0.5,0,1,1,-0.5,0A0.5,0.5,0,1,1,0.5,0" style="fill: #000000; stroke-width: 2; opacity: 0;"></path><path transform="translate(209.01623185475665,111.57407407407406)" d="M0.5,0A0.5,0.5,0,1,1,-0.5,0A0.5,0.5,0,1,1,0.5,0" style="fill: #000000; stroke-width: 2; opacity: 0;"></path><path transform="translate(295,111.57407407407406)" d="M0.5,0A0.5,0.5,0,1,1,-0.5,0A0.5,0.5,0,1,1,0.5,0" style="fill: #000000; stroke-width: 2; opacity: 0;"></path><path transform="translate(380.98374938964844,111.57407407407406)" d="M0.5,0A0.5,0.5,0,1,1,-0.5,0A0.5,0.5,0,1,1,0.5,0" style="fill: #000000; stroke-width: 2; opacity: 0;"></path><path transform="translate(462.69182332356775,130.15155919392902)" d="M0.5,0A0.5,0.5,0,1,1,-0.5,0A0.5,0.5,0,1,1,0.5,0" style="fill: #000000; stroke-width: 2; opacity: 0;"></path><path transform="translate(513.9891630808512,74.11681055139613)" d="M0.5,0A0.5,0.5,0,1,1,-0.5,0A0.5,0.5,0,1,1,0.5,0" style="fill: #000000; stroke-width: 2; opacity: 0;"></path></g><g class="mark-line role-mark layer_1_layer_1_marks"><path d="M49.166666666666664,0L119.40476123491922,0" style="fill: none; stroke: #000000; stroke-width: 2; opacity: 0.225;"></path></g><g class="mark-line role-mark layer_1_layer_2_marks"><path d="M49.166666666666664,0L76.01082988580067,74.11681055139613" style="fill: none; stroke: #000000; stroke-width: 2; opacity: 0.225;"></path></g><g class="mark-line role-mark layer_1_layer_3_marks"><path d="M119.40476123491922,0L189.64285580317178,0" style="fill: none; stroke: #000000; stroke-width: 2; opacity: 0.225;"></path></g><g class="mark-line role-mark layer_1_layer_4_marks"><path d="M76.01082988580067,74.11681055139613L119.40476123491922,0" style="fill: none; stroke: #000000; stroke-width: 2; opacity: 0.225;"></path></g><g class="mark-line role-mark layer_1_layer_5_marks"><path d="M119.40476123491922,0L127.3081579208374,130.15155919392902" style="fill: none; stroke: #000000; stroke-width: 2; opacity: 0.225;"></path></g><g class="mark-line role-mark layer_1_layer_6_marks"><path d="M189.64285580317178,0L259.88095506032306,0" style="fill: none; stroke: #000000; stroke-width: 2; opacity: 0.225;"></path></g><g class="mark-line role-mark layer_1_layer_7_marks"><path d="M127.3081579208374,130.15155919392902L189.64285580317178,0" style="fill: none; stroke: #000000; stroke-width: 2; opacity: 0.225;"></path></g><g class="mark-line role-mark layer_1_layer_8_marks"><path d="M189.64285580317178,0L209.01623185475665,111.57407407407406" style="fill: none; stroke: #000000; stroke-width: 2; opacity: 0.225;"></path></g><g class="mark-line role-mark layer_1_layer_9_marks"><path d="M259.88095506032306,0L330.1190449396769,0" style="fill: none; stroke: #000000; stroke-width: 2; opacity: 0.225;"></path></g><g class="mark-line role-mark layer_1_layer_10_marks"><path d="M209.01623185475665,111.57407407407406L259.88095506032306,0" style="fill: none; stroke: #000000; stroke-width: 2; opacity: 0.225;"></path></g><g class="mark-line role-mark layer_1_layer_11_marks"><path d="M259.88095506032306,0L295,111.57407407407406" style="fill: none; stroke: #000000; stroke-width: 2; opacity: 0.225;"></path></g><g class="mark-line role-mark layer_1_layer_12_marks"><path d="M330.1190449396769,0L400.3571535746256,0" style="fill: none; stroke: #000000; stroke-width: 2; opacity: 0.225;"></path></g><g class="mark-line role-mark layer_1_layer_13_marks"><path d="M295,111.57407407407406L330.1190449396769,0" style="fill: none; stroke: #000000; stroke-width: 2; opacity: 0.225;"></path></g><g class="mark-line role-mark layer_1_layer_14_marks"><path d="M330.1190449396769,0L380.98374938964844,111.57407407407406" style="fill: none; stroke: #000000; stroke-width: 2; opacity: 0.225;"></path></g><g class="mark-line role-mark layer_1_layer_15_marks"><path d="M400.3571535746256,0L470.5952434539795,0" style="fill: none; stroke: #000000; stroke-width: 2; opacity: 0.225;"></path></g><g class="mark-line role-mark layer_1_layer_16_marks"><path d="M380.98374938964844,111.57407407407406L400.3571535746256,0" style="fill: none; stroke: #000000; stroke-width: 2; opacity: 0.225;"></path></g><g class="mark-line role-mark layer_1_layer_17_marks"><path d="M400.3571535746256,0L462.69182332356775,130.15155919392902" style="fill: none; stroke: #000000; stroke-width: 2; opacity: 0.225;"></path></g><g class="mark-line role-mark layer_1_layer_18_marks"><path d="M470.5952434539795,0L540.8333333333333,0" style="fill: none; stroke: #000000; stroke-width: 2; opacity: 0.225;"></path></g><g class="mark-line role-mark layer_1_layer_19_marks"><path d="M462.69182332356775,130.15155919392902L470.5952434539795,0" style="fill: none; stroke: #000000; stroke-width: 2; opacity: 0.225;"></path></g><g class="mark-line role-mark layer_1_layer_20_marks"><path d="M470.5952434539795,0L513.9891630808512,74.11681055139613" style="fill: none; stroke: #000000; stroke-width: 2; opacity: 0.225;"></path></g><g class="mark-line role-mark layer_1_layer_21_marks"><path d="M513.9891630808512,74.11681055139613L540.8333333333333,0" style="fill: none; stroke: #000000; stroke-width: 2; opacity: 0.225;"></path></g><g class="mark-line role-mark layer_1_layer_22_marks"><path d="M76.01082988580067,74.11681055139613L127.3081579208374,130.15155919392902" style="fill: none; stroke: #000000; stroke-width: 2; opacity: 0.225;"></path></g><g class="mark-line role-mark layer_1_layer_23_marks"><path d="M127.3081579208374,130.15155919392902L209.01623185475665,111.57407407407406" style="fill: none; stroke: #000000; stroke-width: 2; opacity: 0.225;"></path></g><g class="mark-line role-mark layer_1_layer_24_marks"><path d="M209.01623185475665,111.57407407407406L295,111.57407407407406" style="fill: none; stroke: #000000; stroke-width: 2; opacity: 0.225;"></path></g><g class="mark-line role-mark layer_1_layer_25_marks"><path d="M295,111.57407407407406L380.98374938964844,111.57407407407406" style="fill: none; stroke: #000000; stroke-width: 2; opacity: 0.225;"></path></g><g class="mark-line role-mark layer_1_layer_26_marks"><path d="M380.98374938964844,111.57407407407406L462.69182332356775,130.15155919392902" style="fill: none; stroke: #000000; stroke-width: 2; opacity: 0.225;"></path></g><g class="mark-line role-mark layer_1_layer_27_marks"><path d="M462.69182332356775,130.15155919392902L513.9891630808512,74.11681055139613" style="fill: none; stroke: #000000; stroke-width: 2; opacity: 0.225;"></path></g><g class="mark-symbol role-mark layer_2_layer_0_marks"><path transform="translate(49.166666666666664,0)" d="M0.5,0A0.5,0.5,0,1,1,-0.5,0A0.5,0.5,0,1,1,0.5,0" style="fill: #000000; stroke-width: 2; opacity: 0;"></path><path transform="translate(119.40476123491922,0)" d="M0.5,0A0.5,0.5,0,1,1,-0.5,0A0.5,0.5,0,1,1,0.5,0" style="fill: #000000; stroke-width: 2; opacity: 0;"></path><path transform="translate(189.64285580317178,0)" d="M0.5,0A0.5,0.5,0,1,1,-0.5,0A0.5,0.5,0,1,1,0.5,0" style="fill: #000000; stroke-width: 2; opacity: 0;"></path><path transform="translate(259.88095506032306,0)" d="M0.5,0A0.5,0.5,0,1,1,-0.5,0A0.5,0.5,0,1,1,0.5,0" style="fill: #000000; stroke-width: 2; opacity: 0;"></path><path transform="translate(330.1190449396769,0)" d="M0.5,0A0.5,0.5,0,1,1,-0.5,0A0.5,0.5,0,1,1,0.5,0" style="fill: #000000; stroke-width: 2; opacity: 0;"></path><path transform="translate(400.3571535746256,0)" d="M0.5,0A0.5,0.5,0,1,1,-0.5,0A0.5,0.5,0,1,1,0.5,0" style="fill: #000000; stroke-width: 2; opacity: 0;"></path><path transform="translate(470.5952434539795,0)" d="M0.5,0A0.5,0.5,0,1,1,-0.5,0A0.5,0.5,0,1,1,0.5,0" style="fill: #000000; stroke-width: 2; opacity: 0;"></path><path transform="translate(540.8333333333333,0)" d="M0.5,0A0.5,0.5,0,1,1,-0.5,0A0.5,0.5,0,1,1,0.5,0" style="fill: #000000; stroke-width: 2; opacity: 0;"></path><path transform="translate(82.03739170233408,64.97159601140905)" d="M0.5,0A0.5,0.5,0,1,1,-0.5,0A0.5,0.5,0,1,1,0.5,0" style="fill: #000000; stroke-width: 2; opacity: 0;"></path><path transform="translate(137.37675205866495,111.47561935142234)" d="M0.5,0A0.5,0.5,0,1,1,-0.5,0A0.5,0.5,0,1,1,0.5,0" style="fill: #000000; stroke-width: 2; opacity: 0;"></path><path transform="translate(216.18750858306885,111.57407407407406)" d="M0.5,0A0.5,0.5,0,1,1,-0.5,0A0.5,0.5,0,1,1,0.5,0" style="fill: #000000; stroke-width: 2; opacity: 0;"></path><path transform="translate(295,111.57407407407406)" d="M0.5,0A0.5,0.5,0,1,1,-0.5,0A0.5,0.5,0,1,1,0.5,0" style="fill: #000000; stroke-width: 2; opacity: 0;"></path><path transform="translate(373.8124726613363,111.57407407407406)" d="M0.5,0A0.5,0.5,0,1,1,-0.5,0A0.5,0.5,0,1,1,0.5,0" style="fill: #000000; stroke-width: 2; opacity: 0;"></path><path transform="translate(452.6232573191325,111.47561935142234)" d="M0.5,0A0.5,0.5,0,1,1,-0.5,0A0.5,0.5,0,1,1,0.5,0" style="fill: #000000; stroke-width: 2; opacity: 0;"></path><path transform="translate(507.96261533101404,64.97159601140905)" d="M0.5,0A0.5,0.5,0,1,1,-0.5,0A0.5,0.5,0,1,1,0.5,0" style="fill: #000000; stroke-width: 2; opacity: 0;"></path></g><g class="mark-line role-mark layer_2_layer_1_marks"><path d="M49.166666666666664,0L119.40476123491922,0" style="fill: none; stroke: #000000; stroke-width: 2; opacity: 0.35;"></path></g><g class="mark-line role-mark layer_2_layer_2_marks"><path d="M49.166666666666664,0L82.03739170233408,64.97159601140905" style="fill: none; stroke: #000000; stroke-width: 2; opacity: 0.35;"></path></g><g class="mark-line role-mark layer_2_layer_3_marks"><path d="M119.40476123491922,0L189.64285580317178,0" style="fill: none; stroke: #000000; stroke-width: 2; opacity: 0.35;"></path></g><g class="mark-line role-mark layer_2_layer_4_marks"><path d="M82.03739170233408,64.97159601140905L119.40476123491922,0" style="fill: none; stroke: #000000; stroke-width: 2; opacity: 0.35;"></path></g><g class="mark-line role-mark layer_2_layer_5_marks"><path d="M119.40476123491922,0L137.37675205866495,111.47561935142234" style="fill: none; stroke: #000000; stroke-width: 2; opacity: 0.35;"></path></g><g class="mark-line role-mark layer_2_layer_6_marks"><path d="M189.64285580317178,0L259.88095506032306,0" style="fill: none; stroke: #000000; stroke-width: 2; opacity: 0.35;"></path></g><g class="mark-line role-mark layer_2_layer_7_marks"><path d="M137.37675205866495,111.47561935142234L189.64285580317178,0" style="fill: none; stroke: #000000; stroke-width: 2; opacity: 0.35;"></path></g><g class="mark-line role-mark layer_2_layer_8_marks"><path d="M189.64285580317178,0L216.18750858306885,111.57407407407406" style="fill: none; stroke: #000000; stroke-width: 2; opacity: 0.35;"></path></g><g class="mark-line role-mark layer_2_layer_9_marks"><path d="M259.88095506032306,0L330.1190449396769,0" style="fill: none; stroke: #000000; stroke-width: 2; opacity: 0.35;"></path></g><g class="mark-line role-mark layer_2_layer_10_marks"><path d="M216.18750858306885,111.57407407407406L259.88095506032306,0" style="fill: none; stroke: #000000; stroke-width: 2; opacity: 0.35;"></path></g><g class="mark-line role-mark layer_2_layer_11_marks"><path d="M259.88095506032306,0L295,111.57407407407406" style="fill: none; stroke: #000000; stroke-width: 2; opacity: 0.35;"></path></g><g class="mark-line role-mark layer_2_layer_12_marks"><path d="M330.1190449396769,0L400.3571535746256,0" style="fill: none; stroke: #000000; stroke-width: 2; opacity: 0.35;"></path></g><g class="mark-line role-mark layer_2_layer_13_marks"><path d="M295,111.57407407407406L330.1190449396769,0" style="fill: none; stroke: #000000; stroke-width: 2; opacity: 0.35;"></path></g><g class="mark-line role-mark layer_2_layer_14_marks"><path d="M330.1190449396769,0L373.8124726613363,111.57407407407406" style="fill: none; stroke: #000000; stroke-width: 2; opacity: 0.35;"></path></g><g class="mark-line role-mark layer_2_layer_15_marks"><path d="M400.3571535746256,0L470.5952434539795,0" style="fill: none; stroke: #000000; stroke-width: 2; opacity: 0.35;"></path></g><g class="mark-line role-mark layer_2_layer_16_marks"><path d="M373.8124726613363,111.57407407407406L400.3571535746256,0" style="fill: none; stroke: #000000; stroke-width: 2; opacity: 0.35;"></path></g><g class="mark-line role-mark layer_2_layer_17_marks"><path d="M400.3571535746256,0L452.6232573191325,111.47561935142234" style="fill: none; stroke: #000000; stroke-width: 2; opacity: 0.35;"></path></g><g class="mark-line role-mark layer_2_layer_18_marks"><path d="M470.5952434539795,0L540.8333333333333,0" style="fill: none; stroke: #000000; stroke-width: 2; opacity: 0.35;"></path></g><g class="mark-line role-mark layer_2_layer_19_marks"><path d="M452.6232573191325,111.47561935142234L470.5952434539795,0" style="fill: none; stroke: #000000; stroke-width: 2; opacity: 0.35;"></path></g><g class="mark-line role-mark layer_2_layer_20_marks"><path d="M470.5952434539795,0L507.96261533101404,64.97159601140905" style="fill: none; stroke: #000000; stroke-width: 2; opacity: 0.35;"></path></g><g class="mark-line role-mark layer_2_layer_21_marks"><path d="M507.96261533101404,64.97159601140905L540.8333333333333,0" style="fill: none; stroke: #000000; stroke-width: 2; opacity: 0.35;"></path></g><g class="mark-line role-mark layer_2_layer_22_marks"><path d="M82.03739170233408,64.97159601140905L137.37675205866495,111.47561935142234" style="fill: none; stroke: #000000; stroke-width: 2; opacity: 0.35;"></path></g><g class="mark-line role-mark layer_2_layer_23_marks"><path d="M137.37675205866495,111.47561935142234L216.18750858306885,111.57407407407406" style="fill: none; stroke: #000000; stroke-width: 2; opacity: 0.35;"></path></g><g class="mark-line role-mark layer_2_layer_24_marks"><path d="M216.18750858306885,111.57407407407406L295,111.57407407407406" style="fill: none; stroke: #000000; stroke-width: 2; opacity: 0.35;"></path></g><g class="mark-line role-mark layer_2_layer_25_marks"><path d="M295,111.57407407407406L373.8124726613363,111.57407407407406" style="fill: none; stroke: #000000; stroke-width: 2; opacity: 0.35;"></path></g><g class="mark-line role-mark layer_2_layer_26_marks"><path d="M373.8124726613363,111.57407407407406L452.6232573191325,111.47561935142234" style="fill: none; stroke: #000000; stroke-width: 2; opacity: 0.35;"></path></g><g class="mark-line role-mark layer_2_layer_27_marks"><path d="M452.6232573191325,111.47561935142234L507.96261533101404,64.97159601140905" style="fill: none; stroke: #000000; stroke-width: 2; opacity: 0.35;"></path></g><g class="mark-symbol role-mark layer_3_layer_0_marks"><path transform="translate(49.166666666666664,0)" d="M0.5,0A0.5,0.5,0,1,1,-0.5,0A0.5,0.5,0,1,1,0.5,0" style="fill: #000000; stroke-width: 2; opacity: 0;"></path><path transform="translate(119.40476123491922,0)" d="M0.5,0A0.5,0.5,0,1,1,-0.5,0A0.5,0.5,0,1,1,0.5,0" style="fill: #000000; stroke-width: 2; opacity: 0;"></path><path transform="translate(189.64285580317178,0)" d="M0.5,0A0.5,0.5,0,1,1,-0.5,0A0.5,0.5,0,1,1,0.5,0" style="fill: #000000; stroke-width: 2; opacity: 0;"></path><path transform="translate(259.88095506032306,0)" d="M0.5,0A0.5,0.5,0,1,1,-0.5,0A0.5,0.5,0,1,1,0.5,0" style="fill: #000000; stroke-width: 2; opacity: 0;"></path><path transform="translate(330.1190449396769,0)" d="M0.5,0A0.5,0.5,0,1,1,-0.5,0A0.5,0.5,0,1,1,0.5,0" style="fill: #000000; stroke-width: 2; opacity: 0;"></path><path transform="translate(400.3571535746256,0)" d="M0.5,0A0.5,0.5,0,1,1,-0.5,0A0.5,0.5,0,1,1,0.5,0" style="fill: #000000; stroke-width: 2; opacity: 0;"></path><path transform="translate(470.5952434539795,0)" d="M0.5,0A0.5,0.5,0,1,1,-0.5,0A0.5,0.5,0,1,1,0.5,0" style="fill: #000000; stroke-width: 2; opacity: 0;"></path><path transform="translate(540.8333333333333,0)" d="M0.5,0A0.5,0.5,0,1,1,-0.5,0A0.5,0.5,0,1,1,0.5,0" style="fill: #000000; stroke-width: 2; opacity: 0;"></path><path transform="translate(92.7288192907969,55.43297968970406)" d="M0.5,0A0.5,0.5,0,1,1,-0.5,0A0.5,0.5,0,1,1,0.5,0" style="fill: #000000; stroke-width: 2; opacity: 0;"></path><path transform="translate(146.67569160461426,102.1230165693495)" d="M0.5,0A0.5,0.5,0,1,1,-0.5,0A0.5,0.5,0,1,1,0.5,0" style="fill: #000000; stroke-width: 2; opacity: 0;"></path><path transform="translate(219.96829891204834,111.57407407407406)" d="M0.5,0A0.5,0.5,0,1,1,-0.5,0A0.5,0.5,0,1,1,0.5,0" style="fill: #000000; stroke-width: 2; opacity: 0;"></path><path transform="translate(295,111.57407407407406)" d="M0.5,0A0.5,0.5,0,1,1,-0.5,0A0.5,0.5,0,1,1,0.5,0" style="fill: #000000; stroke-width: 2; opacity: 0;"></path><path transform="translate(370.03171984354657,111.57407407407406)" d="M0.5,0A0.5,0.5,0,1,1,-0.5,0A0.5,0.5,0,1,1,0.5,0" style="fill: #000000; stroke-width: 2; opacity: 0;"></path><path transform="translate(443.32430839538574,102.12302508177581)" d="M0.5,0A0.5,0.5,0,1,1,-0.5,0A0.5,0.5,0,1,1,0.5,0" style="fill: #000000; stroke-width: 2; opacity: 0;"></path><path transform="translate(497.2711760203044,55.43297968970406)" d="M0.5,0A0.5,0.5,0,1,1,-0.5,0A0.5,0.5,0,1,1,0.5,0" style="fill: #000000; stroke-width: 2; opacity: 0;"></path></g><g class="mark-line role-mark layer_3_layer_1_marks"><path d="M49.166666666666664,0L119.40476123491922,0" style="fill: none; stroke: #000000; stroke-width: 2; opacity: 0.475;"></path></g><g class="mark-line role-mark layer_3_layer_2_marks"><path d="M49.166666666666664,0L92.7288192907969,55.43297968970406" style="fill: none; stroke: #000000; stroke-width: 2; opacity: 0.475;"></path></g><g class="mark-line role-mark layer_3_layer_3_marks"><path d="M119.40476123491922,0L189.64285580317178,0" style="fill: none; stroke: #000000; stroke-width: 2; opacity: 0.475;"></path></g><g class="mark-line role-mark layer_3_layer_4_marks"><path d="M92.7288192907969,55.43297968970406L119.40476123491922,0" style="fill: none; stroke: #000000; stroke-width: 2; opacity: 0.475;"></path></g><g class="mark-line role-mark layer_3_layer_5_marks"><path d="M119.40476123491922,0L146.67569160461426,102.1230165693495" style="fill: none; stroke: #000000; stroke-width: 2; opacity: 0.475;"></path></g><g class="mark-line role-mark layer_3_layer_6_marks"><path d="M189.64285580317178,0L259.88095506032306,0" style="fill: none; stroke: #000000; stroke-width: 2; opacity: 0.475;"></path></g><g class="mark-line role-mark layer_3_layer_7_marks"><path d="M146.67569160461426,102.1230165693495L189.64285580317178,0" style="fill: none; stroke: #000000; stroke-width: 2; opacity: 0.475;"></path></g><g class="mark-line role-mark layer_3_layer_8_marks"><path d="M189.64285580317178,0L219.96829891204834,111.57407407407406" style="fill: none; stroke: #000000; stroke-width: 2; opacity: 0.475;"></path></g><g class="mark-line role-mark layer_3_layer_9_marks"><path d="M259.88095506032306,0L330.1190449396769,0" style="fill: none; stroke: #000000; stroke-width: 2; opacity: 0.475;"></path></g><g class="mark-line role-mark layer_3_layer_10_marks"><path d="M219.96829891204834,111.57407407407406L259.88095506032306,0" style="fill: none; stroke: #000000; stroke-width: 2; opacity: 0.475;"></path></g><g class="mark-line role-mark layer_3_layer_11_marks"><path d="M259.88095506032306,0L295,111.57407407407406" style="fill: none; stroke: #000000; stroke-width: 2; opacity: 0.475;"></path></g><g class="mark-line role-mark layer_3_layer_12_marks"><path d="M330.1190449396769,0L400.3571535746256,0" style="fill: none; stroke: #000000; stroke-width: 2; opacity: 0.475;"></path></g><g class="mark-line role-mark layer_3_layer_13_marks"><path d="M295,111.57407407407406L330.1190449396769,0" style="fill: none; stroke: #000000; stroke-width: 2; opacity: 0.475;"></path></g><g class="mark-line role-mark layer_3_layer_14_marks"><path d="M330.1190449396769,0L370.03171984354657,111.57407407407406" style="fill: none; stroke: #000000; stroke-width: 2; opacity: 0.475;"></path></g><g class="mark-line role-mark layer_3_layer_15_marks"><path d="M400.3571535746256,0L470.5952434539795,0" style="fill: none; stroke: #000000; stroke-width: 2; opacity: 0.475;"></path></g><g class="mark-line role-mark layer_3_layer_16_marks"><path d="M370.03171984354657,111.57407407407406L400.3571535746256,0" style="fill: none; stroke: #000000; stroke-width: 2; opacity: 0.475;"></path></g><g class="mark-line role-mark layer_3_layer_17_marks"><path d="M400.3571535746256,0L443.32430839538574,102.12302508177581" style="fill: none; stroke: #000000; stroke-width: 2; opacity: 0.475;"></path></g><g class="mark-line role-mark layer_3_layer_18_marks"><path d="M470.5952434539795,0L540.8333333333333,0" style="fill: none; stroke: #000000; stroke-width: 2; opacity: 0.475;"></path></g><g class="mark-line role-mark layer_3_layer_19_marks"><path d="M443.32430839538574,102.12302508177581L470.5952434539795,0" style="fill: none; stroke: #000000; stroke-width: 2; opacity: 0.475;"></path></g><g class="mark-line role-mark layer_3_layer_20_marks"><path d="M470.5952434539795,0L497.2711760203044,55.43297968970406" style="fill: none; stroke: #000000; stroke-width: 2; opacity: 0.475;"></path></g><g class="mark-line role-mark layer_3_layer_21_marks"><path d="M497.2711760203044,55.43297968970406L540.8333333333333,0" style="fill: none; stroke: #000000; stroke-width: 2; opacity: 0.475;"></path></g><g class="mark-line role-mark layer_3_layer_22_marks"><path d="M92.7288192907969,55.43297968970406L146.67569160461426,102.1230165693495" style="fill: none; stroke: #000000; stroke-width: 2; opacity: 0.475;"></path></g><g class="mark-line role-mark layer_3_layer_23_marks"><path d="M146.67569160461426,102.1230165693495L219.96829891204834,111.57407407407406" style="fill: none; stroke: #000000; stroke-width: 2; opacity: 0.475;"></path></g><g class="mark-line role-mark layer_3_layer_24_marks"><path d="M219.96829891204834,111.57407407407406L295,111.57407407407406" style="fill: none; stroke: #000000; stroke-width: 2; opacity: 0.475;"></path></g><g class="mark-line role-mark layer_3_layer_25_marks"><path d="M295,111.57407407407406L370.03171984354657,111.57407407407406" style="fill: none; stroke: #000000; stroke-width: 2; opacity: 0.475;"></path></g><g class="mark-line role-mark layer_3_layer_26_marks"><path d="M370.03171984354657,111.57407407407406L443.32430839538574,102.12302508177581" style="fill: none; stroke: #000000; stroke-width: 2; opacity: 0.475;"></path></g><g class="mark-line role-mark layer_3_layer_27_marks"><path d="M443.32430839538574,102.12302508177581L497.2711760203044,55.43297968970406" style="fill: none; stroke: #000000; stroke-width: 2; opacity: 0.475;"></path></g><g class="mark-symbol role-mark layer_4_layer_0_marks"><path transform="translate(49.166666666666664,0)" d="M0.5,0A0.5,0.5,0,1,1,-0.5,0A0.5,0.5,0,1,1,0.5,0" style="fill: #000000; stroke-width: 2; opacity: 0;"></path><path transform="translate(119.40476123491922,0)" d="M0.5,0A0.5,0.5,0,1,1,-0.5,0A0.5,0.5,0,1,1,0.5,0" style="fill: #000000; stroke-width: 2; opacity: 0;"></path><path transform="translate(189.64285580317178,0)" d="M0.5,0A0.5,0.5,0,1,1,-0.5,0A0.5,0.5,0,1,1,0.5,0" style="fill: #000000; stroke-width: 2; opacity: 0;"></path><path transform="translate(259.88095506032306,0)" d="M0.5,0A0.5,0.5,0,1,1,-0.5,0A0.5,0.5,0,1,1,0.5,0" style="fill: #000000; stroke-width: 2; opacity: 0;"></path><path transform="translate(330.1190449396769,0)" d="M0.5,0A0.5,0.5,0,1,1,-0.5,0A0.5,0.5,0,1,1,0.5,0" style="fill: #000000; stroke-width: 2; opacity: 0;"></path><path transform="translate(400.3571535746256,0)" d="M0.5,0A0.5,0.5,0,1,1,-0.5,0A0.5,0.5,0,1,1,0.5,0" style="fill: #000000; stroke-width: 2; opacity: 0;"></path><path transform="translate(470.5952434539795,0)" d="M0.5,0A0.5,0.5,0,1,1,-0.5,0A0.5,0.5,0,1,1,0.5,0" style="fill: #000000; stroke-width: 2; opacity: 0;"></path><path transform="translate(540.8333333333333,0)" d="M0.5,0A0.5,0.5,0,1,1,-0.5,0A0.5,0.5,0,1,1,0.5,0" style="fill: #000000; stroke-width: 2; opacity: 0;"></path><path transform="translate(105.64915005366007,43.0743455003809)" d="M0.5,0A0.5,0.5,0,1,1,-0.5,0A0.5,0.5,0,1,1,0.5,0" style="fill: #000000; stroke-width: 2; opacity: 0;"></path><path transform="translate(150.83502610524496,96.56709211843986)" d="M0.5,0A0.5,0.5,0,1,1,-0.5,0A0.5,0.5,0,1,1,0.5,0" style="fill: #000000; stroke-width: 2; opacity: 0;"></path><path transform="translate(220.66495672861734,111.57407407407406)" d="M0.5,0A0.5,0.5,0,1,1,-0.5,0A0.5,0.5,0,1,1,0.5,0" style="fill: #000000; stroke-width: 2; opacity: 0;"></path><path transform="translate(295,111.57407407407406)" d="M0.5,0A0.5,0.5,0,1,1,-0.5,0A0.5,0.5,0,1,1,0.5,0" style="fill: #000000; stroke-width: 2; opacity: 0;"></path><path transform="translate(369.3350245157877,111.57407407407406)" d="M0.5,0A0.5,0.5,0,1,1,-0.5,0A0.5,0.5,0,1,1,0.5,0" style="fill: #000000; stroke-width: 2; opacity: 0;"></path><path transform="translate(439.16499265035,96.56709211843986)" d="M0.5,0A0.5,0.5,0,1,1,-0.5,0A0.5,0.5,0,1,1,0.5,0" style="fill: #000000; stroke-width: 2; opacity: 0;"></path><path transform="translate(484.3508593241374,43.07434124416775)" d="M0.5,0A0.5,0.5,0,1,1,-0.5,0A0.5,0.5,0,1,1,0.5,0" style="fill: #000000; stroke-width: 2; opacity: 0;"></path></g><g class="mark-line role-mark layer_4_layer_1_marks"><path d="M49.166666666666664,0L119.40476123491922,0" style="fill: none; stroke: #000000; stroke-width: 2; opacity: 1;"></path></g><g class="mark-line role-mark layer_4_layer_2_marks"><path d="M49.166666666666664,0L105.64915005366007,43.0743455003809" style="fill: none; stroke: #000000; stroke-width: 2; opacity: 1;"></path></g><g class="mark-line role-mark layer_4_layer_3_marks"><path d="M119.40476123491922,0L189.64285580317178,0" style="fill: none; stroke: #000000; stroke-width: 2; opacity: 1;"></path></g><g class="mark-line role-mark layer_4_layer_4_marks"><path d="M105.64915005366007,43.0743455003809L119.40476123491922,0" style="fill: none; stroke: #000000; stroke-width: 2; opacity: 1;"></path></g><g class="mark-line role-mark layer_4_layer_5_marks"><path d="M119.40476123491922,0L150.83502610524496,96.56709211843986" style="fill: none; stroke: #000000; stroke-width: 2; opacity: 1;"></path></g><g class="mark-line role-mark layer_4_layer_6_marks"><path d="M189.64285580317178,0L259.88095506032306,0" style="fill: none; stroke: #000000; stroke-width: 2; opacity: 1;"></path></g><g class="mark-line role-mark layer_4_layer_7_marks"><path d="M150.83502610524496,96.56709211843986L189.64285580317178,0" style="fill: none; stroke: #000000; stroke-width: 2; opacity: 1;"></path></g><g class="mark-line role-mark layer_4_layer_8_marks"><path d="M189.64285580317178,0L220.66495672861734,111.57407407407406" style="fill: none; stroke: #000000; stroke-width: 2; opacity: 1;"></path></g><g class="mark-line role-mark layer_4_layer_9_marks"><path d="M259.88095506032306,0L330.1190449396769,0" style="fill: none; stroke: #000000; stroke-width: 2; opacity: 1;"></path></g><g class="mark-line role-mark layer_4_layer_10_marks"><path d="M220.66495672861734,111.57407407407406L259.88095506032306,0" style="fill: none; stroke: #000000; stroke-width: 2; opacity: 1;"></path></g><g class="mark-line role-mark layer_4_layer_11_marks"><path d="M259.88095506032306,0L295,111.57407407407406" style="fill: none; stroke: #000000; stroke-width: 2; opacity: 1;"></path></g><g class="mark-line role-mark layer_4_layer_12_marks"><path d="M330.1190449396769,0L400.3571535746256,0" style="fill: none; stroke: #000000; stroke-width: 2; opacity: 1;"></path></g><g class="mark-line role-mark layer_4_layer_13_marks"><path d="M295,111.57407407407406L330.1190449396769,0" style="fill: none; stroke: #000000; stroke-width: 2; opacity: 1;"></path></g><g class="mark-line role-mark layer_4_layer_14_marks"><path d="M330.1190449396769,0L369.3350245157877,111.57407407407406" style="fill: none; stroke: #000000; stroke-width: 2; opacity: 1;"></path></g><g class="mark-line role-mark layer_4_layer_15_marks"><path d="M400.3571535746256,0L470.5952434539795,0" style="fill: none; stroke: #000000; stroke-width: 2; opacity: 1;"></path></g><g class="mark-line role-mark layer_4_layer_16_marks"><path d="M369.3350245157877,111.57407407407406L400.3571535746256,0" style="fill: none; stroke: #000000; stroke-width: 2; opacity: 1;"></path></g><g class="mark-line role-mark layer_4_layer_17_marks"><path d="M400.3571535746256,0L439.16499265035,96.56709211843986" style="fill: none; stroke: #000000; stroke-width: 2; opacity: 1;"></path></g><g class="mark-line role-mark layer_4_layer_18_marks"><path d="M470.5952434539795,0L540.8333333333333,0" style="fill: none; stroke: #000000; stroke-width: 2; opacity: 1;"></path></g><g class="mark-line role-mark layer_4_layer_19_marks"><path d="M439.16499265035,96.56709211843986L470.5952434539795,0" style="fill: none; stroke: #000000; stroke-width: 2; opacity: 1;"></path></g><g class="mark-line role-mark layer_4_layer_20_marks"><path d="M470.5952434539795,0L484.3508593241374,43.07434124416775" style="fill: none; stroke: #000000; stroke-width: 2; opacity: 1;"></path></g><g class="mark-line role-mark layer_4_layer_21_marks"><path d="M484.3508593241374,43.07434124416775L540.8333333333333,0" style="fill: none; stroke: #000000; stroke-width: 2; opacity: 1;"></path></g><g class="mark-line role-mark layer_4_layer_22_marks"><path d="M105.64915005366007,43.0743455003809L150.83502610524496,96.56709211843986" style="fill: none; stroke: #000000; stroke-width: 2; opacity: 1;"></path></g><g class="mark-line role-mark layer_4_layer_23_marks"><path d="M150.83502610524496,96.56709211843986L220.66495672861734,111.57407407407406" style="fill: none; stroke: #000000; stroke-width: 2; opacity: 1;"></path></g><g class="mark-line role-mark layer_4_layer_24_marks"><path d="M220.66495672861734,111.57407407407406L295,111.57407407407406" style="fill: none; stroke: #000000; stroke-width: 2; opacity: 1;"></path></g><g class="mark-line role-mark layer_4_layer_25_marks"><path d="M295,111.57407407407406L369.3350245157877,111.57407407407406" style="fill: none; stroke: #000000; stroke-width: 2; opacity: 1;"></path></g><g class="mark-line role-mark layer_4_layer_26_marks"><path d="M369.3350245157877,111.57407407407406L439.16499265035,96.56709211843986" style="fill: none; stroke: #000000; stroke-width: 2; opacity: 1;"></path></g><g class="mark-line role-mark layer_4_layer_27_marks"><path d="M439.16499265035,96.56709211843986L484.3508593241374,43.07434124416775" style="fill: none; stroke: #000000; stroke-width: 2; opacity: 1;"></path></g><g class="mark-group role-title"><g transform="translate(295,-19)"><path class="background" d="M0,0h0v0h0Z" style="pointer-events: none; fill: none;"></path><g><g class="mark-text role-title-text" style="pointer-events: none;"><text text-anchor="middle" transform="translate(0,10)" style="font-family: Arial; font-size: 13px; font-weight: bold; fill: #000; opacity: 1;">Title</text></g></g><path class="foreground" d="" style="pointer-events: none; display: none; fill: none;"></path></g></g></g><path class="foreground" d="" style="display: none; fill: none;"></path></g></g></g></svg>