<svg class="marks" width="890.625" height="475" viewBox="0 0 890.625 475" version="1.1" xmlns="http://www.w3.org/2000/svg" xmlns:xlink="http://www.w3.org/1999/xlink"><rect width="890.625" height="475" style="fill: white;"></rect><g transform="translate(5,5)"><g class="mark-group role-frame root"><g transform="translate(0,0)"><path class="background" d="M0.5,0.5h880.625v465h-880.625Z" style="fill: none; stroke: #ddd; stroke-opacity: 0;"></path><g><g class="mark-symbol role-mark layer_0_layer_0_marks"><path transform="translate(73.38541666666666,145.3125)" d="M0.5,0A0.5,0.5,0,1,1,-0.5,0A0.5,0.5,0,1,1,0.5,0" style="fill: #000000; stroke-width: 2; opacity: 0;"></path><path transform="translate(178.22172519067922,145.3125)" d="M0.5,0A0.5,0.5,0,1,1,-0.5,0A0.5,0.5,0,1,1,0.5,0" style="fill: #000000; stroke-width: 2; opacity: 0;"></path><path transform="translate(283.0580337146918,145.3125)" d="M0.5,0A0.5,0.5,0,1,1,-0.5,0A0.5,0.5,0,1,1,0.5,0" style="fill: #000000; stroke-width: 2; opacity: 0;"></path><path transform="translate(387.89434923728305,145.3125)" d="M0.5,0A0.5,0.5,0,1,1,-0.5,0A0.5,0.5,0,1,1,0.5,0" style="fill: #000000; stroke-width: 2; opacity: 0;"></path><path transform="translate(492.7306507627169,145.3125)" d="M0.5,0A0.5,0.5,0,1,1,-0.5,0A0.5,0.5,0,1,1,0.5,0" style="fill: #000000; stroke-width: 2; opacity: 0;"></path><path transform="translate(597.5669802824656,145.3125)" d="M0.5,0A0.5,0.5,0,1,1,-0.5,0A0.5,0.5,0,1,1,0.5,0" style="fill: #000000; stroke-width: 2; opacity: 0;"></path><path transform="translate(702.4032818078995,145.3125)" d="M0.5,0A0.5,0.5,0,1,1,-0.5,0A0.5,0.5,0,1,1,0.5,0" style="fill: #000000; stroke-width: 2; opacity: 0;"></path><path transform="translate(807.2395833333333,145.3125)" d="M0.5,0A0.5,0.5,0,1,1,-0.5,0A0.5,0.5,0,1,1,0.5,0" style="fill: #000000; stroke-width: 2; opacity: 0;"></path><path transform="translate(127.75555501381557,274.8626258969307)" d="M0.5,0A0.5,0.5,0,1,1,-0.5,0A0.5,0.5,0,1,1,0.5,0" style="fill: #000000; stroke-width: 2; opacity: 0;"></path><path transform="translate(195.44240696231523,397.6031684875488)" d="M0.5,0A0.5,0.5,0,1,1,-0.5,0A0.5,0.5,0,1,1,0.5,0" style="fill: #000000; stroke-width: 2; opacity: 0;"></path><path transform="translate(302.24056406815845,343.5399717092514)" d="M0.5,0A0.5,0.5,0,1,1,-0.5,0A0.5,0.5,0,1,1,0.5,0" style="fill: #000000; stroke-width: 2; opacity: 0;"></path><path transform="translate(440.3125,326.953125)" d="M0.5,0A0.5,0.5,0,1,1,-0.5,0A0.5,0.5,0,1,1,0.5,0" style="fill: #000000; stroke-width: 2; opacity: 0;"></path><path transform="translate(578.3844359318415,343.5399717092514)" d="M0.5,0A0.5,0.5,0,1,1,-0.5,0A0.5,0.5,0,1,1,0.5,0" style="fill: #000000; stroke-width: 2; opacity: 0;"></path><path transform="translate(685.1825790405273,397.6031684875488)" d="M0.5,0A0.5,0.5,0,1,1,-0.5,0A0.5,0.5,0,1,1,0.5,0" style="fill: #000000; stroke-width: 2; opacity: 0;"></path><path transform="translate(752.8694169918696,274.8626258969307)" d="M0.5,0A0.5,0.5,0,1,1,-0.5,0A0.5,0.5,0,1,1,0.5,0" style="fill: #000000; stroke-width: 2; opacity: 0;"></path></g><g class="mark-line role-mark layer_0_layer_1_marks"><path d="M73.38541666666666,145.3125L178.22172519067922,145.3125" style="fill: none; stroke: #000000; stroke-width: 2; opacity: 0.1;"></path></g><g class="mark-line role-mark layer_0_layer_2_marks"><path d="M73.38541666666666,145.3125L127.75555501381557,274.8626258969307" style="fill: none; stroke: #000000; stroke-width: 2; opacity: 0.1;"></path></g><g class="mark-line role-mark layer_0_layer_3_marks"><path d="M178.22172519067922,145.3125L283.0580337146918,145.3125" style="fill: none; stroke: #000000; stroke-width: 2; opacity: 0.1;"></path></g><g class="mark-line role-mark layer_0_layer_4_marks"><path d="M127.75555501381557,274.8626258969307L178.22172519067922,145.3125" style="fill: none; stroke: #000000; stroke-width: 2; opacity: 0.1;"></path></g><g class="mark-line role-mark layer_0_layer_5_marks"><path d="M178.22172519067922,145.3125L195.44240696231523,397.6031684875488" style="fill: none; stroke: #000000; stroke-width: 2; opacity: 0.1;"></path></g><g class="mark-line role-mark layer_0_layer_6_marks"><path d="M283.0580337146918,145.3125L387.89434923728305,145.3125" style="fill: none; stroke: #000000; stroke-width: 2; opacity: 0.1;"></path></g><g class="mark-line role-mark layer_0_layer_7_marks"><path d="M195.44240696231523,397.6031684875488L283.0580337146918,145.3125" style="fill: none; stroke: #000000; stroke-width: 2; opacity: 0.1;"></path></g><g class="mark-line role-mark layer_0_layer_8_marks"><path d="M283.0580337146918,145.3125L302.24056406815845,343.5399717092514" style="fill: none; stroke: #000000; stroke-width: 2; opacity: 0.1;"></path></g><g class="mark-line role-mark layer_0_layer_9_marks"><path d="M387.89434923728305,145.3125L492.7306507627169,145.3125" style="fill: none; stroke: #000000; stroke-width: 2; opacity: 0.1;"></path></g><g class="mark-line role-mark layer_0_layer_10_marks"><path d="M302.24056406815845,343.5399717092514L387.89434923728305,145.3125" style="fill: none; stroke: #000000; stroke-width: 2; opacity: 0.1;"></path></g><g class="mark-line role-mark layer_0_layer_11_marks"><path d="M387.89434923728305,145.3125L440.3125,326.953125" style="fill: none; stroke: #000000; stroke-width: 2; opacity: 0.1;"></path></g><g class="mark-line role-mark layer_0_layer_12_marks"><path d="M492.7306507627169,145.3125L597.5669802824656,145.3125" style="fill: none; stroke: #000000; stroke-width: 2; opacity: 0.1;"></path></g><g class="mark-line role-mark layer_0_layer_13_marks"><path d="M440.3125,326.953125L492.7306507627169,145.3125" style="fill: none; stroke: #000000; stroke-width: 2; opacity: 0.1;"></path></g><g class="mark-line role-mark layer_0_layer_14_marks"><path d="M492.7306507627169,145.3125L578.3844359318415,343.5399717092514" style="fill: none; stroke: #000000; stroke-width: 2; opacity: 0.1;"></path></g><g class="mark-line role-mark layer_0_layer_15_marks"><path d="M597.5669802824656,145.3125L702.4032818078995,145.3125" style="fill: none; stroke: #000000; stroke-width: 2; opacity: 0.1;"></path></g><g class="mark-line role-mark layer_0_layer_16_marks"><path d="M578.3844359318415,343.5399717092514L597.5669802824656,145.3125" style="fill: none; stroke: #000000; stroke-width: 2; opacity: 0.1;"></path></g><g class="mark-line role-mark layer_0_layer_17_marks"><path d="M597.5669802824656,145.3125L685.1825790405273,397.6031684875488" style="fill: none; stroke: #000000; stroke-width: 2; opacity: 0.1;"></path></g><g class="mark-line role-mark layer_0_layer_18_marks"><path d="M702.4032818078995,145.3125L807.2395833333333,145.3125" style="fill: none; stroke: #000000; stroke-width: 2; opacity: 0.1;"></path></g><g class="mark-line role-mark layer_0_layer_19_marks"><path d="M685.1825790405273,397.6031684875488L702.4032818078995,145.3125" style="fill: none; stroke: #000000; stroke-width: 2; opacity: 0.1;"></path></g><g class="mark-line role-mark layer_0_layer_20_marks"><path d="M702.4032818078995,145.3125L752.8694169918696,274.8626258969307" style="fill: none; stroke: #000000; stroke-width: 2; opacity: 0.1;"></path></g><g class="mark-line role-mark layer_0_layer_21_marks"><path d="M752.8694169918696,274.8626258969307L807.2395833333333,145.3125" style="fill: none; stroke: #000000; stroke-width: 2; opacity: 0.1;"></path></g><g class="mark-line role-mark layer_0_layer_22_marks"><path d="M127.75555501381557,274.8626258969307L195.44240696231523,397.6031684875488" style="fill: none; stroke: #000000; stroke-width: 2; opacity: 0.1;"></path></g><g class="mark-line role-mark layer_0_layer_23_marks"><path d="M195.44240696231523,397.6031684875488L302.24056406815845,343.5399717092514" style="fill: none; stroke: #000000; stroke-width: 2; opacity: 0.1;"></path></g><g class="mark-line role-mark layer_0_layer_24_marks"><path d="M302.24056406815845,343.5399717092514L440.3125,326.953125" style="fill: none; stroke: #000000; stroke-width: 2; opacity: 0.1;"></path></g><g class="mark-line role-mark layer_0_layer_25_marks"><path d="M440.3125,326.953125L578.3844359318415,343.5399717092514" style="fill: none; stroke: #000000; stroke-width: 2; opacity: 0.1;"></path></g><g class="mark-line role-mark layer_0_layer_26_marks"><path d="M578.3844359318415,343.5399717092514L685.1825790405273,397.6031684875488" style="fill: none; stroke: #000000; stroke-width: 2; opacity: 0.1;"></path></g><g class="mark-line role-mark layer_0_layer_27_marks"><path d="M685.1825790405273,397.6031684875488L752.8694169918696,274.8626258969307" style="fill: none; stroke: #000000; stroke-width: 2; opacity: 0.1;"></path></g><g class="mark-symbol role-mark layer_1_layer_0_marks"><path transform="translate(73.38541666666666,145.3125)" d="M0.5,0A0.5,0.5,0,1,1,-0.5,0A0.5,0.5,0,1,1,0.5,0" style="fill: #000000; stroke-width: 2; opacity: 0;"></path><path transform="translate(178.22172519067922,145.3125)" d="M0.5,0A0.5,0.5,0,1,1,-0.5,0A0.5,0.5,0,1,1,0.5,0" style="fill: #000000; stroke-width: 2; opacity: 0;"></path><path transform="translate(283.0580337146918,145.3125)" d="M0.5,0A0.5,0.5,0,1,1,-0.5,0A0.5,0.5,0,1,1,0.5,0" style="fill: #000000; stroke-width: 2; opacity: 0;"></path><path transform="translate(387.89434923728305,145.3125)" d="M0.5,0A0.5,0.5,0,1,1,-0.5,0A0.5,0.5,0,1,1,0.5,0" style="fill: #000000; stroke-width: 2; opacity: 0;"></path><path transform="translate(492.7306507627169,145.3125)" d="M0.5,0A0.5,0.5,0,1,1,-0.5,0A0.5,0.5,0,1,1,0.5,0" style="fill: #000000; stroke-width: 2; opacity: 0;"></path><path transform="translate(597.5669802824656,145.3125)" d="M0.5,0A0.5,0.5,0,1,1,-0.5,0A0.5,0.5,0,1,1,0.5,0" style="fill: #000000; stroke-width: 2; opacity: 0;"></path><path transform="translate(702.4032818078995,145.3125)" d="M0.5,0A0.5,0.5,0,1,1,-0.5,0A0.5,0.5,0,1,1,0.5,0" style="fill: #000000; stroke-width: 2; opacity: 0;"></path><path transform="translate(807.2395833333333,145.3125)" d="M0.5,0A0.5,0.5,0,1,1,-0.5,0A0.5,0.5,0,1,1,0.5,0" style="fill: #000000; stroke-width: 2; opacity: 0;"></path><path transform="translate(124.29968834171692,260.70910558104515)" d="M0.5,0A0.5,0.5,0,1,1,-0.5,0A0.5,0.5,0,1,1,0.5,0" style="fill: #000000; stroke-width: 2; opacity: 0;"></path><path transform="translate(196.8961377342542,362.53829061985016)" d="M0.5,0A0.5,0.5,0,1,1,-0.5,0A0.5,0.5,0,1,1,0.5,0" style="fill: #000000; stroke-width: 2; opacity: 0;"></path><path transform="translate(313.4656684398651,331.6349387168884)" d="M0.5,0A0.5,0.5,0,1,1,-0.5,0A0.5,0.5,0,1,1,0.5,0" style="fill: #000000; stroke-width: 2; opacity: 0;"></path><path transform="translate(440.3125,326.953125)" d="M0.5,0A0.5,0.5,0,1,1,-0.5,0A0.5,0.5,0,1,1,0.5,0" style="fill: #000000; stroke-width: 2; opacity: 0;"></path><path transform="translate(567.1593315601349,331.6349387168884)" d="M0.5,0A0.5,0.5,0,1,1,-0.5,0A0.5,0.5,0,1,1,0.5,0" style="fill: #000000; stroke-width: 2; opacity: 0;"></path><path transform="translate(683.728834271431,362.53829061985016)" d="M0.5,0A0.5,0.5,0,1,1,-0.5,0A0.5,0.5,0,1,1,0.5,0" style="fill: #000000; stroke-width: 2; opacity: 0;"></path><path transform="translate(756.3253151575724,260.7091125100851)" d="M0.5,0A0.5,0.5,0,1,1,-0.5,0A0.5,0.5,0,1,1,0.5,0" style="fill: #000000; stroke-width: 2; opacity: 0;"></path></g><g class="mark-line role-mark layer_1_layer_1_marks"><path d="M73.38541666666666,145.3125L178.22172519067922,145.3125" style="fill: none; stroke: #000000; stroke-width: 2; opacity: 0.225;"></path></g><g class="mark-line role-mark layer_1_layer_2_marks"><path d="M73.38541666666666,145.3125L124.29968834171692,260.70910558104515" style="fill: none; stroke: #000000; stroke-width: 2; opacity: 0.225;"></path></g><g class="mark-line role-mark layer_1_layer_3_marks"><path d="M178.22172519067922,145.3125L283.0580337146918,145.3125" style="fill: none; stroke: #000000; stroke-width: 2; opacity: 0.225;"></path></g><g class="mark-line role-mark layer_1_layer_4_marks"><path d="M124.29968834171692,260.70910558104515L178.22172519067922,145.3125" style="fill: none; stroke: #000000; stroke-width: 2; opacity: 0.225;"></path></g><g class="mark-line role-mark layer_1_layer_5_marks"><path d="M178.22172519067922,145.3125L196.8961377342542,362.53829061985016" style="fill: none; stroke: #000000; stroke-width: 2; opacity: 0.225;"></path></g><g class="mark-line role-mark layer_1_layer_6_marks"><path d="M283.0580337146918,145.3125L387.89434923728305,145.3125" style="fill: none; stroke: #000000; stroke-width: 2; opacity: 0.225;"></path></g><g class="mark-line role-mark layer_1_layer_7_marks"><path d="M196.8961377342542,362.53829061985016L283.0580337146918,145.3125" style="fill: none; stroke: #000000; stroke-width: 2; opacity: 0.225;"></path></g><g class="mark-line role-mark layer_1_layer_8_marks"><path d="M283.0580337146918,145.3125L313.4656684398651,331.6349387168884" style="fill: none; stroke: #000000; stroke-width: 2; opacity: 0.225;"></path></g><g class="mark-line role-mark layer_1_layer_9_marks"><path d="M387.89434923728305,145.3125L492.7306507627169,145.3125" style="fill: none; stroke: #000000; stroke-width: 2; opacity: 0.225;"></path></g><g class="mark-line role-mark layer_1_layer_10_marks"><path d="M313.4656684398651,331.6349387168884L387.89434923728305,145.3125" style="fill: none; stroke: #000000; stroke-width: 2; opacity: 0.225;"></path></g><g class="mark-line role-mark layer_1_layer_11_marks"><path d="M387.89434923728305,145.3125L440.3125,326.953125" style="fill: none; stroke: #000000; stroke-width: 2; opacity: 0.225;"></path></g><g class="mark-line role-mark layer_1_layer_12_marks"><path d="M492.7306507627169,145.3125L597.5669802824656,145.3125" style="fill: none; stroke: #000000; stroke-width: 2; opacity: 0.225;"></path></g><g class="mark-line role-mark layer_1_layer_13_marks"><path d="M440.3125,326.953125L492.7306507627169,145.3125" style="fill: none; stroke: #000000; stroke-width: 2; opacity: 0.225;"></path></g><g class="mark-line role-mark layer_1_layer_14_marks"><path d="M492.7306507627169,145.3125L567.1593315601349,331.6349387168884" style="fill: none; stroke: #000000; stroke-width: 2; opacity: 0.225;"></path></g><g class="mark-line role-mark layer_1_layer_15_marks"><path d="M597.5669802824656,145.3125L702.4032818078995,145.3125" style="fill: none; stroke: #000000; stroke-width: 2; opacity: 0.225;"></path></g><g class="mark-line role-mark layer_1_layer_16_marks"><path d="M567.1593315601349,331.6349387168884L597.5669802824656,145.3125" style="fill: none; stroke: #000000; stroke-width: 2; opacity: 0.225;"></path></g><g class="mark-line role-mark layer_1_layer_17_marks"><path d="M597.5669802824656,145.3125L683.728834271431,362.53829061985016" style="fill: none; stroke: #000000; stroke-width: 2; opacity: 0.225;"></path></g><g class="mark-line role-mark layer_1_layer_18_marks"><path d="M702.4032818078995,145.3125L807.2395833333333,145.3125" style="fill: none; stroke: #000000; stroke-width: 2; opacity: 0.225;"></path></g><g class="mark-line role-mark layer_1_layer_19_marks"><path d="M683.728834271431,362.53829061985016L702.4032818078995,145.3125" style="fill: none; stroke: #000000; stroke-width: 2; opacity: 0.225;"></path></g><g class="mark-line role-mark layer_1_layer_20_marks"><path d="M702.4032818078995,145.3125L756.3253151575724,260.7091125100851" style="fill: none; stroke: #000000; stroke-width: 2; opacity: 0.225;"></path></g><g class="mark-line role-mark layer_1_layer_21_marks"><path d="M756.3253151575724,260.7091125100851L807.2395833333333,145.3125" style="fill: none; stroke: #000000; stroke-width: 2; opacity: 0.225;"></path></g><g class="mark-line role-mark layer_1_layer_22_marks"><path d="M124.29968834171692,260.70910558104515L196.8961377342542,362.53829061985016" style="fill: none; stroke: #000000; stroke-width: 2; opacity: 0.225;"></path></g><g class="mark-line role-mark layer_1_layer_23_marks"><path d="M196.8961377342542,362.53829061985016L313.4656684398651,331.6349387168884" style="fill: none; stroke: #000000; stroke-width: 2; opacity: 0.225;"></path></g><g class="mark-line role-mark layer_1_layer_24_marks"><path d="M313.4656684398651,331.6349387168884L440.3125,326.953125" style="fill: none; stroke: #000000; stroke-width: 2; opacity: 0.225;"></path></g><g class="mark-line role-mark layer_1_layer_25_marks"><path d="M440.3125,326.953125L567.1593315601349,331.6349387168884" style="fill: none; stroke: #000000; stroke-width: 2; opacity: 0.225;"></path></g><g class="mark-line role-mark layer_1_layer_26_marks"><path d="M567.1593315601349,331.6349387168884L683.728834271431,362.53829061985016" style="fill: none; stroke: #000000; stroke-width: 2; opacity: 0.225;"></path></g><g class="mark-line role-mark layer_1_layer_27_marks"><path d="M683.728834271431,362.53829061985016L756.3253151575724,260.7091125100851" style="fill: none; stroke: #000000; stroke-width: 2; opacity: 0.225;"></path></g><g class="mark-symbol role-mark layer_2_layer_0_marks"><path transform="translate(73.38541666666666,145.3125)" d="M0.5,0A0.5,0.5,0,1,1,-0.5,0A0.5,0.5,0,1,1,0.5,0" style="fill: #000000; stroke-width: 2; opacity: 0;"></path><path transform="translate(178.22172519067922,145.3125)" d="M0.5,0A0.5,0.5,0,1,1,-0.5,0A0.5,0.5,0,1,1,0.5,0" style="fill: #000000; stroke-width: 2; opacity: 0;"></path><path transform="translate(283.0580337146918,145.3125)" d="M0.5,0A0.5,0.5,0,1,1,-0.5,0A0.5,0.5,0,1,1,0.5,0" style="fill: #000000; stroke-width: 2; opacity: 0;"></path><path transform="translate(387.89434923728305,145.3125)" d="M0.5,0A0.5,0.5,0,1,1,-0.5,0A0.5,0.5,0,1,1,0.5,0" style="fill: #000000; stroke-width: 2; opacity: 0;"></path><path transform="translate(492.7306507627169,145.3125)" d="M0.5,0A0.5,0.5,0,1,1,-0.5,0A0.5,0.5,0,1,1,0.5,0" style="fill: #000000; stroke-width: 2; opacity: 0;"></path><path transform="translate(597.5669802824656,145.3125)" d="M0.5,0A0.5,0.5,0,1,1,-0.5,0A0.5,0.5,0,1,1,0.5,0" style="fill: #000000; stroke-width: 2; opacity: 0;"></path><path transform="translate(702.4032818078995,145.3125)" d="M0.5,0A0.5,0.5,0,1,1,-0.5,0A0.5,0.5,0,1,1,0.5,0" style="fill: #000000; stroke-width: 2; opacity: 0;"></path><path transform="translate(807.2395833333333,145.3125)" d="M0.5,0A0.5,0.5,0,1,1,-0.5,0A0.5,0.5,0,1,1,0.5,0" style="fill: #000000; stroke-width: 2; opacity: 0;"></path><path transform="translate(122.44775943706432,251.085112541914)" d="M0.5,0A0.5,0.5,0,1,1,-0.5,0A0.5,0.5,0,1,1,0.5,0" style="fill: #000000; stroke-width: 2; opacity: 0;"></path><path transform="translate(205.04644454518953,326.7928424477577)" d="M0.5,0A0.5,0.5,0,1,1,-0.5,0A0.5,0.5,0,1,1,0.5,0" style="fill: #000000; stroke-width: 2; opacity: 0;"></path><path transform="translate(322.6781775355339,326.953125)" d="M0.5,0A0.5,0.5,0,1,1,-0.5,0A0.5,0.5,0,1,1,0.5,0" style="fill: #000000; stroke-width: 2; opacity: 0;"></path><path transform="translate(440.3125,326.953125)" d="M0.5,0A0.5,0.5,0,1,1,-0.5,0A0.5,0.5,0,1,1,0.5,0" style="fill: #000000; stroke-width: 2; opacity: 0;"></path><path transform="translate(557.9467944701513,326.953125)" d="M0.5,0A0.5,0.5,0,1,1,-0.5,0A0.5,0.5,0,1,1,0.5,0" style="fill: #000000; stroke-width: 2; opacity: 0;"></path><path transform="translate(675.5785694519678,326.7928424477577)" d="M0.5,0A0.5,0.5,0,1,1,-0.5,0A0.5,0.5,0,1,1,0.5,0" style="fill: #000000; stroke-width: 2; opacity: 0;"></path><path transform="translate(758.1772510608038,251.085112541914)" d="M0.5,0A0.5,0.5,0,1,1,-0.5,0A0.5,0.5,0,1,1,0.5,0" style="fill: #000000; stroke-width: 2; opacity: 0;"></path></g><g class="mark-line role-mark layer_2_layer_1_marks"><path d="M73.38541666666666,145.3125L178.22172519067922,145.3125" style="fill: none; stroke: #000000; stroke-width: 2; opacity: 0.35;"></path></g><g class="mark-line role-mark layer_2_layer_2_marks"><path d="M73.38541666666666,145.3125L122.44775943706432,251.085112541914" style="fill: none; stroke: #000000; stroke-width: 2; opacity: 0.35;"></path></g><g class="mark-line role-mark layer_2_layer_3_marks"><path d="M178.22172519067922,145.3125L283.0580337146918,145.3125" style="fill: none; stroke: #000000; stroke-width: 2; opacity: 0.35;"></path></g><g class="mark-line role-mark layer_2_layer_4_marks"><path d="M122.44775943706432,251.085112541914L178.22172519067922,145.3125" style="fill: none; stroke: #000000; stroke-width: 2; opacity: 0.35;"></path></g><g class="mark-line role-mark layer_2_layer_5_marks"><path d="M178.22172519067922,145.3125L205.04644454518953,326.7928424477577" style="fill: none; stroke: #000000; stroke-width: 2; opacity: 0.35;"></path></g><g class="mark-line role-mark layer_2_layer_6_marks"><path d="M283.0580337146918,145.3125L387.89434923728305,145.3125" style="fill: none; stroke: #000000; stroke-width: 2; opacity: 0.35;"></path></g><g class="mark-line role-mark layer_2_layer_7_marks"><path d="M205.04644454518953,326.7928424477577L283.0580337146918,145.3125" style="fill: none; stroke: #000000; stroke-width: 2; opacity: 0.35;"></path></g><g class="mark-line role-mark layer_2_layer_8_marks"><path d="M283.0580337146918,145.3125L322.6781775355339,326.953125" style="fill: none; stroke: #000000; stroke-width: 2; opacity: 0.35;"></path></g><g class="mark-line role-mark layer_2_layer_9_marks"><path d="M387.89434923728305,145.3125L492.7306507627169,145.3125" style="fill: none; stroke: #000000; stroke-width: 2; opacity: 0.35;"></path></g><g class="mark-line role-mark layer_2_layer_10_marks"><path d="M322.6781775355339,326.953125L387.89434923728305,145.3125" style="fill: none; stroke: #000000; stroke-width: 2; opacity: 0.35;"></path></g><g class="mark-line role-mark layer_2_layer_11_marks"><path d="M387.89434923728305,145.3125L440.3125,326.953125" style="fill: none; stroke: #000000; stroke-width: 2; opacity: 0.35;"></path></g><g class="mark-line role-mark layer_2_layer_12_marks"><path d="M492.7306507627169,145.3125L597.5669802824656,145.3125" style="fill: none; stroke: #000000; stroke-width: 2; opacity: 0.35;"></path></g><g class="mark-line role-mark layer_2_layer_13_marks"><path d="M440.3125,326.953125L492.7306507627169,145.3125" style="fill: none; stroke: #000000; stroke-width: 2; opacity: 0.35;"></path></g><g class="mark-line role-mark layer_2_layer_14_marks"><path d="M492.7306507627169,145.3125L557.9467944701513,326.953125" style="fill: none; stroke: #000000; stroke-width: 2; opacity: 0.35;"></path></g><g class="mark-line role-mark layer_2_layer_15_marks"><path d="M597.5669802824656,145.3125L702.4032818078995,145.3125" style="fill: none; stroke: #000000; stroke-width: 2; opacity: 0.35;"></path></g><g class="mark-line role-mark layer_2_layer_16_marks"><path d="M557.9467944701513,326.953125L597.5669802824656,145.3125" style="fill: none; stroke: #000000; stroke-width: 2; opacity: 0.35;"></path></g><g class="mark-line role-mark layer_2_layer_17_marks"><path d="M597.5669802824656,145.3125L675.5785694519678,326.7928424477577" style="fill: none; stroke: #000000; stroke-width: 2; opacity: 0.35;"></path></g><g class="mark-line role-mark layer_2_layer_18_marks"><path d="M702.4032818078995,145.3125L807.2395833333333,145.3125" style="fill: none; stroke: #000000; stroke-width: 2; opacity: 0.35;"></path></g><g class="mark-line role-mark layer_2_layer_19_marks"><path d="M675.5785694519678,326.7928424477577L702.4032818078995,145.3125" style="fill: none; stroke: #000000; stroke-width: 2; opacity: 0.35;"></path></g><g class="mark-line role-mark layer_2_layer_20_marks"><path d="M702.4032818078995,145.3125L758.1772510608038,251.085112541914" style="fill: none; stroke: #000000; stroke-width: 2; opacity: 0.35;"></path></g><g class="mark-line role-mark layer_2_layer_21_marks"><path d="M758.1772510608038,251.085112541914L807.2395833333333,145.3125" style="fill: none; stroke: #000000; stroke-width: 2; opacity: 0.35;"></path></g><g class="mark-line role-mark layer_2_layer_22_marks"><path d="M122.44775943706432,251.085112541914L205.04644454518953,326.7928424477577" style="fill: none; stroke: #000000; stroke-width: 2; opacity: 0.35;"></path></g><g class="mark-line role-mark layer_2_layer_23_marks"><path d="M205.04644454518953,326.7928424477577L322.6781775355339,326.953125" style="fill: none; stroke: #000000; stroke-width: 2; opacity: 0.35;"></path></g><g class="mark-line role-mark layer_2_layer_24_marks"><path d="M322.6781775355339,326.953125L440.3125,326.953125" style="fill: none; stroke: #000000; stroke-width: 2; opacity: 0.35;"></path></g><g class="mark-line role-mark layer_2_layer_25_marks"><path d="M440.3125,326.953125L557.9467944701513,326.953125" style="fill: none; stroke: #000000; stroke-width: 2; opacity: 0.35;"></path></g><g class="mark-line role-mark layer_2_layer_26_marks"><path d="M557.9467944701513,326.953125L675.5785694519678,326.7928424477577" style="fill: none; stroke: #000000; stroke-width: 2; opacity: 0.35;"></path></g><g class="mark-line role-mark layer_2_layer_27_marks"><path d="M675.5785694519678,326.7928424477577L758.1772510608038,251.085112541914" style="fill: none; stroke: #000000; stroke-width: 2; opacity: 0.35;"></path></g><g class="mark-symbol role-mark layer_3_layer_0_marks"><path transform="translate(73.38541666666666,145.3125)" d="M0.5,0A0.5,0.5,0,1,1,-0.5,0A0.5,0.5,0,1,1,0.5,0" style="fill: #000000; stroke-width: 2; opacity: 0;"></path><path transform="translate(178.22172519067922,145.3125)" d="M0.5,0A0.5,0.5,0,1,1,-0.5,0A0.5,0.5,0,1,1,0.5,0" style="fill: #000000; stroke-width: 2; opacity: 0;"></path><path transform="translate(283.0580337146918,145.3125)" d="M0.5,0A0.5,0.5,0,1,1,-0.5,0A0.5,0.5,0,1,1,0.5,0" style="fill: #000000; stroke-width: 2; opacity: 0;"></path><path transform="translate(387.89434923728305,145.3125)" d="M0.5,0A0.5,0.5,0,1,1,-0.5,0A0.5,0.5,0,1,1,0.5,0" style="fill: #000000; stroke-width: 2; opacity: 0;"></path><path transform="translate(492.7306507627169,145.3125)" d="M0.5,0A0.5,0.5,0,1,1,-0.5,0A0.5,0.5,0,1,1,0.5,0" style="fill: #000000; stroke-width: 2; opacity: 0;"></path><path transform="translate(597.5669802824656,145.3125)" d="M0.5,0A0.5,0.5,0,1,1,-0.5,0A0.5,0.5,0,1,1,0.5,0" style="fill: #000000; stroke-width: 2; opacity: 0;"></path><path transform="translate(702.4032818078995,145.3125)" d="M0.5,0A0.5,0.5,0,1,1,-0.5,0A0.5,0.5,0,1,1,0.5,0" style="fill: #000000; stroke-width: 2; opacity: 0;"></path><path transform="translate(807.2395833333333,145.3125)" d="M0.5,0A0.5,0.5,0,1,1,-0.5,0A0.5,0.5,0,1,1,0.5,0" style="fill: #000000; stroke-width: 2; opacity: 0;"></path><path transform="translate(123.90392571439347,247.42513127624989)" d="M0.5,0A0.5,0.5,0,1,1,-0.5,0A0.5,0.5,0,1,1,0.5,0" style="fill: #000000; stroke-width: 2; opacity: 0;"></path><path transform="translate(219.80630706747374,283.77122327685356)" d="M0.5,0A0.5,0.5,0,1,1,-0.5,0A0.5,0.5,0,1,1,0.5,0" style="fill: #000000; stroke-width: 2; opacity: 0;"></path><path transform="translate(325.395305732886,324.7581298649311)" d="M0.5,0A0.5,0.5,0,1,1,-0.5,0A0.5,0.5,0,1,1,0.5,0" style="fill: #000000; stroke-width: 2; opacity: 0;"></path><path transform="translate(440.3125,326.953125)" d="M0.5,0A0.5,0.5,0,1,1,-0.5,0A0.5,0.5,0,1,1,0.5,0" style="fill: #000000; stroke-width: 2; opacity: 0;"></path><path transform="translate(555.2297222614288,324.7581298649311)" d="M0.5,0A0.5,0.5,0,1,1,-0.5,0A0.5,0.5,0,1,1,0.5,0" style="fill: #000000; stroke-width: 2; opacity: 0;"></path><path transform="translate(660.8186789353688,283.77122327685356)" d="M0.5,0A0.5,0.5,0,1,1,-0.5,0A0.5,0.5,0,1,1,0.5,0" style="fill: #000000; stroke-width: 2; opacity: 0;"></path><path transform="translate(756.721098780632,247.42512434720993)" d="M0.5,0A0.5,0.5,0,1,1,-0.5,0A0.5,0.5,0,1,1,0.5,0" style="fill: #000000; stroke-width: 2; opacity: 0;"></path></g><g class="mark-line role-mark layer_3_layer_1_marks"><path d="M73.38541666666666,145.3125L178.22172519067922,145.3125" style="fill: none; stroke: #000000; stroke-width: 2; opacity: 0.475;"></path></g><g class="mark-line role-mark layer_3_layer_2_marks"><path d="M73.38541666666666,145.3125L123.90392571439347,247.42513127624989" style="fill: none; stroke: #000000; stroke-width: 2; opacity: 0.475;"></path></g><g class="mark-line role-mark layer_3_layer_3_marks"><path d="M178.22172519067922,145.3125L283.0580337146918,145.3125" style="fill: none; stroke: #000000; stroke-width: 2; opacity: 0.475;"></path></g><g class="mark-line role-mark layer_3_layer_4_marks"><path d="M123.90392571439347,247.42513127624989L178.22172519067922,145.3125" style="fill: none; stroke: #000000; stroke-width: 2; opacity: 0.475;"></path></g><g class="mark-line role-mark layer_3_layer_5_marks"><path d="M178.22172519067922,145.3125L219.80630706747374,283.77122327685356" style="fill: none; stroke: #000000; stroke-width: 2; opacity: 0.475;"></path></g><g class="mark-line role-mark layer_3_layer_6_marks"><path d="M283.0580337146918,145.3125L387.89434923728305,145.3125" style="fill: none; stroke: #000000; stroke-width: 2; opacity: 0.475;"></path></g><g class="mark-line role-mark layer_3_layer_7_marks"><path d="M219.80630706747374,283.77122327685356L283.0580337146918,145.3125" style="fill: none; stroke: #000000; stroke-width: 2; opacity: 0.475;"></path></g><g class="mark-line role-mark layer_3_layer_8_marks"><path d="M283.0580337146918,145.3125L325.395305732886,324.7581298649311" style="fill: none; stroke: #000000; stroke-width: 2; opacity: 0.475;"></path></g><g class="mark-line role-mark layer_3_layer_9_marks"><path d="M387.89434923728305,145.3125L492.7306507627169,145.3125" style="fill: none; stroke: #000000; stroke-width: 2; opacity: 0.475;"></path></g><g class="mark-line role-mark layer_3_layer_10_marks"><path d="M325.395305732886,324.7581298649311L387.89434923728305,145.3125" style="fill: none; stroke: #000000; stroke-width: 2; opacity: 0.475;"></path></g><g class="mark-line role-mark layer_3_layer_11_marks"><path d="M387.89434923728305,145.3125L440.3125,326.953125" style="fill: none; stroke: #000000; stroke-width: 2; opacity: 0.475;"></path></g><g class="mark-line role-mark layer_3_layer_12_marks"><path d="M492.7306507627169,145.3125L597.5669802824656,145.3125" style="fill: none; stroke: #000000; stroke-width: 2; opacity: 0.475;"></path></g><g class="mark-line role-mark layer_3_layer_13_marks"><path d="M440.3125,326.953125L492.7306507627169,145.3125" style="fill: none; stroke: #000000; stroke-width: 2; opacity: 0.475;"></path></g><g class="mark-line role-mark layer_3_layer_14_marks"><path d="M492.7306507627169,145.3125L555.2297222614288,324.7581298649311" style="fill: none; stroke: #000000; stroke-width: 2; opacity: 0.475;"></path></g><g class="mark-line role-mark layer_3_layer_15_marks"><path d="M597.5669802824656,145.3125L702.4032818078995,145.3125" style="fill: none; stroke: #000000; stroke-width: 2; opacity: 0.475;"></path></g><g class="mark-line role-mark layer_3_layer_16_marks"><path d="M555.2297222614288,324.7581298649311L597.5669802824656,145.3125" style="fill: none; stroke: #000000; stroke-width: 2; opacity: 0.475;"></path></g><g class="mark-line role-mark layer_3_layer_17_marks"><path d="M597.5669802824656,145.3125L660.8186789353688,283.77122327685356" style="fill: none; stroke: #000000; stroke-width: 2; opacity: 0.475;"></path></g><g class="mark-line role-mark layer_3_layer_18_marks"><path d="M702.4032818078995,145.3125L807.2395833333333,145.3125" style="fill: none; stroke: #000000; stroke-width: 2; opacity: 0.475;"></path></g><g class="mark-line role-mark layer_3_layer_19_marks"><path d="M660.8186789353688,283.77122327685356L702.4032818078995,145.3125" style="fill: none; stroke: #000000; stroke-width: 2; opacity: 0.475;"></path></g><g class="mark-line role-mark layer_3_layer_20_marks"><path d="M702.4032818078995,145.3125L756.721098780632,247.42512434720993" style="fill: none; stroke: #000000; stroke-width: 2; opacity: 0.475;"></path></g><g class="mark-line role-mark layer_3_layer_21_marks"><path d="M756.721098780632,247.42512434720993L807.2395833333333,145.3125" style="fill: none; stroke: #000000; stroke-width: 2; opacity: 0.475;"></path></g><g class="mark-line role-mark layer_3_layer_22_marks"><path d="M123.90392571439347,247.42513127624989L219.80630706747374,283.77122327685356" style="fill: none; stroke: #000000; stroke-width: 2; opacity: 0.475;"></path></g><g class="mark-line role-mark layer_3_layer_23_marks"><path d="M219.80630706747374,283.77122327685356L325.395305732886,324.7581298649311" style="fill: none; stroke: #000000; stroke-width: 2; opacity: 0.475;"></path></g><g class="mark-line role-mark layer_3_layer_24_marks"><path d="M325.395305732886,324.7581298649311L440.3125,326.953125" style="fill: none; stroke: #000000; stroke-width: 2; opacity: 0.475;"></path></g><g class="mark-line role-mark layer_3_layer_25_marks"><path d="M440.3125,326.953125L555.2297222614288,324.7581298649311" style="fill: none; stroke: #000000; stroke-width: 2; opacity: 0.475;"></path></g><g class="mark-line role-mark layer_3_layer_26_marks"><path d="M555.2297222614288,324.7581298649311L660.8186789353688,283.77122327685356" style="fill: none; stroke: #000000; stroke-width: 2; opacity: 0.475;"></path></g><g class="mark-line role-mark layer_3_layer_27_marks"><path d="M660.8186789353688,283.77122327685356L756.721098780632,247.42512434720993" style="fill: none; stroke: #000000; stroke-width: 2; opacity: 0.475;"></path></g><g class="mark-symbol role-mark layer_4_layer_0_marks"><path transform="translate(73.38541666666666,145.3125)" d="M0.5,0A0.5,0.5,0,1,1,-0.5,0A0.5,0.5,0,1,1,0.5,0" style="fill: #000000; stroke-width: 2; opacity: 0;"></path><path transform="translate(178.22172519067922,145.3125)" d="M0.5,0A0.5,0.5,0,1,1,-0.5,0A0.5,0.5,0,1,1,0.5,0" style="fill: #000000; stroke-width: 2; opacity: 0;"></path><path transform="translate(283.0580337146918,145.3125)" d="M0.5,0A0.5,0.5,0,1,1,-0.5,0A0.5,0.5,0,1,1,0.5,0" style="fill: #000000; stroke-width: 2; opacity: 0;"></path><path transform="translate(387.89434923728305,145.3125)" d="M0.5,0A0.5,0.5,0,1,1,-0.5,0A0.5,0.5,0,1,1,0.5,0" style="fill: #000000; stroke-width: 2; opacity: 0;"></path><path transform="translate(492.7306507627169,145.3125)" d="M0.5,0A0.5,0.5,0,1,1,-0.5,0A0.5,0.5,0,1,1,0.5,0" style="fill: #000000; stroke-width: 2; opacity: 0;"></path><path transform="translate(597.5669802824656,145.3125)" d="M0.5,0A0.5,0.5,0,1,1,-0.5,0A0.5,0.5,0,1,1,0.5,0" style="fill: #000000; stroke-width: 2; opacity: 0;"></path><path transform="translate(702.4032818078995,145.3125)" d="M0.5,0A0.5,0.5,0,1,1,-0.5,0A0.5,0.5,0,1,1,0.5,0" style="fill: #000000; stroke-width: 2; opacity: 0;"></path><path transform="translate(807.2395833333333,145.3125)" d="M0.5,0A0.5,0.5,0,1,1,-0.5,0A0.5,0.5,0,1,1,0.5,0" style="fill: #000000; stroke-width: 2; opacity: 0;"></path><path transform="translate(129.90846829364696,248.1576208770275)" d="M0.5,0A0.5,0.5,0,1,1,-0.5,0A0.5,0.5,0,1,1,0.5,0" style="fill: #000000; stroke-width: 2; opacity: 0;"></path><path transform="translate(235.53607461849847,242.9579445719719)" d="M0.5,0A0.5,0.5,0,1,1,-0.5,0A0.5,0.5,0,1,1,0.5,0" style="fill: #000000; stroke-width: 2; opacity: 0;"></path><path transform="translate(322.1100609103839,321.4367777109146)" d="M0.5,0A0.5,0.5,0,1,1,-0.5,0A0.5,0.5,0,1,1,0.5,0" style="fill: #000000; stroke-width: 2; opacity: 0;"></path><path transform="translate(440.3125,326.953125)" d="M0.5,0A0.5,0.5,0,1,1,-0.5,0A0.5,0.5,0,1,1,0.5,0" style="fill: #000000; stroke-width: 2; opacity: 0;"></path><path transform="translate(558.5149110953013,321.4367777109146)" d="M0.5,0A0.5,0.5,0,1,1,-0.5,0A0.5,0.5,0,1,1,0.5,0" style="fill: #000000; stroke-width: 2; opacity: 0;"></path><path transform="translate(645.0888973871866,242.9579445719719)" d="M0.5,0A0.5,0.5,0,1,1,-0.5,0A0.5,0.5,0,1,1,0.5,0" style="fill: #000000; stroke-width: 2; opacity: 0;"></path><path transform="translate(750.716542204221,248.1576208770275)" d="M0.5,0A0.5,0.5,0,1,1,-0.5,0A0.5,0.5,0,1,1,0.5,0" style="fill: #000000; stroke-width: 2; opacity: 0;"></path></g><g class="mark-line role-mark layer_4_layer_1_marks"><path d="M73.38541666666666,145.3125L178.22172519067922,145.3125" style="fill: none; stroke: #000000; stroke-width: 2; opacity: 1;"></path></g><g class="mark-line role-mark layer_4_layer_2_marks"><path d="M73.38541666666666,145.3125L129.90846829364696,248.1576208770275" style="fill: none; stroke: #000000; stroke-width: 2; opacity: 1;"></path></g><g class="mark-line role-mark layer_4_layer_3_marks"><path d="M178.22172519067922,145.3125L283.0580337146918,145.3125" style="fill: none; stroke: #000000; stroke-width: 2; opacity: 1;"></path></g><g class="mark-line role-mark layer_4_layer_4_marks"><path d="M129.90846829364696,248.1576208770275L178.22172519067922,145.3125" style="fill: none; stroke: #000000; stroke-width: 2; opacity: 1;"></path></g><g class="mark-line role-mark layer_4_layer_5_marks"><path d="M178.22172519067922,145.3125L235.53607461849847,242.9579445719719" style="fill: none; stroke: #000000; stroke-width: 2; opacity: 1;"></path></g><g class="mark-line role-mark layer_4_layer_6_marks"><path d="M283.0580337146918,145.3125L387.89434923728305,145.3125" style="fill: none; stroke: #000000; stroke-width: 2; opacity: 1;"></path></g><g class="mark-line role-mark layer_4_layer_7_marks"><path d="M235.53607461849847,242.9579445719719L283.0580337146918,145.3125" style="fill: none; stroke: #000000; stroke-width: 2; opacity: 1;"></path></g><g class="mark-line role-mark layer_4_layer_8_marks"><path d="M283.0580337146918,145.3125L322.1100609103839,321.4367777109146" style="fill: none; stroke: #000000; stroke-width: 2; opacity: 1;"></path></g><g class="mark-line role-mark layer_4_layer_9_marks"><path d="M387.89434923728305,145.3125L492.7306507627169,145.3125" style="fill: none; stroke: #000000; stroke-width: 2; opacity: 1;"></path></g><g class="mark-line role-mark layer_4_layer_10_marks"><path d="M322.1100609103839,321.4367777109146L387.89434923728305,145.3125" style="fill: none; stroke: #000000; stroke-width: 2; opacity: 1;"></path></g><g class="mark-line role-mark layer_4_layer_11_marks"><path d="M387.89434923728305,145.3125L440.3125,326.953125" style="fill: none; stroke: #000000; stroke-width: 2; opacity: 1;"></path></g><g class="mark-line role-mark layer_4_layer_12_marks"><path d="M492.7306507627169,145.3125L597.5669802824656,145.3125" style="fill: none; stroke: #000000; stroke-width: 2; opacity: 1;"></path></g><g class="mark-line role-mark layer_4_layer_13_marks"><path d="M440.3125,326.953125L492.7306507627169,145.3125" style="fill: none; stroke: #000000; stroke-width: 2; opacity: 1;"></path></g><g class="mark-line role-mark layer_4_layer_14_marks"><path d="M492.7306507627169,145.3125L558.5149110953013,321.4367777109146" style="fill: none; stroke: #000000; stroke-width: 2; opacity: 1;"></path></g><g class="mark-line role-mark layer_4_layer_15_marks"><path d="M597.5669802824656,145.3125L702.4032818078995,145.3125" style="fill: none; stroke: #000000; stroke-width: 2; opacity: 1;"></path></g><g class="mark-line role-mark layer_4_layer_16_marks"><path d="M558.5149110953013,321.4367777109146L597.5669802824656,145.3125" style="fill: none; stroke: #000000; stroke-width: 2; opacity: 1;"></path></g><g class="mark-line role-mark layer_4_layer_17_marks"><path d="M597.5669802824656,145.3125L645.0888973871866,242.9579445719719" style="fill: none; stroke: #000000; stroke-width: 2; opacity: 1;"></path></g><g class="mark-line role-mark layer_4_layer_18_marks"><path d="M702.4032818078995,145.3125L807.2395833333333,145.3125" style="fill: none; stroke: #000000; stroke-width: 2; opacity: 1;"></path></g><g class="mark-line role-mark layer_4_layer_19_marks"><path d="M645.0888973871866,242.9579445719719L702.4032818078995,145.3125" style="fill: none; stroke: #000000; stroke-width: 2; opacity: 1;"></path></g><g class="mark-line role-mark layer_4_layer_20_marks"><path d="M702.4032818078995,145.3125L750.716542204221,248.1576208770275" style="fill: none; stroke: #000000; stroke-width: 2; opacity: 1;"></path></g><g class="mark-line role-mark layer_4_layer_21_marks"><path d="M750.716542204221,248.1576208770275L807.2395833333333,145.3125" style="fill: none; stroke: #000000; stroke-width: 2; opacity: 1;"></path></g><g class="mark-line role-mark layer_4_layer_22_marks"><path d="M129.90846829364696,248.1576208770275L235.53607461849847,242.9579445719719" style="fill: none; stroke: #000000; stroke-width: 2; opacity: 1;"></path></g><g class="mark-line role-mark layer_4_layer_23_marks"><path d="M235.53607461849847,242.9579445719719L322.1100609103839,321.4367777109146" style="fill: none; stroke: #000000; stroke-width: 2; opacity: 1;"></path></g><g class="mark-line role-mark layer_4_layer_24_marks"><path d="M322.1100609103839,321.4367777109146L440.3125,326.953125" style="fill: none; stroke: #000000; stroke-width: 2; opacity: 1;"></path></g><g class="mark-line role-mark layer_4_layer_25_marks"><path d="M440.3125,326.953125L558.5149110953013,321.4367777109146" style="fill: none; stroke: #000000; stroke-width: 2; opacity: 1;"></path></g><g class="mark-line role-mark layer_4_layer_26_marks"><path d="M558.5149110953013,321.4367777109146L645.0888973871866,242.9579445719719" style="fill: none; stroke: #000000; stroke-width: 2; opacity: 1;"></path></g><g class="mark-line role-mark layer_4_layer_27_marks"><path d="M645.0888973871866,242.9579445719719L750.716542204221,248.1576208770275" style="fill: none; stroke: #000000; stroke-width: 2; opacity: 1;"></path></g><g class="mark-group role-title"><g transform="translate(440.3125,-44)"><path class="background" d="M0,0h0v0h0Z" style="pointer-events: none; fill: none;"></path><g><g class="mark-text role-title-text" style="pointer-events: none;"><text text-anchor="middle" transform="translate(0,152)" style="font-family: Arial; font-size: 40px; font-style: italic; font-weight: normal; fill: #000; opacity: 1;">x₁</text></g></g><path class="foreground" d="" style="pointer-events: none; display: none; fill: none;"></path></g></g></g><path class="foreground" d="" style="display: none; fill: none;"></path></g></g></g></svg>