<svg class="marks" width="890.625" height="475" viewBox="0 0 890.625 475" version="1.1" xmlns="http://www.w3.org/2000/svg" xmlns:xlink="http://www.w3.org/1999/xlink"><rect width="890.625" height="475" style="fill: white;"></rect><g transform="translate(5,5)"><g class="mark-group role-frame root"><g transform="translate(0,0)"><path class="background" d="M0.5,0.5h880.625v465h-880.625Z" style="fill: none; stroke: #ddd; stroke-opacity: 0;"></path><g><g class="mark-symbol role-mark layer_0_layer_0_marks"><path transform="translate(73.38541666666666,145.3125)" d="M0.5,0A0.5,0.5,0,1,1,-0.5,0A0.5,0.5,0,1,1,0.5,0" style="fill: #000000; stroke-width: 2; opacity: 0;"></path><path transform="translate(178.22172519067922,145.3125)" d="M0.5,0A0.5,0.5,0,1,1,-0.5,0A0.5,0.5,0,1,1,0.5,0" style="fill: #000000; stroke-width: 2; opacity: 0;"></path><path transform="translate(283.0580337146918,145.3125)" d="M0.5,0A0.5,0.5,0,1,1,-0.5,0A0.5,0.5,0,1,1,0.5,0" style="fill: #000000; stroke-width: 2; opacity: 0;"></path><path transform="translate(387.89434923728305,145.3125)" d="M0.5,0A0.5,0.5,0,1,1,-0.5,0A0.5,0.5,0,1,1,0.5,0" style="fill: #000000; stroke-width: 2; opacity: 0;"></path><path transform="translate(492.7306507627169,145.3125)" d="M0.5,0A0.5,0.5,0,1,1,-0.5,0A0.5,0.5,0,1,1,0.5,0" style="fill: #000000; stroke-width: 2; opacity: 0;"></path><path transform="translate(597.5669802824656,145.3125)" d="M0.5,0A0.5,0.5,0,1,1,-0.5,0A0.5,0.5,0,1,1,0.5,0" style="fill: #000000; stroke-width: 2; opacity: 0;"></path><path transform="translate(702.4032818078995,145.3125)" d="M0.5,0A0.5,0.5,0,1,1,-0.5,0A0.5,0.5,0,1,1,0.5,0" style="fill: #000000; stroke-width: 2; opacity: 0;"></path><path transform="translate(807.2395833333333,145.3125)" d="M0.5,0A0.5,0.5,0,1,1,-0.5,0A0.5,0.5,0,1,1,0.5,0" style="fill: #000000; stroke-width: 2; opacity: 0;"></path><path transform="translate(132.38977588216463,268.70453864336014)" d="M0.5,0A0.5,0.5,0,1,1,-0.5,0A0.5,0.5,0,1,1,0.5,0" style="fill: #000000; stroke-width: 2; opacity: 0;"></path><path transform="translate(228.60846149921417,364.71079409122467)" d="M0.5,0A0.5,0.5,0,1,1,-0.5,0A0.5,0.5,0,1,1,0.5,0" style="fill: #000000; stroke-width: 2; opacity: 0;"></path><path transform="translate(330.6679509480794,396.04416221380234)" d="M0.5,0A0.5,0.5,0,1,1,-0.5,0A0.5,0.5,0,1,1,0.5,0" style="fill: #000000; stroke-width: 2; opacity: 0;"></path><path transform="translate(440.3125,326.953125)" d="M0.5,0A0.5,0.5,0,1,1,-0.5,0A0.5,0.5,0,1,1,0.5,0" style="fill: #000000; stroke-width: 2; opacity: 0;"></path><path transform="translate(549.9570490519205,396.04418992996216)" d="M0.5,0A0.5,0.5,0,1,1,-0.5,0A0.5,0.5,0,1,1,0.5,0" style="fill: #000000; stroke-width: 2; opacity: 0;"></path><path transform="translate(652.0165385007858,364.71079409122467)" d="M0.5,0A0.5,0.5,0,1,1,-0.5,0A0.5,0.5,0,1,1,0.5,0" style="fill: #000000; stroke-width: 2; opacity: 0;"></path><path transform="translate(748.2352381149927,268.70453864336014)" d="M0.5,0A0.5,0.5,0,1,1,-0.5,0A0.5,0.5,0,1,1,0.5,0" style="fill: #000000; stroke-width: 2; opacity: 0;"></path></g><g class="mark-line role-mark layer_0_layer_1_marks"><path d="M73.38541666666666,145.3125L178.22172519067922,145.3125" style="fill: none; stroke: #000000; stroke-width: 2; opacity: 0.1;"></path></g><g class="mark-line role-mark layer_0_layer_2_marks"><path d="M73.38541666666666,145.3125L132.38977588216463,268.70453864336014" style="fill: none; stroke: #000000; stroke-width: 2; opacity: 0.1;"></path></g><g class="mark-line role-mark layer_0_layer_3_marks"><path d="M178.22172519067922,145.3125L283.0580337146918,145.3125" style="fill: none; stroke: #000000; stroke-width: 2; opacity: 0.1;"></path></g><g class="mark-line role-mark layer_0_layer_4_marks"><path d="M132.38977588216463,268.70453864336014L178.22172519067922,145.3125" style="fill: none; stroke: #000000; stroke-width: 2; opacity: 0.1;"></path></g><g class="mark-line role-mark layer_0_layer_5_marks"><path d="M178.22172519067922,145.3125L228.60846149921417,364.71079409122467" style="fill: none; stroke: #000000; stroke-width: 2; opacity: 0.1;"></path></g><g class="mark-line role-mark layer_0_layer_6_marks"><path d="M283.0580337146918,145.3125L387.89434923728305,145.3125" style="fill: none; stroke: #000000; stroke-width: 2; opacity: 0.1;"></path></g><g class="mark-line role-mark layer_0_layer_7_marks"><path d="M228.60846149921417,364.71079409122467L283.0580337146918,145.3125" style="fill: none; stroke: #000000; stroke-width: 2; opacity: 0.1;"></path></g><g class="mark-line role-mark layer_0_layer_8_marks"><path d="M283.0580337146918,145.3125L330.6679509480794,396.04416221380234" style="fill: none; stroke: #000000; stroke-width: 2; opacity: 0.1;"></path></g><g class="mark-line role-mark layer_0_layer_9_marks"><path d="M387.89434923728305,145.3125L492.7306507627169,145.3125" style="fill: none; stroke: #000000; stroke-width: 2; opacity: 0.1;"></path></g><g class="mark-line role-mark layer_0_layer_10_marks"><path d="M330.6679509480794,396.04416221380234L387.89434923728305,145.3125" style="fill: none; stroke: #000000; stroke-width: 2; opacity: 0.1;"></path></g><g class="mark-line role-mark layer_0_layer_11_marks"><path d="M387.89434923728305,145.3125L440.3125,326.953125" style="fill: none; stroke: #000000; stroke-width: 2; opacity: 0.1;"></path></g><g class="mark-line role-mark layer_0_layer_12_marks"><path d="M492.7306507627169,145.3125L597.5669802824656,145.3125" style="fill: none; stroke: #000000; stroke-width: 2; opacity: 0.1;"></path></g><g class="mark-line role-mark layer_0_layer_13_marks"><path d="M440.3125,326.953125L492.7306507627169,145.3125" style="fill: none; stroke: #000000; stroke-width: 2; opacity: 0.1;"></path></g><g class="mark-line role-mark layer_0_layer_14_marks"><path d="M492.7306507627169,145.3125L549.9570490519205,396.04418992996216" style="fill: none; stroke: #000000; stroke-width: 2; opacity: 0.1;"></path></g><g class="mark-line role-mark layer_0_layer_15_marks"><path d="M597.5669802824656,145.3125L702.4032818078995,145.3125" style="fill: none; stroke: #000000; stroke-width: 2; opacity: 0.1;"></path></g><g class="mark-line role-mark layer_0_layer_16_marks"><path d="M549.9570490519205,396.04418992996216L597.5669802824656,145.3125" style="fill: none; stroke: #000000; stroke-width: 2; opacity: 0.1;"></path></g><g class="mark-line role-mark layer_0_layer_17_marks"><path d="M597.5669802824656,145.3125L652.0165385007858,364.71079409122467" style="fill: none; stroke: #000000; stroke-width: 2; opacity: 0.1;"></path></g><g class="mark-line role-mark layer_0_layer_18_marks"><path d="M702.4032818078995,145.3125L807.2395833333333,145.3125" style="fill: none; stroke: #000000; stroke-width: 2; opacity: 0.1;"></path></g><g class="mark-line role-mark layer_0_layer_19_marks"><path d="M652.0165385007858,364.71079409122467L702.4032818078995,145.3125" style="fill: none; stroke: #000000; stroke-width: 2; opacity: 0.1;"></path></g><g class="mark-line role-mark layer_0_layer_20_marks"><path d="M702.4032818078995,145.3125L748.2352381149927,268.70453864336014" style="fill: none; stroke: #000000; stroke-width: 2; opacity: 0.1;"></path></g><g class="mark-line role-mark layer_0_layer_21_marks"><path d="M748.2352381149927,268.70453864336014L807.2395833333333,145.3125" style="fill: none; stroke: #000000; stroke-width: 2; opacity: 0.1;"></path></g><g class="mark-line role-mark layer_0_layer_22_marks"><path d="M132.38977588216463,268.70453864336014L228.60846149921417,364.71079409122467" style="fill: none; stroke: #000000; stroke-width: 2; opacity: 0.1;"></path></g><g class="mark-line role-mark layer_0_layer_23_marks"><path d="M228.60846149921417,364.71079409122467L330.6679509480794,396.04416221380234" style="fill: none; stroke: #000000; stroke-width: 2; opacity: 0.1;"></path></g><g class="mark-line role-mark layer_0_layer_24_marks"><path d="M330.6679509480794,396.04416221380234L440.3125,326.953125" style="fill: none; stroke: #000000; stroke-width: 2; opacity: 0.1;"></path></g><g class="mark-line role-mark layer_0_layer_25_marks"><path d="M440.3125,326.953125L549.9570490519205,396.04418992996216" style="fill: none; stroke: #000000; stroke-width: 2; opacity: 0.1;"></path></g><g class="mark-line role-mark layer_0_layer_26_marks"><path d="M549.9570490519205,396.04418992996216L652.0165385007858,364.71079409122467" style="fill: none; stroke: #000000; stroke-width: 2; opacity: 0.1;"></path></g><g class="mark-line role-mark layer_0_layer_27_marks"><path d="M652.0165385007858,364.71079409122467L748.2352381149927,268.70453864336014" style="fill: none; stroke: #000000; stroke-width: 2; opacity: 0.1;"></path></g><g class="mark-symbol role-mark layer_1_layer_0_marks"><path transform="translate(73.38541666666666,145.3125)" d="M0.5,0A0.5,0.5,0,1,1,-0.5,0A0.5,0.5,0,1,1,0.5,0" style="fill: #000000; stroke-width: 2; opacity: 0;"></path><path transform="translate(178.22172519067922,145.3125)" d="M0.5,0A0.5,0.5,0,1,1,-0.5,0A0.5,0.5,0,1,1,0.5,0" style="fill: #000000; stroke-width: 2; opacity: 0;"></path><path transform="translate(283.0580337146918,145.3125)" d="M0.5,0A0.5,0.5,0,1,1,-0.5,0A0.5,0.5,0,1,1,0.5,0" style="fill: #000000; stroke-width: 2; opacity: 0;"></path><path transform="translate(387.89434923728305,145.3125)" d="M0.5,0A0.5,0.5,0,1,1,-0.5,0A0.5,0.5,0,1,1,0.5,0" style="fill: #000000; stroke-width: 2; opacity: 0;"></path><path transform="translate(492.7306507627169,145.3125)" d="M0.5,0A0.5,0.5,0,1,1,-0.5,0A0.5,0.5,0,1,1,0.5,0" style="fill: #000000; stroke-width: 2; opacity: 0;"></path><path transform="translate(597.5669802824656,145.3125)" d="M0.5,0A0.5,0.5,0,1,1,-0.5,0A0.5,0.5,0,1,1,0.5,0" style="fill: #000000; stroke-width: 2; opacity: 0;"></path><path transform="translate(702.4032818078995,145.3125)" d="M0.5,0A0.5,0.5,0,1,1,-0.5,0A0.5,0.5,0,1,1,0.5,0" style="fill: #000000; stroke-width: 2; opacity: 0;"></path><path transform="translate(807.2395833333333,145.3125)" d="M0.5,0A0.5,0.5,0,1,1,-0.5,0A0.5,0.5,0,1,1,0.5,0" style="fill: #000000; stroke-width: 2; opacity: 0;"></path><path transform="translate(125.42008730769159,256.55701003968716)" d="M0.5,0A0.5,0.5,0,1,1,-0.5,0A0.5,0.5,0,1,1,0.5,0" style="fill: #000000; stroke-width: 2; opacity: 0;"></path><path transform="translate(212.78678861260414,338.57351303100586)" d="M0.5,0A0.5,0.5,0,1,1,-0.5,0A0.5,0.5,0,1,1,0.5,0" style="fill: #000000; stroke-width: 2; opacity: 0;"></path><path transform="translate(325.56909443934757,364.5716589689255)" d="M0.5,0A0.5,0.5,0,1,1,-0.5,0A0.5,0.5,0,1,1,0.5,0" style="fill: #000000; stroke-width: 2; opacity: 0;"></path><path transform="translate(440.3125,326.953125)" d="M0.5,0A0.5,0.5,0,1,1,-0.5,0A0.5,0.5,0,1,1,0.5,0" style="fill: #000000; stroke-width: 2; opacity: 0;"></path><path transform="translate(555.0559335549673,364.5716589689255)" d="M0.5,0A0.5,0.5,0,1,1,-0.5,0A0.5,0.5,0,1,1,0.5,0" style="fill: #000000; stroke-width: 2; opacity: 0;"></path><path transform="translate(667.8381973902384,338.57352688908577)" d="M0.5,0A0.5,0.5,0,1,1,-0.5,0A0.5,0.5,0,1,1,0.5,0" style="fill: #000000; stroke-width: 2; opacity: 0;"></path><path transform="translate(755.2049266894659,256.55701003968716)" d="M0.5,0A0.5,0.5,0,1,1,-0.5,0A0.5,0.5,0,1,1,0.5,0" style="fill: #000000; stroke-width: 2; opacity: 0;"></path></g><g class="mark-line role-mark layer_1_layer_1_marks"><path d="M73.38541666666666,145.3125L178.22172519067922,145.3125" style="fill: none; stroke: #000000; stroke-width: 2; opacity: 0.225;"></path></g><g class="mark-line role-mark layer_1_layer_2_marks"><path d="M73.38541666666666,145.3125L125.42008730769159,256.55701003968716" style="fill: none; stroke: #000000; stroke-width: 2; opacity: 0.225;"></path></g><g class="mark-line role-mark layer_1_layer_3_marks"><path d="M178.22172519067922,145.3125L283.0580337146918,145.3125" style="fill: none; stroke: #000000; stroke-width: 2; opacity: 0.225;"></path></g><g class="mark-line role-mark layer_1_layer_4_marks"><path d="M125.42008730769159,256.55701003968716L178.22172519067922,145.3125" style="fill: none; stroke: #000000; stroke-width: 2; opacity: 0.225;"></path></g><g class="mark-line role-mark layer_1_layer_5_marks"><path d="M178.22172519067922,145.3125L212.78678861260414,338.57351303100586" style="fill: none; stroke: #000000; stroke-width: 2; opacity: 0.225;"></path></g><g class="mark-line role-mark layer_1_layer_6_marks"><path d="M283.0580337146918,145.3125L387.89434923728305,145.3125" style="fill: none; stroke: #000000; stroke-width: 2; opacity: 0.225;"></path></g><g class="mark-line role-mark layer_1_layer_7_marks"><path d="M212.78678861260414,338.57351303100586L283.0580337146918,145.3125" style="fill: none; stroke: #000000; stroke-width: 2; opacity: 0.225;"></path></g><g class="mark-line role-mark layer_1_layer_8_marks"><path d="M283.0580337146918,145.3125L325.56909443934757,364.5716589689255" style="fill: none; stroke: #000000; stroke-width: 2; opacity: 0.225;"></path></g><g class="mark-line role-mark layer_1_layer_9_marks"><path d="M387.89434923728305,145.3125L492.7306507627169,145.3125" style="fill: none; stroke: #000000; stroke-width: 2; opacity: 0.225;"></path></g><g class="mark-line role-mark layer_1_layer_10_marks"><path d="M325.56909443934757,364.5716589689255L387.89434923728305,145.3125" style="fill: none; stroke: #000000; stroke-width: 2; opacity: 0.225;"></path></g><g class="mark-line role-mark layer_1_layer_11_marks"><path d="M387.89434923728305,145.3125L440.3125,326.953125" style="fill: none; stroke: #000000; stroke-width: 2; opacity: 0.225;"></path></g><g class="mark-line role-mark layer_1_layer_12_marks"><path d="M492.7306507627169,145.3125L597.5669802824656,145.3125" style="fill: none; stroke: #000000; stroke-width: 2; opacity: 0.225;"></path></g><g class="mark-line role-mark layer_1_layer_13_marks"><path d="M440.3125,326.953125L492.7306507627169,145.3125" style="fill: none; stroke: #000000; stroke-width: 2; opacity: 0.225;"></path></g><g class="mark-line role-mark layer_1_layer_14_marks"><path d="M492.7306507627169,145.3125L555.0559335549673,364.5716589689255" style="fill: none; stroke: #000000; stroke-width: 2; opacity: 0.225;"></path></g><g class="mark-line role-mark layer_1_layer_15_marks"><path d="M597.5669802824656,145.3125L702.4032818078995,145.3125" style="fill: none; stroke: #000000; stroke-width: 2; opacity: 0.225;"></path></g><g class="mark-line role-mark layer_1_layer_16_marks"><path d="M555.0559335549673,364.5716589689255L597.5669802824656,145.3125" style="fill: none; stroke: #000000; stroke-width: 2; opacity: 0.225;"></path></g><g class="mark-line role-mark layer_1_layer_17_marks"><path d="M597.5669802824656,145.3125L667.8381973902384,338.57352688908577" style="fill: none; stroke: #000000; stroke-width: 2; opacity: 0.225;"></path></g><g class="mark-line role-mark layer_1_layer_18_marks"><path d="M702.4032818078995,145.3125L807.2395833333333,145.3125" style="fill: none; stroke: #000000; stroke-width: 2; opacity: 0.225;"></path></g><g class="mark-line role-mark layer_1_layer_19_marks"><path d="M667.8381973902384,338.57352688908577L702.4032818078995,145.3125" style="fill: none; stroke: #000000; stroke-width: 2; opacity: 0.225;"></path></g><g class="mark-line role-mark layer_1_layer_20_marks"><path d="M702.4032818078995,145.3125L755.2049266894659,256.55701003968716" style="fill: none; stroke: #000000; stroke-width: 2; opacity: 0.225;"></path></g><g class="mark-line role-mark layer_1_layer_21_marks"><path d="M755.2049266894659,256.55701003968716L807.2395833333333,145.3125" style="fill: none; stroke: #000000; stroke-width: 2; opacity: 0.225;"></path></g><g class="mark-line role-mark layer_1_layer_22_marks"><path d="M125.42008730769159,256.55701003968716L212.78678861260414,338.57351303100586" style="fill: none; stroke: #000000; stroke-width: 2; opacity: 0.225;"></path></g><g class="mark-line role-mark layer_1_layer_23_marks"><path d="M212.78678861260414,338.57351303100586L325.56909443934757,364.5716589689255" style="fill: none; stroke: #000000; stroke-width: 2; opacity: 0.225;"></path></g><g class="mark-line role-mark layer_1_layer_24_marks"><path d="M325.56909443934757,364.5716589689255L440.3125,326.953125" style="fill: none; stroke: #000000; stroke-width: 2; opacity: 0.225;"></path></g><g class="mark-line role-mark layer_1_layer_25_marks"><path d="M440.3125,326.953125L555.0559335549673,364.5716589689255" style="fill: none; stroke: #000000; stroke-width: 2; opacity: 0.225;"></path></g><g class="mark-line role-mark layer_1_layer_26_marks"><path d="M555.0559335549673,364.5716589689255L667.8381973902384,338.57352688908577" style="fill: none; stroke: #000000; stroke-width: 2; opacity: 0.225;"></path></g><g class="mark-line role-mark layer_1_layer_27_marks"><path d="M667.8381973902384,338.57352688908577L755.2049266894659,256.55701003968716" style="fill: none; stroke: #000000; stroke-width: 2; opacity: 0.225;"></path></g><g class="mark-symbol role-mark layer_2_layer_0_marks"><path transform="translate(73.38541666666666,145.3125)" d="M0.5,0A0.5,0.5,0,1,1,-0.5,0A0.5,0.5,0,1,1,0.5,0" style="fill: #000000; stroke-width: 2; opacity: 0;"></path><path transform="translate(178.22172519067922,145.3125)" d="M0.5,0A0.5,0.5,0,1,1,-0.5,0A0.5,0.5,0,1,1,0.5,0" style="fill: #000000; stroke-width: 2; opacity: 0;"></path><path transform="translate(283.0580337146918,145.3125)" d="M0.5,0A0.5,0.5,0,1,1,-0.5,0A0.5,0.5,0,1,1,0.5,0" style="fill: #000000; stroke-width: 2; opacity: 0;"></path><path transform="translate(387.89434923728305,145.3125)" d="M0.5,0A0.5,0.5,0,1,1,-0.5,0A0.5,0.5,0,1,1,0.5,0" style="fill: #000000; stroke-width: 2; opacity: 0;"></path><path transform="translate(492.7306507627169,145.3125)" d="M0.5,0A0.5,0.5,0,1,1,-0.5,0A0.5,0.5,0,1,1,0.5,0" style="fill: #000000; stroke-width: 2; opacity: 0;"></path><path transform="translate(597.5669802824656,145.3125)" d="M0.5,0A0.5,0.5,0,1,1,-0.5,0A0.5,0.5,0,1,1,0.5,0" style="fill: #000000; stroke-width: 2; opacity: 0;"></path><path transform="translate(702.4032818078995,145.3125)" d="M0.5,0A0.5,0.5,0,1,1,-0.5,0A0.5,0.5,0,1,1,0.5,0" style="fill: #000000; stroke-width: 2; opacity: 0;"></path><path transform="translate(807.2395833333333,145.3125)" d="M0.5,0A0.5,0.5,0,1,1,-0.5,0A0.5,0.5,0,1,1,0.5,0" style="fill: #000000; stroke-width: 2; opacity: 0;"></path><path transform="translate(122.44775943706432,251.085112541914)" d="M0.5,0A0.5,0.5,0,1,1,-0.5,0A0.5,0.5,0,1,1,0.5,0" style="fill: #000000; stroke-width: 2; opacity: 0;"></path><path transform="translate(205.04644454518953,326.7928424477577)" d="M0.5,0A0.5,0.5,0,1,1,-0.5,0A0.5,0.5,0,1,1,0.5,0" style="fill: #000000; stroke-width: 2; opacity: 0;"></path><path transform="translate(322.6781775355339,326.953125)" d="M0.5,0A0.5,0.5,0,1,1,-0.5,0A0.5,0.5,0,1,1,0.5,0" style="fill: #000000; stroke-width: 2; opacity: 0;"></path><path transform="translate(440.3125,326.953125)" d="M0.5,0A0.5,0.5,0,1,1,-0.5,0A0.5,0.5,0,1,1,0.5,0" style="fill: #000000; stroke-width: 2; opacity: 0;"></path><path transform="translate(557.9467944701513,326.953125)" d="M0.5,0A0.5,0.5,0,1,1,-0.5,0A0.5,0.5,0,1,1,0.5,0" style="fill: #000000; stroke-width: 2; opacity: 0;"></path><path transform="translate(675.5785694519678,326.7928424477577)" d="M0.5,0A0.5,0.5,0,1,1,-0.5,0A0.5,0.5,0,1,1,0.5,0" style="fill: #000000; stroke-width: 2; opacity: 0;"></path><path transform="translate(758.1772510608038,251.085112541914)" d="M0.5,0A0.5,0.5,0,1,1,-0.5,0A0.5,0.5,0,1,1,0.5,0" style="fill: #000000; stroke-width: 2; opacity: 0;"></path></g><g class="mark-line role-mark layer_2_layer_1_marks"><path d="M73.38541666666666,145.3125L178.22172519067922,145.3125" style="fill: none; stroke: #000000; stroke-width: 2; opacity: 0.35;"></path></g><g class="mark-line role-mark layer_2_layer_2_marks"><path d="M73.38541666666666,145.3125L122.44775943706432,251.085112541914" style="fill: none; stroke: #000000; stroke-width: 2; opacity: 0.35;"></path></g><g class="mark-line role-mark layer_2_layer_3_marks"><path d="M178.22172519067922,145.3125L283.0580337146918,145.3125" style="fill: none; stroke: #000000; stroke-width: 2; opacity: 0.35;"></path></g><g class="mark-line role-mark layer_2_layer_4_marks"><path d="M122.44775943706432,251.085112541914L178.22172519067922,145.3125" style="fill: none; stroke: #000000; stroke-width: 2; opacity: 0.35;"></path></g><g class="mark-line role-mark layer_2_layer_5_marks"><path d="M178.22172519067922,145.3125L205.04644454518953,326.7928424477577" style="fill: none; stroke: #000000; stroke-width: 2; opacity: 0.35;"></path></g><g class="mark-line role-mark layer_2_layer_6_marks"><path d="M283.0580337146918,145.3125L387.89434923728305,145.3125" style="fill: none; stroke: #000000; stroke-width: 2; opacity: 0.35;"></path></g><g class="mark-line role-mark layer_2_layer_7_marks"><path d="M205.04644454518953,326.7928424477577L283.0580337146918,145.3125" style="fill: none; stroke: #000000; stroke-width: 2; opacity: 0.35;"></path></g><g class="mark-line role-mark layer_2_layer_8_marks"><path d="M283.0580337146918,145.3125L322.6781775355339,326.953125" style="fill: none; stroke: #000000; stroke-width: 2; opacity: 0.35;"></path></g><g class="mark-line role-mark layer_2_layer_9_marks"><path d="M387.89434923728305,145.3125L492.7306507627169,145.3125" style="fill: none; stroke: #000000; stroke-width: 2; opacity: 0.35;"></path></g><g class="mark-line role-mark layer_2_layer_10_marks"><path d="M322.6781775355339,326.953125L387.89434923728305,145.3125" style="fill: none; stroke: #000000; stroke-width: 2; opacity: 0.35;"></path></g><g class="mark-line role-mark layer_2_layer_11_marks"><path d="M387.89434923728305,145.3125L440.3125,326.953125" style="fill: none; stroke: #000000; stroke-width: 2; opacity: 0.35;"></path></g><g class="mark-line role-mark layer_2_layer_12_marks"><path d="M492.7306507627169,145.3125L597.5669802824656,145.3125" style="fill: none; stroke: #000000; stroke-width: 2; opacity: 0.35;"></path></g><g class="mark-line role-mark layer_2_layer_13_marks"><path d="M440.3125,326.953125L492.7306507627169,145.3125" style="fill: none; stroke: #000000; stroke-width: 2; opacity: 0.35;"></path></g><g class="mark-line role-mark layer_2_layer_14_marks"><path d="M492.7306507627169,145.3125L557.9467944701513,326.953125" style="fill: none; stroke: #000000; stroke-width: 2; opacity: 0.35;"></path></g><g class="mark-line role-mark layer_2_layer_15_marks"><path d="M597.5669802824656,145.3125L702.4032818078995,145.3125" style="fill: none; stroke: #000000; stroke-width: 2; opacity: 0.35;"></path></g><g class="mark-line role-mark layer_2_layer_16_marks"><path d="M557.9467944701513,326.953125L597.5669802824656,145.3125" style="fill: none; stroke: #000000; stroke-width: 2; opacity: 0.35;"></path></g><g class="mark-line role-mark layer_2_layer_17_marks"><path d="M597.5669802824656,145.3125L675.5785694519678,326.7928424477577" style="fill: none; stroke: #000000; stroke-width: 2; opacity: 0.35;"></path></g><g class="mark-line role-mark layer_2_layer_18_marks"><path d="M702.4032818078995,145.3125L807.2395833333333,145.3125" style="fill: none; stroke: #000000; stroke-width: 2; opacity: 0.35;"></path></g><g class="mark-line role-mark layer_2_layer_19_marks"><path d="M675.5785694519678,326.7928424477577L702.4032818078995,145.3125" style="fill: none; stroke: #000000; stroke-width: 2; opacity: 0.35;"></path></g><g class="mark-line role-mark layer_2_layer_20_marks"><path d="M702.4032818078995,145.3125L758.1772510608038,251.085112541914" style="fill: none; stroke: #000000; stroke-width: 2; opacity: 0.35;"></path></g><g class="mark-line role-mark layer_2_layer_21_marks"><path d="M758.1772510608038,251.085112541914L807.2395833333333,145.3125" style="fill: none; stroke: #000000; stroke-width: 2; opacity: 0.35;"></path></g><g class="mark-line role-mark layer_2_layer_22_marks"><path d="M122.44775943706432,251.085112541914L205.04644454518953,326.7928424477577" style="fill: none; stroke: #000000; stroke-width: 2; opacity: 0.35;"></path></g><g class="mark-line role-mark layer_2_layer_23_marks"><path d="M205.04644454518953,326.7928424477577L322.6781775355339,326.953125" style="fill: none; stroke: #000000; stroke-width: 2; opacity: 0.35;"></path></g><g class="mark-line role-mark layer_2_layer_24_marks"><path d="M322.6781775355339,326.953125L440.3125,326.953125" style="fill: none; stroke: #000000; stroke-width: 2; opacity: 0.35;"></path></g><g class="mark-line role-mark layer_2_layer_25_marks"><path d="M440.3125,326.953125L557.9467944701513,326.953125" style="fill: none; stroke: #000000; stroke-width: 2; opacity: 0.35;"></path></g><g class="mark-line role-mark layer_2_layer_26_marks"><path d="M557.9467944701513,326.953125L675.5785694519678,326.7928424477577" style="fill: none; stroke: #000000; stroke-width: 2; opacity: 0.35;"></path></g><g class="mark-line role-mark layer_2_layer_27_marks"><path d="M675.5785694519678,326.7928424477577L758.1772510608038,251.085112541914" style="fill: none; stroke: #000000; stroke-width: 2; opacity: 0.35;"></path></g><g class="mark-symbol role-mark layer_3_layer_0_marks"><path transform="translate(73.38541666666666,145.3125)" d="M0.5,0A0.5,0.5,0,1,1,-0.5,0A0.5,0.5,0,1,1,0.5,0" style="fill: #000000; stroke-width: 2; opacity: 0;"></path><path transform="translate(178.22172519067922,145.3125)" d="M0.5,0A0.5,0.5,0,1,1,-0.5,0A0.5,0.5,0,1,1,0.5,0" style="fill: #000000; stroke-width: 2; opacity: 0;"></path><path transform="translate(283.0580337146918,145.3125)" d="M0.5,0A0.5,0.5,0,1,1,-0.5,0A0.5,0.5,0,1,1,0.5,0" style="fill: #000000; stroke-width: 2; opacity: 0;"></path><path transform="translate(387.89434923728305,145.3125)" d="M0.5,0A0.5,0.5,0,1,1,-0.5,0A0.5,0.5,0,1,1,0.5,0" style="fill: #000000; stroke-width: 2; opacity: 0;"></path><path transform="translate(492.7306507627169,145.3125)" d="M0.5,0A0.5,0.5,0,1,1,-0.5,0A0.5,0.5,0,1,1,0.5,0" style="fill: #000000; stroke-width: 2; opacity: 0;"></path><path transform="translate(597.5669802824656,145.3125)" d="M0.5,0A0.5,0.5,0,1,1,-0.5,0A0.5,0.5,0,1,1,0.5,0" style="fill: #000000; stroke-width: 2; opacity: 0;"></path><path transform="translate(702.4032818078995,145.3125)" d="M0.5,0A0.5,0.5,0,1,1,-0.5,0A0.5,0.5,0,1,1,0.5,0" style="fill: #000000; stroke-width: 2; opacity: 0;"></path><path transform="translate(807.2395833333333,145.3125)" d="M0.5,0A0.5,0.5,0,1,1,-0.5,0A0.5,0.5,0,1,1,0.5,0" style="fill: #000000; stroke-width: 2; opacity: 0;"></path><path transform="translate(124.70689364522694,254.84941743314266)" d="M0.5,0A0.5,0.5,0,1,1,-0.5,0A0.5,0.5,0,1,1,0.5,0" style="fill: #000000; stroke-width: 2; opacity: 0;"></path><path transform="translate(216.2366680006186,313.94945114851)" d="M0.5,0A0.5,0.5,0,1,1,-0.5,0A0.5,0.5,0,1,1,0.5,0" style="fill: #000000; stroke-width: 2; opacity: 0;"></path><path transform="translate(327.1688855489095,290.27612283825874)" d="M0.5,0A0.5,0.5,0,1,1,-0.5,0A0.5,0.5,0,1,1,0.5,0" style="fill: #000000; stroke-width: 2; opacity: 0;"></path><path transform="translate(440.3125,326.953125)" d="M0.5,0A0.5,0.5,0,1,1,-0.5,0A0.5,0.5,0,1,1,0.5,0" style="fill: #000000; stroke-width: 2; opacity: 0;"></path><path transform="translate(553.4561144510905,290.27612283825874)" d="M0.5,0A0.5,0.5,0,1,1,-0.5,0A0.5,0.5,0,1,1,0.5,0" style="fill: #000000; stroke-width: 2; opacity: 0;"></path><path transform="translate(664.3883459965388,313.94945114851)" d="M0.5,0A0.5,0.5,0,1,1,-0.5,0A0.5,0.5,0,1,1,0.5,0" style="fill: #000000; stroke-width: 2; opacity: 0;"></path><path transform="translate(755.9181098540624,254.84941743314266)" d="M0.5,0A0.5,0.5,0,1,1,-0.5,0A0.5,0.5,0,1,1,0.5,0" style="fill: #000000; stroke-width: 2; opacity: 0;"></path></g><g class="mark-line role-mark layer_3_layer_1_marks"><path d="M73.38541666666666,145.3125L178.22172519067922,145.3125" style="fill: none; stroke: #000000; stroke-width: 2; opacity: 0.475;"></path></g><g class="mark-line role-mark layer_3_layer_2_marks"><path d="M73.38541666666666,145.3125L124.70689364522694,254.84941743314266" style="fill: none; stroke: #000000; stroke-width: 2; opacity: 0.475;"></path></g><g class="mark-line role-mark layer_3_layer_3_marks"><path d="M178.22172519067922,145.3125L283.0580337146918,145.3125" style="fill: none; stroke: #000000; stroke-width: 2; opacity: 0.475;"></path></g><g class="mark-line role-mark layer_3_layer_4_marks"><path d="M124.70689364522694,254.84941743314266L178.22172519067922,145.3125" style="fill: none; stroke: #000000; stroke-width: 2; opacity: 0.475;"></path></g><g class="mark-line role-mark layer_3_layer_5_marks"><path d="M178.22172519067922,145.3125L216.2366680006186,313.94945114851" style="fill: none; stroke: #000000; stroke-width: 2; opacity: 0.475;"></path></g><g class="mark-line role-mark layer_3_layer_6_marks"><path d="M283.0580337146918,145.3125L387.89434923728305,145.3125" style="fill: none; stroke: #000000; stroke-width: 2; opacity: 0.475;"></path></g><g class="mark-line role-mark layer_3_layer_7_marks"><path d="M216.2366680006186,313.94945114851L283.0580337146918,145.3125" style="fill: none; stroke: #000000; stroke-width: 2; opacity: 0.475;"></path></g><g class="mark-line role-mark layer_3_layer_8_marks"><path d="M283.0580337146918,145.3125L327.1688855489095,290.27612283825874" style="fill: none; stroke: #000000; stroke-width: 2; opacity: 0.475;"></path></g><g class="mark-line role-mark layer_3_layer_9_marks"><path d="M387.89434923728305,145.3125L492.7306507627169,145.3125" style="fill: none; stroke: #000000; stroke-width: 2; opacity: 0.475;"></path></g><g class="mark-line role-mark layer_3_layer_10_marks"><path d="M327.1688855489095,290.27612283825874L387.89434923728305,145.3125" style="fill: none; stroke: #000000; stroke-width: 2; opacity: 0.475;"></path></g><g class="mark-line role-mark layer_3_layer_11_marks"><path d="M387.89434923728305,145.3125L440.3125,326.953125" style="fill: none; stroke: #000000; stroke-width: 2; opacity: 0.475;"></path></g><g class="mark-line role-mark layer_3_layer_12_marks"><path d="M492.7306507627169,145.3125L597.5669802824656,145.3125" style="fill: none; stroke: #000000; stroke-width: 2; opacity: 0.475;"></path></g><g class="mark-line role-mark layer_3_layer_13_marks"><path d="M440.3125,326.953125L492.7306507627169,145.3125" style="fill: none; stroke: #000000; stroke-width: 2; opacity: 0.475;"></path></g><g class="mark-line role-mark layer_3_layer_14_marks"><path d="M492.7306507627169,145.3125L553.4561144510905,290.27612283825874" style="fill: none; stroke: #000000; stroke-width: 2; opacity: 0.475;"></path></g><g class="mark-line role-mark layer_3_layer_15_marks"><path d="M597.5669802824656,145.3125L702.4032818078995,145.3125" style="fill: none; stroke: #000000; stroke-width: 2; opacity: 0.475;"></path></g><g class="mark-line role-mark layer_3_layer_16_marks"><path d="M553.4561144510905,290.27612283825874L597.5669802824656,145.3125" style="fill: none; stroke: #000000; stroke-width: 2; opacity: 0.475;"></path></g><g class="mark-line role-mark layer_3_layer_17_marks"><path d="M597.5669802824656,145.3125L664.3883459965388,313.94945114851" style="fill: none; stroke: #000000; stroke-width: 2; opacity: 0.475;"></path></g><g class="mark-line role-mark layer_3_layer_18_marks"><path d="M702.4032818078995,145.3125L807.2395833333333,145.3125" style="fill: none; stroke: #000000; stroke-width: 2; opacity: 0.475;"></path></g><g class="mark-line role-mark layer_3_layer_19_marks"><path d="M664.3883459965388,313.94945114851L702.4032818078995,145.3125" style="fill: none; stroke: #000000; stroke-width: 2; opacity: 0.475;"></path></g><g class="mark-line role-mark layer_3_layer_20_marks"><path d="M702.4032818078995,145.3125L755.9181098540624,254.84941743314266" style="fill: none; stroke: #000000; stroke-width: 2; opacity: 0.475;"></path></g><g class="mark-line role-mark layer_3_layer_21_marks"><path d="M755.9181098540624,254.84941743314266L807.2395833333333,145.3125" style="fill: none; stroke: #000000; stroke-width: 2; opacity: 0.475;"></path></g><g class="mark-line role-mark layer_3_layer_22_marks"><path d="M124.70689364522694,254.84941743314266L216.2366680006186,313.94945114851" style="fill: none; stroke: #000000; stroke-width: 2; opacity: 0.475;"></path></g><g class="mark-line role-mark layer_3_layer_23_marks"><path d="M216.2366680006186,313.94945114851L327.1688855489095,290.27612283825874" style="fill: none; stroke: #000000; stroke-width: 2; opacity: 0.475;"></path></g><g class="mark-line role-mark layer_3_layer_24_marks"><path d="M327.1688855489095,290.27612283825874L440.3125,326.953125" style="fill: none; stroke: #000000; stroke-width: 2; opacity: 0.475;"></path></g><g class="mark-line role-mark layer_3_layer_25_marks"><path d="M440.3125,326.953125L553.4561144510905,290.27612283825874" style="fill: none; stroke: #000000; stroke-width: 2; opacity: 0.475;"></path></g><g class="mark-line role-mark layer_3_layer_26_marks"><path d="M553.4561144510905,290.27612283825874L664.3883459965388,313.94945114851" style="fill: none; stroke: #000000; stroke-width: 2; opacity: 0.475;"></path></g><g class="mark-line role-mark layer_3_layer_27_marks"><path d="M664.3883459965388,313.94945114851L755.9181098540624,254.84941743314266" style="fill: none; stroke: #000000; stroke-width: 2; opacity: 0.475;"></path></g><g class="mark-symbol role-mark layer_4_layer_0_marks"><path transform="translate(73.38541666666666,145.3125)" d="M0.5,0A0.5,0.5,0,1,1,-0.5,0A0.5,0.5,0,1,1,0.5,0" style="fill: #000000; stroke-width: 2; opacity: 0;"></path><path transform="translate(178.22172519067922,145.3125)" d="M0.5,0A0.5,0.5,0,1,1,-0.5,0A0.5,0.5,0,1,1,0.5,0" style="fill: #000000; stroke-width: 2; opacity: 0;"></path><path transform="translate(283.0580337146918,145.3125)" d="M0.5,0A0.5,0.5,0,1,1,-0.5,0A0.5,0.5,0,1,1,0.5,0" style="fill: #000000; stroke-width: 2; opacity: 0;"></path><path transform="translate(387.89434923728305,145.3125)" d="M0.5,0A0.5,0.5,0,1,1,-0.5,0A0.5,0.5,0,1,1,0.5,0" style="fill: #000000; stroke-width: 2; opacity: 0;"></path><path transform="translate(492.7306507627169,145.3125)" d="M0.5,0A0.5,0.5,0,1,1,-0.5,0A0.5,0.5,0,1,1,0.5,0" style="fill: #000000; stroke-width: 2; opacity: 0;"></path><path transform="translate(597.5669802824656,145.3125)" d="M0.5,0A0.5,0.5,0,1,1,-0.5,0A0.5,0.5,0,1,1,0.5,0" style="fill: #000000; stroke-width: 2; opacity: 0;"></path><path transform="translate(702.4032818078995,145.3125)" d="M0.5,0A0.5,0.5,0,1,1,-0.5,0A0.5,0.5,0,1,1,0.5,0" style="fill: #000000; stroke-width: 2; opacity: 0;"></path><path transform="translate(807.2395833333333,145.3125)" d="M0.5,0A0.5,0.5,0,1,1,-0.5,0A0.5,0.5,0,1,1,0.5,0" style="fill: #000000; stroke-width: 2; opacity: 0;"></path><path transform="translate(131.14698577175537,265.2671527862549)" d="M0.5,0A0.5,0.5,0,1,1,-0.5,0A0.5,0.5,0,1,1,0.5,0" style="fill: #000000; stroke-width: 2; opacity: 0;"></path><path transform="translate(233.52910619974136,283.8621599972248)" d="M0.5,0A0.5,0.5,0,1,1,-0.5,0A0.5,0.5,0,1,1,0.5,0" style="fill: #000000; stroke-width: 2; opacity: 0;"></path><path transform="translate(332.9251605470975,260.69952964782715)" d="M0.5,0A0.5,0.5,0,1,1,-0.5,0A0.5,0.5,0,1,1,0.5,0" style="fill: #000000; stroke-width: 2; opacity: 0;"></path><path transform="translate(440.3125,326.953125)" d="M0.5,0A0.5,0.5,0,1,1,-0.5,0A0.5,0.5,0,1,1,0.5,0" style="fill: #000000; stroke-width: 2; opacity: 0;"></path><path transform="translate(547.6998674472173,260.69952964782715)" d="M0.5,0A0.5,0.5,0,1,1,-0.5,0A0.5,0.5,0,1,1,0.5,0" style="fill: #000000; stroke-width: 2; opacity: 0;"></path><path transform="translate(647.0959217945734,283.8621599972248)" d="M0.5,0A0.5,0.5,0,1,1,-0.5,0A0.5,0.5,0,1,1,0.5,0" style="fill: #000000; stroke-width: 2; opacity: 0;"></path><path transform="translate(749.4780177275339,265.2671527862549)" d="M0.5,0A0.5,0.5,0,1,1,-0.5,0A0.5,0.5,0,1,1,0.5,0" style="fill: #000000; stroke-width: 2; opacity: 0;"></path></g><g class="mark-line role-mark layer_4_layer_1_marks"><path d="M73.38541666666666,145.3125L178.22172519067922,145.3125" style="fill: none; stroke: #000000; stroke-width: 2; opacity: 1;"></path></g><g class="mark-line role-mark layer_4_layer_2_marks"><path d="M73.38541666666666,145.3125L131.14698577175537,265.2671527862549" style="fill: none; stroke: #000000; stroke-width: 2; opacity: 1;"></path></g><g class="mark-line role-mark layer_4_layer_3_marks"><path d="M178.22172519067922,145.3125L283.0580337146918,145.3125" style="fill: none; stroke: #000000; stroke-width: 2; opacity: 1;"></path></g><g class="mark-line role-mark layer_4_layer_4_marks"><path d="M131.14698577175537,265.2671527862549L178.22172519067922,145.3125" style="fill: none; stroke: #000000; stroke-width: 2; opacity: 1;"></path></g><g class="mark-line role-mark layer_4_layer_5_marks"><path d="M178.22172519067922,145.3125L233.52910619974136,283.8621599972248" style="fill: none; stroke: #000000; stroke-width: 2; opacity: 1;"></path></g><g class="mark-line role-mark layer_4_layer_6_marks"><path d="M283.0580337146918,145.3125L387.89434923728305,145.3125" style="fill: none; stroke: #000000; stroke-width: 2; opacity: 1;"></path></g><g class="mark-line role-mark layer_4_layer_7_marks"><path d="M233.52910619974136,283.8621599972248L283.0580337146918,145.3125" style="fill: none; stroke: #000000; stroke-width: 2; opacity: 1;"></path></g><g class="mark-line role-mark layer_4_layer_8_marks"><path d="M283.0580337146918,145.3125L332.9251605470975,260.69952964782715" style="fill: none; stroke: #000000; stroke-width: 2; opacity: 1;"></path></g><g class="mark-line role-mark layer_4_layer_9_marks"><path d="M387.89434923728305,145.3125L492.7306507627169,145.3125" style="fill: none; stroke: #000000; stroke-width: 2; opacity: 1;"></path></g><g class="mark-line role-mark layer_4_layer_10_marks"><path d="M332.9251605470975,260.69952964782715L387.89434923728305,145.3125" style="fill: none; stroke: #000000; stroke-width: 2; opacity: 1;"></path></g><g class="mark-line role-mark layer_4_layer_11_marks"><path d="M387.89434923728305,145.3125L440.3125,326.953125" style="fill: none; stroke: #000000; stroke-width: 2; opacity: 1;"></path></g><g class="mark-line role-mark layer_4_layer_12_marks"><path d="M492.7306507627169,145.3125L597.5669802824656,145.3125" style="fill: none; stroke: #000000; stroke-width: 2; opacity: 1;"></path></g><g class="mark-line role-mark layer_4_layer_13_marks"><path d="M440.3125,326.953125L492.7306507627169,145.3125" style="fill: none; stroke: #000000; stroke-width: 2; opacity: 1;"></path></g><g class="mark-line role-mark layer_4_layer_14_marks"><path d="M492.7306507627169,145.3125L547.6998674472173,260.69952964782715" style="fill: none; stroke: #000000; stroke-width: 2; opacity: 1;"></path></g><g class="mark-line role-mark layer_4_layer_15_marks"><path d="M597.5669802824656,145.3125L702.4032818078995,145.3125" style="fill: none; stroke: #000000; stroke-width: 2; opacity: 1;"></path></g><g class="mark-line role-mark layer_4_layer_16_marks"><path d="M547.6998674472173,260.69952964782715L597.5669802824656,145.3125" style="fill: none; stroke: #000000; stroke-width: 2; opacity: 1;"></path></g><g class="mark-line role-mark layer_4_layer_17_marks"><path d="M597.5669802824656,145.3125L647.0959217945734,283.8621599972248" style="fill: none; stroke: #000000; stroke-width: 2; opacity: 1;"></path></g><g class="mark-line role-mark layer_4_layer_18_marks"><path d="M702.4032818078995,145.3125L807.2395833333333,145.3125" style="fill: none; stroke: #000000; stroke-width: 2; opacity: 1;"></path></g><g class="mark-line role-mark layer_4_layer_19_marks"><path d="M647.0959217945734,283.8621599972248L702.4032818078995,145.3125" style="fill: none; stroke: #000000; stroke-width: 2; opacity: 1;"></path></g><g class="mark-line role-mark layer_4_layer_20_marks"><path d="M702.4032818078995,145.3125L749.4780177275339,265.2671527862549" style="fill: none; stroke: #000000; stroke-width: 2; opacity: 1;"></path></g><g class="mark-line role-mark layer_4_layer_21_marks"><path d="M749.4780177275339,265.2671527862549L807.2395833333333,145.3125" style="fill: none; stroke: #000000; stroke-width: 2; opacity: 1;"></path></g><g class="mark-line role-mark layer_4_layer_22_marks"><path d="M131.14698577175537,265.2671527862549L233.52910619974136,283.8621599972248" style="fill: none; stroke: #000000; stroke-width: 2; opacity: 1;"></path></g><g class="mark-line role-mark layer_4_layer_23_marks"><path d="M233.52910619974136,283.8621599972248L332.9251605470975,260.69952964782715" style="fill: none; stroke: #000000; stroke-width: 2; opacity: 1;"></path></g><g class="mark-line role-mark layer_4_layer_24_marks"><path d="M332.9251605470975,260.69952964782715L440.3125,326.953125" style="fill: none; stroke: #000000; stroke-width: 2; opacity: 1;"></path></g><g class="mark-line role-mark layer_4_layer_25_marks"><path d="M440.3125,326.953125L547.6998674472173,260.69952964782715" style="fill: none; stroke: #000000; stroke-width: 2; opacity: 1;"></path></g><g class="mark-line role-mark layer_4_layer_26_marks"><path d="M547.6998674472173,260.69952964782715L647.0959217945734,283.8621599972248" style="fill: none; stroke: #000000; stroke-width: 2; opacity: 1;"></path></g><g class="mark-line role-mark layer_4_layer_27_marks"><path d="M647.0959217945734,283.8621599972248L749.4780177275339,265.2671527862549" style="fill: none; stroke: #000000; stroke-width: 2; opacity: 1;"></path></g><g class="mark-group role-title"><g transform="translate(440.3125,-44)"><path class="background" d="M0,0h0v0h0Z" style="pointer-events: none; fill: none;"></path><g><g class="mark-text role-title-text" style="pointer-events: none;"><text text-anchor="middle" transform="translate(0,152)" style="font-family: Arial; font-size: 40px; font-style: italic; font-weight: normal; fill: #000; opacity: 1;">x₂</text></g></g><path class="foreground" d="" style="pointer-events: none; display: none; fill: none;"></path></g></g></g><path class="foreground" d="" style="display: none; fill: none;"></path></g></g></g></svg>