<svg class="marks" width="890.625" height="475" viewBox="0 0 890.625 475" version="1.1" xmlns="http://www.w3.org/2000/svg" xmlns:xlink="http://www.w3.org/1999/xlink"><rect width="890.625" height="475" style="fill: white;"></rect><g transform="translate(5,5)"><g class="mark-group role-frame root"><g transform="translate(0,0)"><path class="background" d="M0.5,0.5h880.625v465h-880.625Z" style="fill: none; stroke: #ddd; stroke-opacity: 0;"></path><g><g class="mark-symbol role-mark layer_0_layer_0_marks"><path transform="translate(73.38541666666666,145.3125)" d="M0.5,0A0.5,0.5,0,1,1,-0.5,0A0.5,0.5,0,1,1,0.5,0" style="fill: #000000; stroke-width: 2; opacity: 0;"></path><path transform="translate(178.22172519067922,145.3125)" d="M0.5,0A0.5,0.5,0,1,1,-0.5,0A0.5,0.5,0,1,1,0.5,0" style="fill: #000000; stroke-width: 2; opacity: 0;"></path><path transform="translate(283.0580337146918,145.3125)" d="M0.5,0A0.5,0.5,0,1,1,-0.5,0A0.5,0.5,0,1,1,0.5,0" style="fill: #000000; stroke-width: 2; opacity: 0;"></path><path transform="translate(387.89434923728305,145.3125)" d="M0.5,0A0.5,0.5,0,1,1,-0.5,0A0.5,0.5,0,1,1,0.5,0" style="fill: #000000; stroke-width: 2; opacity: 0;"></path><path transform="translate(492.7306507627169,145.3125)" d="M0.5,0A0.5,0.5,0,1,1,-0.5,0A0.5,0.5,0,1,1,0.5,0" style="fill: #000000; stroke-width: 2; opacity: 0;"></path><path transform="translate(597.5669802824656,145.3125)" d="M0.5,0A0.5,0.5,0,1,1,-0.5,0A0.5,0.5,0,1,1,0.5,0" style="fill: #000000; stroke-width: 2; opacity: 0;"></path><path transform="translate(702.4032818078995,145.3125)" d="M0.5,0A0.5,0.5,0,1,1,-0.5,0A0.5,0.5,0,1,1,0.5,0" style="fill: #000000; stroke-width: 2; opacity: 0;"></path><path transform="translate(807.2395833333333,145.3125)" d="M0.5,0A0.5,0.5,0,1,1,-0.5,0A0.5,0.5,0,1,1,0.5,0" style="fill: #000000; stroke-width: 2; opacity: 0;"></path><path transform="translate(129.41510698695978,263.1034214794636)" d="M0.5,0A0.5,0.5,0,1,1,-0.5,0A0.5,0.5,0,1,1,0.5,0" style="fill: #000000; stroke-width: 2; opacity: 0;"></path><path transform="translate(233.0347405970097,327.19616800546646)" d="M0.5,0A0.5,0.5,0,1,1,-0.5,0A0.5,0.5,0,1,1,0.5,0" style="fill: #000000; stroke-width: 2; opacity: 0;"></path><path transform="translate(333.94614120324457,401.07328712940216)" d="M0.5,0A0.5,0.5,0,1,1,-0.5,0A0.5,0.5,0,1,1,0.5,0" style="fill: #000000; stroke-width: 2; opacity: 0;"></path><path transform="translate(440.3125,375.39062038064003)" d="M0.5,0A0.5,0.5,0,1,1,-0.5,0A0.5,0.5,0,1,1,0.5,0" style="fill: #000000; stroke-width: 2; opacity: 0;"></path><path transform="translate(546.6788587967555,401.07328712940216)" d="M0.5,0A0.5,0.5,0,1,1,-0.5,0A0.5,0.5,0,1,1,0.5,0" style="fill: #000000; stroke-width: 2; opacity: 0;"></path><path transform="translate(647.590245405833,327.19616800546646)" d="M0.5,0A0.5,0.5,0,1,1,-0.5,0A0.5,0.5,0,1,1,0.5,0" style="fill: #000000; stroke-width: 2; opacity: 0;"></path><path transform="translate(751.2099140087763,263.1034214794636)" d="M0.5,0A0.5,0.5,0,1,1,-0.5,0A0.5,0.5,0,1,1,0.5,0" style="fill: #000000; stroke-width: 2; opacity: 0;"></path></g><g class="mark-line role-mark layer_0_layer_1_marks"><path d="M73.38541666666666,145.3125L178.22172519067922,145.3125" style="fill: none; stroke: #000000; stroke-width: 2; opacity: 0.1;"></path></g><g class="mark-line role-mark layer_0_layer_2_marks"><path d="M73.38541666666666,145.3125L129.41510698695978,263.1034214794636" style="fill: none; stroke: #000000; stroke-width: 2; opacity: 0.1;"></path></g><g class="mark-line role-mark layer_0_layer_3_marks"><path d="M178.22172519067922,145.3125L283.0580337146918,145.3125" style="fill: none; stroke: #000000; stroke-width: 2; opacity: 0.1;"></path></g><g class="mark-line role-mark layer_0_layer_4_marks"><path d="M129.41510698695978,263.1034214794636L178.22172519067922,145.3125" style="fill: none; stroke: #000000; stroke-width: 2; opacity: 0.1;"></path></g><g class="mark-line role-mark layer_0_layer_5_marks"><path d="M178.22172519067922,145.3125L233.0347405970097,327.19616800546646" style="fill: none; stroke: #000000; stroke-width: 2; opacity: 0.1;"></path></g><g class="mark-line role-mark layer_0_layer_6_marks"><path d="M283.0580337146918,145.3125L387.89434923728305,145.3125" style="fill: none; stroke: #000000; stroke-width: 2; opacity: 0.1;"></path></g><g class="mark-line role-mark layer_0_layer_7_marks"><path d="M233.0347405970097,327.19616800546646L283.0580337146918,145.3125" style="fill: none; stroke: #000000; stroke-width: 2; opacity: 0.1;"></path></g><g class="mark-line role-mark layer_0_layer_8_marks"><path d="M283.0580337146918,145.3125L333.94614120324457,401.07328712940216" style="fill: none; stroke: #000000; stroke-width: 2; opacity: 0.1;"></path></g><g class="mark-line role-mark layer_0_layer_9_marks"><path d="M387.89434923728305,145.3125L492.7306507627169,145.3125" style="fill: none; stroke: #000000; stroke-width: 2; opacity: 0.1;"></path></g><g class="mark-line role-mark layer_0_layer_10_marks"><path d="M333.94614120324457,401.07328712940216L387.89434923728305,145.3125" style="fill: none; stroke: #000000; stroke-width: 2; opacity: 0.1;"></path></g><g class="mark-line role-mark layer_0_layer_11_marks"><path d="M387.89434923728305,145.3125L440.3125,375.39062038064003" style="fill: none; stroke: #000000; stroke-width: 2; opacity: 0.1;"></path></g><g class="mark-line role-mark layer_0_layer_12_marks"><path d="M492.7306507627169,145.3125L597.5669802824656,145.3125" style="fill: none; stroke: #000000; stroke-width: 2; opacity: 0.1;"></path></g><g class="mark-line role-mark layer_0_layer_13_marks"><path d="M440.3125,375.39062038064003L492.7306507627169,145.3125" style="fill: none; stroke: #000000; stroke-width: 2; opacity: 0.1;"></path></g><g class="mark-line role-mark layer_0_layer_14_marks"><path d="M492.7306507627169,145.3125L546.6788587967555,401.07328712940216" style="fill: none; stroke: #000000; stroke-width: 2; opacity: 0.1;"></path></g><g class="mark-line role-mark layer_0_layer_15_marks"><path d="M597.5669802824656,145.3125L702.4032818078995,145.3125" style="fill: none; stroke: #000000; stroke-width: 2; opacity: 0.1;"></path></g><g class="mark-line role-mark layer_0_layer_16_marks"><path d="M546.6788587967555,401.07328712940216L597.5669802824656,145.3125" style="fill: none; stroke: #000000; stroke-width: 2; opacity: 0.1;"></path></g><g class="mark-line role-mark layer_0_layer_17_marks"><path d="M597.5669802824656,145.3125L647.590245405833,327.19616800546646" style="fill: none; stroke: #000000; stroke-width: 2; opacity: 0.1;"></path></g><g class="mark-line role-mark layer_0_layer_18_marks"><path d="M702.4032818078995,145.3125L807.2395833333333,145.3125" style="fill: none; stroke: #000000; stroke-width: 2; opacity: 0.1;"></path></g><g class="mark-line role-mark layer_0_layer_19_marks"><path d="M647.590245405833,327.19616800546646L702.4032818078995,145.3125" style="fill: none; stroke: #000000; stroke-width: 2; opacity: 0.1;"></path></g><g class="mark-line role-mark layer_0_layer_20_marks"><path d="M702.4032818078995,145.3125L751.2099140087763,263.1034214794636" style="fill: none; stroke: #000000; stroke-width: 2; opacity: 0.1;"></path></g><g class="mark-line role-mark layer_0_layer_21_marks"><path d="M751.2099140087763,263.1034214794636L807.2395833333333,145.3125" style="fill: none; stroke: #000000; stroke-width: 2; opacity: 0.1;"></path></g><g class="mark-line role-mark layer_0_layer_22_marks"><path d="M129.41510698695978,263.1034214794636L233.0347405970097,327.19616800546646" style="fill: none; stroke: #000000; stroke-width: 2; opacity: 0.1;"></path></g><g class="mark-line role-mark layer_0_layer_23_marks"><path d="M233.0347405970097,327.19616800546646L333.94614120324457,401.07328712940216" style="fill: none; stroke: #000000; stroke-width: 2; opacity: 0.1;"></path></g><g class="mark-line role-mark layer_0_layer_24_marks"><path d="M333.94614120324457,401.07328712940216L440.3125,375.39062038064003" style="fill: none; stroke: #000000; stroke-width: 2; opacity: 0.1;"></path></g><g class="mark-line role-mark layer_0_layer_25_marks"><path d="M440.3125,375.39062038064003L546.6788587967555,401.07328712940216" style="fill: none; stroke: #000000; stroke-width: 2; opacity: 0.1;"></path></g><g class="mark-line role-mark layer_0_layer_26_marks"><path d="M546.6788587967555,401.07328712940216L647.590245405833,327.19616800546646" style="fill: none; stroke: #000000; stroke-width: 2; opacity: 0.1;"></path></g><g class="mark-line role-mark layer_0_layer_27_marks"><path d="M647.590245405833,327.19616800546646L751.2099140087763,263.1034214794636" style="fill: none; stroke: #000000; stroke-width: 2; opacity: 0.1;"></path></g><g class="mark-symbol role-mark layer_1_layer_0_marks"><path transform="translate(73.38541666666666,145.3125)" d="M0.5,0A0.5,0.5,0,1,1,-0.5,0A0.5,0.5,0,1,1,0.5,0" style="fill: #000000; stroke-width: 2; opacity: 0;"></path><path transform="translate(178.22172519067922,145.3125)" d="M0.5,0A0.5,0.5,0,1,1,-0.5,0A0.5,0.5,0,1,1,0.5,0" style="fill: #000000; stroke-width: 2; opacity: 0;"></path><path transform="translate(283.0580337146918,145.3125)" d="M0.5,0A0.5,0.5,0,1,1,-0.5,0A0.5,0.5,0,1,1,0.5,0" style="fill: #000000; stroke-width: 2; opacity: 0;"></path><path transform="translate(387.89434923728305,145.3125)" d="M0.5,0A0.5,0.5,0,1,1,-0.5,0A0.5,0.5,0,1,1,0.5,0" style="fill: #000000; stroke-width: 2; opacity: 0;"></path><path transform="translate(492.7306507627169,145.3125)" d="M0.5,0A0.5,0.5,0,1,1,-0.5,0A0.5,0.5,0,1,1,0.5,0" style="fill: #000000; stroke-width: 2; opacity: 0;"></path><path transform="translate(597.5669802824656,145.3125)" d="M0.5,0A0.5,0.5,0,1,1,-0.5,0A0.5,0.5,0,1,1,0.5,0" style="fill: #000000; stroke-width: 2; opacity: 0;"></path><path transform="translate(702.4032818078995,145.3125)" d="M0.5,0A0.5,0.5,0,1,1,-0.5,0A0.5,0.5,0,1,1,0.5,0" style="fill: #000000; stroke-width: 2; opacity: 0;"></path><path transform="translate(807.2395833333333,145.3125)" d="M0.5,0A0.5,0.5,0,1,1,-0.5,0A0.5,0.5,0,1,1,0.5,0" style="fill: #000000; stroke-width: 2; opacity: 0;"></path><path transform="translate(124.40606673806906,254.55054715275764)" d="M0.5,0A0.5,0.5,0,1,1,-0.5,0A0.5,0.5,0,1,1,0.5,0" style="fill: #000000; stroke-width: 2; opacity: 0;"></path><path transform="translate(213.0654860138893,326.95290327072144)" d="M0.5,0A0.5,0.5,0,1,1,-0.5,0A0.5,0.5,0,1,1,0.5,0" style="fill: #000000; stroke-width: 2; opacity: 0;"></path><path transform="translate(326.95887219905853,359.7077777981758)" d="M0.5,0A0.5,0.5,0,1,1,-0.5,0A0.5,0.5,0,1,1,0.5,0" style="fill: #000000; stroke-width: 2; opacity: 0;"></path><path transform="translate(440.3125,351.17187961935997)" d="M0.5,0A0.5,0.5,0,1,1,-0.5,0A0.5,0.5,0,1,1,0.5,0" style="fill: #000000; stroke-width: 2; opacity: 0;"></path><path transform="translate(553.6661278009415,359.7077777981758)" d="M0.5,0A0.5,0.5,0,1,1,-0.5,0A0.5,0.5,0,1,1,0.5,0" style="fill: #000000; stroke-width: 2; opacity: 0;"></path><path transform="translate(667.5595419804255,326.95290327072144)" d="M0.5,0A0.5,0.5,0,1,1,-0.5,0A0.5,0.5,0,1,1,0.5,0" style="fill: #000000; stroke-width: 2; opacity: 0;"></path><path transform="translate(756.2189367612203,254.5505540817976)" d="M0.5,0A0.5,0.5,0,1,1,-0.5,0A0.5,0.5,0,1,1,0.5,0" style="fill: #000000; stroke-width: 2; opacity: 0;"></path></g><g class="mark-line role-mark layer_1_layer_1_marks"><path d="M73.38541666666666,145.3125L178.22172519067922,145.3125" style="fill: none; stroke: #000000; stroke-width: 2; opacity: 0.225;"></path></g><g class="mark-line role-mark layer_1_layer_2_marks"><path d="M73.38541666666666,145.3125L124.40606673806906,254.55054715275764" style="fill: none; stroke: #000000; stroke-width: 2; opacity: 0.225;"></path></g><g class="mark-line role-mark layer_1_layer_3_marks"><path d="M178.22172519067922,145.3125L283.0580337146918,145.3125" style="fill: none; stroke: #000000; stroke-width: 2; opacity: 0.225;"></path></g><g class="mark-line role-mark layer_1_layer_4_marks"><path d="M124.40606673806906,254.55054715275764L178.22172519067922,145.3125" style="fill: none; stroke: #000000; stroke-width: 2; opacity: 0.225;"></path></g><g class="mark-line role-mark layer_1_layer_5_marks"><path d="M178.22172519067922,145.3125L213.0654860138893,326.95290327072144" style="fill: none; stroke: #000000; stroke-width: 2; opacity: 0.225;"></path></g><g class="mark-line role-mark layer_1_layer_6_marks"><path d="M283.0580337146918,145.3125L387.89434923728305,145.3125" style="fill: none; stroke: #000000; stroke-width: 2; opacity: 0.225;"></path></g><g class="mark-line role-mark layer_1_layer_7_marks"><path d="M213.0654860138893,326.95290327072144L283.0580337146918,145.3125" style="fill: none; stroke: #000000; stroke-width: 2; opacity: 0.225;"></path></g><g class="mark-line role-mark layer_1_layer_8_marks"><path d="M283.0580337146918,145.3125L326.95887219905853,359.7077777981758" style="fill: none; stroke: #000000; stroke-width: 2; opacity: 0.225;"></path></g><g class="mark-line role-mark layer_1_layer_9_marks"><path d="M387.89434923728305,145.3125L492.7306507627169,145.3125" style="fill: none; stroke: #000000; stroke-width: 2; opacity: 0.225;"></path></g><g class="mark-line role-mark layer_1_layer_10_marks"><path d="M326.95887219905853,359.7077777981758L387.89434923728305,145.3125" style="fill: none; stroke: #000000; stroke-width: 2; opacity: 0.225;"></path></g><g class="mark-line role-mark layer_1_layer_11_marks"><path d="M387.89434923728305,145.3125L440.3125,351.17187961935997" style="fill: none; stroke: #000000; stroke-width: 2; opacity: 0.225;"></path></g><g class="mark-line role-mark layer_1_layer_12_marks"><path d="M492.7306507627169,145.3125L597.5669802824656,145.3125" style="fill: none; stroke: #000000; stroke-width: 2; opacity: 0.225;"></path></g><g class="mark-line role-mark layer_1_layer_13_marks"><path d="M440.3125,351.17187961935997L492.7306507627169,145.3125" style="fill: none; stroke: #000000; stroke-width: 2; opacity: 0.225;"></path></g><g class="mark-line role-mark layer_1_layer_14_marks"><path d="M492.7306507627169,145.3125L553.6661278009415,359.7077777981758" style="fill: none; stroke: #000000; stroke-width: 2; opacity: 0.225;"></path></g><g class="mark-line role-mark layer_1_layer_15_marks"><path d="M597.5669802824656,145.3125L702.4032818078995,145.3125" style="fill: none; stroke: #000000; stroke-width: 2; opacity: 0.225;"></path></g><g class="mark-line role-mark layer_1_layer_16_marks"><path d="M553.6661278009415,359.7077777981758L597.5669802824656,145.3125" style="fill: none; stroke: #000000; stroke-width: 2; opacity: 0.225;"></path></g><g class="mark-line role-mark layer_1_layer_17_marks"><path d="M597.5669802824656,145.3125L667.5595419804255,326.95290327072144" style="fill: none; stroke: #000000; stroke-width: 2; opacity: 0.225;"></path></g><g class="mark-line role-mark layer_1_layer_18_marks"><path d="M702.4032818078995,145.3125L807.2395833333333,145.3125" style="fill: none; stroke: #000000; stroke-width: 2; opacity: 0.225;"></path></g><g class="mark-line role-mark layer_1_layer_19_marks"><path d="M667.5595419804255,326.95290327072144L702.4032818078995,145.3125" style="fill: none; stroke: #000000; stroke-width: 2; opacity: 0.225;"></path></g><g class="mark-line role-mark layer_1_layer_20_marks"><path d="M702.4032818078995,145.3125L756.2189367612203,254.5505540817976" style="fill: none; stroke: #000000; stroke-width: 2; opacity: 0.225;"></path></g><g class="mark-line role-mark layer_1_layer_21_marks"><path d="M756.2189367612203,254.5505540817976L807.2395833333333,145.3125" style="fill: none; stroke: #000000; stroke-width: 2; opacity: 0.225;"></path></g><g class="mark-line role-mark layer_1_layer_22_marks"><path d="M124.40606673806906,254.55054715275764L213.0654860138893,326.95290327072144" style="fill: none; stroke: #000000; stroke-width: 2; opacity: 0.225;"></path></g><g class="mark-line role-mark layer_1_layer_23_marks"><path d="M213.0654860138893,326.95290327072144L326.95887219905853,359.7077777981758" style="fill: none; stroke: #000000; stroke-width: 2; opacity: 0.225;"></path></g><g class="mark-line role-mark layer_1_layer_24_marks"><path d="M326.95887219905853,359.7077777981758L440.3125,351.17187961935997" style="fill: none; stroke: #000000; stroke-width: 2; opacity: 0.225;"></path></g><g class="mark-line role-mark layer_1_layer_25_marks"><path d="M440.3125,351.17187961935997L553.6661278009415,359.7077777981758" style="fill: none; stroke: #000000; stroke-width: 2; opacity: 0.225;"></path></g><g class="mark-line role-mark layer_1_layer_26_marks"><path d="M553.6661278009415,359.7077777981758L667.5595419804255,326.95290327072144" style="fill: none; stroke: #000000; stroke-width: 2; opacity: 0.225;"></path></g><g class="mark-line role-mark layer_1_layer_27_marks"><path d="M667.5595419804255,326.95290327072144L756.2189367612203,254.5505540817976" style="fill: none; stroke: #000000; stroke-width: 2; opacity: 0.225;"></path></g><g class="mark-symbol role-mark layer_2_layer_0_marks"><path transform="translate(73.38541666666666,145.3125)" d="M0.5,0A0.5,0.5,0,1,1,-0.5,0A0.5,0.5,0,1,1,0.5,0" style="fill: #000000; stroke-width: 2; opacity: 0;"></path><path transform="translate(178.22172519067922,145.3125)" d="M0.5,0A0.5,0.5,0,1,1,-0.5,0A0.5,0.5,0,1,1,0.5,0" style="fill: #000000; stroke-width: 2; opacity: 0;"></path><path transform="translate(283.0580337146918,145.3125)" d="M0.5,0A0.5,0.5,0,1,1,-0.5,0A0.5,0.5,0,1,1,0.5,0" style="fill: #000000; stroke-width: 2; opacity: 0;"></path><path transform="translate(387.89434923728305,145.3125)" d="M0.5,0A0.5,0.5,0,1,1,-0.5,0A0.5,0.5,0,1,1,0.5,0" style="fill: #000000; stroke-width: 2; opacity: 0;"></path><path transform="translate(492.7306507627169,145.3125)" d="M0.5,0A0.5,0.5,0,1,1,-0.5,0A0.5,0.5,0,1,1,0.5,0" style="fill: #000000; stroke-width: 2; opacity: 0;"></path><path transform="translate(597.5669802824656,145.3125)" d="M0.5,0A0.5,0.5,0,1,1,-0.5,0A0.5,0.5,0,1,1,0.5,0" style="fill: #000000; stroke-width: 2; opacity: 0;"></path><path transform="translate(702.4032818078995,145.3125)" d="M0.5,0A0.5,0.5,0,1,1,-0.5,0A0.5,0.5,0,1,1,0.5,0" style="fill: #000000; stroke-width: 2; opacity: 0;"></path><path transform="translate(807.2395833333333,145.3125)" d="M0.5,0A0.5,0.5,0,1,1,-0.5,0A0.5,0.5,0,1,1,0.5,0" style="fill: #000000; stroke-width: 2; opacity: 0;"></path><path transform="translate(122.44775943706432,251.085112541914)" d="M0.5,0A0.5,0.5,0,1,1,-0.5,0A0.5,0.5,0,1,1,0.5,0" style="fill: #000000; stroke-width: 2; opacity: 0;"></path><path transform="translate(205.04644454518953,326.7928424477577)" d="M0.5,0A0.5,0.5,0,1,1,-0.5,0A0.5,0.5,0,1,1,0.5,0" style="fill: #000000; stroke-width: 2; opacity: 0;"></path><path transform="translate(322.6781775355339,326.953125)" d="M0.5,0A0.5,0.5,0,1,1,-0.5,0A0.5,0.5,0,1,1,0.5,0" style="fill: #000000; stroke-width: 2; opacity: 0;"></path><path transform="translate(440.3125,326.953125)" d="M0.5,0A0.5,0.5,0,1,1,-0.5,0A0.5,0.5,0,1,1,0.5,0" style="fill: #000000; stroke-width: 2; opacity: 0;"></path><path transform="translate(557.9467944701513,326.953125)" d="M0.5,0A0.5,0.5,0,1,1,-0.5,0A0.5,0.5,0,1,1,0.5,0" style="fill: #000000; stroke-width: 2; opacity: 0;"></path><path transform="translate(675.5785694519678,326.7928424477577)" d="M0.5,0A0.5,0.5,0,1,1,-0.5,0A0.5,0.5,0,1,1,0.5,0" style="fill: #000000; stroke-width: 2; opacity: 0;"></path><path transform="translate(758.1772510608038,251.085112541914)" d="M0.5,0A0.5,0.5,0,1,1,-0.5,0A0.5,0.5,0,1,1,0.5,0" style="fill: #000000; stroke-width: 2; opacity: 0;"></path></g><g class="mark-line role-mark layer_2_layer_1_marks"><path d="M73.38541666666666,145.3125L178.22172519067922,145.3125" style="fill: none; stroke: #000000; stroke-width: 2; opacity: 0.35;"></path></g><g class="mark-line role-mark layer_2_layer_2_marks"><path d="M73.38541666666666,145.3125L122.44775943706432,251.085112541914" style="fill: none; stroke: #000000; stroke-width: 2; opacity: 0.35;"></path></g><g class="mark-line role-mark layer_2_layer_3_marks"><path d="M178.22172519067922,145.3125L283.0580337146918,145.3125" style="fill: none; stroke: #000000; stroke-width: 2; opacity: 0.35;"></path></g><g class="mark-line role-mark layer_2_layer_4_marks"><path d="M122.44775943706432,251.085112541914L178.22172519067922,145.3125" style="fill: none; stroke: #000000; stroke-width: 2; opacity: 0.35;"></path></g><g class="mark-line role-mark layer_2_layer_5_marks"><path d="M178.22172519067922,145.3125L205.04644454518953,326.7928424477577" style="fill: none; stroke: #000000; stroke-width: 2; opacity: 0.35;"></path></g><g class="mark-line role-mark layer_2_layer_6_marks"><path d="M283.0580337146918,145.3125L387.89434923728305,145.3125" style="fill: none; stroke: #000000; stroke-width: 2; opacity: 0.35;"></path></g><g class="mark-line role-mark layer_2_layer_7_marks"><path d="M205.04644454518953,326.7928424477577L283.0580337146918,145.3125" style="fill: none; stroke: #000000; stroke-width: 2; opacity: 0.35;"></path></g><g class="mark-line role-mark layer_2_layer_8_marks"><path d="M283.0580337146918,145.3125L322.6781775355339,326.953125" style="fill: none; stroke: #000000; stroke-width: 2; opacity: 0.35;"></path></g><g class="mark-line role-mark layer_2_layer_9_marks"><path d="M387.89434923728305,145.3125L492.7306507627169,145.3125" style="fill: none; stroke: #000000; stroke-width: 2; opacity: 0.35;"></path></g><g class="mark-line role-mark layer_2_layer_10_marks"><path d="M322.6781775355339,326.953125L387.89434923728305,145.3125" style="fill: none; stroke: #000000; stroke-width: 2; opacity: 0.35;"></path></g><g class="mark-line role-mark layer_2_layer_11_marks"><path d="M387.89434923728305,145.3125L440.3125,326.953125" style="fill: none; stroke: #000000; stroke-width: 2; opacity: 0.35;"></path></g><g class="mark-line role-mark layer_2_layer_12_marks"><path d="M492.7306507627169,145.3125L597.5669802824656,145.3125" style="fill: none; stroke: #000000; stroke-width: 2; opacity: 0.35;"></path></g><g class="mark-line role-mark layer_2_layer_13_marks"><path d="M440.3125,326.953125L492.7306507627169,145.3125" style="fill: none; stroke: #000000; stroke-width: 2; opacity: 0.35;"></path></g><g class="mark-line role-mark layer_2_layer_14_marks"><path d="M492.7306507627169,145.3125L557.9467944701513,326.953125" style="fill: none; stroke: #000000; stroke-width: 2; opacity: 0.35;"></path></g><g class="mark-line role-mark layer_2_layer_15_marks"><path d="M597.5669802824656,145.3125L702.4032818078995,145.3125" style="fill: none; stroke: #000000; stroke-width: 2; opacity: 0.35;"></path></g><g class="mark-line role-mark layer_2_layer_16_marks"><path d="M557.9467944701513,326.953125L597.5669802824656,145.3125" style="fill: none; stroke: #000000; stroke-width: 2; opacity: 0.35;"></path></g><g class="mark-line role-mark layer_2_layer_17_marks"><path d="M597.5669802824656,145.3125L675.5785694519678,326.7928424477577" style="fill: none; stroke: #000000; stroke-width: 2; opacity: 0.35;"></path></g><g class="mark-line role-mark layer_2_layer_18_marks"><path d="M702.4032818078995,145.3125L807.2395833333333,145.3125" style="fill: none; stroke: #000000; stroke-width: 2; opacity: 0.35;"></path></g><g class="mark-line role-mark layer_2_layer_19_marks"><path d="M675.5785694519678,326.7928424477577L702.4032818078995,145.3125" style="fill: none; stroke: #000000; stroke-width: 2; opacity: 0.35;"></path></g><g class="mark-line role-mark layer_2_layer_20_marks"><path d="M702.4032818078995,145.3125L758.1772510608038,251.085112541914" style="fill: none; stroke: #000000; stroke-width: 2; opacity: 0.35;"></path></g><g class="mark-line role-mark layer_2_layer_21_marks"><path d="M758.1772510608038,251.085112541914L807.2395833333333,145.3125" style="fill: none; stroke: #000000; stroke-width: 2; opacity: 0.35;"></path></g><g class="mark-line role-mark layer_2_layer_22_marks"><path d="M122.44775943706432,251.085112541914L205.04644454518953,326.7928424477577" style="fill: none; stroke: #000000; stroke-width: 2; opacity: 0.35;"></path></g><g class="mark-line role-mark layer_2_layer_23_marks"><path d="M205.04644454518953,326.7928424477577L322.6781775355339,326.953125" style="fill: none; stroke: #000000; stroke-width: 2; opacity: 0.35;"></path></g><g class="mark-line role-mark layer_2_layer_24_marks"><path d="M322.6781775355339,326.953125L440.3125,326.953125" style="fill: none; stroke: #000000; stroke-width: 2; opacity: 0.35;"></path></g><g class="mark-line role-mark layer_2_layer_25_marks"><path d="M440.3125,326.953125L557.9467944701513,326.953125" style="fill: none; stroke: #000000; stroke-width: 2; opacity: 0.35;"></path></g><g class="mark-line role-mark layer_2_layer_26_marks"><path d="M557.9467944701513,326.953125L675.5785694519678,326.7928424477577" style="fill: none; stroke: #000000; stroke-width: 2; opacity: 0.35;"></path></g><g class="mark-line role-mark layer_2_layer_27_marks"><path d="M675.5785694519678,326.7928424477577L758.1772510608038,251.085112541914" style="fill: none; stroke: #000000; stroke-width: 2; opacity: 0.35;"></path></g><g class="mark-symbol role-mark layer_3_layer_0_marks"><path transform="translate(73.38541666666666,145.3125)" d="M0.5,0A0.5,0.5,0,1,1,-0.5,0A0.5,0.5,0,1,1,0.5,0" style="fill: #000000; stroke-width: 2; opacity: 0;"></path><path transform="translate(178.22172519067922,145.3125)" d="M0.5,0A0.5,0.5,0,1,1,-0.5,0A0.5,0.5,0,1,1,0.5,0" style="fill: #000000; stroke-width: 2; opacity: 0;"></path><path transform="translate(283.0580337146918,145.3125)" d="M0.5,0A0.5,0.5,0,1,1,-0.5,0A0.5,0.5,0,1,1,0.5,0" style="fill: #000000; stroke-width: 2; opacity: 0;"></path><path transform="translate(387.89434923728305,145.3125)" d="M0.5,0A0.5,0.5,0,1,1,-0.5,0A0.5,0.5,0,1,1,0.5,0" style="fill: #000000; stroke-width: 2; opacity: 0;"></path><path transform="translate(492.7306507627169,145.3125)" d="M0.5,0A0.5,0.5,0,1,1,-0.5,0A0.5,0.5,0,1,1,0.5,0" style="fill: #000000; stroke-width: 2; opacity: 0;"></path><path transform="translate(597.5669802824656,145.3125)" d="M0.5,0A0.5,0.5,0,1,1,-0.5,0A0.5,0.5,0,1,1,0.5,0" style="fill: #000000; stroke-width: 2; opacity: 0;"></path><path transform="translate(702.4032818078995,145.3125)" d="M0.5,0A0.5,0.5,0,1,1,-0.5,0A0.5,0.5,0,1,1,0.5,0" style="fill: #000000; stroke-width: 2; opacity: 0;"></path><path transform="translate(807.2395833333333,145.3125)" d="M0.5,0A0.5,0.5,0,1,1,-0.5,0A0.5,0.5,0,1,1,0.5,0" style="fill: #000000; stroke-width: 2; opacity: 0;"></path><path transform="translate(124.40606673806906,254.55054715275764)" d="M0.5,0A0.5,0.5,0,1,1,-0.5,0A0.5,0.5,0,1,1,0.5,0" style="fill: #000000; stroke-width: 2; opacity: 0;"></path><path transform="translate(213.0654860138893,326.95290327072144)" d="M0.5,0A0.5,0.5,0,1,1,-0.5,0A0.5,0.5,0,1,1,0.5,0" style="fill: #000000; stroke-width: 2; opacity: 0;"></path><path transform="translate(326.95887219905853,294.1984722018242)" d="M0.5,0A0.5,0.5,0,1,1,-0.5,0A0.5,0.5,0,1,1,0.5,0" style="fill: #000000; stroke-width: 2; opacity: 0;"></path><path transform="translate(440.3125,302.73437038064003)" d="M0.5,0A0.5,0.5,0,1,1,-0.5,0A0.5,0.5,0,1,1,0.5,0" style="fill: #000000; stroke-width: 2; opacity: 0;"></path><path transform="translate(553.6661278009415,294.1984722018242)" d="M0.5,0A0.5,0.5,0,1,1,-0.5,0A0.5,0.5,0,1,1,0.5,0" style="fill: #000000; stroke-width: 2; opacity: 0;"></path><path transform="translate(667.5595419804255,326.95290327072144)" d="M0.5,0A0.5,0.5,0,1,1,-0.5,0A0.5,0.5,0,1,1,0.5,0" style="fill: #000000; stroke-width: 2; opacity: 0;"></path><path transform="translate(756.2189367612203,254.5505540817976)" d="M0.5,0A0.5,0.5,0,1,1,-0.5,0A0.5,0.5,0,1,1,0.5,0" style="fill: #000000; stroke-width: 2; opacity: 0;"></path></g><g class="mark-line role-mark layer_3_layer_1_marks"><path d="M73.38541666666666,145.3125L178.22172519067922,145.3125" style="fill: none; stroke: #000000; stroke-width: 2; opacity: 0.475;"></path></g><g class="mark-line role-mark layer_3_layer_2_marks"><path d="M73.38541666666666,145.3125L124.40606673806906,254.55054715275764" style="fill: none; stroke: #000000; stroke-width: 2; opacity: 0.475;"></path></g><g class="mark-line role-mark layer_3_layer_3_marks"><path d="M178.22172519067922,145.3125L283.0580337146918,145.3125" style="fill: none; stroke: #000000; stroke-width: 2; opacity: 0.475;"></path></g><g class="mark-line role-mark layer_3_layer_4_marks"><path d="M124.40606673806906,254.55054715275764L178.22172519067922,145.3125" style="fill: none; stroke: #000000; stroke-width: 2; opacity: 0.475;"></path></g><g class="mark-line role-mark layer_3_layer_5_marks"><path d="M178.22172519067922,145.3125L213.0654860138893,326.95290327072144" style="fill: none; stroke: #000000; stroke-width: 2; opacity: 0.475;"></path></g><g class="mark-line role-mark layer_3_layer_6_marks"><path d="M283.0580337146918,145.3125L387.89434923728305,145.3125" style="fill: none; stroke: #000000; stroke-width: 2; opacity: 0.475;"></path></g><g class="mark-line role-mark layer_3_layer_7_marks"><path d="M213.0654860138893,326.95290327072144L283.0580337146918,145.3125" style="fill: none; stroke: #000000; stroke-width: 2; opacity: 0.475;"></path></g><g class="mark-line role-mark layer_3_layer_8_marks"><path d="M283.0580337146918,145.3125L326.95887219905853,294.1984722018242" style="fill: none; stroke: #000000; stroke-width: 2; opacity: 0.475;"></path></g><g class="mark-line role-mark layer_3_layer_9_marks"><path d="M387.89434923728305,145.3125L492.7306507627169,145.3125" style="fill: none; stroke: #000000; stroke-width: 2; opacity: 0.475;"></path></g><g class="mark-line role-mark layer_3_layer_10_marks"><path d="M326.95887219905853,294.1984722018242L387.89434923728305,145.3125" style="fill: none; stroke: #000000; stroke-width: 2; opacity: 0.475;"></path></g><g class="mark-line role-mark layer_3_layer_11_marks"><path d="M387.89434923728305,145.3125L440.3125,302.73437038064003" style="fill: none; stroke: #000000; stroke-width: 2; opacity: 0.475;"></path></g><g class="mark-line role-mark layer_3_layer_12_marks"><path d="M492.7306507627169,145.3125L597.5669802824656,145.3125" style="fill: none; stroke: #000000; stroke-width: 2; opacity: 0.475;"></path></g><g class="mark-line role-mark layer_3_layer_13_marks"><path d="M440.3125,302.73437038064003L492.7306507627169,145.3125" style="fill: none; stroke: #000000; stroke-width: 2; opacity: 0.475;"></path></g><g class="mark-line role-mark layer_3_layer_14_marks"><path d="M492.7306507627169,145.3125L553.6661278009415,294.1984722018242" style="fill: none; stroke: #000000; stroke-width: 2; opacity: 0.475;"></path></g><g class="mark-line role-mark layer_3_layer_15_marks"><path d="M597.5669802824656,145.3125L702.4032818078995,145.3125" style="fill: none; stroke: #000000; stroke-width: 2; opacity: 0.475;"></path></g><g class="mark-line role-mark layer_3_layer_16_marks"><path d="M553.6661278009415,294.1984722018242L597.5669802824656,145.3125" style="fill: none; stroke: #000000; stroke-width: 2; opacity: 0.475;"></path></g><g class="mark-line role-mark layer_3_layer_17_marks"><path d="M597.5669802824656,145.3125L667.5595419804255,326.95290327072144" style="fill: none; stroke: #000000; stroke-width: 2; opacity: 0.475;"></path></g><g class="mark-line role-mark layer_3_layer_18_marks"><path d="M702.4032818078995,145.3125L807.2395833333333,145.3125" style="fill: none; stroke: #000000; stroke-width: 2; opacity: 0.475;"></path></g><g class="mark-line role-mark layer_3_layer_19_marks"><path d="M667.5595419804255,326.95290327072144L702.4032818078995,145.3125" style="fill: none; stroke: #000000; stroke-width: 2; opacity: 0.475;"></path></g><g class="mark-line role-mark layer_3_layer_20_marks"><path d="M702.4032818078995,145.3125L756.2189367612203,254.5505540817976" style="fill: none; stroke: #000000; stroke-width: 2; opacity: 0.475;"></path></g><g class="mark-line role-mark layer_3_layer_21_marks"><path d="M756.2189367612203,254.5505540817976L807.2395833333333,145.3125" style="fill: none; stroke: #000000; stroke-width: 2; opacity: 0.475;"></path></g><g class="mark-line role-mark layer_3_layer_22_marks"><path d="M124.40606673806906,254.55054715275764L213.0654860138893,326.95290327072144" style="fill: none; stroke: #000000; stroke-width: 2; opacity: 0.475;"></path></g><g class="mark-line role-mark layer_3_layer_23_marks"><path d="M213.0654860138893,326.95290327072144L326.95887219905853,294.1984722018242" style="fill: none; stroke: #000000; stroke-width: 2; opacity: 0.475;"></path></g><g class="mark-line role-mark layer_3_layer_24_marks"><path d="M326.95887219905853,294.1984722018242L440.3125,302.73437038064003" style="fill: none; stroke: #000000; stroke-width: 2; opacity: 0.475;"></path></g><g class="mark-line role-mark layer_3_layer_25_marks"><path d="M440.3125,302.73437038064003L553.6661278009415,294.1984722018242" style="fill: none; stroke: #000000; stroke-width: 2; opacity: 0.475;"></path></g><g class="mark-line role-mark layer_3_layer_26_marks"><path d="M553.6661278009415,294.1984722018242L667.5595419804255,326.95290327072144" style="fill: none; stroke: #000000; stroke-width: 2; opacity: 0.475;"></path></g><g class="mark-line role-mark layer_3_layer_27_marks"><path d="M667.5595419804255,326.95290327072144L756.2189367612203,254.5505540817976" style="fill: none; stroke: #000000; stroke-width: 2; opacity: 0.475;"></path></g><g class="mark-symbol role-mark layer_4_layer_0_marks"><path transform="translate(73.38541666666666,145.3125)" d="M0.5,0A0.5,0.5,0,1,1,-0.5,0A0.5,0.5,0,1,1,0.5,0" style="fill: #000000; stroke-width: 2; opacity: 0;"></path><path transform="translate(178.22172519067922,145.3125)" d="M0.5,0A0.5,0.5,0,1,1,-0.5,0A0.5,0.5,0,1,1,0.5,0" style="fill: #000000; stroke-width: 2; opacity: 0;"></path><path transform="translate(283.0580337146918,145.3125)" d="M0.5,0A0.5,0.5,0,1,1,-0.5,0A0.5,0.5,0,1,1,0.5,0" style="fill: #000000; stroke-width: 2; opacity: 0;"></path><path transform="translate(387.89434923728305,145.3125)" d="M0.5,0A0.5,0.5,0,1,1,-0.5,0A0.5,0.5,0,1,1,0.5,0" style="fill: #000000; stroke-width: 2; opacity: 0;"></path><path transform="translate(492.7306507627169,145.3125)" d="M0.5,0A0.5,0.5,0,1,1,-0.5,0A0.5,0.5,0,1,1,0.5,0" style="fill: #000000; stroke-width: 2; opacity: 0;"></path><path transform="translate(597.5669802824656,145.3125)" d="M0.5,0A0.5,0.5,0,1,1,-0.5,0A0.5,0.5,0,1,1,0.5,0" style="fill: #000000; stroke-width: 2; opacity: 0;"></path><path transform="translate(702.4032818078995,145.3125)" d="M0.5,0A0.5,0.5,0,1,1,-0.5,0A0.5,0.5,0,1,1,0.5,0" style="fill: #000000; stroke-width: 2; opacity: 0;"></path><path transform="translate(807.2395833333333,145.3125)" d="M0.5,0A0.5,0.5,0,1,1,-0.5,0A0.5,0.5,0,1,1,0.5,0" style="fill: #000000; stroke-width: 2; opacity: 0;"></path><path transform="translate(129.41510698695978,263.1034214794636)" d="M0.5,0A0.5,0.5,0,1,1,-0.5,0A0.5,0.5,0,1,1,0.5,0" style="fill: #000000; stroke-width: 2; opacity: 0;"></path><path transform="translate(233.0347405970097,326.71008199453354)" d="M0.5,0A0.5,0.5,0,1,1,-0.5,0A0.5,0.5,0,1,1,0.5,0" style="fill: #000000; stroke-width: 2; opacity: 0;"></path><path transform="translate(333.94614120324457,252.83296287059784)" d="M0.5,0A0.5,0.5,0,1,1,-0.5,0A0.5,0.5,0,1,1,0.5,0" style="fill: #000000; stroke-width: 2; opacity: 0;"></path><path transform="translate(440.3125,278.51562961935997)" d="M0.5,0A0.5,0.5,0,1,1,-0.5,0A0.5,0.5,0,1,1,0.5,0" style="fill: #000000; stroke-width: 2; opacity: 0;"></path><path transform="translate(546.6788587967555,252.83296287059784)" d="M0.5,0A0.5,0.5,0,1,1,-0.5,0A0.5,0.5,0,1,1,0.5,0" style="fill: #000000; stroke-width: 2; opacity: 0;"></path><path transform="translate(647.590245405833,326.71008199453354)" d="M0.5,0A0.5,0.5,0,1,1,-0.5,0A0.5,0.5,0,1,1,0.5,0" style="fill: #000000; stroke-width: 2; opacity: 0;"></path><path transform="translate(751.2099140087763,263.1034214794636)" d="M0.5,0A0.5,0.5,0,1,1,-0.5,0A0.5,0.5,0,1,1,0.5,0" style="fill: #000000; stroke-width: 2; opacity: 0;"></path></g><g class="mark-line role-mark layer_4_layer_1_marks"><path d="M73.38541666666666,145.3125L178.22172519067922,145.3125" style="fill: none; stroke: #000000; stroke-width: 2; opacity: 1;"></path></g><g class="mark-line role-mark layer_4_layer_2_marks"><path d="M73.38541666666666,145.3125L129.41510698695978,263.1034214794636" style="fill: none; stroke: #000000; stroke-width: 2; opacity: 1;"></path></g><g class="mark-line role-mark layer_4_layer_3_marks"><path d="M178.22172519067922,145.3125L283.0580337146918,145.3125" style="fill: none; stroke: #000000; stroke-width: 2; opacity: 1;"></path></g><g class="mark-line role-mark layer_4_layer_4_marks"><path d="M129.41510698695978,263.1034214794636L178.22172519067922,145.3125" style="fill: none; stroke: #000000; stroke-width: 2; opacity: 1;"></path></g><g class="mark-line role-mark layer_4_layer_5_marks"><path d="M178.22172519067922,145.3125L233.0347405970097,326.71008199453354" style="fill: none; stroke: #000000; stroke-width: 2; opacity: 1;"></path></g><g class="mark-line role-mark layer_4_layer_6_marks"><path d="M283.0580337146918,145.3125L387.89434923728305,145.3125" style="fill: none; stroke: #000000; stroke-width: 2; opacity: 1;"></path></g><g class="mark-line role-mark layer_4_layer_7_marks"><path d="M233.0347405970097,326.71008199453354L283.0580337146918,145.3125" style="fill: none; stroke: #000000; stroke-width: 2; opacity: 1;"></path></g><g class="mark-line role-mark layer_4_layer_8_marks"><path d="M283.0580337146918,145.3125L333.94614120324457,252.83296287059784" style="fill: none; stroke: #000000; stroke-width: 2; opacity: 1;"></path></g><g class="mark-line role-mark layer_4_layer_9_marks"><path d="M387.89434923728305,145.3125L492.7306507627169,145.3125" style="fill: none; stroke: #000000; stroke-width: 2; opacity: 1;"></path></g><g class="mark-line role-mark layer_4_layer_10_marks"><path d="M333.94614120324457,252.83296287059784L387.89434923728305,145.3125" style="fill: none; stroke: #000000; stroke-width: 2; opacity: 1;"></path></g><g class="mark-line role-mark layer_4_layer_11_marks"><path d="M387.89434923728305,145.3125L440.3125,278.51562961935997" style="fill: none; stroke: #000000; stroke-width: 2; opacity: 1;"></path></g><g class="mark-line role-mark layer_4_layer_12_marks"><path d="M492.7306507627169,145.3125L597.5669802824656,145.3125" style="fill: none; stroke: #000000; stroke-width: 2; opacity: 1;"></path></g><g class="mark-line role-mark layer_4_layer_13_marks"><path d="M440.3125,278.51562961935997L492.7306507627169,145.3125" style="fill: none; stroke: #000000; stroke-width: 2; opacity: 1;"></path></g><g class="mark-line role-mark layer_4_layer_14_marks"><path d="M492.7306507627169,145.3125L546.6788587967555,252.83296287059784" style="fill: none; stroke: #000000; stroke-width: 2; opacity: 1;"></path></g><g class="mark-line role-mark layer_4_layer_15_marks"><path d="M597.5669802824656,145.3125L702.4032818078995,145.3125" style="fill: none; stroke: #000000; stroke-width: 2; opacity: 1;"></path></g><g class="mark-line role-mark layer_4_layer_16_marks"><path d="M546.6788587967555,252.83296287059784L597.5669802824656,145.3125" style="fill: none; stroke: #000000; stroke-width: 2; opacity: 1;"></path></g><g class="mark-line role-mark layer_4_layer_17_marks"><path d="M597.5669802824656,145.3125L647.590245405833,326.71008199453354" style="fill: none; stroke: #000000; stroke-width: 2; opacity: 1;"></path></g><g class="mark-line role-mark layer_4_layer_18_marks"><path d="M702.4032818078995,145.3125L807.2395833333333,145.3125" style="fill: none; stroke: #000000; stroke-width: 2; opacity: 1;"></path></g><g class="mark-line role-mark layer_4_layer_19_marks"><path d="M647.590245405833,326.71008199453354L702.4032818078995,145.3125" style="fill: none; stroke: #000000; stroke-width: 2; opacity: 1;"></path></g><g class="mark-line role-mark layer_4_layer_20_marks"><path d="M702.4032818078995,145.3125L751.2099140087763,263.1034214794636" style="fill: none; stroke: #000000; stroke-width: 2; opacity: 1;"></path></g><g class="mark-line role-mark layer_4_layer_21_marks"><path d="M751.2099140087763,263.1034214794636L807.2395833333333,145.3125" style="fill: none; stroke: #000000; stroke-width: 2; opacity: 1;"></path></g><g class="mark-line role-mark layer_4_layer_22_marks"><path d="M129.41510698695978,263.1034214794636L233.0347405970097,326.71008199453354" style="fill: none; stroke: #000000; stroke-width: 2; opacity: 1;"></path></g><g class="mark-line role-mark layer_4_layer_23_marks"><path d="M233.0347405970097,326.71008199453354L333.94614120324457,252.83296287059784" style="fill: none; stroke: #000000; stroke-width: 2; opacity: 1;"></path></g><g class="mark-line role-mark layer_4_layer_24_marks"><path d="M333.94614120324457,252.83296287059784L440.3125,278.51562961935997" style="fill: none; stroke: #000000; stroke-width: 2; opacity: 1;"></path></g><g class="mark-line role-mark layer_4_layer_25_marks"><path d="M440.3125,278.51562961935997L546.6788587967555,252.83296287059784" style="fill: none; stroke: #000000; stroke-width: 2; opacity: 1;"></path></g><g class="mark-line role-mark layer_4_layer_26_marks"><path d="M546.6788587967555,252.83296287059784L647.590245405833,326.71008199453354" style="fill: none; stroke: #000000; stroke-width: 2; opacity: 1;"></path></g><g class="mark-line role-mark layer_4_layer_27_marks"><path d="M647.590245405833,326.71008199453354L751.2099140087763,263.1034214794636" style="fill: none; stroke: #000000; stroke-width: 2; opacity: 1;"></path></g><g class="mark-group role-title"><g transform="translate(440.3125,-44)"><path class="background" d="M0,0h0v0h0Z" style="pointer-events: none; fill: none;"></path><g><g class="mark-text role-title-text" style="pointer-events: none;"><text text-anchor="middle" transform="translate(0,152)" style="font-family: Arial; font-size: 40px; font-style: italic; font-weight: normal; fill: #000; opacity: 1;">x₃</text></g></g><path class="foreground" d="" style="pointer-events: none; display: none; fill: none;"></path></g></g></g><path class="foreground" d="" style="display: none; fill: none;"></path></g></g></g></svg>