<svg class="marks" width="890.625" height="475" viewBox="0 0 890.625 475" version="1.1" xmlns="http://www.w3.org/2000/svg" xmlns:xlink="http://www.w3.org/1999/xlink"><rect width="890.625" height="475" style="fill: white;"></rect><g transform="translate(5,5)"><g class="mark-group role-frame root"><g transform="translate(0,0)"><path class="background" d="M0.5,0.5h880.625v465h-880.625Z" style="fill: none; stroke: #ddd; stroke-opacity: 0;"></path><g><g class="mark-symbol role-mark layer_0_layer_0_marks"><path transform="translate(73.38541666666666,145.3125)" d="M0.5,0A0.5,0.5,0,1,1,-0.5,0A0.5,0.5,0,1,1,0.5,0" style="fill: #000000; stroke-width: 2; opacity: 0;"></path><path transform="translate(178.22172519067922,145.3125)" d="M0.5,0A0.5,0.5,0,1,1,-0.5,0A0.5,0.5,0,1,1,0.5,0" style="fill: #000000; stroke-width: 2; opacity: 0;"></path><path transform="translate(283.0580337146918,145.3125)" d="M0.5,0A0.5,0.5,0,1,1,-0.5,0A0.5,0.5,0,1,1,0.5,0" style="fill: #000000; stroke-width: 2; opacity: 0;"></path><path transform="translate(387.89434923728305,145.3125)" d="M0.5,0A0.5,0.5,0,1,1,-0.5,0A0.5,0.5,0,1,1,0.5,0" style="fill: #000000; stroke-width: 2; opacity: 0;"></path><path transform="translate(492.7306507627169,145.3125)" d="M0.5,0A0.5,0.5,0,1,1,-0.5,0A0.5,0.5,0,1,1,0.5,0" style="fill: #000000; stroke-width: 2; opacity: 0;"></path><path transform="translate(597.5669802824656,145.3125)" d="M0.5,0A0.5,0.5,0,1,1,-0.5,0A0.5,0.5,0,1,1,0.5,0" style="fill: #000000; stroke-width: 2; opacity: 0;"></path><path transform="translate(702.4032818078995,145.3125)" d="M0.5,0A0.5,0.5,0,1,1,-0.5,0A0.5,0.5,0,1,1,0.5,0" style="fill: #000000; stroke-width: 2; opacity: 0;"></path><path transform="translate(807.2395833333333,145.3125)" d="M0.5,0A0.5,0.5,0,1,1,-0.5,0A0.5,0.5,0,1,1,0.5,0" style="fill: #000000; stroke-width: 2; opacity: 0;"></path><path transform="translate(127.28427072366078,259.5205257833004)" d="M0.5,0A0.5,0.5,0,1,1,-0.5,0A0.5,0.5,0,1,1,0.5,0" style="fill: #000000; stroke-width: 2; opacity: 0;"></path><path transform="translate(224.63846173882484,326.953125)" d="M0.5,0A0.5,0.5,0,1,1,-0.5,0A0.5,0.5,0,1,1,0.5,0" style="fill: #000000; stroke-width: 2; opacity: 0;"></path><path transform="translate(350.1533937851588,338.071504086256)" d="M0.5,0A0.5,0.5,0,1,1,-0.5,0A0.5,0.5,0,1,1,0.5,0" style="fill: #000000; stroke-width: 2; opacity: 0;"></path><path transform="translate(440.3125,423.82811576128006)" d="M0.5,0A0.5,0.5,0,1,1,-0.5,0A0.5,0.5,0,1,1,0.5,0" style="fill: #000000; stroke-width: 2; opacity: 0;"></path><path transform="translate(530.4716062148412,338.071504086256)" d="M0.5,0A0.5,0.5,0,1,1,-0.5,0A0.5,0.5,0,1,1,0.5,0" style="fill: #000000; stroke-width: 2; opacity: 0;"></path><path transform="translate(655.9865242640177,326.953125)" d="M0.5,0A0.5,0.5,0,1,1,-0.5,0A0.5,0.5,0,1,1,0.5,0" style="fill: #000000; stroke-width: 2; opacity: 0;"></path><path transform="translate(753.3407292763393,259.5205257833004)" d="M0.5,0A0.5,0.5,0,1,1,-0.5,0A0.5,0.5,0,1,1,0.5,0" style="fill: #000000; stroke-width: 2; opacity: 0;"></path></g><g class="mark-line role-mark layer_0_layer_1_marks"><path d="M73.38541666666666,145.3125L178.22172519067922,145.3125" style="fill: none; stroke: #000000; stroke-width: 2; opacity: 0.1;"></path></g><g class="mark-line role-mark layer_0_layer_2_marks"><path d="M73.38541666666666,145.3125L127.28427072366078,259.5205257833004" style="fill: none; stroke: #000000; stroke-width: 2; opacity: 0.1;"></path></g><g class="mark-line role-mark layer_0_layer_3_marks"><path d="M178.22172519067922,145.3125L283.0580337146918,145.3125" style="fill: none; stroke: #000000; stroke-width: 2; opacity: 0.1;"></path></g><g class="mark-line role-mark layer_0_layer_4_marks"><path d="M127.28427072366078,259.5205257833004L178.22172519067922,145.3125" style="fill: none; stroke: #000000; stroke-width: 2; opacity: 0.1;"></path></g><g class="mark-line role-mark layer_0_layer_5_marks"><path d="M178.22172519067922,145.3125L224.63846173882484,326.953125" style="fill: none; stroke: #000000; stroke-width: 2; opacity: 0.1;"></path></g><g class="mark-line role-mark layer_0_layer_6_marks"><path d="M283.0580337146918,145.3125L387.89434923728305,145.3125" style="fill: none; stroke: #000000; stroke-width: 2; opacity: 0.1;"></path></g><g class="mark-line role-mark layer_0_layer_7_marks"><path d="M224.63846173882484,326.953125L283.0580337146918,145.3125" style="fill: none; stroke: #000000; stroke-width: 2; opacity: 0.1;"></path></g><g class="mark-line role-mark layer_0_layer_8_marks"><path d="M283.0580337146918,145.3125L350.1533937851588,338.071504086256" style="fill: none; stroke: #000000; stroke-width: 2; opacity: 0.1;"></path></g><g class="mark-line role-mark layer_0_layer_9_marks"><path d="M387.89434923728305,145.3125L492.7306507627169,145.3125" style="fill: none; stroke: #000000; stroke-width: 2; opacity: 0.1;"></path></g><g class="mark-line role-mark layer_0_layer_10_marks"><path d="M350.1533937851588,338.071504086256L387.89434923728305,145.3125" style="fill: none; stroke: #000000; stroke-width: 2; opacity: 0.1;"></path></g><g class="mark-line role-mark layer_0_layer_11_marks"><path d="M387.89434923728305,145.3125L440.3125,423.82811576128006" style="fill: none; stroke: #000000; stroke-width: 2; opacity: 0.1;"></path></g><g class="mark-line role-mark layer_0_layer_12_marks"><path d="M492.7306507627169,145.3125L597.5669802824656,145.3125" style="fill: none; stroke: #000000; stroke-width: 2; opacity: 0.1;"></path></g><g class="mark-line role-mark layer_0_layer_13_marks"><path d="M440.3125,423.82811576128006L492.7306507627169,145.3125" style="fill: none; stroke: #000000; stroke-width: 2; opacity: 0.1;"></path></g><g class="mark-line role-mark layer_0_layer_14_marks"><path d="M492.7306507627169,145.3125L530.4716062148412,338.071504086256" style="fill: none; stroke: #000000; stroke-width: 2; opacity: 0.1;"></path></g><g class="mark-line role-mark layer_0_layer_15_marks"><path d="M597.5669802824656,145.3125L702.4032818078995,145.3125" style="fill: none; stroke: #000000; stroke-width: 2; opacity: 0.1;"></path></g><g class="mark-line role-mark layer_0_layer_16_marks"><path d="M530.4716062148412,338.071504086256L597.5669802824656,145.3125" style="fill: none; stroke: #000000; stroke-width: 2; opacity: 0.1;"></path></g><g class="mark-line role-mark layer_0_layer_17_marks"><path d="M597.5669802824656,145.3125L655.9865242640177,326.953125" style="fill: none; stroke: #000000; stroke-width: 2; opacity: 0.1;"></path></g><g class="mark-line role-mark layer_0_layer_18_marks"><path d="M702.4032818078995,145.3125L807.2395833333333,145.3125" style="fill: none; stroke: #000000; stroke-width: 2; opacity: 0.1;"></path></g><g class="mark-line role-mark layer_0_layer_19_marks"><path d="M655.9865242640177,326.953125L702.4032818078995,145.3125" style="fill: none; stroke: #000000; stroke-width: 2; opacity: 0.1;"></path></g><g class="mark-line role-mark layer_0_layer_20_marks"><path d="M702.4032818078995,145.3125L753.3407292763393,259.5205257833004" style="fill: none; stroke: #000000; stroke-width: 2; opacity: 0.1;"></path></g><g class="mark-line role-mark layer_0_layer_21_marks"><path d="M753.3407292763393,259.5205257833004L807.2395833333333,145.3125" style="fill: none; stroke: #000000; stroke-width: 2; opacity: 0.1;"></path></g><g class="mark-line role-mark layer_0_layer_22_marks"><path d="M127.28427072366078,259.5205257833004L224.63846173882484,326.953125" style="fill: none; stroke: #000000; stroke-width: 2; opacity: 0.1;"></path></g><g class="mark-line role-mark layer_0_layer_23_marks"><path d="M224.63846173882484,326.953125L350.1533937851588,338.071504086256" style="fill: none; stroke: #000000; stroke-width: 2; opacity: 0.1;"></path></g><g class="mark-line role-mark layer_0_layer_24_marks"><path d="M350.1533937851588,338.071504086256L440.3125,423.82811576128006" style="fill: none; stroke: #000000; stroke-width: 2; opacity: 0.1;"></path></g><g class="mark-line role-mark layer_0_layer_25_marks"><path d="M440.3125,423.82811576128006L530.4716062148412,338.071504086256" style="fill: none; stroke: #000000; stroke-width: 2; opacity: 0.1;"></path></g><g class="mark-line role-mark layer_0_layer_26_marks"><path d="M530.4716062148412,338.071504086256L655.9865242640177,326.953125" style="fill: none; stroke: #000000; stroke-width: 2; opacity: 0.1;"></path></g><g class="mark-line role-mark layer_0_layer_27_marks"><path d="M655.9865242640177,326.953125L753.3407292763393,259.5205257833004" style="fill: none; stroke: #000000; stroke-width: 2; opacity: 0.1;"></path></g><g class="mark-symbol role-mark layer_1_layer_0_marks"><path transform="translate(73.38541666666666,145.3125)" d="M0.5,0A0.5,0.5,0,1,1,-0.5,0A0.5,0.5,0,1,1,0.5,0" style="fill: #000000; stroke-width: 2; opacity: 0;"></path><path transform="translate(178.22172519067922,145.3125)" d="M0.5,0A0.5,0.5,0,1,1,-0.5,0A0.5,0.5,0,1,1,0.5,0" style="fill: #000000; stroke-width: 2; opacity: 0;"></path><path transform="translate(283.0580337146918,145.3125)" d="M0.5,0A0.5,0.5,0,1,1,-0.5,0A0.5,0.5,0,1,1,0.5,0" style="fill: #000000; stroke-width: 2; opacity: 0;"></path><path transform="translate(387.89434923728305,145.3125)" d="M0.5,0A0.5,0.5,0,1,1,-0.5,0A0.5,0.5,0,1,1,0.5,0" style="fill: #000000; stroke-width: 2; opacity: 0;"></path><path transform="translate(492.7306507627169,145.3125)" d="M0.5,0A0.5,0.5,0,1,1,-0.5,0A0.5,0.5,0,1,1,0.5,0" style="fill: #000000; stroke-width: 2; opacity: 0;"></path><path transform="translate(597.5669802824656,145.3125)" d="M0.5,0A0.5,0.5,0,1,1,-0.5,0A0.5,0.5,0,1,1,0.5,0" style="fill: #000000; stroke-width: 2; opacity: 0;"></path><path transform="translate(702.4032818078995,145.3125)" d="M0.5,0A0.5,0.5,0,1,1,-0.5,0A0.5,0.5,0,1,1,0.5,0" style="fill: #000000; stroke-width: 2; opacity: 0;"></path><path transform="translate(807.2395833333333,145.3125)" d="M0.5,0A0.5,0.5,0,1,1,-0.5,0A0.5,0.5,0,1,1,0.5,0" style="fill: #000000; stroke-width: 2; opacity: 0;"></path><path transform="translate(123.83416738112768,253.5454621911049)" d="M0.5,0A0.5,0.5,0,1,1,-0.5,0A0.5,0.5,0,1,1,0.5,0" style="fill: #000000; stroke-width: 2; opacity: 0;"></path><path transform="translate(210.73514126737913,326.94481015205383)" d="M0.5,0A0.5,0.5,0,1,1,-0.5,0A0.5,0.5,0,1,1,0.5,0" style="fill: #000000; stroke-width: 2; opacity: 0;"></path><path transform="translate(331.15037697553635,328.58301535248756)" d="M0.5,0A0.5,0.5,0,1,1,-0.5,0A0.5,0.5,0,1,1,0.5,0" style="fill: #000000; stroke-width: 2; opacity: 0;"></path><path transform="translate(440.3125,375.39062038064003)" d="M0.5,0A0.5,0.5,0,1,1,-0.5,0A0.5,0.5,0,1,1,0.5,0" style="fill: #000000; stroke-width: 2; opacity: 0;"></path><path transform="translate(549.4746510187786,328.58301535248756)" d="M0.5,0A0.5,0.5,0,1,1,-0.5,0A0.5,0.5,0,1,1,0.5,0" style="fill: #000000; stroke-width: 2; opacity: 0;"></path><path transform="translate(669.8898447354635,326.94481015205383)" d="M0.5,0A0.5,0.5,0,1,1,-0.5,0A0.5,0.5,0,1,1,0.5,0" style="fill: #000000; stroke-width: 2; opacity: 0;"></path><path transform="translate(756.7908046245575,253.54546912014484)" d="M0.5,0A0.5,0.5,0,1,1,-0.5,0A0.5,0.5,0,1,1,0.5,0" style="fill: #000000; stroke-width: 2; opacity: 0;"></path></g><g class="mark-line role-mark layer_1_layer_1_marks"><path d="M73.38541666666666,145.3125L178.22172519067922,145.3125" style="fill: none; stroke: #000000; stroke-width: 2; opacity: 0.225;"></path></g><g class="mark-line role-mark layer_1_layer_2_marks"><path d="M73.38541666666666,145.3125L123.83416738112768,253.5454621911049" style="fill: none; stroke: #000000; stroke-width: 2; opacity: 0.225;"></path></g><g class="mark-line role-mark layer_1_layer_3_marks"><path d="M178.22172519067922,145.3125L283.0580337146918,145.3125" style="fill: none; stroke: #000000; stroke-width: 2; opacity: 0.225;"></path></g><g class="mark-line role-mark layer_1_layer_4_marks"><path d="M123.83416738112768,253.5454621911049L178.22172519067922,145.3125" style="fill: none; stroke: #000000; stroke-width: 2; opacity: 0.225;"></path></g><g class="mark-line role-mark layer_1_layer_5_marks"><path d="M178.22172519067922,145.3125L210.73514126737913,326.94481015205383" style="fill: none; stroke: #000000; stroke-width: 2; opacity: 0.225;"></path></g><g class="mark-line role-mark layer_1_layer_6_marks"><path d="M283.0580337146918,145.3125L387.89434923728305,145.3125" style="fill: none; stroke: #000000; stroke-width: 2; opacity: 0.225;"></path></g><g class="mark-line role-mark layer_1_layer_7_marks"><path d="M210.73514126737913,326.94481015205383L283.0580337146918,145.3125" style="fill: none; stroke: #000000; stroke-width: 2; opacity: 0.225;"></path></g><g class="mark-line role-mark layer_1_layer_8_marks"><path d="M283.0580337146918,145.3125L331.15037697553635,328.58301535248756" style="fill: none; stroke: #000000; stroke-width: 2; opacity: 0.225;"></path></g><g class="mark-line role-mark layer_1_layer_9_marks"><path d="M387.89434923728305,145.3125L492.7306507627169,145.3125" style="fill: none; stroke: #000000; stroke-width: 2; opacity: 0.225;"></path></g><g class="mark-line role-mark layer_1_layer_10_marks"><path d="M331.15037697553635,328.58301535248756L387.89434923728305,145.3125" style="fill: none; stroke: #000000; stroke-width: 2; opacity: 0.225;"></path></g><g class="mark-line role-mark layer_1_layer_11_marks"><path d="M387.89434923728305,145.3125L440.3125,375.39062038064003" style="fill: none; stroke: #000000; stroke-width: 2; opacity: 0.225;"></path></g><g class="mark-line role-mark layer_1_layer_12_marks"><path d="M492.7306507627169,145.3125L597.5669802824656,145.3125" style="fill: none; stroke: #000000; stroke-width: 2; opacity: 0.225;"></path></g><g class="mark-line role-mark layer_1_layer_13_marks"><path d="M440.3125,375.39062038064003L492.7306507627169,145.3125" style="fill: none; stroke: #000000; stroke-width: 2; opacity: 0.225;"></path></g><g class="mark-line role-mark layer_1_layer_14_marks"><path d="M492.7306507627169,145.3125L549.4746510187786,328.58301535248756" style="fill: none; stroke: #000000; stroke-width: 2; opacity: 0.225;"></path></g><g class="mark-line role-mark layer_1_layer_15_marks"><path d="M597.5669802824656,145.3125L702.4032818078995,145.3125" style="fill: none; stroke: #000000; stroke-width: 2; opacity: 0.225;"></path></g><g class="mark-line role-mark layer_1_layer_16_marks"><path d="M549.4746510187786,328.58301535248756L597.5669802824656,145.3125" style="fill: none; stroke: #000000; stroke-width: 2; opacity: 0.225;"></path></g><g class="mark-line role-mark layer_1_layer_17_marks"><path d="M597.5669802824656,145.3125L669.8898447354635,326.94481015205383" style="fill: none; stroke: #000000; stroke-width: 2; opacity: 0.225;"></path></g><g class="mark-line role-mark layer_1_layer_18_marks"><path d="M702.4032818078995,145.3125L807.2395833333333,145.3125" style="fill: none; stroke: #000000; stroke-width: 2; opacity: 0.225;"></path></g><g class="mark-line role-mark layer_1_layer_19_marks"><path d="M669.8898447354635,326.94481015205383L702.4032818078995,145.3125" style="fill: none; stroke: #000000; stroke-width: 2; opacity: 0.225;"></path></g><g class="mark-line role-mark layer_1_layer_20_marks"><path d="M702.4032818078995,145.3125L756.7908046245575,253.54546912014484" style="fill: none; stroke: #000000; stroke-width: 2; opacity: 0.225;"></path></g><g class="mark-line role-mark layer_1_layer_21_marks"><path d="M756.7908046245575,253.54546912014484L807.2395833333333,145.3125" style="fill: none; stroke: #000000; stroke-width: 2; opacity: 0.225;"></path></g><g class="mark-line role-mark layer_1_layer_22_marks"><path d="M123.83416738112768,253.5454621911049L210.73514126737913,326.94481015205383" style="fill: none; stroke: #000000; stroke-width: 2; opacity: 0.225;"></path></g><g class="mark-line role-mark layer_1_layer_23_marks"><path d="M210.73514126737913,326.94481015205383L331.15037697553635,328.58301535248756" style="fill: none; stroke: #000000; stroke-width: 2; opacity: 0.225;"></path></g><g class="mark-line role-mark layer_1_layer_24_marks"><path d="M331.15037697553635,328.58301535248756L440.3125,375.39062038064003" style="fill: none; stroke: #000000; stroke-width: 2; opacity: 0.225;"></path></g><g class="mark-line role-mark layer_1_layer_25_marks"><path d="M440.3125,375.39062038064003L549.4746510187786,328.58301535248756" style="fill: none; stroke: #000000; stroke-width: 2; opacity: 0.225;"></path></g><g class="mark-line role-mark layer_1_layer_26_marks"><path d="M549.4746510187786,328.58301535248756L669.8898447354635,326.94481015205383" style="fill: none; stroke: #000000; stroke-width: 2; opacity: 0.225;"></path></g><g class="mark-line role-mark layer_1_layer_27_marks"><path d="M669.8898447354635,326.94481015205383L756.7908046245575,253.54546912014484" style="fill: none; stroke: #000000; stroke-width: 2; opacity: 0.225;"></path></g><g class="mark-symbol role-mark layer_2_layer_0_marks"><path transform="translate(73.38541666666666,145.3125)" d="M0.5,0A0.5,0.5,0,1,1,-0.5,0A0.5,0.5,0,1,1,0.5,0" style="fill: #000000; stroke-width: 2; opacity: 0;"></path><path transform="translate(178.22172519067922,145.3125)" d="M0.5,0A0.5,0.5,0,1,1,-0.5,0A0.5,0.5,0,1,1,0.5,0" style="fill: #000000; stroke-width: 2; opacity: 0;"></path><path transform="translate(283.0580337146918,145.3125)" d="M0.5,0A0.5,0.5,0,1,1,-0.5,0A0.5,0.5,0,1,1,0.5,0" style="fill: #000000; stroke-width: 2; opacity: 0;"></path><path transform="translate(387.89434923728305,145.3125)" d="M0.5,0A0.5,0.5,0,1,1,-0.5,0A0.5,0.5,0,1,1,0.5,0" style="fill: #000000; stroke-width: 2; opacity: 0;"></path><path transform="translate(492.7306507627169,145.3125)" d="M0.5,0A0.5,0.5,0,1,1,-0.5,0A0.5,0.5,0,1,1,0.5,0" style="fill: #000000; stroke-width: 2; opacity: 0;"></path><path transform="translate(597.5669802824656,145.3125)" d="M0.5,0A0.5,0.5,0,1,1,-0.5,0A0.5,0.5,0,1,1,0.5,0" style="fill: #000000; stroke-width: 2; opacity: 0;"></path><path transform="translate(702.4032818078995,145.3125)" d="M0.5,0A0.5,0.5,0,1,1,-0.5,0A0.5,0.5,0,1,1,0.5,0" style="fill: #000000; stroke-width: 2; opacity: 0;"></path><path transform="translate(807.2395833333333,145.3125)" d="M0.5,0A0.5,0.5,0,1,1,-0.5,0A0.5,0.5,0,1,1,0.5,0" style="fill: #000000; stroke-width: 2; opacity: 0;"></path><path transform="translate(122.44775943706432,251.085112541914)" d="M0.5,0A0.5,0.5,0,1,1,-0.5,0A0.5,0.5,0,1,1,0.5,0" style="fill: #000000; stroke-width: 2; opacity: 0;"></path><path transform="translate(205.04644454518953,326.7928424477577)" d="M0.5,0A0.5,0.5,0,1,1,-0.5,0A0.5,0.5,0,1,1,0.5,0" style="fill: #000000; stroke-width: 2; opacity: 0;"></path><path transform="translate(322.6781775355339,326.953125)" d="M0.5,0A0.5,0.5,0,1,1,-0.5,0A0.5,0.5,0,1,1,0.5,0" style="fill: #000000; stroke-width: 2; opacity: 0;"></path><path transform="translate(440.3125,326.953125)" d="M0.5,0A0.5,0.5,0,1,1,-0.5,0A0.5,0.5,0,1,1,0.5,0" style="fill: #000000; stroke-width: 2; opacity: 0;"></path><path transform="translate(557.9467944701513,326.953125)" d="M0.5,0A0.5,0.5,0,1,1,-0.5,0A0.5,0.5,0,1,1,0.5,0" style="fill: #000000; stroke-width: 2; opacity: 0;"></path><path transform="translate(675.5785694519678,326.7928424477577)" d="M0.5,0A0.5,0.5,0,1,1,-0.5,0A0.5,0.5,0,1,1,0.5,0" style="fill: #000000; stroke-width: 2; opacity: 0;"></path><path transform="translate(758.1772510608038,251.085112541914)" d="M0.5,0A0.5,0.5,0,1,1,-0.5,0A0.5,0.5,0,1,1,0.5,0" style="fill: #000000; stroke-width: 2; opacity: 0;"></path></g><g class="mark-line role-mark layer_2_layer_1_marks"><path d="M73.38541666666666,145.3125L178.22172519067922,145.3125" style="fill: none; stroke: #000000; stroke-width: 2; opacity: 0.35;"></path></g><g class="mark-line role-mark layer_2_layer_2_marks"><path d="M73.38541666666666,145.3125L122.44775943706432,251.085112541914" style="fill: none; stroke: #000000; stroke-width: 2; opacity: 0.35;"></path></g><g class="mark-line role-mark layer_2_layer_3_marks"><path d="M178.22172519067922,145.3125L283.0580337146918,145.3125" style="fill: none; stroke: #000000; stroke-width: 2; opacity: 0.35;"></path></g><g class="mark-line role-mark layer_2_layer_4_marks"><path d="M122.44775943706432,251.085112541914L178.22172519067922,145.3125" style="fill: none; stroke: #000000; stroke-width: 2; opacity: 0.35;"></path></g><g class="mark-line role-mark layer_2_layer_5_marks"><path d="M178.22172519067922,145.3125L205.04644454518953,326.7928424477577" style="fill: none; stroke: #000000; stroke-width: 2; opacity: 0.35;"></path></g><g class="mark-line role-mark layer_2_layer_6_marks"><path d="M283.0580337146918,145.3125L387.89434923728305,145.3125" style="fill: none; stroke: #000000; stroke-width: 2; opacity: 0.35;"></path></g><g class="mark-line role-mark layer_2_layer_7_marks"><path d="M205.04644454518953,326.7928424477577L283.0580337146918,145.3125" style="fill: none; stroke: #000000; stroke-width: 2; opacity: 0.35;"></path></g><g class="mark-line role-mark layer_2_layer_8_marks"><path d="M283.0580337146918,145.3125L322.6781775355339,326.953125" style="fill: none; stroke: #000000; stroke-width: 2; opacity: 0.35;"></path></g><g class="mark-line role-mark layer_2_layer_9_marks"><path d="M387.89434923728305,145.3125L492.7306507627169,145.3125" style="fill: none; stroke: #000000; stroke-width: 2; opacity: 0.35;"></path></g><g class="mark-line role-mark layer_2_layer_10_marks"><path d="M322.6781775355339,326.953125L387.89434923728305,145.3125" style="fill: none; stroke: #000000; stroke-width: 2; opacity: 0.35;"></path></g><g class="mark-line role-mark layer_2_layer_11_marks"><path d="M387.89434923728305,145.3125L440.3125,326.953125" style="fill: none; stroke: #000000; stroke-width: 2; opacity: 0.35;"></path></g><g class="mark-line role-mark layer_2_layer_12_marks"><path d="M492.7306507627169,145.3125L597.5669802824656,145.3125" style="fill: none; stroke: #000000; stroke-width: 2; opacity: 0.35;"></path></g><g class="mark-line role-mark layer_2_layer_13_marks"><path d="M440.3125,326.953125L492.7306507627169,145.3125" style="fill: none; stroke: #000000; stroke-width: 2; opacity: 0.35;"></path></g><g class="mark-line role-mark layer_2_layer_14_marks"><path d="M492.7306507627169,145.3125L557.9467944701513,326.953125" style="fill: none; stroke: #000000; stroke-width: 2; opacity: 0.35;"></path></g><g class="mark-line role-mark layer_2_layer_15_marks"><path d="M597.5669802824656,145.3125L702.4032818078995,145.3125" style="fill: none; stroke: #000000; stroke-width: 2; opacity: 0.35;"></path></g><g class="mark-line role-mark layer_2_layer_16_marks"><path d="M557.9467944701513,326.953125L597.5669802824656,145.3125" style="fill: none; stroke: #000000; stroke-width: 2; opacity: 0.35;"></path></g><g class="mark-line role-mark layer_2_layer_17_marks"><path d="M597.5669802824656,145.3125L675.5785694519678,326.7928424477577" style="fill: none; stroke: #000000; stroke-width: 2; opacity: 0.35;"></path></g><g class="mark-line role-mark layer_2_layer_18_marks"><path d="M702.4032818078995,145.3125L807.2395833333333,145.3125" style="fill: none; stroke: #000000; stroke-width: 2; opacity: 0.35;"></path></g><g class="mark-line role-mark layer_2_layer_19_marks"><path d="M675.5785694519678,326.7928424477577L702.4032818078995,145.3125" style="fill: none; stroke: #000000; stroke-width: 2; opacity: 0.35;"></path></g><g class="mark-line role-mark layer_2_layer_20_marks"><path d="M702.4032818078995,145.3125L758.1772510608038,251.085112541914" style="fill: none; stroke: #000000; stroke-width: 2; opacity: 0.35;"></path></g><g class="mark-line role-mark layer_2_layer_21_marks"><path d="M758.1772510608038,251.085112541914L807.2395833333333,145.3125" style="fill: none; stroke: #000000; stroke-width: 2; opacity: 0.35;"></path></g><g class="mark-line role-mark layer_2_layer_22_marks"><path d="M122.44775943706432,251.085112541914L205.04644454518953,326.7928424477577" style="fill: none; stroke: #000000; stroke-width: 2; opacity: 0.35;"></path></g><g class="mark-line role-mark layer_2_layer_23_marks"><path d="M205.04644454518953,326.7928424477577L322.6781775355339,326.953125" style="fill: none; stroke: #000000; stroke-width: 2; opacity: 0.35;"></path></g><g class="mark-line role-mark layer_2_layer_24_marks"><path d="M322.6781775355339,326.953125L440.3125,326.953125" style="fill: none; stroke: #000000; stroke-width: 2; opacity: 0.35;"></path></g><g class="mark-line role-mark layer_2_layer_25_marks"><path d="M440.3125,326.953125L557.9467944701513,326.953125" style="fill: none; stroke: #000000; stroke-width: 2; opacity: 0.35;"></path></g><g class="mark-line role-mark layer_2_layer_26_marks"><path d="M557.9467944701513,326.953125L675.5785694519678,326.7928424477577" style="fill: none; stroke: #000000; stroke-width: 2; opacity: 0.35;"></path></g><g class="mark-line role-mark layer_2_layer_27_marks"><path d="M675.5785694519678,326.7928424477577L758.1772510608038,251.085112541914" style="fill: none; stroke: #000000; stroke-width: 2; opacity: 0.35;"></path></g><g class="mark-symbol role-mark layer_3_layer_0_marks"><path transform="translate(73.38541666666666,145.3125)" d="M0.5,0A0.5,0.5,0,1,1,-0.5,0A0.5,0.5,0,1,1,0.5,0" style="fill: #000000; stroke-width: 2; opacity: 0;"></path><path transform="translate(178.22172519067922,145.3125)" d="M0.5,0A0.5,0.5,0,1,1,-0.5,0A0.5,0.5,0,1,1,0.5,0" style="fill: #000000; stroke-width: 2; opacity: 0;"></path><path transform="translate(283.0580337146918,145.3125)" d="M0.5,0A0.5,0.5,0,1,1,-0.5,0A0.5,0.5,0,1,1,0.5,0" style="fill: #000000; stroke-width: 2; opacity: 0;"></path><path transform="translate(387.89434923728305,145.3125)" d="M0.5,0A0.5,0.5,0,1,1,-0.5,0A0.5,0.5,0,1,1,0.5,0" style="fill: #000000; stroke-width: 2; opacity: 0;"></path><path transform="translate(492.7306507627169,145.3125)" d="M0.5,0A0.5,0.5,0,1,1,-0.5,0A0.5,0.5,0,1,1,0.5,0" style="fill: #000000; stroke-width: 2; opacity: 0;"></path><path transform="translate(597.5669802824656,145.3125)" d="M0.5,0A0.5,0.5,0,1,1,-0.5,0A0.5,0.5,0,1,1,0.5,0" style="fill: #000000; stroke-width: 2; opacity: 0;"></path><path transform="translate(702.4032818078995,145.3125)" d="M0.5,0A0.5,0.5,0,1,1,-0.5,0A0.5,0.5,0,1,1,0.5,0" style="fill: #000000; stroke-width: 2; opacity: 0;"></path><path transform="translate(807.2395833333333,145.3125)" d="M0.5,0A0.5,0.5,0,1,1,-0.5,0A0.5,0.5,0,1,1,0.5,0" style="fill: #000000; stroke-width: 2; opacity: 0;"></path><path transform="translate(123.83416738112768,253.5454621911049)" d="M0.5,0A0.5,0.5,0,1,1,-0.5,0A0.5,0.5,0,1,1,0.5,0" style="fill: #000000; stroke-width: 2; opacity: 0;"></path><path transform="translate(210.73514126737913,326.94481015205383)" d="M0.5,0A0.5,0.5,0,1,1,-0.5,0A0.5,0.5,0,1,1,0.5,0" style="fill: #000000; stroke-width: 2; opacity: 0;"></path><path transform="translate(331.15037697553635,325.32323464751244)" d="M0.5,0A0.5,0.5,0,1,1,-0.5,0A0.5,0.5,0,1,1,0.5,0" style="fill: #000000; stroke-width: 2; opacity: 0;"></path><path transform="translate(440.3125,278.51562961935997)" d="M0.5,0A0.5,0.5,0,1,1,-0.5,0A0.5,0.5,0,1,1,0.5,0" style="fill: #000000; stroke-width: 2; opacity: 0;"></path><path transform="translate(549.4746510187786,325.32323464751244)" d="M0.5,0A0.5,0.5,0,1,1,-0.5,0A0.5,0.5,0,1,1,0.5,0" style="fill: #000000; stroke-width: 2; opacity: 0;"></path><path transform="translate(669.8898447354635,326.94481015205383)" d="M0.5,0A0.5,0.5,0,1,1,-0.5,0A0.5,0.5,0,1,1,0.5,0" style="fill: #000000; stroke-width: 2; opacity: 0;"></path><path transform="translate(756.7908046245575,253.54546912014484)" d="M0.5,0A0.5,0.5,0,1,1,-0.5,0A0.5,0.5,0,1,1,0.5,0" style="fill: #000000; stroke-width: 2; opacity: 0;"></path></g><g class="mark-line role-mark layer_3_layer_1_marks"><path d="M73.38541666666666,145.3125L178.22172519067922,145.3125" style="fill: none; stroke: #000000; stroke-width: 2; opacity: 0.475;"></path></g><g class="mark-line role-mark layer_3_layer_2_marks"><path d="M73.38541666666666,145.3125L123.83416738112768,253.5454621911049" style="fill: none; stroke: #000000; stroke-width: 2; opacity: 0.475;"></path></g><g class="mark-line role-mark layer_3_layer_3_marks"><path d="M178.22172519067922,145.3125L283.0580337146918,145.3125" style="fill: none; stroke: #000000; stroke-width: 2; opacity: 0.475;"></path></g><g class="mark-line role-mark layer_3_layer_4_marks"><path d="M123.83416738112768,253.5454621911049L178.22172519067922,145.3125" style="fill: none; stroke: #000000; stroke-width: 2; opacity: 0.475;"></path></g><g class="mark-line role-mark layer_3_layer_5_marks"><path d="M178.22172519067922,145.3125L210.73514126737913,326.94481015205383" style="fill: none; stroke: #000000; stroke-width: 2; opacity: 0.475;"></path></g><g class="mark-line role-mark layer_3_layer_6_marks"><path d="M283.0580337146918,145.3125L387.89434923728305,145.3125" style="fill: none; stroke: #000000; stroke-width: 2; opacity: 0.475;"></path></g><g class="mark-line role-mark layer_3_layer_7_marks"><path d="M210.73514126737913,326.94481015205383L283.0580337146918,145.3125" style="fill: none; stroke: #000000; stroke-width: 2; opacity: 0.475;"></path></g><g class="mark-line role-mark layer_3_layer_8_marks"><path d="M283.0580337146918,145.3125L331.15037697553635,325.32323464751244" style="fill: none; stroke: #000000; stroke-width: 2; opacity: 0.475;"></path></g><g class="mark-line role-mark layer_3_layer_9_marks"><path d="M387.89434923728305,145.3125L492.7306507627169,145.3125" style="fill: none; stroke: #000000; stroke-width: 2; opacity: 0.475;"></path></g><g class="mark-line role-mark layer_3_layer_10_marks"><path d="M331.15037697553635,325.32323464751244L387.89434923728305,145.3125" style="fill: none; stroke: #000000; stroke-width: 2; opacity: 0.475;"></path></g><g class="mark-line role-mark layer_3_layer_11_marks"><path d="M387.89434923728305,145.3125L440.3125,278.51562961935997" style="fill: none; stroke: #000000; stroke-width: 2; opacity: 0.475;"></path></g><g class="mark-line role-mark layer_3_layer_12_marks"><path d="M492.7306507627169,145.3125L597.5669802824656,145.3125" style="fill: none; stroke: #000000; stroke-width: 2; opacity: 0.475;"></path></g><g class="mark-line role-mark layer_3_layer_13_marks"><path d="M440.3125,278.51562961935997L492.7306507627169,145.3125" style="fill: none; stroke: #000000; stroke-width: 2; opacity: 0.475;"></path></g><g class="mark-line role-mark layer_3_layer_14_marks"><path d="M492.7306507627169,145.3125L549.4746510187786,325.32323464751244" style="fill: none; stroke: #000000; stroke-width: 2; opacity: 0.475;"></path></g><g class="mark-line role-mark layer_3_layer_15_marks"><path d="M597.5669802824656,145.3125L702.4032818078995,145.3125" style="fill: none; stroke: #000000; stroke-width: 2; opacity: 0.475;"></path></g><g class="mark-line role-mark layer_3_layer_16_marks"><path d="M549.4746510187786,325.32323464751244L597.5669802824656,145.3125" style="fill: none; stroke: #000000; stroke-width: 2; opacity: 0.475;"></path></g><g class="mark-line role-mark layer_3_layer_17_marks"><path d="M597.5669802824656,145.3125L669.8898447354635,326.94481015205383" style="fill: none; stroke: #000000; stroke-width: 2; opacity: 0.475;"></path></g><g class="mark-line role-mark layer_3_layer_18_marks"><path d="M702.4032818078995,145.3125L807.2395833333333,145.3125" style="fill: none; stroke: #000000; stroke-width: 2; opacity: 0.475;"></path></g><g class="mark-line role-mark layer_3_layer_19_marks"><path d="M669.8898447354635,326.94481015205383L702.4032818078995,145.3125" style="fill: none; stroke: #000000; stroke-width: 2; opacity: 0.475;"></path></g><g class="mark-line role-mark layer_3_layer_20_marks"><path d="M702.4032818078995,145.3125L756.7908046245575,253.54546912014484" style="fill: none; stroke: #000000; stroke-width: 2; opacity: 0.475;"></path></g><g class="mark-line role-mark layer_3_layer_21_marks"><path d="M756.7908046245575,253.54546912014484L807.2395833333333,145.3125" style="fill: none; stroke: #000000; stroke-width: 2; opacity: 0.475;"></path></g><g class="mark-line role-mark layer_3_layer_22_marks"><path d="M123.83416738112768,253.5454621911049L210.73514126737913,326.94481015205383" style="fill: none; stroke: #000000; stroke-width: 2; opacity: 0.475;"></path></g><g class="mark-line role-mark layer_3_layer_23_marks"><path d="M210.73514126737913,326.94481015205383L331.15037697553635,325.32323464751244" style="fill: none; stroke: #000000; stroke-width: 2; opacity: 0.475;"></path></g><g class="mark-line role-mark layer_3_layer_24_marks"><path d="M331.15037697553635,325.32323464751244L440.3125,278.51562961935997" style="fill: none; stroke: #000000; stroke-width: 2; opacity: 0.475;"></path></g><g class="mark-line role-mark layer_3_layer_25_marks"><path d="M440.3125,278.51562961935997L549.4746510187786,325.32323464751244" style="fill: none; stroke: #000000; stroke-width: 2; opacity: 0.475;"></path></g><g class="mark-line role-mark layer_3_layer_26_marks"><path d="M549.4746510187786,325.32323464751244L669.8898447354635,326.94481015205383" style="fill: none; stroke: #000000; stroke-width: 2; opacity: 0.475;"></path></g><g class="mark-line role-mark layer_3_layer_27_marks"><path d="M669.8898447354635,326.94481015205383L756.7908046245575,253.54546912014484" style="fill: none; stroke: #000000; stroke-width: 2; opacity: 0.475;"></path></g><g class="mark-symbol role-mark layer_4_layer_0_marks"><path transform="translate(73.38541666666666,145.3125)" d="M0.5,0A0.5,0.5,0,1,1,-0.5,0A0.5,0.5,0,1,1,0.5,0" style="fill: #000000; stroke-width: 2; opacity: 0;"></path><path transform="translate(178.22172519067922,145.3125)" d="M0.5,0A0.5,0.5,0,1,1,-0.5,0A0.5,0.5,0,1,1,0.5,0" style="fill: #000000; stroke-width: 2; opacity: 0;"></path><path transform="translate(283.0580337146918,145.3125)" d="M0.5,0A0.5,0.5,0,1,1,-0.5,0A0.5,0.5,0,1,1,0.5,0" style="fill: #000000; stroke-width: 2; opacity: 0;"></path><path transform="translate(387.89434923728305,145.3125)" d="M0.5,0A0.5,0.5,0,1,1,-0.5,0A0.5,0.5,0,1,1,0.5,0" style="fill: #000000; stroke-width: 2; opacity: 0;"></path><path transform="translate(492.7306507627169,145.3125)" d="M0.5,0A0.5,0.5,0,1,1,-0.5,0A0.5,0.5,0,1,1,0.5,0" style="fill: #000000; stroke-width: 2; opacity: 0;"></path><path transform="translate(597.5669802824656,145.3125)" d="M0.5,0A0.5,0.5,0,1,1,-0.5,0A0.5,0.5,0,1,1,0.5,0" style="fill: #000000; stroke-width: 2; opacity: 0;"></path><path transform="translate(702.4032818078995,145.3125)" d="M0.5,0A0.5,0.5,0,1,1,-0.5,0A0.5,0.5,0,1,1,0.5,0" style="fill: #000000; stroke-width: 2; opacity: 0;"></path><path transform="translate(807.2395833333333,145.3125)" d="M0.5,0A0.5,0.5,0,1,1,-0.5,0A0.5,0.5,0,1,1,0.5,0" style="fill: #000000; stroke-width: 2; opacity: 0;"></path><path transform="translate(127.28427072366078,259.5205257833004)" d="M0.5,0A0.5,0.5,0,1,1,-0.5,0A0.5,0.5,0,1,1,0.5,0" style="fill: #000000; stroke-width: 2; opacity: 0;"></path><path transform="translate(224.63846173882484,326.953125)" d="M0.5,0A0.5,0.5,0,1,1,-0.5,0A0.5,0.5,0,1,1,0.5,0" style="fill: #000000; stroke-width: 2; opacity: 0;"></path><path transform="translate(350.1533937851588,315.834745913744)" d="M0.5,0A0.5,0.5,0,1,1,-0.5,0A0.5,0.5,0,1,1,0.5,0" style="fill: #000000; stroke-width: 2; opacity: 0;"></path><path transform="translate(440.3125,230.07812730967999)" d="M0.5,0A0.5,0.5,0,1,1,-0.5,0A0.5,0.5,0,1,1,0.5,0" style="fill: #000000; stroke-width: 2; opacity: 0;"></path><path transform="translate(530.4716062148412,315.834745913744)" d="M0.5,0A0.5,0.5,0,1,1,-0.5,0A0.5,0.5,0,1,1,0.5,0" style="fill: #000000; stroke-width: 2; opacity: 0;"></path><path transform="translate(655.9865242640177,326.953125)" d="M0.5,0A0.5,0.5,0,1,1,-0.5,0A0.5,0.5,0,1,1,0.5,0" style="fill: #000000; stroke-width: 2; opacity: 0;"></path><path transform="translate(753.3407292763393,259.5205257833004)" d="M0.5,0A0.5,0.5,0,1,1,-0.5,0A0.5,0.5,0,1,1,0.5,0" style="fill: #000000; stroke-width: 2; opacity: 0;"></path></g><g class="mark-line role-mark layer_4_layer_1_marks"><path d="M73.38541666666666,145.3125L178.22172519067922,145.3125" style="fill: none; stroke: #000000; stroke-width: 2; opacity: 1;"></path></g><g class="mark-line role-mark layer_4_layer_2_marks"><path d="M73.38541666666666,145.3125L127.28427072366078,259.5205257833004" style="fill: none; stroke: #000000; stroke-width: 2; opacity: 1;"></path></g><g class="mark-line role-mark layer_4_layer_3_marks"><path d="M178.22172519067922,145.3125L283.0580337146918,145.3125" style="fill: none; stroke: #000000; stroke-width: 2; opacity: 1;"></path></g><g class="mark-line role-mark layer_4_layer_4_marks"><path d="M127.28427072366078,259.5205257833004L178.22172519067922,145.3125" style="fill: none; stroke: #000000; stroke-width: 2; opacity: 1;"></path></g><g class="mark-line role-mark layer_4_layer_5_marks"><path d="M178.22172519067922,145.3125L224.63846173882484,326.953125" style="fill: none; stroke: #000000; stroke-width: 2; opacity: 1;"></path></g><g class="mark-line role-mark layer_4_layer_6_marks"><path d="M283.0580337146918,145.3125L387.89434923728305,145.3125" style="fill: none; stroke: #000000; stroke-width: 2; opacity: 1;"></path></g><g class="mark-line role-mark layer_4_layer_7_marks"><path d="M224.63846173882484,326.953125L283.0580337146918,145.3125" style="fill: none; stroke: #000000; stroke-width: 2; opacity: 1;"></path></g><g class="mark-line role-mark layer_4_layer_8_marks"><path d="M283.0580337146918,145.3125L350.1533937851588,315.834745913744" style="fill: none; stroke: #000000; stroke-width: 2; opacity: 1;"></path></g><g class="mark-line role-mark layer_4_layer_9_marks"><path d="M387.89434923728305,145.3125L492.7306507627169,145.3125" style="fill: none; stroke: #000000; stroke-width: 2; opacity: 1;"></path></g><g class="mark-line role-mark layer_4_layer_10_marks"><path d="M350.1533937851588,315.834745913744L387.89434923728305,145.3125" style="fill: none; stroke: #000000; stroke-width: 2; opacity: 1;"></path></g><g class="mark-line role-mark layer_4_layer_11_marks"><path d="M387.89434923728305,145.3125L440.3125,230.07812730967999" style="fill: none; stroke: #000000; stroke-width: 2; opacity: 1;"></path></g><g class="mark-line role-mark layer_4_layer_12_marks"><path d="M492.7306507627169,145.3125L597.5669802824656,145.3125" style="fill: none; stroke: #000000; stroke-width: 2; opacity: 1;"></path></g><g class="mark-line role-mark layer_4_layer_13_marks"><path d="M440.3125,230.07812730967999L492.7306507627169,145.3125" style="fill: none; stroke: #000000; stroke-width: 2; opacity: 1;"></path></g><g class="mark-line role-mark layer_4_layer_14_marks"><path d="M492.7306507627169,145.3125L530.4716062148412,315.834745913744" style="fill: none; stroke: #000000; stroke-width: 2; opacity: 1;"></path></g><g class="mark-line role-mark layer_4_layer_15_marks"><path d="M597.5669802824656,145.3125L702.4032818078995,145.3125" style="fill: none; stroke: #000000; stroke-width: 2; opacity: 1;"></path></g><g class="mark-line role-mark layer_4_layer_16_marks"><path d="M530.4716062148412,315.834745913744L597.5669802824656,145.3125" style="fill: none; stroke: #000000; stroke-width: 2; opacity: 1;"></path></g><g class="mark-line role-mark layer_4_layer_17_marks"><path d="M597.5669802824656,145.3125L655.9865242640177,326.953125" style="fill: none; stroke: #000000; stroke-width: 2; opacity: 1;"></path></g><g class="mark-line role-mark layer_4_layer_18_marks"><path d="M702.4032818078995,145.3125L807.2395833333333,145.3125" style="fill: none; stroke: #000000; stroke-width: 2; opacity: 1;"></path></g><g class="mark-line role-mark layer_4_layer_19_marks"><path d="M655.9865242640177,326.953125L702.4032818078995,145.3125" style="fill: none; stroke: #000000; stroke-width: 2; opacity: 1;"></path></g><g class="mark-line role-mark layer_4_layer_20_marks"><path d="M702.4032818078995,145.3125L753.3407292763393,259.5205257833004" style="fill: none; stroke: #000000; stroke-width: 2; opacity: 1;"></path></g><g class="mark-line role-mark layer_4_layer_21_marks"><path d="M753.3407292763393,259.5205257833004L807.2395833333333,145.3125" style="fill: none; stroke: #000000; stroke-width: 2; opacity: 1;"></path></g><g class="mark-line role-mark layer_4_layer_22_marks"><path d="M127.28427072366078,259.5205257833004L224.63846173882484,326.953125" style="fill: none; stroke: #000000; stroke-width: 2; opacity: 1;"></path></g><g class="mark-line role-mark layer_4_layer_23_marks"><path d="M224.63846173882484,326.953125L350.1533937851588,315.834745913744" style="fill: none; stroke: #000000; stroke-width: 2; opacity: 1;"></path></g><g class="mark-line role-mark layer_4_layer_24_marks"><path d="M350.1533937851588,315.834745913744L440.3125,230.07812730967999" style="fill: none; stroke: #000000; stroke-width: 2; opacity: 1;"></path></g><g class="mark-line role-mark layer_4_layer_25_marks"><path d="M440.3125,230.07812730967999L530.4716062148412,315.834745913744" style="fill: none; stroke: #000000; stroke-width: 2; opacity: 1;"></path></g><g class="mark-line role-mark layer_4_layer_26_marks"><path d="M530.4716062148412,315.834745913744L655.9865242640177,326.953125" style="fill: none; stroke: #000000; stroke-width: 2; opacity: 1;"></path></g><g class="mark-line role-mark layer_4_layer_27_marks"><path d="M655.9865242640177,326.953125L753.3407292763393,259.5205257833004" style="fill: none; stroke: #000000; stroke-width: 2; opacity: 1;"></path></g><g class="mark-group role-title"><g transform="translate(440.3125,-44)"><path class="background" d="M0,0h0v0h0Z" style="pointer-events: none; fill: none;"></path><g><g class="mark-text role-title-text" style="pointer-events: none;"><text text-anchor="middle" transform="translate(0,152)" style="font-family: Arial; font-size: 40px; font-style: italic; font-weight: normal; fill: #000; opacity: 1;">x₄</text></g></g><path class="foreground" d="" style="pointer-events: none; display: none; fill: none;"></path></g></g></g><path class="foreground" d="" style="display: none; fill: none;"></path></g></g></g></svg>