<svg class="marks" width="890.625" height="475" viewBox="0 0 890.625 475" version="1.1" xmlns="http://www.w3.org/2000/svg" xmlns:xlink="http://www.w3.org/1999/xlink"><rect width="890.625" height="475" style="fill: white;"></rect><g transform="translate(9,5)"><g class="mark-group role-frame root"><g transform="translate(0,0)"><path class="background" d="M0.5,0.5h832.625v454h-832.625Z" style="fill: none; stroke: #ddd; stroke-opacity: 0;"></path><g><g class="mark-symbol role-mark layer_0_marks"><path transform="translate(69.38541666666666,141.875)" d="M0.5,0A0.5,0.5,0,1,1,-0.5,0A0.5,0.5,0,1,1,0.5,0" style="fill: #000000; stroke-width: 2; opacity: 0;"></path><path transform="translate(168.50743953088917,141.875)" d="M0.5,0A0.5,0.5,0,1,1,-0.5,0A0.5,0.5,0,1,1,0.5,0" style="fill: #000000; stroke-width: 2; opacity: 0;"></path><path transform="translate(267.6294623951117,141.875)" d="M0.5,0A0.5,0.5,0,1,1,-0.5,0A0.5,0.5,0,1,1,0.5,0" style="fill: #000000; stroke-width: 2; opacity: 0;"></path><path transform="translate(366.7514918764432,141.875)" d="M0.5,0A0.5,0.5,0,1,1,-0.5,0A0.5,0.5,0,1,1,0.5,0" style="fill: #000000; stroke-width: 2; opacity: 0;"></path><path transform="translate(465.87350812355675,141.875)" d="M0.5,0A0.5,0.5,0,1,1,-0.5,0A0.5,0.5,0,1,1,0.5,0" style="fill: #000000; stroke-width: 2; opacity: 0;"></path><path transform="translate(564.9955508391062,141.875)" d="M0.5,0A0.5,0.5,0,1,1,-0.5,0A0.5,0.5,0,1,1,0.5,0" style="fill: #000000; stroke-width: 2; opacity: 0;"></path><path transform="translate(664.1175670862198,141.875)" d="M0.5,0A0.5,0.5,0,1,1,-0.5,0A0.5,0.5,0,1,1,0.5,0" style="fill: #000000; stroke-width: 2; opacity: 0;"></path><path transform="translate(763.2395833333333,141.875)" d="M0.5,0A0.5,0.5,0,1,1,-0.5,0A0.5,0.5,0,1,1,0.5,0" style="fill: #000000; stroke-width: 2; opacity: 0;"></path><path transform="translate(115.7735309595863,245.14546471834183)" d="M0.5,0A0.5,0.5,0,1,1,-0.5,0A0.5,0.5,0,1,1,0.5,0" style="fill: #000000; stroke-width: 2; opacity: 0;"></path><path transform="translate(193.8700308183829,319.0622590780258)" d="M0.5,0A0.5,0.5,0,1,1,-0.5,0A0.5,0.5,0,1,1,0.5,0" style="fill: #000000; stroke-width: 2; opacity: 0;"></path><path transform="translate(305.09004124403003,319.21875)" d="M0.5,0A0.5,0.5,0,1,1,-0.5,0A0.5,0.5,0,1,1,0.5,0" style="fill: #000000; stroke-width: 2; opacity: 0;"></path><path transform="translate(416.3125,319.21875)" d="M0.5,0A0.5,0.5,0,1,1,-0.5,0A0.5,0.5,0,1,1,0.5,0" style="fill: #000000; stroke-width: 2; opacity: 0;"></path><path transform="translate(527.5349322875342,319.21875)" d="M0.5,0A0.5,0.5,0,1,1,-0.5,0A0.5,0.5,0,1,1,0.5,0" style="fill: #000000; stroke-width: 2; opacity: 0;"></path><path transform="translate(638.754982415835,319.0622590780258)" d="M0.5,0A0.5,0.5,0,1,1,-0.5,0A0.5,0.5,0,1,1,0.5,0" style="fill: #000000; stroke-width: 2; opacity: 0;"></path><path transform="translate(716.8514789660773,245.14546471834183)" d="M0.5,0A0.5,0.5,0,1,1,-0.5,0A0.5,0.5,0,1,1,0.5,0" style="fill: #000000; stroke-width: 2; opacity: 0;"></path></g><g class="mark-line role-mark layer_1_marks"><path d="M69.38541666666666,141.875L168.50743953088917,141.875" style="fill: none; stroke: #000000; stroke-width: 2; opacity: 1;"></path></g><g class="mark-line role-mark layer_2_marks"><path d="M69.38541666666666,141.875L115.7735309595863,245.14546471834183" style="fill: none; stroke: #000000; stroke-width: 2; opacity: 1;"></path></g><g class="mark-line role-mark layer_3_marks"><path d="M168.50743953088917,141.875L267.6294623951117,141.875" style="fill: none; stroke: #000000; stroke-width: 2; opacity: 1;"></path></g><g class="mark-line role-mark layer_4_marks"><path d="M115.7735309595863,245.14546471834183L168.50743953088917,141.875" style="fill: none; stroke: #000000; stroke-width: 2; opacity: 1;"></path></g><g class="mark-line role-mark layer_5_marks"><path d="M168.50743953088917,141.875L193.8700308183829,319.0622590780258" style="fill: none; stroke: #000000; stroke-width: 2; opacity: 1;"></path></g><g class="mark-line role-mark layer_6_marks"><path d="M267.6294623951117,141.875L366.7514918764432,141.875" style="fill: none; stroke: #000000; stroke-width: 2; opacity: 1;"></path></g><g class="mark-line role-mark layer_7_marks"><path d="M193.8700308183829,319.0622590780258L267.6294623951117,141.875" style="fill: none; stroke: #000000; stroke-width: 2; opacity: 1;"></path></g><g class="mark-line role-mark layer_8_marks"><path d="M267.6294623951117,141.875L305.09004124403003,319.21875" style="fill: none; stroke: #000000; stroke-width: 2; opacity: 1;"></path></g><g class="mark-line role-mark layer_9_marks"><path d="M366.7514918764432,141.875L465.87350812355675,141.875" style="fill: none; stroke: #000000; stroke-width: 2; opacity: 1;"></path></g><g class="mark-line role-mark layer_10_marks"><path d="M305.09004124403003,319.21875L366.7514918764432,141.875" style="fill: none; stroke: #000000; stroke-width: 2; opacity: 1;"></path></g><g class="mark-line role-mark layer_11_marks"><path d="M366.7514918764432,141.875L416.3125,319.21875" style="fill: none; stroke: #000000; stroke-width: 2; opacity: 1;"></path></g><g class="mark-line role-mark layer_12_marks"><path d="M465.87350812355675,141.875L564.9955508391062,141.875" style="fill: none; stroke: #000000; stroke-width: 2; opacity: 1;"></path></g><g class="mark-line role-mark layer_13_marks"><path d="M416.3125,319.21875L465.87350812355675,141.875" style="fill: none; stroke: #000000; stroke-width: 2; opacity: 1;"></path></g><g class="mark-line role-mark layer_14_marks"><path d="M465.87350812355675,141.875L527.5349322875342,319.21875" style="fill: none; stroke: #000000; stroke-width: 2; opacity: 1;"></path></g><g class="mark-line role-mark layer_15_marks"><path d="M564.9955508391062,141.875L664.1175670862198,141.875" style="fill: none; stroke: #000000; stroke-width: 2; opacity: 1;"></path></g><g class="mark-line role-mark layer_16_marks"><path d="M527.5349322875342,319.21875L564.9955508391062,141.875" style="fill: none; stroke: #000000; stroke-width: 2; opacity: 1;"></path></g><g class="mark-line role-mark layer_17_marks"><path d="M564.9955508391062,141.875L638.754982415835,319.0622590780258" style="fill: none; stroke: #000000; stroke-width: 2; opacity: 1;"></path></g><g class="mark-line role-mark layer_18_marks"><path d="M664.1175670862198,141.875L763.2395833333333,141.875" style="fill: none; stroke: #000000; stroke-width: 2; opacity: 1;"></path></g><g class="mark-line role-mark layer_19_marks"><path d="M638.754982415835,319.0622590780258L664.1175670862198,141.875" style="fill: none; stroke: #000000; stroke-width: 2; opacity: 1;"></path></g><g class="mark-line role-mark layer_20_marks"><path d="M664.1175670862198,141.875L716.8514789660773,245.14546471834183" style="fill: none; stroke: #000000; stroke-width: 2; opacity: 1;"></path></g><g class="mark-line role-mark layer_21_marks"><path d="M716.8514789660773,245.14546471834183L763.2395833333333,141.875" style="fill: none; stroke: #000000; stroke-width: 2; opacity: 1;"></path></g><g class="mark-line role-mark layer_22_marks"><path d="M115.7735309595863,245.14546471834183L193.8700308183829,319.0622590780258" style="fill: none; stroke: #000000; stroke-width: 2; opacity: 1;"></path></g><g class="mark-line role-mark layer_23_marks"><path d="M193.8700308183829,319.0622590780258L305.09004124403003,319.21875" style="fill: none; stroke: #000000; stroke-width: 2; opacity: 1;"></path></g><g class="mark-line role-mark layer_24_marks"><path d="M305.09004124403003,319.21875L416.3125,319.21875" style="fill: none; stroke: #000000; stroke-width: 2; opacity: 1;"></path></g><g class="mark-line role-mark layer_25_marks"><path d="M416.3125,319.21875L527.5349322875342,319.21875" style="fill: none; stroke: #000000; stroke-width: 2; opacity: 1;"></path></g><g class="mark-line role-mark layer_26_marks"><path d="M527.5349322875342,319.21875L638.754982415835,319.0622590780258" style="fill: none; stroke: #000000; stroke-width: 2; opacity: 1;"></path></g><g class="mark-line role-mark layer_27_marks"><path d="M638.754982415835,319.0622590780258L716.8514789660773,245.14546471834183" style="fill: none; stroke: #000000; stroke-width: 2; opacity: 1;"></path></g><g class="mark-symbol role-mark layer_28_marks"><path transform="translate(193.8700308183829,319.0622590780258)" d="M0,0L13.693063937629153,23.716386739973693L-13.693063937629153,23.716386739973693Z" style="fill: #0096C7; stroke: #0096C7; stroke-width: 2; opacity: 1;"></path></g><g class="mark-symbol role-mark layer_29_marks"><path transform="translate(638.754982415835,319.0622590780258)" d="M0,0L13.693063937629153,23.716386739973693L-13.693063937629153,23.716386739973693ZM2.738612787525831,27.82430592126244C2.73861278752583,25.555564803899266,4.577790851451403,23.71638673997369,6.846531968814576,23.71638673997369C9.11527308617775,23.71638673997369,10.954451150103324,25.555564803899266,10.954451150103324,27.824305921262436C10.954451150103324,30.09304703862561,9.115273086177751,31.932225102551183,6.846531968814577,31.932225102551183C4.577790851451404,31.932225102551183,2.738612787525831,30.09304703862561,2.7386127875258306,27.824305921262436M-10.954451150103324,27.82430592126244C-10.954451150103324,25.555564803899266,-9.115273086177751,23.71638673997369,-6.846531968814578,23.71638673997369C-4.577790851451405,23.71638673997369,-2.738612787525831,25.555564803899266,-2.7386127875258306,27.824305921262436C-2.7386127875258306,30.09304703862561,-4.577790851451404,31.932225102551183,-6.846531968814577,31.932225102551183C-9.115273086177751,31.932225102551183,-10.954451150103324,30.09304703862561,-10.954451150103324,27.824305921262436" style="fill: #0096C7; stroke: #0096C7; stroke-width: 2; opacity: 1;"></path></g><g class="mark-symbol role-mark layer_30_marks"><path transform="translate(69.38541666666666,141.875)" d="M0,0L-10.954451150103324,-23.717082451262844L-2.738612787525831,-23.717082451262844L-2.738612787525831,-82.15838362577492L2.738612787525831,-82.15838362577492L2.738612787525831,-23.717082451262844L10.954451150103324,-23.717082451262844" style="fill: #0096C7; stroke: #0096C7; stroke-width: 2; opacity: 1;"></path><path transform="translate(168.50743953088917,141.875)" d="M0,0L-10.954451150103324,-23.717082451262844L-2.738612787525831,-23.717082451262844L-2.738612787525831,-82.15838362577492L2.738612787525831,-82.15838362577492L2.738612787525831,-23.717082451262844L10.954451150103324,-23.717082451262844" style="fill: #0096C7; stroke: #0096C7; stroke-width: 2; opacity: 1;"></path><path transform="translate(267.6294623951117,141.875)" d="M0,0L-10.954451150103324,-23.717082451262844L-2.738612787525831,-23.717082451262844L-2.738612787525831,-82.15838362577492L2.738612787525831,-82.15838362577492L2.738612787525831,-23.717082451262844L10.954451150103324,-23.717082451262844" style="fill: #0096C7; stroke: #0096C7; stroke-width: 2; opacity: 1;"></path><path transform="translate(366.7514918764432,141.875)" d="M0,0L-10.954451150103324,-23.717082451262844L-2.738612787525831,-23.717082451262844L-2.738612787525831,-82.15838362577492L2.738612787525831,-82.15838362577492L2.738612787525831,-23.717082451262844L10.954451150103324,-23.717082451262844" style="fill: #0096C7; stroke: #0096C7; stroke-width: 2; opacity: 1;"></path><path transform="translate(465.87350812355675,141.875)" d="M0,0L-10.954451150103324,-23.717082451262844L-2.738612787525831,-23.717082451262844L-2.738612787525831,-82.15838362577492L2.738612787525831,-82.15838362577492L2.738612787525831,-23.717082451262844L10.954451150103324,-23.717082451262844" style="fill: #0096C7; stroke: #0096C7; stroke-width: 2; opacity: 1;"></path><path transform="translate(564.9955508391062,141.875)" d="M0,0L-10.954451150103324,-23.717082451262844L-2.738612787525831,-23.717082451262844L-2.738612787525831,-82.15838362577492L2.738612787525831,-82.15838362577492L2.738612787525831,-23.717082451262844L10.954451150103324,-23.717082451262844" style="fill: #0096C7; stroke: #0096C7; stroke-width: 2; opacity: 1;"></path><path transform="translate(664.1175670862198,141.875)" d="M0,0L-10.954451150103324,-23.717082451262844L-2.738612787525831,-23.717082451262844L-2.738612787525831,-82.15838362577492L2.738612787525831,-82.15838362577492L2.738612787525831,-23.717082451262844L10.954451150103324,-23.717082451262844" style="fill: #0096C7; stroke: #0096C7; stroke-width: 2; opacity: 1;"></path><path transform="translate(763.2395833333333,141.875)" d="M0,0L-10.954451150103324,-23.717082451262844L-2.738612787525831,-23.717082451262844L-2.738612787525831,-82.15838362577492L2.738612787525831,-82.15838362577492L2.738612787525831,-23.717082451262844L10.954451150103324,-23.717082451262844" style="fill: #0096C7; stroke: #0096C7; stroke-width: 2; opacity: 1;"></path></g><g class="mark-group role-scope layer_31_pathgroup"><g transform="translate(0,0)"><path class="background" d="M0,0h832.625v454h-832.625Z" style="fill: none;"></path><g><g class="mark-line role-mark layer_31_marks"><path d="M69.38541666666666,432.71875L763.2395833333333,432.71875" style="fill: none; stroke: #000000; stroke-width: 1;"></path></g></g><path class="foreground" d="" style="display: none; fill: none;"></path></g><g transform="translate(0,0)"><path class="background" d="M0,0h832.625v454h-832.625Z" style="fill: none;"></path><g><g class="mark-line role-mark layer_31_marks"><path d="M69.38541666666666,441.23125000000005L69.38541666666666,424.20624999999995" style="fill: none; stroke: #000000; stroke-width: 1;"></path></g></g><path class="foreground" d="" style="display: none; fill: none;"></path></g><g transform="translate(0,0)"><path class="background" d="M0,0h832.625v454h-832.625Z" style="fill: none;"></path><g><g class="mark-line role-mark layer_31_marks"><path d="M763.2395833333333,441.23125000000005L763.2395833333333,424.20624999999995" style="fill: none; stroke: #000000; stroke-width: 1;"></path></g></g><path class="foreground" d="" style="display: none; fill: none;"></path></g><g transform="translate(0,0)"><path class="background" d="M0,0h832.625v454h-832.625Z" style="fill: none;"></path><g><g class="mark-line role-mark layer_31_marks"><path d="M27.754166666666666,319.21875L27.754166666666666,141.875" style="fill: none; stroke: #000000; stroke-width: 1;"></path></g></g><path class="foreground" d="" style="display: none; fill: none;"></path></g><g transform="translate(0,0)"><path class="background" d="M0,0h832.625v454h-832.625Z" style="fill: none;"></path><g><g class="mark-line role-mark layer_31_marks"><path d="M19.427916666666665,141.875L36.080416666666665,141.875" style="fill: none; stroke: #000000; stroke-width: 1;"></path></g></g><path class="foreground" d="" style="display: none; fill: none;"></path></g><g transform="translate(0,0)"><path class="background" d="M0,0h832.625v454h-832.625Z" style="fill: none;"></path><g><g class="mark-line role-mark layer_31_marks"><path d="M19.427916666666665,319.21875L36.080416666666665,319.21875" style="fill: none; stroke: #000000; stroke-width: 1;"></path></g></g><path class="foreground" d="" style="display: none; fill: none;"></path></g><g transform="translate(0,0)"><path class="background" d="M0,0h832.625v454h-832.625Z" style="fill: none;"></path><g><g class="mark-line role-mark layer_31_marks"><path d="M69.38541666666666,390.15625L168.50744047619048,390.15625" style="fill: none; stroke: #000000; stroke-width: 1;"></path></g></g><path class="foreground" d="" style="display: none; fill: none;"></path></g><g transform="translate(0,0)"><path class="background" d="M0,0h832.625v454h-832.625Z" style="fill: none;"></path><g><g class="mark-line role-mark layer_31_marks"><path d="M69.38541666666666,398.66875000000005L69.38541666666666,381.64374999999995" style="fill: none; stroke: #000000; stroke-width: 1;"></path></g></g><path class="foreground" d="" style="display: none; fill: none;"></path></g><g transform="translate(0,0)"><path class="background" d="M0,0h832.625v454h-832.625Z" style="fill: none;"></path><g><g class="mark-line role-mark layer_31_marks"><path d="M168.50744047619048,398.66875000000005L168.50744047619048,381.64374999999995" style="fill: none; stroke: #000000; stroke-width: 1;"></path></g></g><path class="foreground" d="" style="display: none; fill: none;"></path></g></g><g class="mark-text role-mark layer_32_marks"><text text-anchor="middle" transform="translate(416.3125,460.71875)" style="font-family: Arial; font-size: 25px; fill: black; opacity: 1;">15.24 m (50.0 ft)</text></g><g class="mark-text role-mark layer_33_marks"><text text-anchor="start" transform="translate(178.50744047619048,398.15625)" style="font-family: Arial; font-size: 25px; fill: black; opacity: 1;">2.18 m (7.14 ft)</text></g><g class="mark-text role-mark layer_34_marks"><text text-anchor="middle" transform="translate(27.754166666666666,230.546875) rotate(270) translate(0,-13)" style="font-family: Arial; font-size: 25px; fill: black; opacity: 1;">3.81 m (12.5 ft)</text></g><g class="mark-text role-mark layer_35_marks"><text text-anchor="start" transform="translate(777.1166666666667,78.9375)" style="font-family: Arial; font-size: 25px; fill: black; opacity: 1;"><tspan>11.12 kN</tspan><tspan x="0" dy="27">(2.5 kips)</tspan></text></g><g class="mark-group role-title"><g transform="translate(416.3125,-44)"><path class="background" d="M0,0h0v0h0Z" style="pointer-events: none; fill: none;"></path><g><g class="mark-text role-title-text" style="pointer-events: none;"><text text-anchor="middle" transform="translate(0,82)" style="font-family: Arial; font-size: 40px; font-weight: normal; fill: #000; opacity: 1;">Loads and supports</text></g></g><path class="foreground" d="" style="pointer-events: none; display: none; fill: none;"></path></g></g></g><path class="foreground" d="" style="display: none; fill: none;"></path></g></g></g></svg>