<svg class="marks" width="1781.25" height="1318.125" viewBox="0 0 1781.25 1318.125" version="1.1" xmlns="http://www.w3.org/2000/svg" xmlns:xlink="http://www.w3.org/1999/xlink"><rect width="1781.25" height="1318.125" style="fill: white;"></rect><g transform="translate(27,5)"><g class="mark-group role-frame root"><g transform="translate(0,0)"><path class="background" d="M0.5,0.5h1727.25v1308.125h-1727.25Z" style="fill: none; stroke: #ddd; stroke-opacity: 0;"></path><g><g class="mark-symbol role-mark layer_0_marks"><path transform="translate(0,353.5472972972973)" d="M0.5,0A0.5,0.5,0,1,1,-0.5,0A0.5,0.5,0,1,1,0.5,0" style="fill: #000000; stroke-width: 2; opacity: 0;"></path><path transform="translate(246.74999764680862,353.5472972972973)" d="M0.5,0A0.5,0.5,0,1,1,-0.5,0A0.5,0.5,0,1,1,0.5,0" style="fill: #000000; stroke-width: 2; opacity: 0;"></path><path transform="translate(493.49999529361725,353.5472972972973)" d="M0.5,0A0.5,0.5,0,1,1,-0.5,0A0.5,0.5,0,1,1,0.5,0" style="fill: #000000; stroke-width: 2; opacity: 0;"></path><path transform="translate(740.2500094127655,353.5472972972973)" d="M0.5,0A0.5,0.5,0,1,1,-0.5,0A0.5,0.5,0,1,1,0.5,0" style="fill: #000000; stroke-width: 2; opacity: 0;"></path><path transform="translate(986.9999905872345,353.5472972972973)" d="M0.5,0A0.5,0.5,0,1,1,-0.5,0A0.5,0.5,0,1,1,0.5,0" style="fill: #000000; stroke-width: 2; opacity: 0;"></path><path transform="translate(1233.750037651062,353.5472972972973)" d="M0.5,0A0.5,0.5,0,1,1,-0.5,0A0.5,0.5,0,1,1,0.5,0" style="fill: #000000; stroke-width: 2; opacity: 0;"></path><path transform="translate(1480.500018825531,353.5472972972973)" d="M0.5,0A0.5,0.5,0,1,1,-0.5,0A0.5,0.5,0,1,1,0.5,0" style="fill: #000000; stroke-width: 2; opacity: 0;"></path><path transform="translate(1727.25,353.5472972972973)" d="M0.5,0A0.5,0.5,0,1,1,-0.5,0A0.5,0.5,0,1,1,0.5,0" style="fill: #000000; stroke-width: 2; opacity: 0;"></path><path transform="translate(83.16357987999916,687.6406526726646)" d="M0.5,0A0.5,0.5,0,1,1,-0.5,0A0.5,0.5,0,1,1,0.5,0" style="fill: #000000; stroke-width: 2; opacity: 0;"></path><path transform="translate(250.44492462158203,962.8061092866434)" d="M0.5,0A0.5,0.5,0,1,1,-0.5,0A0.5,0.5,0,1,1,0.5,0" style="fill: #000000; stroke-width: 2; opacity: 0;"></path><path transform="translate(526.6791418361663,795.481418918919)" d="M0.5,0A0.5,0.5,0,1,1,-0.5,0A0.5,0.5,0,1,1,0.5,0" style="fill: #000000; stroke-width: 2; opacity: 0;"></path><path transform="translate(863.625,795.481418918919)" d="M0.5,0A0.5,0.5,0,1,1,-0.5,0A0.5,0.5,0,1,1,0.5,0" style="fill: #000000; stroke-width: 2; opacity: 0;"></path><path transform="translate(1200.570792274475,795.481418918919)" d="M0.5,0A0.5,0.5,0,1,1,-0.5,0A0.5,0.5,0,1,1,0.5,0" style="fill: #000000; stroke-width: 2; opacity: 0;"></path><path transform="translate(1476.805075378418,962.8061092866434)" d="M0.5,0A0.5,0.5,0,1,1,-0.5,0A0.5,0.5,0,1,1,0.5,0" style="fill: #000000; stroke-width: 2; opacity: 0;"></path><path transform="translate(1644.0864283561705,687.6406526726646)" d="M0.5,0A0.5,0.5,0,1,1,-0.5,0A0.5,0.5,0,1,1,0.5,0" style="fill: #000000; stroke-width: 2; opacity: 0;"></path></g><g class="mark-line role-mark layer_1_marks"><path d="M0,353.5472972972973L246.74999764680862,353.5472972972973" style="fill: none; stroke: #000000; stroke-width: 8; opacity: 1;"></path></g><g class="mark-line role-mark layer_2_marks"><path d="M0,353.5472972972973L83.16357987999916,687.6406526726646" style="fill: none; stroke: #000000; stroke-width: 8; opacity: 1;"></path></g><g class="mark-line role-mark layer_3_marks"><path d="M246.74999764680862,353.5472972972973L493.49999529361725,353.5472972972973" style="fill: none; stroke: #000000; stroke-width: 8; opacity: 1;"></path></g><g class="mark-line role-mark layer_4_marks"><path d="M83.16357987999916,687.6406526726646L246.74999764680862,353.5472972972973" style="fill: none; stroke: #000000; stroke-width: 8; opacity: 1;"></path></g><g class="mark-line role-mark layer_5_marks"><path d="M246.74999764680862,353.5472972972973L250.44492462158203,962.8061092866434" style="fill: none; stroke: #000000; stroke-width: 8; opacity: 1;"></path></g><g class="mark-line role-mark layer_6_marks"><path d="M493.49999529361725,353.5472972972973L740.2500094127655,353.5472972972973" style="fill: none; stroke: #000000; stroke-width: 8; opacity: 1;"></path></g><g class="mark-line role-mark layer_7_marks"><path d="M250.44492462158203,962.8061092866434L493.49999529361725,353.5472972972973" style="fill: none; stroke: #000000; stroke-width: 8; opacity: 1;"></path></g><g class="mark-line role-mark layer_8_marks"><path d="M493.49999529361725,353.5472972972973L526.6791418361663,795.481418918919" style="fill: none; stroke: #000000; stroke-width: 8; opacity: 1;"></path></g><g class="mark-line role-mark layer_9_marks"><path d="M740.2500094127655,353.5472972972973L986.9999905872345,353.5472972972973" style="fill: none; stroke: #000000; stroke-width: 8; opacity: 1;"></path></g><g class="mark-line role-mark layer_10_marks"><path d="M526.6791418361663,795.481418918919L740.2500094127655,353.5472972972973" style="fill: none; stroke: #000000; stroke-width: 8; opacity: 1;"></path></g><g class="mark-line role-mark layer_11_marks"><path d="M740.2500094127655,353.5472972972973L863.625,795.481418918919" style="fill: none; stroke: #000000; stroke-width: 8; opacity: 1;"></path></g><g class="mark-line role-mark layer_12_marks"><path d="M986.9999905872345,353.5472972972973L1233.750037651062,353.5472972972973" style="fill: none; stroke: #000000; stroke-width: 8; opacity: 1;"></path></g><g class="mark-line role-mark layer_13_marks"><path d="M863.625,795.481418918919L986.9999905872345,353.5472972972973" style="fill: none; stroke: #000000; stroke-width: 8; opacity: 1;"></path></g><g class="mark-line role-mark layer_14_marks"><path d="M986.9999905872345,353.5472972972973L1200.570792274475,795.481418918919" style="fill: none; stroke: #000000; stroke-width: 8; opacity: 1;"></path></g><g class="mark-line role-mark layer_15_marks"><path d="M1233.750037651062,353.5472972972973L1480.500018825531,353.5472972972973" style="fill: none; stroke: #000000; stroke-width: 8; opacity: 1;"></path></g><g class="mark-line role-mark layer_16_marks"><path d="M1200.570792274475,795.481418918919L1233.750037651062,353.5472972972973" style="fill: none; stroke: #000000; stroke-width: 8; opacity: 1;"></path></g><g class="mark-line role-mark layer_17_marks"><path d="M1233.750037651062,353.5472972972973L1476.805075378418,962.8061092866434" style="fill: none; stroke: #000000; stroke-width: 8; opacity: 1;"></path></g><g class="mark-line role-mark layer_18_marks"><path d="M1480.500018825531,353.5472972972973L1727.25,353.5472972972973" style="fill: none; stroke: #000000; stroke-width: 8; opacity: 1;"></path></g><g class="mark-line role-mark layer_19_marks"><path d="M1476.805075378418,962.8061092866434L1480.500018825531,353.5472972972973" style="fill: none; stroke: #000000; stroke-width: 8; opacity: 1;"></path></g><g class="mark-line role-mark layer_20_marks"><path d="M1480.500018825531,353.5472972972973L1644.0864283561705,687.6406526726646" style="fill: none; stroke: #000000; stroke-width: 8; opacity: 1;"></path></g><g class="mark-line role-mark layer_21_marks"><path d="M1644.0864283561705,687.6406526726646L1727.25,353.5472972972973" style="fill: none; stroke: #000000; stroke-width: 8; opacity: 1;"></path></g><g class="mark-line role-mark layer_22_marks"><path d="M83.16357987999916,687.6406526726646L250.44492462158203,962.8061092866434" style="fill: none; stroke: #000000; stroke-width: 8; opacity: 1;"></path></g><g class="mark-line role-mark layer_23_marks"><path d="M250.44492462158203,962.8061092866434L526.6791418361663,795.481418918919" style="fill: none; stroke: #000000; stroke-width: 8; opacity: 1;"></path></g><g class="mark-line role-mark layer_24_marks"><path d="M526.6791418361663,795.481418918919L863.625,795.481418918919" style="fill: none; stroke: #000000; stroke-width: 8; opacity: 1;"></path></g><g class="mark-line role-mark layer_25_marks"><path d="M863.625,795.481418918919L1200.570792274475,795.481418918919" style="fill: none; stroke: #000000; stroke-width: 8; opacity: 1;"></path></g><g class="mark-line role-mark layer_26_marks"><path d="M1200.570792274475,795.481418918919L1476.805075378418,962.8061092866434" style="fill: none; stroke: #000000; stroke-width: 8; opacity: 1;"></path></g><g class="mark-line role-mark layer_27_marks"><path d="M1476.805075378418,962.8061092866434L1644.0864283561705,687.6406526726646" style="fill: none; stroke: #000000; stroke-width: 8; opacity: 1;"></path></g><g class="mark-symbol role-mark layer_28_marks"><path transform="translate(250.44492462158203,962.8061092866434)" d="M0,0L43.30127018922193,74.99779996773239L-43.30127018922193,74.99779996773239Z" style="fill: #0096C7; stroke: #0096C7; stroke-width: 2; opacity: 1;"></path></g><g class="mark-symbol role-mark layer_29_marks"><path transform="translate(1476.805075378418,962.8061092866434)" d="M0,0L43.30127018922193,74.99779996773239L-43.30127018922193,74.99779996773239ZM8.660254037844387,87.98818102449897C8.66025403784439,80.81379167235596,14.47624574246796,74.99779996773239,21.65063509461097,74.99779996773239C28.82502444675397,74.99779996773239,34.64101615137755,80.81379167235596,34.64101615137755,87.98818102449897C34.64101615137755,95.16257037664198,28.82502444675398,100.97856208126555,21.65063509461097,100.97856208126555C14.476245742467963,100.97856208126555,8.660254037844394,95.16257037664198,8.660254037844393,87.98818102449897M-34.64101615137755,87.98818102449897C-34.64101615137755,80.81379167235596,-28.825024446753986,74.99779996773239,-21.650635094610973,74.99779996773239C-14.476245742467965,74.99779996773239,-8.660254037844394,80.81379167235596,-8.660254037844393,87.98818102449897C-8.660254037844393,95.16257037664198,-14.476245742467963,100.97856208126555,-21.65063509461097,100.97856208126555C-28.82502444675398,100.97856208126555,-34.64101615137755,95.16257037664198,-34.64101615137755,87.98818102449897" style="fill: #0096C7; stroke: #0096C7; stroke-width: 2; opacity: 1;"></path></g><g class="mark-symbol role-mark layer_30_marks"><path transform="translate(0,353.5472972972973)" d="M0,0L-20,-43.30127018922193L-5,-43.30127018922193L-5,-150L5,-150L5,-43.30127018922193L20,-43.30127018922193" style="fill: #0096C7; stroke: #0096C7; stroke-width: 2; opacity: 1;"></path><path transform="translate(246.74999764680862,353.5472972972973)" d="M0,0L-20,-43.30127018922193L-5,-43.30127018922193L-5,-150L5,-150L5,-43.30127018922193L20,-43.30127018922193" style="fill: #0096C7; stroke: #0096C7; stroke-width: 2; opacity: 1;"></path><path transform="translate(493.49999529361725,353.5472972972973)" d="M0,0L-20,-43.30127018922193L-5,-43.30127018922193L-5,-150L5,-150L5,-43.30127018922193L20,-43.30127018922193" style="fill: #0096C7; stroke: #0096C7; stroke-width: 2; opacity: 1;"></path><path transform="translate(740.2500094127655,353.5472972972973)" d="M0,0L-20,-43.30127018922193L-5,-43.30127018922193L-5,-150L5,-150L5,-43.30127018922193L20,-43.30127018922193" style="fill: #0096C7; stroke: #0096C7; stroke-width: 2; opacity: 1;"></path><path transform="translate(986.9999905872345,353.5472972972973)" d="M0,0L-20,-43.30127018922193L-5,-43.30127018922193L-5,-150L5,-150L5,-43.30127018922193L20,-43.30127018922193" style="fill: #0096C7; stroke: #0096C7; stroke-width: 2; opacity: 1;"></path><path transform="translate(1233.750037651062,353.5472972972973)" d="M0,0L-20,-43.30127018922193L-5,-43.30127018922193L-5,-150L5,-150L5,-43.30127018922193L20,-43.30127018922193" style="fill: #0096C7; stroke: #0096C7; stroke-width: 2; opacity: 1;"></path><path transform="translate(1480.500018825531,353.5472972972973)" d="M0,0L-20,-43.30127018922193L-5,-43.30127018922193L-5,-150L5,-150L5,-43.30127018922193L20,-43.30127018922193" style="fill: #0096C7; stroke: #0096C7; stroke-width: 2; opacity: 1;"></path><path transform="translate(1727.25,353.5472972972973)" d="M0,0L-20,-43.30127018922193L-5,-43.30127018922193L-5,-150L5,-150L5,-43.30127018922193L20,-43.30127018922193" style="fill: #0096C7; stroke: #0096C7; stroke-width: 2; opacity: 1;"></path></g></g><path class="foreground" d="" style="display: none; fill: none;"></path></g></g></g></svg>