<svg class="marks" width="1781.25" height="1318.125" viewBox="0 0 1781.25 1318.125" version="1.1" xmlns="http://www.w3.org/2000/svg" xmlns:xlink="http://www.w3.org/1999/xlink"><g transform="translate(24,5)"><g class="mark-group role-frame root"><g transform="translate(0,0)"><path class="background" d="M0.5,0.5h1716.25v1308.125h-1716.25Z" style="fill: none; stroke: #ddd; stroke-opacity: 0;"></path><g><g class="mark-symbol role-mark layer_0_marks"><path transform="translate(0,353.5472972972973)" d="M0.5,0A0.5,0.5,0,1,1,-0.5,0A0.5,0.5,0,1,1,0.5,0" style="fill: #C7D5E5; stroke-width: 2; opacity: 0;"></path><path transform="translate(245.17856909036638,353.5472972972973)" d="M0.5,0A0.5,0.5,0,1,1,-0.5,0A0.5,0.5,0,1,1,0.5,0" style="fill: #C7D5E5; stroke-width: 2; opacity: 0;"></path><path transform="translate(490.35713818073276,353.5472972972973)" d="M0.5,0A0.5,0.5,0,1,1,-0.5,0A0.5,0.5,0,1,1,0.5,0" style="fill: #C7D5E5; stroke-width: 2; opacity: 0;"></path><path transform="translate(735.5357236385345,353.5472972972973)" d="M0.5,0A0.5,0.5,0,1,1,-0.5,0A0.5,0.5,0,1,1,0.5,0" style="fill: #C7D5E5; stroke-width: 2; opacity: 0;"></path><path transform="translate(980.7142763614655,353.5472972972973)" d="M0.5,0A0.5,0.5,0,1,1,-0.5,0A0.5,0.5,0,1,1,0.5,0" style="fill: #C7D5E5; stroke-width: 2; opacity: 0;"></path><path transform="translate(1225.8928945541381,353.5472972972973)" d="M0.5,0A0.5,0.5,0,1,1,-0.5,0A0.5,0.5,0,1,1,0.5,0" style="fill: #C7D5E5; stroke-width: 2; opacity: 0;"></path><path transform="translate(1471.071447277069,353.5472972972973)" d="M0.5,0A0.5,0.5,0,1,1,-0.5,0A0.5,0.5,0,1,1,0.5,0" style="fill: #C7D5E5; stroke-width: 2; opacity: 0;"></path><path transform="translate(1716.25,353.5472972972973)" d="M0.5,0A0.5,0.5,0,1,1,-0.5,0A0.5,0.5,0,1,1,0.5,0" style="fill: #C7D5E5; stroke-width: 2; opacity: 0;"></path><path transform="translate(114.74111561179161,610.8935083408613)" d="M0.5,0A0.5,0.5,0,1,1,-0.5,0A0.5,0.5,0,1,1,0.5,0" style="fill: #C7D5E5; stroke-width: 2; opacity: 0;"></path><path transform="translate(307.91300146579744,795.091449280043)" d="M0.5,0A0.5,0.5,0,1,1,-0.5,0A0.5,0.5,0,1,1,0.5,0" style="fill: #C7D5E5; stroke-width: 2; opacity: 0;"></path><path transform="translate(583.0159727573396,795.481418918919)" d="M0.5,0A0.5,0.5,0,1,1,-0.5,0A0.5,0.5,0,1,1,0.5,0" style="fill: #C7D5E5; stroke-width: 2; opacity: 0;"></path><path transform="translate(858.125,795.481418918919)" d="M0.5,0A0.5,0.5,0,1,1,-0.5,0A0.5,0.5,0,1,1,0.5,0" style="fill: #C7D5E5; stroke-width: 2; opacity: 0;"></path><path transform="translate(1133.2339617729187,795.481418918919)" d="M0.5,0A0.5,0.5,0,1,1,-0.5,0A0.5,0.5,0,1,1,0.5,0" style="fill: #C7D5E5; stroke-width: 2; opacity: 0;"></path><path transform="translate(1408.3370312690736,795.091449280043)" d="M0.5,0A0.5,0.5,0,1,1,-0.5,0A0.5,0.5,0,1,1,0.5,0" style="fill: #C7D5E5; stroke-width: 2; opacity: 0;"></path><path transform="translate(1601.5089089393616,610.8935083408613)" d="M0.5,0A0.5,0.5,0,1,1,-0.5,0A0.5,0.5,0,1,1,0.5,0" style="fill: #C7D5E5; stroke-width: 2; opacity: 0;"></path></g><g class="mark-line role-mark layer_1_marks"><path d="M0,353.5472972972973L245.17856909036638,353.5472972972973" style="fill: none; stroke: #C7D5E5; stroke-width: 15; opacity: 1;"></path></g><g class="mark-line role-mark layer_2_marks"><path d="M0,353.5472972972973L114.74111561179161,610.8935083408613" style="fill: none; stroke: #C7D5E5; stroke-width: 15; opacity: 1;"></path></g><g class="mark-line role-mark layer_3_marks"><path d="M245.17856909036638,353.5472972972973L490.35713818073276,353.5472972972973" style="fill: none; stroke: #C7D5E5; stroke-width: 15; opacity: 1;"></path></g><g class="mark-line role-mark layer_4_marks"><path d="M114.74111561179161,610.8935083408613L245.17856909036638,353.5472972972973" style="fill: none; stroke: #C7D5E5; stroke-width: 15; opacity: 1;"></path></g><g class="mark-line role-mark layer_5_marks"><path d="M245.17856909036638,353.5472972972973L307.91300146579744,795.091449280043" style="fill: none; stroke: #C7D5E5; stroke-width: 15; opacity: 1;"></path></g><g class="mark-line role-mark layer_6_marks"><path d="M490.35713818073276,353.5472972972973L735.5357236385345,353.5472972972973" style="fill: none; stroke: #C7D5E5; stroke-width: 15; opacity: 1;"></path></g><g class="mark-line role-mark layer_7_marks"><path d="M307.91300146579744,795.091449280043L490.35713818073276,353.5472972972973" style="fill: none; stroke: #C7D5E5; stroke-width: 15; opacity: 1;"></path></g><g class="mark-line role-mark layer_8_marks"><path d="M490.35713818073276,353.5472972972973L583.0159727573396,795.481418918919" style="fill: none; stroke: #C7D5E5; stroke-width: 15; opacity: 1;"></path></g><g class="mark-line role-mark layer_9_marks"><path d="M735.5357236385345,353.5472972972973L980.7142763614655,353.5472972972973" style="fill: none; stroke: #C7D5E5; stroke-width: 15; opacity: 1;"></path></g><g class="mark-line role-mark layer_10_marks"><path d="M583.0159727573396,795.481418918919L735.5357236385345,353.5472972972973" style="fill: none; stroke: #C7D5E5; stroke-width: 15; opacity: 1;"></path></g><g class="mark-line role-mark layer_11_marks"><path d="M735.5357236385345,353.5472972972973L858.125,795.481418918919" style="fill: none; stroke: #C7D5E5; stroke-width: 15; opacity: 1;"></path></g><g class="mark-line role-mark layer_12_marks"><path d="M980.7142763614655,353.5472972972973L1225.8928945541381,353.5472972972973" style="fill: none; stroke: #C7D5E5; stroke-width: 15; opacity: 1;"></path></g><g class="mark-line role-mark layer_13_marks"><path d="M858.125,795.481418918919L980.7142763614655,353.5472972972973" style="fill: none; stroke: #C7D5E5; stroke-width: 15; opacity: 1;"></path></g><g class="mark-line role-mark layer_14_marks"><path d="M980.7142763614655,353.5472972972973L1133.2339617729187,795.481418918919" style="fill: none; stroke: #C7D5E5; stroke-width: 15; opacity: 1;"></path></g><g class="mark-line role-mark layer_15_marks"><path d="M1225.8928945541381,353.5472972972973L1471.071447277069,353.5472972972973" style="fill: none; stroke: #C7D5E5; stroke-width: 15; opacity: 1;"></path></g><g class="mark-line role-mark layer_16_marks"><path d="M1133.2339617729187,795.481418918919L1225.8928945541381,353.5472972972973" style="fill: none; stroke: #C7D5E5; stroke-width: 15; opacity: 1;"></path></g><g class="mark-line role-mark layer_17_marks"><path d="M1225.8928945541381,353.5472972972973L1408.3370312690736,795.091449280043" style="fill: none; stroke: #C7D5E5; stroke-width: 15; opacity: 1;"></path></g><g class="mark-line role-mark layer_18_marks"><path d="M1471.071447277069,353.5472972972973L1716.25,353.5472972972973" style="fill: none; stroke: #C7D5E5; stroke-width: 15; opacity: 1;"></path></g><g class="mark-line role-mark layer_19_marks"><path d="M1408.3370312690736,795.091449280043L1471.071447277069,353.5472972972973" style="fill: none; stroke: #C7D5E5; stroke-width: 15; opacity: 1;"></path></g><g class="mark-line role-mark layer_20_marks"><path d="M1471.071447277069,353.5472972972973L1601.5089089393616,610.8935083408613" style="fill: none; stroke: #C7D5E5; stroke-width: 15; opacity: 1;"></path></g><g class="mark-line role-mark layer_21_marks"><path d="M1601.5089089393616,610.8935083408613L1716.25,353.5472972972973" style="fill: none; stroke: #C7D5E5; stroke-width: 15; opacity: 1;"></path></g><g class="mark-line role-mark layer_22_marks"><path d="M114.74111561179161,610.8935083408613L307.91300146579744,795.091449280043" style="fill: none; stroke: #C7D5E5; stroke-width: 15; opacity: 1;"></path></g><g class="mark-line role-mark layer_23_marks"><path d="M307.91300146579744,795.091449280043L583.0159727573396,795.481418918919" style="fill: none; stroke: #C7D5E5; stroke-width: 15; opacity: 1;"></path></g><g class="mark-line role-mark layer_24_marks"><path d="M583.0159727573396,795.481418918919L858.125,795.481418918919" style="fill: none; stroke: #C7D5E5; stroke-width: 15; opacity: 1;"></path></g><g class="mark-line role-mark layer_25_marks"><path d="M858.125,795.481418918919L1133.2339617729187,795.481418918919" style="fill: none; stroke: #C7D5E5; stroke-width: 15; opacity: 1;"></path></g><g class="mark-line role-mark layer_26_marks"><path d="M1133.2339617729187,795.481418918919L1408.3370312690736,795.091449280043" style="fill: none; stroke: #C7D5E5; stroke-width: 15; opacity: 1;"></path></g><g class="mark-line role-mark layer_27_marks"><path d="M1408.3370312690736,795.091449280043L1601.5089089393616,610.8935083408613" style="fill: none; stroke: #C7D5E5; stroke-width: 15; opacity: 1;"></path></g><g class="mark-symbol role-mark layer_28_marks"><path transform="translate(-3.249819523654878,401.8157084286213)" d="M0.5,0A0.5,0.5,0,1,1,-0.5,0A0.5,0.5,0,1,1,0.5,0" style="fill: #0096C7; stroke-width: 2; opacity: 0;"></path><path transform="translate(248.12197411060333,387.89100056161755)" d="M0.5,0A0.5,0.5,0,1,1,-0.5,0A0.5,0.5,0,1,1,0.5,0" style="fill: #0096C7; stroke-width: 2; opacity: 0;"></path><path transform="translate(504.9606551170349,422.3007847308307)" d="M0.5,0A0.5,0.5,0,1,1,-0.5,0A0.5,0.5,0,1,1,0.5,0" style="fill: #0096C7; stroke-width: 2; opacity: 0;"></path><path transform="translate(747.4078756809234,485.1798697983896)" d="M0.5,0A0.5,0.5,0,1,1,-0.5,0A0.5,0.5,0,1,1,0.5,0" style="fill: #0096C7; stroke-width: 2; opacity: 0;"></path><path transform="translate(985.0612708091736,485.1798697983896)" d="M0.5,0A0.5,0.5,0,1,1,-0.5,0A0.5,0.5,0,1,1,0.5,0" style="fill: #0096C7; stroke-width: 2; opacity: 0;"></path><path transform="translate(1227.508556842804,422.3007847308307)" d="M0.5,0A0.5,0.5,0,1,1,-0.5,0A0.5,0.5,0,1,1,0.5,0" style="fill: #0096C7; stroke-width: 2; opacity: 0;"></path><path transform="translate(1484.3471396446228,387.89100056161755)" d="M0.5,0A0.5,0.5,0,1,1,-0.5,0A0.5,0.5,0,1,1,0.5,0" style="fill: #0096C7; stroke-width: 2; opacity: 0;"></path><path transform="translate(1735.718999004364,401.8157084286213)" d="M0.5,0A0.5,0.5,0,1,1,-0.5,0A0.5,0.5,0,1,1,0.5,0" style="fill: #0096C7; stroke-width: 2; opacity: 0;"></path><path transform="translate(102.11052116155625,644.7376536195343)" d="M0.5,0A0.5,0.5,0,1,1,-0.5,0A0.5,0.5,0,1,1,0.5,0" style="fill: #0096C7; stroke-width: 2; opacity: 0;"></path><path transform="translate(307.91300146579744,795.091449280043)" d="M0.5,0A0.5,0.5,0,1,1,-0.5,0A0.5,0.5,0,1,1,0.5,0" style="fill: #0096C7; stroke-width: 2; opacity: 0;"></path><path transform="translate(582.6816842556,893.586498386151)" d="M0.5,0A0.5,0.5,0,1,1,-0.5,0A0.5,0.5,0,1,1,0.5,0" style="fill: #0096C7; stroke-width: 2; opacity: 0;"></path><path transform="translate(866.2346059799194,928.2212711991491)" d="M0.5,0A0.5,0.5,0,1,1,-0.5,0A0.5,0.5,0,1,1,0.5,0" style="fill: #0096C7; stroke-width: 2; opacity: 0;"></path><path transform="translate(1149.7873312950135,893.586498386151)" d="M0.5,0A0.5,0.5,0,1,1,-0.5,0A0.5,0.5,0,1,1,0.5,0" style="fill: #0096C7; stroke-width: 2; opacity: 0;"></path><path transform="translate(1424.5562432289123,795.091449280043)" d="M0.5,0A0.5,0.5,0,1,1,-0.5,0A0.5,0.5,0,1,1,0.5,0" style="fill: #0096C7; stroke-width: 2; opacity: 0;"></path><path transform="translate(1630.3586744308473,644.7376536195343)" d="M0.5,0A0.5,0.5,0,1,1,-0.5,0A0.5,0.5,0,1,1,0.5,0" style="fill: #0096C7; stroke-width: 2; opacity: 0;"></path></g><g class="mark-line role-mark layer_29_marks"><path d="M-3.249819523654878,401.8157084286213L248.12197411060333,387.89100056161755" style="fill: none; stroke: #0096C7; stroke-width: 15; opacity: 1;"></path></g><g class="mark-line role-mark layer_30_marks"><path d="M-3.249819523654878,401.8157084286213L102.11052116155625,644.7376536195343" style="fill: none; stroke: #0096C7; stroke-width: 15; opacity: 1;"></path></g><g class="mark-line role-mark layer_31_marks"><path d="M248.12197411060333,387.89100056161755L504.9606551170349,422.3007847308307" style="fill: none; stroke: #0096C7; stroke-width: 15; opacity: 1;"></path></g><g class="mark-line role-mark layer_32_marks"><path d="M102.11052116155625,644.7376536195343L248.12197411060333,387.89100056161755" style="fill: none; stroke: #0096C7; stroke-width: 15; opacity: 1;"></path></g><g class="mark-line role-mark layer_33_marks"><path d="M248.12197411060333,387.89100056161755L307.91300146579744,795.091449280043" style="fill: none; stroke: #0096C7; stroke-width: 15; opacity: 1;"></path></g><g class="mark-line role-mark layer_34_marks"><path d="M504.9606551170349,422.3007847308307L747.4078756809234,485.1798697983896" style="fill: none; stroke: #0096C7; stroke-width: 15; opacity: 1;"></path></g><g class="mark-line role-mark layer_35_marks"><path d="M307.91300146579744,795.091449280043L504.9606551170349,422.3007847308307" style="fill: none; stroke: #0096C7; stroke-width: 15; opacity: 1;"></path></g><g class="mark-line role-mark layer_36_marks"><path d="M504.9606551170349,422.3007847308307L582.6816842556,893.586498386151" style="fill: none; stroke: #0096C7; stroke-width: 15; opacity: 1;"></path></g><g class="mark-line role-mark layer_37_marks"><path d="M747.4078756809234,485.1798697983896L985.0612708091736,485.1798697983896" style="fill: none; stroke: #0096C7; stroke-width: 15; opacity: 1;"></path></g><g class="mark-line role-mark layer_38_marks"><path d="M582.6816842556,893.586498386151L747.4078756809234,485.1798697983896" style="fill: none; stroke: #0096C7; stroke-width: 15; opacity: 1;"></path></g><g class="mark-line role-mark layer_39_marks"><path d="M747.4078756809234,485.1798697983896L866.2346059799194,928.2212711991491" style="fill: none; stroke: #0096C7; stroke-width: 15; opacity: 1;"></path></g><g class="mark-line role-mark layer_40_marks"><path d="M985.0612708091736,485.1798697983896L1227.508556842804,422.3007847308307" style="fill: none; stroke: #0096C7; stroke-width: 15; opacity: 1;"></path></g><g class="mark-line role-mark layer_41_marks"><path d="M866.2346059799194,928.2212711991491L985.0612708091736,485.1798697983896" style="fill: none; stroke: #0096C7; stroke-width: 15; opacity: 1;"></path></g><g class="mark-line role-mark layer_42_marks"><path d="M985.0612708091736,485.1798697983896L1149.7873312950135,893.586498386151" style="fill: none; stroke: #0096C7; stroke-width: 15; opacity: 1;"></path></g><g class="mark-line role-mark layer_43_marks"><path d="M1227.508556842804,422.3007847308307L1484.3471396446228,387.89100056161755" style="fill: none; stroke: #0096C7; stroke-width: 15; opacity: 1;"></path></g><g class="mark-line role-mark layer_44_marks"><path d="M1149.7873312950135,893.586498386151L1227.508556842804,422.3007847308307" style="fill: none; stroke: #0096C7; stroke-width: 15; opacity: 1;"></path></g><g class="mark-line role-mark layer_45_marks"><path d="M1227.508556842804,422.3007847308307L1424.5562432289123,795.091449280043" style="fill: none; stroke: #0096C7; stroke-width: 15; opacity: 1;"></path></g><g class="mark-line role-mark layer_46_marks"><path d="M1484.3471396446228,387.89100056161755L1735.718999004364,401.8157084286213" style="fill: none; stroke: #0096C7; stroke-width: 15; opacity: 1;"></path></g><g class="mark-line role-mark layer_47_marks"><path d="M1424.5562432289123,795.091449280043L1484.3471396446228,387.89100056161755" style="fill: none; stroke: #0096C7; stroke-width: 15; opacity: 1;"></path></g><g class="mark-line role-mark layer_48_marks"><path d="M1484.3471396446228,387.89100056161755L1630.3586744308473,644.7376536195343" style="fill: none; stroke: #0096C7; stroke-width: 15; opacity: 1;"></path></g><g class="mark-line role-mark layer_49_marks"><path d="M1630.3586744308473,644.7376536195343L1735.718999004364,401.8157084286213" style="fill: none; stroke: #0096C7; stroke-width: 15; opacity: 1;"></path></g><g class="mark-line role-mark layer_50_marks"><path d="M102.11052116155625,644.7376536195343L307.91300146579744,795.091449280043" style="fill: none; stroke: #0096C7; stroke-width: 15; opacity: 1;"></path></g><g class="mark-line role-mark layer_51_marks"><path d="M307.91300146579744,795.091449280043L582.6816842556,893.586498386151" style="fill: none; stroke: #0096C7; stroke-width: 15; opacity: 1;"></path></g><g class="mark-line role-mark layer_52_marks"><path d="M582.6816842556,893.586498386151L866.2346059799194,928.2212711991491" style="fill: none; stroke: #0096C7; stroke-width: 15; opacity: 1;"></path></g><g class="mark-line role-mark layer_53_marks"><path d="M866.2346059799194,928.2212711991491L1149.7873312950135,893.586498386151" style="fill: none; stroke: #0096C7; stroke-width: 15; opacity: 1;"></path></g><g class="mark-line role-mark layer_54_marks"><path d="M1149.7873312950135,893.586498386151L1424.5562432289123,795.091449280043" style="fill: none; stroke: #0096C7; stroke-width: 15; opacity: 1;"></path></g><g class="mark-line role-mark layer_55_marks"><path d="M1424.5562432289123,795.091449280043L1630.3586744308473,644.7376536195343" style="fill: none; stroke: #0096C7; stroke-width: 15; opacity: 1;"></path></g></g><path class="foreground" d="" style="display: none; fill: none;"></path></g></g></g></svg>