<svg class="marks" width="1781.25" height="1318.125" viewBox="0 0 1781.25 1318.125" version="1.1" xmlns="http://www.w3.org/2000/svg" xmlns:xlink="http://www.w3.org/1999/xlink"><rect width="1781.25" height="1318.125" style="fill: white;"></rect><defs><clipPath id="clip1"><rect x="0" y="0" width="1755.25" height="1308.125"></rect></clipPath><clipPath id="clip2"><rect x="0" y="0" width="1755.25" height="1308.125"></rect></clipPath><clipPath id="clip3"><rect x="0" y="0" width="1755.25" height="1308.125"></rect></clipPath><clipPath id="clip4"><rect x="0" y="0" width="1755.25" height="1308.125"></rect></clipPath><clipPath id="clip5"><rect x="0" y="0" width="1755.25" height="1308.125"></rect></clipPath><clipPath id="clip6"><rect x="0" y="0" width="1755.25" height="1308.125"></rect></clipPath><clipPath id="clip7"><rect x="0" y="0" width="1755.25" height="1308.125"></rect></clipPath><clipPath id="clip8"><rect x="0" y="0" width="1755.25" height="1308.125"></rect></clipPath><clipPath id="clip9"><rect x="0" y="0" width="1755.25" height="1308.125"></rect></clipPath><clipPath id="clip10"><rect x="0" y="0" width="1755.25" height="1308.125"></rect></clipPath><clipPath id="clip11"><rect x="0" y="0" width="1755.25" height="1308.125"></rect></clipPath></defs><g transform="translate(13,5)"><g class="mark-group role-frame root"><g transform="translate(0,0)"><path class="background" d="M0.5,0.5h1755.25v1308.125h-1755.25Z" style="fill: none; stroke: #ddd; stroke-opacity: 0;"></path><g><g class="mark-symbol role-mark layer_0_marks"><path transform="translate(0,353.5472972972973)" d="M0.5,0A0.5,0.5,0,1,1,-0.5,0A0.5,0.5,0,1,1,0.5,0" style="fill: #000000; stroke-width: 2; opacity: 0;"></path><path transform="translate(250.74999760866166,353.5472972972973)" d="M0.5,0A0.5,0.5,0,1,1,-0.5,0A0.5,0.5,0,1,1,0.5,0" style="fill: #000000; stroke-width: 2; opacity: 0;"></path><path transform="translate(501.4999952173233,353.5472972972973)" d="M0.5,0A0.5,0.5,0,1,1,-0.5,0A0.5,0.5,0,1,1,0.5,0" style="fill: #000000; stroke-width: 2; opacity: 0;"></path><path transform="translate(752.2500095653534,353.5472972972973)" d="M0.5,0A0.5,0.5,0,1,1,-0.5,0A0.5,0.5,0,1,1,0.5,0" style="fill: #000000; stroke-width: 2; opacity: 0;"></path><path transform="translate(1002.9999904346466,353.5472972972973)" d="M0.5,0A0.5,0.5,0,1,1,-0.5,0A0.5,0.5,0,1,1,0.5,0" style="fill: #000000; stroke-width: 2; opacity: 0;"></path><path transform="translate(1253.7500382614137,353.5472972972973)" d="M0.5,0A0.5,0.5,0,1,1,-0.5,0A0.5,0.5,0,1,1,0.5,0" style="fill: #000000; stroke-width: 2; opacity: 0;"></path><path transform="translate(1504.5000191307067,353.5472972972973)" d="M0.5,0A0.5,0.5,0,1,1,-0.5,0A0.5,0.5,0,1,1,0.5,0" style="fill: #000000; stroke-width: 2; opacity: 0;"></path><path transform="translate(1755.25,353.5472972972973)" d="M0.5,0A0.5,0.5,0,1,1,-0.5,0A0.5,0.5,0,1,1,0.5,0" style="fill: #000000; stroke-width: 2; opacity: 0;"></path><path transform="translate(84.51172301888467,687.6406526726646)" d="M0.5,0A0.5,0.5,0,1,1,-0.5,0A0.5,0.5,0,1,1,0.5,0" style="fill: #000000; stroke-width: 2; opacity: 0;"></path><path transform="translate(254.50482208251952,962.8061092866434)" d="M0.5,0A0.5,0.5,0,1,1,-0.5,0A0.5,0.5,0,1,1,0.5,0" style="fill: #000000; stroke-width: 2; opacity: 0;"></path><path transform="translate(535.2170002651214,795.481418918919)" d="M0.5,0A0.5,0.5,0,1,1,-0.5,0A0.5,0.5,0,1,1,0.5,0" style="fill: #000000; stroke-width: 2; opacity: 0;"></path><path transform="translate(877.625,795.481418918919)" d="M0.5,0A0.5,0.5,0,1,1,-0.5,0A0.5,0.5,0,1,1,0.5,0" style="fill: #000000; stroke-width: 2; opacity: 0;"></path><path transform="translate(1220.0329327774048,795.481418918919)" d="M0.5,0A0.5,0.5,0,1,1,-0.5,0A0.5,0.5,0,1,1,0.5,0" style="fill: #000000; stroke-width: 2; opacity: 0;"></path><path transform="translate(1500.7451779174803,962.8061092866434)" d="M0.5,0A0.5,0.5,0,1,1,-0.5,0A0.5,0.5,0,1,1,0.5,0" style="fill: #000000; stroke-width: 2; opacity: 0;"></path><path transform="translate(1670.7382853507995,687.6406526726646)" d="M0.5,0A0.5,0.5,0,1,1,-0.5,0A0.5,0.5,0,1,1,0.5,0" style="fill: #000000; stroke-width: 2; opacity: 0;"></path></g><g class="mark-line role-mark layer_1_marks"><path d="M0,353.5472972972973L250.74999760866166,353.5472972972973" style="fill: none; stroke: #000000; stroke-width: 8; opacity: 1;"></path></g><g class="mark-line role-mark layer_2_marks"><path d="M0,353.5472972972973L84.51172301888467,687.6406526726646" style="fill: none; stroke: #000000; stroke-width: 8; opacity: 1;"></path></g><g class="mark-line role-mark layer_3_marks"><path d="M250.74999760866166,353.5472972972973L501.4999952173233,353.5472972972973" style="fill: none; stroke: #000000; stroke-width: 8; opacity: 1;"></path></g><g class="mark-line role-mark layer_4_marks"><path d="M84.51172301888467,687.6406526726646L250.74999760866166,353.5472972972973" style="fill: none; stroke: #000000; stroke-width: 8; opacity: 1;"></path></g><g class="mark-line role-mark layer_5_marks"><path d="M250.74999760866166,353.5472972972973L254.50482208251952,962.8061092866434" style="fill: none; stroke: #000000; stroke-width: 8; opacity: 1;"></path></g><g class="mark-line role-mark layer_6_marks"><path d="M501.4999952173233,353.5472972972973L752.2500095653534,353.5472972972973" style="fill: none; stroke: #000000; stroke-width: 8; opacity: 1;"></path></g><g class="mark-line role-mark layer_7_marks"><path d="M254.50482208251952,962.8061092866434L501.4999952173233,353.5472972972973" style="fill: none; stroke: #000000; stroke-width: 8; opacity: 1;"></path></g><g class="mark-line role-mark layer_8_marks"><path d="M501.4999952173233,353.5472972972973L535.2170002651214,795.481418918919" style="fill: none; stroke: #000000; stroke-width: 8; opacity: 1;"></path></g><g class="mark-line role-mark layer_9_marks"><path d="M752.2500095653534,353.5472972972973L1002.9999904346466,353.5472972972973" style="fill: none; stroke: #000000; stroke-width: 8; opacity: 1;"></path></g><g class="mark-line role-mark layer_10_marks"><path d="M535.2170002651214,795.481418918919L752.2500095653534,353.5472972972973" style="fill: none; stroke: #000000; stroke-width: 8; opacity: 1;"></path></g><g class="mark-line role-mark layer_11_marks"><path d="M752.2500095653534,353.5472972972973L877.625,795.481418918919" style="fill: none; stroke: #000000; stroke-width: 8; opacity: 1;"></path></g><g class="mark-line role-mark layer_12_marks"><path d="M1002.9999904346466,353.5472972972973L1253.7500382614137,353.5472972972973" style="fill: none; stroke: #000000; stroke-width: 8; opacity: 1;"></path></g><g class="mark-line role-mark layer_13_marks"><path d="M877.625,795.481418918919L1002.9999904346466,353.5472972972973" style="fill: none; stroke: #000000; stroke-width: 8; opacity: 1;"></path></g><g class="mark-line role-mark layer_14_marks"><path d="M1002.9999904346466,353.5472972972973L1220.0329327774048,795.481418918919" style="fill: none; stroke: #000000; stroke-width: 8; opacity: 1;"></path></g><g class="mark-line role-mark layer_15_marks"><path d="M1253.7500382614137,353.5472972972973L1504.5000191307067,353.5472972972973" style="fill: none; stroke: #000000; stroke-width: 8; opacity: 1;"></path></g><g class="mark-line role-mark layer_16_marks"><path d="M1220.0329327774048,795.481418918919L1253.7500382614137,353.5472972972973" style="fill: none; stroke: #000000; stroke-width: 8; opacity: 1;"></path></g><g class="mark-line role-mark layer_17_marks"><path d="M1253.7500382614137,353.5472972972973L1500.7451779174803,962.8061092866434" style="fill: none; stroke: #000000; stroke-width: 8; opacity: 1;"></path></g><g class="mark-line role-mark layer_18_marks"><path d="M1504.5000191307067,353.5472972972973L1755.25,353.5472972972973" style="fill: none; stroke: #000000; stroke-width: 8; opacity: 1;"></path></g><g class="mark-line role-mark layer_19_marks"><path d="M1500.7451779174803,962.8061092866434L1504.5000191307067,353.5472972972973" style="fill: none; stroke: #000000; stroke-width: 8; opacity: 1;"></path></g><g class="mark-line role-mark layer_20_marks"><path d="M1504.5000191307067,353.5472972972973L1670.7382853507995,687.6406526726646" style="fill: none; stroke: #000000; stroke-width: 8; opacity: 1;"></path></g><g class="mark-line role-mark layer_21_marks"><path d="M1670.7382853507995,687.6406526726646L1755.25,353.5472972972973" style="fill: none; stroke: #000000; stroke-width: 8; opacity: 1;"></path></g><g class="mark-line role-mark layer_22_marks"><path d="M84.51172301888467,687.6406526726646L254.50482208251952,962.8061092866434" style="fill: none; stroke: #000000; stroke-width: 8; opacity: 1;"></path></g><g class="mark-line role-mark layer_23_marks"><path d="M254.50482208251952,962.8061092866434L535.2170002651214,795.481418918919" style="fill: none; stroke: #000000; stroke-width: 8; opacity: 1;"></path></g><g class="mark-line role-mark layer_24_marks"><path d="M535.2170002651214,795.481418918919L877.625,795.481418918919" style="fill: none; stroke: #000000; stroke-width: 8; opacity: 1;"></path></g><g class="mark-line role-mark layer_25_marks"><path d="M877.625,795.481418918919L1220.0329327774048,795.481418918919" style="fill: none; stroke: #000000; stroke-width: 8; opacity: 1;"></path></g><g class="mark-line role-mark layer_26_marks"><path d="M1220.0329327774048,795.481418918919L1500.7451779174803,962.8061092866434" style="fill: none; stroke: #000000; stroke-width: 8; opacity: 1;"></path></g><g class="mark-line role-mark layer_27_marks"><path d="M1500.7451779174803,962.8061092866434L1670.7382853507995,687.6406526726646" style="fill: none; stroke: #000000; stroke-width: 8; opacity: 1;"></path></g><g class="mark-shape role-mark layer_28_marks" clip-path="url(#clip1)"><path transform="translate(0,0)" d="M258.274727,970.166309L240.774727,1000.477198L275.774727,1000.477198Z" style="fill: #4C78A8;"></path></g><g class="mark-shape role-mark layer_29_marks" clip-path="url(#clip2)"><path transform="translate(0,0)" d="M1522.975273,970.166309L1505.475273,1000.477198L1540.475273,1000.477198Z" style="fill: #4C78A8;"></path></g><g class="mark-shape role-mark layer_30_marks" clip-path="url(#clip3)"><path transform="translate(0,0)" d="M1539.64194,1005.166309L1539.53959,1006.172801L1539.236729,1007.138088L1538.745757,1008.02265L1538.086774,1008.790273L1537.28676,1009.40953L1536.378466,1009.85507L1535.399079,1010.108651L1534.388694,1010.159891L1533.388677,1010.006694L1532.439969,1009.655332L1531.58141,1009.120188L1530.848149,1008.423171L1530.270207,1007.592819L1529.871244,1006.663124L1529.667593,1005.67215L1529.667593,1004.660467L1529.871244,1003.669493L1530.270207,1002.739799L1530.848149,1001.909446L1531.58141,1001.21243L1532.439969,1000.677286L1533.388677,1000.325923L1534.388694,1000.172726L1535.399079,1000.223967L1536.378466,1000.477548L1537.28676,1000.923088L1538.086774,1001.542345L1538.745757,1002.309968L1539.236729,1003.19453L1539.53959,1004.159816Z" style="fill: #4C78A8;"></path><path transform="translate(0,0)" d="M1516.308606,1005.166309L1516.206256,1006.172801L1515.903396,1007.138088L1515.412424,1008.02265L1514.753441,1008.790273L1513.953427,1009.40953L1513.045133,1009.85507L1512.065745,1010.108651L1511.055361,1010.159891L1510.055344,1010.006694L1509.106636,1009.655332L1508.248077,1009.120188L1507.514816,1008.423171L1506.936873,1007.592819L1506.53791,1006.663124L1506.33426,1005.67215L1506.33426,1004.660467L1506.53791,1003.669493L1506.936873,1002.739799L1507.514816,1001.909446L1508.248077,1001.21243L1509.106636,1000.677286L1510.055344,1000.325923L1511.055361,1000.172726L1512.065745,1000.223967L1513.045133,1000.477548L1513.953427,1000.923088L1514.753441,1001.542345L1515.412424,1002.309968L1515.903396,1003.19453L1516.206256,1004.159816Z" style="fill: #4C78A8;"></path></g><g class="mark-shape role-mark layer_31_marks" clip-path="url(#clip4)"><path transform="translate(0,0)" d="M0,356.25L-8,338.929492L-2,338.929492L-2,296.25L2,296.25L2,338.929492L8,338.929492Z" style="fill: #4C78A8;"></path></g><g class="mark-shape role-mark layer_32_marks" clip-path="url(#clip5)"><path transform="translate(0,0)" d="M254.464283,356.25L246.464283,338.929492L252.464283,338.929492L252.464283,296.25L256.464283,296.25L256.464283,338.929492L262.464283,338.929492Z" style="fill: #4C78A8;"></path></g><g class="mark-shape role-mark layer_33_marks" clip-path="url(#clip6)"><path transform="translate(0,0)" d="M508.928567,356.25L500.928567,338.929492L506.928567,338.929492L506.928567,296.25L510.928567,296.25L510.928567,338.929492L516.928567,338.929492Z" style="fill: #4C78A8;"></path></g><g class="mark-shape role-mark layer_34_marks" clip-path="url(#clip7)"><path transform="translate(0,0)" d="M763.392867,356.25L755.392867,338.929492L761.392867,338.929492L761.392867,296.25L765.392867,296.25L765.392867,338.929492L771.392867,338.929492Z" style="fill: #4C78A8;"></path></g><g class="mark-shape role-mark layer_35_marks" clip-path="url(#clip8)"><path transform="translate(0,0)" d="M1017.857133,356.25L1009.857133,338.929492L1015.857133,338.929492L1015.857133,296.25L1019.857133,296.25L1019.857133,338.929492L1025.857133,338.929492Z" style="fill: #4C78A8;"></path></g><g class="mark-shape role-mark layer_36_marks" clip-path="url(#clip9)"><path transform="translate(0,0)" d="M1272.321467,356.25L1264.321467,338.929492L1270.321467,338.929492L1270.321467,296.25L1274.321467,296.25L1274.321467,338.929492L1280.321467,338.929492Z" style="fill: #4C78A8;"></path></g><g class="mark-shape role-mark layer_37_marks" clip-path="url(#clip10)"><path transform="translate(0,0)" d="M1526.785734,356.25L1518.785734,338.929492L1524.785734,338.929492L1524.785734,296.25L1528.785734,296.25L1528.785734,338.929492L1534.785734,338.929492Z" style="fill: #4C78A8;"></path></g><g class="mark-shape role-mark layer_38_marks" clip-path="url(#clip11)"><path transform="translate(0,0)" d="M1781.25,356.25L1773.25,338.929492L1779.25,338.929492L1779.25,296.25L1783.25,296.25L1783.25,338.929492L1789.25,338.929492Z" style="fill: #4C78A8;"></path></g></g><path class="foreground" d="" style="display: none; fill: none;"></path></g></g></g></svg>