<svg class="marks" width="1781.25" height="1318.125" viewBox="0 0 1781.25 1318.125" version="1.1" xmlns="http://www.w3.org/2000/svg" xmlns:xlink="http://www.w3.org/1999/xlink"><rect width="1781.25" height="1318.125" style="fill: white;"></rect><g transform="translate(13,5)"><g class="mark-group role-frame root"><g transform="translate(0,0)"><path class="background" d="M0.5,0.5h1667.25v1308.125h-1667.25Z" style="fill: none; stroke: #ddd; stroke-opacity: 0;"></path><g><g class="mark-symbol role-mark layer_0_marks"><path transform="translate(0,353.5472972972973)" d="M0.5,0A0.5,0.5,0,1,1,-0.5,0A0.5,0.5,0,1,1,0.5,0" style="fill: #C7D5E5; stroke-width: 2; opacity: 0;"></path><path transform="translate(238.17856915712358,353.5472972972973)" d="M0.5,0A0.5,0.5,0,1,1,-0.5,0A0.5,0.5,0,1,1,0.5,0" style="fill: #C7D5E5; stroke-width: 2; opacity: 0;"></path><path transform="translate(476.35713831424715,353.5472972972973)" d="M0.5,0A0.5,0.5,0,1,1,-0.5,0A0.5,0.5,0,1,1,0.5,0" style="fill: #C7D5E5; stroke-width: 2; opacity: 0;"></path><path transform="translate(714.5357233715057,353.5472972972973)" d="M0.5,0A0.5,0.5,0,1,1,-0.5,0A0.5,0.5,0,1,1,0.5,0" style="fill: #C7D5E5; stroke-width: 2; opacity: 0;"></path><path transform="translate(952.7142766284943,353.5472972972973)" d="M0.5,0A0.5,0.5,0,1,1,-0.5,0A0.5,0.5,0,1,1,0.5,0" style="fill: #C7D5E5; stroke-width: 2; opacity: 0;"></path><path transform="translate(1190.892893486023,353.5472972972973)" d="M0.5,0A0.5,0.5,0,1,1,-0.5,0A0.5,0.5,0,1,1,0.5,0" style="fill: #C7D5E5; stroke-width: 2; opacity: 0;"></path><path transform="translate(1429.0714467430114,353.5472972972973)" d="M0.5,0A0.5,0.5,0,1,1,-0.5,0A0.5,0.5,0,1,1,0.5,0" style="fill: #C7D5E5; stroke-width: 2; opacity: 0;"></path><path transform="translate(1667.25,353.5472972972973)" d="M0.5,0A0.5,0.5,0,1,1,-0.5,0A0.5,0.5,0,1,1,0.5,0" style="fill: #C7D5E5; stroke-width: 2; opacity: 0;"></path><path transform="translate(80.27470172524453,687.6406526726646)" d="M0.5,0A0.5,0.5,0,1,1,-0.5,0A0.5,0.5,0,1,1,0.5,0" style="fill: #C7D5E5; stroke-width: 2; opacity: 0;"></path><path transform="translate(241.74514434814452,962.8061092866434)" d="M0.5,0A0.5,0.5,0,1,1,-0.5,0A0.5,0.5,0,1,1,0.5,0" style="fill: #C7D5E5; stroke-width: 2; opacity: 0;"></path><path transform="translate(508.3837309169769,795.481418918919)" d="M0.5,0A0.5,0.5,0,1,1,-0.5,0A0.5,0.5,0,1,1,0.5,0" style="fill: #C7D5E5; stroke-width: 2; opacity: 0;"></path><path transform="translate(833.625,795.481418918919)" d="M0.5,0A0.5,0.5,0,1,1,-0.5,0A0.5,0.5,0,1,1,0.5,0" style="fill: #C7D5E5; stroke-width: 2; opacity: 0;"></path><path transform="translate(1158.8662054824829,795.481418918919)" d="M0.5,0A0.5,0.5,0,1,1,-0.5,0A0.5,0.5,0,1,1,0.5,0" style="fill: #C7D5E5; stroke-width: 2; opacity: 0;"></path><path transform="translate(1425.5048556518555,962.8061092866434)" d="M0.5,0A0.5,0.5,0,1,1,-0.5,0A0.5,0.5,0,1,1,0.5,0" style="fill: #C7D5E5; stroke-width: 2; opacity: 0;"></path><path transform="translate(1586.9753062248228,687.6406526726646)" d="M0.5,0A0.5,0.5,0,1,1,-0.5,0A0.5,0.5,0,1,1,0.5,0" style="fill: #C7D5E5; stroke-width: 2; opacity: 0;"></path></g><g class="mark-line role-mark layer_1_marks"><path d="M0,353.5472972972973L238.17856915712358,353.5472972972973" style="fill: none; stroke: #C7D5E5; stroke-width: 8; opacity: 1;"></path></g><g class="mark-line role-mark layer_2_marks"><path d="M0,353.5472972972973L80.27470172524453,687.6406526726646" style="fill: none; stroke: #C7D5E5; stroke-width: 8; opacity: 1;"></path></g><g class="mark-line role-mark layer_3_marks"><path d="M238.17856915712358,353.5472972972973L476.35713831424715,353.5472972972973" style="fill: none; stroke: #C7D5E5; stroke-width: 8; opacity: 1;"></path></g><g class="mark-line role-mark layer_4_marks"><path d="M80.27470172524453,687.6406526726646L238.17856915712358,353.5472972972973" style="fill: none; stroke: #C7D5E5; stroke-width: 8; opacity: 1;"></path></g><g class="mark-line role-mark layer_5_marks"><path d="M238.17856915712358,353.5472972972973L241.74514434814452,962.8061092866434" style="fill: none; stroke: #C7D5E5; stroke-width: 8; opacity: 1;"></path></g><g class="mark-line role-mark layer_6_marks"><path d="M476.35713831424715,353.5472972972973L714.5357233715057,353.5472972972973" style="fill: none; stroke: #C7D5E5; stroke-width: 8; opacity: 1;"></path></g><g class="mark-line role-mark layer_7_marks"><path d="M241.74514434814452,962.8061092866434L476.35713831424715,353.5472972972973" style="fill: none; stroke: #C7D5E5; stroke-width: 8; opacity: 1;"></path></g><g class="mark-line role-mark layer_8_marks"><path d="M476.35713831424715,353.5472972972973L508.3837309169769,795.481418918919" style="fill: none; stroke: #C7D5E5; stroke-width: 8; opacity: 1;"></path></g><g class="mark-line role-mark layer_9_marks"><path d="M714.5357233715057,353.5472972972973L952.7142766284943,353.5472972972973" style="fill: none; stroke: #C7D5E5; stroke-width: 8; opacity: 1;"></path></g><g class="mark-line role-mark layer_10_marks"><path d="M508.3837309169769,795.481418918919L714.5357233715057,353.5472972972973" style="fill: none; stroke: #C7D5E5; stroke-width: 8; opacity: 1;"></path></g><g class="mark-line role-mark layer_11_marks"><path d="M714.5357233715057,353.5472972972973L833.625,795.481418918919" style="fill: none; stroke: #C7D5E5; stroke-width: 8; opacity: 1;"></path></g><g class="mark-line role-mark layer_12_marks"><path d="M952.7142766284943,353.5472972972973L1190.892893486023,353.5472972972973" style="fill: none; stroke: #C7D5E5; stroke-width: 8; opacity: 1;"></path></g><g class="mark-line role-mark layer_13_marks"><path d="M833.625,795.481418918919L952.7142766284943,353.5472972972973" style="fill: none; stroke: #C7D5E5; stroke-width: 8; opacity: 1;"></path></g><g class="mark-line role-mark layer_14_marks"><path d="M952.7142766284943,353.5472972972973L1158.8662054824829,795.481418918919" style="fill: none; stroke: #C7D5E5; stroke-width: 8; opacity: 1;"></path></g><g class="mark-line role-mark layer_15_marks"><path d="M1190.892893486023,353.5472972972973L1429.0714467430114,353.5472972972973" style="fill: none; stroke: #C7D5E5; stroke-width: 8; opacity: 1;"></path></g><g class="mark-line role-mark layer_16_marks"><path d="M1158.8662054824829,795.481418918919L1190.892893486023,353.5472972972973" style="fill: none; stroke: #C7D5E5; stroke-width: 8; opacity: 1;"></path></g><g class="mark-line role-mark layer_17_marks"><path d="M1190.892893486023,353.5472972972973L1425.5048556518555,962.8061092866434" style="fill: none; stroke: #C7D5E5; stroke-width: 8; opacity: 1;"></path></g><g class="mark-line role-mark layer_18_marks"><path d="M1429.0714467430114,353.5472972972973L1667.25,353.5472972972973" style="fill: none; stroke: #C7D5E5; stroke-width: 8; opacity: 1;"></path></g><g class="mark-line role-mark layer_19_marks"><path d="M1425.5048556518555,962.8061092866434L1429.0714467430114,353.5472972972973" style="fill: none; stroke: #C7D5E5; stroke-width: 8; opacity: 1;"></path></g><g class="mark-line role-mark layer_20_marks"><path d="M1429.0714467430114,353.5472972972973L1586.9753062248228,687.6406526726646" style="fill: none; stroke: #C7D5E5; stroke-width: 8; opacity: 1;"></path></g><g class="mark-line role-mark layer_21_marks"><path d="M1586.9753062248228,687.6406526726646L1667.25,353.5472972972973" style="fill: none; stroke: #C7D5E5; stroke-width: 8; opacity: 1;"></path></g><g class="mark-line role-mark layer_22_marks"><path d="M80.27470172524453,687.6406526726646L241.74514434814452,962.8061092866434" style="fill: none; stroke: #C7D5E5; stroke-width: 8; opacity: 1;"></path></g><g class="mark-line role-mark layer_23_marks"><path d="M241.74514434814452,962.8061092866434L508.3837309169769,795.481418918919" style="fill: none; stroke: #C7D5E5; stroke-width: 8; opacity: 1;"></path></g><g class="mark-line role-mark layer_24_marks"><path d="M508.3837309169769,795.481418918919L833.625,795.481418918919" style="fill: none; stroke: #C7D5E5; stroke-width: 8; opacity: 1;"></path></g><g class="mark-line role-mark layer_25_marks"><path d="M833.625,795.481418918919L1158.8662054824829,795.481418918919" style="fill: none; stroke: #C7D5E5; stroke-width: 8; opacity: 1;"></path></g><g class="mark-line role-mark layer_26_marks"><path d="M1158.8662054824829,795.481418918919L1425.5048556518555,962.8061092866434" style="fill: none; stroke: #C7D5E5; stroke-width: 8; opacity: 1;"></path></g><g class="mark-line role-mark layer_27_marks"><path d="M1425.5048556518555,962.8061092866434L1586.9753062248228,687.6406526726646" style="fill: none; stroke: #C7D5E5; stroke-width: 8; opacity: 1;"></path></g><g class="mark-symbol role-mark layer_28_marks"><path transform="translate(75.13716934204102,344.0830157400184)" d="M0.5,0A0.5,0.5,0,1,1,-0.5,0A0.5,0.5,0,1,1,0.5,0" style="fill: #000000; stroke-width: 2; opacity: 0;"></path><path transform="translate(314.9845053720474,375.2797618397587)" d="M0.5,0A0.5,0.5,0,1,1,-0.5,0A0.5,0.5,0,1,1,0.5,0" style="fill: #000000; stroke-width: 2; opacity: 0;"></path><path transform="translate(555.9594789791107,436.65982103025596)" d="M0.5,0A0.5,0.5,0,1,1,-0.5,0A0.5,0.5,0,1,1,0.5,0" style="fill: #000000; stroke-width: 2; opacity: 0;"></path><path transform="translate(790.115870475769,478.0628901720047)" d="M0.5,0A0.5,0.5,0,1,1,-0.5,0A0.5,0.5,0,1,1,0.5,0" style="fill: #000000; stroke-width: 2; opacity: 0;"></path><path transform="translate(1021.0324504566191,478.0628901720047)" d="M0.5,0A0.5,0.5,0,1,1,-0.5,0A0.5,0.5,0,1,1,0.5,0" style="fill: #000000; stroke-width: 2; opacity: 0;"></path><path transform="translate(1255.1888419532775,436.65982103025596)" d="M0.5,0A0.5,0.5,0,1,1,-0.5,0A0.5,0.5,0,1,1,0.5,0" style="fill: #000000; stroke-width: 2; opacity: 0;"></path><path transform="translate(1496.1637837600708,375.2797618397587)" d="M0.5,0A0.5,0.5,0,1,1,-0.5,0A0.5,0.5,0,1,1,0.5,0" style="fill: #000000; stroke-width: 2; opacity: 0;"></path><path transform="translate(1736.0110879898073,344.0830157400184)" d="M0.5,0A0.5,0.5,0,1,1,-0.5,0A0.5,0.5,0,1,1,0.5,0" style="fill: #000000; stroke-width: 2; opacity: 0;"></path><path transform="translate(99.74541084051133,683.1154403976491)" d="M0.5,0A0.5,0.5,0,1,1,-0.5,0A0.5,0.5,0,1,1,0.5,0" style="fill: #000000; stroke-width: 2; opacity: 0;"></path><path transform="translate(241.74514434814452,962.8061092866434)" d="M0.5,0A0.5,0.5,0,1,1,-0.5,0A0.5,0.5,0,1,1,0.5,0" style="fill: #000000; stroke-width: 2; opacity: 0;"></path><path transform="translate(570.4163905620576,896.0163066193863)" d="M0.5,0A0.5,0.5,0,1,1,-0.5,0A0.5,0.5,0,1,1,0.5,0" style="fill: #000000; stroke-width: 2; opacity: 0;"></path><path transform="translate(905.5741286659241,921.096958147513)" d="M0.5,0A0.5,0.5,0,1,1,-0.5,0A0.5,0.5,0,1,1,0.5,0" style="fill: #000000; stroke-width: 2; opacity: 0;"></path><path transform="translate(1240.7318031692505,896.0163066193863)" d="M0.5,0A0.5,0.5,0,1,1,-0.5,0A0.5,0.5,0,1,1,0.5,0" style="fill: #000000; stroke-width: 2; opacity: 0;"></path><path transform="translate(1569.4031129837035,962.8061092866434)" d="M0.5,0A0.5,0.5,0,1,1,-0.5,0A0.5,0.5,0,1,1,0.5,0" style="fill: #000000; stroke-width: 2; opacity: 0;"></path><path transform="translate(1711.4028941917418,683.1154403976491)" d="M0.5,0A0.5,0.5,0,1,1,-0.5,0A0.5,0.5,0,1,1,0.5,0" style="fill: #000000; stroke-width: 2; opacity: 0;"></path></g><g class="mark-line role-mark layer_29_marks"><path d="M75.13716934204102,344.0830157400184L314.9845053720474,375.2797618397587" style="fill: none; stroke: #000000; stroke-width: 8; opacity: 1;"></path></g><g class="mark-line role-mark layer_30_marks"><path d="M75.13716934204102,344.0830157400184L99.74541084051133,683.1154403976491" style="fill: none; stroke: #000000; stroke-width: 8; opacity: 1;"></path></g><g class="mark-line role-mark layer_31_marks"><path d="M314.9845053720474,375.2797618397587L555.9594789791107,436.65982103025596" style="fill: none; stroke: #000000; stroke-width: 8; opacity: 1;"></path></g><g class="mark-line role-mark layer_32_marks"><path d="M99.74541084051133,683.1154403976491L314.9845053720474,375.2797618397587" style="fill: none; stroke: #000000; stroke-width: 8; opacity: 1;"></path></g><g class="mark-line role-mark layer_33_marks"><path d="M241.74514434814452,962.8061092866434L314.9845053720474,375.2797618397587" style="fill: none; stroke: #000000; stroke-width: 8; opacity: 1;"></path></g><g class="mark-line role-mark layer_34_marks"><path d="M555.9594789791107,436.65982103025596L790.115870475769,478.0628901720047" style="fill: none; stroke: #000000; stroke-width: 8; opacity: 1;"></path></g><g class="mark-line role-mark layer_35_marks"><path d="M241.74514434814452,962.8061092866434L555.9594789791107,436.65982103025596" style="fill: none; stroke: #000000; stroke-width: 8; opacity: 1;"></path></g><g class="mark-line role-mark layer_36_marks"><path d="M555.9594789791107,436.65982103025596L570.4163905620576,896.0163066193863" style="fill: none; stroke: #000000; stroke-width: 8; opacity: 1;"></path></g><g class="mark-line role-mark layer_37_marks"><path d="M790.115870475769,478.0628901720047L1021.0324504566191,478.0628901720047" style="fill: none; stroke: #000000; stroke-width: 8; opacity: 1;"></path></g><g class="mark-line role-mark layer_38_marks"><path d="M570.4163905620576,896.0163066193863L790.115870475769,478.0628901720047" style="fill: none; stroke: #000000; stroke-width: 8; opacity: 1;"></path></g><g class="mark-line role-mark layer_39_marks"><path d="M790.115870475769,478.0628901720047L905.5741286659241,921.096958147513" style="fill: none; stroke: #000000; stroke-width: 8; opacity: 1;"></path></g><g class="mark-line role-mark layer_40_marks"><path d="M1021.0324504566191,478.0628901720047L1255.1888419532775,436.65982103025596" style="fill: none; stroke: #000000; stroke-width: 8; opacity: 1;"></path></g><g class="mark-line role-mark layer_41_marks"><path d="M905.5741286659241,921.096958147513L1021.0324504566191,478.0628901720047" style="fill: none; stroke: #000000; stroke-width: 8; opacity: 1;"></path></g><g class="mark-line role-mark layer_42_marks"><path d="M1021.0324504566191,478.0628901720047L1240.7318031692505,896.0163066193863" style="fill: none; stroke: #000000; stroke-width: 8; opacity: 1;"></path></g><g class="mark-line role-mark layer_43_marks"><path d="M1255.1888419532775,436.65982103025596L1496.1637837600708,375.2797618397587" style="fill: none; stroke: #000000; stroke-width: 8; opacity: 1;"></path></g><g class="mark-line role-mark layer_44_marks"><path d="M1240.7318031692505,896.0163066193863L1255.1888419532775,436.65982103025596" style="fill: none; stroke: #000000; stroke-width: 8; opacity: 1;"></path></g><g class="mark-line role-mark layer_45_marks"><path d="M1255.1888419532775,436.65982103025596L1569.4031129837035,962.8061092866434" style="fill: none; stroke: #000000; stroke-width: 8; opacity: 1;"></path></g><g class="mark-line role-mark layer_46_marks"><path d="M1496.1637837600708,375.2797618397587L1736.0110879898073,344.0830157400184" style="fill: none; stroke: #000000; stroke-width: 8; opacity: 1;"></path></g><g class="mark-line role-mark layer_47_marks"><path d="M1496.1637837600708,375.2797618397587L1569.4031129837035,962.8061092866434" style="fill: none; stroke: #000000; stroke-width: 8; opacity: 1;"></path></g><g class="mark-line role-mark layer_48_marks"><path d="M1496.1637837600708,375.2797618397587L1711.4028941917418,683.1154403976491" style="fill: none; stroke: #000000; stroke-width: 8; opacity: 1;"></path></g><g class="mark-line role-mark layer_49_marks"><path d="M1711.4028941917418,683.1154403976491L1736.0110879898073,344.0830157400184" style="fill: none; stroke: #000000; stroke-width: 8; opacity: 1;"></path></g><g class="mark-line role-mark layer_50_marks"><path d="M99.74541084051133,683.1154403976491L241.74514434814452,962.8061092866434" style="fill: none; stroke: #000000; stroke-width: 8; opacity: 1;"></path></g><g class="mark-line role-mark layer_51_marks"><path d="M241.74514434814452,962.8061092866434L570.4163905620576,896.0163066193863" style="fill: none; stroke: #000000; stroke-width: 8; opacity: 1;"></path></g><g class="mark-line role-mark layer_52_marks"><path d="M570.4163905620576,896.0163066193863L905.5741286659241,921.096958147513" style="fill: none; stroke: #000000; stroke-width: 8; opacity: 1;"></path></g><g class="mark-line role-mark layer_53_marks"><path d="M905.5741286659241,921.096958147513L1240.7318031692505,896.0163066193863" style="fill: none; stroke: #000000; stroke-width: 8; opacity: 1;"></path></g><g class="mark-line role-mark layer_54_marks"><path d="M1240.7318031692505,896.0163066193863L1569.4031129837035,962.8061092866434" style="fill: none; stroke: #000000; stroke-width: 8; opacity: 1;"></path></g><g class="mark-line role-mark layer_55_marks"><path d="M1569.4031129837035,962.8061092866434L1711.4028941917418,683.1154403976491" style="fill: none; stroke: #000000; stroke-width: 8; opacity: 1;"></path></g><g class="mark-symbol role-mark layer_56_marks"><path transform="translate(46.46547740757465,356.1923639517831)" d="M0.5,0A0.5,0.5,0,1,1,-0.5,0A0.5,0.5,0,1,1,0.5,0" style="fill: #0096C7; stroke-width: 2; opacity: 0;"></path><path transform="translate(289.9780449914932,372.23671488564554)" d="M0.5,0A0.5,0.5,0,1,1,-0.5,0A0.5,0.5,0,1,1,0.5,0" style="fill: #0096C7; stroke-width: 2; opacity: 0;"></path><path transform="translate(541.4448817062378,416.83002420575235)" d="M0.5,0A0.5,0.5,0,1,1,-0.5,0A0.5,0.5,0,1,1,0.5,0" style="fill: #0096C7; stroke-width: 2; opacity: 0;"></path><path transform="translate(786.0968887424468,466.7883051770765)" d="M0.5,0A0.5,0.5,0,1,1,-0.5,0A0.5,0.5,0,1,1,0.5,0" style="fill: #0096C7; stroke-width: 2; opacity: 0;"></path><path transform="translate(1026.3959476089478,469.91880112000416)" d="M0.5,0A0.5,0.5,0,1,1,-0.5,0A0.5,0.5,0,1,1,0.5,0" style="fill: #0096C7; stroke-width: 2; opacity: 0;"></path><path transform="translate(1263.4819707870483,436.1988857509317)" d="M0.5,0A0.5,0.5,0,1,1,-0.5,0A0.5,0.5,0,1,1,0.5,0" style="fill: #0096C7; stroke-width: 2; opacity: 0;"></path><path transform="translate(1501.0087457084655,377.0433599985129)" d="M0.5,0A0.5,0.5,0,1,1,-0.5,0A0.5,0.5,0,1,1,0.5,0" style="fill: #0096C7; stroke-width: 2; opacity: 0;"></path><path transform="translate(1748.973768482208,341.7659273104289)" d="M0.5,0A0.5,0.5,0,1,1,-0.5,0A0.5,0.5,0,1,1,0.5,0" style="fill: #0096C7; stroke-width: 2; opacity: 0;"></path><path transform="translate(92.96656316757202,695.3887283318752)" d="M0.5,0A0.5,0.5,0,1,1,-0.5,0A0.5,0.5,0,1,1,0.5,0" style="fill: #0096C7; stroke-width: 2; opacity: 0;"></path><path transform="translate(248.29528447866443,971.4024346583599)" d="M0.5,0A0.5,0.5,0,1,1,-0.5,0A0.5,0.5,0,1,1,0.5,0" style="fill: #0096C7; stroke-width: 2; opacity: 0;"></path><path transform="translate(563.4812604618072,882.5743572937475)" d="M0.5,0A0.5,0.5,0,1,1,-0.5,0A0.5,0.5,0,1,1,0.5,0" style="fill: #0096C7; stroke-width: 2; opacity: 0;"></path><path transform="translate(907.3325564002992,914.4972800241934)" d="M0.5,0A0.5,0.5,0,1,1,-0.5,0A0.5,0.5,0,1,1,0.5,0" style="fill: #0096C7; stroke-width: 2; opacity: 0;"></path><path transform="translate(1244.3468578720092,897.0076845626573)" d="M0.5,0A0.5,0.5,0,1,1,-0.5,0A0.5,0.5,0,1,1,0.5,0" style="fill: #0096C7; stroke-width: 2; opacity: 0;"></path><path transform="translate(1584.297596282959,974.564270457706)" d="M0.5,0A0.5,0.5,0,1,1,-0.5,0A0.5,0.5,0,1,1,0.5,0" style="fill: #0096C7; stroke-width: 2; opacity: 0;"></path><path transform="translate(1720.082968711853,686.9643254215654)" d="M0.5,0A0.5,0.5,0,1,1,-0.5,0A0.5,0.5,0,1,1,0.5,0" style="fill: #0096C7; stroke-width: 2; opacity: 0;"></path></g><g class="mark-line role-mark layer_57_marks"><path d="M46.46547740757465,356.1923639517831L289.9780449914932,372.23671488564554" style="fill: none; stroke: #0096C7; stroke-width: 8; opacity: 1;"></path></g><g class="mark-line role-mark layer_58_marks"><path d="M46.46547740757465,356.1923639517831L92.96656316757202,695.3887283318752" style="fill: none; stroke: #0096C7; stroke-width: 8; opacity: 1;"></path></g><g class="mark-line role-mark layer_59_marks"><path d="M289.9780449914932,372.23671488564554L541.4448817062378,416.83002420575235" style="fill: none; stroke: #0096C7; stroke-width: 8; opacity: 1;"></path></g><g class="mark-line role-mark layer_60_marks"><path d="M92.96656316757202,695.3887283318752L289.9780449914932,372.23671488564554" style="fill: none; stroke: #0096C7; stroke-width: 8; opacity: 1;"></path></g><g class="mark-line role-mark layer_61_marks"><path d="M248.29528447866443,971.4024346583599L289.9780449914932,372.23671488564554" style="fill: none; stroke: #0096C7; stroke-width: 8; opacity: 1;"></path></g><g class="mark-line role-mark layer_62_marks"><path d="M541.4448817062378,416.83002420575235L786.0968887424468,466.7883051770765" style="fill: none; stroke: #0096C7; stroke-width: 8; opacity: 1;"></path></g><g class="mark-line role-mark layer_63_marks"><path d="M248.29528447866443,971.4024346583599L541.4448817062378,416.83002420575235" style="fill: none; stroke: #0096C7; stroke-width: 8; opacity: 1;"></path></g><g class="mark-line role-mark layer_64_marks"><path d="M541.4448817062378,416.83002420575235L563.4812604618072,882.5743572937475" style="fill: none; stroke: #0096C7; stroke-width: 8; opacity: 1;"></path></g><g class="mark-line role-mark layer_65_marks"><path d="M786.0968887424468,466.7883051770765L1026.3959476089478,469.91880112000416" style="fill: none; stroke: #0096C7; stroke-width: 8; opacity: 1;"></path></g><g class="mark-line role-mark layer_66_marks"><path d="M563.4812604618072,882.5743572937475L786.0968887424468,466.7883051770765" style="fill: none; stroke: #0096C7; stroke-width: 8; opacity: 1;"></path></g><g class="mark-line role-mark layer_67_marks"><path d="M786.0968887424468,466.7883051770765L907.3325564002992,914.4972800241934" style="fill: none; stroke: #0096C7; stroke-width: 8; opacity: 1;"></path></g><g class="mark-line role-mark layer_68_marks"><path d="M1026.3959476089478,469.91880112000416L1263.4819707870483,436.1988857509317" style="fill: none; stroke: #0096C7; stroke-width: 8; opacity: 1;"></path></g><g class="mark-line role-mark layer_69_marks"><path d="M907.3325564002992,914.4972800241934L1026.3959476089478,469.91880112000416" style="fill: none; stroke: #0096C7; stroke-width: 8; opacity: 1;"></path></g><g class="mark-line role-mark layer_70_marks"><path d="M1026.3959476089478,469.91880112000416L1244.3468578720092,897.0076845626573" style="fill: none; stroke: #0096C7; stroke-width: 8; opacity: 1;"></path></g><g class="mark-line role-mark layer_71_marks"><path d="M1263.4819707870483,436.1988857509317L1501.0087457084655,377.0433599985129" style="fill: none; stroke: #0096C7; stroke-width: 8; opacity: 1;"></path></g><g class="mark-line role-mark layer_72_marks"><path d="M1244.3468578720092,897.0076845626573L1263.4819707870483,436.1988857509317" style="fill: none; stroke: #0096C7; stroke-width: 8; opacity: 1;"></path></g><g class="mark-line role-mark layer_73_marks"><path d="M1263.4819707870483,436.1988857509317L1584.297596282959,974.564270457706" style="fill: none; stroke: #0096C7; stroke-width: 8; opacity: 1;"></path></g><g class="mark-line role-mark layer_74_marks"><path d="M1501.0087457084655,377.0433599985129L1748.973768482208,341.7659273104289" style="fill: none; stroke: #0096C7; stroke-width: 8; opacity: 1;"></path></g><g class="mark-line role-mark layer_75_marks"><path d="M1501.0087457084655,377.0433599985129L1584.297596282959,974.564270457706" style="fill: none; stroke: #0096C7; stroke-width: 8; opacity: 1;"></path></g><g class="mark-line role-mark layer_76_marks"><path d="M1501.0087457084655,377.0433599985129L1720.082968711853,686.9643254215654" style="fill: none; stroke: #0096C7; stroke-width: 8; opacity: 1;"></path></g><g class="mark-line role-mark layer_77_marks"><path d="M1720.082968711853,686.9643254215654L1748.973768482208,341.7659273104289" style="fill: none; stroke: #0096C7; stroke-width: 8; opacity: 1;"></path></g><g class="mark-line role-mark layer_78_marks"><path d="M92.96656316757202,695.3887283318752L248.29528447866443,971.4024346583599" style="fill: none; stroke: #0096C7; stroke-width: 8; opacity: 1;"></path></g><g class="mark-line role-mark layer_79_marks"><path d="M248.29528447866443,971.4024346583599L563.4812604618072,882.5743572937475" style="fill: none; stroke: #0096C7; stroke-width: 8; opacity: 1;"></path></g><g class="mark-line role-mark layer_80_marks"><path d="M563.4812604618072,882.5743572937475L907.3325564002992,914.4972800241934" style="fill: none; stroke: #0096C7; stroke-width: 8; opacity: 1;"></path></g><g class="mark-line role-mark layer_81_marks"><path d="M907.3325564002992,914.4972800241934L1244.3468578720092,897.0076845626573" style="fill: none; stroke: #0096C7; stroke-width: 8; opacity: 1;"></path></g><g class="mark-line role-mark layer_82_marks"><path d="M1244.3468578720092,897.0076845626573L1584.297596282959,974.564270457706" style="fill: none; stroke: #0096C7; stroke-width: 8; opacity: 1;"></path></g><g class="mark-line role-mark layer_83_marks"><path d="M1584.297596282959,974.564270457706L1720.082968711853,686.9643254215654" style="fill: none; stroke: #0096C7; stroke-width: 8; opacity: 1;"></path></g></g><path class="foreground" d="" style="display: none; fill: none;"></path></g></g></g></svg>