<svg class="marks" width="1781.25" height="800" viewBox="0 0 1781.25 800" version="1.1" xmlns="http://www.w3.org/2000/svg" xmlns:xlink="http://www.w3.org/1999/xlink"><rect width="1781.25" height="800" style="fill: white;"></rect><g transform="translate(139,126)"><g class="mark-group role-frame root"><g transform="translate(0,0)"><path class="background" d="M0.5,0.5h1636.25v598h-1636.25Z" style="fill: none; stroke: #ddd; stroke-opacity: 0;"></path><g><g class="mark-group role-axis"><g transform="translate(0.5,598.5)"><path class="background" d="M0,0h0v0h0Z" style="pointer-events: none; fill: none;"></path><g><g class="mark-rule role-axis-tick" style="pointer-events: none;"><line transform="translate(0,0)" x2="0" y2="5" style="fill: none; stroke: #888; stroke-width: 1; opacity: 1;"></line><line transform="translate(164,0)" x2="0" y2="5" style="fill: none; stroke: #888; stroke-width: 1; opacity: 1;"></line><line transform="translate(260,0)" x2="0" y2="5" style="fill: none; stroke: #888; stroke-width: 1; opacity: 1;"></line><line transform="translate(328,0)" x2="0" y2="5" style="fill: none; stroke: #888; stroke-width: 1; opacity: 1;"></line><line transform="translate(381,0)" x2="0" y2="5" style="fill: none; stroke: #888; stroke-width: 1; opacity: 1;"></line><line transform="translate(424,0)" x2="0" y2="5" style="fill: none; stroke: #888; stroke-width: 1; opacity: 1;"></line><line transform="translate(461,0)" x2="0" y2="5" style="fill: none; stroke: #888; stroke-width: 1; opacity: 1;"></line><line transform="translate(493,0)" x2="0" y2="5" style="fill: none; stroke: #888; stroke-width: 1; opacity: 1;"></line><line transform="translate(520,0)" x2="0" y2="5" style="fill: none; stroke: #888; stroke-width: 1; opacity: 1;"></line><line transform="translate(545,0)" x2="0" y2="5" style="fill: none; stroke: #888; stroke-width: 1; opacity: 1;"></line><line transform="translate(710,0)" x2="0" y2="5" style="fill: none; stroke: #888; stroke-width: 1; opacity: 1;"></line><line transform="translate(806,0)" x2="0" y2="5" style="fill: none; stroke: #888; stroke-width: 1; opacity: 1;"></line><line transform="translate(874,0)" x2="0" y2="5" style="fill: none; stroke: #888; stroke-width: 1; opacity: 1;"></line><line transform="translate(927,0)" x2="0" y2="5" style="fill: none; stroke: #888; stroke-width: 1; opacity: 1;"></line><line transform="translate(970,0)" x2="0" y2="5" style="fill: none; stroke: #888; stroke-width: 1; opacity: 1;"></line><line transform="translate(1006,0)" x2="0" y2="5" style="fill: none; stroke: #888; stroke-width: 1; opacity: 1;"></line><line transform="translate(1038,0)" x2="0" y2="5" style="fill: none; stroke: #888; stroke-width: 1; opacity: 1;"></line><line transform="translate(1066,0)" x2="0" y2="5" style="fill: none; stroke: #888; stroke-width: 1; opacity: 1;"></line><line transform="translate(1091,0)" x2="0" y2="5" style="fill: none; stroke: #888; stroke-width: 1; opacity: 1;"></line><line transform="translate(1255,0)" x2="0" y2="5" style="fill: none; stroke: #888; stroke-width: 1; opacity: 1;"></line><line transform="translate(1351,0)" x2="0" y2="5" style="fill: none; stroke: #888; stroke-width: 1; opacity: 1;"></line><line transform="translate(1419,0)" x2="0" y2="5" style="fill: none; stroke: #888; stroke-width: 1; opacity: 1;"></line><line transform="translate(1472,0)" x2="0" y2="5" style="fill: none; stroke: #888; stroke-width: 1; opacity: 1;"></line><line transform="translate(1515,0)" x2="0" y2="5" style="fill: none; stroke: #888; stroke-width: 1; opacity: 1;"></line><line transform="translate(1552,0)" x2="0" y2="5" style="fill: none; stroke: #888; stroke-width: 1; opacity: 1;"></line><line transform="translate(1583,0)" x2="0" y2="5" style="fill: none; stroke: #888; stroke-width: 1; opacity: 1;"></line><line transform="translate(1611,0)" x2="0" y2="5" style="fill: none; stroke: #888; stroke-width: 1; opacity: 1;"></line><line transform="translate(1636,0)" x2="0" y2="5" style="fill: none; stroke: #888; stroke-width: 1; opacity: 1;"></line></g><g class="mark-text role-axis-label" style="pointer-events: none;"><text text-anchor="start" transform="translate(0,31)" style="font-family: arial; font-size: 30px; fill: #000; opacity: 1;">1</text><text text-anchor="middle" transform="translate(164.18677680172974,31)" style="font-family: arial; font-size: 30px; fill: #000; opacity: 1;">2</text><text text-anchor="middle" transform="translate(260.2298843450159,31)" style="font-family: arial; font-size: 30px; fill: #000; opacity: 1;">3</text><text text-anchor="middle" transform="translate(328.37355360345947,31)" style="font-family: arial; font-size: 30px; fill: #000; opacity: 1;"></text><text text-anchor="middle" transform="translate(381.2298898649369,31)" style="font-family: arial; font-size: 30px; fill: #000; opacity: 1;"></text><text text-anchor="middle" transform="translate(424.41666114674564,31)" style="font-family: arial; font-size: 30px; fill: #000; opacity: 1;"></text><text text-anchor="middle" transform="translate(460.93055599110926,31)" style="font-family: arial; font-size: 30px; fill: #000; opacity: 1;"></text><text text-anchor="middle" transform="translate(492.56033040518923,31)" style="font-family: arial; font-size: 30px; fill: #000; opacity: 1;"></text><text text-anchor="middle" transform="translate(520.4597686900318,31)" style="font-family: arial; font-size: 30px; fill: #000; opacity: 1;"></text><text text-anchor="middle" transform="translate(545.4166666666667,31)" style="font-family: arial; font-size: 30px; fill: #000; opacity: 1;">10</text><text text-anchor="middle" transform="translate(709.6034434683964,31)" style="font-family: arial; font-size: 30px; fill: #000; opacity: 1;">20</text><text text-anchor="middle" transform="translate(805.6465510116826,31)" style="font-family: arial; font-size: 30px; fill: #000; opacity: 1;">30</text><text text-anchor="middle" transform="translate(873.7902202701262,31)" style="font-family: arial; font-size: 30px; fill: #000; opacity: 1;"></text><text text-anchor="middle" transform="translate(926.6465565316036,31)" style="font-family: arial; font-size: 30px; fill: #000; opacity: 1;"></text><text text-anchor="middle" transform="translate(969.8333278134123,31)" style="font-family: arial; font-size: 30px; fill: #000; opacity: 1;"></text><text text-anchor="middle" transform="translate(1006.347222657776,31)" style="font-family: arial; font-size: 30px; fill: #000; opacity: 1;"></text><text text-anchor="middle" transform="translate(1037.976997071856,31)" style="font-family: arial; font-size: 30px; fill: #000; opacity: 1;"></text><text text-anchor="middle" transform="translate(1065.8764353566985,31)" style="font-family: arial; font-size: 30px; fill: #000; opacity: 1;"></text><text text-anchor="middle" transform="translate(1090.8333333333335,31)" style="font-family: arial; font-size: 30px; fill: #000; opacity: 1;">100</text><text text-anchor="middle" transform="translate(1255.020110135063,31)" style="font-family: arial; font-size: 30px; fill: #000; opacity: 1;">200</text><text text-anchor="middle" transform="translate(1351.0632176783492,31)" style="font-family: arial; font-size: 30px; fill: #000; opacity: 1;">300</text><text text-anchor="middle" transform="translate(1419.206886936793,31)" style="font-family: arial; font-size: 30px; fill: #000; opacity: 1;"></text><text text-anchor="middle" transform="translate(1472.0632231982702,31)" style="font-family: arial; font-size: 30px; fill: #000; opacity: 1;"></text><text text-anchor="middle" transform="translate(1515.249994480079,31)" style="font-family: arial; font-size: 30px; fill: #000; opacity: 1;"></text><text text-anchor="middle" transform="translate(1551.7638893244425,31)" style="font-family: arial; font-size: 30px; fill: #000; opacity: 1;"></text><text text-anchor="middle" transform="translate(1583.3936637385225,31)" style="font-family: arial; font-size: 30px; fill: #000; opacity: 1;"></text><text text-anchor="middle" transform="translate(1611.2931020233652,31)" style="font-family: arial; font-size: 30px; fill: #000; opacity: 1;"></text><text text-anchor="end" transform="translate(1636.25,31)" style="font-family: arial; font-size: 30px; fill: #000; opacity: 1;">1,000</text></g><g class="mark-rule role-axis-domain" style="pointer-events: none;"><line transform="translate(0,0)" x2="1636.25" y2="0" style="fill: none; stroke: #888; stroke-width: 1; opacity: 1;"></line></g><g class="mark-text role-axis-title" style="pointer-events: none;"><text text-anchor="middle" transform="translate(818.125,65)" style="font-family: arial; font-size: 30px; font-weight: bold; fill: #000; opacity: 1;">Number of Training Samples</text></g></g><path class="foreground" d="" style="pointer-events: none; display: none; fill: none;"></path></g></g><g class="mark-group role-axis"><g transform="translate(0.5,0.5)"><path class="background" d="M0,0h0v0h0Z" style="pointer-events: none; fill: none;"></path><g><g class="mark-rule role-axis-tick" style="pointer-events: none;"><line transform="translate(0,598)" x2="-5" y2="0" style="fill: none; stroke: #888; stroke-width: 1; opacity: 1;"></line><line transform="translate(0,381)" x2="-5" y2="0" style="fill: none; stroke: #888; stroke-width: 1; opacity: 1;"></line><line transform="translate(0,163)" x2="-5" y2="0" style="fill: none; stroke: #888; stroke-width: 1; opacity: 1;"></line></g><g class="mark-text role-axis-label" style="pointer-events: none;"><text text-anchor="end" transform="translate(-7,607)" style="font-family: arial; font-size: 30px; fill: #000; opacity: 1;">0.0e+0</text><text text-anchor="end" transform="translate(-7,389.54545454545456)" style="font-family: arial; font-size: 30px; fill: #000; opacity: 1;">2.0e-3</text><text text-anchor="end" transform="translate(-7,172.09090909090907)" style="font-family: arial; font-size: 30px; fill: #000; opacity: 1;">4.0e-3</text></g><g class="mark-rule role-axis-domain" style="pointer-events: none;"><line transform="translate(0,598)" x2="0" y2="-598" style="fill: none; stroke: #888; stroke-width: 1; opacity: 1;"></line></g><g class="mark-text role-axis-title" style="pointer-events: none;"><text text-anchor="middle" transform="translate(-103.5927734375,299) rotate(-90) translate(0,-6)" style="font-family: arial; font-size: 30px; font-weight: bold; fill: #000; opacity: 1;">Mean Absolute Error (m)</text></g></g><path class="foreground" d="" style="pointer-events: none; display: none; fill: none;"></path></g></g><g class="mark-symbol role-mark layer_0_layer_0_marks"><path transform="translate(916.9769915519349,342.14706084457305)" d="M9.354143466934854,0A9.354143466934854,9.354143466934854,0,1,1,-9.354143466934854,0A9.354143466934854,9.354143466934854,0,1,1,9.354143466934854,0" style="fill: none; stroke: rgb(20, 98, 154); stroke-width: 8; opacity: 0.7;"></path><path transform="translate(916.9769915519349,450.51516766006296)" d="M-9.354143466934854,-9.354143466934854h18.708286933869708v18.708286933869708h-18.708286933869708Z" style="fill: none; stroke: rgb(3, 154, 199); stroke-width: 8; opacity: 0.7;"></path><path transform="translate(916.9769915519349,385.86506414895655)" d="M0,-8.100925873009825L-9.354143466934854,8.100925873009825L9.354143466934854,8.100925873009825Z" style="fill: none; stroke: rgb(51, 212, 233); stroke-width: 8; opacity: 0.7;"></path><path transform="translate(1614.9494042564938,505.9489238220182)" d="M9.354143466934854,0A9.354143466934854,9.354143466934854,0,1,1,-9.354143466934854,0A9.354143466934854,9.354143466934854,0,1,1,9.354143466934854,0" style="fill: none; stroke: rgb(20, 98, 154); stroke-width: 8; opacity: 0.7;"></path><path transform="translate(1614.9494042564938,493.344983044944)" d="M-9.354143466934854,-9.354143466934854h18.708286933869708v18.708286933869708h-18.708286933869708Z" style="fill: none; stroke: rgb(3, 154, 199); stroke-width: 8; opacity: 0.7;"></path><path transform="translate(1614.9494042564938,492.25556479739595)" d="M0,-8.100925873009825L-9.354143466934854,8.100925873009825L9.354143466934854,8.100925873009825Z" style="fill: none; stroke: rgb(51, 212, 233); stroke-width: 8; opacity: 0.7;"></path><path transform="translate(1073.6434081904588,337.0157502556389)" d="M9.354143466934854,0A9.354143466934854,9.354143466934854,0,1,1,-9.354143466934854,0A9.354143466934854,9.354143466934854,0,1,1,9.354143466934854,0" style="fill: none; stroke: rgb(20, 98, 154); stroke-width: 8; opacity: 0.7;"></path><path transform="translate(1073.6434081904588,465.9134666967121)" d="M-9.354143466934854,-9.354143466934854h18.708286933869708v18.708286933869708h-18.708286933869708Z" style="fill: none; stroke: rgb(3, 154, 199); stroke-width: 8; opacity: 0.7;"></path><path transform="translate(1073.6434081904588,394.4033351648928)" d="M0,-8.100925873009825L-9.354143466934854,8.100925873009825L9.354143466934854,8.100925873009825Z" style="fill: none; stroke: rgb(51, 212, 233); stroke-width: 8; opacity: 0.7;"></path><path transform="translate(381.2298898649369,20.67482743371604)" d="M9.354143466934854,0A9.354143466934854,9.354143466934854,0,1,1,-9.354143466934854,0A9.354143466934854,9.354143466934854,0,1,1,9.354143466934854,0" style="fill: none; stroke: rgb(20, 98, 154); stroke-width: 8; opacity: 0.7;"></path><path transform="translate(381.2298898649369,240.02874866019593)" d="M-9.354143466934854,-9.354143466934854h18.708286933869708v18.708286933869708h-18.708286933869708Z" style="fill: none; stroke: rgb(3, 154, 199); stroke-width: 8; opacity: 0.7;"></path><path transform="translate(381.2298898649369,231.42169042973373)" d="M0,-8.100925873009825L-9.354143466934854,8.100925873009825L9.354143466934854,8.100925873009825Z" style="fill: none; stroke: rgb(51, 212, 233); stroke-width: 8; opacity: 0.7;"></path><path transform="translate(1227.4165762593093,317.1936846413395)" d="M9.354143466934854,0A9.354143466934854,9.354143466934854,0,1,1,-9.354143466934854,0A9.354143466934854,9.354143466934854,0,1,1,9.354143466934854,0" style="fill: none; stroke: rgb(20, 98, 154); stroke-width: 8; opacity: 0.7;"></path><path transform="translate(1227.4165762593093,479.7869481268931)" d="M-9.354143466934854,-9.354143466934854h18.708286933869708v18.708286933869708h-18.708286933869708Z" style="fill: none; stroke: rgb(3, 154, 199); stroke-width: 8; opacity: 0.7;"></path><path transform="translate(1227.4165762593093,442.1762076963309)" d="M0,-8.100925873009825L-9.354143466934854,8.100925873009825L9.354143466934854,8.100925873009825Z" style="fill: none; stroke: rgb(51, 212, 233); stroke-width: 8; opacity: 0.7;"></path><path transform="translate(684.6465454917616,268.19248486594716)" d="M9.354143466934854,0A9.354143466934854,9.354143466934854,0,1,1,-9.354143466934854,0A9.354143466934854,9.354143466934854,0,1,1,9.354143466934854,0" style="fill: none; stroke: rgb(20, 98, 154); stroke-width: 8; opacity: 0.7;"></path><path transform="translate(684.6465454917616,398.62022723000155)" d="M-9.354143466934854,-9.354143466934854h18.708286933869708v18.708286933869708h-18.708286933869708Z" style="fill: none; stroke: rgb(3, 154, 199); stroke-width: 8; opacity: 0.7;"></path><path transform="translate(684.6465454917616,326.55311998810936)" d="M0,-8.100925873009825L-9.354143466934854,8.100925873009825L9.354143466934854,8.100925873009825Z" style="fill: none; stroke: rgb(51, 212, 233); stroke-width: 8; opacity: 0.7;"></path><path transform="translate(1448.1567546533747,470.99950737011704)" d="M9.354143466934854,0A9.354143466934854,9.354143466934854,0,1,1,-9.354143466934854,0A9.354143466934854,9.354143466934854,0,1,1,9.354143466934854,0" style="fill: none; stroke: rgb(20, 98, 154); stroke-width: 8; opacity: 0.7;"></path><path transform="translate(1448.1567546533747,499.2084594792263)" d="M-9.354143466934854,-9.354143466934854h18.708286933869708v18.708286933869708h-18.708286933869708Z" style="fill: none; stroke: rgb(3, 154, 199); stroke-width: 8; opacity: 0.7;"></path><path transform="translate(1448.1567546533747,472.05232371427763)" d="M0,-8.100925873009825L-9.354143466934854,8.100925873009825L9.354143466934854,8.100925873009825Z" style="fill: none; stroke: rgb(51, 212, 233); stroke-width: 8; opacity: 0.7;"></path><path transform="translate(492.56033040518923,172.88023094832897)" d="M9.354143466934854,0A9.354143466934854,9.354143466934854,0,1,1,-9.354143466934854,0A9.354143466934854,9.354143466934854,0,1,1,9.354143466934854,0" style="fill: none; stroke: rgb(20, 98, 154); stroke-width: 8; opacity: 0.7;"></path><path transform="translate(492.56033040518923,331.7452734494752)" d="M-9.354143466934854,-9.354143466934854h18.708286933869708v18.708286933869708h-18.708286933869708Z" style="fill: none; stroke: rgb(3, 154, 199); stroke-width: 8; opacity: 0.7;"></path><path transform="translate(492.56033040518923,294.41645383774085)" d="M0,-8.100925873009825L-9.354143466934854,8.100925873009825L9.354143466934854,8.100925873009825Z" style="fill: none; stroke: rgb(51, 212, 233); stroke-width: 8; opacity: 0.7;"></path></g><g class="mark-rule role-mark layer_0_layer_1_marks"><line transform="translate(916.9769915519349,342.14706084457305)" x2="0" y2="108.36810681548991" style="fill: none; stroke: black; stroke-width: 2;"></line><line transform="translate(1614.9494042564938,505.9489238220182)" x2="0" y2="-12.603940777074172" style="fill: none; stroke: red; stroke-width: 2;"></line><line transform="translate(1073.6434081904588,337.0157502556389)" x2="0" y2="128.89771644107316" style="fill: none; stroke: black; stroke-width: 2;"></line><line transform="translate(381.2298898649369,20.67482743371604)" x2="0" y2="219.35392122647988" style="fill: none; stroke: black; stroke-width: 2;"></line><line transform="translate(1227.4165762593093,317.1936846413395)" x2="0" y2="162.59326348555362" style="fill: none; stroke: black; stroke-width: 2;"></line><line transform="translate(684.6465454917616,268.19248486594716)" x2="0" y2="130.42774236405438" style="fill: none; stroke: black; stroke-width: 2;"></line><line transform="translate(1448.1567546533747,470.99950737011704)" x2="0" y2="28.208952109109248" style="fill: none; stroke: black; stroke-width: 2;"></line><line transform="translate(492.56033040518923,172.88023094832897)" x2="0" y2="158.8650425011462" style="fill: none; stroke: black; stroke-width: 2;"></line></g><g class="mark-group role-legend"><g transform="translate(0,-51)"><path class="background" d="M0,0h829v33h-829Z" style="pointer-events: none; fill: none;"></path><g><g class="mark-group role-legend-entry"><g transform="translate(0,0)"><path class="background" d="M0,0h0v0h0Z" style="pointer-events: none; fill: none;"></path><g><g class="mark-group role-scope"><g transform="translate(0,0.32292826653257123)"><path class="background" d="M0,0h100.6650390625v32.35414346693486h-100.6650390625Z" style="pointer-events: none; fill: none; opacity: 1;"></path><g><g class="mark-symbol role-legend-symbol" style="pointer-events: none;"><path transform="translate(15,15)" d="M9.354143466934854,0A9.354143466934854,9.354143466934854,0,1,1,-9.354143466934854,0A9.354143466934854,9.354143466934854,0,1,1,9.354143466934854,0" style="fill: none; stroke: rgb(20, 98, 154); stroke-width: 8; opacity: 0.7;"></path></g><g class="mark-text role-legend-label" style="pointer-events: none;"><text text-anchor="start" transform="translate(34,24)" style="font-family: sans-serif; font-size: 30px; fill: #000; opacity: 1;">GCN</text></g></g><path class="foreground" d="" style="pointer-events: none; display: none; fill: none;"></path></g><g transform="translate(164,0.32292826653257123)"><path class="background" d="M0,0h360.513671875v32.35414346693486h-360.513671875Z" style="pointer-events: none; fill: none; opacity: 1;"></path><g><g class="mark-symbol role-legend-symbol" style="pointer-events: none;"><path transform="translate(15,15)" d="M-9.354143466934854,-9.354143466934854h18.708286933869708v18.708286933869708h-18.708286933869708Z" style="fill: none; stroke: rgb(3, 154, 199); stroke-width: 8; opacity: 0.7;"></path></g><g class="mark-text role-legend-label" style="pointer-events: none;"><text text-anchor="start" transform="translate(34,24)" style="font-family: sans-serif; font-size: 30px; fill: #000; opacity: 1;">GCN + Transfer learning</text></g></g><path class="foreground" d="" style="pointer-events: none; display: none; fill: none;"></path></g><g transform="translate(588,0.9495370634950877)"><path class="background" d="M0,0h240.748046875v31.100925873009828h-240.748046875Z" style="pointer-events: none; fill: none; opacity: 1;"></path><g><g class="mark-symbol role-legend-symbol" style="pointer-events: none;"><path transform="translate(15,15)" d="M0,-8.100925873009825L-9.354143466934854,8.100925873009825L9.354143466934854,8.100925873009825Z" style="fill: none; stroke: rgb(51, 212, 233); stroke-width: 8; opacity: 0.7;"></path></g><g class="mark-text role-legend-label" style="pointer-events: none;"><text text-anchor="start" transform="translate(34,24)" style="font-family: sans-serif; font-size: 30px; fill: #000; opacity: 1;">Random Forest</text></g></g><path class="foreground" d="" style="pointer-events: none; display: none; fill: none;"></path></g></g></g><path class="foreground" d="" style="pointer-events: none; display: none; fill: none;"></path></g></g></g><path class="foreground" d="" style="pointer-events: none; display: none; fill: none;"></path></g></g><g class="mark-group role-title"><g transform="translate(818.125,-121)"><path class="background" d="M0,0h0v0h0Z" style="pointer-events: none; fill: none;"></path><g><g class="mark-text role-title-text" style="pointer-events: none;"><text text-anchor="middle" transform="translate(0,32)" style="font-family: arial; font-size: 40px; font-weight: bold; fill: #000; opacity: 1;">D. Transfer learning across design models - DM 9</text></g></g><path class="foreground" d="" style="pointer-events: none; display: none; fill: none;"></path></g></g></g><path class="foreground" d="" style="display: none; fill: none;"></path></g></g></g></svg>