<svg class="marks" width="1781.25" height="800" viewBox="0 0 1781.25 800" version="1.1" xmlns="http://www.w3.org/2000/svg" xmlns:xlink="http://www.w3.org/1999/xlink"><rect width="1781.25" height="800" style="fill: white;"></rect><g transform="translate(88,126)"><g class="mark-group role-frame root"><g transform="translate(0,0)"><path class="background" d="M0.5,0.5h1685.25v598h-1685.25Z" style="fill: none; stroke: #ddd; stroke-opacity: 0;"></path><g><g class="mark-group role-axis"><g transform="translate(0.5,598.5)"><path class="background" d="M0,0h0v0h0Z" style="pointer-events: none; fill: none;"></path><g><g class="mark-rule role-axis-grid" style="pointer-events: none;"><line transform="translate(0,-598)" x2="0" y2="598" style="fill: none; stroke: #ddd; stroke-width: 1; opacity: 1;"></line><line transform="translate(169,-598)" x2="0" y2="598" style="fill: none; stroke: #ddd; stroke-width: 1; opacity: 1;"></line><line transform="translate(268,-598)" x2="0" y2="598" style="fill: none; stroke: #ddd; stroke-width: 1; opacity: 1;"></line><line transform="translate(338,-598)" x2="0" y2="598" style="fill: none; stroke: #ddd; stroke-width: 1; opacity: 1;"></line><line transform="translate(393,-598)" x2="0" y2="598" style="fill: none; stroke: #ddd; stroke-width: 1; opacity: 1;"></line><line transform="translate(437,-598)" x2="0" y2="598" style="fill: none; stroke: #ddd; stroke-width: 1; opacity: 1;"></line><line transform="translate(475,-598)" x2="0" y2="598" style="fill: none; stroke: #ddd; stroke-width: 1; opacity: 1;"></line><line transform="translate(507,-598)" x2="0" y2="598" style="fill: none; stroke: #ddd; stroke-width: 1; opacity: 1;"></line><line transform="translate(536,-598)" x2="0" y2="598" style="fill: none; stroke: #ddd; stroke-width: 1; opacity: 1;"></line><line transform="translate(562,-598)" x2="0" y2="598" style="fill: none; stroke: #ddd; stroke-width: 1; opacity: 1;"></line><line transform="translate(731,-598)" x2="0" y2="598" style="fill: none; stroke: #ddd; stroke-width: 1; opacity: 1;"></line><line transform="translate(830,-598)" x2="0" y2="598" style="fill: none; stroke: #ddd; stroke-width: 1; opacity: 1;"></line><line transform="translate(900,-598)" x2="0" y2="598" style="fill: none; stroke: #ddd; stroke-width: 1; opacity: 1;"></line><line transform="translate(954,-598)" x2="0" y2="598" style="fill: none; stroke: #ddd; stroke-width: 1; opacity: 1;"></line><line transform="translate(999,-598)" x2="0" y2="598" style="fill: none; stroke: #ddd; stroke-width: 1; opacity: 1;"></line><line transform="translate(1036,-598)" x2="0" y2="598" style="fill: none; stroke: #ddd; stroke-width: 1; opacity: 1;"></line><line transform="translate(1069,-598)" x2="0" y2="598" style="fill: none; stroke: #ddd; stroke-width: 1; opacity: 1;"></line><line transform="translate(1098,-598)" x2="0" y2="598" style="fill: none; stroke: #ddd; stroke-width: 1; opacity: 1;"></line><line transform="translate(1124,-598)" x2="0" y2="598" style="fill: none; stroke: #ddd; stroke-width: 1; opacity: 1;"></line><line transform="translate(1293,-598)" x2="0" y2="598" style="fill: none; stroke: #ddd; stroke-width: 1; opacity: 1;"></line><line transform="translate(1392,-598)" x2="0" y2="598" style="fill: none; stroke: #ddd; stroke-width: 1; opacity: 1;"></line><line transform="translate(1462,-598)" x2="0" y2="598" style="fill: none; stroke: #ddd; stroke-width: 1; opacity: 1;"></line><line transform="translate(1516,-598)" x2="0" y2="598" style="fill: none; stroke: #ddd; stroke-width: 1; opacity: 1;"></line><line transform="translate(1561,-598)" x2="0" y2="598" style="fill: none; stroke: #ddd; stroke-width: 1; opacity: 1;"></line><line transform="translate(1598,-598)" x2="0" y2="598" style="fill: none; stroke: #ddd; stroke-width: 1; opacity: 1;"></line><line transform="translate(1631,-598)" x2="0" y2="598" style="fill: none; stroke: #ddd; stroke-width: 1; opacity: 1;"></line><line transform="translate(1660,-598)" x2="0" y2="598" style="fill: none; stroke: #ddd; stroke-width: 1; opacity: 1;"></line><line transform="translate(1685,-598)" x2="0" y2="598" style="fill: none; stroke: #ddd; stroke-width: 1; opacity: 1;"></line></g></g><path class="foreground" d="" style="pointer-events: none; display: none; fill: none;"></path></g></g><g class="mark-group role-axis"><g transform="translate(0.5,0.5)"><path class="background" d="M0,0h0v0h0Z" style="pointer-events: none; fill: none;"></path><g><g class="mark-rule role-axis-grid" style="pointer-events: none;"><line transform="translate(0,598)" x2="1685.25" y2="0" style="fill: none; stroke: #ddd; stroke-width: 1; opacity: 1;"></line><line transform="translate(0,381)" x2="1685.25" y2="0" style="fill: none; stroke: #ddd; stroke-width: 1; opacity: 1;"></line><line transform="translate(0,163)" x2="1685.25" y2="0" style="fill: none; stroke: #ddd; stroke-width: 1; opacity: 1;"></line></g></g><path class="foreground" d="" style="pointer-events: none; display: none; fill: none;"></path></g></g><g class="mark-group role-axis"><g transform="translate(0.5,598.5)"><path class="background" d="M0,0h0v0h0Z" style="pointer-events: none; fill: none;"></path><g><g class="mark-rule role-axis-tick" style="pointer-events: none;"><line transform="translate(0,0)" x2="0" y2="5" style="fill: none; stroke: #888; stroke-width: 1; opacity: 1;"></line><line transform="translate(169,0)" x2="0" y2="5" style="fill: none; stroke: #888; stroke-width: 1; opacity: 1;"></line><line transform="translate(268,0)" x2="0" y2="5" style="fill: none; stroke: #888; stroke-width: 1; opacity: 1;"></line><line transform="translate(338,0)" x2="0" y2="5" style="fill: none; stroke: #888; stroke-width: 1; opacity: 1;"></line><line transform="translate(393,0)" x2="0" y2="5" style="fill: none; stroke: #888; stroke-width: 1; opacity: 1;"></line><line transform="translate(437,0)" x2="0" y2="5" style="fill: none; stroke: #888; stroke-width: 1; opacity: 1;"></line><line transform="translate(475,0)" x2="0" y2="5" style="fill: none; stroke: #888; stroke-width: 1; opacity: 1;"></line><line transform="translate(507,0)" x2="0" y2="5" style="fill: none; stroke: #888; stroke-width: 1; opacity: 1;"></line><line transform="translate(536,0)" x2="0" y2="5" style="fill: none; stroke: #888; stroke-width: 1; opacity: 1;"></line><line transform="translate(562,0)" x2="0" y2="5" style="fill: none; stroke: #888; stroke-width: 1; opacity: 1;"></line><line transform="translate(731,0)" x2="0" y2="5" style="fill: none; stroke: #888; stroke-width: 1; opacity: 1;"></line><line transform="translate(830,0)" x2="0" y2="5" style="fill: none; stroke: #888; stroke-width: 1; opacity: 1;"></line><line transform="translate(900,0)" x2="0" y2="5" style="fill: none; stroke: #888; stroke-width: 1; opacity: 1;"></line><line transform="translate(954,0)" x2="0" y2="5" style="fill: none; stroke: #888; stroke-width: 1; opacity: 1;"></line><line transform="translate(999,0)" x2="0" y2="5" style="fill: none; stroke: #888; stroke-width: 1; opacity: 1;"></line><line transform="translate(1036,0)" x2="0" y2="5" style="fill: none; stroke: #888; stroke-width: 1; opacity: 1;"></line><line transform="translate(1069,0)" x2="0" y2="5" style="fill: none; stroke: #888; stroke-width: 1; opacity: 1;"></line><line transform="translate(1098,0)" x2="0" y2="5" style="fill: none; stroke: #888; stroke-width: 1; opacity: 1;"></line><line transform="translate(1124,0)" x2="0" y2="5" style="fill: none; stroke: #888; stroke-width: 1; opacity: 1;"></line><line transform="translate(1293,0)" x2="0" y2="5" style="fill: none; stroke: #888; stroke-width: 1; opacity: 1;"></line><line transform="translate(1392,0)" x2="0" y2="5" style="fill: none; stroke: #888; stroke-width: 1; opacity: 1;"></line><line transform="translate(1462,0)" x2="0" y2="5" style="fill: none; stroke: #888; stroke-width: 1; opacity: 1;"></line><line transform="translate(1516,0)" x2="0" y2="5" style="fill: none; stroke: #888; stroke-width: 1; opacity: 1;"></line><line transform="translate(1561,0)" x2="0" y2="5" style="fill: none; stroke: #888; stroke-width: 1; opacity: 1;"></line><line transform="translate(1598,0)" x2="0" y2="5" style="fill: none; stroke: #888; stroke-width: 1; opacity: 1;"></line><line transform="translate(1631,0)" x2="0" y2="5" style="fill: none; stroke: #888; stroke-width: 1; opacity: 1;"></line><line transform="translate(1660,0)" x2="0" y2="5" style="fill: none; stroke: #888; stroke-width: 1; opacity: 1;"></line><line transform="translate(1685,0)" x2="0" y2="5" style="fill: none; stroke: #888; stroke-width: 1; opacity: 1;"></line></g><g class="mark-text role-axis-label" style="pointer-events: none;"><text text-anchor="start" transform="translate(0,31)" style="font-family: Arial; font-size: 30px; fill: #000; opacity: 1;">1</text><text text-anchor="middle" transform="translate(169.10360006424142,31)" style="font-family: Arial; font-size: 30px; fill: #000; opacity: 1;">2</text><text text-anchor="middle" transform="translate(268.0228648387703,31)" style="font-family: Arial; font-size: 30px; fill: #000; opacity: 1;">3</text><text text-anchor="middle" transform="translate(338.20720012848284,31)" style="font-family: Arial; font-size: 30px; fill: #000; opacity: 1;"></text><text text-anchor="middle" transform="translate(392.64639993575855,31)" style="font-family: Arial; font-size: 30px; fill: #000; opacity: 1;"></text><text text-anchor="middle" transform="translate(437.1264649030118,31)" style="font-family: Arial; font-size: 30px; fill: #000; opacity: 1;"></text><text text-anchor="middle" transform="translate(474.7338239780088,31)" style="font-family: Arial; font-size: 30px; fill: #000; opacity: 1;"></text><text text-anchor="middle" transform="translate(507.3108001927243,31)" style="font-family: Arial; font-size: 30px; fill: #000; opacity: 1;"></text><text text-anchor="middle" transform="translate(536.0457296775407,31)" style="font-family: Arial; font-size: 30px; fill: #000; opacity: 1;"></text><text text-anchor="middle" transform="translate(561.7500000000001,31)" style="font-family: Arial; font-size: 30px; fill: #000; opacity: 1;">10</text><text text-anchor="middle" transform="translate(730.8536000642415,31)" style="font-family: Arial; font-size: 30px; fill: #000; opacity: 1;">20</text><text text-anchor="middle" transform="translate(829.7728648387704,31)" style="font-family: Arial; font-size: 30px; fill: #000; opacity: 1;">30</text><text text-anchor="middle" transform="translate(899.9572001284829,31)" style="font-family: Arial; font-size: 30px; fill: #000; opacity: 1;"></text><text text-anchor="middle" transform="translate(954.3963999357585,31)" style="font-family: Arial; font-size: 30px; fill: #000; opacity: 1;"></text><text text-anchor="middle" transform="translate(998.8764649030118,31)" style="font-family: Arial; font-size: 30px; fill: #000; opacity: 1;"></text><text text-anchor="middle" transform="translate(1036.4838239780088,31)" style="font-family: Arial; font-size: 30px; fill: #000; opacity: 1;"></text><text text-anchor="middle" transform="translate(1069.0608001927242,31)" style="font-family: Arial; font-size: 30px; fill: #000; opacity: 1;"></text><text text-anchor="middle" transform="translate(1097.7957296775407,31)" style="font-family: Arial; font-size: 30px; fill: #000; opacity: 1;"></text><text text-anchor="middle" transform="translate(1123.5000000000002,31)" style="font-family: Arial; font-size: 30px; fill: #000; opacity: 1;">100</text><text text-anchor="middle" transform="translate(1292.6036000642414,31)" style="font-family: Arial; font-size: 30px; fill: #000; opacity: 1;">200</text><text text-anchor="middle" transform="translate(1391.5228648387704,31)" style="font-family: Arial; font-size: 30px; fill: #000; opacity: 1;">300</text><text text-anchor="middle" transform="translate(1461.707200128483,31)" style="font-family: Arial; font-size: 30px; fill: #000; opacity: 1;"></text><text text-anchor="middle" transform="translate(1516.1463999357586,31)" style="font-family: Arial; font-size: 30px; fill: #000; opacity: 1;"></text><text text-anchor="middle" transform="translate(1560.6264649030118,31)" style="font-family: Arial; font-size: 30px; fill: #000; opacity: 1;"></text><text text-anchor="middle" transform="translate(1598.2338239780088,31)" style="font-family: Arial; font-size: 30px; fill: #000; opacity: 1;"></text><text text-anchor="middle" transform="translate(1630.8108001927244,31)" style="font-family: Arial; font-size: 30px; fill: #000; opacity: 1;"></text><text text-anchor="middle" transform="translate(1659.5457296775407,31)" style="font-family: Arial; font-size: 30px; fill: #000; opacity: 1;"></text><text text-anchor="end" transform="translate(1685.25,31)" style="font-family: Arial; font-size: 30px; fill: #000; opacity: 1;">1,000</text></g><g class="mark-rule role-axis-domain" style="pointer-events: none;"><line transform="translate(0,0)" x2="1685.25" y2="0" style="fill: none; stroke: #888; stroke-width: 1; opacity: 1;"></line></g><g class="mark-text role-axis-title" style="pointer-events: none;"><text text-anchor="middle" transform="translate(842.625,65)" style="font-family: Arial; font-size: 30px; font-weight: bold; fill: #000; opacity: 1;">Number of Training Samples</text></g></g><path class="foreground" d="" style="pointer-events: none; display: none; fill: none;"></path></g></g><g class="mark-group role-axis"><g transform="translate(0.5,0.5)"><path class="background" d="M0,0h0v0h0Z" style="pointer-events: none; fill: none;"></path><g><g class="mark-rule role-axis-tick" style="pointer-events: none;"><line transform="translate(0,598)" x2="-5" y2="0" style="fill: none; stroke: #888; stroke-width: 1; opacity: 1;"></line><line transform="translate(0,381)" x2="-5" y2="0" style="fill: none; stroke: #888; stroke-width: 1; opacity: 1;"></line><line transform="translate(0,163)" x2="-5" y2="0" style="fill: none; stroke: #888; stroke-width: 1; opacity: 1;"></line></g><g class="mark-text role-axis-label" style="pointer-events: none;"><text text-anchor="end" transform="translate(-7,607)" style="font-family: Arial; font-size: 30px; fill: #000; opacity: 1;">0.0</text><text text-anchor="end" transform="translate(-7,389.54545454545456)" style="font-family: Arial; font-size: 30px; fill: #000; opacity: 1;">0.2</text><text text-anchor="end" transform="translate(-7,172.09090909090907)" style="font-family: Arial; font-size: 30px; fill: #000; opacity: 1;">0.4</text></g><g class="mark-rule role-axis-domain" style="pointer-events: none;"><line transform="translate(0,598)" x2="0" y2="-598" style="fill: none; stroke: #888; stroke-width: 1; opacity: 1;"></line></g><g class="mark-text role-axis-title" style="pointer-events: none;"><text text-anchor="middle" transform="translate(-52.7041015625,299) rotate(-90) translate(0,-6)" style="font-family: Arial; font-size: 30px; font-weight: bold; fill: #000; opacity: 1;">Mean Absolute Error (cm)</text></g></g><path class="foreground" d="" style="pointer-events: none; display: none; fill: none;"></path></g></g><g class="mark-line role-mark layer_0_marks"><path d="M0,176.92287221361295L1685.25,176.92287221361295" style="fill: none; stroke: #BFC0C0; stroke-width: 3; stroke-dasharray: 8,8; opacity: 1;"></path></g><g class="mark-text role-mark layer_1_marks"><text text-anchor="end" transform="translate(1685.25,171.92287221361295)" style="font-family: Arial; font-size: 24px; fill: #BFC0C0; opacity: 1;">baseline</text></g><g class="mark-symbol role-mark layer_2_marks"><path transform="translate(944.4372650957362,342.14706084457316)" d="M9.354143466934854,0A9.354143466934854,9.354143466934854,0,1,1,-9.354143466934854,0A9.354143466934854,9.354143466934854,0,1,1,9.354143466934854,0" style="fill: none; stroke: black; stroke-width: 8; opacity: 0.7;"></path><path transform="translate(944.4372650957362,450.51516766006296)" d="M0,-8.100925873009825L-9.354143466934854,8.100925873009825L9.354143466934854,8.100925873009825Z" style="fill: none; stroke: #0096C7; stroke-width: 8; opacity: 0.7;"></path><path transform="translate(944.4372650957362,385.86506414895666)" d="M-9.354143466934854,-9.354143466934854h18.708286933869708v18.708286933869708h-18.708286933869708Z" style="fill: none; stroke: #BFC0C0; stroke-width: 8; opacity: 0.7;"></path><path transform="translate(1663.3115254534796,505.9489238220182)" d="M9.354143466934854,0A9.354143466934854,9.354143466934854,0,1,1,-9.354143466934854,0A9.354143466934854,9.354143466934854,0,1,1,9.354143466934854,0" style="fill: none; stroke: black; stroke-width: 8; opacity: 0.7;"></path><path transform="translate(1663.3115254534796,493.34498304494406)" d="M0,-8.100925873009825L-9.354143466934854,8.100925873009825L9.354143466934854,8.100925873009825Z" style="fill: none; stroke: #0096C7; stroke-width: 8; opacity: 0.7;"></path><path transform="translate(1663.3115254534796,492.255564797396)" d="M-9.354143466934854,-9.354143466934854h18.708286933869708v18.708286933869708h-18.708286933869708Z" style="fill: none; stroke: #BFC0C0; stroke-width: 8; opacity: 0.7;"></path><path transform="translate(1105.7952963501732,337.0157502556389)" d="M9.354143466934854,0A9.354143466934854,9.354143466934854,0,1,1,-9.354143466934854,0A9.354143466934854,9.354143466934854,0,1,1,9.354143466934854,0" style="fill: none; stroke: black; stroke-width: 8; opacity: 0.7;"></path><path transform="translate(1105.7952963501732,465.9134666967121)" d="M0,-8.100925873009825L-9.354143466934854,8.100925873009825L9.354143466934854,8.100925873009825Z" style="fill: none; stroke: #0096C7; stroke-width: 8; opacity: 0.7;"></path><path transform="translate(1105.7952963501732,394.4033351648928)" d="M-9.354143466934854,-9.354143466934854h18.708286933869708v18.708286933869708h-18.708286933869708Z" style="fill: none; stroke: #BFC0C0; stroke-width: 8; opacity: 0.7;"></path><path transform="translate(392.64639993575855,20.67482743371617)" d="M9.354143466934854,0A9.354143466934854,9.354143466934854,0,1,1,-9.354143466934854,0A9.354143466934854,9.354143466934854,0,1,1,9.354143466934854,0" style="fill: none; stroke: black; stroke-width: 8; opacity: 0.7;"></path><path transform="translate(392.64639993575855,240.028748660196)" d="M0,-8.100925873009825L-9.354143466934854,8.100925873009825L9.354143466934854,8.100925873009825Z" style="fill: none; stroke: #0096C7; stroke-width: 8; opacity: 0.7;"></path><path transform="translate(392.64639993575855,231.42169042973381)" d="M-9.354143466934854,-9.354143466934854h18.708286933869708v18.708286933869708h-18.708286933869708Z" style="fill: none; stroke: #BFC0C0; stroke-width: 8; opacity: 0.7;"></path><path transform="translate(1264.1734362970212,317.1936846413396)" d="M9.354143466934854,0A9.354143466934854,9.354143466934854,0,1,1,-9.354143466934854,0A9.354143466934854,9.354143466934854,0,1,1,9.354143466934854,0" style="fill: none; stroke: black; stroke-width: 8; opacity: 0.7;"></path><path transform="translate(1264.1734362970212,479.7869481268932)" d="M0,-8.100925873009825L-9.354143466934854,8.100925873009825L9.354143466934854,8.100925873009825Z" style="fill: none; stroke: #0096C7; stroke-width: 8; opacity: 0.7;"></path><path transform="translate(1264.1734362970212,442.1762076963309)" d="M-9.354143466934854,-9.354143466934854h18.708286933869708v18.708286933869708h-18.708286933869708Z" style="fill: none; stroke: #BFC0C0; stroke-width: 8; opacity: 0.7;"></path><path transform="translate(705.1493297417821,268.1924848659472)" d="M9.354143466934854,0A9.354143466934854,9.354143466934854,0,1,1,-9.354143466934854,0A9.354143466934854,9.354143466934854,0,1,1,9.354143466934854,0" style="fill: none; stroke: black; stroke-width: 8; opacity: 0.7;"></path><path transform="translate(705.1493297417821,398.6202272300016)" d="M0,-8.100925873009825L-9.354143466934854,8.100925873009825L9.354143466934854,8.100925873009825Z" style="fill: none; stroke: #0096C7; stroke-width: 8; opacity: 0.7;"></path><path transform="translate(705.1493297417821,326.5531199881094)" d="M-9.354143466934854,-9.354143466934854h18.708286933869708v18.708286933869708h-18.708286933869708Z" style="fill: none; stroke: #BFC0C0; stroke-width: 8; opacity: 0.7;"></path><path transform="translate(1491.524015755294,470.99950737011704)" d="M9.354143466934854,0A9.354143466934854,9.354143466934854,0,1,1,-9.354143466934854,0A9.354143466934854,9.354143466934854,0,1,1,9.354143466934854,0" style="fill: none; stroke: black; stroke-width: 8; opacity: 0.7;"></path><path transform="translate(1491.524015755294,499.2084594792263)" d="M0,-8.100925873009825L-9.354143466934854,8.100925873009825L9.354143466934854,8.100925873009825Z" style="fill: none; stroke: #0096C7; stroke-width: 8; opacity: 0.7;"></path><path transform="translate(1491.524015755294,472.0523237142777)" d="M-9.354143466934854,-9.354143466934854h18.708286933869708v18.708286933869708h-18.708286933869708Z" style="fill: none; stroke: #BFC0C0; stroke-width: 8; opacity: 0.7;"></path><path transform="translate(507.3108001927243,172.88023094832903)" d="M9.354143466934854,0A9.354143466934854,9.354143466934854,0,1,1,-9.354143466934854,0A9.354143466934854,9.354143466934854,0,1,1,9.354143466934854,0" style="fill: none; stroke: black; stroke-width: 8; opacity: 0.7;"></path><path transform="translate(507.3108001927243,331.7452734494752)" d="M0,-8.100925873009825L-9.354143466934854,8.100925873009825L9.354143466934854,8.100925873009825Z" style="fill: none; stroke: #0096C7; stroke-width: 8; opacity: 0.7;"></path><path transform="translate(507.3108001927243,294.41645383774085)" d="M-9.354143466934854,-9.354143466934854h18.708286933869708v18.708286933869708h-18.708286933869708Z" style="fill: none; stroke: #BFC0C0; stroke-width: 8; opacity: 0.7;"></path></g><g class="mark-rule role-mark layer_3_marks"><line transform="translate(944.4372650957362,342.14706084457316)" x2="0" y2="108.3681068154898" style="fill: none; stroke: black; stroke-width: 2;"></line><line transform="translate(1663.3115254534796,505.9489238220182)" x2="0" y2="-12.603940777074115" style="fill: none; stroke: red; stroke-width: 2;"></line><line transform="translate(1105.7952963501732,337.0157502556389)" x2="0" y2="128.89771644107316" style="fill: none; stroke: black; stroke-width: 2;"></line><line transform="translate(392.64639993575855,20.67482743371617)" x2="0" y2="219.35392122647983" style="fill: none; stroke: black; stroke-width: 2;"></line><line transform="translate(1264.1734362970212,317.1936846413396)" x2="0" y2="162.59326348555362" style="fill: none; stroke: black; stroke-width: 2;"></line><line transform="translate(705.1493297417821,268.1924848659472)" x2="0" y2="130.42774236405438" style="fill: none; stroke: black; stroke-width: 2;"></line><line transform="translate(1491.524015755294,470.99950737011704)" x2="0" y2="28.208952109109248" style="fill: none; stroke: black; stroke-width: 2;"></line><line transform="translate(507.3108001927243,172.88023094832903)" x2="0" y2="158.86504250114615" style="fill: none; stroke: black; stroke-width: 2;"></line></g><g class="mark-group role-legend"><g transform="translate(0,-51)"><path class="background" d="M0,0h796v33h-796Z" style="pointer-events: none; fill: none;"></path><g><g class="mark-group role-legend-entry"><g transform="translate(0,0)"><path class="background" d="M0,0h0v0h0Z" style="pointer-events: none; fill: none;"></path><g><g class="mark-group role-scope"><g transform="translate(0,0.32292826653257123)"><path class="background" d="M0,0h100.6650390625v32.35414346693486h-100.6650390625Z" style="pointer-events: none; fill: none; opacity: 1;"></path><g><g class="mark-symbol role-legend-symbol" style="pointer-events: none;"><path transform="translate(15,15)" d="M9.354143466934854,0A9.354143466934854,9.354143466934854,0,1,1,-9.354143466934854,0A9.354143466934854,9.354143466934854,0,1,1,9.354143466934854,0" style="fill: none; stroke: black; stroke-width: 8; opacity: 0.7;"></path></g><g class="mark-text role-legend-label" style="pointer-events: none;"><text text-anchor="start" transform="translate(34,24)" style="font-family: Arial; font-size: 30px; fill: #000; opacity: 1;">GCN</text></g></g><path class="foreground" d="" style="pointer-events: none; display: none; fill: none;"></path></g><g transform="translate(164,0.32292826653257123)"><path class="background" d="M0,0h240.748046875v32.35414346693486h-240.748046875Z" style="pointer-events: none; fill: none; opacity: 1;"></path><g><g class="mark-symbol role-legend-symbol" style="pointer-events: none;"><path transform="translate(15,15)" d="M-9.354143466934854,-9.354143466934854h18.708286933869708v18.708286933869708h-18.708286933869708Z" style="fill: none; stroke: #BFC0C0; stroke-width: 8; opacity: 0.7;"></path></g><g class="mark-text role-legend-label" style="pointer-events: none;"><text text-anchor="start" transform="translate(34,24)" style="font-family: Arial; font-size: 30px; fill: #000; opacity: 1;">Random Forest</text></g></g><path class="foreground" d="" style="pointer-events: none; display: none; fill: none;"></path></g><g transform="translate(468,0.9495370634950877)"><path class="background" d="M0,0h327.994140625v31.100925873009828h-327.994140625Z" style="pointer-events: none; fill: none; opacity: 1;"></path><g><g class="mark-symbol role-legend-symbol" style="pointer-events: none;"><path transform="translate(15,15)" d="M0,-8.100925873009825L-9.354143466934854,8.100925873009825L9.354143466934854,8.100925873009825Z" style="fill: none; stroke: #0096C7; stroke-width: 8; opacity: 0.7;"></path></g><g class="mark-text role-legend-label" style="pointer-events: none;"><text text-anchor="start" transform="translate(34,24)" style="font-family: Arial; font-size: 30px; fill: #000; opacity: 1;">Transfer learned GCN</text></g></g><path class="foreground" d="" style="pointer-events: none; display: none; fill: none;"></path></g></g></g><path class="foreground" d="" style="pointer-events: none; display: none; fill: none;"></path></g></g></g><path class="foreground" d="" style="pointer-events: none; display: none; fill: none;"></path></g></g><g class="mark-group role-title"><g transform="translate(842.625,-121)"><path class="background" d="M0,0h0v0h0Z" style="pointer-events: none; fill: none;"></path><g><g class="mark-text role-title-text" style="pointer-events: none;"><text text-anchor="middle" transform="translate(0,32)" style="font-family: Arial; font-size: 40px; font-weight: bold; fill: #000; opacity: 1;">D. Transfer learning across design models - DM 9</text></g></g><path class="foreground" d="" style="pointer-events: none; display: none; fill: none;"></path></g></g></g><path class="foreground" d="" style="display: none; fill: none;"></path></g></g></g></svg>