<svg class="marks" width="300" height="181.73076923076923" viewBox="0 0 300 181.73076923076923" version="1.1" xmlns="http://www.w3.org/2000/svg" xmlns:xlink="http://www.w3.org/1999/xlink"><rect width="300" height="181.73076923076923" style="fill: white;"></rect><g transform="translate(7,5)"><g class="mark-group role-frame root"><g transform="translate(0,0)"><path class="background" d="M0.5,0.5h286v171.73076923076923h-286Z" style="fill: none; stroke: #ddd; stroke-opacity: 0;"></path><g><g class="mark-symbol role-mark layer_0_marks"><path transform="translate(5.5,38.16239316239316)" d="M0.5,0A0.5,0.5,0,1,1,-0.5,0A0.5,0.5,0,1,1,0.5,0" style="fill: #000000; stroke-width: 2; opacity: 0;"></path><path transform="translate(51.33333158493042,38.16239316239316)" d="M0.5,0A0.5,0.5,0,1,1,-0.5,0A0.5,0.5,0,1,1,0.5,0" style="fill: #000000; stroke-width: 2; opacity: 0;"></path><path transform="translate(97.16666316986084,38.16239316239316)" d="M0.5,0A0.5,0.5,0,1,1,-0.5,0A0.5,0.5,0,1,1,0.5,0" style="fill: #000000; stroke-width: 2; opacity: 0;"></path><path transform="translate(143,38.16239316239316)" d="M0.5,0A0.5,0.5,0,1,1,-0.5,0A0.5,0.5,0,1,1,0.5,0" style="fill: #000000; stroke-width: 2; opacity: 0;"></path><path transform="translate(188.83332633972168,38.16239316239316)" d="M0.5,0A0.5,0.5,0,1,1,-0.5,0A0.5,0.5,0,1,1,0.5,0" style="fill: #000000; stroke-width: 2; opacity: 0;"></path><path transform="translate(234.66667366027832,38.16239316239316)" d="M0.5,0A0.5,0.5,0,1,1,-0.5,0A0.5,0.5,0,1,1,0.5,0" style="fill: #000000; stroke-width: 2; opacity: 0;"></path><path transform="translate(280.5,38.16239316239316)" d="M0.5,0A0.5,0.5,0,1,1,-0.5,0A0.5,0.5,0,1,1,0.5,0" style="fill: #000000; stroke-width: 2; opacity: 0;"></path><path transform="translate(50.97993040084839,71.56169848855454)" d="M0.5,0A0.5,0.5,0,1,1,-0.5,0A0.5,0.5,0,1,1,0.5,0" style="fill: #000000; stroke-width: 2; opacity: 0;"></path><path transform="translate(78.51749658584593,120.94604798434563)" d="M0.5,0A0.5,0.5,0,1,1,-0.5,0A0.5,0.5,0,1,1,0.5,0" style="fill: #000000; stroke-width: 2; opacity: 0;"></path><path transform="translate(116.43530464172363,140.60435725946857)" d="M0.5,0A0.5,0.5,0,1,1,-0.5,0A0.5,0.5,0,1,1,0.5,0" style="fill: #000000; stroke-width: 2; opacity: 0;"></path><path transform="translate(169.56469535827637,140.60435725946857)" d="M0.5,0A0.5,0.5,0,1,1,-0.5,0A0.5,0.5,0,1,1,0.5,0" style="fill: #000000; stroke-width: 2; opacity: 0;"></path><path transform="translate(207.4824981689453,120.94604798434563)" d="M0.5,0A0.5,0.5,0,1,1,-0.5,0A0.5,0.5,0,1,1,0.5,0" style="fill: #000000; stroke-width: 2; opacity: 0;"></path><path transform="translate(235.02007484436035,71.56169848855454)" d="M0.5,0A0.5,0.5,0,1,1,-0.5,0A0.5,0.5,0,1,1,0.5,0" style="fill: #000000; stroke-width: 2; opacity: 0;"></path></g><g class="mark-line role-mark layer_1_marks"><path d="M5.5,38.16239316239316L51.33333158493042,38.16239316239316" style="fill: none; stroke: #000000; stroke-width: 1; opacity: 1;"></path></g><g class="mark-line role-mark layer_2_marks"><path d="M5.5,38.16239316239316L50.97993040084839,71.56169848855454" style="fill: none; stroke: #000000; stroke-width: 1; opacity: 1;"></path></g><g class="mark-line role-mark layer_3_marks"><path d="M51.33333158493042,38.16239316239316L97.16666316986084,38.16239316239316" style="fill: none; stroke: #000000; stroke-width: 1; opacity: 1;"></path></g><g class="mark-line role-mark layer_4_marks"><path d="M50.97993040084839,71.56169848855454L51.33333158493042,38.16239316239316" style="fill: none; stroke: #000000; stroke-width: 1; opacity: 1;"></path></g><g class="mark-line role-mark layer_5_marks"><path d="M51.33333158493042,38.16239316239316L78.51749658584593,120.94604798434563" style="fill: none; stroke: #000000; stroke-width: 1; opacity: 1;"></path></g><g class="mark-line role-mark layer_6_marks"><path d="M97.16666316986084,38.16239316239316L143,38.16239316239316" style="fill: none; stroke: #000000; stroke-width: 1; opacity: 1;"></path></g><g class="mark-line role-mark layer_7_marks"><path d="M78.51749658584593,120.94604798434563L97.16666316986084,38.16239316239316" style="fill: none; stroke: #000000; stroke-width: 1; opacity: 1;"></path></g><g class="mark-line role-mark layer_8_marks"><path d="M97.16666316986084,38.16239316239316L116.43530464172363,140.60435725946857" style="fill: none; stroke: #000000; stroke-width: 1; opacity: 1;"></path></g><g class="mark-line role-mark layer_9_marks"><path d="M143,38.16239316239316L188.83332633972168,38.16239316239316" style="fill: none; stroke: #000000; stroke-width: 1; opacity: 1;"></path></g><g class="mark-line role-mark layer_10_marks"><path d="M116.43530464172363,140.60435725946857L143,38.16239316239316" style="fill: none; stroke: #000000; stroke-width: 1; opacity: 1;"></path></g><g class="mark-line role-mark layer_11_marks"><path d="M143,38.16239316239316L169.56469535827637,140.60435725946857" style="fill: none; stroke: #000000; stroke-width: 1; opacity: 1;"></path></g><g class="mark-line role-mark layer_12_marks"><path d="M188.83332633972168,38.16239316239316L234.66667366027832,38.16239316239316" style="fill: none; stroke: #000000; stroke-width: 1; opacity: 1;"></path></g><g class="mark-line role-mark layer_13_marks"><path d="M169.56469535827637,140.60435725946857L188.83332633972168,38.16239316239316" style="fill: none; stroke: #000000; stroke-width: 1; opacity: 1;"></path></g><g class="mark-line role-mark layer_14_marks"><path d="M188.83332633972168,38.16239316239316L207.4824981689453,120.94604798434563" style="fill: none; stroke: #000000; stroke-width: 1; opacity: 1;"></path></g><g class="mark-line role-mark layer_15_marks"><path d="M234.66667366027832,38.16239316239316L280.5,38.16239316239316" style="fill: none; stroke: #000000; stroke-width: 1; opacity: 1;"></path></g><g class="mark-line role-mark layer_16_marks"><path d="M207.4824981689453,120.94604798434563L234.66667366027832,38.16239316239316" style="fill: none; stroke: #000000; stroke-width: 1; opacity: 1;"></path></g><g class="mark-line role-mark layer_17_marks"><path d="M234.66667366027832,38.16239316239316L235.02007484436035,71.56169848855454" style="fill: none; stroke: #000000; stroke-width: 1; opacity: 1;"></path></g><g class="mark-line role-mark layer_18_marks"><path d="M235.02007484436035,71.56169848855454L280.5,38.16239316239316" style="fill: none; stroke: #000000; stroke-width: 1; opacity: 1;"></path></g><g class="mark-line role-mark layer_19_marks"><path d="M50.97993040084839,71.56169848855454L78.51749658584593,120.94604798434563" style="fill: none; stroke: #000000; stroke-width: 1; opacity: 1;"></path></g><g class="mark-line role-mark layer_20_marks"><path d="M78.51749658584593,120.94604798434563L116.43530464172363,140.60435725946857" style="fill: none; stroke: #000000; stroke-width: 1; opacity: 1;"></path></g><g class="mark-line role-mark layer_21_marks"><path d="M116.43530464172363,140.60435725946857L169.56469535827637,140.60435725946857" style="fill: none; stroke: #000000; stroke-width: 1; opacity: 1;"></path></g><g class="mark-line role-mark layer_22_marks"><path d="M169.56469535827637,140.60435725946857L207.4824981689453,120.94604798434563" style="fill: none; stroke: #000000; stroke-width: 1; opacity: 1;"></path></g><g class="mark-line role-mark layer_23_marks"><path d="M207.4824981689453,120.94604798434563L235.02007484436035,71.56169848855454" style="fill: none; stroke: #000000; stroke-width: 1; opacity: 1;"></path></g><g class="mark-symbol role-mark layer_24_marks"><path transform="translate(78.51749658584593,120.94604798434563)" d="M0,0L7.905694150420948,13.692662268529082L-7.905694150420948,13.692662268529082Z" style="fill: #0096C7; stroke: #0096C7; stroke-width: 2; opacity: 1;"></path></g><g class="mark-symbol role-mark layer_25_marks"><path transform="translate(207.4824981689453,120.94604798434563)" d="M0,0L7.905694150420948,13.692662268529082L-7.905694150420948,13.692662268529082ZM1.5811388300841898,16.064370513655366C1.5811388300841898,14.754512218824164,2.6429887803792735,13.69266226852908,3.9528470752104736,13.69266226852908C5.262705370041673,13.69266226852908,6.324555320336758,14.754512218824164,6.324555320336758,16.064370513655366C6.324555320336758,17.374228808486563,5.262705370041673,18.436078758781647,3.952847075210474,18.436078758781647C2.6429887803792744,18.436078758781647,1.5811388300841904,17.374228808486563,1.58113883008419,16.064370513655366M-6.324555320336759,16.064370513655366C-6.324555320336758,14.754512218824164,-5.262705370041675,13.69266226852908,-3.9528470752104745,13.69266226852908C-2.642988780379275,13.69266226852908,-1.5811388300841904,14.754512218824164,-1.58113883008419,16.064370513655366C-1.58113883008419,17.374228808486563,-2.6429887803792744,18.436078758781647,-3.952847075210474,18.436078758781647C-5.262705370041673,18.436078758781647,-6.324555320336758,17.374228808486563,-6.324555320336758,16.064370513655366" style="fill: #0096C7; stroke: #0096C7; stroke-width: 2; opacity: 1;"></path></g><g class="mark-symbol role-mark layer_26_marks"><path transform="translate(5.5,38.16239316239316)" d="M0,0L-4.898979485566357,-10.606601717798211L-1.2247448713915892,-10.606601717798211L-1.2247448713915892,-36.742346141747674L1.2247448713915892,-36.742346141747674L1.2247448713915892,-10.606601717798211L4.898979485566357,-10.606601717798211" style="fill: #0096C7; stroke: #0096C7; stroke-width: 2; opacity: 1;"></path><path transform="translate(51.33333158493042,38.16239316239316)" d="M0,0L-4.898979485566357,-10.606601717798211L-1.2247448713915892,-10.606601717798211L-1.2247448713915892,-36.742346141747674L1.2247448713915892,-36.742346141747674L1.2247448713915892,-10.606601717798211L4.898979485566357,-10.606601717798211" style="fill: #0096C7; stroke: #0096C7; stroke-width: 2; opacity: 1;"></path><path transform="translate(97.16666316986084,38.16239316239316)" d="M0,0L-4.898979485566357,-10.606601717798211L-1.2247448713915892,-10.606601717798211L-1.2247448713915892,-36.742346141747674L1.2247448713915892,-36.742346141747674L1.2247448713915892,-10.606601717798211L4.898979485566357,-10.606601717798211" style="fill: #0096C7; stroke: #0096C7; stroke-width: 2; opacity: 1;"></path><path transform="translate(143,38.16239316239316)" d="M0,0L-4.898979485566357,-10.606601717798211L-1.2247448713915892,-10.606601717798211L-1.2247448713915892,-36.742346141747674L1.2247448713915892,-36.742346141747674L1.2247448713915892,-10.606601717798211L4.898979485566357,-10.606601717798211" style="fill: #0096C7; stroke: #0096C7; stroke-width: 2; opacity: 1;"></path><path transform="translate(188.83332633972168,38.16239316239316)" d="M0,0L-4.898979485566357,-10.606601717798211L-1.2247448713915892,-10.606601717798211L-1.2247448713915892,-36.742346141747674L1.2247448713915892,-36.742346141747674L1.2247448713915892,-10.606601717798211L4.898979485566357,-10.606601717798211" style="fill: #0096C7; stroke: #0096C7; stroke-width: 2; opacity: 1;"></path><path transform="translate(234.66667366027832,38.16239316239316)" d="M0,0L-4.898979485566357,-10.606601717798211L-1.2247448713915892,-10.606601717798211L-1.2247448713915892,-36.742346141747674L1.2247448713915892,-36.742346141747674L1.2247448713915892,-10.606601717798211L4.898979485566357,-10.606601717798211" style="fill: #0096C7; stroke: #0096C7; stroke-width: 2; opacity: 1;"></path><path transform="translate(280.5,38.16239316239316)" d="M0,0L-4.898979485566357,-10.606601717798211L-1.2247448713915892,-10.606601717798211L-1.2247448713915892,-36.742346141747674L1.2247448713915892,-36.742346141747674L1.2247448713915892,-10.606601717798211L4.898979485566357,-10.606601717798211" style="fill: #0096C7; stroke: #0096C7; stroke-width: 2; opacity: 1;"></path></g></g><path class="foreground" d="" style="display: none; fill: none;"></path></g></g></g></svg>