<svg class="marks" width="300" height="181.73076923076923" viewBox="0 0 300 181.73076923076923" version="1.1" xmlns="http://www.w3.org/2000/svg" xmlns:xlink="http://www.w3.org/1999/xlink"><rect width="300" height="181.73076923076923" style="fill: white;"></rect><g transform="translate(5,5)"><g class="mark-group role-frame root"><g transform="translate(0,0)"><path class="background" d="M0.5,0.5h290v171.73076923076923h-290Z" style="fill: none; stroke: #ddd; stroke-opacity: 0;"></path><g><g class="mark-symbol role-mark layer_0_marks"><path transform="translate(5.5769230769230775,38.16239316239316)" d="M0.5,0A0.5,0.5,0,1,1,-0.5,0A0.5,0.5,0,1,1,0.5,0" style="fill: #000000; stroke-width: 2; opacity: 0;"></path><path transform="translate(52.05128027842595,38.16239316239316)" d="M0.5,0A0.5,0.5,0,1,1,-0.5,0A0.5,0.5,0,1,1,0.5,0" style="fill: #000000; stroke-width: 2; opacity: 0;"></path><path transform="translate(98.52563747992883,38.16239316239316)" d="M0.5,0A0.5,0.5,0,1,1,-0.5,0A0.5,0.5,0,1,1,0.5,0" style="fill: #000000; stroke-width: 2; opacity: 0;"></path><path transform="translate(145,38.16239316239316)" d="M0.5,0A0.5,0.5,0,1,1,-0.5,0A0.5,0.5,0,1,1,0.5,0" style="fill: #000000; stroke-width: 2; opacity: 0;"></path><path transform="translate(191.47435188293457,38.16239316239316)" d="M0.5,0A0.5,0.5,0,1,1,-0.5,0A0.5,0.5,0,1,1,0.5,0" style="fill: #000000; stroke-width: 2; opacity: 0;"></path><path transform="translate(237.94872504014234,38.16239316239316)" d="M0.5,0A0.5,0.5,0,1,1,-0.5,0A0.5,0.5,0,1,1,0.5,0" style="fill: #000000; stroke-width: 2; opacity: 0;"></path><path transform="translate(284.4230769230769,38.16239316239316)" d="M0.5,0A0.5,0.5,0,1,1,-0.5,0A0.5,0.5,0,1,1,0.5,0" style="fill: #000000; stroke-width: 2; opacity: 0;"></path><path transform="translate(37.02863839956431,92.08468895400982)" d="M0.5,0A0.5,0.5,0,1,1,-0.5,0A0.5,0.5,0,1,1,0.5,0" style="fill: #000000; stroke-width: 2; opacity: 0;"></path><path transform="translate(82.81724067834708,110.4576746739165)" d="M0.5,0A0.5,0.5,0,1,1,-0.5,0A0.5,0.5,0,1,1,0.5,0" style="fill: #000000; stroke-width: 2; opacity: 0;"></path><path transform="translate(124.9483060836792,84.16368724953414)" d="M0.5,0A0.5,0.5,0,1,1,-0.5,0A0.5,0.5,0,1,1,0.5,0" style="fill: #000000; stroke-width: 2; opacity: 0;"></path><path transform="translate(165.0516939163208,84.16368724953414)" d="M0.5,0A0.5,0.5,0,1,1,-0.5,0A0.5,0.5,0,1,1,0.5,0" style="fill: #000000; stroke-width: 2; opacity: 0;"></path><path transform="translate(207.18276464022122,110.4576746739165)" d="M0.5,0A0.5,0.5,0,1,1,-0.5,0A0.5,0.5,0,1,1,0.5,0" style="fill: #000000; stroke-width: 2; opacity: 0;"></path><path transform="translate(252.9713616004357,92.08468895400982)" d="M0.5,0A0.5,0.5,0,1,1,-0.5,0A0.5,0.5,0,1,1,0.5,0" style="fill: #000000; stroke-width: 2; opacity: 0;"></path></g><g class="mark-line role-mark layer_1_marks"><path d="M5.5769230769230775,38.16239316239316L52.05128027842595,38.16239316239316" style="fill: none; stroke: #000000; stroke-width: 1; opacity: 1;"></path></g><g class="mark-line role-mark layer_2_marks"><path d="M5.5769230769230775,38.16239316239316L37.02863839956431,92.08468895400982" style="fill: none; stroke: #000000; stroke-width: 1; opacity: 1;"></path></g><g class="mark-line role-mark layer_3_marks"><path d="M52.05128027842595,38.16239316239316L98.52563747992883,38.16239316239316" style="fill: none; stroke: #000000; stroke-width: 1; opacity: 1;"></path></g><g class="mark-line role-mark layer_4_marks"><path d="M37.02863839956431,92.08468895400982L52.05128027842595,38.16239316239316" style="fill: none; stroke: #000000; stroke-width: 1; opacity: 1;"></path></g><g class="mark-line role-mark layer_5_marks"><path d="M52.05128027842595,38.16239316239316L82.81724067834708,110.4576746739165" style="fill: none; stroke: #000000; stroke-width: 1; opacity: 1;"></path></g><g class="mark-line role-mark layer_6_marks"><path d="M98.52563747992883,38.16239316239316L145,38.16239316239316" style="fill: none; stroke: #000000; stroke-width: 1; opacity: 1;"></path></g><g class="mark-line role-mark layer_7_marks"><path d="M82.81724067834708,110.4576746739165L98.52563747992883,38.16239316239316" style="fill: none; stroke: #000000; stroke-width: 1; opacity: 1;"></path></g><g class="mark-line role-mark layer_8_marks"><path d="M98.52563747992883,38.16239316239316L124.9483060836792,84.16368724953414" style="fill: none; stroke: #000000; stroke-width: 1; opacity: 1;"></path></g><g class="mark-line role-mark layer_9_marks"><path d="M145,38.16239316239316L191.47435188293457,38.16239316239316" style="fill: none; stroke: #000000; stroke-width: 1; opacity: 1;"></path></g><g class="mark-line role-mark layer_10_marks"><path d="M124.9483060836792,84.16368724953414L145,38.16239316239316" style="fill: none; stroke: #000000; stroke-width: 1; opacity: 1;"></path></g><g class="mark-line role-mark layer_11_marks"><path d="M145,38.16239316239316L165.0516939163208,84.16368724953414" style="fill: none; stroke: #000000; stroke-width: 1; opacity: 1;"></path></g><g class="mark-line role-mark layer_12_marks"><path d="M191.47435188293457,38.16239316239316L237.94872504014234,38.16239316239316" style="fill: none; stroke: #000000; stroke-width: 1; opacity: 1;"></path></g><g class="mark-line role-mark layer_13_marks"><path d="M165.0516939163208,84.16368724953414L191.47435188293457,38.16239316239316" style="fill: none; stroke: #000000; stroke-width: 1; opacity: 1;"></path></g><g class="mark-line role-mark layer_14_marks"><path d="M191.47435188293457,38.16239316239316L207.18276464022122,110.4576746739165" style="fill: none; stroke: #000000; stroke-width: 1; opacity: 1;"></path></g><g class="mark-line role-mark layer_15_marks"><path d="M237.94872504014234,38.16239316239316L284.4230769230769,38.16239316239316" style="fill: none; stroke: #000000; stroke-width: 1; opacity: 1;"></path></g><g class="mark-line role-mark layer_16_marks"><path d="M207.18276464022122,110.4576746739165L237.94872504014234,38.16239316239316" style="fill: none; stroke: #000000; stroke-width: 1; opacity: 1;"></path></g><g class="mark-line role-mark layer_17_marks"><path d="M237.94872504014234,38.16239316239316L252.9713616004357,92.08468895400982" style="fill: none; stroke: #000000; stroke-width: 1; opacity: 1;"></path></g><g class="mark-line role-mark layer_18_marks"><path d="M252.9713616004357,92.08468895400982L284.4230769230769,38.16239316239316" style="fill: none; stroke: #000000; stroke-width: 1; opacity: 1;"></path></g><g class="mark-line role-mark layer_19_marks"><path d="M37.02863839956431,92.08468895400982L82.81724067834708,110.4576746739165" style="fill: none; stroke: #000000; stroke-width: 1; opacity: 1;"></path></g><g class="mark-line role-mark layer_20_marks"><path d="M82.81724067834708,110.4576746739165L124.9483060836792,84.16368724953414" style="fill: none; stroke: #000000; stroke-width: 1; opacity: 1;"></path></g><g class="mark-line role-mark layer_21_marks"><path d="M124.9483060836792,84.16368724953414L165.0516939163208,84.16368724953414" style="fill: none; stroke: #000000; stroke-width: 1; opacity: 1;"></path></g><g class="mark-line role-mark layer_22_marks"><path d="M165.0516939163208,84.16368724953414L207.18276464022122,110.4576746739165" style="fill: none; stroke: #000000; stroke-width: 1; opacity: 1;"></path></g><g class="mark-line role-mark layer_23_marks"><path d="M207.18276464022122,110.4576746739165L252.9713616004357,92.08468895400982" style="fill: none; stroke: #000000; stroke-width: 1; opacity: 1;"></path></g></g><path class="foreground" d="" style="display: none; fill: none;"></path></g></g></g></svg>