<svg class="marks" width="300" height="181.73076923076923" viewBox="0 0 300 181.73076923076923" version="1.1" xmlns="http://www.w3.org/2000/svg" xmlns:xlink="http://www.w3.org/1999/xlink"><rect width="300" height="181.73076923076923" style="fill: white;"></rect><g transform="translate(5,5)"><g class="mark-group role-frame root"><g transform="translate(0,0)"><path class="background" d="M0.5,0.5h290v171.73076923076923h-290Z" style="fill: none; stroke: #ddd; stroke-opacity: 0;"></path><g><g class="mark-symbol role-mark layer_0_marks"><path transform="translate(5.5769230769230775,38.16239316239316)" d="M0.5,0A0.5,0.5,0,1,1,-0.5,0A0.5,0.5,0,1,1,0.5,0" style="fill: #000000; stroke-width: 2; opacity: 0;"></path><path transform="translate(52.05128027842595,38.16239316239316)" d="M0.5,0A0.5,0.5,0,1,1,-0.5,0A0.5,0.5,0,1,1,0.5,0" style="fill: #000000; stroke-width: 2; opacity: 0;"></path><path transform="translate(98.52563747992883,38.16239316239316)" d="M0.5,0A0.5,0.5,0,1,1,-0.5,0A0.5,0.5,0,1,1,0.5,0" style="fill: #000000; stroke-width: 2; opacity: 0;"></path><path transform="translate(145,38.16239316239316)" d="M0.5,0A0.5,0.5,0,1,1,-0.5,0A0.5,0.5,0,1,1,0.5,0" style="fill: #000000; stroke-width: 2; opacity: 0;"></path><path transform="translate(191.47435188293457,38.16239316239316)" d="M0.5,0A0.5,0.5,0,1,1,-0.5,0A0.5,0.5,0,1,1,0.5,0" style="fill: #000000; stroke-width: 2; opacity: 0;"></path><path transform="translate(237.94872504014234,38.16239316239316)" d="M0.5,0A0.5,0.5,0,1,1,-0.5,0A0.5,0.5,0,1,1,0.5,0" style="fill: #000000; stroke-width: 2; opacity: 0;"></path><path transform="translate(284.4230769230769,38.16239316239316)" d="M0.5,0A0.5,0.5,0,1,1,-0.5,0A0.5,0.5,0,1,1,0.5,0" style="fill: #000000; stroke-width: 2; opacity: 0;"></path><path transform="translate(22.513418518579925,96.79156809353857)" d="M0.5,0A0.5,0.5,0,1,1,-0.5,0A0.5,0.5,0,1,1,0.5,0" style="fill: #000000; stroke-width: 2; opacity: 0;"></path><path transform="translate(57.580107542184685,139.69940296168437)" d="M0.5,0A0.5,0.5,0,1,1,-0.5,0A0.5,0.5,0,1,1,0.5,0" style="fill: #000000; stroke-width: 2; opacity: 0;"></path><path transform="translate(115.7887422121488,119.91230916918707)" d="M0.5,0A0.5,0.5,0,1,1,-0.5,0A0.5,0.5,0,1,1,0.5,0" style="fill: #000000; stroke-width: 2; opacity: 0;"></path><path transform="translate(174.21125778785117,119.91230916918707)" d="M0.5,0A0.5,0.5,0,1,1,-0.5,0A0.5,0.5,0,1,1,0.5,0" style="fill: #000000; stroke-width: 2; opacity: 0;"></path><path transform="translate(232.4199030949519,139.69940296168437)" d="M0.5,0A0.5,0.5,0,1,1,-0.5,0A0.5,0.5,0,1,1,0.5,0" style="fill: #000000; stroke-width: 2; opacity: 0;"></path><path transform="translate(267.4865854703463,96.79156809353857)" d="M0.5,0A0.5,0.5,0,1,1,-0.5,0A0.5,0.5,0,1,1,0.5,0" style="fill: #000000; stroke-width: 2; opacity: 0;"></path></g><g class="mark-line role-mark layer_1_marks"><path d="M5.5769230769230775,38.16239316239316L52.05128027842595,38.16239316239316" style="fill: none; stroke: #000000; stroke-width: 1; opacity: 1;"></path></g><g class="mark-line role-mark layer_2_marks"><path d="M5.5769230769230775,38.16239316239316L22.513418518579925,96.79156809353857" style="fill: none; stroke: #000000; stroke-width: 1; opacity: 1;"></path></g><g class="mark-line role-mark layer_3_marks"><path d="M52.05128027842595,38.16239316239316L98.52563747992883,38.16239316239316" style="fill: none; stroke: #000000; stroke-width: 1; opacity: 1;"></path></g><g class="mark-line role-mark layer_4_marks"><path d="M22.513418518579925,96.79156809353857L52.05128027842595,38.16239316239316" style="fill: none; stroke: #000000; stroke-width: 1; opacity: 1;"></path></g><g class="mark-line role-mark layer_5_marks"><path d="M52.05128027842595,38.16239316239316L57.580107542184685,139.69940296168437" style="fill: none; stroke: #000000; stroke-width: 1; opacity: 1;"></path></g><g class="mark-line role-mark layer_6_marks"><path d="M98.52563747992883,38.16239316239316L145,38.16239316239316" style="fill: none; stroke: #000000; stroke-width: 1; opacity: 1;"></path></g><g class="mark-line role-mark layer_7_marks"><path d="M57.580107542184685,139.69940296168437L98.52563747992883,38.16239316239316" style="fill: none; stroke: #000000; stroke-width: 1; opacity: 1;"></path></g><g class="mark-line role-mark layer_8_marks"><path d="M98.52563747992883,38.16239316239316L115.7887422121488,119.91230916918707" style="fill: none; stroke: #000000; stroke-width: 1; opacity: 1;"></path></g><g class="mark-line role-mark layer_9_marks"><path d="M145,38.16239316239316L191.47435188293457,38.16239316239316" style="fill: none; stroke: #000000; stroke-width: 1; opacity: 1;"></path></g><g class="mark-line role-mark layer_10_marks"><path d="M115.7887422121488,119.91230916918707L145,38.16239316239316" style="fill: none; stroke: #000000; stroke-width: 1; opacity: 1;"></path></g><g class="mark-line role-mark layer_11_marks"><path d="M145,38.16239316239316L174.21125778785117,119.91230916918707" style="fill: none; stroke: #000000; stroke-width: 1; opacity: 1;"></path></g><g class="mark-line role-mark layer_12_marks"><path d="M191.47435188293457,38.16239316239316L237.94872504014234,38.16239316239316" style="fill: none; stroke: #000000; stroke-width: 1; opacity: 1;"></path></g><g class="mark-line role-mark layer_13_marks"><path d="M174.21125778785117,119.91230916918707L191.47435188293457,38.16239316239316" style="fill: none; stroke: #000000; stroke-width: 1; opacity: 1;"></path></g><g class="mark-line role-mark layer_14_marks"><path d="M191.47435188293457,38.16239316239316L232.4199030949519,139.69940296168437" style="fill: none; stroke: #000000; stroke-width: 1; opacity: 1;"></path></g><g class="mark-line role-mark layer_15_marks"><path d="M237.94872504014234,38.16239316239316L284.4230769230769,38.16239316239316" style="fill: none; stroke: #000000; stroke-width: 1; opacity: 1;"></path></g><g class="mark-line role-mark layer_16_marks"><path d="M232.4199030949519,139.69940296168437L237.94872504014234,38.16239316239316" style="fill: none; stroke: #000000; stroke-width: 1; opacity: 1;"></path></g><g class="mark-line role-mark layer_17_marks"><path d="M237.94872504014234,38.16239316239316L267.4865854703463,96.79156809353857" style="fill: none; stroke: #000000; stroke-width: 1; opacity: 1;"></path></g><g class="mark-line role-mark layer_18_marks"><path d="M267.4865854703463,96.79156809353857L284.4230769230769,38.16239316239316" style="fill: none; stroke: #000000; stroke-width: 1; opacity: 1;"></path></g><g class="mark-line role-mark layer_19_marks"><path d="M22.513418518579925,96.79156809353857L57.580107542184685,139.69940296168437" style="fill: none; stroke: #000000; stroke-width: 1; opacity: 1;"></path></g><g class="mark-line role-mark layer_20_marks"><path d="M57.580107542184685,139.69940296168437L115.7887422121488,119.91230916918707" style="fill: none; stroke: #000000; stroke-width: 1; opacity: 1;"></path></g><g class="mark-line role-mark layer_21_marks"><path d="M115.7887422121488,119.91230916918707L174.21125778785117,119.91230916918707" style="fill: none; stroke: #000000; stroke-width: 1; opacity: 1;"></path></g><g class="mark-line role-mark layer_22_marks"><path d="M174.21125778785117,119.91230916918707L232.4199030949519,139.69940296168437" style="fill: none; stroke: #000000; stroke-width: 1; opacity: 1;"></path></g><g class="mark-line role-mark layer_23_marks"><path d="M232.4199030949519,139.69940296168437L267.4865854703463,96.79156809353857" style="fill: none; stroke: #000000; stroke-width: 1; opacity: 1;"></path></g></g><path class="foreground" d="" style="display: none; fill: none;"></path></g></g></g></svg>