<svg class="marks" width="300" height="181.73076923076923" viewBox="0 0 300 181.73076923076923" version="1.1" xmlns="http://www.w3.org/2000/svg" xmlns:xlink="http://www.w3.org/1999/xlink"><rect width="300" height="181.73076923076923" style="fill: white;"></rect><g transform="translate(7,5)"><g class="mark-group role-frame root"><g transform="translate(0,0)"><path class="background" d="M0.5,0.5h286v171.73076923076923h-286Z" style="fill: none; stroke: #ddd; stroke-opacity: 0;"></path><g><g class="mark-symbol role-mark layer_0_marks"><path transform="translate(5.5,38.16239316239316)" d="M0.5,0A0.5,0.5,0,1,1,-0.5,0A0.5,0.5,0,1,1,0.5,0" style="fill: #000000; stroke-width: 2; opacity: 0;"></path><path transform="translate(39.875,38.16239316239316)" d="M0.5,0A0.5,0.5,0,1,1,-0.5,0A0.5,0.5,0,1,1,0.5,0" style="fill: #000000; stroke-width: 2; opacity: 0;"></path><path transform="translate(74.25,38.16239316239316)" d="M0.5,0A0.5,0.5,0,1,1,-0.5,0A0.5,0.5,0,1,1,0.5,0" style="fill: #000000; stroke-width: 2; opacity: 0;"></path><path transform="translate(108.625,38.16239316239316)" d="M0.5,0A0.5,0.5,0,1,1,-0.5,0A0.5,0.5,0,1,1,0.5,0" style="fill: #000000; stroke-width: 2; opacity: 0;"></path><path transform="translate(143,38.16239316239316)" d="M0.5,0A0.5,0.5,0,1,1,-0.5,0A0.5,0.5,0,1,1,0.5,0" style="fill: #000000; stroke-width: 2; opacity: 0;"></path><path transform="translate(177.375,38.16239316239316)" d="M0.5,0A0.5,0.5,0,1,1,-0.5,0A0.5,0.5,0,1,1,0.5,0" style="fill: #000000; stroke-width: 2; opacity: 0;"></path><path transform="translate(211.75,38.16239316239316)" d="M0.5,0A0.5,0.5,0,1,1,-0.5,0A0.5,0.5,0,1,1,0.5,0" style="fill: #000000; stroke-width: 2; opacity: 0;"></path><path transform="translate(246.12500000000003,38.16239316239316)" d="M0.5,0A0.5,0.5,0,1,1,-0.5,0A0.5,0.5,0,1,1,0.5,0" style="fill: #000000; stroke-width: 2; opacity: 0;"></path><path transform="translate(280.5,38.16239316239316)" d="M0.5,0A0.5,0.5,0,1,1,-0.5,0A0.5,0.5,0,1,1,0.5,0" style="fill: #000000; stroke-width: 2; opacity: 0;"></path><path transform="translate(21.564019560813904,73.57070056510058)" d="M0.5,0A0.5,0.5,0,1,1,-0.5,0A0.5,0.5,0,1,1,0.5,0" style="fill: #000000; stroke-width: 2; opacity: 0;"></path><path transform="translate(45.46612501144409,103.734498961359)" d="M0.5,0A0.5,0.5,0,1,1,-0.5,0A0.5,0.5,0,1,1,0.5,0" style="fill: #000000; stroke-width: 2; opacity: 0;"></path><path transform="translate(84.22458791732788,106.30952380952381)" d="M0.5,0A0.5,0.5,0,1,1,-0.5,0A0.5,0.5,0,1,1,0.5,0" style="fill: #000000; stroke-width: 2; opacity: 0;"></path><path transform="translate(123.40819072723389,106.30952380952381)" d="M0.5,0A0.5,0.5,0,1,1,-0.5,0A0.5,0.5,0,1,1,0.5,0" style="fill: #000000; stroke-width: 2; opacity: 0;"></path><path transform="translate(162.5918092727661,106.30952380952381)" d="M0.5,0A0.5,0.5,0,1,1,-0.5,0A0.5,0.5,0,1,1,0.5,0" style="fill: #000000; stroke-width: 2; opacity: 0;"></path><path transform="translate(201.77541732788086,106.30952380952381)" d="M0.5,0A0.5,0.5,0,1,1,-0.5,0A0.5,0.5,0,1,1,0.5,0" style="fill: #000000; stroke-width: 2; opacity: 0;"></path><path transform="translate(240.53388023376468,103.734498961359)" d="M0.5,0A0.5,0.5,0,1,1,-0.5,0A0.5,0.5,0,1,1,0.5,0" style="fill: #000000; stroke-width: 2; opacity: 0;"></path><path transform="translate(264.4359817504883,73.57070056510058)" d="M0.5,0A0.5,0.5,0,1,1,-0.5,0A0.5,0.5,0,1,1,0.5,0" style="fill: #000000; stroke-width: 2; opacity: 0;"></path></g><g class="mark-line role-mark layer_1_marks"><path d="M5.5,38.16239316239316L39.875,38.16239316239316" style="fill: none; stroke: #000000; stroke-width: 1; opacity: 1;"></path></g><g class="mark-line role-mark layer_2_marks"><path d="M5.5,38.16239316239316L21.564019560813904,73.57070056510058" style="fill: none; stroke: #000000; stroke-width: 1; opacity: 1;"></path></g><g class="mark-line role-mark layer_3_marks"><path d="M39.875,38.16239316239316L74.25,38.16239316239316" style="fill: none; stroke: #000000; stroke-width: 1; opacity: 1;"></path></g><g class="mark-line role-mark layer_4_marks"><path d="M21.564019560813904,73.57070056510058L39.875,38.16239316239316" style="fill: none; stroke: #000000; stroke-width: 1; opacity: 1;"></path></g><g class="mark-line role-mark layer_5_marks"><path d="M39.875,38.16239316239316L45.46612501144409,103.734498961359" style="fill: none; stroke: #000000; stroke-width: 1; opacity: 1;"></path></g><g class="mark-line role-mark layer_6_marks"><path d="M74.25,38.16239316239316L108.625,38.16239316239316" style="fill: none; stroke: #000000; stroke-width: 1; opacity: 1;"></path></g><g class="mark-line role-mark layer_7_marks"><path d="M45.46612501144409,103.734498961359L74.25,38.16239316239316" style="fill: none; stroke: #000000; stroke-width: 1; opacity: 1;"></path></g><g class="mark-line role-mark layer_8_marks"><path d="M74.25,38.16239316239316L84.22458791732788,106.30952380952381" style="fill: none; stroke: #000000; stroke-width: 1; opacity: 1;"></path></g><g class="mark-line role-mark layer_9_marks"><path d="M108.625,38.16239316239316L143,38.16239316239316" style="fill: none; stroke: #000000; stroke-width: 1; opacity: 1;"></path></g><g class="mark-line role-mark layer_10_marks"><path d="M84.22458791732788,106.30952380952381L108.625,38.16239316239316" style="fill: none; stroke: #000000; stroke-width: 1; opacity: 1;"></path></g><g class="mark-line role-mark layer_11_marks"><path d="M108.625,38.16239316239316L123.40819072723389,106.30952380952381" style="fill: none; stroke: #000000; stroke-width: 1; opacity: 1;"></path></g><g class="mark-line role-mark layer_12_marks"><path d="M143,38.16239316239316L177.375,38.16239316239316" style="fill: none; stroke: #000000; stroke-width: 1; opacity: 1;"></path></g><g class="mark-line role-mark layer_13_marks"><path d="M123.40819072723389,106.30952380952381L143,38.16239316239316" style="fill: none; stroke: #000000; stroke-width: 1; opacity: 1;"></path></g><g class="mark-line role-mark layer_14_marks"><path d="M143,38.16239316239316L162.5918092727661,106.30952380952381" style="fill: none; stroke: #000000; stroke-width: 1; opacity: 1;"></path></g><g class="mark-line role-mark layer_15_marks"><path d="M177.375,38.16239316239316L211.75,38.16239316239316" style="fill: none; stroke: #000000; stroke-width: 1; opacity: 1;"></path></g><g class="mark-line role-mark layer_16_marks"><path d="M162.5918092727661,106.30952380952381L177.375,38.16239316239316" style="fill: none; stroke: #000000; stroke-width: 1; opacity: 1;"></path></g><g class="mark-line role-mark layer_17_marks"><path d="M177.375,38.16239316239316L201.77541732788086,106.30952380952381" style="fill: none; stroke: #000000; stroke-width: 1; opacity: 1;"></path></g><g class="mark-line role-mark layer_18_marks"><path d="M211.75,38.16239316239316L246.12500000000003,38.16239316239316" style="fill: none; stroke: #000000; stroke-width: 1; opacity: 1;"></path></g><g class="mark-line role-mark layer_19_marks"><path d="M201.77541732788086,106.30952380952381L211.75,38.16239316239316" style="fill: none; stroke: #000000; stroke-width: 1; opacity: 1;"></path></g><g class="mark-line role-mark layer_20_marks"><path d="M211.75,38.16239316239316L240.53388023376468,103.734498961359" style="fill: none; stroke: #000000; stroke-width: 1; opacity: 1;"></path></g><g class="mark-line role-mark layer_21_marks"><path d="M246.12500000000003,38.16239316239316L280.5,38.16239316239316" style="fill: none; stroke: #000000; stroke-width: 1; opacity: 1;"></path></g><g class="mark-line role-mark layer_22_marks"><path d="M240.53388023376468,103.734498961359L246.12500000000003,38.16239316239316" style="fill: none; stroke: #000000; stroke-width: 1; opacity: 1;"></path></g><g class="mark-line role-mark layer_23_marks"><path d="M246.12500000000003,38.16239316239316L264.4359817504883,73.57070056510058" style="fill: none; stroke: #000000; stroke-width: 1; opacity: 1;"></path></g><g class="mark-line role-mark layer_24_marks"><path d="M264.4359817504883,73.57070056510058L280.5,38.16239316239316" style="fill: none; stroke: #000000; stroke-width: 1; opacity: 1;"></path></g><g class="mark-line role-mark layer_25_marks"><path d="M21.564019560813904,73.57070056510058L45.46612501144409,103.734498961359" style="fill: none; stroke: #000000; stroke-width: 1; opacity: 1;"></path></g><g class="mark-line role-mark layer_26_marks"><path d="M45.46612501144409,103.734498961359L84.22458791732788,106.30952380952381" style="fill: none; stroke: #000000; stroke-width: 1; opacity: 1;"></path></g><g class="mark-line role-mark layer_27_marks"><path d="M84.22458791732788,106.30952380952381L123.40819072723389,106.30952380952381" style="fill: none; stroke: #000000; stroke-width: 1; opacity: 1;"></path></g><g class="mark-line role-mark layer_28_marks"><path d="M123.40819072723389,106.30952380952381L162.5918092727661,106.30952380952381" style="fill: none; stroke: #000000; stroke-width: 1; opacity: 1;"></path></g><g class="mark-line role-mark layer_29_marks"><path d="M162.5918092727661,106.30952380952381L201.77541732788086,106.30952380952381" style="fill: none; stroke: #000000; stroke-width: 1; opacity: 1;"></path></g><g class="mark-line role-mark layer_30_marks"><path d="M201.77541732788086,106.30952380952381L240.53388023376468,103.734498961359" style="fill: none; stroke: #000000; stroke-width: 1; opacity: 1;"></path></g><g class="mark-line role-mark layer_31_marks"><path d="M240.53388023376468,103.734498961359L264.4359817504883,73.57070056510058" style="fill: none; stroke: #000000; stroke-width: 1; opacity: 1;"></path></g><g class="mark-symbol role-mark layer_32_marks"><path transform="translate(45.46612501144409,103.734498961359)" d="M0,0L7.905694150420948,13.692662268529082L-7.905694150420948,13.692662268529082Z" style="fill: #0096C7; stroke: #0096C7; stroke-width: 2; opacity: 1;"></path></g><g class="mark-symbol role-mark layer_33_marks"><path transform="translate(240.53388023376468,103.734498961359)" d="M0,0L7.905694150420948,13.692662268529082L-7.905694150420948,13.692662268529082ZM1.5811388300841898,16.064370513655366C1.5811388300841898,14.754512218824164,2.6429887803792735,13.69266226852908,3.9528470752104736,13.69266226852908C5.262705370041673,13.69266226852908,6.324555320336758,14.754512218824164,6.324555320336758,16.064370513655366C6.324555320336758,17.374228808486563,5.262705370041673,18.436078758781647,3.952847075210474,18.436078758781647C2.6429887803792744,18.436078758781647,1.5811388300841904,17.374228808486563,1.58113883008419,16.064370513655366M-6.324555320336759,16.064370513655366C-6.324555320336758,14.754512218824164,-5.262705370041675,13.69266226852908,-3.9528470752104745,13.69266226852908C-2.642988780379275,13.69266226852908,-1.5811388300841904,14.754512218824164,-1.58113883008419,16.064370513655366C-1.58113883008419,17.374228808486563,-2.6429887803792744,18.436078758781647,-3.952847075210474,18.436078758781647C-5.262705370041673,18.436078758781647,-6.324555320336758,17.374228808486563,-6.324555320336758,16.064370513655366" style="fill: #0096C7; stroke: #0096C7; stroke-width: 2; opacity: 1;"></path></g><g class="mark-symbol role-mark layer_34_marks"><path transform="translate(5.5,38.16239316239316)" d="M0,0L-4.898979485566357,-10.606601717798211L-1.2247448713915892,-10.606601717798211L-1.2247448713915892,-36.742346141747674L1.2247448713915892,-36.742346141747674L1.2247448713915892,-10.606601717798211L4.898979485566357,-10.606601717798211" style="fill: #0096C7; stroke: #0096C7; stroke-width: 2; opacity: 1;"></path><path transform="translate(39.875,38.16239316239316)" d="M0,0L-4.898979485566357,-10.606601717798211L-1.2247448713915892,-10.606601717798211L-1.2247448713915892,-36.742346141747674L1.2247448713915892,-36.742346141747674L1.2247448713915892,-10.606601717798211L4.898979485566357,-10.606601717798211" style="fill: #0096C7; stroke: #0096C7; stroke-width: 2; opacity: 1;"></path><path transform="translate(74.25,38.16239316239316)" d="M0,0L-4.898979485566357,-10.606601717798211L-1.2247448713915892,-10.606601717798211L-1.2247448713915892,-36.742346141747674L1.2247448713915892,-36.742346141747674L1.2247448713915892,-10.606601717798211L4.898979485566357,-10.606601717798211" style="fill: #0096C7; stroke: #0096C7; stroke-width: 2; opacity: 1;"></path><path transform="translate(108.625,38.16239316239316)" d="M0,0L-4.898979485566357,-10.606601717798211L-1.2247448713915892,-10.606601717798211L-1.2247448713915892,-36.742346141747674L1.2247448713915892,-36.742346141747674L1.2247448713915892,-10.606601717798211L4.898979485566357,-10.606601717798211" style="fill: #0096C7; stroke: #0096C7; stroke-width: 2; opacity: 1;"></path><path transform="translate(143,38.16239316239316)" d="M0,0L-4.898979485566357,-10.606601717798211L-1.2247448713915892,-10.606601717798211L-1.2247448713915892,-36.742346141747674L1.2247448713915892,-36.742346141747674L1.2247448713915892,-10.606601717798211L4.898979485566357,-10.606601717798211" style="fill: #0096C7; stroke: #0096C7; stroke-width: 2; opacity: 1;"></path><path transform="translate(177.375,38.16239316239316)" d="M0,0L-4.898979485566357,-10.606601717798211L-1.2247448713915892,-10.606601717798211L-1.2247448713915892,-36.742346141747674L1.2247448713915892,-36.742346141747674L1.2247448713915892,-10.606601717798211L4.898979485566357,-10.606601717798211" style="fill: #0096C7; stroke: #0096C7; stroke-width: 2; opacity: 1;"></path><path transform="translate(211.75,38.16239316239316)" d="M0,0L-4.898979485566357,-10.606601717798211L-1.2247448713915892,-10.606601717798211L-1.2247448713915892,-36.742346141747674L1.2247448713915892,-36.742346141747674L1.2247448713915892,-10.606601717798211L4.898979485566357,-10.606601717798211" style="fill: #0096C7; stroke: #0096C7; stroke-width: 2; opacity: 1;"></path><path transform="translate(246.12500000000003,38.16239316239316)" d="M0,0L-4.898979485566357,-10.606601717798211L-1.2247448713915892,-10.606601717798211L-1.2247448713915892,-36.742346141747674L1.2247448713915892,-36.742346141747674L1.2247448713915892,-10.606601717798211L4.898979485566357,-10.606601717798211" style="fill: #0096C7; stroke: #0096C7; stroke-width: 2; opacity: 1;"></path><path transform="translate(280.5,38.16239316239316)" d="M0,0L-4.898979485566357,-10.606601717798211L-1.2247448713915892,-10.606601717798211L-1.2247448713915892,-36.742346141747674L1.2247448713915892,-36.742346141747674L1.2247448713915892,-10.606601717798211L4.898979485566357,-10.606601717798211" style="fill: #0096C7; stroke: #0096C7; stroke-width: 2; opacity: 1;"></path></g></g><path class="foreground" d="" style="display: none; fill: none;"></path></g></g></g></svg>