<svg class="marks" width="300" height="181.73076923076923" viewBox="0 0 300 181.73076923076923" version="1.1" xmlns="http://www.w3.org/2000/svg" xmlns:xlink="http://www.w3.org/1999/xlink"><rect width="300" height="181.73076923076923" style="fill: white;"></rect><g transform="translate(5,5)"><g class="mark-group role-frame root"><g transform="translate(0,0)"><path class="background" d="M0.5,0.5h290v171.73076923076923h-290Z" style="fill: none; stroke: #ddd; stroke-opacity: 0;"></path><g><g class="mark-symbol role-mark layer_0_marks"><path transform="translate(5.5769230769230775,38.16239316239316)" d="M0.5,0A0.5,0.5,0,1,1,-0.5,0A0.5,0.5,0,1,1,0.5,0" style="fill: #000000; stroke-width: 2; opacity: 0;"></path><path transform="translate(40.43269230769231,38.16239316239316)" d="M0.5,0A0.5,0.5,0,1,1,-0.5,0A0.5,0.5,0,1,1,0.5,0" style="fill: #000000; stroke-width: 2; opacity: 0;"></path><path transform="translate(75.28846153846155,38.16239316239316)" d="M0.5,0A0.5,0.5,0,1,1,-0.5,0A0.5,0.5,0,1,1,0.5,0" style="fill: #000000; stroke-width: 2; opacity: 0;"></path><path transform="translate(110.14423076923076,38.16239316239316)" d="M0.5,0A0.5,0.5,0,1,1,-0.5,0A0.5,0.5,0,1,1,0.5,0" style="fill: #000000; stroke-width: 2; opacity: 0;"></path><path transform="translate(145,38.16239316239316)" d="M0.5,0A0.5,0.5,0,1,1,-0.5,0A0.5,0.5,0,1,1,0.5,0" style="fill: #000000; stroke-width: 2; opacity: 0;"></path><path transform="translate(179.85576923076923,38.16239316239316)" d="M0.5,0A0.5,0.5,0,1,1,-0.5,0A0.5,0.5,0,1,1,0.5,0" style="fill: #000000; stroke-width: 2; opacity: 0;"></path><path transform="translate(214.71153846153848,38.16239316239316)" d="M0.5,0A0.5,0.5,0,1,1,-0.5,0A0.5,0.5,0,1,1,0.5,0" style="fill: #000000; stroke-width: 2; opacity: 0;"></path><path transform="translate(249.5673076923077,38.16239316239316)" d="M0.5,0A0.5,0.5,0,1,1,-0.5,0A0.5,0.5,0,1,1,0.5,0" style="fill: #000000; stroke-width: 2; opacity: 0;"></path><path transform="translate(284.4230769230769,38.16239316239316)" d="M0.5,0A0.5,0.5,0,1,1,-0.5,0A0.5,0.5,0,1,1,0.5,0" style="fill: #000000; stroke-width: 2; opacity: 0;"></path><path transform="translate(31.250069783284115,76.31444248961004)" d="M0.5,0A0.5,0.5,0,1,1,-0.5,0A0.5,0.5,0,1,1,0.5,0" style="fill: #000000; stroke-width: 2; opacity: 0;"></path><path transform="translate(66.19563506199763,49.829013526658)" d="M0.5,0A0.5,0.5,0,1,1,-0.5,0A0.5,0.5,0,1,1,0.5,0" style="fill: #000000; stroke-width: 2; opacity: 0;"></path><path transform="translate(97.10078239440918,77.34361639535179)" d="M0.5,0A0.5,0.5,0,1,1,-0.5,0A0.5,0.5,0,1,1,0.5,0" style="fill: #000000; stroke-width: 2; opacity: 0;"></path><path transform="translate(122.89064774146448,114.45031186454315)" d="M0.5,0A0.5,0.5,0,1,1,-0.5,0A0.5,0.5,0,1,1,0.5,0" style="fill: #000000; stroke-width: 2; opacity: 0;"></path><path transform="translate(167.10935225853555,114.45031186454315)" d="M0.5,0A0.5,0.5,0,1,1,-0.5,0A0.5,0.5,0,1,1,0.5,0" style="fill: #000000; stroke-width: 2; opacity: 0;"></path><path transform="translate(192.89921760559082,77.34361639535179)" d="M0.5,0A0.5,0.5,0,1,1,-0.5,0A0.5,0.5,0,1,1,0.5,0" style="fill: #000000; stroke-width: 2; opacity: 0;"></path><path transform="translate(223.80437557513898,49.829013526658)" d="M0.5,0A0.5,0.5,0,1,1,-0.5,0A0.5,0.5,0,1,1,0.5,0" style="fill: #000000; stroke-width: 2; opacity: 0;"></path><path transform="translate(258.7499222388634,76.31444248961004)" d="M0.5,0A0.5,0.5,0,1,1,-0.5,0A0.5,0.5,0,1,1,0.5,0" style="fill: #000000; stroke-width: 2; opacity: 0;"></path></g><g class="mark-line role-mark layer_1_marks"><path d="M5.5769230769230775,38.16239316239316L40.43269230769231,38.16239316239316" style="fill: none; stroke: #000000; stroke-width: 1; opacity: 1;"></path></g><g class="mark-line role-mark layer_2_marks"><path d="M5.5769230769230775,38.16239316239316L31.250069783284115,76.31444248961004" style="fill: none; stroke: #000000; stroke-width: 1; opacity: 1;"></path></g><g class="mark-line role-mark layer_3_marks"><path d="M40.43269230769231,38.16239316239316L75.28846153846155,38.16239316239316" style="fill: none; stroke: #000000; stroke-width: 1; opacity: 1;"></path></g><g class="mark-line role-mark layer_4_marks"><path d="M31.250069783284115,76.31444248961004L40.43269230769231,38.16239316239316" style="fill: none; stroke: #000000; stroke-width: 1; opacity: 1;"></path></g><g class="mark-line role-mark layer_5_marks"><path d="M40.43269230769231,38.16239316239316L66.19563506199763,49.829013526658" style="fill: none; stroke: #000000; stroke-width: 1; opacity: 1;"></path></g><g class="mark-line role-mark layer_6_marks"><path d="M75.28846153846155,38.16239316239316L110.14423076923076,38.16239316239316" style="fill: none; stroke: #000000; stroke-width: 1; opacity: 1;"></path></g><g class="mark-line role-mark layer_7_marks"><path d="M66.19563506199763,49.829013526658L75.28846153846155,38.16239316239316" style="fill: none; stroke: #000000; stroke-width: 1; opacity: 1;"></path></g><g class="mark-line role-mark layer_8_marks"><path d="M75.28846153846155,38.16239316239316L97.10078239440918,77.34361639535179" style="fill: none; stroke: #000000; stroke-width: 1; opacity: 1;"></path></g><g class="mark-line role-mark layer_9_marks"><path d="M110.14423076923076,38.16239316239316L145,38.16239316239316" style="fill: none; stroke: #000000; stroke-width: 1; opacity: 1;"></path></g><g class="mark-line role-mark layer_10_marks"><path d="M97.10078239440918,77.34361639535179L110.14423076923076,38.16239316239316" style="fill: none; stroke: #000000; stroke-width: 1; opacity: 1;"></path></g><g class="mark-line role-mark layer_11_marks"><path d="M110.14423076923076,38.16239316239316L122.89064774146448,114.45031186454315" style="fill: none; stroke: #000000; stroke-width: 1; opacity: 1;"></path></g><g class="mark-line role-mark layer_12_marks"><path d="M145,38.16239316239316L179.85576923076923,38.16239316239316" style="fill: none; stroke: #000000; stroke-width: 1; opacity: 1;"></path></g><g class="mark-line role-mark layer_13_marks"><path d="M122.89064774146448,114.45031186454315L145,38.16239316239316" style="fill: none; stroke: #000000; stroke-width: 1; opacity: 1;"></path></g><g class="mark-line role-mark layer_14_marks"><path d="M145,38.16239316239316L167.10935225853555,114.45031186454315" style="fill: none; stroke: #000000; stroke-width: 1; opacity: 1;"></path></g><g class="mark-line role-mark layer_15_marks"><path d="M179.85576923076923,38.16239316239316L214.71153846153848,38.16239316239316" style="fill: none; stroke: #000000; stroke-width: 1; opacity: 1;"></path></g><g class="mark-line role-mark layer_16_marks"><path d="M167.10935225853555,114.45031186454315L179.85576923076923,38.16239316239316" style="fill: none; stroke: #000000; stroke-width: 1; opacity: 1;"></path></g><g class="mark-line role-mark layer_17_marks"><path d="M179.85576923076923,38.16239316239316L192.89921760559082,77.34361639535179" style="fill: none; stroke: #000000; stroke-width: 1; opacity: 1;"></path></g><g class="mark-line role-mark layer_18_marks"><path d="M214.71153846153848,38.16239316239316L249.5673076923077,38.16239316239316" style="fill: none; stroke: #000000; stroke-width: 1; opacity: 1;"></path></g><g class="mark-line role-mark layer_19_marks"><path d="M192.89921760559082,77.34361639535179L214.71153846153848,38.16239316239316" style="fill: none; stroke: #000000; stroke-width: 1; opacity: 1;"></path></g><g class="mark-line role-mark layer_20_marks"><path d="M214.71153846153848,38.16239316239316L223.80437557513898,49.829013526658" style="fill: none; stroke: #000000; stroke-width: 1; opacity: 1;"></path></g><g class="mark-line role-mark layer_21_marks"><path d="M249.5673076923077,38.16239316239316L284.4230769230769,38.16239316239316" style="fill: none; stroke: #000000; stroke-width: 1; opacity: 1;"></path></g><g class="mark-line role-mark layer_22_marks"><path d="M223.80437557513898,49.829013526658L249.5673076923077,38.16239316239316" style="fill: none; stroke: #000000; stroke-width: 1; opacity: 1;"></path></g><g class="mark-line role-mark layer_23_marks"><path d="M249.5673076923077,38.16239316239316L258.7499222388634,76.31444248961004" style="fill: none; stroke: #000000; stroke-width: 1; opacity: 1;"></path></g><g class="mark-line role-mark layer_24_marks"><path d="M258.7499222388634,76.31444248961004L284.4230769230769,38.16239316239316" style="fill: none; stroke: #000000; stroke-width: 1; opacity: 1;"></path></g><g class="mark-line role-mark layer_25_marks"><path d="M31.250069783284115,76.31444248961004L66.19563506199763,49.829013526658" style="fill: none; stroke: #000000; stroke-width: 1; opacity: 1;"></path></g><g class="mark-line role-mark layer_26_marks"><path d="M66.19563506199763,49.829013526658L97.10078239440918,77.34361639535179" style="fill: none; stroke: #000000; stroke-width: 1; opacity: 1;"></path></g><g class="mark-line role-mark layer_27_marks"><path d="M97.10078239440918,77.34361639535179L122.89064774146448,114.45031186454315" style="fill: none; stroke: #000000; stroke-width: 1; opacity: 1;"></path></g><g class="mark-line role-mark layer_28_marks"><path d="M122.89064774146448,114.45031186454315L167.10935225853555,114.45031186454315" style="fill: none; stroke: #000000; stroke-width: 1; opacity: 1;"></path></g><g class="mark-line role-mark layer_29_marks"><path d="M167.10935225853555,114.45031186454315L192.89921760559082,77.34361639535179" style="fill: none; stroke: #000000; stroke-width: 1; opacity: 1;"></path></g><g class="mark-line role-mark layer_30_marks"><path d="M192.89921760559082,77.34361639535179L223.80437557513898,49.829013526658" style="fill: none; stroke: #000000; stroke-width: 1; opacity: 1;"></path></g><g class="mark-line role-mark layer_31_marks"><path d="M223.80437557513898,49.829013526658L258.7499222388634,76.31444248961004" style="fill: none; stroke: #000000; stroke-width: 1; opacity: 1;"></path></g></g><path class="foreground" d="" style="display: none; fill: none;"></path></g></g></g></svg>