<svg class="marks" width="300" height="181.73076923076923" viewBox="0 0 300 181.73076923076923" version="1.1" xmlns="http://www.w3.org/2000/svg" xmlns:xlink="http://www.w3.org/1999/xlink"><rect width="300" height="181.73076923076923" style="fill: white;"></rect><g transform="translate(5,5)"><g class="mark-group role-frame root"><g transform="translate(0,0)"><path class="background" d="M0.5,0.5h290v171.73076923076923h-290Z" style="fill: none; stroke: #ddd; stroke-opacity: 0;"></path><g><g class="mark-symbol role-mark layer_0_marks"><path transform="translate(5.5769230769230775,38.16239316239316)" d="M0.5,0A0.5,0.5,0,1,1,-0.5,0A0.5,0.5,0,1,1,0.5,0" style="fill: #000000; stroke-width: 2; opacity: 0;"></path><path transform="translate(36.55982787792499,38.16239316239316)" d="M0.5,0A0.5,0.5,0,1,1,-0.5,0A0.5,0.5,0,1,1,0.5,0" style="fill: #000000; stroke-width: 2; opacity: 0;"></path><path transform="translate(67.54273267892691,38.16239316239316)" d="M0.5,0A0.5,0.5,0,1,1,-0.5,0A0.5,0.5,0,1,1,0.5,0" style="fill: #000000; stroke-width: 2; opacity: 0;"></path><path transform="translate(98.52563747992883,38.16239316239316)" d="M0.5,0A0.5,0.5,0,1,1,-0.5,0A0.5,0.5,0,1,1,0.5,0" style="fill: #000000; stroke-width: 2; opacity: 0;"></path><path transform="translate(129.50854228093073,38.16239316239316)" d="M0.5,0A0.5,0.5,0,1,1,-0.5,0A0.5,0.5,0,1,1,0.5,0" style="fill: #000000; stroke-width: 2; opacity: 0;"></path><path transform="translate(160.49145771906925,38.16239316239316)" d="M0.5,0A0.5,0.5,0,1,1,-0.5,0A0.5,0.5,0,1,1,0.5,0" style="fill: #000000; stroke-width: 2; opacity: 0;"></path><path transform="translate(191.47435188293457,38.16239316239316)" d="M0.5,0A0.5,0.5,0,1,1,-0.5,0A0.5,0.5,0,1,1,0.5,0" style="fill: #000000; stroke-width: 2; opacity: 0;"></path><path transform="translate(222.4572673210731,38.16239316239316)" d="M0.5,0A0.5,0.5,0,1,1,-0.5,0A0.5,0.5,0,1,1,0.5,0" style="fill: #000000; stroke-width: 2; opacity: 0;"></path><path transform="translate(253.4401614849384,38.16239316239316)" d="M0.5,0A0.5,0.5,0,1,1,-0.5,0A0.5,0.5,0,1,1,0.5,0" style="fill: #000000; stroke-width: 2; opacity: 0;"></path><path transform="translate(284.4230769230769,38.16239316239316)" d="M0.5,0A0.5,0.5,0,1,1,-0.5,0A0.5,0.5,0,1,1,0.5,0" style="fill: #000000; stroke-width: 2; opacity: 0;"></path><path transform="translate(34.37988767257104,58.0804200472267)" d="M0.5,0A0.5,0.5,0,1,1,-0.5,0A0.5,0.5,0,1,1,0.5,0" style="fill: #000000; stroke-width: 2; opacity: 0;"></path><path transform="translate(53.26421169134287,88.43600572974981)" d="M0.5,0A0.5,0.5,0,1,1,-0.5,0A0.5,0.5,0,1,1,0.5,0" style="fill: #000000; stroke-width: 2; opacity: 0;"></path><path transform="translate(80.5720017506526,89.1826907706348)" d="M0.5,0A0.5,0.5,0,1,1,-0.5,0A0.5,0.5,0,1,1,0.5,0" style="fill: #000000; stroke-width: 2; opacity: 0;"></path><path transform="translate(112.09817702953633,77.74956578300113)" d="M0.5,0A0.5,0.5,0,1,1,-0.5,0A0.5,0.5,0,1,1,0.5,0" style="fill: #000000; stroke-width: 2; opacity: 0;"></path><path transform="translate(145,64.05830280830281)" d="M0.5,0A0.5,0.5,0,1,1,-0.5,0A0.5,0.5,0,1,1,0.5,0" style="fill: #000000; stroke-width: 2; opacity: 0;"></path><path transform="translate(177.90182297046368,77.74956578300113)" d="M0.5,0A0.5,0.5,0,1,1,-0.5,0A0.5,0.5,0,1,1,0.5,0" style="fill: #000000; stroke-width: 2; opacity: 0;"></path><path transform="translate(209.42800888648398,89.1826907706348)" d="M0.5,0A0.5,0.5,0,1,1,-0.5,0A0.5,0.5,0,1,1,0.5,0" style="fill: #000000; stroke-width: 2; opacity: 0;"></path><path transform="translate(236.73579362722543,88.43600572974981)" d="M0.5,0A0.5,0.5,0,1,1,-0.5,0A0.5,0.5,0,1,1,0.5,0" style="fill: #000000; stroke-width: 2; opacity: 0;"></path><path transform="translate(255.62011498671313,58.0804200472267)" d="M0.5,0A0.5,0.5,0,1,1,-0.5,0A0.5,0.5,0,1,1,0.5,0" style="fill: #000000; stroke-width: 2; opacity: 0;"></path></g><g class="mark-line role-mark layer_1_marks"><path d="M5.5769230769230775,38.16239316239316L36.55982787792499,38.16239316239316" style="fill: none; stroke: #000000; stroke-width: 1; opacity: 1;"></path></g><g class="mark-line role-mark layer_2_marks"><path d="M5.5769230769230775,38.16239316239316L34.37988767257104,58.0804200472267" style="fill: none; stroke: #000000; stroke-width: 1; opacity: 1;"></path></g><g class="mark-line role-mark layer_3_marks"><path d="M36.55982787792499,38.16239316239316L67.54273267892691,38.16239316239316" style="fill: none; stroke: #000000; stroke-width: 1; opacity: 1;"></path></g><g class="mark-line role-mark layer_4_marks"><path d="M34.37988767257104,58.0804200472267L36.55982787792499,38.16239316239316" style="fill: none; stroke: #000000; stroke-width: 1; opacity: 1;"></path></g><g class="mark-line role-mark layer_5_marks"><path d="M36.55982787792499,38.16239316239316L53.26421169134287,88.43600572974981" style="fill: none; stroke: #000000; stroke-width: 1; opacity: 1;"></path></g><g class="mark-line role-mark layer_6_marks"><path d="M67.54273267892691,38.16239316239316L98.52563747992883,38.16239316239316" style="fill: none; stroke: #000000; stroke-width: 1; opacity: 1;"></path></g><g class="mark-line role-mark layer_7_marks"><path d="M53.26421169134287,88.43600572974981L67.54273267892691,38.16239316239316" style="fill: none; stroke: #000000; stroke-width: 1; opacity: 1;"></path></g><g class="mark-line role-mark layer_8_marks"><path d="M67.54273267892691,38.16239316239316L80.5720017506526,89.1826907706348" style="fill: none; stroke: #000000; stroke-width: 1; opacity: 1;"></path></g><g class="mark-line role-mark layer_9_marks"><path d="M98.52563747992883,38.16239316239316L129.50854228093073,38.16239316239316" style="fill: none; stroke: #000000; stroke-width: 1; opacity: 1;"></path></g><g class="mark-line role-mark layer_10_marks"><path d="M80.5720017506526,89.1826907706348L98.52563747992883,38.16239316239316" style="fill: none; stroke: #000000; stroke-width: 1; opacity: 1;"></path></g><g class="mark-line role-mark layer_11_marks"><path d="M98.52563747992883,38.16239316239316L112.09817702953633,77.74956578300113" style="fill: none; stroke: #000000; stroke-width: 1; opacity: 1;"></path></g><g class="mark-line role-mark layer_12_marks"><path d="M129.50854228093073,38.16239316239316L160.49145771906925,38.16239316239316" style="fill: none; stroke: #000000; stroke-width: 1; opacity: 1;"></path></g><g class="mark-line role-mark layer_13_marks"><path d="M112.09817702953633,77.74956578300113L129.50854228093073,38.16239316239316" style="fill: none; stroke: #000000; stroke-width: 1; opacity: 1;"></path></g><g class="mark-line role-mark layer_14_marks"><path d="M129.50854228093073,38.16239316239316L145,64.05830280830281" style="fill: none; stroke: #000000; stroke-width: 1; opacity: 1;"></path></g><g class="mark-line role-mark layer_15_marks"><path d="M160.49145771906925,38.16239316239316L191.47435188293457,38.16239316239316" style="fill: none; stroke: #000000; stroke-width: 1; opacity: 1;"></path></g><g class="mark-line role-mark layer_16_marks"><path d="M145,64.05830280830281L160.49145771906925,38.16239316239316" style="fill: none; stroke: #000000; stroke-width: 1; opacity: 1;"></path></g><g class="mark-line role-mark layer_17_marks"><path d="M160.49145771906925,38.16239316239316L177.90182297046368,77.74956578300113" style="fill: none; stroke: #000000; stroke-width: 1; opacity: 1;"></path></g><g class="mark-line role-mark layer_18_marks"><path d="M191.47435188293457,38.16239316239316L222.4572673210731,38.16239316239316" style="fill: none; stroke: #000000; stroke-width: 1; opacity: 1;"></path></g><g class="mark-line role-mark layer_19_marks"><path d="M177.90182297046368,77.74956578300113L191.47435188293457,38.16239316239316" style="fill: none; stroke: #000000; stroke-width: 1; opacity: 1;"></path></g><g class="mark-line role-mark layer_20_marks"><path d="M191.47435188293457,38.16239316239316L209.42800888648398,89.1826907706348" style="fill: none; stroke: #000000; stroke-width: 1; opacity: 1;"></path></g><g class="mark-line role-mark layer_21_marks"><path d="M222.4572673210731,38.16239316239316L253.4401614849384,38.16239316239316" style="fill: none; stroke: #000000; stroke-width: 1; opacity: 1;"></path></g><g class="mark-line role-mark layer_22_marks"><path d="M209.42800888648398,89.1826907706348L222.4572673210731,38.16239316239316" style="fill: none; stroke: #000000; stroke-width: 1; opacity: 1;"></path></g><g class="mark-line role-mark layer_23_marks"><path d="M222.4572673210731,38.16239316239316L236.73579362722543,88.43600572974981" style="fill: none; stroke: #000000; stroke-width: 1; opacity: 1;"></path></g><g class="mark-line role-mark layer_24_marks"><path d="M253.4401614849384,38.16239316239316L284.4230769230769,38.16239316239316" style="fill: none; stroke: #000000; stroke-width: 1; opacity: 1;"></path></g><g class="mark-line role-mark layer_25_marks"><path d="M236.73579362722543,88.43600572974981L253.4401614849384,38.16239316239316" style="fill: none; stroke: #000000; stroke-width: 1; opacity: 1;"></path></g><g class="mark-line role-mark layer_26_marks"><path d="M253.4401614849384,38.16239316239316L255.62011498671313,58.0804200472267" style="fill: none; stroke: #000000; stroke-width: 1; opacity: 1;"></path></g><g class="mark-line role-mark layer_27_marks"><path d="M255.62011498671313,58.0804200472267L284.4230769230769,38.16239316239316" style="fill: none; stroke: #000000; stroke-width: 1; opacity: 1;"></path></g><g class="mark-line role-mark layer_28_marks"><path d="M34.37988767257104,58.0804200472267L53.26421169134287,88.43600572974981" style="fill: none; stroke: #000000; stroke-width: 1; opacity: 1;"></path></g><g class="mark-line role-mark layer_29_marks"><path d="M53.26421169134287,88.43600572974981L80.5720017506526,89.1826907706348" style="fill: none; stroke: #000000; stroke-width: 1; opacity: 1;"></path></g><g class="mark-line role-mark layer_30_marks"><path d="M80.5720017506526,89.1826907706348L112.09817702953633,77.74956578300113" style="fill: none; stroke: #000000; stroke-width: 1; opacity: 1;"></path></g><g class="mark-line role-mark layer_31_marks"><path d="M112.09817702953633,77.74956578300113L145,64.05830280830281" style="fill: none; stroke: #000000; stroke-width: 1; opacity: 1;"></path></g><g class="mark-line role-mark layer_32_marks"><path d="M145,64.05830280830281L177.90182297046368,77.74956578300113" style="fill: none; stroke: #000000; stroke-width: 1; opacity: 1;"></path></g><g class="mark-line role-mark layer_33_marks"><path d="M177.90182297046368,77.74956578300113L209.42800888648398,89.1826907706348" style="fill: none; stroke: #000000; stroke-width: 1; opacity: 1;"></path></g><g class="mark-line role-mark layer_34_marks"><path d="M209.42800888648398,89.1826907706348L236.73579362722543,88.43600572974981" style="fill: none; stroke: #000000; stroke-width: 1; opacity: 1;"></path></g><g class="mark-line role-mark layer_35_marks"><path d="M236.73579362722543,88.43600572974981L255.62011498671313,58.0804200472267" style="fill: none; stroke: #000000; stroke-width: 1; opacity: 1;"></path></g></g><path class="foreground" d="" style="display: none; fill: none;"></path></g></g></g></svg>