<svg class="marks" width="1781.25" height="445.3125" viewBox="0 0 1781.25 445.3125" version="1.1" xmlns="http://www.w3.org/2000/svg" xmlns:xlink="http://www.w3.org/1999/xlink"><g transform="translate(20,20)"><g class="mark-group role-frame root"><g transform="translate(0,0)"><path class="background" d="M0.5,0.5h1741.25v405.3125h-1741.25Z" style="fill: none; stroke: #ddd; stroke-opacity: 0;"></path><g><g class="mark-symbol role-mark layer_0_marks"><path transform="translate(0,0)" d="M0.5,0A0.5,0.5,0,1,1,-0.5,0A0.5,0.5,0,1,1,0.5,0" style="fill: #000000; stroke-width: 2; opacity: 0;"></path><path transform="translate(290.208322262764,0)" d="M0.5,0A0.5,0.5,0,1,1,-0.5,0A0.5,0.5,0,1,1,0.5,0" style="fill: #000000; stroke-width: 2; opacity: 0;"></path><path transform="translate(580.416644525528,0)" d="M0.5,0A0.5,0.5,0,1,1,-0.5,0A0.5,0.5,0,1,1,0.5,0" style="fill: #000000; stroke-width: 2; opacity: 0;"></path><path transform="translate(870.625,0)" d="M0.5,0A0.5,0.5,0,1,1,-0.5,0A0.5,0.5,0,1,1,0.5,0" style="fill: #000000; stroke-width: 2; opacity: 0;"></path><path transform="translate(1160.833289051056,0)" d="M0.5,0A0.5,0.5,0,1,1,-0.5,0A0.5,0.5,0,1,1,0.5,0" style="fill: #000000; stroke-width: 2; opacity: 0;"></path><path transform="translate(1451.041710948944,0)" d="M0.5,0A0.5,0.5,0,1,1,-0.5,0A0.5,0.5,0,1,1,0.5,0" style="fill: #000000; stroke-width: 2; opacity: 0;"></path><path transform="translate(1741.25,0)" d="M0.5,0A0.5,0.5,0,1,1,-0.5,0A0.5,0.5,0,1,1,0.5,0" style="fill: #000000; stroke-width: 2; opacity: 0;"></path><path transform="translate(136.37467954158785,268.15643467903135)" d="M0.5,0A0.5,0.5,0,1,1,-0.5,0A0.5,0.5,0,1,1,0.5,0" style="fill: #000000; stroke-width: 2; opacity: 0;"></path><path transform="translate(392.13970396518704,405.3125)" d="M0.5,0A0.5,0.5,0,1,1,-0.5,0A0.5,0.5,0,1,1,0.5,0" style="fill: #000000; stroke-width: 2; opacity: 0;"></path><path transform="translate(711.1298902511596,405.3125)" d="M0.5,0A0.5,0.5,0,1,1,-0.5,0A0.5,0.5,0,1,1,0.5,0" style="fill: #000000; stroke-width: 2; opacity: 0;"></path><path transform="translate(1030.1201097488404,405.3125)" d="M0.5,0A0.5,0.5,0,1,1,-0.5,0A0.5,0.5,0,1,1,0.5,0" style="fill: #000000; stroke-width: 2; opacity: 0;"></path><path transform="translate(1349.1103292465211,405.3125)" d="M0.5,0A0.5,0.5,0,1,1,-0.5,0A0.5,0.5,0,1,1,0.5,0" style="fill: #000000; stroke-width: 2; opacity: 0;"></path><path transform="translate(1604.8752872467041,268.15643467903135)" d="M0.5,0A0.5,0.5,0,1,1,-0.5,0A0.5,0.5,0,1,1,0.5,0" style="fill: #000000; stroke-width: 2; opacity: 0;"></path></g><g class="mark-line role-mark layer_1_marks"><path d="M0,0L290.208322262764,0" style="fill: none; stroke: #000000; stroke-width: 15; opacity: 1;"></path></g><g class="mark-line role-mark layer_2_marks"><path d="M0,0L136.37467954158785,268.15643467903135" style="fill: none; stroke: #000000; stroke-width: 15; opacity: 1;"></path></g><g class="mark-line role-mark layer_3_marks"><path d="M290.208322262764,0L580.416644525528,0" style="fill: none; stroke: #000000; stroke-width: 15; opacity: 1;"></path></g><g class="mark-line role-mark layer_4_marks"><path d="M136.37467954158785,268.15643467903135L290.208322262764,0" style="fill: none; stroke: #000000; stroke-width: 15; opacity: 1;"></path></g><g class="mark-line role-mark layer_5_marks"><path d="M290.208322262764,0L392.13970396518704,405.3125" style="fill: none; stroke: #000000; stroke-width: 15; opacity: 1;"></path></g><g class="mark-line role-mark layer_6_marks"><path d="M580.416644525528,0L870.625,0" style="fill: none; stroke: #000000; stroke-width: 15; opacity: 1;"></path></g><g class="mark-line role-mark layer_7_marks"><path d="M392.13970396518704,405.3125L580.416644525528,0" style="fill: none; stroke: #000000; stroke-width: 15; opacity: 1;"></path></g><g class="mark-line role-mark layer_8_marks"><path d="M580.416644525528,0L711.1298902511596,405.3125" style="fill: none; stroke: #000000; stroke-width: 15; opacity: 1;"></path></g><g class="mark-line role-mark layer_9_marks"><path d="M870.625,0L1160.833289051056,0" style="fill: none; stroke: #000000; stroke-width: 15; opacity: 1;"></path></g><g class="mark-line role-mark layer_10_marks"><path d="M711.1298902511596,405.3125L870.625,0" style="fill: none; stroke: #000000; stroke-width: 15; opacity: 1;"></path></g><g class="mark-line role-mark layer_11_marks"><path d="M870.625,0L1030.1201097488404,405.3125" style="fill: none; stroke: #000000; stroke-width: 15; opacity: 1;"></path></g><g class="mark-line role-mark layer_12_marks"><path d="M1160.833289051056,0L1451.041710948944,0" style="fill: none; stroke: #000000; stroke-width: 15; opacity: 1;"></path></g><g class="mark-line role-mark layer_13_marks"><path d="M1030.1201097488404,405.3125L1160.833289051056,0" style="fill: none; stroke: #000000; stroke-width: 15; opacity: 1;"></path></g><g class="mark-line role-mark layer_14_marks"><path d="M1160.833289051056,0L1349.1103292465211,405.3125" style="fill: none; stroke: #000000; stroke-width: 15; opacity: 1;"></path></g><g class="mark-line role-mark layer_15_marks"><path d="M1451.041710948944,0L1741.25,0" style="fill: none; stroke: #000000; stroke-width: 15; opacity: 1;"></path></g><g class="mark-line role-mark layer_16_marks"><path d="M1349.1103292465211,405.3125L1451.041710948944,0" style="fill: none; stroke: #000000; stroke-width: 15; opacity: 1;"></path></g><g class="mark-line role-mark layer_17_marks"><path d="M1451.041710948944,0L1604.8752872467041,268.15643467903135" style="fill: none; stroke: #000000; stroke-width: 15; opacity: 1;"></path></g><g class="mark-line role-mark layer_18_marks"><path d="M1604.8752872467041,268.15643467903135L1741.25,0" style="fill: none; stroke: #000000; stroke-width: 15; opacity: 1;"></path></g><g class="mark-line role-mark layer_19_marks"><path d="M136.37467954158785,268.15643467903135L392.13970396518704,405.3125" style="fill: none; stroke: #000000; stroke-width: 15; opacity: 1;"></path></g><g class="mark-line role-mark layer_20_marks"><path d="M392.13970396518704,405.3125L711.1298902511596,405.3125" style="fill: none; stroke: #000000; stroke-width: 15; opacity: 1;"></path></g><g class="mark-line role-mark layer_21_marks"><path d="M711.1298902511596,405.3125L1030.1201097488404,405.3125" style="fill: none; stroke: #000000; stroke-width: 15; opacity: 1;"></path></g><g class="mark-line role-mark layer_22_marks"><path d="M1030.1201097488404,405.3125L1349.1103292465211,405.3125" style="fill: none; stroke: #000000; stroke-width: 15; opacity: 1;"></path></g><g class="mark-line role-mark layer_23_marks"><path d="M1349.1103292465211,405.3125L1604.8752872467041,268.15643467903135" style="fill: none; stroke: #000000; stroke-width: 15; opacity: 1;"></path></g></g><path class="foreground" d="" style="display: none; fill: none;"></path></g></g></g></svg>