<svg class="marks" width="1781.25" height="445.3125" viewBox="0 0 1781.25 445.3125" version="1.1" xmlns="http://www.w3.org/2000/svg" xmlns:xlink="http://www.w3.org/1999/xlink"><g transform="translate(20,20)"><g class="mark-group role-frame root"><g transform="translate(0,0)"><path class="background" d="M0.5,0.5h1741.25v405.3125h-1741.25Z" style="fill: none; stroke: #ddd; stroke-opacity: 0;"></path><g><g class="mark-symbol role-mark layer_0_marks"><path transform="translate(0,0)" d="M0.5,0A0.5,0.5,0,1,1,-0.5,0A0.5,0.5,0,1,1,0.5,0" style="fill: #000000; stroke-width: 2; opacity: 0;"></path><path transform="translate(248.74999762773515,0)" d="M0.5,0A0.5,0.5,0,1,1,-0.5,0A0.5,0.5,0,1,1,0.5,0" style="fill: #000000; stroke-width: 2; opacity: 0;"></path><path transform="translate(497.4999952554703,0)" d="M0.5,0A0.5,0.5,0,1,1,-0.5,0A0.5,0.5,0,1,1,0.5,0" style="fill: #000000; stroke-width: 2; opacity: 0;"></path><path transform="translate(746.2500094890594,0)" d="M0.5,0A0.5,0.5,0,1,1,-0.5,0A0.5,0.5,0,1,1,0.5,0" style="fill: #000000; stroke-width: 2; opacity: 0;"></path><path transform="translate(994.9999905109406,0)" d="M0.5,0A0.5,0.5,0,1,1,-0.5,0A0.5,0.5,0,1,1,0.5,0" style="fill: #000000; stroke-width: 2; opacity: 0;"></path><path transform="translate(1243.7500379562377,0)" d="M0.5,0A0.5,0.5,0,1,1,-0.5,0A0.5,0.5,0,1,1,0.5,0" style="fill: #000000; stroke-width: 2; opacity: 0;"></path><path transform="translate(1492.5000189781188,0)" d="M0.5,0A0.5,0.5,0,1,1,-0.5,0A0.5,0.5,0,1,1,0.5,0" style="fill: #000000; stroke-width: 2; opacity: 0;"></path><path transform="translate(1741.25,0)" d="M0.5,0A0.5,0.5,0,1,1,-0.5,0A0.5,0.5,0,1,1,0.5,0" style="fill: #000000; stroke-width: 2; opacity: 0;"></path><path transform="translate(116.41250841021538,236.0207801580429)" d="M0.5,0A0.5,0.5,0,1,1,-0.5,0A0.5,0.5,0,1,1,0.5,0" style="fill: #000000; stroke-width: 2; opacity: 0;"></path><path transform="translate(312.3982600450516,404.9548458576202)" d="M0.5,0A0.5,0.5,0,1,1,-0.5,0A0.5,0.5,0,1,1,0.5,0" style="fill: #000000; stroke-width: 2; opacity: 0;"></path><path transform="translate(591.5085579395295,405.3125)" d="M0.5,0A0.5,0.5,0,1,1,-0.5,0A0.5,0.5,0,1,1,0.5,0" style="fill: #000000; stroke-width: 2; opacity: 0;"></path><path transform="translate(870.625,405.3125)" d="M0.5,0A0.5,0.5,0,1,1,-0.5,0A0.5,0.5,0,1,1,0.5,0" style="fill: #000000; stroke-width: 2; opacity: 0;"></path><path transform="translate(1149.7413756370545,405.3125)" d="M0.5,0A0.5,0.5,0,1,1,-0.5,0A0.5,0.5,0,1,1,0.5,0" style="fill: #000000; stroke-width: 2; opacity: 0;"></path><path transform="translate(1428.8517731666566,404.9548458576202)" d="M0.5,0A0.5,0.5,0,1,1,-0.5,0A0.5,0.5,0,1,1,0.5,0" style="fill: #000000; stroke-width: 2; opacity: 0;"></path><path transform="translate(1624.8375164985657,236.0207801580429)" d="M0.5,0A0.5,0.5,0,1,1,-0.5,0A0.5,0.5,0,1,1,0.5,0" style="fill: #000000; stroke-width: 2; opacity: 0;"></path></g><g class="mark-line role-mark layer_1_marks"><path d="M0,0L248.74999762773515,0" style="fill: none; stroke: #000000; stroke-width: 15; opacity: 1;"></path></g><g class="mark-line role-mark layer_2_marks"><path d="M0,0L116.41250841021538,236.0207801580429" style="fill: none; stroke: #000000; stroke-width: 15; opacity: 1;"></path></g><g class="mark-line role-mark layer_3_marks"><path d="M248.74999762773515,0L497.4999952554703,0" style="fill: none; stroke: #000000; stroke-width: 15; opacity: 1;"></path></g><g class="mark-line role-mark layer_4_marks"><path d="M116.41250841021538,236.0207801580429L248.74999762773515,0" style="fill: none; stroke: #000000; stroke-width: 15; opacity: 1;"></path></g><g class="mark-line role-mark layer_5_marks"><path d="M248.74999762773515,0L312.3982600450516,404.9548458576202" style="fill: none; stroke: #000000; stroke-width: 15; opacity: 1;"></path></g><g class="mark-line role-mark layer_6_marks"><path d="M497.4999952554703,0L746.2500094890594,0" style="fill: none; stroke: #000000; stroke-width: 15; opacity: 1;"></path></g><g class="mark-line role-mark layer_7_marks"><path d="M312.3982600450516,404.9548458576202L497.4999952554703,0" style="fill: none; stroke: #000000; stroke-width: 15; opacity: 1;"></path></g><g class="mark-line role-mark layer_8_marks"><path d="M497.4999952554703,0L591.5085579395295,405.3125" style="fill: none; stroke: #000000; stroke-width: 15; opacity: 1;"></path></g><g class="mark-line role-mark layer_9_marks"><path d="M746.2500094890594,0L994.9999905109406,0" style="fill: none; stroke: #000000; stroke-width: 15; opacity: 1;"></path></g><g class="mark-line role-mark layer_10_marks"><path d="M591.5085579395295,405.3125L746.2500094890594,0" style="fill: none; stroke: #000000; stroke-width: 15; opacity: 1;"></path></g><g class="mark-line role-mark layer_11_marks"><path d="M746.2500094890594,0L870.625,405.3125" style="fill: none; stroke: #000000; stroke-width: 15; opacity: 1;"></path></g><g class="mark-line role-mark layer_12_marks"><path d="M994.9999905109406,0L1243.7500379562377,0" style="fill: none; stroke: #000000; stroke-width: 15; opacity: 1;"></path></g><g class="mark-line role-mark layer_13_marks"><path d="M870.625,405.3125L994.9999905109406,0" style="fill: none; stroke: #000000; stroke-width: 15; opacity: 1;"></path></g><g class="mark-line role-mark layer_14_marks"><path d="M994.9999905109406,0L1149.7413756370545,405.3125" style="fill: none; stroke: #000000; stroke-width: 15; opacity: 1;"></path></g><g class="mark-line role-mark layer_15_marks"><path d="M1243.7500379562377,0L1492.5000189781188,0" style="fill: none; stroke: #000000; stroke-width: 15; opacity: 1;"></path></g><g class="mark-line role-mark layer_16_marks"><path d="M1149.7413756370545,405.3125L1243.7500379562377,0" style="fill: none; stroke: #000000; stroke-width: 15; opacity: 1;"></path></g><g class="mark-line role-mark layer_17_marks"><path d="M1243.7500379562377,0L1428.8517731666566,404.9548458576202" style="fill: none; stroke: #000000; stroke-width: 15; opacity: 1;"></path></g><g class="mark-line role-mark layer_18_marks"><path d="M1492.5000189781188,0L1741.25,0" style="fill: none; stroke: #000000; stroke-width: 15; opacity: 1;"></path></g><g class="mark-line role-mark layer_19_marks"><path d="M1428.8517731666566,404.9548458576202L1492.5000189781188,0" style="fill: none; stroke: #000000; stroke-width: 15; opacity: 1;"></path></g><g class="mark-line role-mark layer_20_marks"><path d="M1492.5000189781188,0L1624.8375164985657,236.0207801580429" style="fill: none; stroke: #000000; stroke-width: 15; opacity: 1;"></path></g><g class="mark-line role-mark layer_21_marks"><path d="M1624.8375164985657,236.0207801580429L1741.25,0" style="fill: none; stroke: #000000; stroke-width: 15; opacity: 1;"></path></g><g class="mark-line role-mark layer_22_marks"><path d="M116.41250841021538,236.0207801580429L312.3982600450516,404.9548458576202" style="fill: none; stroke: #000000; stroke-width: 15; opacity: 1;"></path></g><g class="mark-line role-mark layer_23_marks"><path d="M312.3982600450516,404.9548458576202L591.5085579395295,405.3125" style="fill: none; stroke: #000000; stroke-width: 15; opacity: 1;"></path></g><g class="mark-line role-mark layer_24_marks"><path d="M591.5085579395295,405.3125L870.625,405.3125" style="fill: none; stroke: #000000; stroke-width: 15; opacity: 1;"></path></g><g class="mark-line role-mark layer_25_marks"><path d="M870.625,405.3125L1149.7413756370545,405.3125" style="fill: none; stroke: #000000; stroke-width: 15; opacity: 1;"></path></g><g class="mark-line role-mark layer_26_marks"><path d="M1149.7413756370545,405.3125L1428.8517731666566,404.9548458576202" style="fill: none; stroke: #000000; stroke-width: 15; opacity: 1;"></path></g><g class="mark-line role-mark layer_27_marks"><path d="M1428.8517731666566,404.9548458576202L1624.8375164985657,236.0207801580429" style="fill: none; stroke: #000000; stroke-width: 15; opacity: 1;"></path></g></g><path class="foreground" d="" style="display: none; fill: none;"></path></g></g></g></svg>