<svg class="marks" width="600" height="444" viewBox="0 0 600 444" version="1.1" xmlns="http://www.w3.org/2000/svg" xmlns:xlink="http://www.w3.org/1999/xlink"><rect width="600" height="444" style="fill: white;"></rect><g transform="translate(6,5)"><g class="mark-group role-frame root"><g transform="translate(0,0)"><path class="background" d="M0.5,0.5h588v434h-588Z" style="fill: none; stroke: #ddd; stroke-opacity: 0;"></path><g><g class="mark-symbol role-mark layer_0_marks"><path transform="translate(502.74215332031247,319.4326623452676)" d="C0,0,0,43.3,NaN,NaNLNaN,NaNLNaN,NaNLNaN,NaNLNaN,NaNQNaN,NaN,NaN,NaNLNaN,NaNM0,0L25,43.3L-25,43.3ZQNaN,NaN,NaN,NaNLNaN,NaNM5,50.8C4.999999999999998,46.657864376269046,8.357864376269045,43.3,12.499999999999996,43.3C16.642135623730947,43.3,20,46.657864376269046,20,50.8C20,54.94213562373094,16.64213562373095,58.3,12.499999999999998,58.3C8.357864376269047,58.3,5,54.94213562373094,4.999999999999999,50.8QNaN,NaN,NaN,NaNLNaN,NaNM-20,50.8C-20,46.657864376269046,-16.64213562373095,43.3,-12.5,43.3C-8.357864376269049,43.3,-5,46.657864376269046,-4.999999999999999,50.8C-4.999999999999999,54.94213562373094,-8.357864376269047,58.3,-12.499999999999998,58.3C-16.64213562373095,58.3,-20,54.94213562373094,-20,50.8CNaN,NaN,NaN,NaN,NaN,NaNLNaN,NaN" style="fill: #000000; stroke: #000000; stroke-width: 2; opacity: 1;"></path></g><g class="mark-symbol role-mark layer_1_marks"><path transform="translate(85.25784667968749,319.4326623452676)" d="C0,0,0,0,NaN,NaNLNaN,NaNQNaN,NaN,NaN,NaNLNaN,NaNM0,0L25,43.3L-25,43.3ZCNaN,NaN,-25,86.6,NaN,NaNLNaN,NaN" style="fill: #000000; stroke: #000000; stroke-width: 2; opacity: 1;"></path></g><g class="mark-symbol role-mark layer_2_layer_0_marks"><path transform="translate(0,117.2972972972973)" d="M0.5,0A0.5,0.5,0,1,1,-0.5,0A0.5,0.5,0,1,1,0.5,0" style="fill: #000000; stroke-width: 2; opacity: 0;"></path><path transform="translate(83.99999919891359,117.2972972972973)" d="M0.5,0A0.5,0.5,0,1,1,-0.5,0A0.5,0.5,0,1,1,0.5,0" style="fill: #000000; stroke-width: 2; opacity: 0;"></path><path transform="translate(167.99999839782717,117.2972972972973)" d="M0.5,0A0.5,0.5,0,1,1,-0.5,0A0.5,0.5,0,1,1,0.5,0" style="fill: #000000; stroke-width: 2; opacity: 0;"></path><path transform="translate(252.0000032043457,117.2972972972973)" d="M0.5,0A0.5,0.5,0,1,1,-0.5,0A0.5,0.5,0,1,1,0.5,0" style="fill: #000000; stroke-width: 2; opacity: 0;"></path><path transform="translate(335.99999679565434,117.2972972972973)" d="M0.5,0A0.5,0.5,0,1,1,-0.5,0A0.5,0.5,0,1,1,0.5,0" style="fill: #000000; stroke-width: 2; opacity: 0;"></path><path transform="translate(420.0000128173828,117.2972972972973)" d="M0.5,0A0.5,0.5,0,1,1,-0.5,0A0.5,0.5,0,1,1,0.5,0" style="fill: #000000; stroke-width: 2; opacity: 0;"></path><path transform="translate(504.0000064086914,117.2972972972973)" d="M0.5,0A0.5,0.5,0,1,1,-0.5,0A0.5,0.5,0,1,1,0.5,0" style="fill: #000000; stroke-width: 2; opacity: 0;"></path><path transform="translate(588,117.2972972972973)" d="M0.5,0A0.5,0.5,0,1,1,-0.5,0A0.5,0.5,0,1,1,0.5,0" style="fill: #000000; stroke-width: 2; opacity: 0;"></path><path transform="translate(28.31100591659546,228.1403101843757)" d="M0.5,0A0.5,0.5,0,1,1,-0.5,0A0.5,0.5,0,1,1,0.5,0" style="fill: #000000; stroke-width: 2; opacity: 0;"></path><path transform="translate(85.25784667968749,319.4326623452676)" d="M0.5,0A0.5,0.5,0,1,1,-0.5,0A0.5,0.5,0,1,1,0.5,0" style="fill: #000000; stroke-width: 2; opacity: 0;"></path><path transform="translate(179.29502700805662,263.9189189189189)" d="M0.5,0A0.5,0.5,0,1,1,-0.5,0A0.5,0.5,0,1,1,0.5,0" style="fill: #000000; stroke-width: 2; opacity: 0;"></path><path transform="translate(294,263.9189189189189)" d="M0.5,0A0.5,0.5,0,1,1,-0.5,0A0.5,0.5,0,1,1,0.5,0" style="fill: #000000; stroke-width: 2; opacity: 0;"></path><path transform="translate(408.70495056152345,263.9189189189189)" d="M0.5,0A0.5,0.5,0,1,1,-0.5,0A0.5,0.5,0,1,1,0.5,0" style="fill: #000000; stroke-width: 2; opacity: 0;"></path><path transform="translate(502.74215332031247,319.4326623452676)" d="M0.5,0A0.5,0.5,0,1,1,-0.5,0A0.5,0.5,0,1,1,0.5,0" style="fill: #000000; stroke-width: 2; opacity: 0;"></path><path transform="translate(559.688996887207,228.1403101843757)" d="M0.5,0A0.5,0.5,0,1,1,-0.5,0A0.5,0.5,0,1,1,0.5,0" style="fill: #000000; stroke-width: 2; opacity: 0;"></path></g><g class="mark-line role-mark layer_2_layer_1_marks"><path d="M0,117.2972972972973L83.99999919891359,117.2972972972973" style="fill: none; stroke: #000000; stroke-width: 1; opacity: 1;"></path></g><g class="mark-line role-mark layer_2_layer_2_marks"><path d="M0,117.2972972972973L28.31100591659546,228.1403101843757" style="fill: none; stroke: #000000; stroke-width: 1; opacity: 1;"></path></g><g class="mark-line role-mark layer_2_layer_3_marks"><path d="M83.99999919891359,117.2972972972973L167.99999839782717,117.2972972972973" style="fill: none; stroke: #000000; stroke-width: 1; opacity: 1;"></path></g><g class="mark-line role-mark layer_2_layer_4_marks"><path d="M28.31100591659546,228.1403101843757L83.99999919891359,117.2972972972973" style="fill: none; stroke: #000000; stroke-width: 1; opacity: 1;"></path></g><g class="mark-line role-mark layer_2_layer_5_marks"><path d="M83.99999919891359,117.2972972972973L85.25784667968749,319.4326623452676" style="fill: none; stroke: #000000; stroke-width: 1; opacity: 1;"></path></g><g class="mark-line role-mark layer_2_layer_6_marks"><path d="M167.99999839782717,117.2972972972973L252.0000032043457,117.2972972972973" style="fill: none; stroke: #000000; stroke-width: 1; opacity: 1;"></path></g><g class="mark-line role-mark layer_2_layer_7_marks"><path d="M85.25784667968749,319.4326623452676L167.99999839782717,117.2972972972973" style="fill: none; stroke: #000000; stroke-width: 1; opacity: 1;"></path></g><g class="mark-line role-mark layer_2_layer_8_marks"><path d="M167.99999839782717,117.2972972972973L179.29502700805662,263.9189189189189" style="fill: none; stroke: #000000; stroke-width: 1; opacity: 1;"></path></g><g class="mark-line role-mark layer_2_layer_9_marks"><path d="M252.0000032043457,117.2972972972973L335.99999679565434,117.2972972972973" style="fill: none; stroke: #000000; stroke-width: 1; opacity: 1;"></path></g><g class="mark-line role-mark layer_2_layer_10_marks"><path d="M179.29502700805662,263.9189189189189L252.0000032043457,117.2972972972973" style="fill: none; stroke: #000000; stroke-width: 1; opacity: 1;"></path></g><g class="mark-line role-mark layer_2_layer_11_marks"><path d="M252.0000032043457,117.2972972972973L294,263.9189189189189" style="fill: none; stroke: #000000; stroke-width: 1; opacity: 1;"></path></g><g class="mark-line role-mark layer_2_layer_12_marks"><path d="M335.99999679565434,117.2972972972973L420.0000128173828,117.2972972972973" style="fill: none; stroke: #000000; stroke-width: 1; opacity: 1;"></path></g><g class="mark-line role-mark layer_2_layer_13_marks"><path d="M294,263.9189189189189L335.99999679565434,117.2972972972973" style="fill: none; stroke: #000000; stroke-width: 1; opacity: 1;"></path></g><g class="mark-line role-mark layer_2_layer_14_marks"><path d="M335.99999679565434,117.2972972972973L408.70495056152345,263.9189189189189" style="fill: none; stroke: #000000; stroke-width: 1; opacity: 1;"></path></g><g class="mark-line role-mark layer_2_layer_15_marks"><path d="M420.0000128173828,117.2972972972973L504.0000064086914,117.2972972972973" style="fill: none; stroke: #000000; stroke-width: 1; opacity: 1;"></path></g><g class="mark-line role-mark layer_2_layer_16_marks"><path d="M408.70495056152345,263.9189189189189L420.0000128173828,117.2972972972973" style="fill: none; stroke: #000000; stroke-width: 1; opacity: 1;"></path></g><g class="mark-line role-mark layer_2_layer_17_marks"><path d="M420.0000128173828,117.2972972972973L502.74215332031247,319.4326623452676" style="fill: none; stroke: #000000; stroke-width: 1; opacity: 1;"></path></g><g class="mark-line role-mark layer_2_layer_18_marks"><path d="M504.0000064086914,117.2972972972973L588,117.2972972972973" style="fill: none; stroke: #000000; stroke-width: 1; opacity: 1;"></path></g><g class="mark-line role-mark layer_2_layer_19_marks"><path d="M502.74215332031247,319.4326623452676L504.0000064086914,117.2972972972973" style="fill: none; stroke: #000000; stroke-width: 1; opacity: 1;"></path></g><g class="mark-line role-mark layer_2_layer_20_marks"><path d="M504.0000064086914,117.2972972972973L559.688996887207,228.1403101843757" style="fill: none; stroke: #000000; stroke-width: 1; opacity: 1;"></path></g><g class="mark-line role-mark layer_2_layer_21_marks"><path d="M559.688996887207,228.1403101843757L588,117.2972972972973" style="fill: none; stroke: #000000; stroke-width: 1; opacity: 1;"></path></g><g class="mark-line role-mark layer_2_layer_22_marks"><path d="M28.31100591659546,228.1403101843757L85.25784667968749,319.4326623452676" style="fill: none; stroke: #000000; stroke-width: 1; opacity: 1;"></path></g><g class="mark-line role-mark layer_2_layer_23_marks"><path d="M85.25784667968749,319.4326623452676L179.29502700805662,263.9189189189189" style="fill: none; stroke: #000000; stroke-width: 1; opacity: 1;"></path></g><g class="mark-line role-mark layer_2_layer_24_marks"><path d="M179.29502700805662,263.9189189189189L294,263.9189189189189" style="fill: none; stroke: #000000; stroke-width: 1; opacity: 1;"></path></g><g class="mark-line role-mark layer_2_layer_25_marks"><path d="M294,263.9189189189189L408.70495056152345,263.9189189189189" style="fill: none; stroke: #000000; stroke-width: 1; opacity: 1;"></path></g><g class="mark-line role-mark layer_2_layer_26_marks"><path d="M408.70495056152345,263.9189189189189L502.74215332031247,319.4326623452676" style="fill: none; stroke: #000000; stroke-width: 1; opacity: 1;"></path></g><g class="mark-line role-mark layer_2_layer_27_marks"><path d="M502.74215332031247,319.4326623452676L559.688996887207,228.1403101843757" style="fill: none; stroke: #000000; stroke-width: 1; opacity: 1;"></path></g></g><path class="foreground" d="" style="display: none; fill: none;"></path></g></g></g></svg>