<svg class="marks" width="510" height="218.33333333333334" viewBox="0 0 510 218.33333333333334" version="1.1" xmlns="http://www.w3.org/2000/svg" xmlns:xlink="http://www.w3.org/1999/xlink"><rect width="510" height="218.33333333333334" style="fill: white;"></rect><g transform="translate(5,5)"><g class="mark-group role-frame root"><g transform="translate(0,0)"><path class="background" d="M0.5,0.5h500v208.33333333333334h-500Z" style="fill: none; stroke: #ddd;"></path><g><g class="mark-symbol role-mark layer_0_marks"><path transform="translate(41.666666666666664,48.07692307692307)" d="M0.5,0A0.5,0.5,0,1,1,-0.5,0A0.5,0.5,0,1,1,0.5,0" style="fill: #000000; stroke-width: 2; opacity: 0;"></path><path transform="translate(101.1904756228129,48.07692307692307)" d="M0.5,0A0.5,0.5,0,1,1,-0.5,0A0.5,0.5,0,1,1,0.5,0" style="fill: #000000; stroke-width: 2; opacity: 0;"></path><path transform="translate(160.71428457895914,48.07692307692307)" d="M0.5,0A0.5,0.5,0,1,1,-0.5,0A0.5,0.5,0,1,1,0.5,0" style="fill: #000000; stroke-width: 2; opacity: 0;"></path><path transform="translate(220.23809750874838,48.07692307692307)" d="M0.5,0A0.5,0.5,0,1,1,-0.5,0A0.5,0.5,0,1,1,0.5,0" style="fill: #000000; stroke-width: 2; opacity: 0;"></path><path transform="translate(279.7619024912516,48.07692307692307)" d="M0.5,0A0.5,0.5,0,1,1,-0.5,0A0.5,0.5,0,1,1,0.5,0" style="fill: #000000; stroke-width: 2; opacity: 0;"></path><path transform="translate(339.2857233683268,48.07692307692307)" d="M0.5,0A0.5,0.5,0,1,1,-0.5,0A0.5,0.5,0,1,1,0.5,0" style="fill: #000000; stroke-width: 2; opacity: 0;"></path><path transform="translate(398.8095283508301,48.07692307692307)" d="M0.5,0A0.5,0.5,0,1,1,-0.5,0A0.5,0.5,0,1,1,0.5,0" style="fill: #000000; stroke-width: 2; opacity: 0;"></path><path transform="translate(458.3333333333333,48.07692307692307)" d="M0.5,0A0.5,0.5,0,1,1,-0.5,0A0.5,0.5,0,1,1,0.5,0" style="fill: #000000; stroke-width: 2; opacity: 0;"></path><path transform="translate(69.52321330706278,106.4020471695142)" d="M0.5,0A0.5,0.5,0,1,1,-0.5,0A0.5,0.5,0,1,1,0.5,0" style="fill: #000000; stroke-width: 2; opacity: 0;"></path><path transform="translate(116.42097632090251,148.14879649724716)" d="M0.5,0A0.5,0.5,0,1,1,-0.5,0A0.5,0.5,0,1,1,0.5,0" style="fill: #000000; stroke-width: 2; opacity: 0;"></path><path transform="translate(183.20975303649902,148.2371794871795)" d="M0.5,0A0.5,0.5,0,1,1,-0.5,0A0.5,0.5,0,1,1,0.5,0" style="fill: #000000; stroke-width: 2; opacity: 0;"></path><path transform="translate(250,148.2371794871795)" d="M0.5,0A0.5,0.5,0,1,1,-0.5,0A0.5,0.5,0,1,1,0.5,0" style="fill: #000000; stroke-width: 2; opacity: 0;"></path><path transform="translate(316.7902310689291,148.2371794871795)" d="M0.5,0A0.5,0.5,0,1,1,-0.5,0A0.5,0.5,0,1,1,0.5,0" style="fill: #000000; stroke-width: 2; opacity: 0;"></path><path transform="translate(383.5790316263835,148.14879649724716)" d="M0.5,0A0.5,0.5,0,1,1,-0.5,0A0.5,0.5,0,1,1,0.5,0" style="fill: #000000; stroke-width: 2; opacity: 0;"></path><path transform="translate(430.47679265340173,106.4020471695142)" d="M0.5,0A0.5,0.5,0,1,1,-0.5,0A0.5,0.5,0,1,1,0.5,0" style="fill: #000000; stroke-width: 2; opacity: 0;"></path></g><g class="mark-line role-mark layer_1_marks"><path d="M41.666666666666664,48.07692307692307L101.1904756228129,48.07692307692307" style="fill: none; stroke: #000000; stroke-width: 2; opacity: 1;"></path></g><g class="mark-line role-mark layer_2_marks"><path d="M41.666666666666664,48.07692307692307L69.52321330706278,106.4020471695142" style="fill: none; stroke: #000000; stroke-width: 2; opacity: 1;"></path></g><g class="mark-line role-mark layer_3_marks"><path d="M101.1904756228129,48.07692307692307L160.71428457895914,48.07692307692307" style="fill: none; stroke: #000000; stroke-width: 2; opacity: 1;"></path></g><g class="mark-line role-mark layer_4_marks"><path d="M69.52321330706278,106.4020471695142L101.1904756228129,48.07692307692307" style="fill: none; stroke: #000000; stroke-width: 2; opacity: 1;"></path></g><g class="mark-line role-mark layer_5_marks"><path d="M101.1904756228129,48.07692307692307L116.42097632090251,148.14879649724716" style="fill: none; stroke: #000000; stroke-width: 2; opacity: 1;"></path></g><g class="mark-line role-mark layer_6_marks"><path d="M160.71428457895914,48.07692307692307L220.23809750874838,48.07692307692307" style="fill: none; stroke: #000000; stroke-width: 2; opacity: 1;"></path></g><g class="mark-line role-mark layer_7_marks"><path d="M116.42097632090251,148.14879649724716L160.71428457895914,48.07692307692307" style="fill: none; stroke: #000000; stroke-width: 2; opacity: 1;"></path></g><g class="mark-line role-mark layer_8_marks"><path d="M160.71428457895914,48.07692307692307L183.20975303649902,148.2371794871795" style="fill: none; stroke: #000000; stroke-width: 2; opacity: 1;"></path></g><g class="mark-line role-mark layer_9_marks"><path d="M220.23809750874838,48.07692307692307L279.7619024912516,48.07692307692307" style="fill: none; stroke: #000000; stroke-width: 2; opacity: 1;"></path></g><g class="mark-line role-mark layer_10_marks"><path d="M183.20975303649902,148.2371794871795L220.23809750874838,48.07692307692307" style="fill: none; stroke: #000000; stroke-width: 2; opacity: 1;"></path></g><g class="mark-line role-mark layer_11_marks"><path d="M220.23809750874838,48.07692307692307L250,148.2371794871795" style="fill: none; stroke: #000000; stroke-width: 2; opacity: 1;"></path></g><g class="mark-line role-mark layer_12_marks"><path d="M279.7619024912516,48.07692307692307L339.2857233683268,48.07692307692307" style="fill: none; stroke: #000000; stroke-width: 2; opacity: 1;"></path></g><g class="mark-line role-mark layer_13_marks"><path d="M250,148.2371794871795L279.7619024912516,48.07692307692307" style="fill: none; stroke: #000000; stroke-width: 2; opacity: 1;"></path></g><g class="mark-line role-mark layer_14_marks"><path d="M279.7619024912516,48.07692307692307L316.7902310689291,148.2371794871795" style="fill: none; stroke: #000000; stroke-width: 2; opacity: 1;"></path></g><g class="mark-line role-mark layer_15_marks"><path d="M339.2857233683268,48.07692307692307L398.8095283508301,48.07692307692307" style="fill: none; stroke: #000000; stroke-width: 2; opacity: 1;"></path></g><g class="mark-line role-mark layer_16_marks"><path d="M316.7902310689291,148.2371794871795L339.2857233683268,48.07692307692307" style="fill: none; stroke: #000000; stroke-width: 2; opacity: 1;"></path></g><g class="mark-line role-mark layer_17_marks"><path d="M339.2857233683268,48.07692307692307L383.5790316263835,148.14879649724716" style="fill: none; stroke: #000000; stroke-width: 2; opacity: 1;"></path></g><g class="mark-line role-mark layer_18_marks"><path d="M398.8095283508301,48.07692307692307L458.3333333333333,48.07692307692307" style="fill: none; stroke: #000000; stroke-width: 2; opacity: 1;"></path></g><g class="mark-line role-mark layer_19_marks"><path d="M383.5790316263835,148.14879649724716L398.8095283508301,48.07692307692307" style="fill: none; stroke: #000000; stroke-width: 2; opacity: 1;"></path></g><g class="mark-line role-mark layer_20_marks"><path d="M398.8095283508301,48.07692307692307L430.47679265340173,106.4020471695142" style="fill: none; stroke: #000000; stroke-width: 2; opacity: 1;"></path></g><g class="mark-line role-mark layer_21_marks"><path d="M430.47679265340173,106.4020471695142L458.3333333333333,48.07692307692307" style="fill: none; stroke: #000000; stroke-width: 2; opacity: 1;"></path></g><g class="mark-line role-mark layer_22_marks"><path d="M69.52321330706278,106.4020471695142L116.42097632090251,148.14879649724716" style="fill: none; stroke: #000000; stroke-width: 2; opacity: 1;"></path></g><g class="mark-line role-mark layer_23_marks"><path d="M116.42097632090251,148.14879649724716L183.20975303649902,148.2371794871795" style="fill: none; stroke: #000000; stroke-width: 2; opacity: 1;"></path></g><g class="mark-line role-mark layer_24_marks"><path d="M183.20975303649902,148.2371794871795L250,148.2371794871795" style="fill: none; stroke: #000000; stroke-width: 2; opacity: 1;"></path></g><g class="mark-line role-mark layer_25_marks"><path d="M250,148.2371794871795L316.7902310689291,148.2371794871795" style="fill: none; stroke: #000000; stroke-width: 2; opacity: 1;"></path></g><g class="mark-line role-mark layer_26_marks"><path d="M316.7902310689291,148.2371794871795L383.5790316263835,148.14879649724716" style="fill: none; stroke: #000000; stroke-width: 2; opacity: 1;"></path></g><g class="mark-line role-mark layer_27_marks"><path d="M383.5790316263835,148.14879649724716L430.47679265340173,106.4020471695142" style="fill: none; stroke: #000000; stroke-width: 2; opacity: 1;"></path></g></g><path class="foreground" d="" style="display: none; fill: none;"></path></g></g></g></svg>