<svg class="marks" width="1781.25" height="600" viewBox="0 0 1781.25 600" version="1.1" xmlns="http://www.w3.org/2000/svg" xmlns:xlink="http://www.w3.org/1999/xlink"><rect width="1781.25" height="600" style="fill: white;"></rect><g transform="translate(96,218)"><g class="mark-group role-frame root"><g transform="translate(0,0)"><path class="background" d="M0.5,0.5h1679.25v306h-1679.25Z" style="fill: none; stroke: #ddd; stroke-opacity: 0;"></path><g><g class="mark-group role-axis"><g transform="translate(0.5,306.5)"><path class="background" d="M0,0h0v0h0Z" style="pointer-events: none; fill: none;"></path><g><g class="mark-rule role-axis-tick" style="pointer-events: none;"><line transform="translate(0,0)" x2="0" y2="5" style="fill: none; stroke: #888; stroke-width: 1; opacity: 1;"></line><line transform="translate(323,0)" x2="0" y2="5" style="fill: none; stroke: #888; stroke-width: 1; opacity: 1;"></line><line transform="translate(646,0)" x2="0" y2="5" style="fill: none; stroke: #888; stroke-width: 1; opacity: 1;"></line><line transform="translate(969,0)" x2="0" y2="5" style="fill: none; stroke: #888; stroke-width: 1; opacity: 1;"></line><line transform="translate(1292,0)" x2="0" y2="5" style="fill: none; stroke: #888; stroke-width: 1; opacity: 1;"></line><line transform="translate(1615,0)" x2="0" y2="5" style="fill: none; stroke: #888; stroke-width: 1; opacity: 1;"></line></g><g class="mark-text role-axis-label" style="pointer-events: none;"><text text-anchor="start" transform="translate(0,31)" style="font-family: Arial; font-size: 30px; fill: #000; opacity: 1;">0.00</text><text text-anchor="middle" transform="translate(322.9326923076923,31)" style="font-family: Arial; font-size: 30px; fill: #000; opacity: 1;">0.05</text><text text-anchor="middle" transform="translate(645.8653846153846,31)" style="font-family: Arial; font-size: 30px; fill: #000; opacity: 1;">0.10</text><text text-anchor="middle" transform="translate(968.7980769230768,31)" style="font-family: Arial; font-size: 30px; fill: #000; opacity: 1;">0.15</text><text text-anchor="middle" transform="translate(1291.7307692307693,31)" style="font-family: Arial; font-size: 30px; fill: #000; opacity: 1;">0.20</text><text text-anchor="middle" transform="translate(1614.6634615384614,31)" style="font-family: Arial; font-size: 30px; fill: #000; opacity: 1;">0.25</text></g><g class="mark-rule role-axis-domain" style="pointer-events: none;"><line transform="translate(0,0)" x2="1679.25" y2="0" style="fill: none; stroke: #888; stroke-width: 1; opacity: 1;"></line></g><g class="mark-text role-axis-title" style="pointer-events: none;"><text text-anchor="middle" transform="translate(839.625,65)" style="font-family: Arial; font-size: 30px; font-weight: bold; fill: #000; opacity: 1;">Mean Absolute Error (cm)</text></g></g><path class="foreground" d="" style="pointer-events: none; display: none; fill: none;"></path></g></g><g class="mark-group role-axis"><g transform="translate(0.5,0.5)"><path class="background" d="M0,0h0v0h0Z" style="pointer-events: none; fill: none;"></path><g><g class="mark-rule role-axis-tick" style="pointer-events: none;"><line transform="translate(0,306)" x2="-5" y2="0" style="fill: none; stroke: #888; stroke-width: 1; opacity: 1;"></line><line transform="translate(0,153)" x2="-5" y2="0" style="fill: none; stroke: #888; stroke-width: 1; opacity: 1;"></line><line transform="translate(0,0)" x2="-5" y2="0" style="fill: none; stroke: #888; stroke-width: 1; opacity: 1;"></line></g><g class="mark-text role-axis-label" style="pointer-events: none;"><text text-anchor="end" transform="translate(-7,315)" style="font-family: Arial; font-size: 30px; fill: #000; opacity: 1;">0</text><text text-anchor="end" transform="translate(-7,162)" style="font-family: Arial; font-size: 30px; fill: #000; opacity: 1;">10</text><text text-anchor="end" transform="translate(-7,9)" style="font-family: Arial; font-size: 30px; fill: #000; opacity: 1;">20</text></g><g class="mark-rule role-axis-domain" style="pointer-events: none;"><line transform="translate(0,306)" x2="0" y2="-306" style="fill: none; stroke: #888; stroke-width: 1; opacity: 1;"></line></g><g class="mark-text role-axis-title" style="pointer-events: none;"><text text-anchor="middle" transform="translate(-60.369140625,153) rotate(-90) translate(0,-6)" style="font-family: Arial; font-size: 30px; font-weight: bold; fill: #000; opacity: 1;">Density</text></g></g><path class="foreground" d="" style="pointer-events: none; display: none; fill: none;"></path></g></g><g class="mark-area role-mark layer_0_marks"><path d="M0,292.3854493059042L1.677663186501998,291.45271047600454L3.355326373003996,290.4693389053981L5.032989559505995,289.4335945860347L6.710652746007992,288.3437477502225L8.388315932509991,287.1980843001667L10.06597911901199,285.994911438434L11.743642305513987,284.73256348229876L13.421305492015984,283.4094078432326L15.098968678517984,282.02385115116965L16.776631865019983,280.5743455016352L18.454295051521978,279.05939480237623L20.13195823802398,277.4775611947908L21.809621424525975,275.8274715242458L23.487284611027974,274.1078238322916L25.164947797529972,272.31739384286044L26.842610984031968,270.4550414137715L28.520274170533973,268.51971692426883L30.19793735703597,266.5104675689076L31.87560054353796,264.42644352786675L33.553263730039966,262.2669039837326L35.23092691654197,260.031222954941L36.908590103043956,257.7188949164125L38.58625328954595,255.32954017845185L40.26391647604796,252.86290999570315L41.94157966254996,250.31889137886395L43.61924284905195,247.69751158294454L45.29690603555395,244.99894224711304L46.97456922205595,242.22350316257922L48.65223240855795,239.371665646526L50.329895595059945,236.44405550178743L52.00755878156194,233.44145554378213L53.685221968063935,230.36480767811307L55.362885154565944,227.2152145142442L57.04054834106795,223.9939405027198L58.71821152756994,220.7024125855013L60.39587471407194,217.34222035113586L62.07353790057393,213.915115688619L63.75120108707592,210.4230119359644L65.42886427357793,206.86798252160773L67.10652746007993,203.25225909886197L68.78419064658192,199.5782291756649L70.46185383308394,195.8484332438238L72.13951701958592,192.0655614138337L73.81718020608791,188.23244956314127L75.49484339258993,184.35207500740887L77.1725065790919,180.4275517059094L78.8501697655939,176.46212501365437L80.52783295209592,172.45916599421105L82.20549613859791,168.42216530839468L83.88315932509992,164.35472669515394L85.5608225116019,160.2605600619768L87.2384856981039,156.14347420305694L88.91614888460592,152.00736916427442L90.5938120711079,147.85622827477158L92.2714752576099,143.69410986555627L93.9491384441119,139.52513869615117L95.6268016306139,135.35349711084024L97.3044648171159,131.18341594656297L98.98212800361789,127.01916521497253L100.65979119011989,122.86504458163877L102.33745437662189,118.72537366583111L104.01511756312388,114.60448218479215L105.6927807496259,110.50669996691686L107.37044393612787,106.43634685877196L109.04810712262989,102.39772255147679L110.72577030913189,98.39509635258224L112.40343349563388,94.43269693026224L114.0810966821359,90.51470205735185L115.75875986863787,86.64522838355309L117.43642305513988,82.82832126494316L119.11408624164184,79.06794468078391L120.79174942814387,75.36797126852545L122.46941261464586,71.7321725087951L124.14707580114786,68.16420909307297L125.82473898764985,64.66762150763458L127.50240217415184,61.245820868187046L129.18006536065388,57.90208004040497L130.85772854715586,54.63952508225948L132.53539173365786,51.46112704461621L134.21305492015986,48.36969416700081L135.89071810666186,45.36786450569617L137.56838129316384,42.45809903140284L139.24604447966587,39.64267523351954L140.92370766616787,36.9236812676889L142.60137085266985,34.30301068256538L144.27903403917185,31.7823577607485L145.95669722567382,29.363213507526634L147.63436041217582,27.046862319407087L149.31202359867783,24.834379362410353L150.98968678517986,22.7266286877337L152.66734997168183,20.724262109658408L154.3450131581838,18.82771886747433L156.02267634468583,17.037226089739356L157.7003395311878,15.352800075376672L159.37800271768984,13.774248401978403L161.05566590419184,12.301172867210914L162.73332909069384,10.932973264491144L164.41099227719582,9.668851989099782L166.08865546369782,8.507819465676931L167.76631865019985,7.448700382660521L169.44398183670182,6.490140713715823L171.1216450232038,5.6306155005879415L172.7993082097058,4.868437366206717L174.4769713962078,4.201765721270874L176.15463458270978,3.6286166220306946L177.83229776921183,3.1468732316453956L179.5099609557138,2.7542968323434813L181.1876241422158,2.4485383307340784L182.8652873287178,2.2271501940854597L184.5429505152198,2.0875987512121563L186.2206137017218,2.027276787907232L187.8982768882238,2.0435163636247955L189.57594007472582,2.13360177343713L191.2536032612278,2.2947825771767936L192.9312664477298,2.5242866162030597L194.6089296342318,2.819332937380186L196.2865928207338,3.1771445436996273L197.96425600723578,3.5949608914969486L199.64191919373778,4.070050055435505L201.31958238023978,4.599720484347724L202.99724556674175,5.181332273635746L204.67490875324378,5.812307883213366L206.35257193974581,6.490142233925151L208.03023512624776,7.212412119922008L209.70789831274976,7.9767848796386485L211.3855614992518,8.78102627369161L213.06322468575374,9.623007524198458L214.74088787225574,10.500711476626222L216.41855105875777,11.41223785223644L218.09621424525977,12.35580756648487L219.77387743176175,13.329766096210001L221.45154061826378,14.332585886113092L223.1292038047658,15.362867792751242L224.80686699126775,16.419341571992483L226.48453017776976,17.500865423526875L228.1621933642718,18.606424613523014L229.8398565507738,19.73512920376864L231.51751973727573,20.88621092259785L233.19518292377776,22.059019219477776L234.87284611027977,23.25301655127693L236.55050929678174,24.467772953879457L238.22817248328369,25.70295995789823L239.90583566978574,26.958343911737863L241.58349885628775,28.233778779110747L243.26116204278972,29.52919848129383L244.93882522929172,30.844608856895874L246.61648841579373,32.180079313680494L248.29415160229573,33.535734248041L249.9718147887977,34.91174430804604L251.6494779752997,36.30831757559089L253.3271411618017,37.72569074209719L255.00480434830368,39.16412035044398L256.6824675348057,40.623874173394675L258.36013072130777,42.10522279577392L260.03779390780977,43.6084314640483L261.7154570943117,45.13375226287492L263.3931202808137,46.681416673607366L265.0707834673157,48.251628564773696L266.7484466538177,49.844557659235726L268.4261098403197,51.46033351712988L270.1037730268217,53.09904006788563L271.78143621332373,54.760710718662736L273.4590993998257,56.445324060494386L275.1367625863277,58.152800187384244L276.8144257728297,59.88299763758606L278.49208895933174,61.63571096040362L280.16975214583374,63.41066890612291L281.84741533233574,65.20753323118312L283.52507851883774,67.02589810547606L285.2027417053397,68.865290103757L286.8804048918417,70.72516875861555L288.5580680783437,72.60492764832395L290.2357312648457,74.50389598916853L291.91339445134764,76.4213406986301L293.59105763784964,78.35646889299369L295.26872082435165,80.30843078068573L296.94638401085365,82.27632291083438L298.62404719735565,84.2591917352338L300.3017103838577,86.2560374410847L301.9793735703597,88.26581801151978L303.65703675686166,90.28745347103677L305.33469994336366,92.31983027351203L307.01236312986566,94.36180579141502L308.6900263163676,96.41221286618637L310.36768950286967,98.46986438142844L312.04535268937167,100.53355782255463L313.72301587587367,102.60207978882494L315.4006790623756,104.67421042619677L317.0783422488777,106.74872775214003L318.7560054353797,108.82441184641164L320.4336686218817,110.90004888477382L322.1113318083837,112.97443499567535L323.7889949948857,115.0463799229971L325.4666581813877,117.11471048103819L327.14432136788963,119.17827379094231L328.82198455439163,121.23594029072576L330.49964774089364,123.28660651389707L332.17731092739564,125.32919763438032L333.85497411389764,127.36266977798286L335.5326373003997,129.38601210301033L337.2103004869017,131.39824865477806L338.88796367340365,133.3984400006974L340.56562685990565,135.3856846543113L342.2432900464076,137.35912029810578L343.92095323290965,139.3179248161274L345.5986164194116,141.26131714840037L347.2762796059136,143.18855797984074L348.9539427924156,145.0989502768358L350.63160597891755,146.9918396848898L352.30926916541955,148.86661480074468L353.9869323519216,150.72270733217908L355.66459553842367,152.55959215829066L357.3422587249256,154.3767873024822L359.0199219114276,156.1738538296287L360.6975850979296,157.9503956780173L362.3752482844316,159.70605943563945L364.05291147093357,161.44053406930811L365.7305746574356,163.1535506138809L367.4082378439376,164.84488182762374L369.0859010304396,166.51434181846798L370.7635642169416,168.16178564461327L372.4412274034436,169.7871088916395L374.11889058994564,171.39024722702558L375.7965537764476,172.97117593174846L377.47421696294964,174.5299094074809L379.15188014945164,176.06650065682027L380.8295433359536,177.5810407329996L382.5072065224556,179.07365815464402L384.1848697089576,180.54451828037446L385.8625328954596,181.99382263742254L387.5401960819616,183.42180819791926L389.2178592684636,184.82874659615484L390.8955224549656,186.21494327989492L392.5731856414676,187.5807365887651L394.25084882796955,188.92649675279554L395.92851201447155,190.2526248044409L397.60617520097355,191.55955139775955L399.28383838747556,192.84773552894043L400.96150157397756,194.11766315300721L402.63916476047956,195.3698456922903L404.3168279469815,196.604818433139L405.9944911334835,197.82313880832882L407.6721543199855,199.02538456369896L409.34981750648757,200.2121518087164L411.02748069298957,201.38405295189L412.70514387949163,202.5417145232437L414.3828070659935,203.68577488738015L416.0604702524955,204.81688185201548L417.7381334389975,205.9356901782236L419.4157966254995,207.04285899998106L421.0934598120015,208.13904916193377L422.7711229985036,209.22492048560295L424.44878618500564,210.30112897548938L426.1264493715075,211.36832397771198L427.80411255800954,212.42714530491403L429.4817757445115,213.47822034217256L431.15943893101354,214.52216114954533L432.83710211751554,215.55956157766622L434.5147653040176,216.59099441345614L436.19242849051955,217.61700857352628L437.8700916770215,218.63812636322393L439.5477548635235,219.6548408194854L441.2254180500255,220.6676131557222L442.90308123652756,221.6768703268658L444.58074442302956,222.68300273243213L446.2584076095316,223.68636207504025L447.93607079603356,224.6872593912272L449.6137339825355,225.68596327065413L451.29139716903745,226.68269827888818L452.9690603555395,227.677643597891L454.6467235420415,228.67093189714186L456.3243867285436,229.66264844699035L458.0020499150455,230.652830484374L459.6797131015476,231.64146683946177L461.35737628804964,232.62849783011453L463.03503947455147,233.61381542928888L464.7127026610535,234.5972637086815L466.39036584755553,235.57863956001714L468.0680290340576,236.55769369345407L469.74569222055953,237.534131910622L471.4233554070616,238.5076166478436L473.1010185935635,239.4777687831328L474.7786817800654,240.44416969863445L476.45634496656737,241.4063635882806L478.13400815306943,242.36385999860983L479.8116713395715,243.31613658894315L481.48933452607343,244.26264209544524L483.1669977125755,245.20279948204305L484.84466089907744,246.13600925973242L486.52232408557944,247.06165295449563L488.1999872720814,247.97909670288664L489.87765045858345,248.88769495332687L491.5553136450854,249.78679425030262L493.23297683158745,250.67573707797095L494.91064001808945,251.5538657391718L496.58830320459145,252.4205262455127L498.26596639109346,253.27507219404245L499.9436295775954,254.11686860606267L501.62129276409746,254.94529570383682L503.2989559505994,255.75975260135226L504.97661913710147,256.5596608858556L506.6542823236034,257.34446806762145L508.33194551010547,258.11365087631566L510.00960869660736,258.8667183833727L511.6872718831094,259.60321493101094L513.3649350696114,260.3227228498495L515.0425982561135,261.0248649485603L516.7202614426155,261.7093067605631L518.3979246291175,262.37575853445605L520.0755878156195,263.02397695663836L521.7532510021214,263.65376659641976L523.4309141886234,264.26498106581204L525.1085773751254,264.85752388813535L526.7862405616274,265.43134907154376L528.4639037481294,265.98646138555773L530.1415669346314,266.5229163406728L531.8192301211334,267.04081987308416L533.4968933076354,267.54032773850236L535.1745564941374,268.02164462093504L536.8522196806395,268.4850229641462L538.5298828671415,268.9307615352801L540.2075460536435,269.35920373182796L541.8852092401455,269.77073564471664L543.5628724266475,270.16578389180273L545.2405356131495,270.5448132374442L546.9181987996513,270.9083240150967L548.5958619861534,271.25684937102915L550.2735251726554,271.59095234827123L551.9511883591574,271.91122283078374L553.6288515456594,272.2182743685813L555.3065147321614,272.51274090513255L556.9841779186635,272.7952734288075L558.6618411051654,273.06653657044274L560.3395042916675,273.32720516924377L562.0171674781694,273.57796082924483L563.6948306646715,273.81948848840375L565.3724938511734,274.0524730221153L567.0501570376755,274.27759590249843L568.7278202241774,274.49553193424106L570.4054834106794,274.70694608708254L572.0831465971813,274.91249044418464L573.7608097836834,275.11280128468786L575.4384729701854,275.3084963176813L577.1161361566874,275.5001720836382L578.7937993431893,275.68840153809316L580.4714625296914,275.8737318309675L582.1491257161933,276.05668229349783L583.8267889026953,276.23774264319877L585.5044520891973,276.41737141569934L587.1821152756993,276.59599463065194L588.8597784622013,276.77400469722517L590.5374416487033,276.951759562973L592.2151048352054,277.12958210813247L593.8927680217073,277.3077597856538L595.5704312082092,277.4865445055134L597.2480943947113,277.66615276012885L598.9257575812134,277.8467659859803L600.6034207677154,278.02853115486715L602.2810839542174,278.2115615866029L603.9587471407194,278.3959379733807L605.6364103272213,278.5817096045443L607.3140735137233,278.7688957790831L608.9917367002253,278.9574873918438L610.6693998867273,279.1474486782315L612.3470630732294,279.3387191010599L614.0247262597313,279.5312153622239L615.7023894462334,279.7248335210075L617.3800526327352,279.9194512001191L619.0577158192373,280.1149298599687L620.7353790057393,280.31111712127426L622.4130421922414,280.5078491158151L624.0907053787433,280.7049528450345L625.7683685652454,280.90224852624675L627.4460317517473,281.09955190641506L629.1236949382494,281.296676523844L630.8013581247512,281.49343589866993L632.4790213112533,281.6896456337328L634.1566844977554,281.8851254082683L635.8343476842573,282.0797008478673L637.5120108707594,282.2732052553022L639.1896740572613,282.46548118810847L640.8673372437634,282.6563818702262L642.5450004302653,282.8457724265403L644.2226636167674,283.03353093079755L645.9003268032693,283.21954925910865L647.5779899897714,283.40373374305335L649.2556531762733,283.58600561827967L650.9333163627754,283.76630126640697L652.6109795492774,283.9445722499943L654.2886427357793,284.12078514229984L655.9663059222813,284.2949211555173L657.6439691087833,284.4669755731138L659.3216322952853,284.6369569937945L660.9992954817873,284.8048863964581L662.6769586682893,284.9707960372785L664.3546218547913,285.13472819171903L666.0322850412933,285.29673375585287L667.7099482277953,285.45687072280805L669.3876114142973,285.6152025514539L671.0652746007994,285.7717964456005L672.7429377873013,285.9267215629672L674.4206009738034,286.0800471739841L676.0982641603053,286.2318407911197L677.7759273468073,286.382166289856L679.4535905333092,286.53108204266954L681.1312537198113,286.67863908740566L682.8089169063131,286.8248793512608L684.4865800928152,286.9698339512109L686.1642432793172,287.1135215911397L687.8419064658193,287.25594707514387L689.5195696523213,287.39709995551493L691.1972328388232,287.5369533327427L692.8748960253253,287.6754628235451L694.5525592118272,287.8125657114325L696.2302223983293,287.9481802926612L697.9078855848312,288.082205428642L699.5855487713333,288.2145203139589L701.2632119578351,288.34498446713945L702.9408751443372,288.47343794921795L704.6185383308391,288.599701812965L706.2962015173412,288.7235787834473L707.9738647038432,288.84485416833934L709.6515278903453,288.9632969941693L711.3291910768473,289.0786613624506L713.0068542633492,289.1906880174644L714.6845174498512,289.2991061153243L716.3621806363532,289.4036351819021L718.0398438228552,289.5039872452379L719.7175070093572,289.599869126221L721.3951701958592,289.6909848696197L723.0728333823612,289.77703829599204L724.7504965688632,289.85773565361654L726.4281597553652,289.9327883483802L728.1058229418671,290.0019157285453L729.7834861283692,290.0648479005059L731.4611493148712,290.12132855104306L733.1388125013733,290.1711177512077L734.8164756878753,290.2139947167984L736.4941388743773,290.24976050046513L738.1718020608791,290.2782405907623L739.8494652473812,290.2992873939876L741.5271284338831,290.3127825753757L743.2047916203852,290.3186392371685L744.8824548068872,290.3168039122371L746.5601179933892,290.3072583532857L748.2377811798913,290.2900210992082L749.9154443663931,290.2651488018823L751.5931075528952,290.2327372985578L753.2707707393972,290.1929224170136L754.9484339258993,290.14588050279445L756.6260971124012,290.0918286600916L758.3037602989033,290.0310247001614L759.9814234854052,289.9637667935809L761.6590866719072,289.8903928250831L763.3367498584091,289.8112794521891L765.0144130449112,289.7268408713249L766.6920762314132,289.6375272975634L768.3697394179152,289.5438231665475L770.0474026044172,289.44624506949344L771.7250657909192,289.3453394344419L773.4027289774211,289.24167996908164L775.0803921639232,289.13586488250746L776.7580553504253,289.02851390516696L778.4357185369272,288.9202651279853L780.1133817234293,288.81177168321557L781.7910449099312,288.70369829093164L783.4687080964333,288.59671769624987L785.1463712829352,288.4915070233196L786.824034469437,288.3887440728567L788.5016976559391,288.2891035905024L790.179360842441,288.1932535335615L791.8570240289431,288.10185136371257L793.534687215445,288.0155403930865L795.2123504019471,287.93494621067873L796.890013588449,287.860673215398L798.5676767749511,287.7933012811727L800.245339961453,287.7333825784326L801.9230031479551,287.68143857498035L803.6006663344572,287.63795723776747L805.2783295209591,287.6033904554095L806.9559927074612,287.57815169943456L808.633655893963,287.5626139402677L810.3113190804651,287.55710783183747L811.988982266967,287.56192017646305L813.6666454534691,287.57729267936344L815.344308639971,287.60342099975196L817.0219718264731,287.640454103048L818.6996350129751,287.68849391628976L820.3772981994772,287.74759528638225L822.0549613859791,287.8177662383853L823.7326245724812,287.8989685286627L825.4102877589833,287.9911184853963L827.087950945485,288.094088126735L828.765614131987,288.20770654472375L830.443277318489,288.3317615411569L832.120940504991,288.46600149963956L833.798603691493,288.61013747643983L835.476266877995,288.7638454911863L837.153930064497,288.92676899711694L838.831593250999,289.09852150943857L840.5092564375011,289.27868936940393L842.186919624003,289.4668346209787L843.8645828105052,289.66249797644235L845.5422459970072,289.8652018469593L847.2199091835091,290.0744534140616L848.8975723700113,290.2897477181033L850.5752355565132,290.51057074007423L852.252898743015,290.73640245369165L853.9305619295169,290.96671982541307L855.6082251160191,291.2009997409197L857.285888302521,291.4387218377064L858.963551489023,291.6793712246486L860.641214675525,291.9224410708063L862.3188778620271,292.16743504723803L863.9965410485291,292.41386960722167L865.6742042350311,292.66127609200396L867.3518674215331,292.909202650992L869.0295306080352,293.1572159671584L870.7071937945371,293.4049027803225L872.3848569810391,293.6518712028828L874.0625201675413,293.8977518244912L875.740183354043,294.14219860405467L877.4178465405449,294.3848895493147L879.095509727047,294.62552718606304L880.773172913549,294.8638388207992L882.450836100051,295.09957660229367L884.128499286553,295.33251738908825L885.8061624730551,295.5624624314207L887.4838256595572,295.7892368774011L889.1614888460591,296.0126891144749L890.8391520325611,296.232689958283L892.5168152190632,296.4491317019596L894.1944784055652,296.66192703969176L895.8721415920671,296.87100787900056L897.5498047785691,297.076324056684L899.227467965071,297.277841973696L900.905131151573,297.4755431644159L902.5827943380749,297.6694228158L904.2604575245771,297.85948825180145L905.938120711079,298.0457573982044L907.6157838975811,298.22825724264607L909.293447084083,298.4070223041148L910.9711102705852,298.58209312560575L912.6487734570871,298.7535148029169L914.3264366435891,298.92133556176987L916.004099830091,299.0856053945676L917.6817630165932,299.2463747671566L919.3594262030952,299.4036934049585L921.0370893895971,299.55760916679134L922.7147525760993,299.7081670136167L924.392415762601,299.8554080783474L926.0700789491029,299.9993688417326L927.747742135605,300.1400804182212L929.425405322107,300.27756795459885L931.1030685086091,300.41185014310287L932.7807316951111,300.5429388496617L934.458394881613,300.6708388568819L936.1360580681152,300.79554772042366L937.8137212546171,300.91705573648L939.4913844411191,301.03534601720037L941.1690476276212,301.15039467008745L942.8467108141232,301.26217107665235L944.5243740006249,301.37063826493517L946.202037187127,301.47575336989127L947.8797003736289,301.57746817511236L949.5573635601309,301.6757297288908L951.2350267466328,301.7704810272489L952.9126899331347,301.86166175624203L954.5903531196369,301.9492090856048L956.2680163061389,302.03305850563316L957.9456794926408,302.11314469909536L959.623342679143,302.1894024399225L961.3010058656449,302.26176751045097L962.9786690521469,302.3301776290695L964.6563322386488,302.3945733802576L966.333995425151,302.45489913918516L968.0116586116529,302.51110398327495L969.6893217981549,302.56314258340376L971.3669849846567,302.6109760677266L973.0446481711589,302.6545728514583L974.7223113576608,302.69390942631946L976.3999745441628,302.7289711037606L978.077637730665,302.7597527065003L979.7553009171669,302.7862592033636L981.4329641036688,302.80850628286515L983.1106272901708,302.82652086145845L984.788290476673,302.84034152285864L986.4659536631749,302.85001888533816L988.1436168496768,302.855615894394L989.8212800361789,302.8572080386868L991.498943222681,302.8548834876518L993.1766064091829,302.8487431496865L994.8542695956847,302.8389006503123L996.5319327821869,302.8254822302051L998.2095959686889,302.80862656347233L999.8872591551908,302.7884844970341L1001.5649223416927,302.76521871243494L1003.2425855281949,302.73900331186735L1004.9202487146969,302.71002333063717L1006.5979119011988,302.67847417872787L1008.2755750877008,302.64456101453754L1009.9532382742029,302.60849805426017L1011.6309014607049,302.5705078207599L1013.3085646472068,302.530820336147L1014.986227833709,302.4896722625995L1016.6638910202109,302.4473059962856L1018.341554206713,302.4039687195296L1020.0192173932147,302.35991141662197L1021.6968805797169,302.3153878589047L1023.3745437662188,302.2706535649604L1025.0522069527208,302.22596474190107L1026.7298701392228,302.1815772138842L1028.407533325725,302.1377453440809L1030.085196512227,302.0947209563779L1031.7628596987288,302.0527522631219L1033.440522885231,302.01208280519114L1035.118186071733,301.9729504106291L1036.795849258235,301.9355861779709L1038.4735124447368,301.90021349026256L1040.151175631239,301.86704706559095L1041.828838817741,301.8362920497279L1043.5065020042427,301.80814315623394L1045.1841651907448,301.7827838590766L1046.8618283772469,301.76038564248427L1048.539491563749,301.7411073123967L1050.2171547502508,301.7250943734726L1051.8948179367528,301.7124784751929L1053.5724811232549,301.7033769301425L1055.250144309757,301.6978923070798L1056.9278074962588,301.69611210090443L1058.605470682761,301.69810848112405L1060.2831338692629,301.703938119894L1061.960797055765,301.7136421001729L1063.6384602422668,301.72724590399724L1065.316123428769,301.7447594803465L1066.993786615271,301.76617739153255L1068.6714498017727,301.7914790365302L1070.3491129882748,301.82062894915435L1072.0267761747768,301.8535771684986L1073.704439361279,301.89025967858146L1075.3821025477807,301.93059891370456L1077.059765734283,301.9745043256115L1078.7374289207849,302.02187300815876L1080.415092107287,302.07259037486244L1082.0927552937887,302.12653088438293L1083.770418480291,302.1835588087418L1085.4480816667929,302.24352903884653L1087.125744853295,302.30628792172075L1088.8034080397968,302.3716741237069L1090.481071226299,302.43951951382354L1092.1587344128009,302.5096500614214L1093.8363975993027,302.5818867422874L1095.514060785805,302.65604644740296L1097.1917239723068,302.731942888654L1098.8693871588089,302.80938749593406L1100.5470503453107,302.8881903002579L1102.224713531813,302.96816079772196L1103.9023767183148,303.0491087893999L1105.5800399048169,303.1308451925466L1107.2577030913187,303.2131828187977L1108.935366277821,303.29593711539087L1110.6130294643228,303.3789268657965L1112.290692650825,303.4619748465245L1113.968355837327,303.54490843726813L1115.6460190238288,303.6275601819488L1117.3236822103308,303.7097682986374L1119.0013453968327,303.7913771367408L1120.679008583335,303.8722375802542L1122.3566717698368,303.952207396288L1124.0343349563389,304.0311515284792L1125.7119981428407,304.1089423352844L1127.389661329343,304.18545977352755L1129.0673245158448,304.26059152793385L1130.7449877023469,304.3342330877207L1132.422650888849,304.4062877716322L1134.100314075351,304.4766667031023L1135.7779772618528,304.54528873749825L1137.4556404483549,304.6120803436428L1139.133303634857,304.67697544203037L1140.8109668213588,304.7399152023441L1142.4886300078608,304.8008478030432L1144.1662931943627,304.8597281559264L1145.843956380865,304.9165175986871L1147.5216195673668,304.97118355855736L1149.1992827538688,305.0236991901957L1150.876945940371,305.07404299100716L1152.554609126873,305.122198397091L1154.2322723133748,305.1681533630012L1155.9099354998766,305.2118999284719L1157.5875986863787,305.25343377520545L1159.2652618728807,305.292753776756L1160.9429250593828,305.3298615444543L1162.6205882458844,305.3647609722243L1164.2982514323867,305.39745778303063L1165.9759146188885,305.42795907957986L1167.6535778053906,305.45627290176805L1169.3312409918926,305.4824077932367L1171.0089041783947,305.50637237925775L1172.6865673648965,305.5281749580279L1174.3642305513986,305.54782310730735L1176.0418937379006,305.56532330819454L1177.7195569244027,305.58068058768134L1179.3972201109048,305.5938981814923L1181.0748832974066,305.60497721856825L1182.7525464839089,305.61391642841767L1184.4302096704107,305.6207118724219L1186.1078728569125,305.6253567000517L1187.7855360434146,305.62784093082325L1189.4631992299167,305.62815126269896L1191.1408624164185,305.6262709075218L1192.8185256029205,305.62217945395497L1194.4961887894226,305.61585275829066L1196.1738519759247,305.6072628633855L1197.8515151624267,305.5963779458764L1199.5291783489286,305.58316229173556L1201.2068415354308,305.56757630012424L1202.8845047219327,305.54957651541486L1204.5621679084347,305.52911568715996L1206.2398310949368,305.50614285770064L1207.9174942814388,305.4806034770185L1209.5951574679407,305.45243954435404L1211.2728206544425,305.4215897760296L1212.9504838409446,305.38798979883586L1214.6281470274466,305.3515723682584L1216.3058102139485,305.3122676107435L1217.9834734004505,305.2700032891233L1219.6611365869526,305.2247050902456L1221.3387997734546,305.1762969337754L1223.0164629599567,305.1247013010641L1224.6941261464588,305.0698395829091L1226.3717893329608,305.01163244495734L1228.0494525194626,304.9500002094388L1229.7271157059647,304.8848632518525L1231.4047788924668,304.8161424111666L1233.0824420789688,304.7437594120381L1234.7601052654704,304.6676372975047L1236.4377684519725,304.58770087055507L1238.1154316384745,304.5038771429425L1239.7930948249766,304.41609578956945L1241.4707580114787,304.3242896067438L1243.1484211979807,304.22839497258184L1244.8260843844828,304.1283523078214L1246.5037475709846,304.0241065352951L1248.1814107574867,303.91560753631967L1249.8590739439887,303.802810602256L1251.5367371304908,303.68567687951685L1253.2144003169926,303.56417380631524L1254.8920635034947,303.438275539478L1256.5697266899967,303.3079633696855L1258.2473898764988,303.17322612353973L1259.9250530630004,303.034060550913L1261.6027162495025,302.89047169608426L1263.2803794360045,302.7424732512277L1264.9580426225066,302.5900878908851L1266.6357058090086,302.4333475861185L1268.3133689955107,302.27229389711056L1269.9910321820128,302.10697824305333L1271.6686953685146,301.93746214823864L1273.3463585550166,301.7638174633382L1275.0240217415187,301.58612656093345L1276.7016849280208,301.4044825044307L1278.3793481145226,301.21898918956543L1280.0570113010247,301.02976145776904L1281.7346744875267,300.83692518073775L1283.4123376740285,300.6406173156047L1285.0900008605306,300.44098593017594L1286.7676640470327,300.23819019774686L1288.4453272335347,300.03240036106484L1290.1229904200366,299.8237976650549L1291.8006536065386,299.61257425796697L1293.4783167930407,299.3989330606464L1295.1559799795427,299.1830876036674L1296.8336431660446,298.96526183210625L1298.5113063525466,298.7456898777671L1300.1889695390487,298.52461579870885L1301.8666327255507,298.30229328595743L1303.5442959120526,298.07898533732526L1305.2219590985549,297.85496389830234L1306.8996222850565,297.6305094700248L1308.5772854715585,297.40591068437857L1310.2549486580606,297.1814638463513L1311.9326118445626,296.95747244380624L1313.6102750310647,296.7342466249254L1315.2879382175665,296.51210264364676L1316.9656014040686,296.2913622735114L1318.6432645905707,296.07235219043565L1320.3209277770727,295.8554033250343L1321.9985909635745,295.64085018524366L1323.6762541500768,295.4290301501256L1325.3539173365787,295.22028273587813L1327.0315805230807,295.0149488352352L1328.7092437095826,294.8133699316002L1330.3869068960848,294.6158872894363L1332.0645700825867,294.42284112261575L1333.7422332690885,294.2345697426243L1335.4198964555906,294.05140868870734L1337.0975596420926,293.8736898422483L1338.7752228285947,293.7017405278656L1340.4528860150965,293.5358826039191L1342.1305492015988,293.37643154531116L1343.8082123881006,293.2236955216615L1345.4858755746027,293.07797447412014L1347.1635387611045,292.9395591942569L1348.8412019476068,292.8087304086287L1350.5188651341086,292.6857578727732L1352.1965283206107,292.5708994785056L1353.8741915071125,292.46440037850743L1355.5518546936146,292.36649213228026L1357.2295178801166,292.2773918776011L1358.9071810666185,292.19730153165364L1360.5848442531208,292.12640702601556L1362.2625074396226,292.0648775796613L1363.9401706261244,292.0128650140884L1365.6178338126263,291.9705031145899L1367.2954969991285,291.93790704158187L1368.9731601856304,291.915172795743L1370.6508233721324,291.90237674054725L1372.3284865586345,291.8995751855544L1374.0061497451366,291.90680403358243L1375.6838129316386,291.9240784946126L1377.3614761181404,291.9513928689765L1379.0391393046425,291.9887204020478L1380.7168024911443,292.03601321231093L1382.3944656776464,292.0932022943039L1384.0721288641482,292.1601975975441L1385.7497920506505,292.23688818213435L1387.4274552371523,292.3231424513304L1389.1051184236544,292.41880846091675L1390.7827816101565,292.52371430480576L1392.4604447966585,292.63766857583335L1394.1381079831604,292.7604609002902L1395.8157711696624,292.89186254429256L1397.4934343561645,293.0316270896735L1399.1710975426665,293.17949117666416L1400.8487607291686,293.3351753102344L1402.5264239156702,293.4983847265872L1404.2040871021725,293.6688103159421L1405.8817502886743,293.84612959741L1407.5594134751764,294.0300077414581L1409.2370766616782,294.22009863518747L1410.9147398481805,294.41604598540033L1412.5924030346823,294.61748445422677L1414.2700662211844,294.82404082190277L1415.9477294076864,295.0353351711537L1417.6253925941885,295.25098208753656L1419.3030557806906,295.47059187002884L1420.9807189671924,295.69377174612714L1422.6583821536947,295.9201270857309L1424.3360453401965,296.1492626081343L1426.0137085266983,296.3807835765379L1427.6913717132002,296.6142969746112L1429.3690348997025,296.8494126597933L1431.0466980862043,297.0857444882091L1432.7243612727063,297.3229114062949L1434.4020244592084,297.5605385044779L1436.0796876457105,297.7982580285259L1437.7573508322123,298.035710344483L1439.4350140187144,298.27254485342735L1441.1126772052164,298.5084208526217L1442.7903403917185,298.7430083399859L1444.4680035782205,298.97598875918317L1446.1456667647224,299.20705568299064L1447.8233299512247,299.4359154330077L1449.5009931377265,299.6622876341432L1451.1786563242283,299.8859057027114L1452.8563195107304,300.106517267354L1454.5339826972324,300.3238845223876L1456.2116458837343,300.53778451355316L1457.8893090702363,300.74800935650876L1459.5669722567384,300.95436638876225L1461.2446354432404,301.1566782560814L1462.9222986297425,301.3547829347424L1464.5999618162443,301.5485336912841L1466.2776250027466,301.73779898172546L1467.9552881892484,301.92246229246496L1469.6329513757505,302.1024219253297L1471.3106145622523,302.2775907294602L1472.9882777487546,302.44789578291636L1474.6659409352562,302.61327802706097L1476.3436041217583,302.7736918569286L1478.0212673082603,302.9291046709088L1479.6989304947624,303.0794963831738L1481.3765936812642,303.2248589023548L1483.0542568677663,303.36519558002317L1484.7319200542684,303.50052063255924L1486.4095832407704,303.63085853999934L1488.0872464272725,303.7562434254352L1489.7649096137743,303.8767184185037L1491.4425728002766,303.99233500645227L1493.1202359867784,304.10315237619216L1494.7978991732805,304.20923675066354L1496.4755623597825,304.31066072273615L1498.1532255462844,304.40750258975055L1499.8308887327862,304.4998456916825L1501.5085519192883,304.58777775577255L1503.1862151057903,304.67139025032264L1504.8638782922924,304.75077775020736L1506.5415414787944,304.82603731649453L1508.2192046652963,304.89726789240996L1509.8968678517986,304.96456971772017L1511.5745310383004,305.02804376344693L1513.2521942248025,305.0877911886664L1514.9298574113045,305.143912820988L1516.6075205978066,305.19650866215153L1518.2851837843084,305.24567742003353L1519.9628469708105,305.29151606820307L1521.6405101573125,305.33411943403L1523.3181733438144,305.3735798162129L1524.9958365303162,305.40998663246546L1526.6734997168182,305.44342609797894L1528.3511629033203,305.4739809351644L1530.0288260898224,305.5017301150692L1531.7064892763244,305.52674863076294L1533.3841524628265,305.54910730289026L1535.0618156493285,305.56887261750364L1536.7394788358304,305.58610659620047L1538.4171420223324,305.60086669851455L1540.0948052088345,305.6132057564351L1541.7724683953365,305.623171940856L1543.4501315818384,305.6308087596897L1545.1277947683404,305.6361550873133L1546.8054579548423,305.6392452249474L1548.4831211413443,305.6401089915051L1550.1607843278464,305.63877184437723L1551.8384475143484,305.6352550295564L1553.5161107008505,305.6295757604272L1555.1937738873523,305.62174742447945L1556.8714370738544,305.6117798171192L1558.5491002603565,305.5996794016753L1560.2267634468585,305.5854495946068L1561.9044266333603,305.56909107482886L1563.5820898198624,305.5506021159751L1565.2597530063645,305.5299789403132L1566.9374161928665,305.5072160929229L1568.6150793793684,305.48230683463333L1570.2927425658704,305.4552435521013L1571.9704057523722,305.42601818329115L1573.648068938874,305.39462265649496L1575.3257321253761,305.36104934090935L1577.0033953118782,305.3252915066566L1578.6810584983803,305.28734379201785L1580.358721684882,305.24720267552243L1582.0363848713841,305.2048669504176L1583.7140480578862,305.1603381989347L1585.3917112443883,305.113621263657L1587.06937443089,305.06472471320126L1588.7470376173924,305.0136612993378L1590.4247008038942,304.96044840260123L1592.1023639903963,304.90510846338407L1593.780027176898,304.84766939546574L1595.4576903634002,304.78816497890324L1597.1353535499022,304.72663522920567L1598.813016736404,304.6631267397353L1600.490679922906,304.5976929943134L1602.1683431094082,304.5303946470776L1603.8460062959102,304.4612997667254L1605.523669482412,304.3904840423932L1607.2013326689143,304.3180309485654L1608.8789958554162,304.24403186657366L1610.5566590419182,304.1685861604452L1612.2343222284203,304.0918012050799L1613.9119854149224,304.0137923649851L1615.5896486014242,303.9346829220705L1617.267311787926,303.85460395130195L1618.9449749744283,303.7736941433333L1620.6226381609301,303.6920995735736L1622.3003013474324,303.60997341750596L1623.977964533934,303.5274756124449L1625.6556277204363,303.44477246630635L1627.3332909069381,303.36203621435726L1629.0109540934404,303.27944452531494L1630.688617279942,303.19717995856706L1632.366280466444,303.1154293746876L1634.0439436529462,303.034383301821L1635.721606839448,302.9542352608954L1637.3992700259503,302.8751810530021L1639.076933212452,302.7974180126375L1640.7545963989544,302.72114423084406L1642.432259585456,302.6465577526001L1644.1099227719583,302.57385575309456L1645.78758595846,302.5032336977821L1647.4652491449624,302.434884491329L1649.142912331464,302.3689976207489L1650.8205755179665,302.30575829816877L1652.4982387044681,302.24534660876566L1654.17590189097,302.1879366694742L1655.8535650774722,302.1336958040743L1657.531228263974,302.0827837402352L1659.2088914504761,302.035351834008L1660.886554636978,301.9915423271332L1662.5642178234802,301.951487642351L1664.241881009982,301.9153097216848L1665.9195441964844,301.8831194124L1667.597207382986,301.85501590503793L1669.2748705694885,301.8310862275747L1670.95253375599,301.8114047993737L1672.6301969424924,301.79603304818414L1674.307860128994,301.7850190929916L1675.9855233154965,301.7783974950547L1677.663186501998,301.77618907896846L1677.663186501998,306L1675.9855233154965,306L1674.307860128994,306L1672.6301969424924,306L1670.95253375599,306L1669.2748705694885,306L1667.597207382986,306L1665.9195441964844,306L1664.241881009982,306L1662.5642178234802,306L1660.886554636978,306L1659.2088914504761,306L1657.531228263974,306L1655.8535650774722,306L1654.17590189097,306L1652.4982387044681,306L1650.8205755179665,306L1649.142912331464,306L1647.4652491449624,306L1645.78758595846,306L1644.1099227719583,306L1642.432259585456,306L1640.7545963989544,306L1639.076933212452,306L1637.3992700259503,306L1635.721606839448,306L1634.0439436529462,306L1632.366280466444,306L1630.688617279942,306L1629.0109540934404,306L1627.3332909069381,306L1625.6556277204363,306L1623.977964533934,306L1622.3003013474324,306L1620.6226381609301,306L1618.9449749744283,306L1617.267311787926,306L1615.5896486014242,306L1613.9119854149224,306L1612.2343222284203,306L1610.5566590419182,306L1608.8789958554162,306L1607.2013326689143,306L1605.523669482412,306L1603.8460062959102,306L1602.1683431094082,306L1600.490679922906,306L1598.813016736404,306L1597.1353535499022,306L1595.4576903634002,306L1593.780027176898,306L1592.1023639903963,306L1590.4247008038942,306L1588.7470376173924,306L1587.06937443089,306L1585.3917112443883,306L1583.7140480578862,306L1582.0363848713841,306L1580.358721684882,306L1578.6810584983803,306L1577.0033953118782,306L1575.3257321253761,306L1573.648068938874,306L1571.9704057523722,306L1570.2927425658704,306L1568.6150793793684,306L1566.9374161928665,306L1565.2597530063645,306L1563.5820898198624,306L1561.9044266333603,306L1560.2267634468585,306L1558.5491002603565,306L1556.8714370738544,306L1555.1937738873523,306L1553.5161107008505,306L1551.8384475143484,306L1550.1607843278464,306L1548.4831211413443,306L1546.8054579548423,306L1545.1277947683404,306L1543.4501315818384,306L1541.7724683953365,306L1540.0948052088345,306L1538.4171420223324,306L1536.7394788358304,306L1535.0618156493285,306L1533.3841524628265,306L1531.7064892763244,306L1530.0288260898224,306L1528.3511629033203,306L1526.6734997168182,306L1524.9958365303162,306L1523.3181733438144,306L1521.6405101573125,306L1519.9628469708105,306L1518.2851837843084,306L1516.6075205978066,306L1514.9298574113045,306L1513.2521942248025,306L1511.5745310383004,306L1509.8968678517986,306L1508.2192046652963,306L1506.5415414787944,306L1504.8638782922924,306L1503.1862151057903,306L1501.5085519192883,306L1499.8308887327862,306L1498.1532255462844,306L1496.4755623597825,306L1494.7978991732805,306L1493.1202359867784,306L1491.4425728002766,306L1489.7649096137743,306L1488.0872464272725,306L1486.4095832407704,306L1484.7319200542684,306L1483.0542568677663,306L1481.3765936812642,306L1479.6989304947624,306L1478.0212673082603,306L1476.3436041217583,306L1474.6659409352562,306L1472.9882777487546,306L1471.3106145622523,306L1469.6329513757505,306L1467.9552881892484,306L1466.2776250027466,306L1464.5999618162443,306L1462.9222986297425,306L1461.2446354432404,306L1459.5669722567384,306L1457.8893090702363,306L1456.2116458837343,306L1454.5339826972324,306L1452.8563195107304,306L1451.1786563242283,306L1449.5009931377265,306L1447.8233299512247,306L1446.1456667647224,306L1444.4680035782205,306L1442.7903403917185,306L1441.1126772052164,306L1439.4350140187144,306L1437.7573508322123,306L1436.0796876457105,306L1434.4020244592084,306L1432.7243612727063,306L1431.0466980862043,306L1429.3690348997025,306L1427.6913717132002,306L1426.0137085266983,306L1424.3360453401965,306L1422.6583821536947,306L1420.9807189671924,306L1419.3030557806906,306L1417.6253925941885,306L1415.9477294076864,306L1414.2700662211844,306L1412.5924030346823,306L1410.9147398481805,306L1409.2370766616782,306L1407.5594134751764,306L1405.8817502886743,306L1404.2040871021725,306L1402.5264239156702,306L1400.8487607291686,306L1399.1710975426665,306L1397.4934343561645,306L1395.8157711696624,306L1394.1381079831604,306L1392.4604447966585,306L1390.7827816101565,306L1389.1051184236544,306L1387.4274552371523,306L1385.7497920506505,306L1384.0721288641482,306L1382.3944656776464,306L1380.7168024911443,306L1379.0391393046425,306L1377.3614761181404,306L1375.6838129316386,306L1374.0061497451366,306L1372.3284865586345,306L1370.6508233721324,306L1368.9731601856304,306L1367.2954969991285,306L1365.6178338126263,306L1363.9401706261244,306L1362.2625074396226,306L1360.5848442531208,306L1358.9071810666185,306L1357.2295178801166,306L1355.5518546936146,306L1353.8741915071125,306L1352.1965283206107,306L1350.5188651341086,306L1348.8412019476068,306L1347.1635387611045,306L1345.4858755746027,306L1343.8082123881006,306L1342.1305492015988,306L1340.4528860150965,306L1338.7752228285947,306L1337.0975596420926,306L1335.4198964555906,306L1333.7422332690885,306L1332.0645700825867,306L1330.3869068960848,306L1328.7092437095826,306L1327.0315805230807,306L1325.3539173365787,306L1323.6762541500768,306L1321.9985909635745,306L1320.3209277770727,306L1318.6432645905707,306L1316.9656014040686,306L1315.2879382175665,306L1313.6102750310647,306L1311.9326118445626,306L1310.2549486580606,306L1308.5772854715585,306L1306.8996222850565,306L1305.2219590985549,306L1303.5442959120526,306L1301.8666327255507,306L1300.1889695390487,306L1298.5113063525466,306L1296.8336431660446,306L1295.1559799795427,306L1293.4783167930407,306L1291.8006536065386,306L1290.1229904200366,306L1288.4453272335347,306L1286.7676640470327,306L1285.0900008605306,306L1283.4123376740285,306L1281.7346744875267,306L1280.0570113010247,306L1278.3793481145226,306L1276.7016849280208,306L1275.0240217415187,306L1273.3463585550166,306L1271.6686953685146,306L1269.9910321820128,306L1268.3133689955107,306L1266.6357058090086,306L1264.9580426225066,306L1263.2803794360045,306L1261.6027162495025,306L1259.9250530630004,306L1258.2473898764988,306L1256.5697266899967,306L1254.8920635034947,306L1253.2144003169926,306L1251.5367371304908,306L1249.8590739439887,306L1248.1814107574867,306L1246.5037475709846,306L1244.8260843844828,306L1243.1484211979807,306L1241.4707580114787,306L1239.7930948249766,306L1238.1154316384745,306L1236.4377684519725,306L1234.7601052654704,306L1233.0824420789688,306L1231.4047788924668,306L1229.7271157059647,306L1228.0494525194626,306L1226.3717893329608,306L1224.6941261464588,306L1223.0164629599567,306L1221.3387997734546,306L1219.6611365869526,306L1217.9834734004505,306L1216.3058102139485,306L1214.6281470274466,306L1212.9504838409446,306L1211.2728206544425,306L1209.5951574679407,306L1207.9174942814388,306L1206.2398310949368,306L1204.5621679084347,306L1202.8845047219327,306L1201.2068415354308,306L1199.5291783489286,306L1197.8515151624267,306L1196.1738519759247,306L1194.4961887894226,306L1192.8185256029205,306L1191.1408624164185,306L1189.4631992299167,306L1187.7855360434146,306L1186.1078728569125,306L1184.4302096704107,306L1182.7525464839089,306L1181.0748832974066,306L1179.3972201109048,306L1177.7195569244027,306L1176.0418937379006,306L1174.3642305513986,306L1172.6865673648965,306L1171.0089041783947,306L1169.3312409918926,306L1167.6535778053906,306L1165.9759146188885,306L1164.2982514323867,306L1162.6205882458844,306L1160.9429250593828,306L1159.2652618728807,306L1157.5875986863787,306L1155.9099354998766,306L1154.2322723133748,306L1152.554609126873,306L1150.876945940371,306L1149.1992827538688,306L1147.5216195673668,306L1145.843956380865,306L1144.1662931943627,306L1142.4886300078608,306L1140.8109668213588,306L1139.133303634857,306L1137.4556404483549,306L1135.7779772618528,306L1134.100314075351,306L1132.422650888849,306L1130.7449877023469,306L1129.0673245158448,306L1127.389661329343,306L1125.7119981428407,306L1124.0343349563389,306L1122.3566717698368,306L1120.679008583335,306L1119.0013453968327,306L1117.3236822103308,306L1115.6460190238288,306L1113.968355837327,306L1112.290692650825,306L1110.6130294643228,306L1108.935366277821,306L1107.2577030913187,306L1105.5800399048169,306L1103.9023767183148,306L1102.224713531813,306L1100.5470503453107,306L1098.8693871588089,306L1097.1917239723068,306L1095.514060785805,306L1093.8363975993027,306L1092.1587344128009,306L1090.481071226299,306L1088.8034080397968,306L1087.125744853295,306L1085.4480816667929,306L1083.770418480291,306L1082.0927552937887,306L1080.415092107287,306L1078.7374289207849,306L1077.059765734283,306L1075.3821025477807,306L1073.704439361279,306L1072.0267761747768,306L1070.3491129882748,306L1068.6714498017727,306L1066.993786615271,306L1065.316123428769,306L1063.6384602422668,306L1061.960797055765,306L1060.2831338692629,306L1058.605470682761,306L1056.9278074962588,306L1055.250144309757,306L1053.5724811232549,306L1051.8948179367528,306L1050.2171547502508,306L1048.539491563749,306L1046.8618283772469,306L1045.1841651907448,306L1043.5065020042427,306L1041.828838817741,306L1040.151175631239,306L1038.4735124447368,306L1036.795849258235,306L1035.118186071733,306L1033.440522885231,306L1031.7628596987288,306L1030.085196512227,306L1028.407533325725,306L1026.7298701392228,306L1025.0522069527208,306L1023.3745437662188,306L1021.6968805797169,306L1020.0192173932147,306L1018.341554206713,306L1016.6638910202109,306L1014.986227833709,306L1013.3085646472068,306L1011.6309014607049,306L1009.9532382742029,306L1008.2755750877008,306L1006.5979119011988,306L1004.9202487146969,306L1003.2425855281949,306L1001.5649223416927,306L999.8872591551908,306L998.2095959686889,306L996.5319327821869,306L994.8542695956847,306L993.1766064091829,306L991.498943222681,306L989.8212800361789,306L988.1436168496768,306L986.4659536631749,306L984.788290476673,306L983.1106272901708,306L981.4329641036688,306L979.7553009171669,306L978.077637730665,306L976.3999745441628,306L974.7223113576608,306L973.0446481711589,306L971.3669849846567,306L969.6893217981549,306L968.0116586116529,306L966.333995425151,306L964.6563322386488,306L962.9786690521469,306L961.3010058656449,306L959.623342679143,306L957.9456794926408,306L956.2680163061389,306L954.5903531196369,306L952.9126899331347,306L951.2350267466328,306L949.5573635601309,306L947.8797003736289,306L946.202037187127,306L944.5243740006249,306L942.8467108141232,306L941.1690476276212,306L939.4913844411191,306L937.8137212546171,306L936.1360580681152,306L934.458394881613,306L932.7807316951111,306L931.1030685086091,306L929.425405322107,306L927.747742135605,306L926.0700789491029,306L924.392415762601,306L922.7147525760993,306L921.0370893895971,306L919.3594262030952,306L917.6817630165932,306L916.004099830091,306L914.3264366435891,306L912.6487734570871,306L910.9711102705852,306L909.293447084083,306L907.6157838975811,306L905.938120711079,306L904.2604575245771,306L902.5827943380749,306L900.905131151573,306L899.227467965071,306L897.5498047785691,306L895.8721415920671,306L894.1944784055652,306L892.5168152190632,306L890.8391520325611,306L889.1614888460591,306L887.4838256595572,306L885.8061624730551,306L884.128499286553,306L882.450836100051,306L880.773172913549,306L879.095509727047,306L877.4178465405449,306L875.740183354043,306L874.0625201675413,306L872.3848569810391,306L870.7071937945371,306L869.0295306080352,306L867.3518674215331,306L865.6742042350311,306L863.9965410485291,306L862.3188778620271,306L860.641214675525,306L858.963551489023,306L857.285888302521,306L855.6082251160191,306L853.9305619295169,306L852.252898743015,306L850.5752355565132,306L848.8975723700113,306L847.2199091835091,306L845.5422459970072,306L843.8645828105052,306L842.186919624003,306L840.5092564375011,306L838.831593250999,306L837.153930064497,306L835.476266877995,306L833.798603691493,306L832.120940504991,306L830.443277318489,306L828.765614131987,306L827.087950945485,306L825.4102877589833,306L823.7326245724812,306L822.0549613859791,306L820.3772981994772,306L818.6996350129751,306L817.0219718264731,306L815.344308639971,306L813.6666454534691,306L811.988982266967,306L810.3113190804651,306L808.633655893963,306L806.9559927074612,306L805.2783295209591,306L803.6006663344572,306L801.9230031479551,306L800.245339961453,306L798.5676767749511,306L796.890013588449,306L795.2123504019471,306L793.534687215445,306L791.8570240289431,306L790.179360842441,306L788.5016976559391,306L786.824034469437,306L785.1463712829352,306L783.4687080964333,306L781.7910449099312,306L780.1133817234293,306L778.4357185369272,306L776.7580553504253,306L775.0803921639232,306L773.4027289774211,306L771.7250657909192,306L770.0474026044172,306L768.3697394179152,306L766.6920762314132,306L765.0144130449112,306L763.3367498584091,306L761.6590866719072,306L759.9814234854052,306L758.3037602989033,306L756.6260971124012,306L754.9484339258993,306L753.2707707393972,306L751.5931075528952,306L749.9154443663931,306L748.2377811798913,306L746.5601179933892,306L744.8824548068872,306L743.2047916203852,306L741.5271284338831,306L739.8494652473812,306L738.1718020608791,306L736.4941388743773,306L734.8164756878753,306L733.1388125013733,306L731.4611493148712,306L729.7834861283692,306L728.1058229418671,306L726.4281597553652,306L724.7504965688632,306L723.0728333823612,306L721.3951701958592,306L719.7175070093572,306L718.0398438228552,306L716.3621806363532,306L714.6845174498512,306L713.0068542633492,306L711.3291910768473,306L709.6515278903453,306L707.9738647038432,306L706.2962015173412,306L704.6185383308391,306L702.9408751443372,306L701.2632119578351,306L699.5855487713333,306L697.9078855848312,306L696.2302223983293,306L694.5525592118272,306L692.8748960253253,306L691.1972328388232,306L689.5195696523213,306L687.8419064658193,306L686.1642432793172,306L684.4865800928152,306L682.8089169063131,306L681.1312537198113,306L679.4535905333092,306L677.7759273468073,306L676.0982641603053,306L674.4206009738034,306L672.7429377873013,306L671.0652746007994,306L669.3876114142973,306L667.7099482277953,306L666.0322850412933,306L664.3546218547913,306L662.6769586682893,306L660.9992954817873,306L659.3216322952853,306L657.6439691087833,306L655.9663059222813,306L654.2886427357793,306L652.6109795492774,306L650.9333163627754,306L649.2556531762733,306L647.5779899897714,306L645.9003268032693,306L644.2226636167674,306L642.5450004302653,306L640.8673372437634,306L639.1896740572613,306L637.5120108707594,306L635.8343476842573,306L634.1566844977554,306L632.4790213112533,306L630.8013581247512,306L629.1236949382494,306L627.4460317517473,306L625.7683685652454,306L624.0907053787433,306L622.4130421922414,306L620.7353790057393,306L619.0577158192373,306L617.3800526327352,306L615.7023894462334,306L614.0247262597313,306L612.3470630732294,306L610.6693998867273,306L608.9917367002253,306L607.3140735137233,306L605.6364103272213,306L603.9587471407194,306L602.2810839542174,306L600.6034207677154,306L598.9257575812134,306L597.2480943947113,306L595.5704312082092,306L593.8927680217073,306L592.2151048352054,306L590.5374416487033,306L588.8597784622013,306L587.1821152756993,306L585.5044520891973,306L583.8267889026953,306L582.1491257161933,306L580.4714625296914,306L578.7937993431893,306L577.1161361566874,306L575.4384729701854,306L573.7608097836834,306L572.0831465971813,306L570.4054834106794,306L568.7278202241774,306L567.0501570376755,306L565.3724938511734,306L563.6948306646715,306L562.0171674781694,306L560.3395042916675,306L558.6618411051654,306L556.9841779186635,306L555.3065147321614,306L553.6288515456594,306L551.9511883591574,306L550.2735251726554,306L548.5958619861534,306L546.9181987996513,306L545.2405356131495,306L543.5628724266475,306L541.8852092401455,306L540.2075460536435,306L538.5298828671415,306L536.8522196806395,306L535.1745564941374,306L533.4968933076354,306L531.8192301211334,306L530.1415669346314,306L528.4639037481294,306L526.7862405616274,306L525.1085773751254,306L523.4309141886234,306L521.7532510021214,306L520.0755878156195,306L518.3979246291175,306L516.7202614426155,306L515.0425982561135,306L513.3649350696114,306L511.6872718831094,306L510.00960869660736,306L508.33194551010547,306L506.6542823236034,306L504.97661913710147,306L503.2989559505994,306L501.62129276409746,306L499.9436295775954,306L498.26596639109346,306L496.58830320459145,306L494.91064001808945,306L493.23297683158745,306L491.5553136450854,306L489.87765045858345,306L488.1999872720814,306L486.52232408557944,306L484.84466089907744,306L483.1669977125755,306L481.48933452607343,306L479.8116713395715,306L478.13400815306943,306L476.45634496656737,306L474.7786817800654,306L473.1010185935635,306L471.4233554070616,306L469.74569222055953,306L468.0680290340576,306L466.39036584755553,306L464.7127026610535,306L463.03503947455147,306L461.35737628804964,306L459.6797131015476,306L458.0020499150455,306L456.3243867285436,306L454.6467235420415,306L452.9690603555395,306L451.29139716903745,306L449.6137339825355,306L447.93607079603356,306L446.2584076095316,306L444.58074442302956,306L442.90308123652756,306L441.2254180500255,306L439.5477548635235,306L437.8700916770215,306L436.19242849051955,306L434.5147653040176,306L432.83710211751554,306L431.15943893101354,306L429.4817757445115,306L427.80411255800954,306L426.1264493715075,306L424.44878618500564,306L422.7711229985036,306L421.0934598120015,306L419.4157966254995,306L417.7381334389975,306L416.0604702524955,306L414.3828070659935,306L412.70514387949163,306L411.02748069298957,306L409.34981750648757,306L407.6721543199855,306L405.9944911334835,306L404.3168279469815,306L402.63916476047956,306L400.96150157397756,306L399.28383838747556,306L397.60617520097355,306L395.92851201447155,306L394.25084882796955,306L392.5731856414676,306L390.8955224549656,306L389.2178592684636,306L387.5401960819616,306L385.8625328954596,306L384.1848697089576,306L382.5072065224556,306L380.8295433359536,306L379.15188014945164,306L377.47421696294964,306L375.7965537764476,306L374.11889058994564,306L372.4412274034436,306L370.7635642169416,306L369.0859010304396,306L367.4082378439376,306L365.7305746574356,306L364.05291147093357,306L362.3752482844316,306L360.6975850979296,306L359.0199219114276,306L357.3422587249256,306L355.66459553842367,306L353.9869323519216,306L352.30926916541955,306L350.63160597891755,306L348.9539427924156,306L347.2762796059136,306L345.5986164194116,306L343.92095323290965,306L342.2432900464076,306L340.56562685990565,306L338.88796367340365,306L337.2103004869017,306L335.5326373003997,306L333.85497411389764,306L332.17731092739564,306L330.49964774089364,306L328.82198455439163,306L327.14432136788963,306L325.4666581813877,306L323.7889949948857,306L322.1113318083837,306L320.4336686218817,306L318.7560054353797,306L317.0783422488777,306L315.4006790623756,306L313.72301587587367,306L312.04535268937167,306L310.36768950286967,306L308.6900263163676,306L307.01236312986566,306L305.33469994336366,306L303.65703675686166,306L301.9793735703597,306L300.3017103838577,306L298.62404719735565,306L296.94638401085365,306L295.26872082435165,306L293.59105763784964,306L291.91339445134764,306L290.2357312648457,306L288.5580680783437,306L286.8804048918417,306L285.2027417053397,306L283.52507851883774,306L281.84741533233574,306L280.16975214583374,306L278.49208895933174,306L276.8144257728297,306L275.1367625863277,306L273.4590993998257,306L271.78143621332373,306L270.1037730268217,306L268.4261098403197,306L266.7484466538177,306L265.0707834673157,306L263.3931202808137,306L261.7154570943117,306L260.03779390780977,306L258.36013072130777,306L256.6824675348057,306L255.00480434830368,306L253.3271411618017,306L251.6494779752997,306L249.9718147887977,306L248.29415160229573,306L246.61648841579373,306L244.93882522929172,306L243.26116204278972,306L241.58349885628775,306L239.90583566978574,306L238.22817248328369,306L236.55050929678174,306L234.87284611027977,306L233.19518292377776,306L231.51751973727573,306L229.8398565507738,306L228.1621933642718,306L226.48453017776976,306L224.80686699126775,306L223.1292038047658,306L221.45154061826378,306L219.77387743176175,306L218.09621424525977,306L216.41855105875777,306L214.74088787225574,306L213.06322468575374,306L211.3855614992518,306L209.70789831274976,306L208.03023512624776,306L206.35257193974581,306L204.67490875324378,306L202.99724556674175,306L201.31958238023978,306L199.64191919373778,306L197.96425600723578,306L196.2865928207338,306L194.6089296342318,306L192.9312664477298,306L191.2536032612278,306L189.57594007472582,306L187.8982768882238,306L186.2206137017218,306L184.5429505152198,306L182.8652873287178,306L181.1876241422158,306L179.5099609557138,306L177.83229776921183,306L176.15463458270978,306L174.4769713962078,306L172.7993082097058,306L171.1216450232038,306L169.44398183670182,306L167.76631865019985,306L166.08865546369782,306L164.41099227719582,306L162.73332909069384,306L161.05566590419184,306L159.37800271768984,306L157.7003395311878,306L156.02267634468583,306L154.3450131581838,306L152.66734997168183,306L150.98968678517986,306L149.31202359867783,306L147.63436041217582,306L145.95669722567382,306L144.27903403917185,306L142.60137085266985,306L140.92370766616787,306L139.24604447966587,306L137.56838129316384,306L135.89071810666186,306L134.21305492015986,306L132.53539173365786,306L130.85772854715586,306L129.18006536065388,306L127.50240217415184,306L125.82473898764985,306L124.14707580114786,306L122.46941261464586,306L120.79174942814387,306L119.11408624164184,306L117.43642305513988,306L115.75875986863787,306L114.0810966821359,306L112.40343349563388,306L110.72577030913189,306L109.04810712262989,306L107.37044393612787,306L105.6927807496259,306L104.01511756312388,306L102.33745437662189,306L100.65979119011989,306L98.98212800361789,306L97.3044648171159,306L95.6268016306139,306L93.9491384441119,306L92.2714752576099,306L90.5938120711079,306L88.91614888460592,306L87.2384856981039,306L85.5608225116019,306L83.88315932509992,306L82.20549613859791,306L80.52783295209592,306L78.8501697655939,306L77.1725065790919,306L75.49484339258993,306L73.81718020608791,306L72.13951701958592,306L70.46185383308394,306L68.78419064658192,306L67.10652746007993,306L65.42886427357793,306L63.75120108707592,306L62.07353790057393,306L60.39587471407194,306L58.71821152756994,306L57.04054834106795,306L55.362885154565944,306L53.685221968063935,306L52.00755878156194,306L50.329895595059945,306L48.65223240855795,306L46.97456922205595,306L45.29690603555395,306L43.61924284905195,306L41.94157966254996,306L40.26391647604796,306L38.58625328954595,306L36.908590103043956,306L35.23092691654197,306L33.553263730039966,306L31.87560054353796,306L30.19793735703597,306L28.520274170533973,306L26.842610984031968,306L25.164947797529972,306L23.487284611027974,306L21.809621424525975,306L20.13195823802398,306L18.454295051521978,306L16.776631865019983,306L15.098968678517984,306L13.421305492015984,306L11.743642305513987,306L10.06597911901199,306L8.388315932509991,306L6.710652746007992,306L5.032989559505995,306L3.355326373003996,306L1.677663186501998,306L0,306Z" style="fill: #0096C7; opacity: 0.3;"></path></g><g class="mark-rect role-mark layer_1_marks"><path d="M78.47035918462699,276h1v30h-1Z" style="fill: #000000; stroke: #000000; stroke-width: 1; opacity: 0.2;"></path><path d="M87.14163397039653,276h1v30h-1Z" style="fill: #000000; stroke: #000000; stroke-width: 1; opacity: 0.2;"></path><path d="M88.44571955550167,276h1v30h-1Z" style="fill: #000000; stroke: #000000; stroke-width: 1; opacity: 0.2;"></path><path d="M90.21068739142189,276h1v30h-1Z" style="fill: #000000; stroke: #000000; stroke-width: 1; opacity: 0.2;"></path><path d="M91.61429219157212,276h1v30h-1Z" style="fill: #000000; stroke: #000000; stroke-width: 1; opacity: 0.2;"></path><path d="M97.67713225595743,276h1v30h-1Z" style="fill: #000000; stroke: #000000; stroke-width: 1; opacity: 0.2;"></path><path d="M102.18134786553073,276h1v30h-1Z" style="fill: #000000; stroke: #000000; stroke-width: 1; opacity: 0.2;"></path><path d="M103.37489092127025,276h1v30h-1Z" style="fill: #000000; stroke: #000000; stroke-width: 1; opacity: 0.2;"></path><path d="M104.52973778942116,276h1v30h-1Z" style="fill: #000000; stroke: #000000; stroke-width: 1; opacity: 0.2;"></path><path d="M104.53752973717367,276h1v30h-1Z" style="fill: #000000; stroke: #000000; stroke-width: 1; opacity: 0.2;"></path><path d="M105.10337410771395,276h1v30h-1Z" style="fill: #000000; stroke: #000000; stroke-width: 1; opacity: 0.2;"></path><path d="M108.01638231624831,276h1v30h-1Z" style="fill: #000000; stroke: #000000; stroke-width: 1; opacity: 0.2;"></path><path d="M108.930503833833,276h1v30h-1Z" style="fill: #000000; stroke: #000000; stroke-width: 1; opacity: 0.2;"></path><path d="M115.34011422007237,276h1v30h-1Z" style="fill: #000000; stroke: #000000; stroke-width: 1; opacity: 0.2;"></path><path d="M116.6921890363357,276h1v30h-1Z" style="fill: #000000; stroke: #000000; stroke-width: 1; opacity: 0.2;"></path><path d="M118.67207712526523,276h1v30h-1Z" style="fill: #000000; stroke: #000000; stroke-width: 1; opacity: 0.2;"></path><path d="M119.73272163683744,276h1v30h-1Z" style="fill: #000000; stroke: #000000; stroke-width: 1; opacity: 0.2;"></path><path d="M123.93003763368158,276h1v30h-1Z" style="fill: #000000; stroke: #000000; stroke-width: 1; opacity: 0.2;"></path><path d="M124.60076391272014,276h1v30h-1Z" style="fill: #000000; stroke: #000000; stroke-width: 1; opacity: 0.2;"></path><path d="M125.06836098909844,276h1v30h-1Z" style="fill: #000000; stroke: #000000; stroke-width: 1; opacity: 0.2;"></path><path d="M126.71811112700155,276h1v30h-1Z" style="fill: #000000; stroke: #000000; stroke-width: 1; opacity: 0.2;"></path><path d="M131.06588046794954,276h1v30h-1Z" style="fill: #000000; stroke: #000000; stroke-width: 1; opacity: 0.2;"></path><path d="M131.55853782334955,276h1v30h-1Z" style="fill: #000000; stroke: #000000; stroke-width: 1; opacity: 0.2;"></path><path d="M134.58372716202686,276h1v30h-1Z" style="fill: #000000; stroke: #000000; stroke-width: 1; opacity: 0.2;"></path><path d="M135.89867563899872,276h1v30h-1Z" style="fill: #000000; stroke: #000000; stroke-width: 1; opacity: 0.2;"></path><path d="M137.48973407633065,276h1v30h-1Z" style="fill: #000000; stroke: #000000; stroke-width: 1; opacity: 0.2;"></path><path d="M143.2311276490576,276h1v30h-1Z" style="fill: #000000; stroke: #000000; stroke-width: 1; opacity: 0.2;"></path><path d="M144.05930856643064,276h1v30h-1Z" style="fill: #000000; stroke: #000000; stroke-width: 1; opacity: 0.2;"></path><path d="M145.37662900396836,276h1v30h-1Z" style="fill: #000000; stroke: #000000; stroke-width: 1; opacity: 0.2;"></path><path d="M146.26769552320295,276h1v30h-1Z" style="fill: #000000; stroke: #000000; stroke-width: 1; opacity: 0.2;"></path><path d="M147.31900115621886,276h1v30h-1Z" style="fill: #000000; stroke: #000000; stroke-width: 1; opacity: 0.2;"></path><path d="M148.2762763138565,276h1v30h-1Z" style="fill: #000000; stroke: #000000; stroke-width: 1; opacity: 0.2;"></path><path d="M151.5711357972513,276h1v30h-1Z" style="fill: #000000; stroke: #000000; stroke-width: 1; opacity: 0.2;"></path><path d="M151.71511494947256,276h1v30h-1Z" style="fill: #000000; stroke: #000000; stroke-width: 1; opacity: 0.2;"></path><path d="M151.95242559352369,276h1v30h-1Z" style="fill: #000000; stroke: #000000; stroke-width: 1; opacity: 0.2;"></path><path d="M153.33241391673576,276h1v30h-1Z" style="fill: #000000; stroke: #000000; stroke-width: 1; opacity: 0.2;"></path><path d="M153.94278697693235,276h1v30h-1Z" style="fill: #000000; stroke: #000000; stroke-width: 1; opacity: 0.2;"></path><path d="M154.3111971419197,276h1v30h-1Z" style="fill: #000000; stroke: #000000; stroke-width: 1; opacity: 0.2;"></path><path d="M160.4369514550333,276h1v30h-1Z" style="fill: #000000; stroke: #000000; stroke-width: 1; opacity: 0.2;"></path><path d="M160.89339917087747,276h1v30h-1Z" style="fill: #000000; stroke: #000000; stroke-width: 1; opacity: 0.2;"></path><path d="M164.8938768169968,276h1v30h-1Z" style="fill: #000000; stroke: #000000; stroke-width: 1; opacity: 0.2;"></path><path d="M168.15260687206262,276h1v30h-1Z" style="fill: #000000; stroke: #000000; stroke-width: 1; opacity: 0.2;"></path><path d="M169.18997866909754,276h1v30h-1Z" style="fill: #000000; stroke: #000000; stroke-width: 1; opacity: 0.2;"></path><path d="M169.6291580536725,276h1v30h-1Z" style="fill: #000000; stroke: #000000; stroke-width: 1; opacity: 0.2;"></path><path d="M170.15289153010906,276h1v30h-1Z" style="fill: #000000; stroke: #000000; stroke-width: 1.1; opacity: 1;"></path><path d="M170.60763189269568,276h1v30h-1Z" style="fill: #000000; stroke: #000000; stroke-width: 1; opacity: 0.2;"></path><path d="M172.02470072021242,276h1v30h-1Z" style="fill: #000000; stroke: #000000; stroke-width: 1; opacity: 0.2;"></path><path d="M173.29161413103932,276h1v30h-1Z" style="fill: #000000; stroke: #000000; stroke-width: 1; opacity: 0.2;"></path><path d="M173.49489229740664,276h1v30h-1Z" style="fill: #000000; stroke: #000000; stroke-width: 1; opacity: 0.2;"></path><path d="M174.56296207683715,276h1v30h-1Z" style="fill: #000000; stroke: #000000; stroke-width: 1; opacity: 0.2;"></path><path d="M175.06978244315206,276h1v30h-1Z" style="fill: #000000; stroke: #000000; stroke-width: 1; opacity: 0.2;"></path><path d="M176.449323875243,276h1v30h-1Z" style="fill: #000000; stroke: #000000; stroke-width: 1; opacity: 0.2;"></path><path d="M177.22376327061704,276h1v30h-1Z" style="fill: #000000; stroke: #000000; stroke-width: 1; opacity: 0.2;"></path><path d="M177.69422503366906,276h1v30h-1Z" style="fill: #000000; stroke: #000000; stroke-width: 1; opacity: 0.2;"></path><path d="M180.14159561150993,276h1v30h-1Z" style="fill: #000000; stroke: #000000; stroke-width: 1; opacity: 0.2;"></path><path d="M180.39272550407512,276h1v30h-1Z" style="fill: #000000; stroke: #000000; stroke-width: 1; opacity: 0.2;"></path><path d="M180.4440721480149,276h1v30h-1Z" style="fill: #000000; stroke: #000000; stroke-width: 1; opacity: 0.2;"></path><path d="M180.51918423259988,276h1v30h-1Z" style="fill: #000000; stroke: #000000; stroke-width: 1; opacity: 0.2;"></path><path d="M181.5897291013165,276h1v30h-1Z" style="fill: #000000; stroke: #000000; stroke-width: 1; opacity: 0.2;"></path><path d="M182.14547831601857,276h1v30h-1Z" style="fill: #000000; stroke: #000000; stroke-width: 1; opacity: 0.2;"></path><path d="M182.38307542873707,276h1v30h-1Z" style="fill: #000000; stroke: #000000; stroke-width: 1; opacity: 0.2;"></path><path d="M185.7341858996571,276h1v30h-1Z" style="fill: #000000; stroke: #000000; stroke-width: 1; opacity: 0.2;"></path><path d="M186.48503173558635,276h1v30h-1Z" style="fill: #000000; stroke: #000000; stroke-width: 1; opacity: 0.2;"></path><path d="M187.40724312833763,276h1v30h-1Z" style="fill: #000000; stroke: #000000; stroke-width: 1; opacity: 0.2;"></path><path d="M188.2676460414167,276h1v30h-1Z" style="fill: #000000; stroke: #000000; stroke-width: 1; opacity: 0.2;"></path><path d="M189.43596839568076,276h1v30h-1Z" style="fill: #000000; stroke: #000000; stroke-width: 1; opacity: 0.2;"></path><path d="M195.43977872646735,276h1v30h-1Z" style="fill: #000000; stroke: #000000; stroke-width: 1; opacity: 0.2;"></path><path d="M195.75136496659474,276h1v30h-1Z" style="fill: #000000; stroke: #000000; stroke-width: 1; opacity: 0.2;"></path><path d="M197.77165659637046,276h1v30h-1Z" style="fill: #000000; stroke: #000000; stroke-width: 1; opacity: 0.2;"></path><path d="M200.06622478703503,276h1v30h-1Z" style="fill: #000000; stroke: #000000; stroke-width: 1; opacity: 0.2;"></path><path d="M202.4550755455051,276h1v30h-1Z" style="fill: #000000; stroke: #000000; stroke-width: 1; opacity: 0.2;"></path><path d="M208.48973282239436,276h1v30h-1Z" style="fill: #000000; stroke: #000000; stroke-width: 1; opacity: 0.2;"></path><path d="M210.04422639902285,276h1v30h-1Z" style="fill: #000000; stroke: #000000; stroke-width: 1; opacity: 0.2;"></path><path d="M210.76420237135608,276h1v30h-1Z" style="fill: #000000; stroke: #000000; stroke-width: 1; opacity: 0.2;"></path><path d="M215.34350714802096,276h1v30h-1Z" style="fill: #000000; stroke: #000000; stroke-width: 1; opacity: 0.2;"></path><path d="M221.1278824796005,276h1v30h-1Z" style="fill: #000000; stroke: #000000; stroke-width: 1; opacity: 0.2;"></path><path d="M222.27011326764028,276h1v30h-1Z" style="fill: #000000; stroke: #000000; stroke-width: 1; opacity: 0.2;"></path><path d="M227.57693387196366,276h1v30h-1Z" style="fill: #000000; stroke: #000000; stroke-width: 1; opacity: 0.2;"></path><path d="M227.71159706312196,276h1v30h-1Z" style="fill: #000000; stroke: #000000; stroke-width: 1; opacity: 0.2;"></path><path d="M229.6469793798885,276h1v30h-1Z" style="fill: #000000; stroke: #000000; stroke-width: 1; opacity: 0.2;"></path><path d="M233.51082293041802,276h1v30h-1Z" style="fill: #000000; stroke: #000000; stroke-width: 1; opacity: 0.2;"></path><path d="M236.72823274490207,276h1v30h-1Z" style="fill: #000000; stroke: #000000; stroke-width: 1; opacity: 0.2;"></path><path d="M237.29289686453276,276h1v30h-1Z" style="fill: #000000; stroke: #000000; stroke-width: 1; opacity: 0.2;"></path><path d="M238.83941515346163,276h1v30h-1Z" style="fill: #000000; stroke: #000000; stroke-width: 1; opacity: 0.2;"></path><path d="M242.240348255011,276h1v30h-1Z" style="fill: #000000; stroke: #000000; stroke-width: 1; opacity: 0.2;"></path><path d="M244.97951581743726,276h1v30h-1Z" style="fill: #000000; stroke: #000000; stroke-width: 1; opacity: 0.2;"></path><path d="M245.23813973034086,276h1v30h-1Z" style="fill: #000000; stroke: #000000; stroke-width: 1; opacity: 0.2;"></path><path d="M245.39911220391065,276h1v30h-1Z" style="fill: #000000; stroke: #000000; stroke-width: 1; opacity: 0.2;"></path><path d="M247.22756149652054,276h1v30h-1Z" style="fill: #000000; stroke: #000000; stroke-width: 1; opacity: 0.2;"></path><path d="M247.32771094263387,276h1v30h-1Z" style="fill: #000000; stroke: #000000; stroke-width: 1.1; opacity: 1;"></path><path d="M251.54285674933524,276h1v30h-1Z" style="fill: #000000; stroke: #000000; stroke-width: 1; opacity: 0.2;"></path><path d="M251.824421073122,276h1v30h-1Z" style="fill: #000000; stroke: #000000; stroke-width: 1; opacity: 0.2;"></path><path d="M252.47603416267353,276h1v30h-1Z" style="fill: #000000; stroke: #000000; stroke-width: 1; opacity: 0.2;"></path><path d="M254.2088487553679,276h1v30h-1Z" style="fill: #000000; stroke: #000000; stroke-width: 1; opacity: 0.2;"></path><path d="M256.4773826735416,276h1v30h-1Z" style="fill: #000000; stroke: #000000; stroke-width: 1; opacity: 0.2;"></path><path d="M256.99041368056515,276h1v30h-1Z" style="fill: #000000; stroke: #000000; stroke-width: 1; opacity: 0.2;"></path><path d="M257.0697540426806,276h1v30h-1Z" style="fill: #000000; stroke: #000000; stroke-width: 1; opacity: 0.2;"></path><path d="M263.7020995471752,276h1v30h-1Z" style="fill: #000000; stroke: #000000; stroke-width: 1; opacity: 0.2;"></path><path d="M265.00326315187317,276h1v30h-1Z" style="fill: #000000; stroke: #000000; stroke-width: 1; opacity: 0.2;"></path><path d="M265.37509948212227,276h1v30h-1Z" style="fill: #000000; stroke: #000000; stroke-width: 1; opacity: 0.2;"></path><path d="M266.6482579098979,276h1v30h-1Z" style="fill: #000000; stroke: #000000; stroke-width: 1; opacity: 0.2;"></path><path d="M267.84519275465914,276h1v30h-1Z" style="fill: #000000; stroke: #000000; stroke-width: 1; opacity: 0.2;"></path><path d="M268.4355473843797,276h1v30h-1Z" style="fill: #000000; stroke: #000000; stroke-width: 1; opacity: 0.2;"></path><path d="M268.71314698181004,276h1v30h-1Z" style="fill: #000000; stroke: #000000; stroke-width: 1; opacity: 0.2;"></path><path d="M269.3634537742384,276h1v30h-1Z" style="fill: #000000; stroke: #000000; stroke-width: 1; opacity: 0.2;"></path><path d="M272.9302866104364,276h1v30h-1Z" style="fill: #000000; stroke: #000000; stroke-width: 1; opacity: 0.2;"></path><path d="M273.1009761012034,276h1v30h-1Z" style="fill: #000000; stroke: #000000; stroke-width: 1; opacity: 0.2;"></path><path d="M278.677627272698,276h1v30h-1Z" style="fill: #000000; stroke: #000000; stroke-width: 1; opacity: 0.2;"></path><path d="M279.7539702672422,276h1v30h-1Z" style="fill: #000000; stroke: #000000; stroke-width: 1; opacity: 0.2;"></path><path d="M283.33590573158403,276h1v30h-1Z" style="fill: #000000; stroke: #000000; stroke-width: 1; opacity: 0.2;"></path><path d="M285.68469671160875,276h1v30h-1Z" style="fill: #000000; stroke: #000000; stroke-width: 1; opacity: 0.2;"></path><path d="M285.77015604445927,276h1v30h-1Z" style="fill: #000000; stroke: #000000; stroke-width: 1; opacity: 0.2;"></path><path d="M289.17154749587644,276h1v30h-1Z" style="fill: #000000; stroke: #000000; stroke-width: 1; opacity: 0.2;"></path><path d="M289.53201674940425,276h1v30h-1Z" style="fill: #000000; stroke: #000000; stroke-width: 1; opacity: 0.2;"></path><path d="M296.9698892290561,276h1v30h-1Z" style="fill: #000000; stroke: #000000; stroke-width: 1; opacity: 0.2;"></path><path d="M297.8556732660643,276h1v30h-1Z" style="fill: #000000; stroke: #000000; stroke-width: 1; opacity: 0.2;"></path><path d="M299.61046573491944,276h1v30h-1Z" style="fill: #000000; stroke: #000000; stroke-width: 1; opacity: 0.2;"></path><path d="M303.40539638282587,276h1v30h-1Z" style="fill: #000000; stroke: #000000; stroke-width: 1; opacity: 0.2;"></path><path d="M303.48640972195875,276h1v30h-1Z" style="fill: #000000; stroke: #000000; stroke-width: 1; opacity: 0.2;"></path><path d="M306.80126471833614,276h1v30h-1Z" style="fill: #000000; stroke: #000000; stroke-width: 1; opacity: 0.2;"></path><path d="M307.6895696796172,276h1v30h-1Z" style="fill: #000000; stroke: #000000; stroke-width: 1; opacity: 0.2;"></path><path d="M313.0099803575207,276h1v30h-1Z" style="fill: #000000; stroke: #000000; stroke-width: 1; opacity: 0.2;"></path><path d="M315.3517127495814,276h1v30h-1Z" style="fill: #000000; stroke: #000000; stroke-width: 1; opacity: 0.2;"></path><path d="M320.13026221377703,276h1v30h-1Z" style="fill: #000000; stroke: #000000; stroke-width: 1; opacity: 0.2;"></path><path d="M324.5930086190615,276h1v30h-1Z" style="fill: #000000; stroke: #000000; stroke-width: 1; opacity: 0.2;"></path><path d="M328.52287746804694,276h1v30h-1Z" style="fill: #000000; stroke: #000000; stroke-width: 1; opacity: 0.2;"></path><path d="M331.23216061909284,276h1v30h-1Z" style="fill: #000000; stroke: #000000; stroke-width: 1; opacity: 0.2;"></path><path d="M335.7925584637112,276h1v30h-1Z" style="fill: #000000; stroke: #000000; stroke-width: 1; opacity: 0.2;"></path><path d="M336.8411483737604,276h1v30h-1Z" style="fill: #000000; stroke: #000000; stroke-width: 1; opacity: 0.2;"></path><path d="M342.6412909407921,276h1v30h-1Z" style="fill: #000000; stroke: #000000; stroke-width: 1; opacity: 0.2;"></path><path d="M343.0660208457848,276h1v30h-1Z" style="fill: #000000; stroke: #000000; stroke-width: 1; opacity: 0.2;"></path><path d="M348.15950250414267,276h1v30h-1Z" style="fill: #000000; stroke: #000000; stroke-width: 1; opacity: 0.2;"></path><path d="M348.7767851885963,276h1v30h-1Z" style="fill: #000000; stroke: #000000; stroke-width: 1; opacity: 0.2;"></path><path d="M349.7187629193963,276h1v30h-1Z" style="fill: #000000; stroke: #000000; stroke-width: 1; opacity: 0.2;"></path><path d="M355.17147628663895,276h1v30h-1Z" style="fill: #000000; stroke: #000000; stroke-width: 1.1; opacity: 1;"></path><path d="M357.22726711367545,276h1v30h-1Z" style="fill: #000000; stroke: #000000; stroke-width: 1; opacity: 0.2;"></path><path d="M357.64216541400395,276h1v30h-1Z" style="fill: #000000; stroke: #000000; stroke-width: 1; opacity: 0.2;"></path><path d="M365.0342945768498,276h1v30h-1Z" style="fill: #000000; stroke: #000000; stroke-width: 1; opacity: 0.2;"></path><path d="M365.5890812568295,276h1v30h-1Z" style="fill: #000000; stroke: #000000; stroke-width: 1; opacity: 0.2;"></path><path d="M385.4707401322487,276h1v30h-1Z" style="fill: #000000; stroke: #000000; stroke-width: 1; opacity: 0.2;"></path><path d="M388.23747743922286,276h1v30h-1Z" style="fill: #000000; stroke: #000000; stroke-width: 1; opacity: 0.2;"></path><path d="M389.88799531315453,276h1v30h-1Z" style="fill: #000000; stroke: #000000; stroke-width: 1; opacity: 0.2;"></path><path d="M396.7904693122344,276h1v30h-1Z" style="fill: #000000; stroke: #000000; stroke-width: 1; opacity: 0.2;"></path><path d="M398.8750445109684,276h1v30h-1Z" style="fill: #000000; stroke: #000000; stroke-width: 1; opacity: 0.2;"></path><path d="M401.77745337881004,276h1v30h-1Z" style="fill: #000000; stroke: #000000; stroke-width: 1; opacity: 0.2;"></path><path d="M406.93393522649643,276h1v30h-1Z" style="fill: #000000; stroke: #000000; stroke-width: 1; opacity: 0.2;"></path><path d="M411.2365571054666,276h1v30h-1Z" style="fill: #000000; stroke: #000000; stroke-width: 1; opacity: 0.2;"></path><path d="M413.8779357235986,276h1v30h-1Z" style="fill: #000000; stroke: #000000; stroke-width: 1; opacity: 0.2;"></path><path d="M433.553107983576,276h1v30h-1Z" style="fill: #000000; stroke: #000000; stroke-width: 1; opacity: 0.2;"></path><path d="M439.1407137169108,276h1v30h-1Z" style="fill: #000000; stroke: #000000; stroke-width: 1; opacity: 0.2;"></path><path d="M446.38053321868824,276h1v30h-1Z" style="fill: #000000; stroke: #000000; stroke-width: 1; opacity: 0.2;"></path><path d="M451.012983662524,276h1v30h-1Z" style="fill: #000000; stroke: #000000; stroke-width: 1; opacity: 0.2;"></path><path d="M458.75455876457715,276h1v30h-1Z" style="fill: #000000; stroke: #000000; stroke-width: 1; opacity: 0.2;"></path><path d="M461.2917544577593,276h1v30h-1Z" style="fill: #000000; stroke: #000000; stroke-width: 1; opacity: 0.2;"></path><path d="M461.33007250670704,276h1v30h-1Z" style="fill: #000000; stroke: #000000; stroke-width: 1; opacity: 0.2;"></path><path d="M464.84268255354476,276h1v30h-1Z" style="fill: #000000; stroke: #000000; stroke-width: 1; opacity: 0.2;"></path><path d="M468.846093638818,276h1v30h-1Z" style="fill: #000000; stroke: #000000; stroke-width: 1; opacity: 0.2;"></path><path d="M493.1384532920335,276h1v30h-1Z" style="fill: #000000; stroke: #000000; stroke-width: 1; opacity: 0.2;"></path><path d="M494.8526817975888,276h1v30h-1Z" style="fill: #000000; stroke: #000000; stroke-width: 1; opacity: 0.2;"></path><path d="M518.4317115515543,276h1v30h-1Z" style="fill: #000000; stroke: #000000; stroke-width: 1; opacity: 0.2;"></path><path d="M561.0417028263104,276h1v30h-1Z" style="fill: #000000; stroke: #000000; stroke-width: 1; opacity: 0.2;"></path><path d="M563.3408774331463,276h1v30h-1Z" style="fill: #000000; stroke: #000000; stroke-width: 1; opacity: 0.2;"></path><path d="M579.1638940642229,276h1v30h-1Z" style="fill: #000000; stroke: #000000; stroke-width: 1; opacity: 0.2;"></path><path d="M602.5368955526142,276h1v30h-1Z" style="fill: #000000; stroke: #000000; stroke-width: 1; opacity: 0.2;"></path><path d="M610.3936998114311,276h1v30h-1Z" style="fill: #000000; stroke: #000000; stroke-width: 1; opacity: 0.2;"></path><path d="M624.5740363513155,276h1v30h-1Z" style="fill: #000000; stroke: #000000; stroke-width: 1; opacity: 0.2;"></path><path d="M684.591651420091,276h1v30h-1Z" style="fill: #000000; stroke: #000000; stroke-width: 1; opacity: 0.2;"></path><path d="M700.6644228941295,276h1v30h-1Z" style="fill: #000000; stroke: #000000; stroke-width: 1; opacity: 0.2;"></path><path d="M703.0995899067403,276h1v30h-1Z" style="fill: #000000; stroke: #000000; stroke-width: 1; opacity: 0.2;"></path><path d="M805.269350567331,276h1v30h-1Z" style="fill: #000000; stroke: #000000; stroke-width: 1; opacity: 0.2;"></path><path d="M807.390960435383,276h1v30h-1Z" style="fill: #000000; stroke: #000000; stroke-width: 1; opacity: 0.2;"></path><path d="M820.567144084901,276h1v30h-1Z" style="fill: #000000; stroke: #000000; stroke-width: 1; opacity: 0.2;"></path><path d="M824.2477851932724,276h1v30h-1Z" style="fill: #000000; stroke: #000000; stroke-width: 1; opacity: 0.2;"></path><path d="M911.8321197008213,276h1v30h-1Z" style="fill: #000000; stroke: #000000; stroke-width: 1; opacity: 0.2;"></path><path d="M1059.37906729301,276h1v30h-1Z" style="fill: #000000; stroke: #000000; stroke-width: 1; opacity: 0.2;"></path><path d="M1320.5841316421372,276h1v30h-1Z" style="fill: #000000; stroke: #000000; stroke-width: 1; opacity: 0.2;"></path><path d="M1368.3504214246327,276h1v30h-1Z" style="fill: #000000; stroke: #000000; stroke-width: 1; opacity: 0.2;"></path><path d="M1375.8878933305564,276h1v30h-1Z" style="fill: #000000; stroke: #000000; stroke-width: 1; opacity: 0.2;"></path><path d="M1412.96674757569,276h1v30h-1Z" style="fill: #000000; stroke: #000000; stroke-width: 1; opacity: 0.2;"></path><path d="M1677.163186501998,276h1v30h-1Z" style="fill: #000000; stroke: #000000; stroke-width: 1.1; opacity: 1;"></path></g><g class="mark-group role-scope layer_2_pathgroup"><g transform="translate(0,0)"><path class="background" d="M0,0h1679.25v306h-1679.25Z" style="fill: none;"></path><g><g class="mark-line role-mark layer_2_marks"><path d="M129.17307692307693,-107.10000000000002L129.17307692307693,153L170.65289153010906,279.99" style="fill: none; stroke: #000000; stroke-width: 2; opacity: 0.3;"></path></g></g><path class="foreground" d="" style="display: none; fill: none;"></path></g><g transform="translate(0,0)"><path class="background" d="M0,0h1679.25v306h-1679.25Z" style="fill: none;"></path><g><g class="mark-line role-mark layer_2_marks"><path d="M581.2788461538462,-107.10000000000002L581.2788461538462,153L247.82771094263387,279.99" style="fill: none; stroke: #000000; stroke-width: 2; opacity: 0.3;"></path></g></g><path class="foreground" d="" style="display: none; fill: none;"></path></g><g transform="translate(0,0)"><path class="background" d="M0,0h1679.25v306h-1679.25Z" style="fill: none;"></path><g><g class="mark-line role-mark layer_2_marks"><path d="M1014.0086538461538,-107.10000000000002L1014.0086538461538,153L355.67147628663895,279.99" style="fill: none; stroke: #000000; stroke-width: 2; opacity: 0.3;"></path></g></g><path class="foreground" d="" style="display: none; fill: none;"></path></g><g transform="translate(0,0)"><path class="background" d="M0,0h1679.25v306h-1679.25Z" style="fill: none;"></path><g><g class="mark-line role-mark layer_2_marks"><path d="M1453.1971153846152,-107.10000000000002L1453.1971153846152,153L1677.663186501998,279.99" style="fill: none; stroke: #000000; stroke-width: 2; opacity: 0.3;"></path></g></g><path class="foreground" d="" style="display: none; fill: none;"></path></g></g><g class="mark-text role-mark layer_3_marks"><text text-anchor="start" transform="translate(142.0903846153846,-36.60000000000002)" style="font-family: Arial; font-size: 30px; fill: black;">25th percentile</text><text text-anchor="start" transform="translate(594.1961538461538,-36.60000000000002)" style="font-family: Arial; font-size: 30px; fill: black;">50th</text><text text-anchor="start" transform="translate(1026.9259615384615,-36.60000000000002)" style="font-family: Arial; font-size: 30px; fill: black;">75th</text><text text-anchor="start" transform="translate(1466.114423076923,-36.60000000000002)" style="font-family: Arial; font-size: 30px; fill: black;">100th</text></g></g><path class="foreground" d="" style="display: none; fill: none;"></path></g></g></g></svg>