<svg class="marks" width="1781.25" height="600" viewBox="0 0 1781.25 600" version="1.1" xmlns="http://www.w3.org/2000/svg" xmlns:xlink="http://www.w3.org/1999/xlink"><rect width="1781.25" height="600" style="fill: white;"></rect><g transform="translate(96,218)"><g class="mark-group role-frame root"><g transform="translate(0,0)"><path class="background" d="M0.5,0.5h1679.25v306h-1679.25Z" style="fill: none; stroke: #ddd; stroke-opacity: 0;"></path><g><g class="mark-group role-axis"><g transform="translate(0.5,306.5)"><path class="background" d="M0,0h0v0h0Z" style="pointer-events: none; fill: none;"></path><g><g class="mark-rule role-axis-tick" style="pointer-events: none;"><line transform="translate(0,0)" x2="0" y2="5" style="fill: none; stroke: #888; stroke-width: 1; opacity: 1;"></line><line transform="translate(323,0)" x2="0" y2="5" style="fill: none; stroke: #888; stroke-width: 1; opacity: 1;"></line><line transform="translate(646,0)" x2="0" y2="5" style="fill: none; stroke: #888; stroke-width: 1; opacity: 1;"></line><line transform="translate(969,0)" x2="0" y2="5" style="fill: none; stroke: #888; stroke-width: 1; opacity: 1;"></line><line transform="translate(1292,0)" x2="0" y2="5" style="fill: none; stroke: #888; stroke-width: 1; opacity: 1;"></line><line transform="translate(1615,0)" x2="0" y2="5" style="fill: none; stroke: #888; stroke-width: 1; opacity: 1;"></line></g><g class="mark-text role-axis-label" style="pointer-events: none;"><text text-anchor="start" transform="translate(0,31)" style="font-family: Arial; font-size: 30px; fill: #000; opacity: 1;">0.00</text><text text-anchor="middle" transform="translate(322.9326923076923,31)" style="font-family: Arial; font-size: 30px; fill: #000; opacity: 1;">0.05</text><text text-anchor="middle" transform="translate(645.8653846153846,31)" style="font-family: Arial; font-size: 30px; fill: #000; opacity: 1;">0.10</text><text text-anchor="middle" transform="translate(968.7980769230768,31)" style="font-family: Arial; font-size: 30px; fill: #000; opacity: 1;">0.15</text><text text-anchor="middle" transform="translate(1291.7307692307693,31)" style="font-family: Arial; font-size: 30px; fill: #000; opacity: 1;">0.20</text><text text-anchor="middle" transform="translate(1614.6634615384614,31)" style="font-family: Arial; font-size: 30px; fill: #000; opacity: 1;">0.25</text></g><g class="mark-rule role-axis-domain" style="pointer-events: none;"><line transform="translate(0,0)" x2="1679.25" y2="0" style="fill: none; stroke: #888; stroke-width: 1; opacity: 1;"></line></g><g class="mark-text role-axis-title" style="pointer-events: none;"><text text-anchor="middle" transform="translate(839.625,65)" style="font-family: Arial; font-size: 30px; font-weight: bold; fill: #000; opacity: 1;">Mean Absolute Error (cm)</text></g></g><path class="foreground" d="" style="pointer-events: none; display: none; fill: none;"></path></g></g><g class="mark-group role-axis"><g transform="translate(0.5,0.5)"><path class="background" d="M0,0h0v0h0Z" style="pointer-events: none; fill: none;"></path><g><g class="mark-rule role-axis-tick" style="pointer-events: none;"><line transform="translate(0,306)" x2="-5" y2="0" style="fill: none; stroke: #888; stroke-width: 1; opacity: 1;"></line><line transform="translate(0,153)" x2="-5" y2="0" style="fill: none; stroke: #888; stroke-width: 1; opacity: 1;"></line><line transform="translate(0,0)" x2="-5" y2="0" style="fill: none; stroke: #888; stroke-width: 1; opacity: 1;"></line></g><g class="mark-text role-axis-label" style="pointer-events: none;"><text text-anchor="end" transform="translate(-7,315)" style="font-family: Arial; font-size: 30px; fill: #000; opacity: 1;">0</text><text text-anchor="end" transform="translate(-7,162)" style="font-family: Arial; font-size: 30px; fill: #000; opacity: 1;">10</text><text text-anchor="end" transform="translate(-7,9)" style="font-family: Arial; font-size: 30px; fill: #000; opacity: 1;">20</text></g><g class="mark-rule role-axis-domain" style="pointer-events: none;"><line transform="translate(0,306)" x2="0" y2="-306" style="fill: none; stroke: #888; stroke-width: 1; opacity: 1;"></line></g><g class="mark-text role-axis-title" style="pointer-events: none;"><text text-anchor="middle" transform="translate(-60.369140625,153) rotate(-90) translate(0,-6)" style="font-family: Arial; font-size: 30px; font-weight: bold; fill: #000; opacity: 1;">Density</text></g></g><path class="foreground" d="" style="pointer-events: none; display: none; fill: none;"></path></g></g><g class="mark-area role-mark layer_0_marks"><path d="M0,292.38554795566426L1.6776628198221042,291.45281289774255L3.3553256396442084,290.4694451116854L5.032988459466313,289.43370457945326L6.710651279288417,288.3438615228346L8.38831409911052,287.19820183300413L10.065976918932625,285.99503270101235L11.743639738754728,284.73268843215925L13.421302558576834,283.4095364255154L15.098965378398933,282.023983298222L16.77662819822104,280.57448113265787L18.454291018043143,279.05953382311134L20.13195383786525,277.4777034972544L21.809616657687354,275.82761698650825L23.487279477509457,274.10797231830776L25.16494229733156,272.31754520235353L26.842605117153667,270.45519548217146L28.52026793697577,268.51987352270896L30.197930756797867,266.51062650427906L31.87559357661998,264.42660459293546L33.55325639644208,262.2670669573164L35.23091921626418,260.0313876021506L36.90858203608629,257.7190609889557L38.58624485590839,255.32970741500134L40.2639076757305,252.8630781223282L41.941570495552604,250.3190601095253L43.61923331537471,247.6976806200519L45.29689613519681,244.99911128214424L46.974558955018914,242.2236718767596L48.652221774841024,239.37183371156647L50.32988459466312,236.4442225806799L52.007547414485224,233.4416212916483L53.685210234307334,230.36497174310614L55.36287305412944,227.2153765385002L57.04053587395154,223.99410012335437L58.718198693773644,220.70256943565076L60.39586151359573,217.3423740610371L62.07352433341786,213.91526588672676L63.75118715323996,210.42315825010073L65.42884997306206,206.86812458013958L67.10651279288416,203.25239653190388L68.78417561270626,199.5783616163032L70.46183843252837,195.8485603293551L72.13950125235046,192.06568278701653L73.81716407217257,188.23256487345634L75.49482689199468,184.35218391231956L77.17248971181678,180.4276538721224L78.8501525316389,176.46222011837466L80.527815351461,172.4592537263848L82.2054781712831,168.4222453699363L83.88314099110521,164.35479880215402L85.56080381092731,160.2606239458829L87.23846663074941,156.14352961182564L88.91612945057152,152.00741586348752L90.59379227039362,147.85626604871234L92.27145509021572,143.6941385182409L93.94911791003783,139.52515805230877L95.62678072985993,135.3535070168392L97.30444354968205,131.18341627127617L98.98210636950414,127.0191558505774L100.65976918932624,122.86502544434694L102.33743200914834,118.72534469654204L104.01509482897045,114.6044433496672L105.69275764879256,110.50665125786762L107.37042046861467,106.43628829385779L109.04808328843677,102.39765417520803L110.72574610825887,98.39501823612459L112.40340892808098,94.43260917153601L114.08107174790308,90.51460478102379L115.75873456772518,86.64512174091857L117.43639738754729,82.82820543368985L119.11406020736936,79.0678198646402L120.79172302719147,75.36783769678675L122.46938584701358,71.73203043572879L124.14704866683572,68.16405879719845L125.82471148665782,64.66746329087732L127.50237430647992,61.24565505490934L129.180037126302,57.90190697630885L130.85769994612411,54.63934513317057L132.53536276594622,51.46094059514348L134.21302558576832,48.36950161907731L135.89068840559042,45.367666277008816L137.56835122541253,42.45789555370944L139.24601404523463,39.642466950864645L140.92367686505673,36.92346863452204L142.60133968487884,34.30279416177151L144.2790025047009,31.782137821596518L145.95666532452304,29.362990623549678L147.63432814434515,27.0466369662227L149.31199096416725,24.834152015492908L150.98965378398935,22.72639982015108L152.66731660381146,20.72403218978681L154.34497942363356,18.827488356705445L156.02264224345566,17.036995440191994L157.7003050632778,15.352569727633453L159.3779678830999,13.774018782854428L161.055630702922,12.30094438757794L162.7332935227441,10.932746317171134L164.4109563425662,9.668626946839474L166.0886191623883,8.507596679226102L167.76628198221042,7.44848017896351L169.44394480203255,6.489923394232154L171.12160762185462,5.630401339761915L172.79927044167673,4.868226610095006L174.47693326149883,4.201558586337413L176.15459608132093,3.628413294130206L177.83225890114304,3.1466738651971076L179.50992172096514,2.7541015497102372L181.18758454078724,2.4483472218125244L182.86524736060935,2.226963316111177L184.54291018043145,2.0874161287889086L186.22057300025355,2.027098413260645L187.89823582007566,2.0433421970817776L189.57589863989776,2.133431744130132L191.25356145971986,2.2946165839706874L192.931224279542,2.5241245288400562L194.6088870993641,2.819174597834503L196.2865499191862,3.1769897677378602L197.96421273900827,3.594809470428079L199.64187555883038,4.069901758044159L201.31953837865248,4.599575058991311L202.99720119847458,5.1811894504955385L204.6748640182967,5.812167376679384L206.3525268381188,6.490003745097011L208.0301896579409,7.2122753392090635L209.707852477763,7.976649489433413L211.38551529758513,8.780891951103145L213.06317811740723,9.622873943816533L214.74084093722934,10.500578313298972L216.41850375705144,11.41210478383704L218.09616657687354,12.355674276644622L219.77382939669565,13.329632276996163L221.45149221651775,14.332451240629847L223.12915503633985,15.362732037641011L224.80681785616196,16.419204439819833L226.48448067598406,17.500726665023475L228.16214349580616,18.60628399967625L229.83980631562827,19.73498652773552L231.51746913545037,20.886066001432432L233.19513195527247,22.058871895655717L234.87279477509458,23.252866694006016L236.55045759491662,24.467620460187074L238.22812041473873,25.70280475348781L239.90578323456083,26.958185951607376L241.58344605438293,28.233618047932467L243.26110887420504,29.52903499355153L244.93877169402717,30.844442656780828L246.61643451384933,32.17991047475151L248.29409733367143,33.53556287265093L249.97176015349353,34.91157052654269L251.64942297331564,36.30814154530347L253.32708579313774,37.725512646116606L255.00474861295984,39.16394039621216L256.6824114327819,40.62369259111665L258.360074252604,42.105039836667274L260.0377370724261,43.6082473984505L261.71539989224823,45.133567378223404L263.39306271207033,46.68123127231344L265.07072553189244,48.25144296201239L266.74838835171454,49.84437218066765L268.42605117153664,51.460148496579045L270.10371399135875,53.098855844995754L271.78137681118085,54.760527636547494L273.45903963100295,56.445142463409205L275.13670245082506,58.15262041843501L276.81436527064716,59.882820036496504L278.49202809046926,61.63553586135882L280.16969091029137,63.41049663570749L281.84735373011347,65.20736410643019L283.5250165499356,67.02573243204232L285.2026793697577,68.86512817423707L286.8803421895798,70.72501085100906L288.5580050094018,72.60477402466304L290.235667829224,74.5037468943185L291.9133306490461,76.42119635926485L293.5909934688682,78.35632951675687L295.2686562886903,80.30829655553649L296.9463191085124,82.27619400457885L298.6239819283345,84.25906829524611L300.3016447481566,86.25591959421087L301.9793075679787,88.26570586416027L303.6569703878008,90.28734710940645L305.3346332076229,92.3197297640651L307.012296027445,94.36171118142872L308.6899588472671,96.41212418449219L310.3676216670892,98.46978163927969L312.0452844869113,100.53348101461896L313.72294730673343,102.60200889428556L315.4006101265556,104.67414540995046L317.0782729463777,106.74866856607397L318.7559357661998,108.82435843074921L320.4335985860219,110.9000011694662L322.111261405844,112.97439290182793L323.7889242256661,115.04634336431317L325.4665870454882,117.1146793652641L327.1442498653103,119.1782480212992L328.8219126851324,121.23591976731082L330.4995755049545,123.286591135043L332.1772383247766,125.32918729795607L333.8549011445987,127.36266438262648L335.53256396442083,129.386011549278L337.210226784243,131.3982528462019L338.8878896040651,133.39844884474107L340.5655524238872,135.38569806321544L342.24321524370924,137.35913818961535L343.92087806353135,139.31794711409762L345.59854088335345,141.26134378327413L347.27620370317555,143.1885888889964L348.95386652299766,145.09898540480398L350.63152934281976,146.99187898343828L352.30919216264186,148.86665822883302L353.98685498246397,150.72275485578626L355.66451780228607,152.5596437501186L357.3421806221082,154.3768429415409L359.0198434419303,156.17391350071028L360.6975062617524,157.95045937106363L362.3751690815745,159.70612714501473L364.0528319013966,161.44060579298406L365.7304947212187,163.1536263525442L367.4081575410408,164.84496158371792L369.0858203608629,166.5144255951788L370.763483180685,168.16187344481122L372.4411460005071,169.78720071679035L374.1188088203292,171.39034307608114L375.7964716401513,172.97127580002967L377.4741344599734,174.5300132855655L379.1517972797955,176.06660852944745L380.8294600996176,177.58115257800173L382.5071229194397,179.07377394191897L384.1847857392619,180.54463797090713L385.862448559084,181.99394618236755L387.5401113789061,183.42193553775277L389.2177741987282,184.82887765990546L390.8954370185503,186.21507798446123L392.5730998383724,187.58087483832645L394.25076265819445,188.9266384383224L395.92842547801655,190.25276980331134L397.60608829783865,191.55969957348307L399.28375111766076,192.847886730995L400.96141393748286,194.11781721678994L402.63907675730496,195.37000243918362L404.316739577127,196.60497767069148L405.99440239694917,197.8233003305503L407.6720652167712,199.02554815146723L409.3497280365934,200.2123172302935L411.0273908564154,201.38421996354208L412.7050536762376,202.54188286996174L414.38271649605963,203.68594430369473L416.0603793158818,204.8170520628991L417.73804213570384,205.93586090007375L419.415704955526,207.04302994167583L421.0933677753482,208.13922002595197L422.77103059517026,209.22509096920004L424.4486934149924,210.3012987719195L426.12635623481447,211.36849277748658L427.8040190546366,212.42731279708843L429.4816818744587,213.47838621564915L431.15934469428083,214.52232509438429L432.8370075141029,215.5597232863939L434.51467033392504,216.59115358236104L436.1923331537471,217.61716490393397L437.86999597356925,218.63827956274L439.5476587933913,219.65499060319922L441.22532161321345,220.6677592473625L442.9029844330355,221.67701245989954L444.58064725285766,222.6831406511005L446.2583100726797,223.6864955353229L447.93597289250187,224.6873881617316L449.6136357123239,225.68608713342124L451.2912985321461,226.68281703011255L452.9689613519681,227.67775704854927L454.6466241717903,228.67103987352792L456.3242869916123,229.66275079115405L458.00194981143443,230.65292705446168L459.67961263125653,231.64155750995857L461.35727545107864,232.62858249198746L463.03493827090074,233.61389399003266L464.71260109072284,234.59733609226768L466.39026391054495,235.57870570674933L468.06792673036705,236.55775355973282L469.74558955018915,237.53418546862164L471.42325237001126,238.50766388510692L473.10091518983324,239.47780970208748L474.7785780096554,240.44420431603763L476.45624082947745,241.40639193459631L478.1339036492996,242.36388211732762L479.81156646912166,243.31615253584255L481.4892292889438,244.26265193781518L483.16689210876586,245.2028032978622L484.844554928588,246.136007136819L486.52221774841007,247.06164498963352L488.19988056823223,247.97908300093673L489.87754338805433,248.88767562633035L491.5552062078765,249.78676941658463L493.23286902769865,250.67570686125197L494.9105318475207,251.5538302676939L496.58819466734286,252.42048565118867L498.2658574871649,253.27502661163396L499.94352030698707,254.11681817239398L501.6211831268091,254.94524055705077L503.2988459466313,255.75969288021366L504.9765087664533,256.55959672910745L506.6541715862755,257.34439961339876L508.3318344060975,258.11357826162055L510.0094972259197,258.8666417436151L511.68716004574173,259.6031343996165L513.3648228655638,260.32263855793866L515.0424856853859,261.02477702469815L516.720148505208,261.70921533058305L518.3978113250301,262.37566372135575L520.0754741448523,263.02387888054864L521.7531369646744,263.65366537464473L523.4307997844965,264.2648768129395L525.1084626043186,264.8574167162141L526.7861254241407,265.43123909032585L528.4637882439628,265.9863487028008L530.1414510637849,266.5228010624997L531.819113883607,267.0407021043941L533.4967767034291,267.54020758342887L535.1744395232512,268.02152218334464L536.8521023430733,268.484898348172L538.5297651628954,268.9306348458839L540.2074279827175,269.3590750753834L541.8850908025396,269.7706051296072L543.5627536223617,270.1656516290267L545.2404164421838,270.54467934121914L546.9180792620059,270.908188603456L548.595742081828,271.25671256640305L550.2734049016501,271.5908142780451L551.9510677214722,271.91108362782523L553.6287305412943,272.21813417173007L555.3063933611164,272.51259985964475L556.9840561809385,272.79513168674873L558.6617190007607,273.0663942910225L560.3393818205827,273.32706251908587L562.017044640405,273.57781798258765L563.6947074602269,273.8193456272256L565.3723702800492,274.0523303361802L567.0500330998711,274.2774535893188L568.7276959196934,274.4953901989534L570.4053587395153,274.7068051422339L572.0830215593376,274.9123505094288L573.7606843791596,275.11266258638875L575.4383471989818,275.3083590884246L577.1160100188036,275.5000365616515L578.7936728386259,275.68826796657584L580.471335658448,275.8736004573323L582.1489984782702,276.0565533685285L583.8266612980922,276.2376164201257L585.5043241179144,276.4172481491996L587.1819869377364,276.5958745757789L588.8596497575586,276.7738881082729L590.5373125773806,276.95164669228336L592.2149753972028,277.12947320485296L593.8926382170248,277.3076550944527L595.570301036847,277.4864442652632L597.247963856669,277.66605720256564L598.9256266764912,277.8466753343497L600.6032894963132,278.02844562256655L602.2809523161354,278.2114813758309L603.9586151359574,278.3958632738035L605.6362779557796,278.5816405919911L607.3139407756016,278.76883261427935L608.9916035954238,278.9574302191953L610.6692664152458,279.1473976246677L612.346929235068,279.3386742749479L614.02459205489,279.5311768523629L615.7022548747123,279.7248013957128L617.3799176945342,279.91942550640493L619.0575805143565,280.11491062283784L620.7352433341784,280.3111043431226L622.4129061540007,280.50784277595756L624.0905689738227,280.7049528993582L625.7682317936449,280.9022549069973L627.4458946134669,281.099564522119L629.1235574332891,281.29669525937135L630.8012202531112,281.4934606154385L632.4788830729333,281.6896761700553L634.1565458927554,281.88516157984196L635.8342087125774,282.0797424484051L637.5118715323996,282.27325205730284L639.1895343522216,282.4655329437615L640.8671971720438,282.656438312448L642.5448599918658,282.84583327013496L644.222522811688,283.0335958737359L645.90018563151,283.21961798391754L647.5778484513322,283.4038059183069L649.2555112711542,283.58608090018186L650.9331740909764,283.76637930045644L652.6108369107984,283.94465267271966L654.2884997306206,284.12086758305367L655.9661625504426,284.29500523831666L657.6438253702648,284.467060918515L659.3214881900868,284.6370432207879L660.999151009909,284.80497312437194L662.676813829731,284.9708828876762L664.3544766495532,285.13481479027774L666.0321394693752,285.29681973421054L667.7098022891975,285.456955720365L669.3874651090194,285.61528621711716L671.0651279288417,285.77187843945933L672.7427907486638,285.9268015578861L674.420453568486,286.0801248571056L676.098116388308,286.23191586526394L677.7757792081302,286.38223847481L679.4534420279522,286.5311510763563L681.1311048477744,286.6787047269268L682.8087676675963,286.82494137380604L684.4864304874185,286.96989215482904L686.1640933072405,287.11357579536735L687.8417561270627,287.25599712148875L689.5194189468847,287.39714570779273L691.1970817667069,287.53699467726597L692.8747445865289,287.67549966916545L694.5524074063511,287.81259798943796L696.2300702261731,287.94820795653203L697.9077330459953,288.0822284536678L699.5853958658173,288.214538696724L701.2630586856395,288.34499822488146L702.9407215054616,288.4734471190667L704.6183843252837,288.59970645107063L706.2960471451058,288.7235789640054L707.9737099649279,288.84484998252344L709.65137278475,288.9632885489799L711.3290356045721,289.0786487794923L713.0066984243942,289.1906714316615L714.6843612442163,289.29908567358615L716.3620240640385,289.4036110417506L718.0396868838606,289.5039595734079L719.7173497036827,289.59983809724537L721.3950125235048,289.69095066441133L723.0726753433269,289.7770011004331L724.750338163149,289.85769565716674L726.4280009829711,289.93274574271453L728.1056638027932,290.0018707062311L729.7833266226153,290.0648006537291L731.4609894424374,290.12127927039256L733.1386522622595,290.1710666245262L734.8163150820816,290.2139419281063L736.4939779019037,290.2497062289654L738.1716407217258,290.27818500993124L739.8493035415479,290.2992306707559L741.52696636137,290.3127248694052L743.2046291811921,290.3185807002262L744.8822920010142,290.31674468766886L746.5599548208363,290.3071985755907L748.2376176406584,290.2899608937146L749.9152804604805,290.26508828452234L751.5929432803026,290.2326765757422L753.2706061001247,290.19286158560044L754.9482689199468,290.1458196501514L756.6259317397689,290.0917678642457L758.303594559591,290.0309640300326L759.9812573794131,289.96370630929266L761.6589201992352,289.8903325783453L763.3365830190575,289.81121948674564L765.0142458388794,289.7267812234589L766.6919086587017,289.63746799665364L768.3695714785238,289.54376423566714L770.0472342983459,289.44618652604373L771.724897118168,289.3452812908129L773.4025599379901,289.24162223333195L775.0802227578122,289.1358075590543L776.7578855776343,289.02845699547987L778.4355483974564,288.9202086312748L780.1132112172785,288.8117155971096L781.7908740371006,288.70364261213297L783.4685368569227,288.5966624211677L785.1461996767448,288.49145214866866L786.8238624965668,288.3886895962188L788.5015253163889,288.2890495108449L790.179188136211,288.19319985170785L791.8568509560331,288.1017980827615L793.5345137758552,288.01548751877635L795.2121765956773,287.9348937516937L796.8898394154994,287.8606211836156L798.5675022353215,287.79324969184927L800.2451650551436,287.7333314503283L801.9228278749657,287.6813879304223L803.6004906947878,287.63790710265226L805.2781535146099,287.6033408591461L806.955816334432,287.5781026748299L808.633479154254,287.56256552335776L810.3111419740762,287.55706006166616L811.9888047938983,287.5618730948125L813.6664676137206,287.57724633044086L815.3441304335424,287.60337542983586L817.0217932533646,287.6404093600995L818.6994560731868,287.6884500495339L820.377118893009,287.7475523458644L822.0547817128308,287.8177242745076L823.7324445326531,287.8989275917074L825.4101073524752,287.99107862503973L827.0877701722974,288.09404939155945L828.7654329921193,288.20766898173173L830.4430958119415,288.3317251952934L832.1207586317636,288.4659664133276L833.7984214515858,288.61010368913406L835.4760842714077,288.7638130389497L837.1537470912299,288.9267379122249L838.831409911052,289.09849182001375L840.5090727308741,289.2786610990869L842.1867355506964,289.46680778863606L843.8643983705183,289.66247259591637L845.5420611903405,289.8651779268607L847.2197240101625,290.07443095760794L848.8973868299848,290.2897267230031L850.5750496498067,290.5105511984596L852.2527124696289,290.7363843520984L853.9303752894509,290.9667031448084L855.6080381092733,291.200984456778L857.2857009290951,291.4387079201305L858.9633637489173,291.6793586385367L860.6410265687393,291.9224297760615L862.3186893885617,292.16742499901886L863.9963522083835,292.41386075623114L865.6740150282058,292.6612683848137L867.3516778480277,292.9091960303988L869.0293406678501,293.1572103725696L870.707003487672,293.4048981481664L872.3846663074942,293.65186746704086L874.0623291273162,293.89774891674705L875.7399919471385,294.1421964545572L877.4176547669604,294.3848880870498L879.0953175867826,294.6255263393313L880.7729804066046,294.8638385176946L882.4506432264269,295.0995767711794L884.1283060462488,295.33251795906574L885.805968866071,295.56246333278887L887.483631685893,295.78923804210103L889.1612945057153,296.0126904765176L890.8389573255372,296.2326914541564L892.5166201453594,296.44913327101233L894.1942829651814,296.66192862449066L895.8719457850037,296.8710094256598L897.5496086048257,297.07632551516383L899.2272714246478,297.2778432980691L900.90493424447,297.4755443130997L902.5825970642921,297.6694237517544L904.2602598841141,297.85948894269046L905.9379227039362,298.04575781652153L907.6155855237585,298.2282573658031L909.2932483435806,298.4070221144938L910.9709111634028,298.5820926105756L912.6485739832247,298.7535139548132L914.3262368030469,298.92133437784065L916.0038996228689,299.0856038768857L917.6815624426912,299.24637292249906L919.3592252625131,299.4036912446556L921.0368880823353,299.55760670654655L922.7145509021573,299.70816427329953L924.3922137219796,299.85540508176086L926.0698765418015,299.9993656163577L927.7475393616237,300.1400769949408L929.4252021814457,300.2775643674028L931.102865001268,300.41184642877727L932.7805278210899,300.5429350474643L934.4581906409121,300.67083500820615L936.1358534607341,300.7955438684538L937.8135162805564,300.9170519258402L939.4911791003783,301.03534229359866L941.1688419202005,301.15039107995887L942.8465047400225,301.2621676668018L944.5241675598446,301.3706350821832L946.2018303796665,301.4757504607241L947.8794931994887,301.57746558533904L949.5571560193108,301.6757275033085L951.234818839133,301.7704792093184L952.9124816589549,301.8616603877757L954.5901444787771,301.94920820646723L956.2678072985992,302.0330581534573L957.9454701184214,302.11314490901486L959.6231329382433,302.18940324432083L961.3007957580655,302.2617689387295L962.9784585778876,302.33017970743504L964.6561213977099,302.3945761315295L966.3337842175317,302.4549025826237L968.011447037354,302.51110813443125L969.689109857176,302.56314745399146L971.3667726769983,302.6109816655157L973.0444354968201,302.6545791801917L974.7220983166424,302.69391648565244L976.3997611364645,302.7289788892223L978.0774239562867,302.7597612094787L979.7550867761087,302.78626841111287L981.4327495959308,302.808516178535L983.110412415753,302.8265314241458L984.7880752355751,302.84035272768085L986.4657380553973,302.8500307035274L988.1434008752192,302.8556282934124L989.8210636950414,302.85722098236084L991.4987265148635,302.85489693632695L993.1763893346857,302.8487570603991L994.8540521545076,302.8389149769799L996.5317149743298,302.82549692383253L998.2093777941519,302.80864157237386L999.8870406139741,302.7884997670699L1001.564703433796,302.7652341872602L1003.2423662536182,302.7390189331943L1004.9200290734403,302.710039038507L1006.5976918932625,302.67848991179227L1008.2753547130844,302.64457671034836L1009.9530175329066,302.608513649565L1011.6306803527287,302.570523251803L1013.308343172551,302.5308355389737L1014.9860059923728,302.48968717336163L1016.663668812195,302.44732055154793L1018.3413316320172,302.40398285657454L1020.0189944518394,302.3599250737512L1021.6966572716613,302.3154009757358L1023.3743200914835,302.2706660827175L1025.0519829113055,302.2259766036974L1026.7296457311277,302.18158836499526L1028.4073085509497,302.13775573220613L1030.0849713707719,302.0947305318904L1031.7626341905939,302.0527609793034L1033.440297010416,302.0120906184529L1035.117959830238,301.9729572807144L1036.7956226500603,301.9355920681417L1038.4732854698823,301.90021836746604L1040.1509482897045,301.86705090060667L1041.8286111095265,301.8362948172943L1043.5062739293487,301.8081448351537L1045.1839367491707,301.7827844323001L1046.861599568993,301.7603850971705L1048.5392623888151,301.7411056399518L1050.2169252086371,301.72509156956556L1051.894588028459,301.71247453974877L1053.5722508482813,301.7033718673133L1055.2499136681035,301.6978861251927L1056.9275764879255,301.6961048123887L1058.6052393077475,301.69810010241684L1060.2829021275697,301.7039286713262L1061.960564947392,301.713631605835L1063.638227767214,301.727234391588L1065.315890587036,301.74474698100346L1066.9935534068582,301.76616393964724L1068.6712162266804,301.79146466954927L1070.3488790465024,301.8206137073672L1072.0265418663244,301.8535610948142L1073.7042046861466,301.8902428182953L1075.3818675059688,301.9305813142573L1077.0595303257908,301.97448603634217L1078.737193145613,302.02185408005255L1080.414855965435,302.07257086029654L1082.0925187852574,302.1265108368711L1083.7701816050792,302.1835382826797L1085.4478444249014,302.24350808926005L1087.1255072447234,302.306266604018L1088.8031700645456,302.3716524934366L1090.4808328843676,302.43949762644104L1092.1584957041898,302.5096279720628L1093.8361585240118,302.5818645055553L1095.513821343834,302.656024117163L1097.191484163656,302.73192051784486L1098.8691469834782,302.8093651363914L1100.5468098033002,302.8881680025533L1102.2244726231224,302.9681386110178L1103.9021354429444,303.0490867613213L1105.5797982627666,303.13082336907L1107.2574610825886,303.21316124415813L1108.9351239024109,303.2959158320068L1110.6127867222328,303.37890591421336L1112.290449542055,303.46195426537696L1113.968112361877,303.54488826326076L1115.6457751816993,303.62754044985553L1117.3234380015215,303.70974904131924L1119.0011008213435,303.7913583851814L1120.6787636411655,303.872219363613L1122.3564264609877,303.9521897419708L1124.03408928081,304.0311344622249L1125.7117521006319,304.10892588126734L1127.3894149204539,304.1854439544755L1129.067077740276,304.26057636525974L1130.7447405600983,304.3342186016676L1132.4224033799203,304.40627398143107L1134.1000661997423,304.47665362714093L1135.7777290195645,304.54527639350033L1137.4553918393867,304.61206874885664L1139.1330546592087,304.67696461342547L1140.8107174790307,304.73990515681487L1142.488380298853,304.8008385576185L1144.1660431186751,304.85971972798353L1145.8437059384971,304.91651000616963L1147.521368758319,304.9711768201945L1149.1990315781413,305.02369332572346L1150.8766943979635,305.0740380213881L1152.5543572177855,305.12219434473326L1154.2320200376073,305.1681502519742L1155.9096828574297,305.21189778471773L1157.5873456772517,305.25343262674477L1159.2650084970737,305.292753653887L1160.942671316896,305.32986247994353L1162.6203341367182,305.3647630014875L1164.2979969565404,305.3974609443029L1165.9756597763621,305.4279634140728L1167.6533225961844,305.4562784538138L1169.3309854160066,305.4824146104163L1171.0086482358288,305.5063805125127L1172.6863110556505,305.52818446175377L1174.3639738754728,305.54783403942804L1176.041636695295,305.56533573021534L1177.7192995151172,305.5806945647197L1179.396962334939,305.5939137822849L1181.0746251547612,305.60499451545326L1182.7522879745834,305.6139354972903L1184.4299507944056,305.6207327926626L1186.1076136142274,305.6253795544255L1187.7852764340496,305.6278658053492L1189.4629392538718,305.6281782464887L1191.140602073694,305.62630009258623L1192.818264893516,305.6222109349785L1194.495927713338,305.61588663237194L1196.1735905331602,305.60729922974434L1197.8512533529824,305.5964169055269L1199.5289161728044,305.58320394712456L1201.2065789926264,305.56762075473574L1202.8842418124484,305.5496238733404L1204.5619046322709,305.52916605263573L1206.2395674520928,305.5061963346115L1207.9172302719148,305.48066016837043L1209.5948930917368,305.4524995517163L1211.2725559115593,305.42165319894804L1212.9502187313813,305.388056734219L1214.6278815512032,305.3516429097387L1216.3055443710252,305.31234184801633L1217.9832071908477,305.27008130726654L1219.6608700106697,305.22478696902215L1221.3385328304917,305.17638274692314L1223.0161956503136,305.1247911155758L1224.693858470136,305.06993345830733L1226.371521289958,305.0117304325675L1228.04918410978,304.9501023516656L1229.726846929602,304.8849695814642L1231.4045097494245,304.8162529505919L1233.0821725692465,304.7438741726806L1234.7598353890685,304.66775627908055L1236.4374982088905,304.58782406045873L1238.115161028713,304.5040045156458L1239.792823848535,304.4162273060602L1241.470486668357,304.324425214008L1243.148149488179,304.2285346031359L1244.8258123080013,304.12849587929907L1246.5034751278233,304.02425395009425L1248.1811379476453,303.915758681313L1249.8588007674675,303.8029653485718L1251.5364635872897,303.6858350823924L1253.214126407112,303.5643353050274L1254.8917892269337,303.43844015735465L1256.569452046756,303.3081309142002L1258.2471148665782,303.1733963864925L1259.9247776864004,303.0342333086992L1261.6024405062224,302.8906467100522L1263.2801033260444,302.7426502681269L1264.9577661458666,302.5902666434045L1266.6354289656888,302.4335277935135L1268.3130917855108,302.27247526591935L1269.9907546053328,302.1071604678987L1271.6684174251548,301.937644912714L1273.3460802449772,301.76400044097335L1275.0237430647992,301.58630941623727L1276.7014058846212,301.4046648940051L1278.3790687044432,301.21917076328555L1280.0567315242656,301.0299418600238L1281.7343943440876,300.8371040517243L1283.4120571639096,300.6407942926692L1285.0897199837316,300.44116064919393L1286.767382803554,300.23836229453417L1288.445045623376,300.03256947281176L1290.122708443198,299.8239634317741L1291.80037126302,299.6127363239463L1293.4780340828424,299.39909107589864L1295.1556969026644,299.1832412253655L1296.8333597224864,298.96541072599746L1298.5110225423084,298.7458337195548L1300.1886853621309,298.52475427539446L1301.8663481819528,298.3024260971325L1303.5440110017748,298.079112196407L1305.2216738215968,297.85508453370204L1306.8993366414193,297.630623626244L1308.5769994612413,297.40601812302464L1310.2546622810632,297.18156434706566L1311.9323251008852,296.9575658051002L1313.6099879207077,296.73433266491804L1315.2876507405297,296.5121812007005L1316.9653135603517,296.2914332067615L1318.6429763801736,296.07241538021094L1320.320639199996,295.85545867316745L1321.998302019818,295.64089761526924L1323.67596483964,295.42906960736605L1325.353627659462,295.2203141874185L1327.0312904792845,295.01497226978756L1328.7089532991065,294.81338535926017L1330.3866161189287,294.6158947413348L1332.0642789387505,294.4228406504703L1333.741941758573,294.2345614181932L1335.419604578395,294.05139260315343L1337.0972673982171,293.8736661054168L1338.774930218039,293.70170926748347L1340.4525930378613,293.53584396472223L1342.1302558576833,293.37638568810695L1343.8079186775055,293.2236426223343L1345.4855814973275,293.0779147225877L1347.1632443171495,292.939492793386L1348.840907136972,292.8086575731176L1350.518569956794,292.68567882801005L1352.196232776616,292.57081445941066L1353.873895596438,292.46430962836706L1355.5515584162604,292.3663959015808L1357.2292212360824,292.27729042287046L1358.9068840559044,292.197195114318L1360.5845468757263,292.12629591127774L1362.2622096955488,292.0647620354078L1363.9398725153706,292.0127453098313L1365.6175353351925,291.970379520449L1367.2951981550148,291.9377798273117L1368.972860974837,291.9150422298103L1370.650523794659,291.9022430892612L1372.328186614481,291.89943871225444L1374.0058494343032,291.9066649978852L1375.6835122541254,291.92393715171994L1377.3611750739474,291.95124946904684L1379.0388378937694,291.9885751896309L1380.7165007135916,292.03586642584605L1382.3941635334138,292.0930541656816L1384.0718263532358,292.1600483517303L1385.7494891730578,292.2367380368557L1387.42715199288,292.3229916168181L1389.1048148127022,292.41865713970805L1390.7824776325242,292.52356269159867L1392.4601404523462,292.63751685739345L1394.1378032721684,292.7603092554046L1395.8154660919906,292.89171114376853L1397.4931289118126,293.0314760963779L1399.1707917316346,293.1793407455993L1400.8484545514568,293.3350255886473L1402.526117371279,293.49823585410786L1404.203780191101,293.6686624247465L1405.8814430109232,293.8459828124045L1407.5591058307452,294.0298621804814L1409.2367686505675,294.2199544092263L1410.9144314703894,294.41590319881516L1412.5920942902117,294.6173432049849L1414.2697571100337,294.8239012018147L1415.9474199298559,295.0351972661112L1417.6250827496779,295.25084597774867L1419.3027455695,295.47045763025403L1420.980408389322,295.6936394458995L1422.6580712091443,295.91999678957876L1424.3357340289663,296.1491343757893L1426.0133968487885,296.380657463134L1427.6910596686105,296.61417303087177L1429.3687224884327,296.8492909322067L1431.046385308255,297.0856250191916L1432.724048128077,297.32279423434096L1434.401710947899,297.56042366429796L1436.079373767721,297.79814555117207L1437.7570365875433,298.0356002574629L1439.4346994073653,298.2724371808064L1441.1123622271873,298.5083156151157L1442.7900250470095,298.74290555504376L1444.4676878668317,298.9758884410611L1446.1453506866537,299.2069578428191L1447.8230135064757,299.43582007885226L1449.500676326298,299.66219477105994L1451.1783391461202,299.8858153327988L1452.8560019659421,300.1064293898018L1454.5336647857641,300.3237991335243L1456.2113276055863,300.537701606893L1457.8889904254086,300.74792892279936L1459.5666532452306,300.95428841603393L1461.2443160650525,301.15660272969865L1462.9219788848748,301.354709837459L1464.599641704697,301.5484630033026L1466.277304524519,301.73773068076036L1467.954967344341,301.9223963538121L1469.6326301641632,302.10235832194047L1471.3102929839854,302.27752943202205L1472.9879558038074,302.447836759939L1474.6656186236296,302.6132212449688L1476.3432814434516,302.7736372801592L1478.0209442632738,302.9290522620171L1479.6986070830958,303.079446102942L1481.376269902918,303.2248107099077L1483.05393272274,303.3651494329481L1484.7315955425622,303.50047648703065L1486.4092583623842,303.63081635090714L1488.0869211822064,303.7562031465163L1489.7645840020284,303.87668000247623L1491.4422468218506,303.9922984051517L1493.1199096416726,304.1031175407085L1494.7975724614948,304.2092036314794L1496.4752352813168,304.3106292698639L1498.152898101139,304.40747275286924L1499.830560920961,304.4998174202722L1501.5082237407833,304.5877509992474L1503.1858865606052,304.67136495815953L1504.8635493804275,304.75075387207164L1506.5412122002494,304.82601480236104L1508.2188750200717,304.897246692679L1509.8965378398937,304.9645497833281L1511.5742006597159,305.0280250459706L1513.2518634795379,305.0877736404211L1514.92952629936,305.14389639511836L1516.607189119182,305.1964933127156L1518.2848519390043,305.2456631020788L1519.9625147588263,305.29150273783534L1521.6401775786485,305.3341070484737L1523.3178403984705,305.3735683338638L1524.9955032182927,305.409976012935L1526.673166038115,305.4434163021305L1528.350828857937,305.4739719251417L1530.028491677759,305.50172185431626L1531.706154497581,305.52674108403625L1533.3838173174033,305.5491004362635L1535.0614801372253,305.5688663983645L1536.7391429570475,305.5861009932407L1538.4168057768695,305.6008616817125L1540.0944685966917,305.613201297032L1541.7721314165137,305.62316801132573L1543.449794236336,305.6308053337028L1545.127457056158,305.6361521396954L1546.8051198759802,305.63924273163286L1548.4827826958021,305.64010692948546L1550.1604455156244,305.6387701916461L1551.8381083354463,305.63525376505027L1553.5157711552686,305.6295748639637L1555.1934339750906,305.621746876692L1556.8710967949128,305.6117795993907L1558.5487596147348,305.59967949606926L1560.226422434557,305.58544998379807L1561.904085254379,305.5690917420334L1563.5817480742012,305.55060304488L1565.2594108940232,305.52998011500733L1566.9370737138454,305.50721749782844L1568.6147365336674,305.48230845443913L1570.2923993534896,305.4552453716979L1571.9700621733116,305.42602018770907L1573.6477249931336,305.39462483084566L1575.3253878129556,305.3610516703298L1577.0030506327778,305.325293976258L1578.6807134525998,305.28734638683903L1580.358376272422,305.24720538048734L1582.036039092244,305.20486975029917L1583.7137019120662,305.1603410783232L1585.3913647318882,305.113624206935L1587.0690275517104,305.0647277045246L1588.7466903715324,305.0136643226228L1590.4243531913546,304.96045144151856L1592.1020160111766,304.90511150135967L1593.7796788309988,304.8476724156882L1595.4573416508208,304.788167964338L1597.135004470643,304.72663816261684L1598.812667290465,304.6631296037135L1600.4903301102872,304.5976957713108L1602.1679929301092,304.5303973194493L1603.8456557499314,304.4613023167772L1605.5233185697534,304.3904864524358L1607.2009813895756,304.31803320097373L1608.8786442093979,304.24403394385195L1610.5563070292199,304.168588045297L1612.233969849042,304.091802880482L1613.911632668864,304.0137938142663L1615.5892954886863,303.9346841289924L1617.266958308508,303.85460490014333L1618.9446211283305,303.77369481897586L1620.6222839481525,303.6920999615896L1622.299946767975,303.60997350424554L1623.9776095877967,303.527475385124L1625.6552724076187,303.44477191309255L1627.332935227441,303.3620353244551L1629.010598047263,303.2794432890476L1630.6882608670849,303.19717836745485L1632.3659236869073,303.11542742152255L1634.0435865067293,303.03438098073633L1635.7212493265517,302.9542325674293L1637.3989121463735,302.8751779841548L1639.0765749661955,302.797414566922L1640.754237786018,302.7211404083286L1642.43190060584,302.6465535549424L1644.1095634256617,302.57385118356774L1645.7872262454841,302.50322876129087L1647.4648890653061,302.4348791944167L1649.1425518851286,302.3689919715944L1650.8202147049503,302.3057523065737L1652.4978775247723,302.245340286131L1654.1755403445948,302.1879300287669L1655.8532031644168,302.13368885978383L1657.5308659842385,302.0827765083197L1659.208528804061,302.03534433183097L1660.886191623883,301.9915345733905L1662.5638544437054,301.95147965698874L1664.2415172635272,301.91530152580856L1665.9191800833491,301.8831110281763L1667.5968429031716,301.85500735558776L1669.2745057229936,301.83107753686073L1670.9521685428153,301.8113959920813L1672.6298313626378,301.7960241495974L1674.3074941824598,301.7850101288649L1675.9851570022822,301.778388491481L1677.662819822104,301.7761800622452L1677.662819822104,306L1675.9851570022822,306L1674.3074941824598,306L1672.6298313626378,306L1670.9521685428153,306L1669.2745057229936,306L1667.5968429031716,306L1665.9191800833491,306L1664.2415172635272,306L1662.5638544437054,306L1660.886191623883,306L1659.208528804061,306L1657.5308659842385,306L1655.8532031644168,306L1654.1755403445948,306L1652.4978775247723,306L1650.8202147049503,306L1649.1425518851286,306L1647.4648890653061,306L1645.7872262454841,306L1644.1095634256617,306L1642.43190060584,306L1640.754237786018,306L1639.0765749661955,306L1637.3989121463735,306L1635.7212493265517,306L1634.0435865067293,306L1632.3659236869073,306L1630.6882608670849,306L1629.010598047263,306L1627.332935227441,306L1625.6552724076187,306L1623.9776095877967,306L1622.299946767975,306L1620.6222839481525,306L1618.9446211283305,306L1617.266958308508,306L1615.5892954886863,306L1613.911632668864,306L1612.233969849042,306L1610.5563070292199,306L1608.8786442093979,306L1607.2009813895756,306L1605.5233185697534,306L1603.8456557499314,306L1602.1679929301092,306L1600.4903301102872,306L1598.812667290465,306L1597.135004470643,306L1595.4573416508208,306L1593.7796788309988,306L1592.1020160111766,306L1590.4243531913546,306L1588.7466903715324,306L1587.0690275517104,306L1585.3913647318882,306L1583.7137019120662,306L1582.036039092244,306L1580.358376272422,306L1578.6807134525998,306L1577.0030506327778,306L1575.3253878129556,306L1573.6477249931336,306L1571.9700621733116,306L1570.2923993534896,306L1568.6147365336674,306L1566.9370737138454,306L1565.2594108940232,306L1563.5817480742012,306L1561.904085254379,306L1560.226422434557,306L1558.5487596147348,306L1556.8710967949128,306L1555.1934339750906,306L1553.5157711552686,306L1551.8381083354463,306L1550.1604455156244,306L1548.4827826958021,306L1546.8051198759802,306L1545.127457056158,306L1543.449794236336,306L1541.7721314165137,306L1540.0944685966917,306L1538.4168057768695,306L1536.7391429570475,306L1535.0614801372253,306L1533.3838173174033,306L1531.706154497581,306L1530.028491677759,306L1528.350828857937,306L1526.673166038115,306L1524.9955032182927,306L1523.3178403984705,306L1521.6401775786485,306L1519.9625147588263,306L1518.2848519390043,306L1516.607189119182,306L1514.92952629936,306L1513.2518634795379,306L1511.5742006597159,306L1509.8965378398937,306L1508.2188750200717,306L1506.5412122002494,306L1504.8635493804275,306L1503.1858865606052,306L1501.5082237407833,306L1499.830560920961,306L1498.152898101139,306L1496.4752352813168,306L1494.7975724614948,306L1493.1199096416726,306L1491.4422468218506,306L1489.7645840020284,306L1488.0869211822064,306L1486.4092583623842,306L1484.7315955425622,306L1483.05393272274,306L1481.376269902918,306L1479.6986070830958,306L1478.0209442632738,306L1476.3432814434516,306L1474.6656186236296,306L1472.9879558038074,306L1471.3102929839854,306L1469.6326301641632,306L1467.954967344341,306L1466.277304524519,306L1464.599641704697,306L1462.9219788848748,306L1461.2443160650525,306L1459.5666532452306,306L1457.8889904254086,306L1456.2113276055863,306L1454.5336647857641,306L1452.8560019659421,306L1451.1783391461202,306L1449.500676326298,306L1447.8230135064757,306L1446.1453506866537,306L1444.4676878668317,306L1442.7900250470095,306L1441.1123622271873,306L1439.4346994073653,306L1437.7570365875433,306L1436.079373767721,306L1434.401710947899,306L1432.724048128077,306L1431.046385308255,306L1429.3687224884327,306L1427.6910596686105,306L1426.0133968487885,306L1424.3357340289663,306L1422.6580712091443,306L1420.980408389322,306L1419.3027455695,306L1417.6250827496779,306L1415.9474199298559,306L1414.2697571100337,306L1412.5920942902117,306L1410.9144314703894,306L1409.2367686505675,306L1407.5591058307452,306L1405.8814430109232,306L1404.203780191101,306L1402.526117371279,306L1400.8484545514568,306L1399.1707917316346,306L1397.4931289118126,306L1395.8154660919906,306L1394.1378032721684,306L1392.4601404523462,306L1390.7824776325242,306L1389.1048148127022,306L1387.42715199288,306L1385.7494891730578,306L1384.0718263532358,306L1382.3941635334138,306L1380.7165007135916,306L1379.0388378937694,306L1377.3611750739474,306L1375.6835122541254,306L1374.0058494343032,306L1372.328186614481,306L1370.650523794659,306L1368.972860974837,306L1367.2951981550148,306L1365.6175353351925,306L1363.9398725153706,306L1362.2622096955488,306L1360.5845468757263,306L1358.9068840559044,306L1357.2292212360824,306L1355.5515584162604,306L1353.873895596438,306L1352.196232776616,306L1350.518569956794,306L1348.840907136972,306L1347.1632443171495,306L1345.4855814973275,306L1343.8079186775055,306L1342.1302558576833,306L1340.4525930378613,306L1338.774930218039,306L1337.0972673982171,306L1335.419604578395,306L1333.741941758573,306L1332.0642789387505,306L1330.3866161189287,306L1328.7089532991065,306L1327.0312904792845,306L1325.353627659462,306L1323.67596483964,306L1321.998302019818,306L1320.320639199996,306L1318.6429763801736,306L1316.9653135603517,306L1315.2876507405297,306L1313.6099879207077,306L1311.9323251008852,306L1310.2546622810632,306L1308.5769994612413,306L1306.8993366414193,306L1305.2216738215968,306L1303.5440110017748,306L1301.8663481819528,306L1300.1886853621309,306L1298.5110225423084,306L1296.8333597224864,306L1295.1556969026644,306L1293.4780340828424,306L1291.80037126302,306L1290.122708443198,306L1288.445045623376,306L1286.767382803554,306L1285.0897199837316,306L1283.4120571639096,306L1281.7343943440876,306L1280.0567315242656,306L1278.3790687044432,306L1276.7014058846212,306L1275.0237430647992,306L1273.3460802449772,306L1271.6684174251548,306L1269.9907546053328,306L1268.3130917855108,306L1266.6354289656888,306L1264.9577661458666,306L1263.2801033260444,306L1261.6024405062224,306L1259.9247776864004,306L1258.2471148665782,306L1256.569452046756,306L1254.8917892269337,306L1253.214126407112,306L1251.5364635872897,306L1249.8588007674675,306L1248.1811379476453,306L1246.5034751278233,306L1244.8258123080013,306L1243.148149488179,306L1241.470486668357,306L1239.792823848535,306L1238.115161028713,306L1236.4374982088905,306L1234.7598353890685,306L1233.0821725692465,306L1231.4045097494245,306L1229.726846929602,306L1228.04918410978,306L1226.371521289958,306L1224.693858470136,306L1223.0161956503136,306L1221.3385328304917,306L1219.6608700106697,306L1217.9832071908477,306L1216.3055443710252,306L1214.6278815512032,306L1212.9502187313813,306L1211.2725559115593,306L1209.5948930917368,306L1207.9172302719148,306L1206.2395674520928,306L1204.5619046322709,306L1202.8842418124484,306L1201.2065789926264,306L1199.5289161728044,306L1197.8512533529824,306L1196.1735905331602,306L1194.495927713338,306L1192.818264893516,306L1191.140602073694,306L1189.4629392538718,306L1187.7852764340496,306L1186.1076136142274,306L1184.4299507944056,306L1182.7522879745834,306L1181.0746251547612,306L1179.396962334939,306L1177.7192995151172,306L1176.041636695295,306L1174.3639738754728,306L1172.6863110556505,306L1171.0086482358288,306L1169.3309854160066,306L1167.6533225961844,306L1165.9756597763621,306L1164.2979969565404,306L1162.6203341367182,306L1160.942671316896,306L1159.2650084970737,306L1157.5873456772517,306L1155.9096828574297,306L1154.2320200376073,306L1152.5543572177855,306L1150.8766943979635,306L1149.1990315781413,306L1147.521368758319,306L1145.8437059384971,306L1144.1660431186751,306L1142.488380298853,306L1140.8107174790307,306L1139.1330546592087,306L1137.4553918393867,306L1135.7777290195645,306L1134.1000661997423,306L1132.4224033799203,306L1130.7447405600983,306L1129.067077740276,306L1127.3894149204539,306L1125.7117521006319,306L1124.03408928081,306L1122.3564264609877,306L1120.6787636411655,306L1119.0011008213435,306L1117.3234380015215,306L1115.6457751816993,306L1113.968112361877,306L1112.290449542055,306L1110.6127867222328,306L1108.9351239024109,306L1107.2574610825886,306L1105.5797982627666,306L1103.9021354429444,306L1102.2244726231224,306L1100.5468098033002,306L1098.8691469834782,306L1097.191484163656,306L1095.513821343834,306L1093.8361585240118,306L1092.1584957041898,306L1090.4808328843676,306L1088.8031700645456,306L1087.1255072447234,306L1085.4478444249014,306L1083.7701816050792,306L1082.0925187852574,306L1080.414855965435,306L1078.737193145613,306L1077.0595303257908,306L1075.3818675059688,306L1073.7042046861466,306L1072.0265418663244,306L1070.3488790465024,306L1068.6712162266804,306L1066.9935534068582,306L1065.315890587036,306L1063.638227767214,306L1061.960564947392,306L1060.2829021275697,306L1058.6052393077475,306L1056.9275764879255,306L1055.2499136681035,306L1053.5722508482813,306L1051.894588028459,306L1050.2169252086371,306L1048.5392623888151,306L1046.861599568993,306L1045.1839367491707,306L1043.5062739293487,306L1041.8286111095265,306L1040.1509482897045,306L1038.4732854698823,306L1036.7956226500603,306L1035.117959830238,306L1033.440297010416,306L1031.7626341905939,306L1030.0849713707719,306L1028.4073085509497,306L1026.7296457311277,306L1025.0519829113055,306L1023.3743200914835,306L1021.6966572716613,306L1020.0189944518394,306L1018.3413316320172,306L1016.663668812195,306L1014.9860059923728,306L1013.308343172551,306L1011.6306803527287,306L1009.9530175329066,306L1008.2753547130844,306L1006.5976918932625,306L1004.9200290734403,306L1003.2423662536182,306L1001.564703433796,306L999.8870406139741,306L998.2093777941519,306L996.5317149743298,306L994.8540521545076,306L993.1763893346857,306L991.4987265148635,306L989.8210636950414,306L988.1434008752192,306L986.4657380553973,306L984.7880752355751,306L983.110412415753,306L981.4327495959308,306L979.7550867761087,306L978.0774239562867,306L976.3997611364645,306L974.7220983166424,306L973.0444354968201,306L971.3667726769983,306L969.689109857176,306L968.011447037354,306L966.3337842175317,306L964.6561213977099,306L962.9784585778876,306L961.3007957580655,306L959.6231329382433,306L957.9454701184214,306L956.2678072985992,306L954.5901444787771,306L952.9124816589549,306L951.234818839133,306L949.5571560193108,306L947.8794931994887,306L946.2018303796665,306L944.5241675598446,306L942.8465047400225,306L941.1688419202005,306L939.4911791003783,306L937.8135162805564,306L936.1358534607341,306L934.4581906409121,306L932.7805278210899,306L931.102865001268,306L929.4252021814457,306L927.7475393616237,306L926.0698765418015,306L924.3922137219796,306L922.7145509021573,306L921.0368880823353,306L919.3592252625131,306L917.6815624426912,306L916.0038996228689,306L914.3262368030469,306L912.6485739832247,306L910.9709111634028,306L909.2932483435806,306L907.6155855237585,306L905.9379227039362,306L904.2602598841141,306L902.5825970642921,306L900.90493424447,306L899.2272714246478,306L897.5496086048257,306L895.8719457850037,306L894.1942829651814,306L892.5166201453594,306L890.8389573255372,306L889.1612945057153,306L887.483631685893,306L885.805968866071,306L884.1283060462488,306L882.4506432264269,306L880.7729804066046,306L879.0953175867826,306L877.4176547669604,306L875.7399919471385,306L874.0623291273162,306L872.3846663074942,306L870.707003487672,306L869.0293406678501,306L867.3516778480277,306L865.6740150282058,306L863.9963522083835,306L862.3186893885617,306L860.6410265687393,306L858.9633637489173,306L857.2857009290951,306L855.6080381092733,306L853.9303752894509,306L852.2527124696289,306L850.5750496498067,306L848.8973868299848,306L847.2197240101625,306L845.5420611903405,306L843.8643983705183,306L842.1867355506964,306L840.5090727308741,306L838.831409911052,306L837.1537470912299,306L835.4760842714077,306L833.7984214515858,306L832.1207586317636,306L830.4430958119415,306L828.7654329921193,306L827.0877701722974,306L825.4101073524752,306L823.7324445326531,306L822.0547817128308,306L820.377118893009,306L818.6994560731868,306L817.0217932533646,306L815.3441304335424,306L813.6664676137206,306L811.9888047938983,306L810.3111419740762,306L808.633479154254,306L806.955816334432,306L805.2781535146099,306L803.6004906947878,306L801.9228278749657,306L800.2451650551436,306L798.5675022353215,306L796.8898394154994,306L795.2121765956773,306L793.5345137758552,306L791.8568509560331,306L790.179188136211,306L788.5015253163889,306L786.8238624965668,306L785.1461996767448,306L783.4685368569227,306L781.7908740371006,306L780.1132112172785,306L778.4355483974564,306L776.7578855776343,306L775.0802227578122,306L773.4025599379901,306L771.724897118168,306L770.0472342983459,306L768.3695714785238,306L766.6919086587017,306L765.0142458388794,306L763.3365830190575,306L761.6589201992352,306L759.9812573794131,306L758.303594559591,306L756.6259317397689,306L754.9482689199468,306L753.2706061001247,306L751.5929432803026,306L749.9152804604805,306L748.2376176406584,306L746.5599548208363,306L744.8822920010142,306L743.2046291811921,306L741.52696636137,306L739.8493035415479,306L738.1716407217258,306L736.4939779019037,306L734.8163150820816,306L733.1386522622595,306L731.4609894424374,306L729.7833266226153,306L728.1056638027932,306L726.4280009829711,306L724.750338163149,306L723.0726753433269,306L721.3950125235048,306L719.7173497036827,306L718.0396868838606,306L716.3620240640385,306L714.6843612442163,306L713.0066984243942,306L711.3290356045721,306L709.65137278475,306L707.9737099649279,306L706.2960471451058,306L704.6183843252837,306L702.9407215054616,306L701.2630586856395,306L699.5853958658173,306L697.9077330459953,306L696.2300702261731,306L694.5524074063511,306L692.8747445865289,306L691.1970817667069,306L689.5194189468847,306L687.8417561270627,306L686.1640933072405,306L684.4864304874185,306L682.8087676675963,306L681.1311048477744,306L679.4534420279522,306L677.7757792081302,306L676.098116388308,306L674.420453568486,306L672.7427907486638,306L671.0651279288417,306L669.3874651090194,306L667.7098022891975,306L666.0321394693752,306L664.3544766495532,306L662.676813829731,306L660.999151009909,306L659.3214881900868,306L657.6438253702648,306L655.9661625504426,306L654.2884997306206,306L652.6108369107984,306L650.9331740909764,306L649.2555112711542,306L647.5778484513322,306L645.90018563151,306L644.222522811688,306L642.5448599918658,306L640.8671971720438,306L639.1895343522216,306L637.5118715323996,306L635.8342087125774,306L634.1565458927554,306L632.4788830729333,306L630.8012202531112,306L629.1235574332891,306L627.4458946134669,306L625.7682317936449,306L624.0905689738227,306L622.4129061540007,306L620.7352433341784,306L619.0575805143565,306L617.3799176945342,306L615.7022548747123,306L614.02459205489,306L612.346929235068,306L610.6692664152458,306L608.9916035954238,306L607.3139407756016,306L605.6362779557796,306L603.9586151359574,306L602.2809523161354,306L600.6032894963132,306L598.9256266764912,306L597.247963856669,306L595.570301036847,306L593.8926382170248,306L592.2149753972028,306L590.5373125773806,306L588.8596497575586,306L587.1819869377364,306L585.5043241179144,306L583.8266612980922,306L582.1489984782702,306L580.471335658448,306L578.7936728386259,306L577.1160100188036,306L575.4383471989818,306L573.7606843791596,306L572.0830215593376,306L570.4053587395153,306L568.7276959196934,306L567.0500330998711,306L565.3723702800492,306L563.6947074602269,306L562.017044640405,306L560.3393818205827,306L558.6617190007607,306L556.9840561809385,306L555.3063933611164,306L553.6287305412943,306L551.9510677214722,306L550.2734049016501,306L548.595742081828,306L546.9180792620059,306L545.2404164421838,306L543.5627536223617,306L541.8850908025396,306L540.2074279827175,306L538.5297651628954,306L536.8521023430733,306L535.1744395232512,306L533.4967767034291,306L531.819113883607,306L530.1414510637849,306L528.4637882439628,306L526.7861254241407,306L525.1084626043186,306L523.4307997844965,306L521.7531369646744,306L520.0754741448523,306L518.3978113250301,306L516.720148505208,306L515.0424856853859,306L513.3648228655638,306L511.68716004574173,306L510.0094972259197,306L508.3318344060975,306L506.6541715862755,306L504.9765087664533,306L503.2988459466313,306L501.6211831268091,306L499.94352030698707,306L498.2658574871649,306L496.58819466734286,306L494.9105318475207,306L493.23286902769865,306L491.5552062078765,306L489.87754338805433,306L488.19988056823223,306L486.52221774841007,306L484.844554928588,306L483.16689210876586,306L481.4892292889438,306L479.81156646912166,306L478.1339036492996,306L476.45624082947745,306L474.7785780096554,306L473.10091518983324,306L471.42325237001126,306L469.74558955018915,306L468.06792673036705,306L466.39026391054495,306L464.71260109072284,306L463.03493827090074,306L461.35727545107864,306L459.67961263125653,306L458.00194981143443,306L456.3242869916123,306L454.6466241717903,306L452.9689613519681,306L451.2912985321461,306L449.6136357123239,306L447.93597289250187,306L446.2583100726797,306L444.58064725285766,306L442.9029844330355,306L441.22532161321345,306L439.5476587933913,306L437.86999597356925,306L436.1923331537471,306L434.51467033392504,306L432.8370075141029,306L431.15934469428083,306L429.4816818744587,306L427.8040190546366,306L426.12635623481447,306L424.4486934149924,306L422.77103059517026,306L421.0933677753482,306L419.415704955526,306L417.73804213570384,306L416.0603793158818,306L414.38271649605963,306L412.7050536762376,306L411.0273908564154,306L409.3497280365934,306L407.6720652167712,306L405.99440239694917,306L404.316739577127,306L402.63907675730496,306L400.96141393748286,306L399.28375111766076,306L397.60608829783865,306L395.92842547801655,306L394.25076265819445,306L392.5730998383724,306L390.8954370185503,306L389.2177741987282,306L387.5401113789061,306L385.862448559084,306L384.1847857392619,306L382.5071229194397,306L380.8294600996176,306L379.1517972797955,306L377.4741344599734,306L375.7964716401513,306L374.1188088203292,306L372.4411460005071,306L370.763483180685,306L369.0858203608629,306L367.4081575410408,306L365.7304947212187,306L364.0528319013966,306L362.3751690815745,306L360.6975062617524,306L359.0198434419303,306L357.3421806221082,306L355.66451780228607,306L353.98685498246397,306L352.30919216264186,306L350.63152934281976,306L348.95386652299766,306L347.27620370317555,306L345.59854088335345,306L343.92087806353135,306L342.24321524370924,306L340.5655524238872,306L338.8878896040651,306L337.210226784243,306L335.53256396442083,306L333.8549011445987,306L332.1772383247766,306L330.4995755049545,306L328.8219126851324,306L327.1442498653103,306L325.4665870454882,306L323.7889242256661,306L322.111261405844,306L320.4335985860219,306L318.7559357661998,306L317.0782729463777,306L315.4006101265556,306L313.72294730673343,306L312.0452844869113,306L310.3676216670892,306L308.6899588472671,306L307.012296027445,306L305.3346332076229,306L303.6569703878008,306L301.9793075679787,306L300.3016447481566,306L298.6239819283345,306L296.9463191085124,306L295.2686562886903,306L293.5909934688682,306L291.9133306490461,306L290.235667829224,306L288.5580050094018,306L286.8803421895798,306L285.2026793697577,306L283.5250165499356,306L281.84735373011347,306L280.16969091029137,306L278.49202809046926,306L276.81436527064716,306L275.13670245082506,306L273.45903963100295,306L271.78137681118085,306L270.10371399135875,306L268.42605117153664,306L266.74838835171454,306L265.07072553189244,306L263.39306271207033,306L261.71539989224823,306L260.0377370724261,306L258.360074252604,306L256.6824114327819,306L255.00474861295984,306L253.32708579313774,306L251.64942297331564,306L249.97176015349353,306L248.29409733367143,306L246.61643451384933,306L244.93877169402717,306L243.26110887420504,306L241.58344605438293,306L239.90578323456083,306L238.22812041473873,306L236.55045759491662,306L234.87279477509458,306L233.19513195527247,306L231.51746913545037,306L229.83980631562827,306L228.16214349580616,306L226.48448067598406,306L224.80681785616196,306L223.12915503633985,306L221.45149221651775,306L219.77382939669565,306L218.09616657687354,306L216.41850375705144,306L214.74084093722934,306L213.06317811740723,306L211.38551529758513,306L209.707852477763,306L208.0301896579409,306L206.3525268381188,306L204.6748640182967,306L202.99720119847458,306L201.31953837865248,306L199.64187555883038,306L197.96421273900827,306L196.2865499191862,306L194.6088870993641,306L192.931224279542,306L191.25356145971986,306L189.57589863989776,306L187.89823582007566,306L186.22057300025355,306L184.54291018043145,306L182.86524736060935,306L181.18758454078724,306L179.50992172096514,306L177.83225890114304,306L176.15459608132093,306L174.47693326149883,306L172.79927044167673,306L171.12160762185462,306L169.44394480203255,306L167.76628198221042,306L166.0886191623883,306L164.4109563425662,306L162.7332935227441,306L161.055630702922,306L159.3779678830999,306L157.7003050632778,306L156.02264224345566,306L154.34497942363356,306L152.66731660381146,306L150.98965378398935,306L149.31199096416725,306L147.63432814434515,306L145.95666532452304,306L144.2790025047009,306L142.60133968487884,306L140.92367686505673,306L139.24601404523463,306L137.56835122541253,306L135.89068840559042,306L134.21302558576832,306L132.53536276594622,306L130.85769994612411,306L129.180037126302,306L127.50237430647992,306L125.82471148665782,306L124.14704866683572,306L122.46938584701358,306L120.79172302719147,306L119.11406020736936,306L117.43639738754729,306L115.75873456772518,306L114.08107174790308,306L112.40340892808098,306L110.72574610825887,306L109.04808328843677,306L107.37042046861467,306L105.69275764879256,306L104.01509482897045,306L102.33743200914834,306L100.65976918932624,306L98.98210636950414,306L97.30444354968205,306L95.62678072985993,306L93.94911791003783,306L92.27145509021572,306L90.59379227039362,306L88.91612945057152,306L87.23846663074941,306L85.56080381092731,306L83.88314099110521,306L82.2054781712831,306L80.527815351461,306L78.8501525316389,306L77.17248971181678,306L75.49482689199468,306L73.81716407217257,306L72.13950125235046,306L70.46183843252837,306L68.78417561270626,306L67.10651279288416,306L65.42884997306206,306L63.75118715323996,306L62.07352433341786,306L60.39586151359573,306L58.718198693773644,306L57.04053587395154,306L55.36287305412944,306L53.685210234307334,306L52.007547414485224,306L50.32988459466312,306L48.652221774841024,306L46.974558955018914,306L45.29689613519681,306L43.61923331537471,306L41.941570495552604,306L40.2639076757305,306L38.58624485590839,306L36.90858203608629,306L35.23091921626418,306L33.55325639644208,306L31.87559357661998,306L30.197930756797867,306L28.52026793697577,306L26.842605117153667,306L25.16494229733156,306L23.487279477509457,306L21.809616657687354,306L20.13195383786525,306L18.454291018043143,306L16.77662819822104,306L15.098965378398933,306L13.421302558576834,306L11.743639738754728,306L10.065976918932625,306L8.38831409911052,306L6.710651279288417,306L5.032988459466313,306L3.3553256396442084,306L1.6776628198221042,306L0,306Z" style="fill: #0096C7; opacity: 0.3;"></path></g><g class="mark-rect role-mark layer_1_marks"><path d="M78.47029043214683,276h1v30h-1Z" style="fill: #000000; stroke: #000000; stroke-width: 1; opacity: 0.2;"></path><path d="M87.14139333671595,276h1v30h-1Z" style="fill: #000000; stroke: #000000; stroke-width: 1; opacity: 0.2;"></path><path d="M88.44587424858204,276h1v30h-1Z" style="fill: #000000; stroke: #000000; stroke-width: 1; opacity: 0.2;"></path><path d="M90.21065874455513,276h1v30h-1Z" style="fill: #000000; stroke: #000000; stroke-width: 1; opacity: 0.2;"></path><path d="M91.6143036503188,276h1v30h-1Z" style="fill: #000000; stroke: #000000; stroke-width: 1; opacity: 0.2;"></path><path d="M97.67731559590455,276h1v30h-1Z" style="fill: #000000; stroke: #000000; stroke-width: 1; opacity: 0.2;"></path><path d="M102.18149682923774,276h1v30h-1Z" style="fill: #000000; stroke: #000000; stroke-width: 1; opacity: 0.2;"></path><path d="M103.3747992512967,276h1v30h-1Z" style="fill: #000000; stroke: #000000; stroke-width: 1; opacity: 0.2;"></path><path d="M104.52970341318107,276h1v30h-1Z" style="fill: #000000; stroke: #000000; stroke-width: 1; opacity: 0.2;"></path><path d="M104.53752973717367,276h1v30h-1Z" style="fill: #000000; stroke: #000000; stroke-width: 1; opacity: 0.2;"></path><path d="M105.10328243774039,276h1v30h-1Z" style="fill: #000000; stroke: #000000; stroke-width: 1; opacity: 0.2;"></path><path d="M108.016393774995,276h1v30h-1Z" style="fill: #000000; stroke: #000000; stroke-width: 1; opacity: 0.2;"></path><path d="M108.93059550380657,276h1v30h-1Z" style="fill: #000000; stroke: #000000; stroke-width: 1; opacity: 0.2;"></path><path d="M115.33997671511202,276h1v30h-1Z" style="fill: #000000; stroke: #000000; stroke-width: 1; opacity: 0.2;"></path><path d="M116.69222341257576,276h1v30h-1Z" style="fill: #000000; stroke: #000000; stroke-width: 1; opacity: 0.2;"></path><path d="M118.67199691403835,276h1v30h-1Z" style="fill: #000000; stroke: #000000; stroke-width: 1; opacity: 0.2;"></path><path d="M119.73326019793211,276h1v30h-1Z" style="fill: #000000; stroke: #000000; stroke-width: 1; opacity: 0.2;"></path><path d="M123.93007200992163,276h1v30h-1Z" style="fill: #000000; stroke: #000000; stroke-width: 1; opacity: 0.2;"></path><path d="M124.60033993909244,276h1v30h-1Z" style="fill: #000000; stroke: #000000; stroke-width: 1; opacity: 0.2;"></path><path d="M125.06831515411166,276h1v30h-1Z" style="fill: #000000; stroke: #000000; stroke-width: 1; opacity: 0.2;"></path><path d="M126.71801945702799,276h1v30h-1Z" style="fill: #000000; stroke: #000000; stroke-width: 1; opacity: 0.2;"></path><path d="M131.0658002567227,276h1v30h-1Z" style="fill: #000000; stroke: #000000; stroke-width: 1; opacity: 0.2;"></path><path d="M131.5584919883628,276h1v30h-1Z" style="fill: #000000; stroke: #000000; stroke-width: 1; opacity: 0.2;"></path><path d="M134.5836354920533,276h1v30h-1Z" style="fill: #000000; stroke: #000000; stroke-width: 1; opacity: 0.2;"></path><path d="M135.89867563899872,276h1v30h-1Z" style="fill: #000000; stroke: #000000; stroke-width: 1; opacity: 0.2;"></path><path d="M137.4905132711059,276h1v30h-1Z" style="fill: #000000; stroke: #000000; stroke-width: 1; opacity: 0.2;"></path><path d="M143.2309213916171,276h1v30h-1Z" style="fill: #000000; stroke: #000000; stroke-width: 1; opacity: 0.2;"></path><path d="M144.0591939789637,276h1v30h-1Z" style="fill: #000000; stroke: #000000; stroke-width: 1; opacity: 0.2;"></path><path d="M145.37666338020847,276h1v30h-1Z" style="fill: #000000; stroke: #000000; stroke-width: 1; opacity: 0.2;"></path><path d="M146.26752364200252,276h1v30h-1Z" style="fill: #000000; stroke: #000000; stroke-width: 1; opacity: 0.2;"></path><path d="M147.31900115621886,276h1v30h-1Z" style="fill: #000000; stroke: #000000; stroke-width: 1; opacity: 0.2;"></path><path d="M148.2762533963631,276h1v30h-1Z" style="fill: #000000; stroke: #000000; stroke-width: 1; opacity: 0.2;"></path><path d="M151.57128476095832,276h1v30h-1Z" style="fill: #000000; stroke: #000000; stroke-width: 1; opacity: 0.2;"></path><path d="M151.71518370195272,276h1v30h-1Z" style="fill: #000000; stroke: #000000; stroke-width: 1; opacity: 0.2;"></path><path d="M151.95247142851048,276h1v30h-1Z" style="fill: #000000; stroke: #000000; stroke-width: 1; opacity: 0.2;"></path><path d="M153.33235662300228,276h1v30h-1Z" style="fill: #000000; stroke: #000000; stroke-width: 1; opacity: 0.2;"></path><path d="M153.94280989442575,276h1v30h-1Z" style="fill: #000000; stroke: #000000; stroke-width: 1; opacity: 0.2;"></path><path d="M154.3114148581069,276h1v30h-1Z" style="fill: #000000; stroke: #000000; stroke-width: 1; opacity: 0.2;"></path><path d="M160.43705458375356,276h1v30h-1Z" style="fill: #000000; stroke: #000000; stroke-width: 1; opacity: 0.2;"></path><path d="M160.8933762533841,276h1v30h-1Z" style="fill: #000000; stroke: #000000; stroke-width: 1; opacity: 0.2;"></path><path d="M164.8938997344902,276h1v30h-1Z" style="fill: #000000; stroke: #000000; stroke-width: 1; opacity: 0.2;"></path><path d="M168.15279021200976,276h1v30h-1Z" style="fill: #000000; stroke: #000000; stroke-width: 1; opacity: 0.2;"></path><path d="M169.19005888032441,276h1v30h-1Z" style="fill: #000000; stroke: #000000; stroke-width: 1; opacity: 0.2;"></path><path d="M169.62935285236634,276h1v30h-1Z" style="fill: #000000; stroke: #000000; stroke-width: 1; opacity: 0.2;"></path><path d="M170.15283423637558,276h1v30h-1Z" style="fill: #000000; stroke: #000000; stroke-width: 1.1; opacity: 1;"></path><path d="M170.60746001149528,276h1v30h-1Z" style="fill: #000000; stroke: #000000; stroke-width: 1; opacity: 0.2;"></path><path d="M172.02465488522566,276h1v30h-1Z" style="fill: #000000; stroke: #000000; stroke-width: 1; opacity: 0.2;"></path><path d="M173.29156829605256,276h1v30h-1Z" style="fill: #000000; stroke: #000000; stroke-width: 1; opacity: 0.2;"></path><path d="M173.49466312247276,276h1v30h-1Z" style="fill: #000000; stroke: #000000; stroke-width: 1; opacity: 0.2;"></path><path d="M174.56332875673138,276h1v30h-1Z" style="fill: #000000; stroke: #000000; stroke-width: 1; opacity: 0.2;"></path><path d="M175.06884282592307,276h1v30h-1Z" style="fill: #000000; stroke: #000000; stroke-width: 1; opacity: 0.2;"></path><path d="M176.4489457366021,276h1v30h-1Z" style="fill: #000000; stroke: #000000; stroke-width: 1; opacity: 0.2;"></path><path d="M177.22335075573602,276h1v30h-1Z" style="fill: #000000; stroke: #000000; stroke-width: 1; opacity: 0.2;"></path><path d="M177.69398439998847,276h1v30h-1Z" style="fill: #000000; stroke: #000000; stroke-width: 1; opacity: 0.2;"></path><path d="M180.1416185290033,276h1v30h-1Z" style="fill: #000000; stroke: #000000; stroke-width: 1; opacity: 0.2;"></path><path d="M180.39274842156848,276h1v30h-1Z" style="fill: #000000; stroke: #000000; stroke-width: 1; opacity: 0.2;"></path><path d="M180.44418673548185,276h1v30h-1Z" style="fill: #000000; stroke: #000000; stroke-width: 1; opacity: 0.2;"></path><path d="M180.51906964513296,276h1v30h-1Z" style="fill: #000000; stroke: #000000; stroke-width: 1; opacity: 0.2;"></path><path d="M181.58941971515574,276h1v30h-1Z" style="fill: #000000; stroke: #000000; stroke-width: 1; opacity: 0.2;"></path><path d="M182.14575332593924,276h1v30h-1Z" style="fill: #000000; stroke: #000000; stroke-width: 1; opacity: 0.2;"></path><path d="M182.3827660425763,276h1v30h-1Z" style="fill: #000000; stroke: #000000; stroke-width: 1; opacity: 0.2;"></path><path d="M185.7343234046174,276h1v30h-1Z" style="fill: #000000; stroke: #000000; stroke-width: 1; opacity: 0.2;"></path><path d="M186.48496298310613,276h1v30h-1Z" style="fill: #000000; stroke: #000000; stroke-width: 1; opacity: 0.2;"></path><path d="M187.40735771580455,276h1v30h-1Z" style="fill: #000000; stroke: #000000; stroke-width: 1; opacity: 0.2;"></path><path d="M188.26753145394972,276h1v30h-1Z" style="fill: #000000; stroke: #000000; stroke-width: 1; opacity: 0.2;"></path><path d="M189.43553296330637,276h1v30h-1Z" style="fill: #000000; stroke: #000000; stroke-width: 1; opacity: 0.2;"></path><path d="M195.4399620664145,276h1v30h-1Z" style="fill: #000000; stroke: #000000; stroke-width: 1; opacity: 0.2;"></path><path d="M195.7510212041939,276h1v30h-1Z" style="fill: #000000; stroke: #000000; stroke-width: 1; opacity: 0.2;"></path><path d="M197.77177118383742,276h1v30h-1Z" style="fill: #000000; stroke: #000000; stroke-width: 1; opacity: 0.2;"></path><path d="M200.06631645700858,276h1v30h-1Z" style="fill: #000000; stroke: #000000; stroke-width: 1; opacity: 0.2;"></path><path d="M202.45539639041257,276h1v30h-1Z" style="fill: #000000; stroke: #000000; stroke-width: 1; opacity: 0.2;"></path><path d="M208.48987032735468,276h1v30h-1Z" style="fill: #000000; stroke: #000000; stroke-width: 1; opacity: 0.2;"></path><path d="M210.04424931651627,276h1v30h-1Z" style="fill: #000000; stroke: #000000; stroke-width: 1; opacity: 0.2;"></path><path d="M210.76433987631643,276h1v30h-1Z" style="fill: #000000; stroke: #000000; stroke-width: 1; opacity: 0.2;"></path><path d="M215.34357590050115,276h1v30h-1Z" style="fill: #000000; stroke: #000000; stroke-width: 1; opacity: 0.2;"></path><path d="M221.12801998456084,276h1v30h-1Z" style="fill: #000000; stroke: #000000; stroke-width: 1; opacity: 0.2;"></path><path d="M222.27045703004114,276h1v30h-1Z" style="fill: #000000; stroke: #000000; stroke-width: 1; opacity: 0.2;"></path><path d="M227.57688803697684,276h1v30h-1Z" style="fill: #000000; stroke: #000000; stroke-width: 1; opacity: 0.2;"></path><path d="M227.71180332056247,276h1v30h-1Z" style="fill: #000000; stroke: #000000; stroke-width: 1; opacity: 0.2;"></path><path d="M229.6470481323687,276h1v30h-1Z" style="fill: #000000; stroke: #000000; stroke-width: 1; opacity: 0.2;"></path><path d="M233.51093751788494,276h1v30h-1Z" style="fill: #000000; stroke: #000000; stroke-width: 1; opacity: 0.2;"></path><path d="M236.72837024986242,276h1v30h-1Z" style="fill: #000000; stroke: #000000; stroke-width: 1; opacity: 0.2;"></path><path d="M237.2930572869865,276h1v30h-1Z" style="fill: #000000; stroke: #000000; stroke-width: 1; opacity: 0.2;"></path><path d="M238.8394609884484,276h1v30h-1Z" style="fill: #000000; stroke: #000000; stroke-width: 1; opacity: 0.2;"></path><path d="M242.24057742994492,276h1v30h-1Z" style="fill: #000000; stroke: #000000; stroke-width: 1; opacity: 0.2;"></path><path d="M244.979561652424,276h1v30h-1Z" style="fill: #000000; stroke: #000000; stroke-width: 1; opacity: 0.2;"></path><path d="M245.23813973034086,276h1v30h-1Z" style="fill: #000000; stroke: #000000; stroke-width: 1; opacity: 0.2;"></path><path d="M245.39796632924117,276h1v30h-1Z" style="fill: #000000; stroke: #000000; stroke-width: 1; opacity: 0.2;"></path><path d="M247.22774483646768,276h1v30h-1Z" style="fill: #000000; stroke: #000000; stroke-width: 1; opacity: 0.2;"></path><path d="M247.32745885020657,276h1v30h-1Z" style="fill: #000000; stroke: #000000; stroke-width: 1.1; opacity: 1;"></path><path d="M251.54269632688147,276h1v30h-1Z" style="fill: #000000; stroke: #000000; stroke-width: 1; opacity: 0.2;"></path><path d="M251.82465024805595,276h1v30h-1Z" style="fill: #000000; stroke: #000000; stroke-width: 1; opacity: 0.2;"></path><path d="M252.47530080288502,276h1v30h-1Z" style="fill: #000000; stroke: #000000; stroke-width: 1; opacity: 0.2;"></path><path d="M254.20848207547365,276h1v30h-1Z" style="fill: #000000; stroke: #000000; stroke-width: 1; opacity: 0.2;"></path><path d="M256.4777264359425,276h1v30h-1Z" style="fill: #000000; stroke: #000000; stroke-width: 1; opacity: 0.2;"></path><path d="M256.99064285549906,276h1v30h-1Z" style="fill: #000000; stroke: #000000; stroke-width: 1; opacity: 0.2;"></path><path d="M257.0701207225748,276h1v30h-1Z" style="fill: #000000; stroke: #000000; stroke-width: 1; opacity: 0.2;"></path><path d="M263.7018932897347,276h1v30h-1Z" style="fill: #000000; stroke: #000000; stroke-width: 1; opacity: 0.2;"></path><path d="M265.002667297045,276h1v30h-1Z" style="fill: #000000; stroke: #000000; stroke-width: 1; opacity: 0.2;"></path><path d="M265.37521406958916,276h1v30h-1Z" style="fill: #000000; stroke: #000000; stroke-width: 1; opacity: 0.2;"></path><path d="M266.64832666237805,276h1v30h-1Z" style="fill: #000000; stroke: #000000; stroke-width: 1; opacity: 0.2;"></path><path d="M267.8449177447384,276h1v30h-1Z" style="fill: #000000; stroke: #000000; stroke-width: 1; opacity: 0.2;"></path><path d="M268.4357078068335,276h1v30h-1Z" style="fill: #000000; stroke: #000000; stroke-width: 1; opacity: 0.2;"></path><path d="M268.7133532392506,276h1v30h-1Z" style="fill: #000000; stroke: #000000; stroke-width: 1; opacity: 0.2;"></path><path d="M269.36409546405326,276h1v30h-1Z" style="fill: #000000; stroke: #000000; stroke-width: 1; opacity: 0.2;"></path><path d="M272.9298740955553,276h1v30h-1Z" style="fill: #000000; stroke: #000000; stroke-width: 1; opacity: 0.2;"></path><path d="M273.1007010912827,276h1v30h-1Z" style="fill: #000000; stroke: #000000; stroke-width: 1; opacity: 0.2;"></path><path d="M278.677627272698,276h1v30h-1Z" style="fill: #000000; stroke: #000000; stroke-width: 1; opacity: 0.2;"></path><path d="M279.75403901972237,276h1v30h-1Z" style="fill: #000000; stroke: #000000; stroke-width: 1; opacity: 0.2;"></path><path d="M283.33615782401125,276h1v30h-1Z" style="fill: #000000; stroke: #000000; stroke-width: 1; opacity: 0.2;"></path><path d="M285.6845133716617,276h1v30h-1Z" style="fill: #000000; stroke: #000000; stroke-width: 1; opacity: 0.2;"></path><path d="M285.77017896195264,276h1v30h-1Z" style="fill: #000000; stroke: #000000; stroke-width: 1; opacity: 0.2;"></path><path d="M289.1719829282508,276h1v30h-1Z" style="fill: #000000; stroke: #000000; stroke-width: 1; opacity: 0.2;"></path><path d="M289.5315813170298,276h1v30h-1Z" style="fill: #000000; stroke: #000000; stroke-width: 1; opacity: 0.2;"></path><path d="M296.97016423897674,276h1v30h-1Z" style="fill: #000000; stroke: #000000; stroke-width: 1; opacity: 0.2;"></path><path d="M297.8552378336899,276h1v30h-1Z" style="fill: #000000; stroke: #000000; stroke-width: 1; opacity: 0.2;"></path><path d="M299.6097782101177,276h1v30h-1Z" style="fill: #000000; stroke: #000000; stroke-width: 1; opacity: 0.2;"></path><path d="M303.4042963431432,276h1v30h-1Z" style="fill: #000000; stroke: #000000; stroke-width: 1; opacity: 0.2;"></path><path d="M303.486661814386,276h1v30h-1Z" style="fill: #000000; stroke: #000000; stroke-width: 1; opacity: 0.2;"></path><path d="M306.8006459460146,276h1v30h-1Z" style="fill: #000000; stroke: #000000; stroke-width: 1; opacity: 0.2;"></path><path d="M307.68918008222965,276h1v30h-1Z" style="fill: #000000; stroke: #000000; stroke-width: 1; opacity: 0.2;"></path><path d="M313.0099803575207,276h1v30h-1Z" style="fill: #000000; stroke: #000000; stroke-width: 1; opacity: 0.2;"></path><path d="M315.35214818195584,276h1v30h-1Z" style="fill: #000000; stroke: #000000; stroke-width: 1; opacity: 0.2;"></path><path d="M320.13039971873735,276h1v30h-1Z" style="fill: #000000; stroke: #000000; stroke-width: 1; opacity: 0.2;"></path><path d="M324.5933523814624,276h1v30h-1Z" style="fill: #000000; stroke: #000000; stroke-width: 1; opacity: 0.2;"></path><path d="M328.5224878706593,276h1v30h-1Z" style="fill: #000000; stroke: #000000; stroke-width: 1; opacity: 0.2;"></path><path d="M331.23216061909284,276h1v30h-1Z" style="fill: #000000; stroke: #000000; stroke-width: 1; opacity: 0.2;"></path><path d="M335.792604298698,276h1v30h-1Z" style="fill: #000000; stroke: #000000; stroke-width: 1; opacity: 0.2;"></path><path d="M336.8411483737604,276h1v30h-1Z" style="fill: #000000; stroke: #000000; stroke-width: 1; opacity: 0.2;"></path><path d="M342.64163470319295,276h1v30h-1Z" style="fill: #000000; stroke: #000000; stroke-width: 1; opacity: 0.2;"></path><path d="M343.066204185732,276h1v30h-1Z" style="fill: #000000; stroke: #000000; stroke-width: 1; opacity: 0.2;"></path><path d="M348.15945666915593,276h1v30h-1Z" style="fill: #000000; stroke: #000000; stroke-width: 1; opacity: 0.2;"></path><path d="M348.7772664559575,276h1v30h-1Z" style="fill: #000000; stroke: #000000; stroke-width: 1; opacity: 0.2;"></path><path d="M349.7182587345417,276h1v30h-1Z" style="fill: #000000; stroke: #000000; stroke-width: 1; opacity: 0.2;"></path><path d="M355.170949184291,276h1v30h-1Z" style="fill: #000000; stroke: #000000; stroke-width: 1.1; opacity: 1;"></path><path d="M357.2266941763407,276h1v30h-1Z" style="fill: #000000; stroke: #000000; stroke-width: 1; opacity: 0.2;"></path><path d="M357.6423945889378,276h1v30h-1Z" style="fill: #000000; stroke: #000000; stroke-width: 1; opacity: 0.2;"></path><path d="M365.03505085413167,276h1v30h-1Z" style="fill: #000000; stroke: #000000; stroke-width: 1; opacity: 0.2;"></path><path d="M365.58901250434934,276h1v30h-1Z" style="fill: #000000; stroke: #000000; stroke-width: 1; opacity: 0.2;"></path><path d="M385.4706026272884,276h1v30h-1Z" style="fill: #000000; stroke: #000000; stroke-width: 1; opacity: 0.2;"></path><path d="M388.23701908935504,276h1v30h-1Z" style="fill: #000000; stroke: #000000; stroke-width: 1; opacity: 0.2;"></path><path d="M389.8868952734718,276h1v30h-1Z" style="fill: #000000; stroke: #000000; stroke-width: 1; opacity: 0.2;"></path><path d="M396.7904693122344,276h1v30h-1Z" style="fill: #000000; stroke: #000000; stroke-width: 1; opacity: 0.2;"></path><path d="M398.8739903062725,276h1v30h-1Z" style="fill: #000000; stroke: #000000; stroke-width: 1; opacity: 0.2;"></path><path d="M401.7786450884663,276h1v30h-1Z" style="fill: #000000; stroke: #000000; stroke-width: 1; opacity: 0.2;"></path><path d="M406.9341185664436,276h1v30h-1Z" style="fill: #000000; stroke: #000000; stroke-width: 1; opacity: 0.2;"></path><path d="M411.23678628040045,276h1v30h-1Z" style="fill: #000000; stroke: #000000; stroke-width: 1; opacity: 0.2;"></path><path d="M413.8775232087176,276h1v30h-1Z" style="fill: #000000; stroke: #000000; stroke-width: 1; opacity: 0.2;"></path><path d="M433.5533829934967,276h1v30h-1Z" style="fill: #000000; stroke: #000000; stroke-width: 1; opacity: 0.2;"></path><path d="M439.1406678819241,276h1v30h-1Z" style="fill: #000000; stroke: #000000; stroke-width: 1; opacity: 0.2;"></path><path d="M446.3803498787411,276h1v30h-1Z" style="fill: #000000; stroke: #000000; stroke-width: 1; opacity: 0.2;"></path><path d="M451.01316700247116,276h1v30h-1Z" style="fill: #000000; stroke: #000000; stroke-width: 1; opacity: 0.2;"></path><path d="M458.7543295896433,276h1v30h-1Z" style="fill: #000000; stroke: #000000; stroke-width: 1; opacity: 0.2;"></path><path d="M461.29125027290473,276h1v30h-1Z" style="fill: #000000; stroke: #000000; stroke-width: 1; opacity: 0.2;"></path><path d="M461.33025584665415,276h1v30h-1Z" style="fill: #000000; stroke: #000000; stroke-width: 1; opacity: 0.2;"></path><path d="M464.84424094309526,276h1v30h-1Z" style="fill: #000000; stroke: #000000; stroke-width: 1; opacity: 0.2;"></path><path d="M468.8465978236726,276h1v30h-1Z" style="fill: #000000; stroke: #000000; stroke-width: 1; opacity: 0.2;"></path><path d="M493.13891164190136,276h1v30h-1Z" style="fill: #000000; stroke: #000000; stroke-width: 1; opacity: 0.2;"></path><path d="M494.8528193025492,276h1v30h-1Z" style="fill: #000000; stroke: #000000; stroke-width: 1; opacity: 0.2;"></path><path d="M518.4323990763559,276h1v30h-1Z" style="fill: #000000; stroke: #000000; stroke-width: 1; opacity: 0.2;"></path><path d="M561.042802865993,276h1v30h-1Z" style="fill: #000000; stroke: #000000; stroke-width: 1; opacity: 0.2;"></path><path d="M563.3399607334107,276h1v30h-1Z" style="fill: #000000; stroke: #000000; stroke-width: 1; opacity: 0.2;"></path><path d="M579.1642607441172,276h1v30h-1Z" style="fill: #000000; stroke: #000000; stroke-width: 1; opacity: 0.2;"></path><path d="M602.536758047654,276h1v30h-1Z" style="fill: #000000; stroke: #000000; stroke-width: 1; opacity: 0.2;"></path><path d="M610.3940664913255,276h1v30h-1Z" style="fill: #000000; stroke: #000000; stroke-width: 1; opacity: 0.2;"></path><path d="M624.5725237967519,276h1v30h-1Z" style="fill: #000000; stroke: #000000; stroke-width: 1; opacity: 0.2;"></path><path d="M684.5925222848398,276h1v30h-1Z" style="fill: #000000; stroke: #000000; stroke-width: 1; opacity: 0.2;"></path><path d="M700.6654770988255,276h1v30h-1Z" style="fill: #000000; stroke: #000000; stroke-width: 1; opacity: 0.2;"></path><path d="M703.0992690618328,276h1v30h-1Z" style="fill: #000000; stroke: #000000; stroke-width: 1; opacity: 0.2;"></path><path d="M805.2700839271196,276h1v30h-1Z" style="fill: #000000; stroke: #000000; stroke-width: 1; opacity: 0.2;"></path><path d="M807.3902270755945,276h1v30h-1Z" style="fill: #000000; stroke: #000000; stroke-width: 1; opacity: 0.2;"></path><path d="M820.566502395086,276h1v30h-1Z" style="fill: #000000; stroke: #000000; stroke-width: 1; opacity: 0.2;"></path><path d="M824.2480602031931,276h1v30h-1Z" style="fill: #000000; stroke: #000000; stroke-width: 1; opacity: 0.2;"></path><path d="M911.8322113707948,276h1v30h-1Z" style="fill: #000000; stroke: #000000; stroke-width: 1; opacity: 0.2;"></path><path d="M1059.379250632957,276h1v30h-1Z" style="fill: #000000; stroke: #000000; stroke-width: 1; opacity: 0.2;"></path><path d="M1320.5870650812913,276h1v30h-1Z" style="fill: #000000; stroke: #000000; stroke-width: 1; opacity: 0.2;"></path><path d="M1368.349504724897,276h1v30h-1Z" style="fill: #000000; stroke: #000000; stroke-width: 1; opacity: 0.2;"></path><path d="M1375.8889933702394,276h1v30h-1Z" style="fill: #000000; stroke: #000000; stroke-width: 1; opacity: 0.2;"></path><path d="M1412.9671142555844,276h1v30h-1Z" style="fill: #000000; stroke: #000000; stroke-width: 1; opacity: 0.2;"></path><path d="M1677.162819822104,276h1v30h-1Z" style="fill: #000000; stroke: #000000; stroke-width: 1.1; opacity: 1;"></path></g><g class="mark-group role-scope layer_2_pathgroup"><g transform="translate(0,0)"><path class="background" d="M0,0h1679.25v306h-1679.25Z" style="fill: none;"></path><g><g class="mark-line role-mark layer_2_marks"><path d="M129.17307692307693,-107.10000000000002L129.17307692307693,153L170.65283423637558,279.99" style="fill: none; stroke: #000000; stroke-width: 2; opacity: 0.3;"></path></g></g><path class="foreground" d="" style="display: none; fill: none;"></path></g><g transform="translate(0,0)"><path class="background" d="M0,0h1679.25v306h-1679.25Z" style="fill: none;"></path><g><g class="mark-line role-mark layer_2_marks"><path d="M581.2788461538462,-107.10000000000002L581.2788461538462,153L247.82745885020657,279.99" style="fill: none; stroke: #000000; stroke-width: 2; opacity: 0.3;"></path></g></g><path class="foreground" d="" style="display: none; fill: none;"></path></g><g transform="translate(0,0)"><path class="background" d="M0,0h1679.25v306h-1679.25Z" style="fill: none;"></path><g><g class="mark-line role-mark layer_2_marks"><path d="M1014.0086538461538,-107.10000000000002L1014.0086538461538,153L355.670949184291,279.99" style="fill: none; stroke: #000000; stroke-width: 2; opacity: 0.3;"></path></g></g><path class="foreground" d="" style="display: none; fill: none;"></path></g><g transform="translate(0,0)"><path class="background" d="M0,0h1679.25v306h-1679.25Z" style="fill: none;"></path><g><g class="mark-line role-mark layer_2_marks"><path d="M1453.1971153846152,-107.10000000000002L1453.1971153846152,153L1677.662819822104,279.99" style="fill: none; stroke: #000000; stroke-width: 2; opacity: 0.3;"></path></g></g><path class="foreground" d="" style="display: none; fill: none;"></path></g></g><g class="mark-text role-mark layer_3_marks"><text text-anchor="start" transform="translate(142.0903846153846,-36.60000000000002)" style="font-family: Arial; font-size: 30px; fill: black;">25th percentile</text><text text-anchor="start" transform="translate(594.1961538461538,-36.60000000000002)" style="font-family: Arial; font-size: 30px; fill: black;">50th</text><text text-anchor="start" transform="translate(1026.9259615384615,-36.60000000000002)" style="font-family: Arial; font-size: 30px; fill: black;">75th</text><text text-anchor="start" transform="translate(1466.114423076923,-36.60000000000002)" style="font-family: Arial; font-size: 30px; fill: black;">100th</text></g></g><path class="foreground" d="" style="display: none; fill: none;"></path></g></g></g></svg>