<svg class="marks" width="445.3125" height="172.92968183755875" viewBox="0 0 445.3125 172.92968183755875" version="1.1" xmlns="http://www.w3.org/2000/svg" xmlns:xlink="http://www.w3.org/1999/xlink"><rect width="445.3125" height="172.92968183755875" style="fill: white;"></rect><g transform="translate(18,7)"><g class="mark-group role-frame root"><g transform="translate(0,0)"><path class="background" d="M0.5,0.5h420.3125v131.92968183755875h-420.3125Z" style="fill: none; stroke: #ddd; stroke-opacity: 0;"></path><g><g class="mark-symbol role-mark layer_0_marks"><path transform="translate(0,0)" d="M0.5,0A0.5,0.5,0,1,1,-0.5,0A0.5,0.5,0,1,1,0.5,0" style="fill: #C7D5E5; stroke-width: 2; opacity: 0;"></path><path transform="translate(60.04464228451252,0)" d="M0.5,0A0.5,0.5,0,1,1,-0.5,0A0.5,0.5,0,1,1,0.5,0" style="fill: #C7D5E5; stroke-width: 2; opacity: 0;"></path><path transform="translate(120.08928456902504,0)" d="M0.5,0A0.5,0.5,0,1,1,-0.5,0A0.5,0.5,0,1,1,0.5,0" style="fill: #C7D5E5; stroke-width: 2; opacity: 0;"></path><path transform="translate(180.13393086194992,0)" d="M0.5,0A0.5,0.5,0,1,1,-0.5,0A0.5,0.5,0,1,1,0.5,0" style="fill: #C7D5E5; stroke-width: 2; opacity: 0;"></path><path transform="translate(240.17856913805008,0)" d="M0.5,0A0.5,0.5,0,1,1,-0.5,0A0.5,0.5,0,1,1,0.5,0" style="fill: #C7D5E5; stroke-width: 2; opacity: 0;"></path><path transform="translate(300.2232234477997,0)" d="M0.5,0A0.5,0.5,0,1,1,-0.5,0A0.5,0.5,0,1,1,0.5,0" style="fill: #C7D5E5; stroke-width: 2; opacity: 0;"></path><path transform="translate(360.26786172389984,0)" d="M0.5,0A0.5,0.5,0,1,1,-0.5,0A0.5,0.5,0,1,1,0.5,0" style="fill: #C7D5E5; stroke-width: 2; opacity: 0;"></path><path transform="translate(420.3125,0)" d="M0.5,0A0.5,0.5,0,1,1,-0.5,0A0.5,0.5,0,1,1,0.5,0" style="fill: #C7D5E5; stroke-width: 2; opacity: 0;"></path><path transform="translate(49.683734089136124,49.25860348703358)" d="M0.5,0A0.5,0.5,0,1,1,-0.5,0A0.5,0.5,0,1,1,0.5,0" style="fill: #C7D5E5; stroke-width: 2; opacity: 0;"></path><path transform="translate(80.08875238895416,109.99242638125362)" d="M0.5,0A0.5,0.5,0,1,1,-0.5,0A0.5,0.5,0,1,1,0.5,0" style="fill: #C7D5E5; stroke-width: 2; opacity: 0;"></path><path transform="translate(144.8952081799507,125.4745015670248)" d="M0.5,0A0.5,0.5,0,1,1,-0.5,0A0.5,0.5,0,1,1,0.5,0" style="fill: #C7D5E5; stroke-width: 2; opacity: 0;"></path><path transform="translate(210.15625,131.92968183755875)" d="M0.5,0A0.5,0.5,0,1,1,-0.5,0A0.5,0.5,0,1,1,0.5,0" style="fill: #C7D5E5; stroke-width: 2; opacity: 0;"></path><path transform="translate(275.41730785369873,125.4745015670248)" d="M0.5,0A0.5,0.5,0,1,1,-0.5,0A0.5,0.5,0,1,1,0.5,0" style="fill: #C7D5E5; stroke-width: 2; opacity: 0;"></path><path transform="translate(340.22374761104584,109.99242638125362)" d="M0.5,0A0.5,0.5,0,1,1,-0.5,0A0.5,0.5,0,1,1,0.5,0" style="fill: #C7D5E5; stroke-width: 2; opacity: 0;"></path><path transform="translate(370.6287739276886,49.25860348703358)" d="M0.5,0A0.5,0.5,0,1,1,-0.5,0A0.5,0.5,0,1,1,0.5,0" style="fill: #C7D5E5; stroke-width: 2; opacity: 0;"></path></g><g class="mark-line role-mark layer_1_marks"><path d="M0,0L60.04464228451252,0" style="fill: none; stroke: #C7D5E5; stroke-width: 2; opacity: 1;"></path></g><g class="mark-line role-mark layer_2_marks"><path d="M0,0L49.683734089136124,49.25860348703358" style="fill: none; stroke: #C7D5E5; stroke-width: 2; opacity: 1;"></path></g><g class="mark-line role-mark layer_3_marks"><path d="M60.04464228451252,0L120.08928456902504,0" style="fill: none; stroke: #C7D5E5; stroke-width: 2; opacity: 1;"></path></g><g class="mark-line role-mark layer_4_marks"><path d="M49.683734089136124,49.25860348703358L60.04464228451252,0" style="fill: none; stroke: #C7D5E5; stroke-width: 2; opacity: 1;"></path></g><g class="mark-line role-mark layer_5_marks"><path d="M60.04464228451252,0L80.08875238895416,109.99242638125362" style="fill: none; stroke: #C7D5E5; stroke-width: 2; opacity: 1;"></path></g><g class="mark-line role-mark layer_6_marks"><path d="M120.08928456902504,0L180.13393086194992,0" style="fill: none; stroke: #C7D5E5; stroke-width: 2; opacity: 1;"></path></g><g class="mark-line role-mark layer_7_marks"><path d="M80.08875238895416,109.99242638125362L120.08928456902504,0" style="fill: none; stroke: #C7D5E5; stroke-width: 2; opacity: 1;"></path></g><g class="mark-line role-mark layer_8_marks"><path d="M120.08928456902504,0L144.8952081799507,125.4745015670248" style="fill: none; stroke: #C7D5E5; stroke-width: 2; opacity: 1;"></path></g><g class="mark-line role-mark layer_9_marks"><path d="M180.13393086194992,0L240.17856913805008,0" style="fill: none; stroke: #C7D5E5; stroke-width: 2; opacity: 1;"></path></g><g class="mark-line role-mark layer_10_marks"><path d="M144.8952081799507,125.4745015670248L180.13393086194992,0" style="fill: none; stroke: #C7D5E5; stroke-width: 2; opacity: 1;"></path></g><g class="mark-line role-mark layer_11_marks"><path d="M180.13393086194992,0L210.15625,131.92968183755875" style="fill: none; stroke: #C7D5E5; stroke-width: 2; opacity: 1;"></path></g><g class="mark-line role-mark layer_12_marks"><path d="M240.17856913805008,0L300.2232234477997,0" style="fill: none; stroke: #C7D5E5; stroke-width: 2; opacity: 1;"></path></g><g class="mark-line role-mark layer_13_marks"><path d="M210.15625,131.92968183755875L240.17856913805008,0" style="fill: none; stroke: #C7D5E5; stroke-width: 2; opacity: 1;"></path></g><g class="mark-line role-mark layer_14_marks"><path d="M240.17856913805008,0L275.41730785369873,125.4745015670248" style="fill: none; stroke: #C7D5E5; stroke-width: 2; opacity: 1;"></path></g><g class="mark-line role-mark layer_15_marks"><path d="M300.2232234477997,0L360.26786172389984,0" style="fill: none; stroke: #C7D5E5; stroke-width: 2; opacity: 1;"></path></g><g class="mark-line role-mark layer_16_marks"><path d="M275.41730785369873,125.4745015670248L300.2232234477997,0" style="fill: none; stroke: #C7D5E5; stroke-width: 2; opacity: 1;"></path></g><g class="mark-line role-mark layer_17_marks"><path d="M300.2232234477997,0L340.22374761104584,109.99242638125362" style="fill: none; stroke: #C7D5E5; stroke-width: 2; opacity: 1;"></path></g><g class="mark-line role-mark layer_18_marks"><path d="M360.26786172389984,0L420.3125,0" style="fill: none; stroke: #C7D5E5; stroke-width: 2; opacity: 1;"></path></g><g class="mark-line role-mark layer_19_marks"><path d="M340.22374761104584,109.99242638125362L360.26786172389984,0" style="fill: none; stroke: #C7D5E5; stroke-width: 2; opacity: 1;"></path></g><g class="mark-line role-mark layer_20_marks"><path d="M360.26786172389984,0L370.6287739276886,49.25860348703358" style="fill: none; stroke: #C7D5E5; stroke-width: 2; opacity: 1;"></path></g><g class="mark-line role-mark layer_21_marks"><path d="M370.6287739276886,49.25860348703358L420.3125,0" style="fill: none; stroke: #C7D5E5; stroke-width: 2; opacity: 1;"></path></g><g class="mark-line role-mark layer_22_marks"><path d="M49.683734089136124,49.25860348703358L80.08875238895416,109.99242638125362" style="fill: none; stroke: #C7D5E5; stroke-width: 2; opacity: 1;"></path></g><g class="mark-line role-mark layer_23_marks"><path d="M80.08875238895416,109.99242638125362L144.8952081799507,125.4745015670248" style="fill: none; stroke: #C7D5E5; stroke-width: 2; opacity: 1;"></path></g><g class="mark-line role-mark layer_24_marks"><path d="M144.8952081799507,125.4745015670248L210.15625,131.92968183755875" style="fill: none; stroke: #C7D5E5; stroke-width: 2; opacity: 1;"></path></g><g class="mark-line role-mark layer_25_marks"><path d="M210.15625,131.92968183755875L275.41730785369873,125.4745015670248" style="fill: none; stroke: #C7D5E5; stroke-width: 2; opacity: 1;"></path></g><g class="mark-line role-mark layer_26_marks"><path d="M275.41730785369873,125.4745015670248L340.22374761104584,109.99242638125362" style="fill: none; stroke: #C7D5E5; stroke-width: 2; opacity: 1;"></path></g><g class="mark-line role-mark layer_27_marks"><path d="M340.22374761104584,109.99242638125362L370.6287739276886,49.25860348703358" style="fill: none; stroke: #C7D5E5; stroke-width: 2; opacity: 1;"></path></g><g class="mark-symbol role-mark layer_28_marks"><path transform="translate(-9.40070604160428,18.579574957279547)" d="M0.5,0A0.5,0.5,0,1,1,-0.5,0A0.5,0.5,0,1,1,0.5,0" style="fill: #000000; stroke-width: 2; opacity: 0;"></path><path transform="translate(52.66337138414383,2.216521045305355)" d="M0.5,0A0.5,0.5,0,1,1,-0.5,0A0.5,0.5,0,1,1,0.5,0" style="fill: #000000; stroke-width: 2; opacity: 0;"></path><path transform="translate(114.53069087862968,9.162346581781021)" d="M0.5,0A0.5,0.5,0,1,1,-0.5,0A0.5,0.5,0,1,1,0.5,0" style="fill: #000000; stroke-width: 2; opacity: 0;"></path><path transform="translate(174.50076466798782,20.232981620532495)" d="M0.5,0A0.5,0.5,0,1,1,-0.5,0A0.5,0.5,0,1,1,0.5,0" style="fill: #000000; stroke-width: 2; opacity: 0;"></path><path transform="translate(233.93968373537066,20.232981620532495)" d="M0.5,0A0.5,0.5,0,1,1,-0.5,0A0.5,0.5,0,1,1,0.5,0" style="fill: #000000; stroke-width: 2; opacity: 0;"></path><path transform="translate(293.90974950790405,9.162346581781021)" d="M0.5,0A0.5,0.5,0,1,1,-0.5,0A0.5,0.5,0,1,1,0.5,0" style="fill: #000000; stroke-width: 2; opacity: 0;"></path><path transform="translate(355.7770609855652,2.2165202353185305)" d="M0.5,0A0.5,0.5,0,1,1,-0.5,0A0.5,0.5,0,1,1,0.5,0" style="fill: #000000; stroke-width: 2; opacity: 0;"></path><path transform="translate(417.8411374092102,18.579574957279547)" d="M0.5,0A0.5,0.5,0,1,1,-0.5,0A0.5,0.5,0,1,1,0.5,0" style="fill: #000000; stroke-width: 2; opacity: 0;"></path><path transform="translate(57.60068921744824,52.06201648259041)" d="M0.5,0A0.5,0.5,0,1,1,-0.5,0A0.5,0.5,0,1,1,0.5,0" style="fill: #000000; stroke-width: 2; opacity: 0;"></path><path transform="translate(80.08875238895416,109.99242638125362)" d="M0.5,0A0.5,0.5,0,1,1,-0.5,0A0.5,0.5,0,1,1,0.5,0" style="fill: #000000; stroke-width: 2; opacity: 0;"></path><path transform="translate(139.07513773441315,140.26263188152495)" d="M0.5,0A0.5,0.5,0,1,1,-0.5,0A0.5,0.5,0,1,1,0.5,0" style="fill: #000000; stroke-width: 2; opacity: 0;"></path><path transform="translate(204.22022420167923,152.032543934807)" d="M0.5,0A0.5,0.5,0,1,1,-0.5,0A0.5,0.5,0,1,1,0.5,0" style="fill: #000000; stroke-width: 2; opacity: 0;"></path><path transform="translate(269.3653106689453,140.26263188152495)" d="M0.5,0A0.5,0.5,0,1,1,-0.5,0A0.5,0.5,0,1,1,0.5,0" style="fill: #000000; stroke-width: 2; opacity: 0;"></path><path transform="translate(328.3516960144043,109.99242638125362)" d="M0.5,0A0.5,0.5,0,1,1,-0.5,0A0.5,0.5,0,1,1,0.5,0" style="fill: #000000; stroke-width: 2; opacity: 0;"></path><path transform="translate(350.83975517749786,52.06201324264311)" d="M0.5,0A0.5,0.5,0,1,1,-0.5,0A0.5,0.5,0,1,1,0.5,0" style="fill: #000000; stroke-width: 2; opacity: 0;"></path></g><g class="mark-line role-mark layer_29_marks"><path d="M-9.40070604160428,18.579574957279547L52.66337138414383,2.216521045305355" style="fill: none; stroke: #000000; stroke-width: 2; opacity: 1;"></path></g><g class="mark-line role-mark layer_30_marks"><path d="M-9.40070604160428,18.579574957279547L57.60068921744824,52.06201648259041" style="fill: none; stroke: #000000; stroke-width: 2; opacity: 1;"></path></g><g class="mark-line role-mark layer_31_marks"><path d="M52.66337138414383,2.216521045305355L114.53069087862968,9.162346581781021" style="fill: none; stroke: #000000; stroke-width: 2; opacity: 1;"></path></g><g class="mark-line role-mark layer_32_marks"><path d="M52.66337138414383,2.216521045305355L57.60068921744824,52.06201648259041" style="fill: none; stroke: #000000; stroke-width: 2; opacity: 1;"></path></g><g class="mark-line role-mark layer_33_marks"><path d="M52.66337138414383,2.216521045305355L80.08875238895416,109.99242638125362" style="fill: none; stroke: #000000; stroke-width: 2; opacity: 1;"></path></g><g class="mark-line role-mark layer_34_marks"><path d="M114.53069087862968,9.162346581781021L174.50076466798782,20.232981620532495" style="fill: none; stroke: #000000; stroke-width: 2; opacity: 1;"></path></g><g class="mark-line role-mark layer_35_marks"><path d="M80.08875238895416,109.99242638125362L114.53069087862968,9.162346581781021" style="fill: none; stroke: #000000; stroke-width: 2; opacity: 1;"></path></g><g class="mark-line role-mark layer_36_marks"><path d="M114.53069087862968,9.162346581781021L139.07513773441315,140.26263188152495" style="fill: none; stroke: #000000; stroke-width: 2; opacity: 1;"></path></g><g class="mark-line role-mark layer_37_marks"><path d="M174.50076466798782,20.232981620532495L233.93968373537066,20.232981620532495" style="fill: none; stroke: #000000; stroke-width: 2; opacity: 1;"></path></g><g class="mark-line role-mark layer_38_marks"><path d="M139.07513773441315,140.26263188152495L174.50076466798782,20.232981620532495" style="fill: none; stroke: #000000; stroke-width: 2; opacity: 1;"></path></g><g class="mark-line role-mark layer_39_marks"><path d="M174.50076466798782,20.232981620532495L204.22022420167923,152.032543934807" style="fill: none; stroke: #000000; stroke-width: 2; opacity: 1;"></path></g><g class="mark-line role-mark layer_40_marks"><path d="M233.93968373537066,20.232981620532495L293.90974950790405,9.162346581781021" style="fill: none; stroke: #000000; stroke-width: 2; opacity: 1;"></path></g><g class="mark-line role-mark layer_41_marks"><path d="M204.22022420167923,152.032543934807L233.93968373537066,20.232981620532495" style="fill: none; stroke: #000000; stroke-width: 2; opacity: 1;"></path></g><g class="mark-line role-mark layer_42_marks"><path d="M233.93968373537066,20.232981620532495L269.3653106689453,140.26263188152495" style="fill: none; stroke: #000000; stroke-width: 2; opacity: 1;"></path></g><g class="mark-line role-mark layer_43_marks"><path d="M293.90974950790405,9.162346581781021L355.7770609855652,2.2165202353185305" style="fill: none; stroke: #000000; stroke-width: 2; opacity: 1;"></path></g><g class="mark-line role-mark layer_44_marks"><path d="M269.3653106689453,140.26263188152495L293.90974950790405,9.162346581781021" style="fill: none; stroke: #000000; stroke-width: 2; opacity: 1;"></path></g><g class="mark-line role-mark layer_45_marks"><path d="M293.90974950790405,9.162346581781021L328.3516960144043,109.99242638125362" style="fill: none; stroke: #000000; stroke-width: 2; opacity: 1;"></path></g><g class="mark-line role-mark layer_46_marks"><path d="M355.7770609855652,2.2165202353185305L417.8411374092102,18.579574957279547" style="fill: none; stroke: #000000; stroke-width: 2; opacity: 1;"></path></g><g class="mark-line role-mark layer_47_marks"><path d="M328.3516960144043,109.99242638125362L355.7770609855652,2.2165202353185305" style="fill: none; stroke: #000000; stroke-width: 2; opacity: 1;"></path></g><g class="mark-line role-mark layer_48_marks"><path d="M350.83975517749786,52.06201324264311L355.7770609855652,2.2165202353185305" style="fill: none; stroke: #000000; stroke-width: 2; opacity: 1;"></path></g><g class="mark-line role-mark layer_49_marks"><path d="M350.83975517749786,52.06201324264311L417.8411374092102,18.579574957279547" style="fill: none; stroke: #000000; stroke-width: 2; opacity: 1;"></path></g><g class="mark-line role-mark layer_50_marks"><path d="M57.60068921744824,52.06201648259041L80.08875238895416,109.99242638125362" style="fill: none; stroke: #000000; stroke-width: 2; opacity: 1;"></path></g><g class="mark-line role-mark layer_51_marks"><path d="M80.08875238895416,109.99242638125362L139.07513773441315,140.26263188152495" style="fill: none; stroke: #000000; stroke-width: 2; opacity: 1;"></path></g><g class="mark-line role-mark layer_52_marks"><path d="M139.07513773441315,140.26263188152495L204.22022420167923,152.032543934807" style="fill: none; stroke: #000000; stroke-width: 2; opacity: 1;"></path></g><g class="mark-line role-mark layer_53_marks"><path d="M204.22022420167923,152.032543934807L269.3653106689453,140.26263188152495" style="fill: none; stroke: #000000; stroke-width: 2; opacity: 1;"></path></g><g class="mark-line role-mark layer_54_marks"><path d="M269.3653106689453,140.26263188152495L328.3516960144043,109.99242638125362" style="fill: none; stroke: #000000; stroke-width: 2; opacity: 1;"></path></g><g class="mark-line role-mark layer_55_marks"><path d="M328.3516960144043,109.99242638125362L350.83975517749786,52.06201324264311" style="fill: none; stroke: #000000; stroke-width: 2; opacity: 1;"></path></g><g class="mark-symbol role-mark layer_56_marks"><path transform="translate(-10.246709529310465,23.462548123648954)" d="M0.5,0A0.5,0.5,0,1,1,-0.5,0A0.5,0.5,0,1,1,0.5,0" style="fill: #0096C7; stroke-width: 2; opacity: 0;"></path><path transform="translate(52.45123016834259,2.246086779345596)" d="M0.5,0A0.5,0.5,0,1,1,-0.5,0A0.5,0.5,0,1,1,0.5,0" style="fill: #0096C7; stroke-width: 2; opacity: 0;"></path><path transform="translate(110.15219783782959,7.377184221860223)" d="M0.5,0A0.5,0.5,0,1,1,-0.5,0A0.5,0.5,0,1,1,0.5,0" style="fill: #0096C7; stroke-width: 2; opacity: 0;"></path><path transform="translate(168.40897196531296,17.774705630469)" d="M0.5,0A0.5,0.5,0,1,1,-0.5,0A0.5,0.5,0,1,1,0.5,0" style="fill: #0096C7; stroke-width: 2; opacity: 0;"></path><path transform="translate(230.25584053993225,19.76219459904731)" d="M0.5,0A0.5,0.5,0,1,1,-0.5,0A0.5,0.5,0,1,1,0.5,0" style="fill: #0096C7; stroke-width: 2; opacity: 0;"></path><path transform="translate(292.76308703422546,9.050027328931353)" d="M0.5,0A0.5,0.5,0,1,1,-0.5,0A0.5,0.5,0,1,1,0.5,0" style="fill: #0096C7; stroke-width: 2; opacity: 0;"></path><path transform="translate(354.8285744190216,3.7015045158779194)" d="M0.5,0A0.5,0.5,0,1,1,-0.5,0A0.5,0.5,0,1,1,0.5,0" style="fill: #0096C7; stroke-width: 2; opacity: 0;"></path><path transform="translate(417.2515159845352,15.09660245643813)" d="M0.5,0A0.5,0.5,0,1,1,-0.5,0A0.5,0.5,0,1,1,0.5,0" style="fill: #0096C7; stroke-width: 2; opacity: 0;"></path><path transform="translate(61.78301857411862,50.08550607541866)" d="M0.5,0A0.5,0.5,0,1,1,-0.5,0A0.5,0.5,0,1,1,0.5,0" style="fill: #0096C7; stroke-width: 2; opacity: 0;"></path><path transform="translate(79.11533349752426,111.38586291356347)" d="M0.5,0A0.5,0.5,0,1,1,-0.5,0A0.5,0.5,0,1,1,0.5,0" style="fill: #0096C7; stroke-width: 2; opacity: 0;"></path><path transform="translate(134.27782171964645,138.44598047385136)" d="M0.5,0A0.5,0.5,0,1,1,-0.5,0A0.5,0.5,0,1,1,0.5,0" style="fill: #0096C7; stroke-width: 2; opacity: 0;"></path><path transform="translate(199.5096822977066,151.0559460615858)" d="M0.5,0A0.5,0.5,0,1,1,-0.5,0A0.5,0.5,0,1,1,0.5,0" style="fill: #0096C7; stroke-width: 2; opacity: 0;"></path><path transform="translate(268.53598618507385,140.79644559772515)" d="M0.5,0A0.5,0.5,0,1,1,-0.5,0A0.5,0.5,0,1,1,0.5,0" style="fill: #0096C7; stroke-width: 2; opacity: 0;"></path><path transform="translate(327.58794915676117,110.1933290330753)" d="M0.5,0A0.5,0.5,0,1,1,-0.5,0A0.5,0.5,0,1,1,0.5,0" style="fill: #0096C7; stroke-width: 2; opacity: 0;"></path><path transform="translate(354.33496248722076,51.08697054412317)" d="M0.5,0A0.5,0.5,0,1,1,-0.5,0A0.5,0.5,0,1,1,0.5,0" style="fill: #0096C7; stroke-width: 2; opacity: 0;"></path></g><g class="mark-line role-mark layer_57_marks"><path d="M-10.246709529310465,23.462548123648954L52.45123016834259,2.246086779345596" style="fill: none; stroke: #0096C7; stroke-width: 2; opacity: 1;"></path></g><g class="mark-line role-mark layer_58_marks"><path d="M-10.246709529310465,23.462548123648954L61.78301857411862,50.08550607541866" style="fill: none; stroke: #0096C7; stroke-width: 2; opacity: 1;"></path></g><g class="mark-line role-mark layer_59_marks"><path d="M52.45123016834259,2.246086779345596L110.15219783782959,7.377184221860223" style="fill: none; stroke: #0096C7; stroke-width: 2; opacity: 1;"></path></g><g class="mark-line role-mark layer_60_marks"><path d="M52.45123016834259,2.246086779345596L61.78301857411862,50.08550607541866" style="fill: none; stroke: #0096C7; stroke-width: 2; opacity: 1;"></path></g><g class="mark-line role-mark layer_61_marks"><path d="M52.45123016834259,2.246086779345596L79.11533349752426,111.38586291356347" style="fill: none; stroke: #0096C7; stroke-width: 2; opacity: 1;"></path></g><g class="mark-line role-mark layer_62_marks"><path d="M110.15219783782959,7.377184221860223L168.40897196531296,17.774705630469" style="fill: none; stroke: #0096C7; stroke-width: 2; opacity: 1;"></path></g><g class="mark-line role-mark layer_63_marks"><path d="M79.11533349752426,111.38586291356347L110.15219783782959,7.377184221860223" style="fill: none; stroke: #0096C7; stroke-width: 2; opacity: 1;"></path></g><g class="mark-line role-mark layer_64_marks"><path d="M110.15219783782959,7.377184221860223L134.27782171964645,138.44598047385136" style="fill: none; stroke: #0096C7; stroke-width: 2; opacity: 1;"></path></g><g class="mark-line role-mark layer_65_marks"><path d="M168.40897196531296,17.774705630469L230.25584053993225,19.76219459904731" style="fill: none; stroke: #0096C7; stroke-width: 2; opacity: 1;"></path></g><g class="mark-line role-mark layer_66_marks"><path d="M134.27782171964645,138.44598047385136L168.40897196531296,17.774705630469" style="fill: none; stroke: #0096C7; stroke-width: 2; opacity: 1;"></path></g><g class="mark-line role-mark layer_67_marks"><path d="M168.40897196531296,17.774705630469L199.5096822977066,151.0559460615858" style="fill: none; stroke: #0096C7; stroke-width: 2; opacity: 1;"></path></g><g class="mark-line role-mark layer_68_marks"><path d="M230.25584053993225,19.76219459904731L292.76308703422546,9.050027328931353" style="fill: none; stroke: #0096C7; stroke-width: 2; opacity: 1;"></path></g><g class="mark-line role-mark layer_69_marks"><path d="M199.5096822977066,151.0559460615858L230.25584053993225,19.76219459904731" style="fill: none; stroke: #0096C7; stroke-width: 2; opacity: 1;"></path></g><g class="mark-line role-mark layer_70_marks"><path d="M230.25584053993225,19.76219459904731L268.53598618507385,140.79644559772515" style="fill: none; stroke: #0096C7; stroke-width: 2; opacity: 1;"></path></g><g class="mark-line role-mark layer_71_marks"><path d="M292.76308703422546,9.050027328931353L354.8285744190216,3.7015045158779194" style="fill: none; stroke: #0096C7; stroke-width: 2; opacity: 1;"></path></g><g class="mark-line role-mark layer_72_marks"><path d="M268.53598618507385,140.79644559772515L292.76308703422546,9.050027328931353" style="fill: none; stroke: #0096C7; stroke-width: 2; opacity: 1;"></path></g><g class="mark-line role-mark layer_73_marks"><path d="M292.76308703422546,9.050027328931353L327.58794915676117,110.1933290330753" style="fill: none; stroke: #0096C7; stroke-width: 2; opacity: 1;"></path></g><g class="mark-line role-mark layer_74_marks"><path d="M354.8285744190216,3.7015045158779194L417.2515159845352,15.09660245643813" style="fill: none; stroke: #0096C7; stroke-width: 2; opacity: 1;"></path></g><g class="mark-line role-mark layer_75_marks"><path d="M327.58794915676117,110.1933290330753L354.8285744190216,3.7015045158779194" style="fill: none; stroke: #0096C7; stroke-width: 2; opacity: 1;"></path></g><g class="mark-line role-mark layer_76_marks"><path d="M354.33496248722076,51.08697054412317L354.8285744190216,3.7015045158779194" style="fill: none; stroke: #0096C7; stroke-width: 2; opacity: 1;"></path></g><g class="mark-line role-mark layer_77_marks"><path d="M354.33496248722076,51.08697054412317L417.2515159845352,15.09660245643813" style="fill: none; stroke: #0096C7; stroke-width: 2; opacity: 1;"></path></g><g class="mark-line role-mark layer_78_marks"><path d="M61.78301857411862,50.08550607541866L79.11533349752426,111.38586291356347" style="fill: none; stroke: #0096C7; stroke-width: 2; opacity: 1;"></path></g><g class="mark-line role-mark layer_79_marks"><path d="M79.11533349752426,111.38586291356347L134.27782171964645,138.44598047385136" style="fill: none; stroke: #0096C7; stroke-width: 2; opacity: 1;"></path></g><g class="mark-line role-mark layer_80_marks"><path d="M134.27782171964645,138.44598047385136L199.5096822977066,151.0559460615858" style="fill: none; stroke: #0096C7; stroke-width: 2; opacity: 1;"></path></g><g class="mark-line role-mark layer_81_marks"><path d="M199.5096822977066,151.0559460615858L268.53598618507385,140.79644559772515" style="fill: none; stroke: #0096C7; stroke-width: 2; opacity: 1;"></path></g><g class="mark-line role-mark layer_82_marks"><path d="M268.53598618507385,140.79644559772515L327.58794915676117,110.1933290330753" style="fill: none; stroke: #0096C7; stroke-width: 2; opacity: 1;"></path></g><g class="mark-line role-mark layer_83_marks"><path d="M327.58794915676117,110.1933290330753L354.33496248722076,51.08697054412317" style="fill: none; stroke: #0096C7; stroke-width: 2; opacity: 1;"></path></g></g><path class="foreground" d="" style="display: none; fill: none;"></path></g></g></g></svg>