<svg class="marks" width="445.3125" height="156.66696935892105" viewBox="0 0 445.3125 156.66696935892105" version="1.1" xmlns="http://www.w3.org/2000/svg" xmlns:xlink="http://www.w3.org/1999/xlink"><rect width="445.3125" height="156.66696935892105" style="fill: white;"></rect><g transform="translate(7,11)"><g class="mark-group role-frame root"><g transform="translate(0,0)"><path class="background" d="M0.5,0.5h401.3125v124.66696935892105h-401.3125Z" style="fill: none; stroke: #ddd; stroke-opacity: 0;"></path><g><g class="mark-symbol role-mark layer_0_marks"><path transform="translate(0,0)" d="M0.5,0A0.5,0.5,0,1,1,-0.5,0A0.5,0.5,0,1,1,0.5,0" style="fill: #C7D5E5; stroke-width: 2; opacity: 0;"></path><path transform="translate(57.33035659611225,0)" d="M0.5,0A0.5,0.5,0,1,1,-0.5,0A0.5,0.5,0,1,1,0.5,0" style="fill: #C7D5E5; stroke-width: 2; opacity: 0;"></path><path transform="translate(114.6607131922245,0)" d="M0.5,0A0.5,0.5,0,1,1,-0.5,0A0.5,0.5,0,1,1,0.5,0" style="fill: #C7D5E5; stroke-width: 2; opacity: 0;"></path><path transform="translate(171.991073615551,0)" d="M0.5,0A0.5,0.5,0,1,1,-0.5,0A0.5,0.5,0,1,1,0.5,0" style="fill: #C7D5E5; stroke-width: 2; opacity: 0;"></path><path transform="translate(229.321426384449,0)" d="M0.5,0A0.5,0.5,0,1,1,-0.5,0A0.5,0.5,0,1,1,0.5,0" style="fill: #C7D5E5; stroke-width: 2; opacity: 0;"></path><path transform="translate(286.651794462204,0)" d="M0.5,0A0.5,0.5,0,1,1,-0.5,0A0.5,0.5,0,1,1,0.5,0" style="fill: #C7D5E5; stroke-width: 2; opacity: 0;"></path><path transform="translate(343.982147231102,0)" d="M0.5,0A0.5,0.5,0,1,1,-0.5,0A0.5,0.5,0,1,1,0.5,0" style="fill: #C7D5E5; stroke-width: 2; opacity: 0;"></path><path transform="translate(401.3125,0)" d="M0.5,0A0.5,0.5,0,1,1,-0.5,0A0.5,0.5,0,1,1,0.5,0" style="fill: #C7D5E5; stroke-width: 2; opacity: 0;"></path><path transform="translate(18.96241327255964,69.68562167516549)" d="M0.5,0A0.5,0.5,0,1,1,-0.5,0A0.5,0.5,0,1,1,0.5,0" style="fill: #C7D5E5; stroke-width: 2; opacity: 0;"></path><path transform="translate(59.28062842905521,124.66696935892105)" d="M0.5,0A0.5,0.5,0,1,1,-0.5,0A0.5,0.5,0,1,1,0.5,0" style="fill: #C7D5E5; stroke-width: 2; opacity: 0;"></path><path transform="translate(128.6000933933258,105.82494408929306)" d="M0.5,0A0.5,0.5,0,1,1,-0.5,0A0.5,0.5,0,1,1,0.5,0" style="fill: #C7D5E5; stroke-width: 2; opacity: 0;"></path><path transform="translate(200.65625,77.95815036417137)" d="M0.5,0A0.5,0.5,0,1,1,-0.5,0A0.5,0.5,0,1,1,0.5,0" style="fill: #C7D5E5; stroke-width: 2; opacity: 0;"></path><path transform="translate(272.71240660667416,105.82495084808265)" d="M0.5,0A0.5,0.5,0,1,1,-0.5,0A0.5,0.5,0,1,1,0.5,0" style="fill: #C7D5E5; stroke-width: 2; opacity: 0;"></path><path transform="translate(342.03186008930203,124.66696935892105)" d="M0.5,0A0.5,0.5,0,1,1,-0.5,0A0.5,0.5,0,1,1,0.5,0" style="fill: #C7D5E5; stroke-width: 2; opacity: 0;"></path><path transform="translate(382.3500924682617,69.68562167516549)" d="M0.5,0A0.5,0.5,0,1,1,-0.5,0A0.5,0.5,0,1,1,0.5,0" style="fill: #C7D5E5; stroke-width: 2; opacity: 0;"></path></g><g class="mark-line role-mark layer_1_marks"><path d="M0,0L57.33035659611225,0" style="fill: none; stroke: #C7D5E5; stroke-width: 2; opacity: 1;"></path></g><g class="mark-line role-mark layer_2_marks"><path d="M0,0L18.96241327255964,69.68562167516549" style="fill: none; stroke: #C7D5E5; stroke-width: 2; opacity: 1;"></path></g><g class="mark-line role-mark layer_3_marks"><path d="M57.33035659611225,0L114.6607131922245,0" style="fill: none; stroke: #C7D5E5; stroke-width: 2; opacity: 1;"></path></g><g class="mark-line role-mark layer_4_marks"><path d="M18.96241327255964,69.68562167516549L57.33035659611225,0" style="fill: none; stroke: #C7D5E5; stroke-width: 2; opacity: 1;"></path></g><g class="mark-line role-mark layer_5_marks"><path d="M57.33035659611225,0L59.28062842905521,124.66696935892105" style="fill: none; stroke: #C7D5E5; stroke-width: 2; opacity: 1;"></path></g><g class="mark-line role-mark layer_6_marks"><path d="M114.6607131922245,0L171.991073615551,0" style="fill: none; stroke: #C7D5E5; stroke-width: 2; opacity: 1;"></path></g><g class="mark-line role-mark layer_7_marks"><path d="M59.28062842905521,124.66696935892105L114.6607131922245,0" style="fill: none; stroke: #C7D5E5; stroke-width: 2; opacity: 1;"></path></g><g class="mark-line role-mark layer_8_marks"><path d="M114.6607131922245,0L128.6000933933258,105.82494408929306" style="fill: none; stroke: #C7D5E5; stroke-width: 2; opacity: 1;"></path></g><g class="mark-line role-mark layer_9_marks"><path d="M171.991073615551,0L229.321426384449,0" style="fill: none; stroke: #C7D5E5; stroke-width: 2; opacity: 1;"></path></g><g class="mark-line role-mark layer_10_marks"><path d="M128.6000933933258,105.82494408929306L171.991073615551,0" style="fill: none; stroke: #C7D5E5; stroke-width: 2; opacity: 1;"></path></g><g class="mark-line role-mark layer_11_marks"><path d="M171.991073615551,0L200.65625,77.95815036417137" style="fill: none; stroke: #C7D5E5; stroke-width: 2; opacity: 1;"></path></g><g class="mark-line role-mark layer_12_marks"><path d="M229.321426384449,0L286.651794462204,0" style="fill: none; stroke: #C7D5E5; stroke-width: 2; opacity: 1;"></path></g><g class="mark-line role-mark layer_13_marks"><path d="M200.65625,77.95815036417137L229.321426384449,0" style="fill: none; stroke: #C7D5E5; stroke-width: 2; opacity: 1;"></path></g><g class="mark-line role-mark layer_14_marks"><path d="M229.321426384449,0L272.71240660667416,105.82495084808265" style="fill: none; stroke: #C7D5E5; stroke-width: 2; opacity: 1;"></path></g><g class="mark-line role-mark layer_15_marks"><path d="M286.651794462204,0L343.982147231102,0" style="fill: none; stroke: #C7D5E5; stroke-width: 2; opacity: 1;"></path></g><g class="mark-line role-mark layer_16_marks"><path d="M272.71240660667416,105.82495084808265L286.651794462204,0" style="fill: none; stroke: #C7D5E5; stroke-width: 2; opacity: 1;"></path></g><g class="mark-line role-mark layer_17_marks"><path d="M286.651794462204,0L342.03186008930203,124.66696935892105" style="fill: none; stroke: #C7D5E5; stroke-width: 2; opacity: 1;"></path></g><g class="mark-line role-mark layer_18_marks"><path d="M343.982147231102,0L401.3125,0" style="fill: none; stroke: #C7D5E5; stroke-width: 2; opacity: 1;"></path></g><g class="mark-line role-mark layer_19_marks"><path d="M342.03186008930203,124.66696935892105L343.982147231102,0" style="fill: none; stroke: #C7D5E5; stroke-width: 2; opacity: 1;"></path></g><g class="mark-line role-mark layer_20_marks"><path d="M343.982147231102,0L382.3500924682617,69.68562167516549" style="fill: none; stroke: #C7D5E5; stroke-width: 2; opacity: 1;"></path></g><g class="mark-line role-mark layer_21_marks"><path d="M382.3500924682617,69.68562167516549L401.3125,0" style="fill: none; stroke: #C7D5E5; stroke-width: 2; opacity: 1;"></path></g><g class="mark-line role-mark layer_22_marks"><path d="M18.96241327255964,69.68562167516549L59.28062842905521,124.66696935892105" style="fill: none; stroke: #C7D5E5; stroke-width: 2; opacity: 1;"></path></g><g class="mark-line role-mark layer_23_marks"><path d="M59.28062842905521,124.66696935892105L128.6000933933258,105.82494408929306" style="fill: none; stroke: #C7D5E5; stroke-width: 2; opacity: 1;"></path></g><g class="mark-line role-mark layer_24_marks"><path d="M128.6000933933258,105.82494408929306L200.65625,77.95815036417137" style="fill: none; stroke: #C7D5E5; stroke-width: 2; opacity: 1;"></path></g><g class="mark-line role-mark layer_25_marks"><path d="M200.65625,77.95815036417137L272.71240660667416,105.82495084808265" style="fill: none; stroke: #C7D5E5; stroke-width: 2; opacity: 1;"></path></g><g class="mark-line role-mark layer_26_marks"><path d="M272.71240660667416,105.82495084808265L342.03186008930203,124.66696935892105" style="fill: none; stroke: #C7D5E5; stroke-width: 2; opacity: 1;"></path></g><g class="mark-line role-mark layer_27_marks"><path d="M342.03186008930203,124.66696935892105L382.3500924682617,69.68562167516549" style="fill: none; stroke: #C7D5E5; stroke-width: 2; opacity: 1;"></path></g><g class="mark-symbol role-mark layer_28_marks"><path transform="translate(23.28753660470247,-1.0001996922782581)" d="M0.5,0A0.5,0.5,0,1,1,-0.5,0A0.5,0.5,0,1,1,0.5,0" style="fill: #000000; stroke-width: 2; opacity: 0;"></path><path transform="translate(81.18615223050116,6.701347928600261)" d="M0.5,0A0.5,0.5,0,1,1,-0.5,0A0.5,0.5,0,1,1,0.5,0" style="fill: #000000; stroke-width: 2; opacity: 0;"></path><path transform="translate(139.5422060704231,22.149315619455088)" d="M0.5,0A0.5,0.5,0,1,1,-0.5,0A0.5,0.5,0,1,1,0.5,0" style="fill: #000000; stroke-width: 2; opacity: 0;"></path><path transform="translate(195.6200953245163,40.192811862224666)" d="M0.5,0A0.5,0.5,0,1,1,-0.5,0A0.5,0.5,0,1,1,0.5,0" style="fill: #000000; stroke-width: 2; opacity: 0;"></path><path transform="translate(250.08790616512297,40.192811862224666)" d="M0.5,0A0.5,0.5,0,1,1,-0.5,0A0.5,0.5,0,1,1,0.5,0" style="fill: #000000; stroke-width: 2; opacity: 0;"></path><path transform="translate(306.16581072807315,22.149315619455088)" d="M0.5,0A0.5,0.5,0,1,1,-0.5,0A0.5,0.5,0,1,1,0.5,0" style="fill: #000000; stroke-width: 2; opacity: 0;"></path><path transform="translate(364.5218569135666,6.701347928600261)" d="M0.5,0A0.5,0.5,0,1,1,-0.5,0A0.5,0.5,0,1,1,0.5,0" style="fill: #000000; stroke-width: 2; opacity: 0;"></path><path transform="translate(422.4204744529724,-1.0001994810660804)" d="M0.5,0A0.5,0.5,0,1,1,-0.5,0A0.5,0.5,0,1,1,0.5,0" style="fill: #000000; stroke-width: 2; opacity: 0;"></path><path transform="translate(23.534967918992045,69.52872313306008)" d="M0.5,0A0.5,0.5,0,1,1,-0.5,0A0.5,0.5,0,1,1,0.5,0" style="fill: #000000; stroke-width: 2; opacity: 0;"></path><path transform="translate(59.28062842905521,124.66696935892105)" d="M0.5,0A0.5,0.5,0,1,1,-0.5,0A0.5,0.5,0,1,1,0.5,0" style="fill: #000000; stroke-width: 2; opacity: 0;"></path><path transform="translate(139.86021695613863,134.3747675752525)" d="M0.5,0A0.5,0.5,0,1,1,-0.5,0A0.5,0.5,0,1,1,0.5,0" style="fill: #000000; stroke-width: 2; opacity: 0;"></path><path transform="translate(222.85400074481964,120.2960195626422)" d="M0.5,0A0.5,0.5,0,1,1,-0.5,0A0.5,0.5,0,1,1,0.5,0" style="fill: #000000; stroke-width: 2; opacity: 0;"></path><path transform="translate(305.84778453350066,134.3747675752525)" d="M0.5,0A0.5,0.5,0,1,1,-0.5,0A0.5,0.5,0,1,1,0.5,0" style="fill: #000000; stroke-width: 2; opacity: 0;"></path><path transform="translate(386.4273615789413,124.66696935892105)" d="M0.5,0A0.5,0.5,0,1,1,-0.5,0A0.5,0.5,0,1,1,0.5,0" style="fill: #000000; stroke-width: 2; opacity: 0;"></path><path transform="translate(422.1730220890045,69.52872989184971)" d="M0.5,0A0.5,0.5,0,1,1,-0.5,0A0.5,0.5,0,1,1,0.5,0" style="fill: #000000; stroke-width: 2; opacity: 0;"></path></g><g class="mark-line role-mark layer_29_marks"><path d="M23.28753660470247,-1.0001996922782581L81.18615223050116,6.701347928600261" style="fill: none; stroke: #000000; stroke-width: 2; opacity: 1;"></path></g><g class="mark-line role-mark layer_30_marks"><path d="M23.28753660470247,-1.0001996922782581L23.534967918992045,69.52872313306008" style="fill: none; stroke: #000000; stroke-width: 2; opacity: 1;"></path></g><g class="mark-line role-mark layer_31_marks"><path d="M81.18615223050116,6.701347928600261L139.5422060704231,22.149315619455088" style="fill: none; stroke: #000000; stroke-width: 2; opacity: 1;"></path></g><g class="mark-line role-mark layer_32_marks"><path d="M23.534967918992045,69.52872313306008L81.18615223050116,6.701347928600261" style="fill: none; stroke: #000000; stroke-width: 2; opacity: 1;"></path></g><g class="mark-line role-mark layer_33_marks"><path d="M59.28062842905521,124.66696935892105L81.18615223050116,6.701347928600261" style="fill: none; stroke: #000000; stroke-width: 2; opacity: 1;"></path></g><g class="mark-line role-mark layer_34_marks"><path d="M139.5422060704231,22.149315619455088L195.6200953245163,40.192811862224666" style="fill: none; stroke: #000000; stroke-width: 2; opacity: 1;"></path></g><g class="mark-line role-mark layer_35_marks"><path d="M59.28062842905521,124.66696935892105L139.5422060704231,22.149315619455088" style="fill: none; stroke: #000000; stroke-width: 2; opacity: 1;"></path></g><g class="mark-line role-mark layer_36_marks"><path d="M139.5422060704231,22.149315619455088L139.86021695613863,134.3747675752525" style="fill: none; stroke: #000000; stroke-width: 2; opacity: 1;"></path></g><g class="mark-line role-mark layer_37_marks"><path d="M195.6200953245163,40.192811862224666L250.08790616512297,40.192811862224666" style="fill: none; stroke: #000000; stroke-width: 2; opacity: 1;"></path></g><g class="mark-line role-mark layer_38_marks"><path d="M139.86021695613863,134.3747675752525L195.6200953245163,40.192811862224666" style="fill: none; stroke: #000000; stroke-width: 2; opacity: 1;"></path></g><g class="mark-line role-mark layer_39_marks"><path d="M195.6200953245163,40.192811862224666L222.85400074481964,120.2960195626422" style="fill: none; stroke: #000000; stroke-width: 2; opacity: 1;"></path></g><g class="mark-line role-mark layer_40_marks"><path d="M250.08790616512297,40.192811862224666L306.16581072807315,22.149315619455088" style="fill: none; stroke: #000000; stroke-width: 2; opacity: 1;"></path></g><g class="mark-line role-mark layer_41_marks"><path d="M222.85400074481964,120.2960195626422L250.08790616512297,40.192811862224666" style="fill: none; stroke: #000000; stroke-width: 2; opacity: 1;"></path></g><g class="mark-line role-mark layer_42_marks"><path d="M250.08790616512297,40.192811862224666L305.84778453350066,134.3747675752525" style="fill: none; stroke: #000000; stroke-width: 2; opacity: 1;"></path></g><g class="mark-line role-mark layer_43_marks"><path d="M306.16581072807315,22.149315619455088L364.5218569135666,6.701347928600261" style="fill: none; stroke: #000000; stroke-width: 2; opacity: 1;"></path></g><g class="mark-line role-mark layer_44_marks"><path d="M305.84778453350066,134.3747675752525L306.16581072807315,22.149315619455088" style="fill: none; stroke: #000000; stroke-width: 2; opacity: 1;"></path></g><g class="mark-line role-mark layer_45_marks"><path d="M306.16581072807315,22.149315619455088L386.4273615789413,124.66696935892105" style="fill: none; stroke: #000000; stroke-width: 2; opacity: 1;"></path></g><g class="mark-line role-mark layer_46_marks"><path d="M364.5218569135666,6.701347928600261L422.4204744529724,-1.0001994810660804" style="fill: none; stroke: #000000; stroke-width: 2; opacity: 1;"></path></g><g class="mark-line role-mark layer_47_marks"><path d="M364.5218569135666,6.701347928600261L386.4273615789413,124.66696935892105" style="fill: none; stroke: #000000; stroke-width: 2; opacity: 1;"></path></g><g class="mark-line role-mark layer_48_marks"><path d="M364.5218569135666,6.701347928600261L422.1730220890045,69.52872989184971" style="fill: none; stroke: #000000; stroke-width: 2; opacity: 1;"></path></g><g class="mark-line role-mark layer_49_marks"><path d="M422.1730220890045,69.52872989184971L422.4204744529724,-1.0001994810660804" style="fill: none; stroke: #000000; stroke-width: 2; opacity: 1;"></path></g><g class="mark-line role-mark layer_50_marks"><path d="M23.534967918992045,69.52872313306008L59.28062842905521,124.66696935892105" style="fill: none; stroke: #000000; stroke-width: 2; opacity: 1;"></path></g><g class="mark-line role-mark layer_51_marks"><path d="M59.28062842905521,124.66696935892105L139.86021695613863,134.3747675752525" style="fill: none; stroke: #000000; stroke-width: 2; opacity: 1;"></path></g><g class="mark-line role-mark layer_52_marks"><path d="M139.86021695613863,134.3747675752525L222.85400074481964,120.2960195626422" style="fill: none; stroke: #000000; stroke-width: 2; opacity: 1;"></path></g><g class="mark-line role-mark layer_53_marks"><path d="M222.85400074481964,120.2960195626422L305.84778453350066,134.3747675752525" style="fill: none; stroke: #000000; stroke-width: 2; opacity: 1;"></path></g><g class="mark-line role-mark layer_54_marks"><path d="M305.84778453350066,134.3747675752525L386.4273615789413,124.66696935892105" style="fill: none; stroke: #000000; stroke-width: 2; opacity: 1;"></path></g><g class="mark-line role-mark layer_55_marks"><path d="M386.4273615789413,124.66696935892105L422.1730220890045,69.52872989184971" style="fill: none; stroke: #000000; stroke-width: 2; opacity: 1;"></path></g><g class="mark-symbol role-mark layer_56_marks"><path transform="translate(15.367538683265447,0.6564516127253468)" d="M0.5,0A0.5,0.5,0,1,1,-0.5,0A0.5,0.5,0,1,1,0.5,0" style="fill: #0096C7; stroke-width: 2; opacity: 0;"></path><path transform="translate(73.95773096561432,5.45092707298119)" d="M0.5,0A0.5,0.5,0,1,1,-0.5,0A0.5,0.5,0,1,1,0.5,0" style="fill: #0096C7; stroke-width: 2; opacity: 0;"></path><path transform="translate(133.86494708299637,18.17920766913169)" d="M0.5,0A0.5,0.5,0,1,1,-0.5,0A0.5,0.5,0,1,1,0.5,0" style="fill: #0096C7; stroke-width: 2; opacity: 0;"></path><path transform="translate(191.14280578136444,34.190827576838075)" d="M0.5,0A0.5,0.5,0,1,1,-0.5,0A0.5,0.5,0,1,1,0.5,0" style="fill: #0096C7; stroke-width: 2; opacity: 0;"></path><path transform="translate(250.2562270474434,36.05290790951444)" d="M0.5,0A0.5,0.5,0,1,1,-0.5,0A0.5,0.5,0,1,1,0.5,0" style="fill: #0096C7; stroke-width: 2; opacity: 0;"></path><path transform="translate(308.09757415294644,23.329714569821743)" d="M0.5,0A0.5,0.5,0,1,1,-0.5,0A0.5,0.5,0,1,1,0.5,0" style="fill: #0096C7; stroke-width: 2; opacity: 0;"></path><path transform="translate(365.0740473842621,7.020283805039665)" d="M0.5,0A0.5,0.5,0,1,1,-0.5,0A0.5,0.5,0,1,1,0.5,0" style="fill: #0096C7; stroke-width: 2; opacity: 0;"></path><path transform="translate(427.7048163175583,-2.585973946734115)" d="M0.5,0A0.5,0.5,0,1,1,-0.5,0A0.5,0.5,0,1,1,0.5,0" style="fill: #0096C7; stroke-width: 2; opacity: 0;"></path><path transform="translate(22.69044525653124,72.10801242565354)" d="M0.5,0A0.5,0.5,0,1,1,-0.5,0A0.5,0.5,0,1,1,0.5,0" style="fill: #0096C7; stroke-width: 2; opacity: 0;"></path><path transform="translate(60.68771139919758,127.02847693256385)" d="M0.5,0A0.5,0.5,0,1,1,-0.5,0A0.5,0.5,0,1,1,0.5,0" style="fill: #0096C7; stroke-width: 2; opacity: 0;"></path><path transform="translate(138.85776238441466,130.90464277634126)" d="M0.5,0A0.5,0.5,0,1,1,-0.5,0A0.5,0.5,0,1,1,0.5,0" style="fill: #0096C7; stroke-width: 2; opacity: 0;"></path><path transform="translate(220.8959979391098,115.22602167413979)" d="M0.5,0A0.5,0.5,0,1,1,-0.5,0A0.5,0.5,0,1,1,0.5,0" style="fill: #0096C7; stroke-width: 2; opacity: 0;"></path><path transform="translate(301.61044601440426,135.34804679728498)" d="M0.5,0A0.5,0.5,0,1,1,-0.5,0A0.5,0.5,0,1,1,0.5,0" style="fill: #0096C7; stroke-width: 2; opacity: 0;"></path><path transform="translate(388.5997496175766,128.28697707631804)" d="M0.5,0A0.5,0.5,0,1,1,-0.5,0A0.5,0.5,0,1,1,0.5,0" style="fill: #0096C7; stroke-width: 2; opacity: 0;"></path><path transform="translate(423.9594126081467,70.45875286035093)" d="M0.5,0A0.5,0.5,0,1,1,-0.5,0A0.5,0.5,0,1,1,0.5,0" style="fill: #0096C7; stroke-width: 2; opacity: 0;"></path></g><g class="mark-line role-mark layer_57_marks"><path d="M15.367538683265447,0.6564516127253468L73.95773096561432,5.45092707298119" style="fill: none; stroke: #0096C7; stroke-width: 2; opacity: 1;"></path></g><g class="mark-line role-mark layer_58_marks"><path d="M15.367538683265447,0.6564516127253468L22.69044525653124,72.10801242565354" style="fill: none; stroke: #0096C7; stroke-width: 2; opacity: 1;"></path></g><g class="mark-line role-mark layer_59_marks"><path d="M73.95773096561432,5.45092707298119L133.86494708299637,18.17920766913169" style="fill: none; stroke: #0096C7; stroke-width: 2; opacity: 1;"></path></g><g class="mark-line role-mark layer_60_marks"><path d="M22.69044525653124,72.10801242565354L73.95773096561432,5.45092707298119" style="fill: none; stroke: #0096C7; stroke-width: 2; opacity: 1;"></path></g><g class="mark-line role-mark layer_61_marks"><path d="M60.68771139919758,127.02847693256385L73.95773096561432,5.45092707298119" style="fill: none; stroke: #0096C7; stroke-width: 2; opacity: 1;"></path></g><g class="mark-line role-mark layer_62_marks"><path d="M133.86494708299637,18.17920766913169L191.14280578136444,34.190827576838075" style="fill: none; stroke: #0096C7; stroke-width: 2; opacity: 1;"></path></g><g class="mark-line role-mark layer_63_marks"><path d="M60.68771139919758,127.02847693256385L133.86494708299637,18.17920766913169" style="fill: none; stroke: #0096C7; stroke-width: 2; opacity: 1;"></path></g><g class="mark-line role-mark layer_64_marks"><path d="M133.86494708299637,18.17920766913169L138.85776238441466,130.90464277634126" style="fill: none; stroke: #0096C7; stroke-width: 2; opacity: 1;"></path></g><g class="mark-line role-mark layer_65_marks"><path d="M191.14280578136444,34.190827576838075L250.2562270474434,36.05290790951444" style="fill: none; stroke: #0096C7; stroke-width: 2; opacity: 1;"></path></g><g class="mark-line role-mark layer_66_marks"><path d="M138.85776238441466,130.90464277634126L191.14280578136444,34.190827576838075" style="fill: none; stroke: #0096C7; stroke-width: 2; opacity: 1;"></path></g><g class="mark-line role-mark layer_67_marks"><path d="M191.14280578136444,34.190827576838075L220.8959979391098,115.22602167413979" style="fill: none; stroke: #0096C7; stroke-width: 2; opacity: 1;"></path></g><g class="mark-line role-mark layer_68_marks"><path d="M250.2562270474434,36.05290790951444L308.09757415294644,23.329714569821743" style="fill: none; stroke: #0096C7; stroke-width: 2; opacity: 1;"></path></g><g class="mark-line role-mark layer_69_marks"><path d="M220.8959979391098,115.22602167413979L250.2562270474434,36.05290790951444" style="fill: none; stroke: #0096C7; stroke-width: 2; opacity: 1;"></path></g><g class="mark-line role-mark layer_70_marks"><path d="M250.2562270474434,36.05290790951444L301.61044601440426,135.34804679728498" style="fill: none; stroke: #0096C7; stroke-width: 2; opacity: 1;"></path></g><g class="mark-line role-mark layer_71_marks"><path d="M308.09757415294644,23.329714569821743L365.0740473842621,7.020283805039665" style="fill: none; stroke: #0096C7; stroke-width: 2; opacity: 1;"></path></g><g class="mark-line role-mark layer_72_marks"><path d="M301.61044601440426,135.34804679728498L308.09757415294644,23.329714569821743" style="fill: none; stroke: #0096C7; stroke-width: 2; opacity: 1;"></path></g><g class="mark-line role-mark layer_73_marks"><path d="M308.09757415294644,23.329714569821743L388.5997496175766,128.28697707631804" style="fill: none; stroke: #0096C7; stroke-width: 2; opacity: 1;"></path></g><g class="mark-line role-mark layer_74_marks"><path d="M365.0740473842621,7.020283805039665L427.7048163175583,-2.585973946734115" style="fill: none; stroke: #0096C7; stroke-width: 2; opacity: 1;"></path></g><g class="mark-line role-mark layer_75_marks"><path d="M365.0740473842621,7.020283805039665L388.5997496175766,128.28697707631804" style="fill: none; stroke: #0096C7; stroke-width: 2; opacity: 1;"></path></g><g class="mark-line role-mark layer_76_marks"><path d="M365.0740473842621,7.020283805039665L423.9594126081467,70.45875286035093" style="fill: none; stroke: #0096C7; stroke-width: 2; opacity: 1;"></path></g><g class="mark-line role-mark layer_77_marks"><path d="M423.9594126081467,70.45875286035093L427.7048163175583,-2.585973946734115" style="fill: none; stroke: #0096C7; stroke-width: 2; opacity: 1;"></path></g><g class="mark-line role-mark layer_78_marks"><path d="M22.69044525653124,72.10801242565354L60.68771139919758,127.02847693256385" style="fill: none; stroke: #0096C7; stroke-width: 2; opacity: 1;"></path></g><g class="mark-line role-mark layer_79_marks"><path d="M60.68771139919758,127.02847693256385L138.85776238441466,130.90464277634126" style="fill: none; stroke: #0096C7; stroke-width: 2; opacity: 1;"></path></g><g class="mark-line role-mark layer_80_marks"><path d="M138.85776238441466,130.90464277634126L220.8959979391098,115.22602167413979" style="fill: none; stroke: #0096C7; stroke-width: 2; opacity: 1;"></path></g><g class="mark-line role-mark layer_81_marks"><path d="M220.8959979391098,115.22602167413979L301.61044601440426,135.34804679728498" style="fill: none; stroke: #0096C7; stroke-width: 2; opacity: 1;"></path></g><g class="mark-line role-mark layer_82_marks"><path d="M301.61044601440426,135.34804679728498L388.5997496175766,128.28697707631804" style="fill: none; stroke: #0096C7; stroke-width: 2; opacity: 1;"></path></g><g class="mark-line role-mark layer_83_marks"><path d="M388.5997496175766,128.28697707631804L423.9594126081467,70.45875286035093" style="fill: none; stroke: #0096C7; stroke-width: 2; opacity: 1;"></path></g></g><path class="foreground" d="" style="display: none; fill: none;"></path></g></g></g></svg>