<svg class="marks" width="445.3125" height="131.78093075752258" viewBox="0 0 445.3125 131.78093075752258" version="1.1" xmlns="http://www.w3.org/2000/svg" xmlns:xlink="http://www.w3.org/1999/xlink"><rect width="445.3125" height="131.78093075752258" style="fill: white;"></rect><g transform="translate(51,7)"><g class="mark-group role-frame root"><g transform="translate(0,0)"><path class="background" d="M0.5,0.5h387.3125v76.78093075752258h-387.3125Z" style="fill: none; stroke: #ddd; stroke-opacity: 0;"></path><g><g class="mark-symbol role-mark layer_0_marks"><path transform="translate(0,0)" d="M0.5,0A0.5,0.5,0,1,1,-0.5,0A0.5,0.5,0,1,1,0.5,0" style="fill: #C7D5E5; stroke-width: 2; opacity: 0;"></path><path transform="translate(55.33035661518574,0)" d="M0.5,0A0.5,0.5,0,1,1,-0.5,0A0.5,0.5,0,1,1,0.5,0" style="fill: #C7D5E5; stroke-width: 2; opacity: 0;"></path><path transform="translate(110.66071323037148,0)" d="M0.5,0A0.5,0.5,0,1,1,-0.5,0A0.5,0.5,0,1,1,0.5,0" style="fill: #C7D5E5; stroke-width: 2; opacity: 0;"></path><path transform="translate(165.99107353925703,0)" d="M0.5,0A0.5,0.5,0,1,1,-0.5,0A0.5,0.5,0,1,1,0.5,0" style="fill: #C7D5E5; stroke-width: 2; opacity: 0;"></path><path transform="translate(221.32142646074297,0)" d="M0.5,0A0.5,0.5,0,1,1,-0.5,0A0.5,0.5,0,1,1,0.5,0" style="fill: #C7D5E5; stroke-width: 2; opacity: 0;"></path><path transform="translate(276.6517941570282,0)" d="M0.5,0A0.5,0.5,0,1,1,-0.5,0A0.5,0.5,0,1,1,0.5,0" style="fill: #C7D5E5; stroke-width: 2; opacity: 0;"></path><path transform="translate(331.98214707851406,0)" d="M0.5,0A0.5,0.5,0,1,1,-0.5,0A0.5,0.5,0,1,1,0.5,0" style="fill: #C7D5E5; stroke-width: 2; opacity: 0;"></path><path transform="translate(387.3125,0)" d="M0.5,0A0.5,0.5,0,1,1,-0.5,0A0.5,0.5,0,1,1,0.5,0" style="fill: #C7D5E5; stroke-width: 2; opacity: 0;"></path><path transform="translate(32.49249493956566,54.03491836684305)" d="M0.5,0A0.5,0.5,0,1,1,-0.5,0A0.5,0.5,0,1,1,0.5,0" style="fill: #C7D5E5; stroke-width: 2; opacity: 0;"></path><path transform="translate(94.3805021905899,36.89529866170727)" d="M0.5,0A0.5,0.5,0,1,1,-0.5,0A0.5,0.5,0,1,1,0.5,0" style="fill: #C7D5E5; stroke-width: 2; opacity: 0;"></path><path transform="translate(139.72582409143448,76.78093075752258)" d="M0.5,0A0.5,0.5,0,1,1,-0.5,0A0.5,0.5,0,1,1,0.5,0" style="fill: #C7D5E5; stroke-width: 2; opacity: 0;"></path><path transform="translate(193.65625,67.45886592367953)" d="M0.5,0A0.5,0.5,0,1,1,-0.5,0A0.5,0.5,0,1,1,0.5,0" style="fill: #C7D5E5; stroke-width: 2; opacity: 0;"></path><path transform="translate(247.58669068336488,76.78092580876967)" d="M0.5,0A0.5,0.5,0,1,1,-0.5,0A0.5,0.5,0,1,1,0.5,0" style="fill: #C7D5E5; stroke-width: 2; opacity: 0;"></path><path transform="translate(292.93199780941006,36.895301136083724)" d="M0.5,0A0.5,0.5,0,1,1,-0.5,0A0.5,0.5,0,1,1,0.5,0" style="fill: #C7D5E5; stroke-width: 2; opacity: 0;"></path><path transform="translate(354.81999767303466,54.03491836684305)" d="M0.5,0A0.5,0.5,0,1,1,-0.5,0A0.5,0.5,0,1,1,0.5,0" style="fill: #C7D5E5; stroke-width: 2; opacity: 0;"></path></g><g class="mark-line role-mark layer_1_marks"><path d="M0,0L55.33035661518574,0" style="fill: none; stroke: #C7D5E5; stroke-width: 2; opacity: 1;"></path></g><g class="mark-line role-mark layer_2_marks"><path d="M0,0L32.49249493956566,54.03491836684305" style="fill: none; stroke: #C7D5E5; stroke-width: 2; opacity: 1;"></path></g><g class="mark-line role-mark layer_3_marks"><path d="M55.33035661518574,0L110.66071323037148,0" style="fill: none; stroke: #C7D5E5; stroke-width: 2; opacity: 1;"></path></g><g class="mark-line role-mark layer_4_marks"><path d="M32.49249493956566,54.03491836684305L55.33035661518574,0" style="fill: none; stroke: #C7D5E5; stroke-width: 2; opacity: 1;"></path></g><g class="mark-line role-mark layer_5_marks"><path d="M55.33035661518574,0L94.3805021905899,36.89529866170727" style="fill: none; stroke: #C7D5E5; stroke-width: 2; opacity: 1;"></path></g><g class="mark-line role-mark layer_6_marks"><path d="M110.66071323037148,0L165.99107353925703,0" style="fill: none; stroke: #C7D5E5; stroke-width: 2; opacity: 1;"></path></g><g class="mark-line role-mark layer_7_marks"><path d="M94.3805021905899,36.89529866170727L110.66071323037148,0" style="fill: none; stroke: #C7D5E5; stroke-width: 2; opacity: 1;"></path></g><g class="mark-line role-mark layer_8_marks"><path d="M110.66071323037148,0L139.72582409143448,76.78093075752258" style="fill: none; stroke: #C7D5E5; stroke-width: 2; opacity: 1;"></path></g><g class="mark-line role-mark layer_9_marks"><path d="M165.99107353925703,0L221.32142646074297,0" style="fill: none; stroke: #C7D5E5; stroke-width: 2; opacity: 1;"></path></g><g class="mark-line role-mark layer_10_marks"><path d="M139.72582409143448,76.78093075752258L165.99107353925703,0" style="fill: none; stroke: #C7D5E5; stroke-width: 2; opacity: 1;"></path></g><g class="mark-line role-mark layer_11_marks"><path d="M165.99107353925703,0L193.65625,67.45886592367953" style="fill: none; stroke: #C7D5E5; stroke-width: 2; opacity: 1;"></path></g><g class="mark-line role-mark layer_12_marks"><path d="M221.32142646074297,0L276.6517941570282,0" style="fill: none; stroke: #C7D5E5; stroke-width: 2; opacity: 1;"></path></g><g class="mark-line role-mark layer_13_marks"><path d="M193.65625,67.45886592367953L221.32142646074297,0" style="fill: none; stroke: #C7D5E5; stroke-width: 2; opacity: 1;"></path></g><g class="mark-line role-mark layer_14_marks"><path d="M221.32142646074297,0L247.58669068336488,76.78092580876967" style="fill: none; stroke: #C7D5E5; stroke-width: 2; opacity: 1;"></path></g><g class="mark-line role-mark layer_15_marks"><path d="M276.6517941570282,0L331.98214707851406,0" style="fill: none; stroke: #C7D5E5; stroke-width: 2; opacity: 1;"></path></g><g class="mark-line role-mark layer_16_marks"><path d="M247.58669068336488,76.78092580876967L276.6517941570282,0" style="fill: none; stroke: #C7D5E5; stroke-width: 2; opacity: 1;"></path></g><g class="mark-line role-mark layer_17_marks"><path d="M276.6517941570282,0L292.93199780941006,36.895301136083724" style="fill: none; stroke: #C7D5E5; stroke-width: 2; opacity: 1;"></path></g><g class="mark-line role-mark layer_18_marks"><path d="M331.98214707851406,0L387.3125,0" style="fill: none; stroke: #C7D5E5; stroke-width: 2; opacity: 1;"></path></g><g class="mark-line role-mark layer_19_marks"><path d="M292.93199780941006,36.895301136083724L331.98214707851406,0" style="fill: none; stroke: #C7D5E5; stroke-width: 2; opacity: 1;"></path></g><g class="mark-line role-mark layer_20_marks"><path d="M331.98214707851406,0L354.81999767303466,54.03491836684305" style="fill: none; stroke: #C7D5E5; stroke-width: 2; opacity: 1;"></path></g><g class="mark-line role-mark layer_21_marks"><path d="M354.81999767303466,54.03491836684305L387.3125,0" style="fill: none; stroke: #C7D5E5; stroke-width: 2; opacity: 1;"></path></g><g class="mark-line role-mark layer_22_marks"><path d="M32.49249493956566,54.03491836684305L94.3805021905899,36.89529866170727" style="fill: none; stroke: #C7D5E5; stroke-width: 2; opacity: 1;"></path></g><g class="mark-line role-mark layer_23_marks"><path d="M94.3805021905899,36.89529866170727L139.72582409143448,76.78093075752258" style="fill: none; stroke: #C7D5E5; stroke-width: 2; opacity: 1;"></path></g><g class="mark-line role-mark layer_24_marks"><path d="M139.72582409143448,76.78093075752258L193.65625,67.45886592367953" style="fill: none; stroke: #C7D5E5; stroke-width: 2; opacity: 1;"></path></g><g class="mark-line role-mark layer_25_marks"><path d="M193.65625,67.45886592367953L247.58669068336488,76.78092580876967" style="fill: none; stroke: #C7D5E5; stroke-width: 2; opacity: 1;"></path></g><g class="mark-line role-mark layer_26_marks"><path d="M247.58669068336488,76.78092580876967L292.93199780941006,36.895301136083724" style="fill: none; stroke: #C7D5E5; stroke-width: 2; opacity: 1;"></path></g><g class="mark-line role-mark layer_27_marks"><path d="M292.93199780941006,36.895301136083724L354.81999767303466,54.03491836684305" style="fill: none; stroke: #C7D5E5; stroke-width: 2; opacity: 1;"></path></g><g class="mark-symbol role-mark layer_28_marks"><path transform="translate(-37.92217090666294,59.79235688874176)" d="M0.5,0A0.5,0.5,0,1,1,-0.5,0A0.5,0.5,0,1,1,0.5,0" style="fill: #000000; stroke-width: 2; opacity: 0;"></path><path transform="translate(18.327647327780724,24.082920464010552)" d="M0.5,0A0.5,0.5,0,1,1,-0.5,0A0.5,0.5,0,1,1,0.5,0" style="fill: #000000; stroke-width: 2; opacity: 0;"></path><path transform="translate(79.18780503153802,0.20937516310945636)" d="M0.5,0A0.5,0.5,0,1,1,-0.5,0A0.5,0.5,0,1,1,0.5,0" style="fill: #000000; stroke-width: 2; opacity: 0;"></path><path transform="translate(135.94812952041627,12.329846333527682)" d="M0.5,0A0.5,0.5,0,1,1,-0.5,0A0.5,0.5,0,1,1,0.5,0" style="fill: #000000; stroke-width: 2; opacity: 0;"></path><path transform="translate(192.31072379827498,12.329845096339458)" d="M0.5,0A0.5,0.5,0,1,1,-0.5,0A0.5,0.5,0,1,1,0.5,0" style="fill: #000000; stroke-width: 2; opacity: 0;"></path><path transform="translate(249.0710556745529,0.20937684491219977)" d="M0.5,0A0.5,0.5,0,1,1,-0.5,0A0.5,0.5,0,1,1,0.5,0" style="fill: #000000; stroke-width: 2; opacity: 0;"></path><path transform="translate(309.9312022972107,24.082905617751816)" d="M0.5,0A0.5,0.5,0,1,1,-0.5,0A0.5,0.5,0,1,1,0.5,0" style="fill: #000000; stroke-width: 2; opacity: 0;"></path><path transform="translate(366.1810205316543,59.792327196224285)" d="M0.5,0A0.5,0.5,0,1,1,-0.5,0A0.5,0.5,0,1,1,0.5,0" style="fill: #000000; stroke-width: 2; opacity: 0;"></path><path transform="translate(59.38797084093093,93.54332682325095)" d="M0.5,0A0.5,0.5,0,1,1,-0.5,0A0.5,0.5,0,1,1,0.5,0" style="fill: #000000; stroke-width: 2; opacity: 0;"></path><path transform="translate(94.3805021905899,36.89529866170727)" d="M0.5,0A0.5,0.5,0,1,1,-0.5,0A0.5,0.5,0,1,1,0.5,0" style="fill: #000000; stroke-width: 2; opacity: 0;"></path><path transform="translate(110.26109184503555,86.15201793770376)" d="M0.5,0A0.5,0.5,0,1,1,-0.5,0A0.5,0.5,0,1,1,0.5,0" style="fill: #000000; stroke-width: 2; opacity: 0;"></path><path transform="translate(164.1294340467453,79.35551945956261)" d="M0.5,0A0.5,0.5,0,1,1,-0.5,0A0.5,0.5,0,1,1,0.5,0" style="fill: #000000; stroke-width: 2; opacity: 0;"></path><path transform="translate(217.9977910232544,86.15200804019793)" d="M0.5,0A0.5,0.5,0,1,1,-0.5,0A0.5,0.5,0,1,1,0.5,0" style="fill: #000000; stroke-width: 2; opacity: 0;"></path><path transform="translate(233.87838067770005,36.895301136083724)" d="M0.5,0A0.5,0.5,0,1,1,-0.5,0A0.5,0.5,0,1,1,0.5,0" style="fill: #000000; stroke-width: 2; opacity: 0;"></path><path transform="translate(268.870912027359,93.54330702823933)" d="M0.5,0A0.5,0.5,0,1,1,-0.5,0A0.5,0.5,0,1,1,0.5,0" style="fill: #000000; stroke-width: 2; opacity: 0;"></path></g><g class="mark-line role-mark layer_29_marks"><path d="M-37.92217090666294,59.79235688874176L18.327647327780724,24.082920464010552" style="fill: none; stroke: #000000; stroke-width: 2; opacity: 1;"></path></g><g class="mark-line role-mark layer_30_marks"><path d="M-37.92217090666294,59.79235688874176L59.38797084093093,93.54332682325095" style="fill: none; stroke: #000000; stroke-width: 2; opacity: 1;"></path></g><g class="mark-line role-mark layer_31_marks"><path d="M18.327647327780724,24.082920464010552L79.18780503153802,0.20937516310945636" style="fill: none; stroke: #000000; stroke-width: 2; opacity: 1;"></path></g><g class="mark-line role-mark layer_32_marks"><path d="M18.327647327780724,24.082920464010552L59.38797084093093,93.54332682325095" style="fill: none; stroke: #000000; stroke-width: 2; opacity: 1;"></path></g><g class="mark-line role-mark layer_33_marks"><path d="M18.327647327780724,24.082920464010552L94.3805021905899,36.89529866170727" style="fill: none; stroke: #000000; stroke-width: 2; opacity: 1;"></path></g><g class="mark-line role-mark layer_34_marks"><path d="M79.18780503153802,0.20937516310945636L135.94812952041627,12.329846333527682" style="fill: none; stroke: #000000; stroke-width: 2; opacity: 1;"></path></g><g class="mark-line role-mark layer_35_marks"><path d="M79.18780503153802,0.20937516310945636L94.3805021905899,36.89529866170727" style="fill: none; stroke: #000000; stroke-width: 2; opacity: 1;"></path></g><g class="mark-line role-mark layer_36_marks"><path d="M79.18780503153802,0.20937516310945636L110.26109184503555,86.15201793770376" style="fill: none; stroke: #000000; stroke-width: 2; opacity: 1;"></path></g><g class="mark-line role-mark layer_37_marks"><path d="M135.94812952041627,12.329846333527682L192.31072379827498,12.329845096339458" style="fill: none; stroke: #000000; stroke-width: 2; opacity: 1;"></path></g><g class="mark-line role-mark layer_38_marks"><path d="M110.26109184503555,86.15201793770376L135.94812952041627,12.329846333527682" style="fill: none; stroke: #000000; stroke-width: 2; opacity: 1;"></path></g><g class="mark-line role-mark layer_39_marks"><path d="M135.94812952041627,12.329846333527682L164.1294340467453,79.35551945956261" style="fill: none; stroke: #000000; stroke-width: 2; opacity: 1;"></path></g><g class="mark-line role-mark layer_40_marks"><path d="M192.31072379827498,12.329845096339458L249.0710556745529,0.20937684491219977" style="fill: none; stroke: #000000; stroke-width: 2; opacity: 1;"></path></g><g class="mark-line role-mark layer_41_marks"><path d="M164.1294340467453,79.35551945956261L192.31072379827498,12.329845096339458" style="fill: none; stroke: #000000; stroke-width: 2; opacity: 1;"></path></g><g class="mark-line role-mark layer_42_marks"><path d="M192.31072379827498,12.329845096339458L217.9977910232544,86.15200804019793" style="fill: none; stroke: #000000; stroke-width: 2; opacity: 1;"></path></g><g class="mark-line role-mark layer_43_marks"><path d="M249.0710556745529,0.20937684491219977L309.9312022972107,24.082905617751816" style="fill: none; stroke: #000000; stroke-width: 2; opacity: 1;"></path></g><g class="mark-line role-mark layer_44_marks"><path d="M217.9977910232544,86.15200804019793L249.0710556745529,0.20937684491219977" style="fill: none; stroke: #000000; stroke-width: 2; opacity: 1;"></path></g><g class="mark-line role-mark layer_45_marks"><path d="M233.87838067770005,36.895301136083724L249.0710556745529,0.20937684491219977" style="fill: none; stroke: #000000; stroke-width: 2; opacity: 1;"></path></g><g class="mark-line role-mark layer_46_marks"><path d="M309.9312022972107,24.082905617751816L366.1810205316543,59.792327196224285" style="fill: none; stroke: #000000; stroke-width: 2; opacity: 1;"></path></g><g class="mark-line role-mark layer_47_marks"><path d="M233.87838067770005,36.895301136083724L309.9312022972107,24.082905617751816" style="fill: none; stroke: #000000; stroke-width: 2; opacity: 1;"></path></g><g class="mark-line role-mark layer_48_marks"><path d="M268.870912027359,93.54330702823933L309.9312022972107,24.082905617751816" style="fill: none; stroke: #000000; stroke-width: 2; opacity: 1;"></path></g><g class="mark-line role-mark layer_49_marks"><path d="M268.870912027359,93.54330702823933L366.1810205316543,59.792327196224285" style="fill: none; stroke: #000000; stroke-width: 2; opacity: 1;"></path></g><g class="mark-line role-mark layer_50_marks"><path d="M59.38797084093093,93.54332682325095L94.3805021905899,36.89529866170727" style="fill: none; stroke: #000000; stroke-width: 2; opacity: 1;"></path></g><g class="mark-line role-mark layer_51_marks"><path d="M94.3805021905899,36.89529866170727L110.26109184503555,86.15201793770376" style="fill: none; stroke: #000000; stroke-width: 2; opacity: 1;"></path></g><g class="mark-line role-mark layer_52_marks"><path d="M110.26109184503555,86.15201793770376L164.1294340467453,79.35551945956261" style="fill: none; stroke: #000000; stroke-width: 2; opacity: 1;"></path></g><g class="mark-line role-mark layer_53_marks"><path d="M164.1294340467453,79.35551945956261L217.9977910232544,86.15200804019793" style="fill: none; stroke: #000000; stroke-width: 2; opacity: 1;"></path></g><g class="mark-line role-mark layer_54_marks"><path d="M217.9977910232544,86.15200804019793L233.87838067770005,36.895301136083724" style="fill: none; stroke: #000000; stroke-width: 2; opacity: 1;"></path></g><g class="mark-line role-mark layer_55_marks"><path d="M233.87838067770005,36.895301136083724L268.870912027359,93.54330702823933" style="fill: none; stroke: #000000; stroke-width: 2; opacity: 1;"></path></g><g class="mark-symbol role-mark layer_56_marks"><path transform="translate(-37.42604053199292,67.27769702835424)" d="M0.5,0A0.5,0.5,0,1,1,-0.5,0A0.5,0.5,0,1,1,0.5,0" style="fill: #0096C7; stroke-width: 2; opacity: 0;"></path><path transform="translate(14.457495756149292,25.85742696226535)" d="M0.5,0A0.5,0.5,0,1,1,-0.5,0A0.5,0.5,0,1,1,0.5,0" style="fill: #0096C7; stroke-width: 2; opacity: 0;"></path><path transform="translate(73.98153511166574,1.3500346404279238)" d="M0.5,0A0.5,0.5,0,1,1,-0.5,0A0.5,0.5,0,1,1,0.5,0" style="fill: #0096C7; stroke-width: 2; opacity: 0;"></path><path transform="translate(132.72577533245087,13.67830355896517)" d="M0.5,0A0.5,0.5,0,1,1,-0.5,0A0.5,0.5,0,1,1,0.5,0" style="fill: #0096C7; stroke-width: 2; opacity: 0;"></path><path transform="translate(191.37976369142532,12.840244625339555)" d="M0.5,0A0.5,0.5,0,1,1,-0.5,0A0.5,0.5,0,1,1,0.5,0" style="fill: #0096C7; stroke-width: 2; opacity: 0;"></path><path transform="translate(252.97975839138033,1.52134051655271)" d="M0.5,0A0.5,0.5,0,1,1,-0.5,0A0.5,0.5,0,1,1,0.5,0" style="fill: #0096C7; stroke-width: 2; opacity: 0;"></path><path transform="translate(320.8361861991882,20.86451632886153)" d="M0.5,0A0.5,0.5,0,1,1,-0.5,0A0.5,0.5,0,1,1,0.5,0" style="fill: #0096C7; stroke-width: 2; opacity: 0;"></path><path transform="translate(377.3007413673401,51.73117986038467)" d="M0.5,0A0.5,0.5,0,1,1,-0.5,0A0.5,0.5,0,1,1,0.5,0" style="fill: #0096C7; stroke-width: 2; opacity: 0;"></path><path transform="translate(59.21519433736801,100.49308817905127)" d="M0.5,0A0.5,0.5,0,1,1,-0.5,0A0.5,0.5,0,1,1,0.5,0" style="fill: #0096C7; stroke-width: 2; opacity: 0;"></path><path transform="translate(95.66251891732216,37.1167083413298)" d="M0.5,0A0.5,0.5,0,1,1,-0.5,0A0.5,0.5,0,1,1,0.5,0" style="fill: #0096C7; stroke-width: 2; opacity: 0;"></path><path transform="translate(106.54980999708177,86.765148628387)" d="M0.5,0A0.5,0.5,0,1,1,-0.5,0A0.5,0.5,0,1,1,0.5,0" style="fill: #0096C7; stroke-width: 2; opacity: 0;"></path><path transform="translate(161.38551741123197,81.51791168537196)" d="M0.5,0A0.5,0.5,0,1,1,-0.5,0A0.5,0.5,0,1,1,0.5,0" style="fill: #0096C7; stroke-width: 2; opacity: 0;"></path><path transform="translate(223.98643089294436,85.05263268347406)" d="M0.5,0A0.5,0.5,0,1,1,-0.5,0A0.5,0.5,0,1,1,0.5,0" style="fill: #0096C7; stroke-width: 2; opacity: 0;"></path><path transform="translate(235.71041147232057,35.32486636162715)" d="M0.5,0A0.5,0.5,0,1,1,-0.5,0A0.5,0.5,0,1,1,0.5,0" style="fill: #0096C7; stroke-width: 2; opacity: 0;"></path><path transform="translate(279.67383161544797,90.97442918705877)" d="M0.5,0A0.5,0.5,0,1,1,-0.5,0A0.5,0.5,0,1,1,0.5,0" style="fill: #0096C7; stroke-width: 2; opacity: 0;"></path></g><g class="mark-line role-mark layer_57_marks"><path d="M-37.42604053199292,67.27769702835424L14.457495756149292,25.85742696226535" style="fill: none; stroke: #0096C7; stroke-width: 2; opacity: 1;"></path></g><g class="mark-line role-mark layer_58_marks"><path d="M-37.42604053199292,67.27769702835424L59.21519433736801,100.49308817905127" style="fill: none; stroke: #0096C7; stroke-width: 2; opacity: 1;"></path></g><g class="mark-line role-mark layer_59_marks"><path d="M14.457495756149292,25.85742696226535L73.98153511166574,1.3500346404279238" style="fill: none; stroke: #0096C7; stroke-width: 2; opacity: 1;"></path></g><g class="mark-line role-mark layer_60_marks"><path d="M14.457495756149292,25.85742696226535L59.21519433736801,100.49308817905127" style="fill: none; stroke: #0096C7; stroke-width: 2; opacity: 1;"></path></g><g class="mark-line role-mark layer_61_marks"><path d="M14.457495756149292,25.85742696226535L95.66251891732216,37.1167083413298" style="fill: none; stroke: #0096C7; stroke-width: 2; opacity: 1;"></path></g><g class="mark-line role-mark layer_62_marks"><path d="M73.98153511166574,1.3500346404279238L132.72577533245087,13.67830355896517" style="fill: none; stroke: #0096C7; stroke-width: 2; opacity: 1;"></path></g><g class="mark-line role-mark layer_63_marks"><path d="M73.98153511166574,1.3500346404279238L95.66251891732216,37.1167083413298" style="fill: none; stroke: #0096C7; stroke-width: 2; opacity: 1;"></path></g><g class="mark-line role-mark layer_64_marks"><path d="M73.98153511166574,1.3500346404279238L106.54980999708177,86.765148628387" style="fill: none; stroke: #0096C7; stroke-width: 2; opacity: 1;"></path></g><g class="mark-line role-mark layer_65_marks"><path d="M132.72577533245087,13.67830355896517L191.37976369142532,12.840244625339555" style="fill: none; stroke: #0096C7; stroke-width: 2; opacity: 1;"></path></g><g class="mark-line role-mark layer_66_marks"><path d="M106.54980999708177,86.765148628387L132.72577533245087,13.67830355896517" style="fill: none; stroke: #0096C7; stroke-width: 2; opacity: 1;"></path></g><g class="mark-line role-mark layer_67_marks"><path d="M132.72577533245087,13.67830355896517L161.38551741123197,81.51791168537196" style="fill: none; stroke: #0096C7; stroke-width: 2; opacity: 1;"></path></g><g class="mark-line role-mark layer_68_marks"><path d="M191.37976369142532,12.840244625339555L252.97975839138033,1.52134051655271" style="fill: none; stroke: #0096C7; stroke-width: 2; opacity: 1;"></path></g><g class="mark-line role-mark layer_69_marks"><path d="M161.38551741123197,81.51791168537196L191.37976369142532,12.840244625339555" style="fill: none; stroke: #0096C7; stroke-width: 2; opacity: 1;"></path></g><g class="mark-line role-mark layer_70_marks"><path d="M191.37976369142532,12.840244625339555L223.98643089294436,85.05263268347406" style="fill: none; stroke: #0096C7; stroke-width: 2; opacity: 1;"></path></g><g class="mark-line role-mark layer_71_marks"><path d="M252.97975839138033,1.52134051655271L320.8361861991882,20.86451632886153" style="fill: none; stroke: #0096C7; stroke-width: 2; opacity: 1;"></path></g><g class="mark-line role-mark layer_72_marks"><path d="M223.98643089294436,85.05263268347406L252.97975839138033,1.52134051655271" style="fill: none; stroke: #0096C7; stroke-width: 2; opacity: 1;"></path></g><g class="mark-line role-mark layer_73_marks"><path d="M235.71041147232057,35.32486636162715L252.97975839138033,1.52134051655271" style="fill: none; stroke: #0096C7; stroke-width: 2; opacity: 1;"></path></g><g class="mark-line role-mark layer_74_marks"><path d="M320.8361861991882,20.86451632886153L377.3007413673401,51.73117986038467" style="fill: none; stroke: #0096C7; stroke-width: 2; opacity: 1;"></path></g><g class="mark-line role-mark layer_75_marks"><path d="M235.71041147232057,35.32486636162715L320.8361861991882,20.86451632886153" style="fill: none; stroke: #0096C7; stroke-width: 2; opacity: 1;"></path></g><g class="mark-line role-mark layer_76_marks"><path d="M279.67383161544797,90.97442918705877L320.8361861991882,20.86451632886153" style="fill: none; stroke: #0096C7; stroke-width: 2; opacity: 1;"></path></g><g class="mark-line role-mark layer_77_marks"><path d="M279.67383161544797,90.97442918705877L377.3007413673401,51.73117986038467" style="fill: none; stroke: #0096C7; stroke-width: 2; opacity: 1;"></path></g><g class="mark-line role-mark layer_78_marks"><path d="M59.21519433736801,100.49308817905127L95.66251891732216,37.1167083413298" style="fill: none; stroke: #0096C7; stroke-width: 2; opacity: 1;"></path></g><g class="mark-line role-mark layer_79_marks"><path d="M95.66251891732216,37.1167083413298L106.54980999708177,86.765148628387" style="fill: none; stroke: #0096C7; stroke-width: 2; opacity: 1;"></path></g><g class="mark-line role-mark layer_80_marks"><path d="M106.54980999708177,86.765148628387L161.38551741123197,81.51791168537196" style="fill: none; stroke: #0096C7; stroke-width: 2; opacity: 1;"></path></g><g class="mark-line role-mark layer_81_marks"><path d="M161.38551741123197,81.51791168537196L223.98643089294436,85.05263268347406" style="fill: none; stroke: #0096C7; stroke-width: 2; opacity: 1;"></path></g><g class="mark-line role-mark layer_82_marks"><path d="M223.98643089294436,85.05263268347406L235.71041147232057,35.32486636162715" style="fill: none; stroke: #0096C7; stroke-width: 2; opacity: 1;"></path></g><g class="mark-line role-mark layer_83_marks"><path d="M235.71041147232057,35.32486636162715L279.67383161544797,90.97442918705877" style="fill: none; stroke: #0096C7; stroke-width: 2; opacity: 1;"></path></g></g><path class="foreground" d="" style="display: none; fill: none;"></path></g></g></g></svg>