<svg class="marks" width="445.3125" height="152.14844316244125" viewBox="0 0 445.3125 152.14844316244125" version="1.1" xmlns="http://www.w3.org/2000/svg" xmlns:xlink="http://www.w3.org/1999/xlink"><rect width="445.3125" height="152.14844316244125" style="fill: white;"></rect><g transform="translate(90,35)"><g class="mark-group role-frame root"><g transform="translate(0,0)"><path class="background" d="M0.5,0.5h348.3125v109.14844316244125h-348.3125Z" style="fill: none; stroke: #ddd; stroke-opacity: 0;"></path><g><g class="mark-symbol role-mark layer_0_marks"><path transform="translate(0,0)" d="M0.5,0A0.5,0.5,0,1,1,-0.5,0A0.5,0.5,0,1,1,0.5,0" style="fill: #C7D5E5; stroke-width: 2; opacity: 0;"></path><path transform="translate(49.75892809689045,0)" d="M0.5,0A0.5,0.5,0,1,1,-0.5,0A0.5,0.5,0,1,1,0.5,0" style="fill: #C7D5E5; stroke-width: 2; opacity: 0;"></path><path transform="translate(99.5178561937809,0)" d="M0.5,0A0.5,0.5,0,1,1,-0.5,0A0.5,0.5,0,1,1,0.5,0" style="fill: #C7D5E5; stroke-width: 2; opacity: 0;"></path><path transform="translate(149.2767876124382,0)" d="M0.5,0A0.5,0.5,0,1,1,-0.5,0A0.5,0.5,0,1,1,0.5,0" style="fill: #C7D5E5; stroke-width: 2; opacity: 0;"></path><path transform="translate(199.0357123875618,0)" d="M0.5,0A0.5,0.5,0,1,1,-0.5,0A0.5,0.5,0,1,1,0.5,0" style="fill: #C7D5E5; stroke-width: 2; opacity: 0;"></path><path transform="translate(248.79465044975282,0)" d="M0.5,0A0.5,0.5,0,1,1,-0.5,0A0.5,0.5,0,1,1,0.5,0" style="fill: #C7D5E5; stroke-width: 2; opacity: 0;"></path><path transform="translate(298.5535752248764,0)" d="M0.5,0A0.5,0.5,0,1,1,-0.5,0A0.5,0.5,0,1,1,0.5,0" style="fill: #C7D5E5; stroke-width: 2; opacity: 0;"></path><path transform="translate(348.3125,0)" d="M0.5,0A0.5,0.5,0,1,1,-0.5,0A0.5,0.5,0,1,1,0.5,0" style="fill: #C7D5E5; stroke-width: 2; opacity: 0;"></path><path transform="translate(29.83532261788845,71.0950395143878)" d="M0.5,0A0.5,0.5,0,1,1,-0.5,0A0.5,0.5,0,1,1,0.5,0" style="fill: #C7D5E5; stroke-width: 2; opacity: 0;"></path><path transform="translate(87.4628852546215,106.82215920939478)" d="M0.5,0A0.5,0.5,0,1,1,-0.5,0A0.5,0.5,0,1,1,0.5,0" style="fill: #C7D5E5; stroke-width: 2; opacity: 0;"></path><path transform="translate(133.9261721944809,45.254727157528315)" d="M0.5,0A0.5,0.5,0,1,1,-0.5,0A0.5,0.5,0,1,1,0.5,0" style="fill: #C7D5E5; stroke-width: 2; opacity: 0;"></path><path transform="translate(174.15625,109.14844316244125)" d="M0.5,0A0.5,0.5,0,1,1,-0.5,0A0.5,0.5,0,1,1,0.5,0" style="fill: #C7D5E5; stroke-width: 2; opacity: 0;"></path><path transform="translate(214.3863278055191,45.254727157528315)" d="M0.5,0A0.5,0.5,0,1,1,-0.5,0A0.5,0.5,0,1,1,0.5,0" style="fill: #C7D5E5; stroke-width: 2; opacity: 0;"></path><path transform="translate(260.8496081018448,106.82215920939478)" d="M0.5,0A0.5,0.5,0,1,1,-0.5,0A0.5,0.5,0,1,1,0.5,0" style="fill: #C7D5E5; stroke-width: 2; opacity: 0;"></path><path transform="translate(318.4771873474121,71.0950395143878)" d="M0.5,0A0.5,0.5,0,1,1,-0.5,0A0.5,0.5,0,1,1,0.5,0" style="fill: #C7D5E5; stroke-width: 2; opacity: 0;"></path></g><g class="mark-line role-mark layer_1_marks"><path d="M0,0L49.75892809689045,0" style="fill: none; stroke: #C7D5E5; stroke-width: 2; opacity: 1;"></path></g><g class="mark-line role-mark layer_2_marks"><path d="M0,0L29.83532261788845,71.0950395143878" style="fill: none; stroke: #C7D5E5; stroke-width: 2; opacity: 1;"></path></g><g class="mark-line role-mark layer_3_marks"><path d="M49.75892809689045,0L99.5178561937809,0" style="fill: none; stroke: #C7D5E5; stroke-width: 2; opacity: 1;"></path></g><g class="mark-line role-mark layer_4_marks"><path d="M29.83532261788845,71.0950395143878L49.75892809689045,0" style="fill: none; stroke: #C7D5E5; stroke-width: 2; opacity: 1;"></path></g><g class="mark-line role-mark layer_5_marks"><path d="M49.75892809689045,0L87.4628852546215,106.82215920939478" style="fill: none; stroke: #C7D5E5; stroke-width: 2; opacity: 1;"></path></g><g class="mark-line role-mark layer_6_marks"><path d="M99.5178561937809,0L149.2767876124382,0" style="fill: none; stroke: #C7D5E5; stroke-width: 2; opacity: 1;"></path></g><g class="mark-line role-mark layer_7_marks"><path d="M87.4628852546215,106.82215920939478L99.5178561937809,0" style="fill: none; stroke: #C7D5E5; stroke-width: 2; opacity: 1;"></path></g><g class="mark-line role-mark layer_8_marks"><path d="M99.5178561937809,0L133.9261721944809,45.254727157528315" style="fill: none; stroke: #C7D5E5; stroke-width: 2; opacity: 1;"></path></g><g class="mark-line role-mark layer_9_marks"><path d="M149.2767876124382,0L199.0357123875618,0" style="fill: none; stroke: #C7D5E5; stroke-width: 2; opacity: 1;"></path></g><g class="mark-line role-mark layer_10_marks"><path d="M133.9261721944809,45.254727157528315L149.2767876124382,0" style="fill: none; stroke: #C7D5E5; stroke-width: 2; opacity: 1;"></path></g><g class="mark-line role-mark layer_11_marks"><path d="M149.2767876124382,0L174.15625,109.14844316244125" style="fill: none; stroke: #C7D5E5; stroke-width: 2; opacity: 1;"></path></g><g class="mark-line role-mark layer_12_marks"><path d="M199.0357123875618,0L248.79465044975282,0" style="fill: none; stroke: #C7D5E5; stroke-width: 2; opacity: 1;"></path></g><g class="mark-line role-mark layer_13_marks"><path d="M174.15625,109.14844316244125L199.0357123875618,0" style="fill: none; stroke: #C7D5E5; stroke-width: 2; opacity: 1;"></path></g><g class="mark-line role-mark layer_14_marks"><path d="M199.0357123875618,0L214.3863278055191,45.254727157528315" style="fill: none; stroke: #C7D5E5; stroke-width: 2; opacity: 1;"></path></g><g class="mark-line role-mark layer_15_marks"><path d="M248.79465044975282,0L298.5535752248764,0" style="fill: none; stroke: #C7D5E5; stroke-width: 2; opacity: 1;"></path></g><g class="mark-line role-mark layer_16_marks"><path d="M214.3863278055191,45.254727157528315L248.79465044975282,0" style="fill: none; stroke: #C7D5E5; stroke-width: 2; opacity: 1;"></path></g><g class="mark-line role-mark layer_17_marks"><path d="M248.79465044975282,0L260.8496081018448,106.82215920939478" style="fill: none; stroke: #C7D5E5; stroke-width: 2; opacity: 1;"></path></g><g class="mark-line role-mark layer_18_marks"><path d="M298.5535752248764,0L348.3125,0" style="fill: none; stroke: #C7D5E5; stroke-width: 2; opacity: 1;"></path></g><g class="mark-line role-mark layer_19_marks"><path d="M260.8496081018448,106.82215920939478L298.5535752248764,0" style="fill: none; stroke: #C7D5E5; stroke-width: 2; opacity: 1;"></path></g><g class="mark-line role-mark layer_20_marks"><path d="M298.5535752248764,0L318.4771873474121,71.0950395143878" style="fill: none; stroke: #C7D5E5; stroke-width: 2; opacity: 1;"></path></g><g class="mark-line role-mark layer_21_marks"><path d="M318.4771873474121,71.0950395143878L348.3125,0" style="fill: none; stroke: #C7D5E5; stroke-width: 2; opacity: 1;"></path></g><g class="mark-line role-mark layer_22_marks"><path d="M29.83532261788845,71.0950395143878L87.4628852546215,106.82215920939478" style="fill: none; stroke: #C7D5E5; stroke-width: 2; opacity: 1;"></path></g><g class="mark-line role-mark layer_23_marks"><path d="M87.4628852546215,106.82215920939478L133.9261721944809,45.254727157528315" style="fill: none; stroke: #C7D5E5; stroke-width: 2; opacity: 1;"></path></g><g class="mark-line role-mark layer_24_marks"><path d="M133.9261721944809,45.254727157528315L174.15625,109.14844316244125" style="fill: none; stroke: #C7D5E5; stroke-width: 2; opacity: 1;"></path></g><g class="mark-line role-mark layer_25_marks"><path d="M174.15625,109.14844316244125L214.3863278055191,45.254727157528315" style="fill: none; stroke: #C7D5E5; stroke-width: 2; opacity: 1;"></path></g><g class="mark-line role-mark layer_26_marks"><path d="M214.3863278055191,45.254727157528315L260.8496081018448,106.82215920939478" style="fill: none; stroke: #C7D5E5; stroke-width: 2; opacity: 1;"></path></g><g class="mark-line role-mark layer_27_marks"><path d="M260.8496081018448,106.82215920939478L318.4771873474121,71.0950395143878" style="fill: none; stroke: #C7D5E5; stroke-width: 2; opacity: 1;"></path></g><g class="mark-symbol role-mark layer_28_marks"><path transform="translate(-64.55536318540574,55.49276447363572)" d="M0.5,0A0.5,0.5,0,1,1,-0.5,0A0.5,0.5,0,1,1,0.5,0" style="fill: #000000; stroke-width: 2; opacity: 0;"></path><path transform="translate(-14.006366129517556,27.275067592798997)" d="M0.5,0A0.5,0.5,0,1,1,-0.5,0A0.5,0.5,0,1,1,0.5,0" style="fill: #000000; stroke-width: 2; opacity: 0;"></path><path transform="translate(37.958540691137316,-3.488316968273667)" d="M0.5,0A0.5,0.5,0,1,1,-0.5,0A0.5,0.5,0,1,1,0.5,0" style="fill: #000000; stroke-width: 2; opacity: 0;"></path><path transform="translate(90.49016418933869,-19.426584432254266)" d="M0.5,0A0.5,0.5,0,1,1,-0.5,0A0.5,0.5,0,1,1,0.5,0" style="fill: #000000; stroke-width: 2; opacity: 0;"></path><path transform="translate(141.13391464471817,-19.42658595555276)" d="M0.5,0A0.5,0.5,0,1,1,-0.5,0A0.5,0.5,0,1,1,0.5,0" style="fill: #000000; stroke-width: 2; opacity: 0;"></path><path transform="translate(193.66554478645327,-3.488316587449056)" d="M0.5,0A0.5,0.5,0,1,1,-0.5,0A0.5,0.5,0,1,1,0.5,0" style="fill: #000000; stroke-width: 2; opacity: 0;"></path><path transform="translate(245.63044164180755,27.27507063939596)" d="M0.5,0A0.5,0.5,0,1,1,-0.5,0A0.5,0.5,0,1,1,0.5,0" style="fill: #000000; stroke-width: 2; opacity: 0;"></path><path transform="translate(296.17944201946256,55.49276447363572)" d="M0.5,0A0.5,0.5,0,1,1,-0.5,0A0.5,0.5,0,1,1,0.5,0" style="fill: #000000; stroke-width: 2; opacity: 0;"></path><path transform="translate(3.940341294109821,109.33222607789027)" d="M0.5,0A0.5,0.5,0,1,1,-0.5,0A0.5,0.5,0,1,1,0.5,0" style="fill: #000000; stroke-width: 2; opacity: 0;"></path><path transform="translate(87.4628852546215,106.82215920939478)" d="M0.5,0A0.5,0.5,0,1,1,-0.5,0A0.5,0.5,0,1,1,0.5,0" style="fill: #000000; stroke-width: 2; opacity: 0;"></path><path transform="translate(93.75207944750787,26.48561815367482)" d="M0.5,0A0.5,0.5,0,1,1,-0.5,0A0.5,0.5,0,1,1,0.5,0" style="fill: #000000; stroke-width: 2; opacity: 0;"></path><path transform="translate(115.81204606056212,95.25427927051015)" d="M0.5,0A0.5,0.5,0,1,1,-0.5,0A0.5,0.5,0,1,1,0.5,0" style="fill: #000000; stroke-width: 2; opacity: 0;"></path><path transform="translate(137.8720060300827,26.485615107077844)" d="M0.5,0A0.5,0.5,0,1,1,-0.5,0A0.5,0.5,0,1,1,0.5,0" style="fill: #000000; stroke-width: 2; opacity: 0;"></path><path transform="translate(144.16118693590164,106.82215920939478)" d="M0.5,0A0.5,0.5,0,1,1,-0.5,0A0.5,0.5,0,1,1,0.5,0" style="fill: #000000; stroke-width: 2; opacity: 0;"></path><path transform="translate(227.68373255729674,109.33222607789027)" d="M0.5,0A0.5,0.5,0,1,1,-0.5,0A0.5,0.5,0,1,1,0.5,0" style="fill: #000000; stroke-width: 2; opacity: 0;"></path></g><g class="mark-line role-mark layer_29_marks"><path d="M-64.55536318540574,55.49276447363572L-14.006366129517556,27.275067592798997" style="fill: none; stroke: #000000; stroke-width: 2; opacity: 1;"></path></g><g class="mark-line role-mark layer_30_marks"><path d="M-64.55536318540574,55.49276447363572L3.940341294109821,109.33222607789027" style="fill: none; stroke: #000000; stroke-width: 2; opacity: 1;"></path></g><g class="mark-line role-mark layer_31_marks"><path d="M-14.006366129517556,27.275067592798997L37.958540691137316,-3.488316968273667" style="fill: none; stroke: #000000; stroke-width: 2; opacity: 1;"></path></g><g class="mark-line role-mark layer_32_marks"><path d="M-14.006366129517556,27.275067592798997L3.940341294109821,109.33222607789027" style="fill: none; stroke: #000000; stroke-width: 2; opacity: 1;"></path></g><g class="mark-line role-mark layer_33_marks"><path d="M-14.006366129517556,27.275067592798997L87.4628852546215,106.82215920939478" style="fill: none; stroke: #000000; stroke-width: 2; opacity: 1;"></path></g><g class="mark-line role-mark layer_34_marks"><path d="M37.958540691137316,-3.488316968273667L90.49016418933869,-19.426584432254266" style="fill: none; stroke: #000000; stroke-width: 2; opacity: 1;"></path></g><g class="mark-line role-mark layer_35_marks"><path d="M37.958540691137316,-3.488316968273667L87.4628852546215,106.82215920939478" style="fill: none; stroke: #000000; stroke-width: 2; opacity: 1;"></path></g><g class="mark-line role-mark layer_36_marks"><path d="M37.958540691137316,-3.488316968273667L93.75207944750787,26.48561815367482" style="fill: none; stroke: #000000; stroke-width: 2; opacity: 1;"></path></g><g class="mark-line role-mark layer_37_marks"><path d="M90.49016418933869,-19.426584432254266L141.13391464471817,-19.42658595555276" style="fill: none; stroke: #000000; stroke-width: 2; opacity: 1;"></path></g><g class="mark-line role-mark layer_38_marks"><path d="M90.49016418933869,-19.426584432254266L93.75207944750787,26.48561815367482" style="fill: none; stroke: #000000; stroke-width: 2; opacity: 1;"></path></g><g class="mark-line role-mark layer_39_marks"><path d="M90.49016418933869,-19.426584432254266L115.81204606056212,95.25427927051015" style="fill: none; stroke: #000000; stroke-width: 2; opacity: 1;"></path></g><g class="mark-line role-mark layer_40_marks"><path d="M141.13391464471817,-19.42658595555276L193.66554478645327,-3.488316587449056" style="fill: none; stroke: #000000; stroke-width: 2; opacity: 1;"></path></g><g class="mark-line role-mark layer_41_marks"><path d="M115.81204606056212,95.25427927051015L141.13391464471817,-19.42658595555276" style="fill: none; stroke: #000000; stroke-width: 2; opacity: 1;"></path></g><g class="mark-line role-mark layer_42_marks"><path d="M137.8720060300827,26.485615107077844L141.13391464471817,-19.42658595555276" style="fill: none; stroke: #000000; stroke-width: 2; opacity: 1;"></path></g><g class="mark-line role-mark layer_43_marks"><path d="M193.66554478645327,-3.488316587449056L245.63044164180755,27.27507063939596" style="fill: none; stroke: #000000; stroke-width: 2; opacity: 1;"></path></g><g class="mark-line role-mark layer_44_marks"><path d="M137.8720060300827,26.485615107077844L193.66554478645327,-3.488316587449056" style="fill: none; stroke: #000000; stroke-width: 2; opacity: 1;"></path></g><g class="mark-line role-mark layer_45_marks"><path d="M144.16118693590164,106.82215920939478L193.66554478645327,-3.488316587449056" style="fill: none; stroke: #000000; stroke-width: 2; opacity: 1;"></path></g><g class="mark-line role-mark layer_46_marks"><path d="M245.63044164180755,27.27507063939596L296.17944201946256,55.49276447363572" style="fill: none; stroke: #000000; stroke-width: 2; opacity: 1;"></path></g><g class="mark-line role-mark layer_47_marks"><path d="M144.16118693590164,106.82215920939478L245.63044164180755,27.27507063939596" style="fill: none; stroke: #000000; stroke-width: 2; opacity: 1;"></path></g><g class="mark-line role-mark layer_48_marks"><path d="M227.68373255729674,109.33222607789027L245.63044164180755,27.27507063939596" style="fill: none; stroke: #000000; stroke-width: 2; opacity: 1;"></path></g><g class="mark-line role-mark layer_49_marks"><path d="M227.68373255729674,109.33222607789027L296.17944201946256,55.49276447363572" style="fill: none; stroke: #000000; stroke-width: 2; opacity: 1;"></path></g><g class="mark-line role-mark layer_50_marks"><path d="M3.940341294109821,109.33222607789027L87.4628852546215,106.82215920939478" style="fill: none; stroke: #000000; stroke-width: 2; opacity: 1;"></path></g><g class="mark-line role-mark layer_51_marks"><path d="M87.4628852546215,106.82215920939478L93.75207944750787,26.48561815367482" style="fill: none; stroke: #000000; stroke-width: 2; opacity: 1;"></path></g><g class="mark-line role-mark layer_52_marks"><path d="M93.75207944750787,26.48561815367482L115.81204606056212,95.25427927051015" style="fill: none; stroke: #000000; stroke-width: 2; opacity: 1;"></path></g><g class="mark-line role-mark layer_53_marks"><path d="M115.81204606056212,95.25427927051015L137.8720060300827,26.485615107077844" style="fill: none; stroke: #000000; stroke-width: 2; opacity: 1;"></path></g><g class="mark-line role-mark layer_54_marks"><path d="M137.8720060300827,26.485615107077844L144.16118693590164,106.82215920939478" style="fill: none; stroke: #000000; stroke-width: 2; opacity: 1;"></path></g><g class="mark-line role-mark layer_55_marks"><path d="M144.16118693590164,106.82215920939478L227.68373255729674,109.33222607789027" style="fill: none; stroke: #000000; stroke-width: 2; opacity: 1;"></path></g><g class="mark-symbol role-mark layer_56_marks"><path transform="translate(-45.036269186735154,39.36071059306431)" d="M0.5,0A0.5,0.5,0,1,1,-0.5,0A0.5,0.5,0,1,1,0.5,0" style="fill: #0096C7; stroke-width: 2; opacity: 0;"></path><path transform="translate(10.834799607992172,14.890745365660862)" d="M0.5,0A0.5,0.5,0,1,1,-0.5,0A0.5,0.5,0,1,1,0.5,0" style="fill: #0096C7; stroke-width: 2; opacity: 0;"></path><path transform="translate(61.88726025700569,-2.924563811962367)" d="M0.5,0A0.5,0.5,0,1,1,-0.5,0A0.5,0.5,0,1,1,0.5,0" style="fill: #0096C7; stroke-width: 2; opacity: 0;"></path><path transform="translate(117.969321038723,-10.763247022125178)" d="M0.5,0A0.5,0.5,0,1,1,-0.5,0A0.5,0.5,0,1,1,0.5,0" style="fill: #0096C7; stroke-width: 2; opacity: 0;"></path><path transform="translate(165.2132696938515,-9.84957868485759)" d="M0.5,0A0.5,0.5,0,1,1,-0.5,0A0.5,0.5,0,1,1,0.5,0" style="fill: #0096C7; stroke-width: 2; opacity: 0;"></path><path transform="translate(226.5019010591507,0.6446655830245128)" d="M0.5,0A0.5,0.5,0,1,1,-0.5,0A0.5,0.5,0,1,1,0.5,0" style="fill: #0096C7; stroke-width: 2; opacity: 0;"></path><path transform="translate(271.8726389503479,16.754662529981132)" d="M0.5,0A0.5,0.5,0,1,1,-0.5,0A0.5,0.5,0,1,1,0.5,0" style="fill: #0096C7; stroke-width: 2; opacity: 0;"></path><path transform="translate(316.02487303733824,37.24268286890432)" d="M0.5,0A0.5,0.5,0,1,1,-0.5,0A0.5,0.5,0,1,1,0.5,0" style="fill: #0096C7; stroke-width: 2; opacity: 0;"></path><path transform="translate(14.99235455840826,94.63791614488318)" d="M0.5,0A0.5,0.5,0,1,1,-0.5,0A0.5,0.5,0,1,1,0.5,0" style="fill: #0096C7; stroke-width: 2; opacity: 0;"></path><path transform="translate(86.8825592982769,107.6491031173942)" d="M0.5,0A0.5,0.5,0,1,1,-0.5,0A0.5,0.5,0,1,1,0.5,0" style="fill: #0096C7; stroke-width: 2; opacity: 0;"></path><path transform="translate(111.82625801324843,33.299225639910624)" d="M0.5,0A0.5,0.5,0,1,1,-0.5,0A0.5,0.5,0,1,1,0.5,0" style="fill: #0096C7; stroke-width: 2; opacity: 0;"></path><path transform="translate(142.49688873291015,100.74264449538923)" d="M0.5,0A0.5,0.5,0,1,1,-0.5,0A0.5,0.5,0,1,1,0.5,0" style="fill: #0096C7; stroke-width: 2; opacity: 0;"></path><path transform="translate(175.41652834415436,36.273691377309454)" d="M0.5,0A0.5,0.5,0,1,1,-0.5,0A0.5,0.5,0,1,1,0.5,0" style="fill: #0096C7; stroke-width: 2; opacity: 0;"></path><path transform="translate(195.2197596359253,106.1680548405382)" d="M0.5,0A0.5,0.5,0,1,1,-0.5,0A0.5,0.5,0,1,1,0.5,0" style="fill: #0096C7; stroke-width: 2; opacity: 0;"></path><path transform="translate(271.3020391273499,93.07142300948524)" d="M0.5,0A0.5,0.5,0,1,1,-0.5,0A0.5,0.5,0,1,1,0.5,0" style="fill: #0096C7; stroke-width: 2; opacity: 0;"></path></g><g class="mark-line role-mark layer_57_marks"><path d="M-45.036269186735154,39.36071059306431L10.834799607992172,14.890745365660862" style="fill: none; stroke: #0096C7; stroke-width: 2; opacity: 1;"></path></g><g class="mark-line role-mark layer_58_marks"><path d="M-45.036269186735154,39.36071059306431L14.99235455840826,94.63791614488318" style="fill: none; stroke: #0096C7; stroke-width: 2; opacity: 1;"></path></g><g class="mark-line role-mark layer_59_marks"><path d="M10.834799607992172,14.890745365660862L61.88726025700569,-2.924563811962367" style="fill: none; stroke: #0096C7; stroke-width: 2; opacity: 1;"></path></g><g class="mark-line role-mark layer_60_marks"><path d="M10.834799607992172,14.890745365660862L14.99235455840826,94.63791614488318" style="fill: none; stroke: #0096C7; stroke-width: 2; opacity: 1;"></path></g><g class="mark-line role-mark layer_61_marks"><path d="M10.834799607992172,14.890745365660862L86.8825592982769,107.6491031173942" style="fill: none; stroke: #0096C7; stroke-width: 2; opacity: 1;"></path></g><g class="mark-line role-mark layer_62_marks"><path d="M61.88726025700569,-2.924563811962367L117.969321038723,-10.763247022125178" style="fill: none; stroke: #0096C7; stroke-width: 2; opacity: 1;"></path></g><g class="mark-line role-mark layer_63_marks"><path d="M61.88726025700569,-2.924563811962367L86.8825592982769,107.6491031173942" style="fill: none; stroke: #0096C7; stroke-width: 2; opacity: 1;"></path></g><g class="mark-line role-mark layer_64_marks"><path d="M61.88726025700569,-2.924563811962367L111.82625801324843,33.299225639910624" style="fill: none; stroke: #0096C7; stroke-width: 2; opacity: 1;"></path></g><g class="mark-line role-mark layer_65_marks"><path d="M117.969321038723,-10.763247022125178L165.2132696938515,-9.84957868485759" style="fill: none; stroke: #0096C7; stroke-width: 2; opacity: 1;"></path></g><g class="mark-line role-mark layer_66_marks"><path d="M111.82625801324843,33.299225639910624L117.969321038723,-10.763247022125178" style="fill: none; stroke: #0096C7; stroke-width: 2; opacity: 1;"></path></g><g class="mark-line role-mark layer_67_marks"><path d="M117.969321038723,-10.763247022125178L142.49688873291015,100.74264449538923" style="fill: none; stroke: #0096C7; stroke-width: 2; opacity: 1;"></path></g><g class="mark-line role-mark layer_68_marks"><path d="M165.2132696938515,-9.84957868485759L226.5019010591507,0.6446655830245128" style="fill: none; stroke: #0096C7; stroke-width: 2; opacity: 1;"></path></g><g class="mark-line role-mark layer_69_marks"><path d="M142.49688873291015,100.74264449538923L165.2132696938515,-9.84957868485759" style="fill: none; stroke: #0096C7; stroke-width: 2; opacity: 1;"></path></g><g class="mark-line role-mark layer_70_marks"><path d="M165.2132696938515,-9.84957868485759L175.41652834415436,36.273691377309454" style="fill: none; stroke: #0096C7; stroke-width: 2; opacity: 1;"></path></g><g class="mark-line role-mark layer_71_marks"><path d="M226.5019010591507,0.6446655830245128L271.8726389503479,16.754662529981132" style="fill: none; stroke: #0096C7; stroke-width: 2; opacity: 1;"></path></g><g class="mark-line role-mark layer_72_marks"><path d="M175.41652834415436,36.273691377309454L226.5019010591507,0.6446655830245128" style="fill: none; stroke: #0096C7; stroke-width: 2; opacity: 1;"></path></g><g class="mark-line role-mark layer_73_marks"><path d="M195.2197596359253,106.1680548405382L226.5019010591507,0.6446655830245128" style="fill: none; stroke: #0096C7; stroke-width: 2; opacity: 1;"></path></g><g class="mark-line role-mark layer_74_marks"><path d="M271.8726389503479,16.754662529981132L316.02487303733824,37.24268286890432" style="fill: none; stroke: #0096C7; stroke-width: 2; opacity: 1;"></path></g><g class="mark-line role-mark layer_75_marks"><path d="M195.2197596359253,106.1680548405382L271.8726389503479,16.754662529981132" style="fill: none; stroke: #0096C7; stroke-width: 2; opacity: 1;"></path></g><g class="mark-line role-mark layer_76_marks"><path d="M271.3020391273499,93.07142300948524L271.8726389503479,16.754662529981132" style="fill: none; stroke: #0096C7; stroke-width: 2; opacity: 1;"></path></g><g class="mark-line role-mark layer_77_marks"><path d="M271.3020391273499,93.07142300948524L316.02487303733824,37.24268286890432" style="fill: none; stroke: #0096C7; stroke-width: 2; opacity: 1;"></path></g><g class="mark-line role-mark layer_78_marks"><path d="M14.99235455840826,94.63791614488318L86.8825592982769,107.6491031173942" style="fill: none; stroke: #0096C7; stroke-width: 2; opacity: 1;"></path></g><g class="mark-line role-mark layer_79_marks"><path d="M86.8825592982769,107.6491031173942L111.82625801324843,33.299225639910624" style="fill: none; stroke: #0096C7; stroke-width: 2; opacity: 1;"></path></g><g class="mark-line role-mark layer_80_marks"><path d="M111.82625801324843,33.299225639910624L142.49688873291015,100.74264449538923" style="fill: none; stroke: #0096C7; stroke-width: 2; opacity: 1;"></path></g><g class="mark-line role-mark layer_81_marks"><path d="M142.49688873291015,100.74264449538923L175.41652834415436,36.273691377309454" style="fill: none; stroke: #0096C7; stroke-width: 2; opacity: 1;"></path></g><g class="mark-line role-mark layer_82_marks"><path d="M175.41652834415436,36.273691377309454L195.2197596359253,106.1680548405382" style="fill: none; stroke: #0096C7; stroke-width: 2; opacity: 1;"></path></g><g class="mark-line role-mark layer_83_marks"><path d="M195.2197596359253,106.1680548405382L271.3020391273499,93.07142300948524" style="fill: none; stroke: #0096C7; stroke-width: 2; opacity: 1;"></path></g></g><path class="foreground" d="" style="display: none; fill: none;"></path></g></g></g></svg>