<svg class="marks" width="445.3125" height="1168.9453125" viewBox="0 0 445.3125 1168.9453125" version="1.1" xmlns="http://www.w3.org/2000/svg" xmlns:xlink="http://www.w3.org/1999/xlink"><g transform="translate(77,5)"><g class="mark-group role-frame root"><g transform="translate(0,0)"><path class="background" d="M0.5,0.5h363.3125v1158.9453125h-363.3125Z" style="fill: none; stroke: #ddd; stroke-opacity: 0;"></path><g><g class="mark-symbol role-mark layer_0_marks"><path transform="translate(90.828125,938.1938244047619)" d="M0.5,0A0.5,0.5,0,1,1,-0.5,0A0.5,0.5,0,1,1,0.5,0" style="fill: #000000; stroke-width: 2; opacity: 0;"></path><path transform="translate(272.484375,938.1938244047619)" d="M0.5,0A0.5,0.5,0,1,1,-0.5,0A0.5,0.5,0,1,1,0.5,0" style="fill: #000000; stroke-width: 2; opacity: 0;"></path><path transform="translate(88.10328114172444,761.5926339285714)" d="M0.5,0A0.5,0.5,0,1,1,-0.5,0A0.5,0.5,0,1,1,0.5,0" style="fill: #000000; stroke-width: 2; opacity: 0;"></path><path transform="translate(275.20921182036403,761.5926339285714)" d="M0.5,0A0.5,0.5,0,1,1,-0.5,0A0.5,0.5,0,1,1,0.5,0" style="fill: #000000; stroke-width: 2; opacity: 0;"></path><path transform="translate(85.37843728344887,584.991443452381)" d="M0.5,0A0.5,0.5,0,1,1,-0.5,0A0.5,0.5,0,1,1,0.5,0" style="fill: #000000; stroke-width: 2; opacity: 0;"></path><path transform="translate(277.934065964818,584.991443452381)" d="M0.5,0A0.5,0.5,0,1,1,-0.5,0A0.5,0.5,0,1,1,0.5,0" style="fill: #000000; stroke-width: 2; opacity: 0;"></path><path transform="translate(82.65359396655113,408.3902529761904)" d="M0.5,0A0.5,0.5,0,1,1,-0.5,0A0.5,0.5,0,1,1,0.5,0" style="fill: #000000; stroke-width: 2; opacity: 0;"></path><path transform="translate(280.65890278518197,408.3902529761904)" d="M0.5,0A0.5,0.5,0,1,1,-0.5,0A0.5,0.5,0,1,1,0.5,0" style="fill: #000000; stroke-width: 2; opacity: 0;"></path><path transform="translate(79.92874956689775,231.78906249999994)" d="M0.5,0A0.5,0.5,0,1,1,-0.5,0A0.5,0.5,0,1,1,0.5,0" style="fill: #000000; stroke-width: 2; opacity: 0;"></path><path transform="translate(283.38375692963604,231.78906249999994)" d="M0.5,0A0.5,0.5,0,1,1,-0.5,0A0.5,0.5,0,1,1,0.5,0" style="fill: #000000; stroke-width: 2; opacity: 0;"></path><path transform="translate(77.20390625,55.18787202380958)" d="M0.5,0A0.5,0.5,0,1,1,-0.5,0A0.5,0.5,0,1,1,0.5,0" style="fill: #000000; stroke-width: 2; opacity: 0;"></path><path transform="translate(286.10859375,55.18787202380958)" d="M0.5,0A0.5,0.5,0,1,1,-0.5,0A0.5,0.5,0,1,1,0.5,0" style="fill: #000000; stroke-width: 2; opacity: 0;"></path></g><g class="mark-line role-mark layer_1_marks"><path d="M90.828125,938.1938244047619L272.484375,938.1938244047619" style="fill: none; stroke: #000000; stroke-width: 11.25; opacity: 1;"></path></g><g class="mark-line role-mark layer_2_marks"><path d="M88.10328114172444,761.5926339285714L90.828125,938.1938244047619" style="fill: none; stroke: #000000; stroke-width: 11.25; opacity: 1;"></path></g><g class="mark-line role-mark layer_3_marks"><path d="M90.828125,938.1938244047619L275.20921182036403,761.5926339285714" style="fill: none; stroke: #000000; stroke-width: 11.25; opacity: 1;"></path></g><g class="mark-line role-mark layer_4_marks"><path d="M88.10328114172444,761.5926339285714L272.484375,938.1938244047619" style="fill: none; stroke: #000000; stroke-width: 11.25; opacity: 1;"></path></g><g class="mark-line role-mark layer_5_marks"><path d="M272.484375,938.1938244047619L275.20921182036403,761.5926339285714" style="fill: none; stroke: #000000; stroke-width: 11.25; opacity: 1;"></path></g><g class="mark-line role-mark layer_6_marks"><path d="M88.10328114172444,761.5926339285714L275.20921182036403,761.5926339285714" style="fill: none; stroke: #000000; stroke-width: 11.25; opacity: 1;"></path></g><g class="mark-line role-mark layer_7_marks"><path d="M85.37843728344887,584.991443452381L88.10328114172444,761.5926339285714" style="fill: none; stroke: #000000; stroke-width: 11.25; opacity: 1;"></path></g><g class="mark-line role-mark layer_8_marks"><path d="M88.10328114172444,761.5926339285714L277.934065964818,584.991443452381" style="fill: none; stroke: #000000; stroke-width: 11.25; opacity: 1;"></path></g><g class="mark-line role-mark layer_9_marks"><path d="M85.37843728344887,584.991443452381L275.20921182036403,761.5926339285714" style="fill: none; stroke: #000000; stroke-width: 11.25; opacity: 1;"></path></g><g class="mark-line role-mark layer_10_marks"><path d="M275.20921182036403,761.5926339285714L277.934065964818,584.991443452381" style="fill: none; stroke: #000000; stroke-width: 11.25; opacity: 1;"></path></g><g class="mark-line role-mark layer_11_marks"><path d="M85.37843728344887,584.991443452381L277.934065964818,584.991443452381" style="fill: none; stroke: #000000; stroke-width: 11.25; opacity: 1;"></path></g><g class="mark-line role-mark layer_12_marks"><path d="M82.65359396655113,408.3902529761904L85.37843728344887,584.991443452381" style="fill: none; stroke: #000000; stroke-width: 11.25; opacity: 1;"></path></g><g class="mark-line role-mark layer_13_marks"><path d="M85.37843728344887,584.991443452381L280.65890278518197,408.3902529761904" style="fill: none; stroke: #000000; stroke-width: 11.25; opacity: 1;"></path></g><g class="mark-line role-mark layer_14_marks"><path d="M82.65359396655113,408.3902529761904L277.934065964818,584.991443452381" style="fill: none; stroke: #000000; stroke-width: 11.25; opacity: 1;"></path></g><g class="mark-line role-mark layer_15_marks"><path d="M277.934065964818,584.991443452381L280.65890278518197,408.3902529761904" style="fill: none; stroke: #000000; stroke-width: 11.25; opacity: 1;"></path></g><g class="mark-line role-mark layer_16_marks"><path d="M82.65359396655113,408.3902529761904L280.65890278518197,408.3902529761904" style="fill: none; stroke: #000000; stroke-width: 11.25; opacity: 1;"></path></g><g class="mark-line role-mark layer_17_marks"><path d="M79.92874956689775,231.78906249999994L82.65359396655113,408.3902529761904" style="fill: none; stroke: #000000; stroke-width: 11.25; opacity: 1;"></path></g><g class="mark-line role-mark layer_18_marks"><path d="M82.65359396655113,408.3902529761904L283.38375692963604,231.78906249999994" style="fill: none; stroke: #000000; stroke-width: 11.25; opacity: 1;"></path></g><g class="mark-line role-mark layer_19_marks"><path d="M79.92874956689775,231.78906249999994L280.65890278518197,408.3902529761904" style="fill: none; stroke: #000000; stroke-width: 11.25; opacity: 1;"></path></g><g class="mark-line role-mark layer_20_marks"><path d="M280.65890278518197,408.3902529761904L283.38375692963604,231.78906249999994" style="fill: none; stroke: #000000; stroke-width: 11.25; opacity: 1;"></path></g><g class="mark-line role-mark layer_21_marks"><path d="M79.92874956689775,231.78906249999994L283.38375692963604,231.78906249999994" style="fill: none; stroke: #000000; stroke-width: 11.25; opacity: 1;"></path></g><g class="mark-line role-mark layer_22_marks"><path d="M77.20390625,55.18787202380958L79.92874956689775,231.78906249999994" style="fill: none; stroke: #000000; stroke-width: 11.25; opacity: 1;"></path></g><g class="mark-line role-mark layer_23_marks"><path d="M79.92874956689775,231.78906249999994L286.10859375,55.18787202380958" style="fill: none; stroke: #000000; stroke-width: 11.25; opacity: 1;"></path></g><g class="mark-line role-mark layer_24_marks"><path d="M77.20390625,55.18787202380958L283.38375692963604,231.78906249999994" style="fill: none; stroke: #000000; stroke-width: 11.25; opacity: 1;"></path></g><g class="mark-line role-mark layer_25_marks"><path d="M283.38375692963604,231.78906249999994L286.10859375,55.18787202380958" style="fill: none; stroke: #000000; stroke-width: 11.25; opacity: 1;"></path></g><g class="mark-line role-mark layer_26_marks"><path d="M77.20390625,55.18787202380958L286.10859375,55.18787202380958" style="fill: none; stroke: #000000; stroke-width: 11.25; opacity: 1;"></path></g><g class="mark-symbol role-mark layer_27_marks"><path transform="translate(90.828125,938.1938244047619)" d="M0,0L43.30127018922193,74.99779996773239L-43.30127018922193,74.99779996773239Z" style="fill: #0096C7; stroke: #0096C7; stroke-width: 2; opacity: 1;"></path><path transform="translate(272.484375,938.1938244047619)" d="M0,0L43.30127018922193,74.99779996773239L-43.30127018922193,74.99779996773239Z" style="fill: #0096C7; stroke: #0096C7; stroke-width: 2; opacity: 1;"></path></g><g class="mark-symbol role-mark layer_28_marks"></g><g class="mark-symbol role-mark layer_29_marks"><path transform="translate(88.10328114172444,761.5926339285714)" d="M0,0L-47.43416490252569,21.908902300206645L-47.43416490252569,5.4772255750516585L-164.31676725154983,5.477225575051651L-164.31676725154983,-5.477225575051672L-47.43416490252569,-5.477225575051665L-47.43416490252569,-21.90890230020665" style="fill: #0096C7; stroke: #0096C7; stroke-width: 2; opacity: 1;"></path><path transform="translate(275.20921182036403,761.5926339285714)" d="M0,0L-47.43416490252569,21.908902300206645L-47.43416490252569,5.4772255750516585L-164.31676725154983,5.477225575051651L-164.31676725154983,-5.477225575051672L-47.43416490252569,-5.477225575051665L-47.43416490252569,-21.90890230020665" style="fill: #0096C7; stroke: #0096C7; stroke-width: 2; opacity: 1;"></path><path transform="translate(85.37843728344887,584.991443452381)" d="M0,0L-47.43416490252569,21.908902300206645L-47.43416490252569,5.4772255750516585L-164.31676725154983,5.477225575051651L-164.31676725154983,-5.477225575051672L-47.43416490252569,-5.477225575051665L-47.43416490252569,-21.90890230020665" style="fill: #0096C7; stroke: #0096C7; stroke-width: 2; opacity: 1;"></path><path transform="translate(277.934065964818,584.991443452381)" d="M0,0L-47.43416490252569,21.908902300206645L-47.43416490252569,5.4772255750516585L-164.31676725154983,5.477225575051651L-164.31676725154983,-5.477225575051672L-47.43416490252569,-5.477225575051665L-47.43416490252569,-21.90890230020665" style="fill: #0096C7; stroke: #0096C7; stroke-width: 2; opacity: 1;"></path><path transform="translate(82.65359396655113,408.3902529761904)" d="M0,0L-47.43416490252569,21.908902300206645L-47.43416490252569,5.4772255750516585L-164.31676725154983,5.477225575051651L-164.31676725154983,-5.477225575051672L-47.43416490252569,-5.477225575051665L-47.43416490252569,-21.90890230020665" style="fill: #0096C7; stroke: #0096C7; stroke-width: 2; opacity: 1;"></path><path transform="translate(280.65890278518197,408.3902529761904)" d="M0,0L-47.43416490252569,21.908902300206645L-47.43416490252569,5.4772255750516585L-164.31676725154983,5.477225575051651L-164.31676725154983,-5.477225575051672L-47.43416490252569,-5.477225575051665L-47.43416490252569,-21.90890230020665" style="fill: #0096C7; stroke: #0096C7; stroke-width: 2; opacity: 1;"></path><path transform="translate(79.92874956689775,231.78906249999994)" d="M0,0L-47.43416490252569,21.908902300206645L-47.43416490252569,5.4772255750516585L-164.31676725154983,5.477225575051651L-164.31676725154983,-5.477225575051672L-47.43416490252569,-5.477225575051665L-47.43416490252569,-21.90890230020665" style="fill: #0096C7; stroke: #0096C7; stroke-width: 2; opacity: 1;"></path><path transform="translate(283.38375692963604,231.78906249999994)" d="M0,0L-47.43416490252569,21.908902300206645L-47.43416490252569,5.4772255750516585L-164.31676725154983,5.477225575051651L-164.31676725154983,-5.477225575051672L-47.43416490252569,-5.477225575051665L-47.43416490252569,-21.90890230020665" style="fill: #0096C7; stroke: #0096C7; stroke-width: 2; opacity: 1;"></path><path transform="translate(77.20390625,55.18787202380958)" d="M0,0L-47.43416490252569,21.908902300206645L-47.43416490252569,5.4772255750516585L-164.31676725154983,5.477225575051651L-164.31676725154983,-5.477225575051672L-47.43416490252569,-5.477225575051665L-47.43416490252569,-21.90890230020665" style="fill: #0096C7; stroke: #0096C7; stroke-width: 2; opacity: 1;"></path><path transform="translate(286.10859375,55.18787202380958)" d="M0,0L-47.43416490252569,21.908902300206645L-47.43416490252569,5.4772255750516585L-164.31676725154983,5.477225575051651L-164.31676725154983,-5.477225575051672L-47.43416490252569,-5.477225575051665L-47.43416490252569,-21.90890230020665" style="fill: #0096C7; stroke: #0096C7; stroke-width: 2; opacity: 1;"></path></g></g><path class="foreground" d="" style="display: none; fill: none;"></path></g></g></g></svg>