<svg class="marks" width="1781.25" height="1318.125" viewBox="0 0 1781.25 1318.125" version="1.1" xmlns="http://www.w3.org/2000/svg" xmlns:xlink="http://www.w3.org/1999/xlink"><g transform="translate(37,5)"><g class="mark-group role-frame root"><g transform="translate(0,0)"><path class="background" d="M0.5,0.5h1707.25v1308.125h-1707.25Z" style="fill: none; stroke: #ddd; stroke-opacity: 0;"></path><g><g class="mark-symbol role-mark layer_0_marks"><path transform="translate(0,353.5472972972973)" d="M31.622776601683793,0A31.622776601683793,31.622776601683793,0,1,1,-31.622776601683793,0A31.622776601683793,31.622776601683793,0,1,1,31.622776601683793,0" style="fill: #000000; stroke-width: 2; opacity: 1;"></path><path transform="translate(243.89285481691363,353.5472972972973)" d="M31.622776601683793,0A31.622776601683793,31.622776601683793,0,1,1,-31.622776601683793,0A31.622776601683793,31.622776601683793,0,1,1,31.622776601683793,0" style="fill: #000000; stroke-width: 2; opacity: 1;"></path><path transform="translate(487.78570963382725,353.5472972972973)" d="M31.622776601683793,0A31.622776601683793,31.622776601683793,0,1,1,-31.622776601683793,0A31.622776601683793,31.622776601683793,0,1,1,31.622776601683793,0" style="fill: #000000; stroke-width: 2; opacity: 1;"></path><path transform="translate(731.6785807323455,353.5472972972973)" d="M31.622776601683793,0A31.622776601683793,31.622776601683793,0,1,1,-31.622776601683793,0A31.622776601683793,31.622776601683793,0,1,1,31.622776601683793,0" style="fill: #000000; stroke-width: 2; opacity: 1;"></path><path transform="translate(975.5714192676545,353.5472972972973)" d="M31.622776601683793,0A31.622776601683793,31.622776601683793,0,1,1,-31.622776601683793,0A31.622776601683793,31.622776601683793,0,1,1,31.622776601683793,0" style="fill: #000000; stroke-width: 2; opacity: 1;"></path><path transform="translate(1219.4643229293824,353.5472972972973)" d="M31.622776601683793,0A31.622776601683793,31.622776601683793,0,1,1,-31.622776601683793,0A31.622776601683793,31.622776601683793,0,1,1,31.622776601683793,0" style="fill: #000000; stroke-width: 2; opacity: 1;"></path><path transform="translate(1463.357161464691,353.5472972972973)" d="M31.622776601683793,0A31.622776601683793,31.622776601683793,0,1,1,-31.622776601683793,0A31.622776601683793,31.622776601683793,0,1,1,31.622776601683793,0" style="fill: #000000; stroke-width: 2; opacity: 1;"></path><path transform="translate(1707.25,353.5472972972973)" d="M31.622776601683793,0A31.622776601683793,31.622776601683793,0,1,1,-31.622776601683793,0A31.622776601683793,31.622776601683793,0,1,1,31.622776601683793,0" style="fill: #000000; stroke-width: 2; opacity: 1;"></path><path transform="translate(114.13941420435906,610.8935083408613)" d="M31.622776601683793,0A31.622776601683793,31.622776601683793,0,1,1,-31.622776601683793,0A31.622776601683793,31.622776601683793,0,1,1,31.622776601683793,0" style="fill: #000000; stroke-width: 2; opacity: 1;"></path><path transform="translate(306.2983083772659,795.091449280043)" d="M31.622776601683793,0A31.622776601683793,31.622776601683793,0,1,1,-31.622776601683793,0A31.622776601683793,31.622776601683793,0,1,1,31.622776601683793,0" style="fill: #000000; stroke-width: 2; opacity: 1;"></path><path transform="translate(579.9586420917511,795.481418918919)" d="M31.622776601683793,0A31.622776601683793,31.622776601683793,0,1,1,-31.622776601683793,0A31.622776601683793,31.622776601683793,0,1,1,31.622776601683793,0" style="fill: #000000; stroke-width: 2; opacity: 1;"></path><path transform="translate(853.625,795.481418918919)" d="M31.622776601683793,0A31.622776601683793,31.622776601683793,0,1,1,-31.622776601683793,0A31.622776601683793,31.622776601683793,0,1,1,31.622776601683793,0" style="fill: #000000; stroke-width: 2; opacity: 1;"></path><path transform="translate(1127.2912927818297,795.481418918919)" d="M31.622776601683793,0A31.622776601683793,31.622776601683793,0,1,1,-31.622776601683793,0A31.622776601683793,31.622776601683793,0,1,1,31.622776601683793,0" style="fill: #000000; stroke-width: 2; opacity: 1;"></path><path transform="translate(1400.9517241859437,795.091449280043)" d="M31.622776601683793,0A31.622776601683793,31.622776601683793,0,1,1,-31.622776601683793,0A31.622776601683793,31.622776601683793,0,1,1,31.622776601683793,0" style="fill: #000000; stroke-width: 2; opacity: 1;"></path><path transform="translate(1593.1106102180481,610.8935083408613)" d="M31.622776601683793,0A31.622776601683793,31.622776601683793,0,1,1,-31.622776601683793,0A31.622776601683793,31.622776601683793,0,1,1,31.622776601683793,0" style="fill: #000000; stroke-width: 2; opacity: 1;"></path></g><g class="mark-line role-mark layer_1_marks"><path d="M0,353.5472972972973L243.89285481691363,353.5472972972973" style="fill: none; stroke: #000000; stroke-width: 15; opacity: 1;"></path></g><g class="mark-line role-mark layer_2_marks"><path d="M0,353.5472972972973L114.13941420435906,610.8935083408613" style="fill: none; stroke: #000000; stroke-width: 15; opacity: 1;"></path></g><g class="mark-line role-mark layer_3_marks"><path d="M243.89285481691363,353.5472972972973L487.78570963382725,353.5472972972973" style="fill: none; stroke: #000000; stroke-width: 15; opacity: 1;"></path></g><g class="mark-line role-mark layer_4_marks"><path d="M114.13941420435906,610.8935083408613L243.89285481691363,353.5472972972973" style="fill: none; stroke: #000000; stroke-width: 15; opacity: 1;"></path></g><g class="mark-line role-mark layer_5_marks"><path d="M243.89285481691363,353.5472972972973L306.2983083772659,795.091449280043" style="fill: none; stroke: #000000; stroke-width: 15; opacity: 1;"></path></g><g class="mark-line role-mark layer_6_marks"><path d="M487.78570963382725,353.5472972972973L731.6785807323455,353.5472972972973" style="fill: none; stroke: #000000; stroke-width: 15; opacity: 1;"></path></g><g class="mark-line role-mark layer_7_marks"><path d="M306.2983083772659,795.091449280043L487.78570963382725,353.5472972972973" style="fill: none; stroke: #000000; stroke-width: 15; opacity: 1;"></path></g><g class="mark-line role-mark layer_8_marks"><path d="M487.78570963382725,353.5472972972973L579.9586420917511,795.481418918919" style="fill: none; stroke: #000000; stroke-width: 15; opacity: 1;"></path></g><g class="mark-line role-mark layer_9_marks"><path d="M731.6785807323455,353.5472972972973L975.5714192676545,353.5472972972973" style="fill: none; stroke: #000000; stroke-width: 15; opacity: 1;"></path></g><g class="mark-line role-mark layer_10_marks"><path d="M579.9586420917511,795.481418918919L731.6785807323455,353.5472972972973" style="fill: none; stroke: #000000; stroke-width: 15; opacity: 1;"></path></g><g class="mark-line role-mark layer_11_marks"><path d="M731.6785807323455,353.5472972972973L853.625,795.481418918919" style="fill: none; stroke: #000000; stroke-width: 15; opacity: 1;"></path></g><g class="mark-line role-mark layer_12_marks"><path d="M975.5714192676545,353.5472972972973L1219.4643229293824,353.5472972972973" style="fill: none; stroke: #000000; stroke-width: 15; opacity: 1;"></path></g><g class="mark-line role-mark layer_13_marks"><path d="M853.625,795.481418918919L975.5714192676545,353.5472972972973" style="fill: none; stroke: #000000; stroke-width: 15; opacity: 1;"></path></g><g class="mark-line role-mark layer_14_marks"><path d="M975.5714192676545,353.5472972972973L1127.2912927818297,795.481418918919" style="fill: none; stroke: #000000; stroke-width: 15; opacity: 1;"></path></g><g class="mark-line role-mark layer_15_marks"><path d="M1219.4643229293824,353.5472972972973L1463.357161464691,353.5472972972973" style="fill: none; stroke: #000000; stroke-width: 15; opacity: 1;"></path></g><g class="mark-line role-mark layer_16_marks"><path d="M1127.2912927818297,795.481418918919L1219.4643229293824,353.5472972972973" style="fill: none; stroke: #000000; stroke-width: 15; opacity: 1;"></path></g><g class="mark-line role-mark layer_17_marks"><path d="M1219.4643229293824,353.5472972972973L1400.9517241859437,795.091449280043" style="fill: none; stroke: #000000; stroke-width: 15; opacity: 1;"></path></g><g class="mark-line role-mark layer_18_marks"><path d="M1463.357161464691,353.5472972972973L1707.25,353.5472972972973" style="fill: none; stroke: #000000; stroke-width: 15; opacity: 1;"></path></g><g class="mark-line role-mark layer_19_marks"><path d="M1400.9517241859437,795.091449280043L1463.357161464691,353.5472972972973" style="fill: none; stroke: #000000; stroke-width: 15; opacity: 1;"></path></g><g class="mark-line role-mark layer_20_marks"><path d="M1463.357161464691,353.5472972972973L1593.1106102180481,610.8935083408613" style="fill: none; stroke: #000000; stroke-width: 15; opacity: 1;"></path></g><g class="mark-line role-mark layer_21_marks"><path d="M1593.1106102180481,610.8935083408613L1707.25,353.5472972972973" style="fill: none; stroke: #000000; stroke-width: 15; opacity: 1;"></path></g><g class="mark-line role-mark layer_22_marks"><path d="M114.13941420435906,610.8935083408613L306.2983083772659,795.091449280043" style="fill: none; stroke: #000000; stroke-width: 15; opacity: 1;"></path></g><g class="mark-line role-mark layer_23_marks"><path d="M306.2983083772659,795.091449280043L579.9586420917511,795.481418918919" style="fill: none; stroke: #000000; stroke-width: 15; opacity: 1;"></path></g><g class="mark-line role-mark layer_24_marks"><path d="M579.9586420917511,795.481418918919L853.625,795.481418918919" style="fill: none; stroke: #000000; stroke-width: 15; opacity: 1;"></path></g><g class="mark-line role-mark layer_25_marks"><path d="M853.625,795.481418918919L1127.2912927818297,795.481418918919" style="fill: none; stroke: #000000; stroke-width: 15; opacity: 1;"></path></g><g class="mark-line role-mark layer_26_marks"><path d="M1127.2912927818297,795.481418918919L1400.9517241859437,795.091449280043" style="fill: none; stroke: #000000; stroke-width: 15; opacity: 1;"></path></g><g class="mark-line role-mark layer_27_marks"><path d="M1400.9517241859437,795.091449280043L1593.1106102180481,610.8935083408613" style="fill: none; stroke: #000000; stroke-width: 15; opacity: 1;"></path></g></g><path class="foreground" d="" style="display: none; fill: none;"></path></g></g></g></svg>