<svg class="marks" width="1781.25" height="800" viewBox="0 0 1781.25 800" version="1.1" xmlns="http://www.w3.org/2000/svg" xmlns:xlink="http://www.w3.org/1999/xlink"><rect width="1781.25" height="800" style="fill: white;"></rect><g transform="translate(139,126)"><g class="mark-group role-frame root"><g transform="translate(0,0)"><path class="background" d="M0.5,0.5h1636.25v598h-1636.25Z" style="fill: none; stroke: #ddd; stroke-opacity: 0;"></path><g><g class="mark-group role-axis"><g transform="translate(0.5,598.5)"><path class="background" d="M0,0h0v0h0Z" style="pointer-events: none; fill: none;"></path><g><g class="mark-rule role-axis-tick" style="pointer-events: none;"><line transform="translate(0,0)" x2="0" y2="5" style="fill: none; stroke: #888; stroke-width: 1; opacity: 1;"></line><line transform="translate(164,0)" x2="0" y2="5" style="fill: none; stroke: #888; stroke-width: 1; opacity: 1;"></line><line transform="translate(260,0)" x2="0" y2="5" style="fill: none; stroke: #888; stroke-width: 1; opacity: 1;"></line><line transform="translate(328,0)" x2="0" y2="5" style="fill: none; stroke: #888; stroke-width: 1; opacity: 1;"></line><line transform="translate(381,0)" x2="0" y2="5" style="fill: none; stroke: #888; stroke-width: 1; opacity: 1;"></line><line transform="translate(424,0)" x2="0" y2="5" style="fill: none; stroke: #888; stroke-width: 1; opacity: 1;"></line><line transform="translate(461,0)" x2="0" y2="5" style="fill: none; stroke: #888; stroke-width: 1; opacity: 1;"></line><line transform="translate(493,0)" x2="0" y2="5" style="fill: none; stroke: #888; stroke-width: 1; opacity: 1;"></line><line transform="translate(520,0)" x2="0" y2="5" style="fill: none; stroke: #888; stroke-width: 1; opacity: 1;"></line><line transform="translate(545,0)" x2="0" y2="5" style="fill: none; stroke: #888; stroke-width: 1; opacity: 1;"></line><line transform="translate(710,0)" x2="0" y2="5" style="fill: none; stroke: #888; stroke-width: 1; opacity: 1;"></line><line transform="translate(806,0)" x2="0" y2="5" style="fill: none; stroke: #888; stroke-width: 1; opacity: 1;"></line><line transform="translate(874,0)" x2="0" y2="5" style="fill: none; stroke: #888; stroke-width: 1; opacity: 1;"></line><line transform="translate(927,0)" x2="0" y2="5" style="fill: none; stroke: #888; stroke-width: 1; opacity: 1;"></line><line transform="translate(970,0)" x2="0" y2="5" style="fill: none; stroke: #888; stroke-width: 1; opacity: 1;"></line><line transform="translate(1006,0)" x2="0" y2="5" style="fill: none; stroke: #888; stroke-width: 1; opacity: 1;"></line><line transform="translate(1038,0)" x2="0" y2="5" style="fill: none; stroke: #888; stroke-width: 1; opacity: 1;"></line><line transform="translate(1066,0)" x2="0" y2="5" style="fill: none; stroke: #888; stroke-width: 1; opacity: 1;"></line><line transform="translate(1091,0)" x2="0" y2="5" style="fill: none; stroke: #888; stroke-width: 1; opacity: 1;"></line><line transform="translate(1255,0)" x2="0" y2="5" style="fill: none; stroke: #888; stroke-width: 1; opacity: 1;"></line><line transform="translate(1351,0)" x2="0" y2="5" style="fill: none; stroke: #888; stroke-width: 1; opacity: 1;"></line><line transform="translate(1419,0)" x2="0" y2="5" style="fill: none; stroke: #888; stroke-width: 1; opacity: 1;"></line><line transform="translate(1472,0)" x2="0" y2="5" style="fill: none; stroke: #888; stroke-width: 1; opacity: 1;"></line><line transform="translate(1515,0)" x2="0" y2="5" style="fill: none; stroke: #888; stroke-width: 1; opacity: 1;"></line><line transform="translate(1552,0)" x2="0" y2="5" style="fill: none; stroke: #888; stroke-width: 1; opacity: 1;"></line><line transform="translate(1583,0)" x2="0" y2="5" style="fill: none; stroke: #888; stroke-width: 1; opacity: 1;"></line><line transform="translate(1611,0)" x2="0" y2="5" style="fill: none; stroke: #888; stroke-width: 1; opacity: 1;"></line><line transform="translate(1636,0)" x2="0" y2="5" style="fill: none; stroke: #888; stroke-width: 1; opacity: 1;"></line></g><g class="mark-text role-axis-label" style="pointer-events: none;"><text text-anchor="start" transform="translate(0,31)" style="font-family: arial; font-size: 30px; fill: #000; opacity: 1;">1</text><text text-anchor="middle" transform="translate(164.18677680172974,31)" style="font-family: arial; font-size: 30px; fill: #000; opacity: 1;">2</text><text text-anchor="middle" transform="translate(260.2298843450159,31)" style="font-family: arial; font-size: 30px; fill: #000; opacity: 1;">3</text><text text-anchor="middle" transform="translate(328.37355360345947,31)" style="font-family: arial; font-size: 30px; fill: #000; opacity: 1;"></text><text text-anchor="middle" transform="translate(381.2298898649369,31)" style="font-family: arial; font-size: 30px; fill: #000; opacity: 1;"></text><text text-anchor="middle" transform="translate(424.41666114674564,31)" style="font-family: arial; font-size: 30px; fill: #000; opacity: 1;"></text><text text-anchor="middle" transform="translate(460.93055599110926,31)" style="font-family: arial; font-size: 30px; fill: #000; opacity: 1;"></text><text text-anchor="middle" transform="translate(492.56033040518923,31)" style="font-family: arial; font-size: 30px; fill: #000; opacity: 1;"></text><text text-anchor="middle" transform="translate(520.4597686900318,31)" style="font-family: arial; font-size: 30px; fill: #000; opacity: 1;"></text><text text-anchor="middle" transform="translate(545.4166666666667,31)" style="font-family: arial; font-size: 30px; fill: #000; opacity: 1;">10</text><text text-anchor="middle" transform="translate(709.6034434683964,31)" style="font-family: arial; font-size: 30px; fill: #000; opacity: 1;">20</text><text text-anchor="middle" transform="translate(805.6465510116826,31)" style="font-family: arial; font-size: 30px; fill: #000; opacity: 1;">30</text><text text-anchor="middle" transform="translate(873.7902202701262,31)" style="font-family: arial; font-size: 30px; fill: #000; opacity: 1;"></text><text text-anchor="middle" transform="translate(926.6465565316036,31)" style="font-family: arial; font-size: 30px; fill: #000; opacity: 1;"></text><text text-anchor="middle" transform="translate(969.8333278134123,31)" style="font-family: arial; font-size: 30px; fill: #000; opacity: 1;"></text><text text-anchor="middle" transform="translate(1006.347222657776,31)" style="font-family: arial; font-size: 30px; fill: #000; opacity: 1;"></text><text text-anchor="middle" transform="translate(1037.976997071856,31)" style="font-family: arial; font-size: 30px; fill: #000; opacity: 1;"></text><text text-anchor="middle" transform="translate(1065.8764353566985,31)" style="font-family: arial; font-size: 30px; fill: #000; opacity: 1;"></text><text text-anchor="middle" transform="translate(1090.8333333333335,31)" style="font-family: arial; font-size: 30px; fill: #000; opacity: 1;">100</text><text text-anchor="middle" transform="translate(1255.020110135063,31)" style="font-family: arial; font-size: 30px; fill: #000; opacity: 1;">200</text><text text-anchor="middle" transform="translate(1351.0632176783492,31)" style="font-family: arial; font-size: 30px; fill: #000; opacity: 1;">300</text><text text-anchor="middle" transform="translate(1419.206886936793,31)" style="font-family: arial; font-size: 30px; fill: #000; opacity: 1;"></text><text text-anchor="middle" transform="translate(1472.0632231982702,31)" style="font-family: arial; font-size: 30px; fill: #000; opacity: 1;"></text><text text-anchor="middle" transform="translate(1515.249994480079,31)" style="font-family: arial; font-size: 30px; fill: #000; opacity: 1;"></text><text text-anchor="middle" transform="translate(1551.7638893244425,31)" style="font-family: arial; font-size: 30px; fill: #000; opacity: 1;"></text><text text-anchor="middle" transform="translate(1583.3936637385225,31)" style="font-family: arial; font-size: 30px; fill: #000; opacity: 1;"></text><text text-anchor="middle" transform="translate(1611.2931020233652,31)" style="font-family: arial; font-size: 30px; fill: #000; opacity: 1;"></text><text text-anchor="end" transform="translate(1636.25,31)" style="font-family: arial; font-size: 30px; fill: #000; opacity: 1;">1,000</text></g><g class="mark-rule role-axis-domain" style="pointer-events: none;"><line transform="translate(0,0)" x2="1636.25" y2="0" style="fill: none; stroke: #888; stroke-width: 1; opacity: 1;"></line></g><g class="mark-text role-axis-title" style="pointer-events: none;"><text text-anchor="middle" transform="translate(818.125,65)" style="font-family: arial; font-size: 30px; font-weight: bold; fill: #000; opacity: 1;">Number of Training Samples</text></g></g><path class="foreground" d="" style="pointer-events: none; display: none; fill: none;"></path></g></g><g class="mark-group role-axis"><g transform="translate(0.5,0.5)"><path class="background" d="M0,0h0v0h0Z" style="pointer-events: none; fill: none;"></path><g><g class="mark-rule role-axis-tick" style="pointer-events: none;"><line transform="translate(0,598)" x2="-5" y2="0" style="fill: none; stroke: #888; stroke-width: 1; opacity: 1;"></line><line transform="translate(0,326)" x2="-5" y2="0" style="fill: none; stroke: #888; stroke-width: 1; opacity: 1;"></line><line transform="translate(0,54)" x2="-5" y2="0" style="fill: none; stroke: #888; stroke-width: 1; opacity: 1;"></line></g><g class="mark-text role-axis-label" style="pointer-events: none;"><text text-anchor="end" transform="translate(-7,607)" style="font-family: arial; font-size: 30px; fill: #000; opacity: 1;">0.0e+0</text><text text-anchor="end" transform="translate(-7,335.18181818181813)" style="font-family: arial; font-size: 30px; fill: #000; opacity: 1;">1.0e-3</text><text text-anchor="end" transform="translate(-7,63.36363636363638)" style="font-family: arial; font-size: 30px; fill: #000; opacity: 1;">2.0e-3</text></g><g class="mark-rule role-axis-domain" style="pointer-events: none;"><line transform="translate(0,598)" x2="0" y2="-598" style="fill: none; stroke: #888; stroke-width: 1; opacity: 1;"></line></g><g class="mark-text role-axis-title" style="pointer-events: none;"><text text-anchor="middle" transform="translate(-103.5927734375,299) rotate(-90) translate(0,-6)" style="font-family: arial; font-size: 30px; font-weight: bold; fill: #000; opacity: 1;">Mean Absolute Error (m)</text></g></g><path class="foreground" d="" style="pointer-events: none; display: none; fill: none;"></path></g></g><g class="mark-symbol role-mark layer_0_layer_0_marks"><path transform="translate(1612.8670044828953,464.7379496597092)" d="M9.354143466934854,0A9.354143466934854,9.354143466934854,0,1,1,-9.354143466934854,0A9.354143466934854,9.354143466934854,0,1,1,9.354143466934854,0" style="fill: none; stroke: rgb(20, 98, 154); stroke-width: 8; opacity: 0.7;"></path><path transform="translate(1612.8670044828953,482.0799943480471)" d="M-9.354143466934854,-9.354143466934854h18.708286933869708v18.708286933869708h-18.708286933869708Z" style="fill: none; stroke: rgb(3, 154, 199); stroke-width: 8; opacity: 0.7;"></path><path transform="translate(1612.8670044828953,463.98182663069736)" d="M0,-8.100925873009825L-9.354143466934854,8.100925873009825L9.354143466934854,8.100925873009825Z" style="fill: none; stroke: rgb(51, 212, 233); stroke-width: 8; opacity: 0.7;"></path><path transform="translate(1233.9785318571387,166.17149489813227)" d="M9.354143466934854,0A9.354143466934854,9.354143466934854,0,1,1,-9.354143466934854,0A9.354143466934854,9.354143466934854,0,1,1,9.354143466934854,0" style="fill: none; stroke: rgb(20, 98, 154); stroke-width: 8; opacity: 0.7;"></path><path transform="translate(1233.9785318571387,478.3070995110002)" d="M-9.354143466934854,-9.354143466934854h18.708286933869708v18.708286933869708h-18.708286933869708Z" style="fill: none; stroke: rgb(3, 154, 199); stroke-width: 8; opacity: 0.7;"></path><path transform="translate(1233.9785318571387,389.5440496467356)" d="M0,-8.100925873009825L-9.354143466934854,8.100925873009825L9.354143466934854,8.100925873009825Z" style="fill: none; stroke: rgb(51, 212, 233); stroke-width: 8; opacity: 0.7;"></path><path transform="translate(916.9769915519349,213.65043107115406)" d="M9.354143466934854,0A9.354143466934854,9.354143466934854,0,1,1,-9.354143466934854,0A9.354143466934854,9.354143466934854,0,1,1,9.354143466934854,0" style="fill: none; stroke: rgb(20, 98, 154); stroke-width: 8; opacity: 0.7;"></path><path transform="translate(916.9769915519349,411.02658762664277)" d="M-9.354143466934854,-9.354143466934854h18.708286933869708v18.708286933869708h-18.708286933869708Z" style="fill: none; stroke: rgb(3, 154, 199); stroke-width: 8; opacity: 0.7;"></path><path transform="translate(916.9769915519349,307.6118016269685)" d="M0,-8.100925873009825L-9.354143466934854,8.100925873009825L9.354143466934854,8.100925873009825Z" style="fill: none; stroke: rgb(51, 212, 233); stroke-width: 8; opacity: 0.7;"></path><path transform="translate(1086.0478887839483,255.33779644187192)" d="M9.354143466934854,0A9.354143466934854,9.354143466934854,0,1,1,-9.354143466934854,0A9.354143466934854,9.354143466934854,0,1,1,9.354143466934854,0" style="fill: none; stroke: rgb(20, 98, 154); stroke-width: 8; opacity: 0.7;"></path><path transform="translate(1086.0478887839483,458.3976537776603)" d="M-9.354143466934854,-9.354143466934854h18.708286933869708v18.708286933869708h-18.708286933869708Z" style="fill: none; stroke: rgb(3, 154, 199); stroke-width: 8; opacity: 0.7;"></path><path transform="translate(1086.0478887839483,345.3066511917212)" d="M0,-8.100925873009825L-9.354143466934854,8.100925873009825L9.354143466934854,8.100925873009825Z" style="fill: none; stroke: rgb(51, 212, 233); stroke-width: 8; opacity: 0.7;"></path><path transform="translate(520.4597686900318,2.0507286295972387)" d="M9.354143466934854,0A9.354143466934854,9.354143466934854,0,1,1,-9.354143466934854,0A9.354143466934854,9.354143466934854,0,1,1,9.354143466934854,0" style="fill: none; stroke: rgb(20, 98, 154); stroke-width: 8; opacity: 0.7;"></path><path transform="translate(520.4597686900318,190.67168583653194)" d="M-9.354143466934854,-9.354143466934854h18.708286933869708v18.708286933869708h-18.708286933869708Z" style="fill: none; stroke: rgb(3, 154, 199); stroke-width: 8; opacity: 0.7;"></path><path transform="translate(520.4597686900318,179.0358736575318)" d="M0,-8.100925873009825L-9.354143466934854,8.100925873009825L9.354143466934854,8.100925873009825Z" style="fill: none; stroke: rgb(51, 212, 233); stroke-width: 8; opacity: 0.7;"></path><path transform="translate(671.1073492017335,93.23411470854829)" d="M9.354143466934854,0A9.354143466934854,9.354143466934854,0,1,1,-9.354143466934854,0A9.354143466934854,9.354143466934854,0,1,1,9.354143466934854,0" style="fill: none; stroke: rgb(20, 98, 154); stroke-width: 8; opacity: 0.7;"></path><path transform="translate(671.1073492017335,378.2342745478858)" d="M-9.354143466934854,-9.354143466934854h18.708286933869708v18.708286933869708h-18.708286933869708Z" style="fill: none; stroke: rgb(3, 154, 199); stroke-width: 8; opacity: 0.7;"></path><path transform="translate(671.1073492017335,236.31827760625566)" d="M0,-8.100925873009825L-9.354143466934854,8.100925873009825L9.354143466934854,8.100925873009825Z" style="fill: none; stroke: rgb(51, 212, 233); stroke-width: 8; opacity: 0.7;"></path><path transform="translate(328.37355360345947,78.60939342054455)" d="M9.354143466934854,0A9.354143466934854,9.354143466934854,0,1,1,-9.354143466934854,0A9.354143466934854,9.354143466934854,0,1,1,9.354143466934854,0" style="fill: none; stroke: rgb(20, 98, 154); stroke-width: 8; opacity: 0.7;"></path><path transform="translate(328.37355360345947,96.55659626254992)" d="M-9.354143466934854,-9.354143466934854h18.708286933869708v18.708286933869708h-18.708286933869708Z" style="fill: none; stroke: rgb(3, 154, 199); stroke-width: 8; opacity: 0.7;"></path><path transform="translate(328.37355360345947,125.2554497462023)" d="M0,-8.100925873009825L-9.354143466934854,8.100925873009825L9.354143466934854,8.100925873009825Z" style="fill: none; stroke: rgb(51, 212, 233); stroke-width: 8; opacity: 0.7;"></path><path transform="translate(1441.7831473001747,433.40091737495226)" d="M9.354143466934854,0A9.354143466934854,9.354143466934854,0,1,1,-9.354143466934854,0A9.354143466934854,9.354143466934854,0,1,1,9.354143466934854,0" style="fill: none; stroke: rgb(20, 98, 154); stroke-width: 8; opacity: 0.7;"></path><path transform="translate(1441.7831473001747,487.1406165078621)" d="M-9.354143466934854,-9.354143466934854h18.708286933869708v18.708286933869708h-18.708286933869708Z" style="fill: none; stroke: rgb(3, 154, 199); stroke-width: 8; opacity: 0.7;"></path><path transform="translate(1441.7831473001747,423.5852581100841)" d="M0,-8.100925873009825L-9.354143466934854,8.100925873009825L9.354143466934854,8.100925873009825Z" style="fill: none; stroke: rgb(51, 212, 233); stroke-width: 8; opacity: 0.7;"></path></g><g class="mark-rule role-mark layer_0_layer_1_marks"><line transform="translate(1612.8670044828953,464.7379496597092)" x2="0" y2="17.342044688337864" style="fill: none; stroke: black; stroke-width: 2;"></line><line transform="translate(1233.9785318571387,166.17149489813227)" x2="0" y2="312.13560461286795" style="fill: none; stroke: black; stroke-width: 2;"></line><line transform="translate(916.9769915519349,213.65043107115406)" x2="0" y2="197.3761565554887" style="fill: none; stroke: black; stroke-width: 2;"></line><line transform="translate(1086.0478887839483,255.33779644187192)" x2="0" y2="203.0598573357884" style="fill: none; stroke: black; stroke-width: 2;"></line><line transform="translate(520.4597686900318,2.0507286295972387)" x2="0" y2="188.6209572069347" style="fill: none; stroke: black; stroke-width: 2;"></line><line transform="translate(671.1073492017335,93.23411470854829)" x2="0" y2="285.00015983933747" style="fill: none; stroke: black; stroke-width: 2;"></line><line transform="translate(328.37355360345947,78.60939342054455)" x2="0" y2="17.947202842005368" style="fill: none; stroke: black; stroke-width: 2;"></line><line transform="translate(1441.7831473001747,433.40091737495226)" x2="0" y2="53.739699132909834" style="fill: none; stroke: black; stroke-width: 2;"></line></g><g class="mark-group role-legend"><g transform="translate(0,-51)"><path class="background" d="M0,0h829v33h-829Z" style="pointer-events: none; fill: none;"></path><g><g class="mark-group role-legend-entry"><g transform="translate(0,0)"><path class="background" d="M0,0h0v0h0Z" style="pointer-events: none; fill: none;"></path><g><g class="mark-group role-scope"><g transform="translate(0,0.32292826653257123)"><path class="background" d="M0,0h100.6650390625v32.35414346693486h-100.6650390625Z" style="pointer-events: none; fill: none; opacity: 1;"></path><g><g class="mark-symbol role-legend-symbol" style="pointer-events: none;"><path transform="translate(15,15)" d="M9.354143466934854,0A9.354143466934854,9.354143466934854,0,1,1,-9.354143466934854,0A9.354143466934854,9.354143466934854,0,1,1,9.354143466934854,0" style="fill: none; stroke: rgb(20, 98, 154); stroke-width: 8; opacity: 0.7;"></path></g><g class="mark-text role-legend-label" style="pointer-events: none;"><text text-anchor="start" transform="translate(34,24)" style="font-family: sans-serif; font-size: 30px; fill: #000; opacity: 1;">GCN</text></g></g><path class="foreground" d="" style="pointer-events: none; display: none; fill: none;"></path></g><g transform="translate(164,0.32292826653257123)"><path class="background" d="M0,0h360.513671875v32.35414346693486h-360.513671875Z" style="pointer-events: none; fill: none; opacity: 1;"></path><g><g class="mark-symbol role-legend-symbol" style="pointer-events: none;"><path transform="translate(15,15)" d="M-9.354143466934854,-9.354143466934854h18.708286933869708v18.708286933869708h-18.708286933869708Z" style="fill: none; stroke: rgb(3, 154, 199); stroke-width: 8; opacity: 0.7;"></path></g><g class="mark-text role-legend-label" style="pointer-events: none;"><text text-anchor="start" transform="translate(34,24)" style="font-family: sans-serif; font-size: 30px; fill: #000; opacity: 1;">GCN + Transfer learning</text></g></g><path class="foreground" d="" style="pointer-events: none; display: none; fill: none;"></path></g><g transform="translate(588,0.9495370634950877)"><path class="background" d="M0,0h240.748046875v31.100925873009828h-240.748046875Z" style="pointer-events: none; fill: none; opacity: 1;"></path><g><g class="mark-symbol role-legend-symbol" style="pointer-events: none;"><path transform="translate(15,15)" d="M0,-8.100925873009825L-9.354143466934854,8.100925873009825L9.354143466934854,8.100925873009825Z" style="fill: none; stroke: rgb(51, 212, 233); stroke-width: 8; opacity: 0.7;"></path></g><g class="mark-text role-legend-label" style="pointer-events: none;"><text text-anchor="start" transform="translate(34,24)" style="font-family: sans-serif; font-size: 30px; fill: #000; opacity: 1;">Random Forest</text></g></g><path class="foreground" d="" style="pointer-events: none; display: none; fill: none;"></path></g></g></g><path class="foreground" d="" style="pointer-events: none; display: none; fill: none;"></path></g></g></g><path class="foreground" d="" style="pointer-events: none; display: none; fill: none;"></path></g></g><g class="mark-group role-title"><g transform="translate(818.125,-121)"><path class="background" d="M0,0h0v0h0Z" style="pointer-events: none; fill: none;"></path><g><g class="mark-text role-title-text" style="pointer-events: none;"><text text-anchor="middle" transform="translate(0,32)" style="font-family: arial; font-size: 40px; font-weight: bold; fill: #000; opacity: 1;">D. Transfer learning across design models - DM 7</text></g></g><path class="foreground" d="" style="pointer-events: none; display: none; fill: none;"></path></g></g></g><path class="foreground" d="" style="display: none; fill: none;"></path></g></g></g></svg>