<svg class="marks" width="445.3125" height="1168.9453125" viewBox="0 0 445.3125 1168.9453125" version="1.1" xmlns="http://www.w3.org/2000/svg" xmlns:xlink="http://www.w3.org/1999/xlink"><g transform="translate(36,5)"><g class="mark-group role-frame root"><g transform="translate(0,0)"><path class="background" d="M0.5,0.5h404.3125v1158.9453125h-404.3125Z" style="fill: none; stroke: #ddd; stroke-opacity: 0;"></path><g><g class="mark-symbol role-mark layer_0_marks"><path transform="translate(101.078125,938.1938244047619)" d="M0.5,0A0.5,0.5,0,1,1,-0.5,0A0.5,0.5,0,1,1,0.5,0" style="fill: #000000; stroke-width: 2; opacity: 0;"></path><path transform="translate(303.234375,938.1938244047619)" d="M0.5,0A0.5,0.5,0,1,1,-0.5,0A0.5,0.5,0,1,1,0.5,0" style="fill: #000000; stroke-width: 2; opacity: 0;"></path><path transform="translate(126.0293001025915,762.8920996423277)" d="M0.5,0A0.5,0.5,0,1,1,-0.5,0A0.5,0.5,0,1,1,0.5,0" style="fill: #000000; stroke-width: 2; opacity: 0;"></path><path transform="translate(278.2831998974085,762.8920996423277)" d="M0.5,0A0.5,0.5,0,1,1,-0.5,0A0.5,0.5,0,1,1,0.5,0" style="fill: #000000; stroke-width: 2; opacity: 0;"></path><path transform="translate(141.21051727496086,586.2646777480841)" d="M0.5,0A0.5,0.5,0,1,1,-0.5,0A0.5,0.5,0,1,1,0.5,0" style="fill: #000000; stroke-width: 2; opacity: 0;"></path><path transform="translate(263.10198995471,586.2646777480841)" d="M0.5,0A0.5,0.5,0,1,1,-0.5,0A0.5,0.5,0,1,1,0.5,0" style="fill: #000000; stroke-width: 2; opacity: 0;"></path><path transform="translate(146.10363323464992,408.9438495806285)" d="M0.5,0A0.5,0.5,0,1,1,-0.5,0A0.5,0.5,0,1,1,0.5,0" style="fill: #000000; stroke-width: 2; opacity: 0;"></path><path transform="translate(258.20887158513074,408.9438495806285)" d="M0.5,0A0.5,0.5,0,1,1,-0.5,0A0.5,0.5,0,1,1,0.5,0" style="fill: #000000; stroke-width: 2; opacity: 0;"></path><path transform="translate(140.3365633301437,231.65609489452265)" d="M0.5,0A0.5,0.5,0,1,1,-0.5,0A0.5,0.5,0,1,1,0.5,0" style="fill: #000000; stroke-width: 2; opacity: 0;"></path><path transform="translate(263.97593185007577,231.65609489452265)" d="M0.5,0A0.5,0.5,0,1,1,-0.5,0A0.5,0.5,0,1,1,0.5,0" style="fill: #000000; stroke-width: 2; opacity: 0;"></path><path transform="translate(123.7196250963956,55.18787202380958)" d="M0.5,0A0.5,0.5,0,1,1,-0.5,0A0.5,0.5,0,1,1,0.5,0" style="fill: #000000; stroke-width: 2; opacity: 0;"></path><path transform="translate(280.5928773134947,55.18787202380958)" d="M0.5,0A0.5,0.5,0,1,1,-0.5,0A0.5,0.5,0,1,1,0.5,0" style="fill: #000000; stroke-width: 2; opacity: 0;"></path></g><g class="mark-line role-mark layer_1_marks"><path d="M101.078125,938.1938244047619L303.234375,938.1938244047619" style="fill: none; stroke: #000000; stroke-width: 15; opacity: 1;"></path></g><g class="mark-line role-mark layer_2_marks"><path d="M101.078125,938.1938244047619L126.0293001025915,762.8920996423277" style="fill: none; stroke: #000000; stroke-width: 15; opacity: 1;"></path></g><g class="mark-line role-mark layer_3_marks"><path d="M101.078125,938.1938244047619L278.2831998974085,762.8920996423277" style="fill: none; stroke: #000000; stroke-width: 15; opacity: 1;"></path></g><g class="mark-line role-mark layer_4_marks"><path d="M126.0293001025915,762.8920996423277L303.234375,938.1938244047619" style="fill: none; stroke: #000000; stroke-width: 15; opacity: 1;"></path></g><g class="mark-line role-mark layer_5_marks"><path d="M278.2831998974085,762.8920996423277L303.234375,938.1938244047619" style="fill: none; stroke: #000000; stroke-width: 15; opacity: 1;"></path></g><g class="mark-line role-mark layer_6_marks"><path d="M126.0293001025915,762.8920996423277L278.2831998974085,762.8920996423277" style="fill: none; stroke: #000000; stroke-width: 15; opacity: 1;"></path></g><g class="mark-line role-mark layer_7_marks"><path d="M126.0293001025915,762.8920996423277L141.21051727496086,586.2646777480841" style="fill: none; stroke: #000000; stroke-width: 15; opacity: 1;"></path></g><g class="mark-line role-mark layer_8_marks"><path d="M126.0293001025915,762.8920996423277L263.10198995471,586.2646777480841" style="fill: none; stroke: #000000; stroke-width: 15; opacity: 1;"></path></g><g class="mark-line role-mark layer_9_marks"><path d="M141.21051727496086,586.2646777480841L278.2831998974085,762.8920996423277" style="fill: none; stroke: #000000; stroke-width: 15; opacity: 1;"></path></g><g class="mark-line role-mark layer_10_marks"><path d="M263.10198995471,586.2646777480841L278.2831998974085,762.8920996423277" style="fill: none; stroke: #000000; stroke-width: 15; opacity: 1;"></path></g><g class="mark-line role-mark layer_11_marks"><path d="M141.21051727496086,586.2646777480841L263.10198995471,586.2646777480841" style="fill: none; stroke: #000000; stroke-width: 15; opacity: 1;"></path></g><g class="mark-line role-mark layer_12_marks"><path d="M141.21051727496086,586.2646777480841L146.10363323464992,408.9438495806285" style="fill: none; stroke: #000000; stroke-width: 15; opacity: 1;"></path></g><g class="mark-line role-mark layer_13_marks"><path d="M141.21051727496086,586.2646777480841L258.20887158513074,408.9438495806285" style="fill: none; stroke: #000000; stroke-width: 15; opacity: 1;"></path></g><g class="mark-line role-mark layer_14_marks"><path d="M146.10363323464992,408.9438495806285L263.10198995471,586.2646777480841" style="fill: none; stroke: #000000; stroke-width: 15; opacity: 1;"></path></g><g class="mark-line role-mark layer_15_marks"><path d="M258.20887158513074,408.9438495806285L263.10198995471,586.2646777480841" style="fill: none; stroke: #000000; stroke-width: 15; opacity: 1;"></path></g><g class="mark-line role-mark layer_16_marks"><path d="M146.10363323464992,408.9438495806285L258.20887158513074,408.9438495806285" style="fill: none; stroke: #000000; stroke-width: 15; opacity: 1;"></path></g><g class="mark-line role-mark layer_17_marks"><path d="M140.3365633301437,231.65609489452265L146.10363323464992,408.9438495806285" style="fill: none; stroke: #000000; stroke-width: 15; opacity: 1;"></path></g><g class="mark-line role-mark layer_18_marks"><path d="M146.10363323464992,408.9438495806285L263.97593185007577,231.65609489452265" style="fill: none; stroke: #000000; stroke-width: 15; opacity: 1;"></path></g><g class="mark-line role-mark layer_19_marks"><path d="M140.3365633301437,231.65609489452265L258.20887158513074,408.9438495806285" style="fill: none; stroke: #000000; stroke-width: 15; opacity: 1;"></path></g><g class="mark-line role-mark layer_20_marks"><path d="M258.20887158513074,408.9438495806285L263.97593185007577,231.65609489452265" style="fill: none; stroke: #000000; stroke-width: 15; opacity: 1;"></path></g><g class="mark-line role-mark layer_21_marks"><path d="M140.3365633301437,231.65609489452265L263.97593185007577,231.65609489452265" style="fill: none; stroke: #000000; stroke-width: 15; opacity: 1;"></path></g><g class="mark-line role-mark layer_22_marks"><path d="M123.7196250963956,55.18787202380958L140.3365633301437,231.65609489452265" style="fill: none; stroke: #000000; stroke-width: 15; opacity: 1;"></path></g><g class="mark-line role-mark layer_23_marks"><path d="M140.3365633301437,231.65609489452265L280.5928773134947,55.18787202380958" style="fill: none; stroke: #000000; stroke-width: 15; opacity: 1;"></path></g><g class="mark-line role-mark layer_24_marks"><path d="M123.7196250963956,55.18787202380958L263.97593185007577,231.65609489452265" style="fill: none; stroke: #000000; stroke-width: 15; opacity: 1;"></path></g><g class="mark-line role-mark layer_25_marks"><path d="M263.97593185007577,231.65609489452265L280.5928773134947,55.18787202380958" style="fill: none; stroke: #000000; stroke-width: 15; opacity: 1;"></path></g><g class="mark-line role-mark layer_26_marks"><path d="M123.7196250963956,55.18787202380958L280.5928773134947,55.18787202380958" style="fill: none; stroke: #000000; stroke-width: 15; opacity: 1;"></path></g><g class="mark-symbol role-mark layer_27_marks"><path transform="translate(101.078125,938.1938244047619)" d="M0,0L43.30127018922193,74.99779996773239L-43.30127018922193,74.99779996773239Z" style="fill: #0096C7; stroke: #0096C7; stroke-width: 2; opacity: 1;"></path><path transform="translate(303.234375,938.1938244047619)" d="M0,0L43.30127018922193,74.99779996773239L-43.30127018922193,74.99779996773239Z" style="fill: #0096C7; stroke: #0096C7; stroke-width: 2; opacity: 1;"></path></g><g class="mark-symbol role-mark layer_28_marks"></g><g class="mark-symbol role-mark layer_29_marks"><path transform="translate(126.0293001025915,762.8920996423277)" d="M0,0L-47.43416490252569,21.908902300206645L-47.43416490252569,5.4772255750516585L-164.31676725154983,5.477225575051651L-164.31676725154983,-5.477225575051672L-47.43416490252569,-5.477225575051665L-47.43416490252569,-21.90890230020665" style="fill: #0096C7; stroke: #0096C7; stroke-width: 2; opacity: 1;"></path><path transform="translate(278.2831998974085,762.8920996423277)" d="M0,0L-47.43416490252569,21.908902300206645L-47.43416490252569,5.4772255750516585L-164.31676725154983,5.477225575051651L-164.31676725154983,-5.477225575051672L-47.43416490252569,-5.477225575051665L-47.43416490252569,-21.90890230020665" style="fill: #0096C7; stroke: #0096C7; stroke-width: 2; opacity: 1;"></path><path transform="translate(141.21051727496086,586.2646777480841)" d="M0,0L-47.43416490252569,21.908902300206645L-47.43416490252569,5.4772255750516585L-164.31676725154983,5.477225575051651L-164.31676725154983,-5.477225575051672L-47.43416490252569,-5.477225575051665L-47.43416490252569,-21.90890230020665" style="fill: #0096C7; stroke: #0096C7; stroke-width: 2; opacity: 1;"></path><path transform="translate(263.10198995471,586.2646777480841)" d="M0,0L-47.43416490252569,21.908902300206645L-47.43416490252569,5.4772255750516585L-164.31676725154983,5.477225575051651L-164.31676725154983,-5.477225575051672L-47.43416490252569,-5.477225575051665L-47.43416490252569,-21.90890230020665" style="fill: #0096C7; stroke: #0096C7; stroke-width: 2; opacity: 1;"></path><path transform="translate(146.10363323464992,408.9438495806285)" d="M0,0L-47.43416490252569,21.908902300206645L-47.43416490252569,5.4772255750516585L-164.31676725154983,5.477225575051651L-164.31676725154983,-5.477225575051672L-47.43416490252569,-5.477225575051665L-47.43416490252569,-21.90890230020665" style="fill: #0096C7; stroke: #0096C7; stroke-width: 2; opacity: 1;"></path><path transform="translate(258.20887158513074,408.9438495806285)" d="M0,0L-47.43416490252569,21.908902300206645L-47.43416490252569,5.4772255750516585L-164.31676725154983,5.477225575051651L-164.31676725154983,-5.477225575051672L-47.43416490252569,-5.477225575051665L-47.43416490252569,-21.90890230020665" style="fill: #0096C7; stroke: #0096C7; stroke-width: 2; opacity: 1;"></path><path transform="translate(140.3365633301437,231.65609489452265)" d="M0,0L-47.43416490252569,21.908902300206645L-47.43416490252569,5.4772255750516585L-164.31676725154983,5.477225575051651L-164.31676725154983,-5.477225575051672L-47.43416490252569,-5.477225575051665L-47.43416490252569,-21.90890230020665" style="fill: #0096C7; stroke: #0096C7; stroke-width: 2; opacity: 1;"></path><path transform="translate(263.97593185007577,231.65609489452265)" d="M0,0L-47.43416490252569,21.908902300206645L-47.43416490252569,5.4772255750516585L-164.31676725154983,5.477225575051651L-164.31676725154983,-5.477225575051672L-47.43416490252569,-5.477225575051665L-47.43416490252569,-21.90890230020665" style="fill: #0096C7; stroke: #0096C7; stroke-width: 2; opacity: 1;"></path><path transform="translate(123.7196250963956,55.18787202380958)" d="M0,0L-47.43416490252569,21.908902300206645L-47.43416490252569,5.4772255750516585L-164.31676725154983,5.477225575051651L-164.31676725154983,-5.477225575051672L-47.43416490252569,-5.477225575051665L-47.43416490252569,-21.90890230020665" style="fill: #0096C7; stroke: #0096C7; stroke-width: 2; opacity: 1;"></path><path transform="translate(280.5928773134947,55.18787202380958)" d="M0,0L-47.43416490252569,21.908902300206645L-47.43416490252569,5.4772255750516585L-164.31676725154983,5.477225575051651L-164.31676725154983,-5.477225575051672L-47.43416490252569,-5.477225575051665L-47.43416490252569,-21.90890230020665" style="fill: #0096C7; stroke: #0096C7; stroke-width: 2; opacity: 1;"></path></g></g><path class="foreground" d="" style="display: none; fill: none;"></path></g></g></g></svg>