<svg class="marks" width="1781.25" height="800" viewBox="0 0 1781.25 800" version="1.1" xmlns="http://www.w3.org/2000/svg" xmlns:xlink="http://www.w3.org/1999/xlink"><rect width="1781.25" height="800" style="fill: white;"></rect><g transform="translate(88,126)"><g class="mark-group role-frame root"><g transform="translate(0,0)"><path class="background" d="M0.5,0.5h1685.25v598h-1685.25Z" style="fill: none; stroke: #ddd; stroke-opacity: 0;"></path><g><g class="mark-group role-axis"><g transform="translate(0.5,598.5)"><path class="background" d="M0,0h0v0h0Z" style="pointer-events: none; fill: none;"></path><g><g class="mark-rule role-axis-grid" style="pointer-events: none;"><line transform="translate(0,-598)" x2="0" y2="598" style="fill: none; stroke: #ddd; stroke-width: 1; opacity: 1;"></line><line transform="translate(169,-598)" x2="0" y2="598" style="fill: none; stroke: #ddd; stroke-width: 1; opacity: 1;"></line><line transform="translate(268,-598)" x2="0" y2="598" style="fill: none; stroke: #ddd; stroke-width: 1; opacity: 1;"></line><line transform="translate(338,-598)" x2="0" y2="598" style="fill: none; stroke: #ddd; stroke-width: 1; opacity: 1;"></line><line transform="translate(393,-598)" x2="0" y2="598" style="fill: none; stroke: #ddd; stroke-width: 1; opacity: 1;"></line><line transform="translate(437,-598)" x2="0" y2="598" style="fill: none; stroke: #ddd; stroke-width: 1; opacity: 1;"></line><line transform="translate(475,-598)" x2="0" y2="598" style="fill: none; stroke: #ddd; stroke-width: 1; opacity: 1;"></line><line transform="translate(507,-598)" x2="0" y2="598" style="fill: none; stroke: #ddd; stroke-width: 1; opacity: 1;"></line><line transform="translate(536,-598)" x2="0" y2="598" style="fill: none; stroke: #ddd; stroke-width: 1; opacity: 1;"></line><line transform="translate(562,-598)" x2="0" y2="598" style="fill: none; stroke: #ddd; stroke-width: 1; opacity: 1;"></line><line transform="translate(731,-598)" x2="0" y2="598" style="fill: none; stroke: #ddd; stroke-width: 1; opacity: 1;"></line><line transform="translate(830,-598)" x2="0" y2="598" style="fill: none; stroke: #ddd; stroke-width: 1; opacity: 1;"></line><line transform="translate(900,-598)" x2="0" y2="598" style="fill: none; stroke: #ddd; stroke-width: 1; opacity: 1;"></line><line transform="translate(954,-598)" x2="0" y2="598" style="fill: none; stroke: #ddd; stroke-width: 1; opacity: 1;"></line><line transform="translate(999,-598)" x2="0" y2="598" style="fill: none; stroke: #ddd; stroke-width: 1; opacity: 1;"></line><line transform="translate(1036,-598)" x2="0" y2="598" style="fill: none; stroke: #ddd; stroke-width: 1; opacity: 1;"></line><line transform="translate(1069,-598)" x2="0" y2="598" style="fill: none; stroke: #ddd; stroke-width: 1; opacity: 1;"></line><line transform="translate(1098,-598)" x2="0" y2="598" style="fill: none; stroke: #ddd; stroke-width: 1; opacity: 1;"></line><line transform="translate(1124,-598)" x2="0" y2="598" style="fill: none; stroke: #ddd; stroke-width: 1; opacity: 1;"></line><line transform="translate(1293,-598)" x2="0" y2="598" style="fill: none; stroke: #ddd; stroke-width: 1; opacity: 1;"></line><line transform="translate(1392,-598)" x2="0" y2="598" style="fill: none; stroke: #ddd; stroke-width: 1; opacity: 1;"></line><line transform="translate(1462,-598)" x2="0" y2="598" style="fill: none; stroke: #ddd; stroke-width: 1; opacity: 1;"></line><line transform="translate(1516,-598)" x2="0" y2="598" style="fill: none; stroke: #ddd; stroke-width: 1; opacity: 1;"></line><line transform="translate(1561,-598)" x2="0" y2="598" style="fill: none; stroke: #ddd; stroke-width: 1; opacity: 1;"></line><line transform="translate(1598,-598)" x2="0" y2="598" style="fill: none; stroke: #ddd; stroke-width: 1; opacity: 1;"></line><line transform="translate(1631,-598)" x2="0" y2="598" style="fill: none; stroke: #ddd; stroke-width: 1; opacity: 1;"></line><line transform="translate(1660,-598)" x2="0" y2="598" style="fill: none; stroke: #ddd; stroke-width: 1; opacity: 1;"></line><line transform="translate(1685,-598)" x2="0" y2="598" style="fill: none; stroke: #ddd; stroke-width: 1; opacity: 1;"></line></g></g><path class="foreground" d="" style="pointer-events: none; display: none; fill: none;"></path></g></g><g class="mark-group role-axis"><g transform="translate(0.5,0.5)"><path class="background" d="M0,0h0v0h0Z" style="pointer-events: none; fill: none;"></path><g><g class="mark-rule role-axis-grid" style="pointer-events: none;"><line transform="translate(0,598)" x2="1685.25" y2="0" style="fill: none; stroke: #ddd; stroke-width: 1; opacity: 1;"></line><line transform="translate(0,299)" x2="1685.25" y2="0" style="fill: none; stroke: #ddd; stroke-width: 1; opacity: 1;"></line><line transform="translate(0,0)" x2="1685.25" y2="0" style="fill: none; stroke: #ddd; stroke-width: 1; opacity: 1;"></line></g></g><path class="foreground" d="" style="pointer-events: none; display: none; fill: none;"></path></g></g><g class="mark-group role-axis"><g transform="translate(0.5,598.5)"><path class="background" d="M0,0h0v0h0Z" style="pointer-events: none; fill: none;"></path><g><g class="mark-rule role-axis-tick" style="pointer-events: none;"><line transform="translate(0,0)" x2="0" y2="5" style="fill: none; stroke: #888; stroke-width: 1; opacity: 1;"></line><line transform="translate(169,0)" x2="0" y2="5" style="fill: none; stroke: #888; stroke-width: 1; opacity: 1;"></line><line transform="translate(268,0)" x2="0" y2="5" style="fill: none; stroke: #888; stroke-width: 1; opacity: 1;"></line><line transform="translate(338,0)" x2="0" y2="5" style="fill: none; stroke: #888; stroke-width: 1; opacity: 1;"></line><line transform="translate(393,0)" x2="0" y2="5" style="fill: none; stroke: #888; stroke-width: 1; opacity: 1;"></line><line transform="translate(437,0)" x2="0" y2="5" style="fill: none; stroke: #888; stroke-width: 1; opacity: 1;"></line><line transform="translate(475,0)" x2="0" y2="5" style="fill: none; stroke: #888; stroke-width: 1; opacity: 1;"></line><line transform="translate(507,0)" x2="0" y2="5" style="fill: none; stroke: #888; stroke-width: 1; opacity: 1;"></line><line transform="translate(536,0)" x2="0" y2="5" style="fill: none; stroke: #888; stroke-width: 1; opacity: 1;"></line><line transform="translate(562,0)" x2="0" y2="5" style="fill: none; stroke: #888; stroke-width: 1; opacity: 1;"></line><line transform="translate(731,0)" x2="0" y2="5" style="fill: none; stroke: #888; stroke-width: 1; opacity: 1;"></line><line transform="translate(830,0)" x2="0" y2="5" style="fill: none; stroke: #888; stroke-width: 1; opacity: 1;"></line><line transform="translate(900,0)" x2="0" y2="5" style="fill: none; stroke: #888; stroke-width: 1; opacity: 1;"></line><line transform="translate(954,0)" x2="0" y2="5" style="fill: none; stroke: #888; stroke-width: 1; opacity: 1;"></line><line transform="translate(999,0)" x2="0" y2="5" style="fill: none; stroke: #888; stroke-width: 1; opacity: 1;"></line><line transform="translate(1036,0)" x2="0" y2="5" style="fill: none; stroke: #888; stroke-width: 1; opacity: 1;"></line><line transform="translate(1069,0)" x2="0" y2="5" style="fill: none; stroke: #888; stroke-width: 1; opacity: 1;"></line><line transform="translate(1098,0)" x2="0" y2="5" style="fill: none; stroke: #888; stroke-width: 1; opacity: 1;"></line><line transform="translate(1124,0)" x2="0" y2="5" style="fill: none; stroke: #888; stroke-width: 1; opacity: 1;"></line><line transform="translate(1293,0)" x2="0" y2="5" style="fill: none; stroke: #888; stroke-width: 1; opacity: 1;"></line><line transform="translate(1392,0)" x2="0" y2="5" style="fill: none; stroke: #888; stroke-width: 1; opacity: 1;"></line><line transform="translate(1462,0)" x2="0" y2="5" style="fill: none; stroke: #888; stroke-width: 1; opacity: 1;"></line><line transform="translate(1516,0)" x2="0" y2="5" style="fill: none; stroke: #888; stroke-width: 1; opacity: 1;"></line><line transform="translate(1561,0)" x2="0" y2="5" style="fill: none; stroke: #888; stroke-width: 1; opacity: 1;"></line><line transform="translate(1598,0)" x2="0" y2="5" style="fill: none; stroke: #888; stroke-width: 1; opacity: 1;"></line><line transform="translate(1631,0)" x2="0" y2="5" style="fill: none; stroke: #888; stroke-width: 1; opacity: 1;"></line><line transform="translate(1660,0)" x2="0" y2="5" style="fill: none; stroke: #888; stroke-width: 1; opacity: 1;"></line><line transform="translate(1685,0)" x2="0" y2="5" style="fill: none; stroke: #888; stroke-width: 1; opacity: 1;"></line></g><g class="mark-text role-axis-label" style="pointer-events: none;"><text text-anchor="start" transform="translate(0,31)" style="font-family: Arial; font-size: 30px; fill: #000; opacity: 1;">1</text><text text-anchor="middle" transform="translate(169.10360006424142,31)" style="font-family: Arial; font-size: 30px; fill: #000; opacity: 1;">2</text><text text-anchor="middle" transform="translate(268.0228648387703,31)" style="font-family: Arial; font-size: 30px; fill: #000; opacity: 1;">3</text><text text-anchor="middle" transform="translate(338.20720012848284,31)" style="font-family: Arial; font-size: 30px; fill: #000; opacity: 1;"></text><text text-anchor="middle" transform="translate(392.64639993575855,31)" style="font-family: Arial; font-size: 30px; fill: #000; opacity: 1;"></text><text text-anchor="middle" transform="translate(437.1264649030118,31)" style="font-family: Arial; font-size: 30px; fill: #000; opacity: 1;"></text><text text-anchor="middle" transform="translate(474.7338239780088,31)" style="font-family: Arial; font-size: 30px; fill: #000; opacity: 1;"></text><text text-anchor="middle" transform="translate(507.3108001927243,31)" style="font-family: Arial; font-size: 30px; fill: #000; opacity: 1;"></text><text text-anchor="middle" transform="translate(536.0457296775407,31)" style="font-family: Arial; font-size: 30px; fill: #000; opacity: 1;"></text><text text-anchor="middle" transform="translate(561.7500000000001,31)" style="font-family: Arial; font-size: 30px; fill: #000; opacity: 1;">10</text><text text-anchor="middle" transform="translate(730.8536000642415,31)" style="font-family: Arial; font-size: 30px; fill: #000; opacity: 1;">20</text><text text-anchor="middle" transform="translate(829.7728648387704,31)" style="font-family: Arial; font-size: 30px; fill: #000; opacity: 1;">30</text><text text-anchor="middle" transform="translate(899.9572001284829,31)" style="font-family: Arial; font-size: 30px; fill: #000; opacity: 1;"></text><text text-anchor="middle" transform="translate(954.3963999357585,31)" style="font-family: Arial; font-size: 30px; fill: #000; opacity: 1;"></text><text text-anchor="middle" transform="translate(998.8764649030118,31)" style="font-family: Arial; font-size: 30px; fill: #000; opacity: 1;"></text><text text-anchor="middle" transform="translate(1036.4838239780088,31)" style="font-family: Arial; font-size: 30px; fill: #000; opacity: 1;"></text><text text-anchor="middle" transform="translate(1069.0608001927242,31)" style="font-family: Arial; font-size: 30px; fill: #000; opacity: 1;"></text><text text-anchor="middle" transform="translate(1097.7957296775407,31)" style="font-family: Arial; font-size: 30px; fill: #000; opacity: 1;"></text><text text-anchor="middle" transform="translate(1123.5000000000002,31)" style="font-family: Arial; font-size: 30px; fill: #000; opacity: 1;">100</text><text text-anchor="middle" transform="translate(1292.6036000642414,31)" style="font-family: Arial; font-size: 30px; fill: #000; opacity: 1;">200</text><text text-anchor="middle" transform="translate(1391.5228648387704,31)" style="font-family: Arial; font-size: 30px; fill: #000; opacity: 1;">300</text><text text-anchor="middle" transform="translate(1461.707200128483,31)" style="font-family: Arial; font-size: 30px; fill: #000; opacity: 1;"></text><text text-anchor="middle" transform="translate(1516.1463999357586,31)" style="font-family: Arial; font-size: 30px; fill: #000; opacity: 1;"></text><text text-anchor="middle" transform="translate(1560.6264649030118,31)" style="font-family: Arial; font-size: 30px; fill: #000; opacity: 1;"></text><text text-anchor="middle" transform="translate(1598.2338239780088,31)" style="font-family: Arial; font-size: 30px; fill: #000; opacity: 1;"></text><text text-anchor="middle" transform="translate(1630.8108001927244,31)" style="font-family: Arial; font-size: 30px; fill: #000; opacity: 1;"></text><text text-anchor="middle" transform="translate(1659.5457296775407,31)" style="font-family: Arial; font-size: 30px; fill: #000; opacity: 1;"></text><text text-anchor="end" transform="translate(1685.25,31)" style="font-family: Arial; font-size: 30px; fill: #000; opacity: 1;">1,000</text></g><g class="mark-rule role-axis-domain" style="pointer-events: none;"><line transform="translate(0,0)" x2="1685.25" y2="0" style="fill: none; stroke: #888; stroke-width: 1; opacity: 1;"></line></g><g class="mark-text role-axis-title" style="pointer-events: none;"><text text-anchor="middle" transform="translate(842.625,65)" style="font-family: Arial; font-size: 30px; font-weight: bold; fill: #000; opacity: 1;">Number of Training Samples</text></g></g><path class="foreground" d="" style="pointer-events: none; display: none; fill: none;"></path></g></g><g class="mark-group role-axis"><g transform="translate(0.5,0.5)"><path class="background" d="M0,0h0v0h0Z" style="pointer-events: none; fill: none;"></path><g><g class="mark-rule role-axis-tick" style="pointer-events: none;"><line transform="translate(0,598)" x2="-5" y2="0" style="fill: none; stroke: #888; stroke-width: 1; opacity: 1;"></line><line transform="translate(0,299)" x2="-5" y2="0" style="fill: none; stroke: #888; stroke-width: 1; opacity: 1;"></line><line transform="translate(0,0)" x2="-5" y2="0" style="fill: none; stroke: #888; stroke-width: 1; opacity: 1;"></line></g><g class="mark-text role-axis-label" style="pointer-events: none;"><text text-anchor="end" transform="translate(-7,607)" style="font-family: Arial; font-size: 30px; fill: #000; opacity: 1;">0.0</text><text text-anchor="end" transform="translate(-7,308)" style="font-family: Arial; font-size: 30px; fill: #000; opacity: 1;">0.5</text><text text-anchor="end" transform="translate(-7,9)" style="font-family: Arial; font-size: 30px; fill: #000; opacity: 1;">1.0</text></g><g class="mark-rule role-axis-domain" style="pointer-events: none;"><line transform="translate(0,598)" x2="0" y2="-598" style="fill: none; stroke: #888; stroke-width: 1; opacity: 1;"></line></g><g class="mark-text role-axis-title" style="pointer-events: none;"><text text-anchor="middle" transform="translate(-52.7041015625,299) rotate(-90) translate(0,-6)" style="font-family: Arial; font-size: 30px; font-weight: bold; fill: #000; opacity: 1;">Mean Absolute Error (cm)</text></g></g><path class="foreground" d="" style="pointer-events: none; display: none; fill: none;"></path></g></g><g class="mark-line role-mark layer_0_marks"><path d="M0,112.28190195918086L1685.25,112.28190195918086" style="fill: none; stroke: #BFC0C0; stroke-width: 3; stroke-dasharray: 8,8; opacity: 1;"></path></g><g class="mark-text role-mark layer_1_marks"><text text-anchor="end" transform="translate(1685.25,107.28190195918086)" style="font-family: Arial; font-size: 24px; fill: #BFC0C0; opacity: 1;">baseline</text></g><g class="mark-symbol role-mark layer_2_marks"><path transform="translate(1663.5782995918273,486.15313358582557)" d="M9.354143466934854,0A9.354143466934854,9.354143466934854,0,1,1,-9.354143466934854,0A9.354143466934854,9.354143466934854,0,1,1,9.354143466934854,0" style="fill: none; stroke: black; stroke-width: 8; opacity: 0.7;"></path><path transform="translate(1663.5782995918273,488.58206324160096)" d="M0,-8.100925873009825L-9.354143466934854,8.100925873009825L9.354143466934854,8.100925873009825Z" style="fill: none; stroke: #0096C7; stroke-width: 8; opacity: 0.7;"></path><path transform="translate(1663.5782995918273,471.4728966116631)" d="M-9.354143466934854,-9.354143466934854h18.708286933869708v18.708286933869708h-18.708286933869708Z" style="fill: none; stroke: #BFC0C0; stroke-width: 8; opacity: 0.7;"></path><path transform="translate(1273.583718430393,196.58603710651403)" d="M9.354143466934854,0A9.354143466934854,9.354143466934854,0,1,1,-9.354143466934854,0A9.354143466934854,9.354143466934854,0,1,1,9.354143466934854,0" style="fill: none; stroke: black; stroke-width: 8; opacity: 0.7;"></path><path transform="translate(1273.583718430393,450.91947499632835)" d="M0,-8.100925873009825L-9.354143466934854,8.100925873009825L9.354143466934854,8.100925873009825Z" style="fill: none; stroke: #0096C7; stroke-width: 8; opacity: 0.7;"></path><path transform="translate(1273.583718430393,385.1695325385003)" d="M-9.354143466934854,-9.354143466934854h18.708286933869708v18.708286933869708h-18.708286933869708Z" style="fill: none; stroke: #BFC0C0; stroke-width: 8; opacity: 0.7;"></path><path transform="translate(934.0542119471244,287.5155459189415)" d="M9.354143466934854,0A9.354143466934854,9.354143466934854,0,1,1,-9.354143466934854,0A9.354143466934854,9.354143466934854,0,1,1,9.354143466934854,0" style="fill: none; stroke: black; stroke-width: 8; opacity: 0.7;"></path><path transform="translate(934.0542119471244,400.50816557735203)" d="M0,-8.100925873009825L-9.354143466934854,8.100925873009825L9.354143466934854,8.100925873009825Z" style="fill: none; stroke: #0096C7; stroke-width: 8; opacity: 0.7;"></path><path transform="translate(934.0542119471244,298.7322498072387)" d="M-9.354143466934854,-9.354143466934854h18.708286933869708v18.708286933869708h-18.708286933869708Z" style="fill: none; stroke: #BFC0C0; stroke-width: 8; opacity: 0.7;"></path><path transform="translate(1116.069021724063,360.10760469287624)" d="M9.354143466934854,0A9.354143466934854,9.354143466934854,0,1,1,-9.354143466934854,0A9.354143466934854,9.354143466934854,0,1,1,9.354143466934854,0" style="fill: none; stroke: black; stroke-width: 8; opacity: 0.7;"></path><path transform="translate(1116.069021724063,432.429145821929)" d="M0,-8.100925873009825L-9.354143466934854,8.100925873009825L9.354143466934854,8.100925873009825Z" style="fill: none; stroke: #0096C7; stroke-width: 8; opacity: 0.7;"></path><path transform="translate(1116.069021724063,336.40933900245363)" d="M-9.354143466934854,-9.354143466934854h18.708286933869708v18.708286933869708h-18.708286933869708Z" style="fill: none; stroke: #BFC0C0; stroke-width: 8; opacity: 0.7;"></path><path transform="translate(536.0457296775407,48.13795170456168)" d="M9.354143466934854,0A9.354143466934854,9.354143466934854,0,1,1,-9.354143466934854,0A9.354143466934854,9.354143466934854,0,1,1,9.354143466934854,0" style="fill: none; stroke: black; stroke-width: 8; opacity: 0.7;"></path><path transform="translate(536.0457296775407,110.93338779568671)" d="M0,-8.100925873009825L-9.354143466934854,8.100925873009825L9.354143466934854,8.100925873009825Z" style="fill: none; stroke: #0096C7; stroke-width: 8; opacity: 0.7;"></path><path transform="translate(536.0457296775407,124.90815682513478)" d="M-9.354143466934854,-9.354143466934854h18.708286933869708v18.708286933869708h-18.708286933869708Z" style="fill: none; stroke: #BFC0C0; stroke-width: 8; opacity: 0.7;"></path><path transform="translate(718.3398353352517,191.49624490201472)" d="M9.354143466934854,0A9.354143466934854,9.354143466934854,0,1,1,-9.354143466934854,0A9.354143466934854,9.354143466934854,0,1,1,9.354143466934854,0" style="fill: none; stroke: black; stroke-width: 8; opacity: 0.7;"></path><path transform="translate(718.3398353352517,302.0932148897648)" d="M0,-8.100925873009825L-9.354143466934854,8.100925873009825L9.354143466934854,8.100925873009825Z" style="fill: none; stroke: #0096C7; stroke-width: 8; opacity: 0.7;"></path><path transform="translate(718.3398353352517,208.34379548961587)" d="M-9.354143466934854,-9.354143466934854h18.708286933869708v18.708286933869708h-18.708286933869708Z" style="fill: none; stroke: #BFC0C0; stroke-width: 8; opacity: 0.7;"></path><path transform="translate(338.20720012848284,47.224615148007864)" d="M9.354143466934854,0A9.354143466934854,9.354143466934854,0,1,1,-9.354143466934854,0A9.354143466934854,9.354143466934854,0,1,1,9.354143466934854,0" style="fill: none; stroke: black; stroke-width: 8; opacity: 0.7;"></path><path transform="translate(338.20720012848284,100.45103275954715)" d="M0,-8.100925873009825L-9.354143466934854,8.100925873009825L9.354143466934854,8.100925873009825Z" style="fill: none; stroke: #0096C7; stroke-width: 8; opacity: 0.7;"></path><path transform="translate(338.20720012848284,66.07834198371685)" d="M-9.354143466934854,-9.354143466934854h18.708286933869708v18.708286933869708h-18.708286933869708Z" style="fill: none; stroke: #BFC0C0; stroke-width: 8; opacity: 0.7;"></path><path transform="translate(1489.899382058617,430.05928156182165)" d="M9.354143466934854,0A9.354143466934854,9.354143466934854,0,1,1,-9.354143466934854,0A9.354143466934854,9.354143466934854,0,1,1,9.354143466934854,0" style="fill: none; stroke: black; stroke-width: 8; opacity: 0.7;"></path><path transform="translate(1489.899382058617,469.9925052209943)" d="M0,-8.100925873009825L-9.354143466934854,8.100925873009825L9.354143466934854,8.100925873009825Z" style="fill: none; stroke: #0096C7; stroke-width: 8; opacity: 0.7;"></path><path transform="translate(1489.899382058617,423.38437640181627)" d="M-9.354143466934854,-9.354143466934854h18.708286933869708v18.708286933869708h-18.708286933869708Z" style="fill: none; stroke: #BFC0C0; stroke-width: 8; opacity: 0.7;"></path></g><g class="mark-rule role-mark layer_3_marks"><line transform="translate(1663.5782995918273,486.15313358582557)" x2="0" y2="2.4289296557753914" style="fill: none; stroke: black; stroke-width: 2;"></line><line transform="translate(1273.583718430393,196.58603710651403)" x2="0" y2="254.33343788981432" style="fill: none; stroke: black; stroke-width: 2;"></line><line transform="translate(934.0542119471244,287.5155459189415)" x2="0" y2="112.99261965841055" style="fill: none; stroke: black; stroke-width: 2;"></line><line transform="translate(1116.069021724063,360.10760469287624)" x2="0" y2="72.32154112905278" style="fill: none; stroke: black; stroke-width: 2;"></line><line transform="translate(536.0457296775407,48.13795170456168)" x2="0" y2="62.79543609112503" style="fill: none; stroke: black; stroke-width: 2;"></line><line transform="translate(718.3398353352517,191.49624490201472)" x2="0" y2="110.59696998775007" style="fill: none; stroke: black; stroke-width: 2;"></line><line transform="translate(338.20720012848284,47.224615148007864)" x2="0" y2="53.22641761153928" style="fill: none; stroke: black; stroke-width: 2;"></line><line transform="translate(1489.899382058617,430.05928156182165)" x2="0" y2="39.933223659172654" style="fill: none; stroke: black; stroke-width: 2;"></line></g><g class="mark-group role-legend"><g transform="translate(0,-51)"><path class="background" d="M0,0h796v33h-796Z" style="pointer-events: none; fill: none;"></path><g><g class="mark-group role-legend-entry"><g transform="translate(0,0)"><path class="background" d="M0,0h0v0h0Z" style="pointer-events: none; fill: none;"></path><g><g class="mark-group role-scope"><g transform="translate(0,0.32292826653257123)"><path class="background" d="M0,0h100.6650390625v32.35414346693486h-100.6650390625Z" style="pointer-events: none; fill: none; opacity: 1;"></path><g><g class="mark-symbol role-legend-symbol" style="pointer-events: none;"><path transform="translate(15,15)" d="M9.354143466934854,0A9.354143466934854,9.354143466934854,0,1,1,-9.354143466934854,0A9.354143466934854,9.354143466934854,0,1,1,9.354143466934854,0" style="fill: none; stroke: black; stroke-width: 8; opacity: 0.7;"></path></g><g class="mark-text role-legend-label" style="pointer-events: none;"><text text-anchor="start" transform="translate(34,24)" style="font-family: Arial; font-size: 30px; fill: #000; opacity: 1;">GCN</text></g></g><path class="foreground" d="" style="pointer-events: none; display: none; fill: none;"></path></g><g transform="translate(164,0.32292826653257123)"><path class="background" d="M0,0h240.748046875v32.35414346693486h-240.748046875Z" style="pointer-events: none; fill: none; opacity: 1;"></path><g><g class="mark-symbol role-legend-symbol" style="pointer-events: none;"><path transform="translate(15,15)" d="M-9.354143466934854,-9.354143466934854h18.708286933869708v18.708286933869708h-18.708286933869708Z" style="fill: none; stroke: #BFC0C0; stroke-width: 8; opacity: 0.7;"></path></g><g class="mark-text role-legend-label" style="pointer-events: none;"><text text-anchor="start" transform="translate(34,24)" style="font-family: Arial; font-size: 30px; fill: #000; opacity: 1;">Random Forest</text></g></g><path class="foreground" d="" style="pointer-events: none; display: none; fill: none;"></path></g><g transform="translate(468,0.9495370634950877)"><path class="background" d="M0,0h327.994140625v31.100925873009828h-327.994140625Z" style="pointer-events: none; fill: none; opacity: 1;"></path><g><g class="mark-symbol role-legend-symbol" style="pointer-events: none;"><path transform="translate(15,15)" d="M0,-8.100925873009825L-9.354143466934854,8.100925873009825L9.354143466934854,8.100925873009825Z" style="fill: none; stroke: #0096C7; stroke-width: 8; opacity: 0.7;"></path></g><g class="mark-text role-legend-label" style="pointer-events: none;"><text text-anchor="start" transform="translate(34,24)" style="font-family: Arial; font-size: 30px; fill: #000; opacity: 1;">Transfer learned GCN</text></g></g><path class="foreground" d="" style="pointer-events: none; display: none; fill: none;"></path></g></g></g><path class="foreground" d="" style="pointer-events: none; display: none; fill: none;"></path></g></g></g><path class="foreground" d="" style="pointer-events: none; display: none; fill: none;"></path></g></g><g class="mark-group role-title"><g transform="translate(842.625,-121)"><path class="background" d="M0,0h0v0h0Z" style="pointer-events: none; fill: none;"></path><g><g class="mark-text role-title-text" style="pointer-events: none;"><text text-anchor="middle" transform="translate(0,32)" style="font-family: Arial; font-size: 40px; font-weight: bold; fill: #000; opacity: 1;">E. Transfer learning across loading conditions</text></g></g><path class="foreground" d="" style="pointer-events: none; display: none; fill: none;"></path></g></g></g><path class="foreground" d="" style="display: none; fill: none;"></path></g></g></g></svg>