<svg class="marks" width="1781.25" height="800" viewBox="0 0 1781.25 800" version="1.1" xmlns="http://www.w3.org/2000/svg" xmlns:xlink="http://www.w3.org/1999/xlink"><rect width="1781.25" height="800" style="fill: white;"></rect><g transform="translate(139,126)"><g class="mark-group role-frame root"><g transform="translate(0,0)"><path class="background" d="M0.5,0.5h1636.25v598h-1636.25Z" style="fill: none; stroke: #ddd; stroke-opacity: 0;"></path><g><g class="mark-group role-axis"><g transform="translate(0.5,598.5)"><path class="background" d="M0,0h0v0h0Z" style="pointer-events: none; fill: none;"></path><g><g class="mark-rule role-axis-tick" style="pointer-events: none;"><line transform="translate(0,0)" x2="0" y2="5" style="fill: none; stroke: #888; stroke-width: 1; opacity: 1;"></line><line transform="translate(164,0)" x2="0" y2="5" style="fill: none; stroke: #888; stroke-width: 1; opacity: 1;"></line><line transform="translate(260,0)" x2="0" y2="5" style="fill: none; stroke: #888; stroke-width: 1; opacity: 1;"></line><line transform="translate(328,0)" x2="0" y2="5" style="fill: none; stroke: #888; stroke-width: 1; opacity: 1;"></line><line transform="translate(381,0)" x2="0" y2="5" style="fill: none; stroke: #888; stroke-width: 1; opacity: 1;"></line><line transform="translate(424,0)" x2="0" y2="5" style="fill: none; stroke: #888; stroke-width: 1; opacity: 1;"></line><line transform="translate(461,0)" x2="0" y2="5" style="fill: none; stroke: #888; stroke-width: 1; opacity: 1;"></line><line transform="translate(493,0)" x2="0" y2="5" style="fill: none; stroke: #888; stroke-width: 1; opacity: 1;"></line><line transform="translate(520,0)" x2="0" y2="5" style="fill: none; stroke: #888; stroke-width: 1; opacity: 1;"></line><line transform="translate(545,0)" x2="0" y2="5" style="fill: none; stroke: #888; stroke-width: 1; opacity: 1;"></line><line transform="translate(710,0)" x2="0" y2="5" style="fill: none; stroke: #888; stroke-width: 1; opacity: 1;"></line><line transform="translate(806,0)" x2="0" y2="5" style="fill: none; stroke: #888; stroke-width: 1; opacity: 1;"></line><line transform="translate(874,0)" x2="0" y2="5" style="fill: none; stroke: #888; stroke-width: 1; opacity: 1;"></line><line transform="translate(927,0)" x2="0" y2="5" style="fill: none; stroke: #888; stroke-width: 1; opacity: 1;"></line><line transform="translate(970,0)" x2="0" y2="5" style="fill: none; stroke: #888; stroke-width: 1; opacity: 1;"></line><line transform="translate(1006,0)" x2="0" y2="5" style="fill: none; stroke: #888; stroke-width: 1; opacity: 1;"></line><line transform="translate(1038,0)" x2="0" y2="5" style="fill: none; stroke: #888; stroke-width: 1; opacity: 1;"></line><line transform="translate(1066,0)" x2="0" y2="5" style="fill: none; stroke: #888; stroke-width: 1; opacity: 1;"></line><line transform="translate(1091,0)" x2="0" y2="5" style="fill: none; stroke: #888; stroke-width: 1; opacity: 1;"></line><line transform="translate(1255,0)" x2="0" y2="5" style="fill: none; stroke: #888; stroke-width: 1; opacity: 1;"></line><line transform="translate(1351,0)" x2="0" y2="5" style="fill: none; stroke: #888; stroke-width: 1; opacity: 1;"></line><line transform="translate(1419,0)" x2="0" y2="5" style="fill: none; stroke: #888; stroke-width: 1; opacity: 1;"></line><line transform="translate(1472,0)" x2="0" y2="5" style="fill: none; stroke: #888; stroke-width: 1; opacity: 1;"></line><line transform="translate(1515,0)" x2="0" y2="5" style="fill: none; stroke: #888; stroke-width: 1; opacity: 1;"></line><line transform="translate(1552,0)" x2="0" y2="5" style="fill: none; stroke: #888; stroke-width: 1; opacity: 1;"></line><line transform="translate(1583,0)" x2="0" y2="5" style="fill: none; stroke: #888; stroke-width: 1; opacity: 1;"></line><line transform="translate(1611,0)" x2="0" y2="5" style="fill: none; stroke: #888; stroke-width: 1; opacity: 1;"></line><line transform="translate(1636,0)" x2="0" y2="5" style="fill: none; stroke: #888; stroke-width: 1; opacity: 1;"></line></g><g class="mark-text role-axis-label" style="pointer-events: none;"><text text-anchor="start" transform="translate(0,31)" style="font-family: arial; font-size: 30px; fill: #000; opacity: 1;">1</text><text text-anchor="middle" transform="translate(164.18677680172974,31)" style="font-family: arial; font-size: 30px; fill: #000; opacity: 1;">2</text><text text-anchor="middle" transform="translate(260.2298843450159,31)" style="font-family: arial; font-size: 30px; fill: #000; opacity: 1;">3</text><text text-anchor="middle" transform="translate(328.37355360345947,31)" style="font-family: arial; font-size: 30px; fill: #000; opacity: 1;"></text><text text-anchor="middle" transform="translate(381.2298898649369,31)" style="font-family: arial; font-size: 30px; fill: #000; opacity: 1;"></text><text text-anchor="middle" transform="translate(424.41666114674564,31)" style="font-family: arial; font-size: 30px; fill: #000; opacity: 1;"></text><text text-anchor="middle" transform="translate(460.93055599110926,31)" style="font-family: arial; font-size: 30px; fill: #000; opacity: 1;"></text><text text-anchor="middle" transform="translate(492.56033040518923,31)" style="font-family: arial; font-size: 30px; fill: #000; opacity: 1;"></text><text text-anchor="middle" transform="translate(520.4597686900318,31)" style="font-family: arial; font-size: 30px; fill: #000; opacity: 1;"></text><text text-anchor="middle" transform="translate(545.4166666666667,31)" style="font-family: arial; font-size: 30px; fill: #000; opacity: 1;">10</text><text text-anchor="middle" transform="translate(709.6034434683964,31)" style="font-family: arial; font-size: 30px; fill: #000; opacity: 1;">20</text><text text-anchor="middle" transform="translate(805.6465510116826,31)" style="font-family: arial; font-size: 30px; fill: #000; opacity: 1;">30</text><text text-anchor="middle" transform="translate(873.7902202701262,31)" style="font-family: arial; font-size: 30px; fill: #000; opacity: 1;"></text><text text-anchor="middle" transform="translate(926.6465565316036,31)" style="font-family: arial; font-size: 30px; fill: #000; opacity: 1;"></text><text text-anchor="middle" transform="translate(969.8333278134123,31)" style="font-family: arial; font-size: 30px; fill: #000; opacity: 1;"></text><text text-anchor="middle" transform="translate(1006.347222657776,31)" style="font-family: arial; font-size: 30px; fill: #000; opacity: 1;"></text><text text-anchor="middle" transform="translate(1037.976997071856,31)" style="font-family: arial; font-size: 30px; fill: #000; opacity: 1;"></text><text text-anchor="middle" transform="translate(1065.8764353566985,31)" style="font-family: arial; font-size: 30px; fill: #000; opacity: 1;"></text><text text-anchor="middle" transform="translate(1090.8333333333335,31)" style="font-family: arial; font-size: 30px; fill: #000; opacity: 1;">100</text><text text-anchor="middle" transform="translate(1255.020110135063,31)" style="font-family: arial; font-size: 30px; fill: #000; opacity: 1;">200</text><text text-anchor="middle" transform="translate(1351.0632176783492,31)" style="font-family: arial; font-size: 30px; fill: #000; opacity: 1;">300</text><text text-anchor="middle" transform="translate(1419.206886936793,31)" style="font-family: arial; font-size: 30px; fill: #000; opacity: 1;"></text><text text-anchor="middle" transform="translate(1472.0632231982702,31)" style="font-family: arial; font-size: 30px; fill: #000; opacity: 1;"></text><text text-anchor="middle" transform="translate(1515.249994480079,31)" style="font-family: arial; font-size: 30px; fill: #000; opacity: 1;"></text><text text-anchor="middle" transform="translate(1551.7638893244425,31)" style="font-family: arial; font-size: 30px; fill: #000; opacity: 1;"></text><text text-anchor="middle" transform="translate(1583.3936637385225,31)" style="font-family: arial; font-size: 30px; fill: #000; opacity: 1;"></text><text text-anchor="middle" transform="translate(1611.2931020233652,31)" style="font-family: arial; font-size: 30px; fill: #000; opacity: 1;"></text><text text-anchor="end" transform="translate(1636.25,31)" style="font-family: arial; font-size: 30px; fill: #000; opacity: 1;">1,000</text></g><g class="mark-rule role-axis-domain" style="pointer-events: none;"><line transform="translate(0,0)" x2="1636.25" y2="0" style="fill: none; stroke: #888; stroke-width: 1; opacity: 1;"></line></g><g class="mark-text role-axis-title" style="pointer-events: none;"><text text-anchor="middle" transform="translate(818.125,65)" style="font-family: arial; font-size: 30px; font-weight: bold; fill: #000; opacity: 1;">Number of Training Samples</text></g></g><path class="foreground" d="" style="pointer-events: none; display: none; fill: none;"></path></g></g><g class="mark-group role-axis"><g transform="translate(0.5,0.5)"><path class="background" d="M0,0h0v0h0Z" style="pointer-events: none; fill: none;"></path><g><g class="mark-rule role-axis-tick" style="pointer-events: none;"><line transform="translate(0,598)" x2="-5" y2="0" style="fill: none; stroke: #888; stroke-width: 1; opacity: 1;"></line><line transform="translate(0,299)" x2="-5" y2="0" style="fill: none; stroke: #888; stroke-width: 1; opacity: 1;"></line><line transform="translate(0,0)" x2="-5" y2="0" style="fill: none; stroke: #888; stroke-width: 1; opacity: 1;"></line></g><g class="mark-text role-axis-label" style="pointer-events: none;"><text text-anchor="end" transform="translate(-7,607)" style="font-family: arial; font-size: 30px; fill: #000; opacity: 1;">0.0e+0</text><text text-anchor="end" transform="translate(-7,308)" style="font-family: arial; font-size: 30px; fill: #000; opacity: 1;">5.0e-3</text><text text-anchor="end" transform="translate(-7,9)" style="font-family: arial; font-size: 30px; fill: #000; opacity: 1;">1.0e-2</text></g><g class="mark-rule role-axis-domain" style="pointer-events: none;"><line transform="translate(0,598)" x2="0" y2="-598" style="fill: none; stroke: #888; stroke-width: 1; opacity: 1;"></line></g><g class="mark-text role-axis-title" style="pointer-events: none;"><text text-anchor="middle" transform="translate(-103.5927734375,299) rotate(-90) translate(0,-6)" style="font-family: arial; font-size: 30px; font-weight: bold; fill: #000; opacity: 1;">Mean Absolute Error (m)</text></g></g><path class="foreground" d="" style="pointer-events: none; display: none; fill: none;"></path></g></g><g class="mark-symbol role-mark layer_0_layer_0_marks"><path transform="translate(1615.2084217220752,486.15313358582557)" d="M9.354143466934854,0A9.354143466934854,9.354143466934854,0,1,1,-9.354143466934854,0A9.354143466934854,9.354143466934854,0,1,1,9.354143466934854,0" style="fill: none; stroke: rgb(20, 98, 154); stroke-width: 8; opacity: 0.7;"></path><path transform="translate(1615.2084217220752,488.58206324160096)" d="M-9.354143466934854,-9.354143466934854h18.708286933869708v18.708286933869708h-18.708286933869708Z" style="fill: none; stroke: rgb(3, 154, 199); stroke-width: 8; opacity: 0.7;"></path><path transform="translate(1615.2084217220752,471.4728966116631)" d="M0,-8.100925873009825L-9.354143466934854,8.100925873009825L9.354143466934854,8.100925873009825Z" style="fill: none; stroke: rgb(51, 212, 233); stroke-width: 8; opacity: 0.7;"></path><path transform="translate(1236.5532468664771,196.58603710651403)" d="M9.354143466934854,0A9.354143466934854,9.354143466934854,0,1,1,-9.354143466934854,0A9.354143466934854,9.354143466934854,0,1,1,9.354143466934854,0" style="fill: none; stroke: rgb(20, 98, 154); stroke-width: 8; opacity: 0.7;"></path><path transform="translate(1236.5532468664771,450.91947499632835)" d="M-9.354143466934854,-9.354143466934854h18.708286933869708v18.708286933869708h-18.708286933869708Z" style="fill: none; stroke: rgb(3, 154, 199); stroke-width: 8; opacity: 0.7;"></path><path transform="translate(1236.5532468664771,385.1695325385003)" d="M0,-8.100925873009825L-9.354143466934854,8.100925873009825L9.354143466934854,8.100925873009825Z" style="fill: none; stroke: rgb(51, 212, 233); stroke-width: 8; opacity: 0.7;"></path><path transform="translate(906.8958340296587,287.5155459189415)" d="M9.354143466934854,0A9.354143466934854,9.354143466934854,0,1,1,-9.354143466934854,0A9.354143466934854,9.354143466934854,0,1,1,9.354143466934854,0" style="fill: none; stroke: rgb(20, 98, 154); stroke-width: 8; opacity: 0.7;"></path><path transform="translate(906.8958340296587,400.50816557735203)" d="M-9.354143466934854,-9.354143466934854h18.708286933869708v18.708286933869708h-18.708286933869708Z" style="fill: none; stroke: rgb(3, 154, 199); stroke-width: 8; opacity: 0.7;"></path><path transform="translate(906.8958340296587,298.7322498072387)" d="M0,-8.100925873009825L-9.354143466934854,8.100925873009825L9.354143466934854,8.100925873009825Z" style="fill: none; stroke: rgb(51, 212, 233); stroke-width: 8; opacity: 0.7;"></path><path transform="translate(1083.6184167310478,360.10760469287624)" d="M9.354143466934854,0A9.354143466934854,9.354143466934854,0,1,1,-9.354143466934854,0A9.354143466934854,9.354143466934854,0,1,1,9.354143466934854,0" style="fill: none; stroke: rgb(20, 98, 154); stroke-width: 8; opacity: 0.7;"></path><path transform="translate(1083.6184167310478,432.429145821929)" d="M-9.354143466934854,-9.354143466934854h18.708286933869708v18.708286933869708h-18.708286933869708Z" style="fill: none; stroke: rgb(3, 154, 199); stroke-width: 8; opacity: 0.7;"></path><path transform="translate(1083.6184167310478,336.40933900245363)" d="M0,-8.100925873009825L-9.354143466934854,8.100925873009825L9.354143466934854,8.100925873009825Z" style="fill: none; stroke: rgb(51, 212, 233); stroke-width: 8; opacity: 0.7;"></path><path transform="translate(520.4597686900318,48.13795170456168)" d="M9.354143466934854,0A9.354143466934854,9.354143466934854,0,1,1,-9.354143466934854,0A9.354143466934854,9.354143466934854,0,1,1,9.354143466934854,0" style="fill: none; stroke: rgb(20, 98, 154); stroke-width: 8; opacity: 0.7;"></path><path transform="translate(520.4597686900318,110.93338779568666)" d="M-9.354143466934854,-9.354143466934854h18.708286933869708v18.708286933869708h-18.708286933869708Z" style="fill: none; stroke: rgb(3, 154, 199); stroke-width: 8; opacity: 0.7;"></path><path transform="translate(520.4597686900318,124.90815682513478)" d="M0,-8.100925873009825L-9.354143466934854,8.100925873009825L9.354143466934854,8.100925873009825Z" style="fill: none; stroke: rgb(51, 212, 233); stroke-width: 8; opacity: 0.7;"></path><path transform="translate(697.4535265196888,191.49624490201472)" d="M9.354143466934854,0A9.354143466934854,9.354143466934854,0,1,1,-9.354143466934854,0A9.354143466934854,9.354143466934854,0,1,1,9.354143466934854,0" style="fill: none; stroke: rgb(20, 98, 154); stroke-width: 8; opacity: 0.7;"></path><path transform="translate(697.4535265196888,302.0932148897648)" d="M-9.354143466934854,-9.354143466934854h18.708286933869708v18.708286933869708h-18.708286933869708Z" style="fill: none; stroke: rgb(3, 154, 199); stroke-width: 8; opacity: 0.7;"></path><path transform="translate(697.4535265196888,208.34379548961587)" d="M0,-8.100925873009825L-9.354143466934854,8.100925873009825L9.354143466934854,8.100925873009825Z" style="fill: none; stroke: rgb(51, 212, 233); stroke-width: 8; opacity: 0.7;"></path><path transform="translate(328.37355360345947,47.22461514800779)" d="M9.354143466934854,0A9.354143466934854,9.354143466934854,0,1,1,-9.354143466934854,0A9.354143466934854,9.354143466934854,0,1,1,9.354143466934854,0" style="fill: none; stroke: rgb(20, 98, 154); stroke-width: 8; opacity: 0.7;"></path><path transform="translate(328.37355360345947,100.45103275954715)" d="M-9.354143466934854,-9.354143466934854h18.708286933869708v18.708286933869708h-18.708286933869708Z" style="fill: none; stroke: rgb(3, 154, 199); stroke-width: 8; opacity: 0.7;"></path><path transform="translate(328.37355360345947,66.07834198371685)" d="M0,-8.100925873009825L-9.354143466934854,8.100925873009825L9.354143466934854,8.100925873009825Z" style="fill: none; stroke: rgb(51, 212, 233); stroke-width: 8; opacity: 0.7;"></path><path transform="translate(1446.5793584888959,430.05928156182165)" d="M9.354143466934854,0A9.354143466934854,9.354143466934854,0,1,1,-9.354143466934854,0A9.354143466934854,9.354143466934854,0,1,1,9.354143466934854,0" style="fill: none; stroke: rgb(20, 98, 154); stroke-width: 8; opacity: 0.7;"></path><path transform="translate(1446.5793584888959,469.9925052209943)" d="M-9.354143466934854,-9.354143466934854h18.708286933869708v18.708286933869708h-18.708286933869708Z" style="fill: none; stroke: rgb(3, 154, 199); stroke-width: 8; opacity: 0.7;"></path><path transform="translate(1446.5793584888959,423.38437640181627)" d="M0,-8.100925873009825L-9.354143466934854,8.100925873009825L9.354143466934854,8.100925873009825Z" style="fill: none; stroke: rgb(51, 212, 233); stroke-width: 8; opacity: 0.7;"></path></g><g class="mark-rule role-mark layer_0_layer_1_marks"><line transform="translate(1615.2084217220752,486.15313358582557)" x2="0" y2="2.4289296557753914" style="fill: none; stroke: black; stroke-width: 2;"></line><line transform="translate(1236.5532468664771,196.58603710651403)" x2="0" y2="254.33343788981432" style="fill: none; stroke: black; stroke-width: 2;"></line><line transform="translate(906.8958340296587,287.5155459189415)" x2="0" y2="112.99261965841055" style="fill: none; stroke: black; stroke-width: 2;"></line><line transform="translate(1083.6184167310478,360.10760469287624)" x2="0" y2="72.32154112905278" style="fill: none; stroke: black; stroke-width: 2;"></line><line transform="translate(520.4597686900318,48.13795170456168)" x2="0" y2="62.79543609112498" style="fill: none; stroke: black; stroke-width: 2;"></line><line transform="translate(697.4535265196888,191.49624490201472)" x2="0" y2="110.59696998775007" style="fill: none; stroke: black; stroke-width: 2;"></line><line transform="translate(328.37355360345947,47.22461514800779)" x2="0" y2="53.226417611539354" style="fill: none; stroke: black; stroke-width: 2;"></line><line transform="translate(1446.5793584888959,430.05928156182165)" x2="0" y2="39.933223659172654" style="fill: none; stroke: black; stroke-width: 2;"></line></g><g class="mark-group role-legend"><g transform="translate(0,-51)"><path class="background" d="M0,0h829v33h-829Z" style="pointer-events: none; fill: none;"></path><g><g class="mark-group role-legend-entry"><g transform="translate(0,0)"><path class="background" d="M0,0h0v0h0Z" style="pointer-events: none; fill: none;"></path><g><g class="mark-group role-scope"><g transform="translate(0,0.32292826653257123)"><path class="background" d="M0,0h100.6650390625v32.35414346693486h-100.6650390625Z" style="pointer-events: none; fill: none; opacity: 1;"></path><g><g class="mark-symbol role-legend-symbol" style="pointer-events: none;"><path transform="translate(15,15)" d="M9.354143466934854,0A9.354143466934854,9.354143466934854,0,1,1,-9.354143466934854,0A9.354143466934854,9.354143466934854,0,1,1,9.354143466934854,0" style="fill: none; stroke: rgb(20, 98, 154); stroke-width: 8; opacity: 0.7;"></path></g><g class="mark-text role-legend-label" style="pointer-events: none;"><text text-anchor="start" transform="translate(34,24)" style="font-family: sans-serif; font-size: 30px; fill: #000; opacity: 1;">GCN</text></g></g><path class="foreground" d="" style="pointer-events: none; display: none; fill: none;"></path></g><g transform="translate(164,0.32292826653257123)"><path class="background" d="M0,0h360.513671875v32.35414346693486h-360.513671875Z" style="pointer-events: none; fill: none; opacity: 1;"></path><g><g class="mark-symbol role-legend-symbol" style="pointer-events: none;"><path transform="translate(15,15)" d="M-9.354143466934854,-9.354143466934854h18.708286933869708v18.708286933869708h-18.708286933869708Z" style="fill: none; stroke: rgb(3, 154, 199); stroke-width: 8; opacity: 0.7;"></path></g><g class="mark-text role-legend-label" style="pointer-events: none;"><text text-anchor="start" transform="translate(34,24)" style="font-family: sans-serif; font-size: 30px; fill: #000; opacity: 1;">GCN + Transfer learning</text></g></g><path class="foreground" d="" style="pointer-events: none; display: none; fill: none;"></path></g><g transform="translate(588,0.9495370634950877)"><path class="background" d="M0,0h240.748046875v31.100925873009828h-240.748046875Z" style="pointer-events: none; fill: none; opacity: 1;"></path><g><g class="mark-symbol role-legend-symbol" style="pointer-events: none;"><path transform="translate(15,15)" d="M0,-8.100925873009825L-9.354143466934854,8.100925873009825L9.354143466934854,8.100925873009825Z" style="fill: none; stroke: rgb(51, 212, 233); stroke-width: 8; opacity: 0.7;"></path></g><g class="mark-text role-legend-label" style="pointer-events: none;"><text text-anchor="start" transform="translate(34,24)" style="font-family: sans-serif; font-size: 30px; fill: #000; opacity: 1;">Random Forest</text></g></g><path class="foreground" d="" style="pointer-events: none; display: none; fill: none;"></path></g></g></g><path class="foreground" d="" style="pointer-events: none; display: none; fill: none;"></path></g></g></g><path class="foreground" d="" style="pointer-events: none; display: none; fill: none;"></path></g></g><g class="mark-group role-title"><g transform="translate(818.125,-121)"><path class="background" d="M0,0h0v0h0Z" style="pointer-events: none; fill: none;"></path><g><g class="mark-text role-title-text" style="pointer-events: none;"><text text-anchor="middle" transform="translate(0,32)" style="font-family: arial; font-size: 40px; font-weight: bold; fill: #000; opacity: 1;">E. Transfer learning across loading conditions</text></g></g><path class="foreground" d="" style="pointer-events: none; display: none; fill: none;"></path></g></g></g><path class="foreground" d="" style="display: none; fill: none;"></path></g></g></g></svg>